<?xml version="1.0" encoding="utf-8" standalone="no"?>
<!DOCTYPE svg PUBLIC "-//W3C//DTD SVG 1.1//EN"
  "http://www.w3.org/Graphics/SVG/1.1/DTD/svg11.dtd">
<svg xmlns:xlink="http://www.w3.org/1999/xlink" width="428.56625pt" height="326.35325pt" viewBox="0 0 428.56625 326.35325" xmlns="http://www.w3.org/2000/svg" version="1.1">
 <metadata>
  <rdf:RDF xmlns:dc="http://purl.org/dc/elements/1.1/" xmlns:cc="http://creativecommons.org/ns#" xmlns:rdf="http://www.w3.org/1999/02/22-rdf-syntax-ns#">
   <cc:Work>
    <dc:type rdf:resource="http://purl.org/dc/dcmitype/StillImage"/>
    <dc:date>2024-02-06T10:49:14.021782</dc:date>
    <dc:format>image/svg+xml</dc:format>
    <dc:creator>
     <cc:Agent>
      <dc:title>Matplotlib v3.8.2, https://matplotlib.org/</dc:title>
     </cc:Agent>
    </dc:creator>
   </cc:Work>
  </rdf:RDF>
 </metadata>
 <defs>
  <style type="text/css">*{stroke-linejoin: round; stroke-linecap: butt}</style>
 </defs>
 <g id="figure_1">
  <g id="patch_1">
   <path d="M 0 326.35325 
L 428.56625 326.35325 
L 428.56625 0 
L 0 0 
z
" style="fill: #ffffff"/>
  </g>
  <g id="axes_1">
   <g id="patch_2">
    <path d="M 64.24625 273.312 
L 421.36625 273.312 
L 421.36625 7.2 
L 64.24625 7.2 
z
" style="fill: #ffffff"/>
   </g>
   <g id="PolyCollection_1">
    <defs>
     <path id="m45d0e3dcc1" d="M 80.478977 -53.372833 
L 80.478977 -53.04125 
L 82.110407 -53.04125 
L 83.741837 -53.04125 
L 85.373267 -53.04125 
L 87.004697 -53.04125 
L 88.636127 -53.04125 
L 90.267557 -53.04125 
L 91.898986 -53.04125 
L 93.530416 -53.04125 
L 95.161846 -53.04125 
L 96.793276 -53.04125 
L 98.424706 -53.04125 
L 100.056136 -53.04125 
L 101.687566 -53.04125 
L 103.318996 -53.04125 
L 104.950425 -53.04125 
L 106.581855 -53.04125 
L 108.213285 -53.04125 
L 109.844715 -53.04125 
L 111.476145 -53.04125 
L 113.107575 -53.04125 
L 114.739005 -53.04125 
L 116.370435 -53.04125 
L 118.001864 -53.04125 
L 119.633294 -53.04125 
L 121.264724 -53.04125 
L 122.896154 -53.04125 
L 124.527584 -53.04125 
L 126.159014 -53.04125 
L 127.790444 -53.04125 
L 129.421874 -53.04125 
L 131.053303 -53.04125 
L 132.684733 -53.04125 
L 134.316163 -53.04125 
L 135.947593 -53.04125 
L 137.579023 -53.04125 
L 139.210453 -53.04125 
L 140.841883 -53.04125 
L 142.473313 -53.04125 
L 144.104742 -53.04125 
L 145.736172 -53.04125 
L 147.367602 -53.04125 
L 148.999032 -53.04125 
L 150.630462 -53.04125 
L 152.261892 -53.04125 
L 153.893322 -53.04125 
L 155.524752 -53.04125 
L 157.156181 -53.04125 
L 158.787611 -53.04125 
L 160.419041 -53.04125 
L 162.050471 -53.04125 
L 163.681901 -53.04125 
L 165.313331 -53.04125 
L 166.944761 -53.04125 
L 168.576191 -53.04125 
L 170.20762 -53.04125 
L 171.83905 -53.04125 
L 173.47048 -53.04125 
L 175.10191 -53.04125 
L 176.73334 -53.04125 
L 178.36477 -53.04125 
L 179.9962 -53.04125 
L 181.62763 -53.04125 
L 183.25906 -53.04125 
L 184.890489 -53.04125 
L 186.521919 -53.04125 
L 188.153349 -53.04125 
L 189.784779 -53.04125 
L 191.416209 -53.04125 
L 193.047639 -53.04125 
L 194.679069 -53.04125 
L 196.310499 -53.04125 
L 197.941928 -53.04125 
L 199.573358 -53.04125 
L 201.204788 -53.04125 
L 202.836218 -53.04125 
L 204.467648 -53.04125 
L 206.099078 -53.04125 
L 207.730508 -53.04125 
L 209.361938 -53.04125 
L 210.993367 -53.04125 
L 212.624797 -53.04125 
L 214.256227 -53.04125 
L 215.887657 -53.04125 
L 217.519087 -53.04125 
L 219.150517 -53.04125 
L 220.781947 -53.04125 
L 222.413377 -53.04125 
L 224.044806 -53.04125 
L 225.676236 -53.04125 
L 227.307666 -53.04125 
L 228.939096 -53.04125 
L 230.570526 -53.04125 
L 232.201956 -53.04125 
L 233.833386 -53.04125 
L 235.464816 -53.04125 
L 237.096245 -53.04125 
L 238.727675 -53.04125 
L 240.359105 -53.04125 
L 241.990535 -53.04125 
L 243.621965 -53.04125 
L 245.253395 -53.04125 
L 246.884825 -53.04125 
L 248.516255 -53.04125 
L 250.147684 -53.04125 
L 251.779114 -53.04125 
L 253.410544 -53.04125 
L 255.041974 -53.04125 
L 256.673404 -53.04125 
L 258.304834 -53.04125 
L 259.936264 -53.04125 
L 261.567694 -53.04125 
L 263.199123 -53.04125 
L 264.830553 -53.04125 
L 266.461983 -53.04125 
L 268.093413 -53.04125 
L 269.724843 -53.04125 
L 271.356273 -53.04125 
L 272.987703 -53.04125 
L 274.619133 -53.04125 
L 276.250562 -53.04125 
L 277.881992 -53.04125 
L 279.513422 -53.04125 
L 281.144852 -53.04125 
L 282.776282 -53.04125 
L 284.407712 -53.04125 
L 286.039142 -53.04125 
L 287.670572 -53.04125 
L 289.302001 -53.04125 
L 290.933431 -53.04125 
L 292.564861 -53.04125 
L 294.196291 -53.04125 
L 295.827721 -53.04125 
L 297.459151 -53.04125 
L 299.090581 -53.04125 
L 300.722011 -53.04125 
L 302.35344 -53.04125 
L 303.98487 -53.04125 
L 305.6163 -53.04125 
L 307.24773 -53.04125 
L 308.87916 -53.04125 
L 310.51059 -53.04125 
L 312.14202 -53.04125 
L 313.77345 -53.04125 
L 315.40488 -53.04125 
L 317.036309 -53.04125 
L 318.667739 -53.04125 
L 320.299169 -53.04125 
L 321.930599 -53.04125 
L 323.562029 -53.04125 
L 325.193459 -53.04125 
L 326.824889 -53.04125 
L 328.456319 -53.04125 
L 330.087748 -53.04125 
L 331.719178 -53.04125 
L 333.350608 -53.04125 
L 334.982038 -53.04125 
L 336.613468 -53.04125 
L 338.244898 -53.04125 
L 339.876328 -53.04125 
L 341.507758 -53.04125 
L 343.139187 -53.04125 
L 344.770617 -53.04125 
L 346.402047 -53.04125 
L 348.033477 -53.04125 
L 349.664907 -53.04125 
L 351.296337 -53.04125 
L 352.927767 -53.04125 
L 354.559197 -53.04125 
L 356.190626 -53.04125 
L 357.822056 -53.04125 
L 359.453486 -53.04125 
L 361.084916 -53.04125 
L 362.716346 -53.04125 
L 364.347776 -53.04125 
L 365.979206 -53.04125 
L 367.610636 -53.04125 
L 369.242065 -53.04125 
L 370.873495 -53.04125 
L 372.504925 -53.04125 
L 374.136355 -53.04125 
L 375.767785 -53.04125 
L 377.399215 -53.04125 
L 379.030645 -53.04125 
L 380.662075 -53.04125 
L 382.293504 -53.04125 
L 383.924934 -53.04125 
L 385.556364 -53.04125 
L 387.187794 -53.04125 
L 388.819224 -53.04125 
L 390.450654 -53.04125 
L 392.082084 -53.04125 
L 393.713514 -53.04125 
L 395.344943 -53.04125 
L 396.976373 -53.04125 
L 398.607803 -53.04125 
L 400.239233 -53.04125 
L 401.870663 -53.04125 
L 403.502093 -53.04125 
L 405.133523 -53.04125 
L 405.133523 -53.043303 
L 405.133523 -53.043303 
L 403.502093 -53.04562 
L 401.870663 -53.049939 
L 400.239233 -53.057388 
L 398.607803 -53.069271 
L 396.976373 -53.086772 
L 395.344943 -53.110545 
L 393.713514 -53.140303 
L 392.082084 -53.174654 
L 390.450654 -53.211366 
L 388.819224 -53.248111 
L 387.187794 -53.283418 
L 385.556364 -53.317378 
L 383.924934 -53.351628 
L 382.293504 -53.388432 
L 380.662075 -53.429133 
L 379.030645 -53.472648 
L 377.399215 -53.514744 
L 375.767785 -53.548587 
L 374.136355 -53.56648 
L 372.504925 -53.562246 
L 370.873495 -53.533349 
L 369.242065 -53.48196 
L 367.610636 -53.414595 
L 365.979206 -53.340507 
L 364.347776 -53.269518 
L 362.716346 -53.210094 
L 361.084916 -53.168218 
L 359.453486 -53.14715 
L 357.822056 -53.147702 
L 356.190626 -53.168557 
L 354.559197 -53.206323 
L 352.927767 -53.255418 
L 351.296337 -53.308178 
L 349.664907 -53.355625 
L 348.033477 -53.389017 
L 346.402047 -53.401832 
L 344.770617 -53.391462 
L 343.139187 -53.359922 
L 341.507758 -53.313222 
L 339.876328 -53.259676 
L 338.244898 -53.207815 
L 336.613468 -53.164652 
L 334.982038 -53.134755 
L 333.350608 -53.120103 
L 331.719178 -53.120438 
L 330.087748 -53.133721 
L 328.456319 -53.156562 
L 326.824889 -53.184704 
L 325.193459 -53.213763 
L 323.562029 -53.240252 
L 321.930599 -53.262637 
L 320.299169 -53.281909 
L 318.667739 -53.301225 
L 317.036309 -53.324517 
L 315.40488 -53.354548 
L 313.77345 -53.39126 
L 312.14202 -53.431225 
L 310.51059 -53.468539 
L 308.87916 -53.496777 
L 307.24773 -53.511139 
L 305.6163 -53.509873 
L 303.98487 -53.494508 
L 302.35344 -53.469001 
L 300.722011 -53.438347 
L 299.090581 -53.407182 
L 297.459151 -53.378753 
L 295.827721 -53.354365 
L 294.196291 -53.333341 
L 292.564861 -53.313511 
L 290.933431 -53.292152 
L 289.302001 -53.267144 
L 287.670572 -53.237942 
L 286.039142 -53.205982 
L 284.407712 -53.17439 
L 282.776282 -53.14718 
L 281.144852 -53.128286 
L 279.513422 -53.120772 
L 277.881992 -53.126332 
L 276.250562 -53.145052 
L 274.619133 -53.175337 
L 272.987703 -53.213987 
L 271.356273 -53.256465 
L 269.724843 -53.297431 
L 268.093413 -53.331496 
L 266.461983 -53.354048 
L 264.830553 -53.361991 
L 263.199123 -53.354236 
L 261.567694 -53.331891 
L 259.936264 -53.298128 
L 258.304834 -53.257784 
L 256.673404 -53.216784 
L 255.041974 -53.18155 
L 253.410544 -53.158553 
L 251.779114 -53.154039 
L 250.147684 -53.17373 
L 248.516255 -53.22218 
L 246.884825 -53.301496 
L 245.253395 -53.409572 
L 243.621965 -53.538467 
L 241.990535 -53.674015 
L 240.359105 -53.797553 
L 238.727675 -53.889969 
L 237.096245 -53.937221 
L 235.464816 -53.935763 
L 233.833386 -53.896365 
L 232.201956 -53.845666 
L 230.570526 -53.825894 
L 228.939096 -53.893663 
L 227.307666 -54.118151 
L 225.676236 -54.577508 
L 224.044806 -55.351004 
L 222.413377 -56.504596 
L 220.781947 -58.070164 
L 219.150517 -60.023176 
L 217.519087 -62.267941 
L 215.887657 -64.640752 
L 214.256227 -66.936716 
L 212.624797 -68.956352 
L 210.993367 -70.557226 
L 209.361938 -71.690225 
L 207.730508 -72.403996 
L 206.099078 -72.814213 
L 204.467648 -73.050504 
L 202.836218 -73.204567 
L 201.204788 -73.302334 
L 199.573358 -73.31118 
L 197.941928 -73.17627 
L 196.310499 -72.866751 
L 194.679069 -72.408836 
L 193.047639 -71.890181 
L 191.416209 -71.434089 
L 189.784779 -71.156078 
L 188.153349 -71.122638 
L 186.521919 -71.329782 
L 184.890489 -71.708891 
L 183.25906 -72.154962 
L 181.62763 -72.563577 
L 179.9962 -72.861502 
L 178.36477 -73.021231 
L 176.73334 -73.05816 
L 175.10191 -73.016163 
L 173.47048 -72.95025 
L 171.83905 -72.913909 
L 170.20762 -72.954994 
L 168.576191 -73.119411 
L 166.944761 -73.457711 
L 165.313331 -74.027558 
L 163.681901 -74.886728 
L 162.050471 -76.076943 
L 160.419041 -77.606211 
L 158.787611 -79.441609 
L 157.156181 -81.521981 
L 155.524752 -83.790844 
L 153.893322 -86.238716 
L 152.261892 -88.937292 
L 150.630462 -92.049208 
L 148.999032 -95.805917 
L 147.367602 -100.45843 
L 145.736172 -106.216053 
L 144.104742 -113.192976 
L 142.473313 -121.379477 
L 140.841883 -130.644328 
L 139.210453 -140.761632 
L 137.579023 -151.44536 
L 135.947593 -162.374486 
L 134.316163 -173.201605 
L 132.684733 -183.55204 
L 131.053303 -193.029 
L 129.421874 -201.237702 
L 127.790444 -207.830353 
L 126.159014 -212.563012 
L 124.527584 -215.350811 
L 122.896154 -216.308929 
L 121.264724 -215.767982 
L 119.633294 -214.251736 
L 118.001864 -212.406333 
L 116.370435 -210.879155 
L 114.739005 -210.16299 
L 113.107575 -210.440112 
L 111.476145 -211.471618 
L 109.844715 -212.573697 
L 108.213285 -212.705308 
L 106.581855 -210.665123 
L 104.950425 -205.364731 
L 103.318996 -196.115827 
L 101.687566 -182.851131 
L 100.056136 -166.204289 
L 98.424706 -147.409877 
L 96.793276 -128.043405 
L 95.161846 -109.679486 
L 93.530416 -93.575797 
L 91.898986 -80.475531 
L 90.267557 -70.569483 
L 88.636127 -63.59742 
L 87.004697 -59.026024 
L 85.373267 -56.232023 
L 83.741837 -54.639534 
L 82.110407 -53.792843 
L 80.478977 -53.372833 
z
" style="stroke: #2ca02c"/>
    </defs>
    <g clip-path="url(#p65ca04b65f)">
     <use xlink:href="#m45d0e3dcc1" x="0" y="326.35325" style="fill: #2ca02c; fill-opacity: 0.25; stroke: #2ca02c"/>
    </g>
   </g>
   <g id="PolyCollection_2">
    <defs>
     <path id="m31a5911507" d="M 85.278668 -53.249234 
L 85.278668 -53.04125 
L 86.49169 -53.04125 
L 87.704713 -53.04125 
L 88.917735 -53.04125 
L 90.130758 -53.04125 
L 91.34378 -53.04125 
L 92.556803 -53.04125 
L 93.769825 -53.04125 
L 94.982848 -53.04125 
L 96.19587 -53.04125 
L 97.408893 -53.04125 
L 98.621915 -53.04125 
L 99.834938 -53.04125 
L 101.04796 -53.04125 
L 102.260983 -53.04125 
L 103.474005 -53.04125 
L 104.687028 -53.04125 
L 105.90005 -53.04125 
L 107.113073 -53.04125 
L 108.326095 -53.04125 
L 109.539118 -53.04125 
L 110.75214 -53.04125 
L 111.965163 -53.04125 
L 113.178185 -53.04125 
L 114.391208 -53.04125 
L 115.60423 -53.04125 
L 116.817253 -53.04125 
L 118.030275 -53.04125 
L 119.243298 -53.04125 
L 120.45632 -53.04125 
L 121.669343 -53.04125 
L 122.882365 -53.04125 
L 124.095388 -53.04125 
L 125.30841 -53.04125 
L 126.521433 -53.04125 
L 127.734455 -53.04125 
L 128.947478 -53.04125 
L 130.1605 -53.04125 
L 131.373523 -53.04125 
L 132.586545 -53.04125 
L 133.799568 -53.04125 
L 135.01259 -53.04125 
L 136.225613 -53.04125 
L 137.438635 -53.04125 
L 138.651658 -53.04125 
L 139.86468 -53.04125 
L 141.077703 -53.04125 
L 142.290725 -53.04125 
L 143.503748 -53.04125 
L 144.71677 -53.04125 
L 145.929793 -53.04125 
L 147.142815 -53.04125 
L 148.355838 -53.04125 
L 149.56886 -53.04125 
L 150.781883 -53.04125 
L 151.994905 -53.04125 
L 153.207928 -53.04125 
L 154.42095 -53.04125 
L 155.633973 -53.04125 
L 156.846995 -53.04125 
L 158.060018 -53.04125 
L 159.27304 -53.04125 
L 160.486063 -53.04125 
L 161.699085 -53.04125 
L 162.912108 -53.04125 
L 164.12513 -53.04125 
L 165.338153 -53.04125 
L 166.551175 -53.04125 
L 167.764198 -53.04125 
L 168.97722 -53.04125 
L 170.190243 -53.04125 
L 171.403265 -53.04125 
L 172.616288 -53.04125 
L 173.82931 -53.04125 
L 175.042333 -53.04125 
L 176.255355 -53.04125 
L 177.468378 -53.04125 
L 178.6814 -53.04125 
L 179.894423 -53.04125 
L 181.107445 -53.04125 
L 182.320468 -53.04125 
L 183.53349 -53.04125 
L 184.746513 -53.04125 
L 185.959535 -53.04125 
L 187.172558 -53.04125 
L 188.38558 -53.04125 
L 189.598603 -53.04125 
L 190.811625 -53.04125 
L 192.024648 -53.04125 
L 193.23767 -53.04125 
L 194.450693 -53.04125 
L 195.663715 -53.04125 
L 196.876738 -53.04125 
L 198.08976 -53.04125 
L 199.302783 -53.04125 
L 200.515805 -53.04125 
L 201.728828 -53.04125 
L 202.94185 -53.04125 
L 204.154873 -53.04125 
L 205.367895 -53.04125 
L 206.580918 -53.04125 
L 207.79394 -53.04125 
L 209.006963 -53.04125 
L 210.219985 -53.04125 
L 211.433008 -53.04125 
L 212.64603 -53.04125 
L 213.859053 -53.04125 
L 215.072075 -53.04125 
L 216.285098 -53.04125 
L 217.49812 -53.04125 
L 218.711143 -53.04125 
L 219.924165 -53.04125 
L 221.137188 -53.04125 
L 222.35021 -53.04125 
L 223.563233 -53.04125 
L 224.776255 -53.04125 
L 225.989278 -53.04125 
L 227.2023 -53.04125 
L 228.415323 -53.04125 
L 229.628345 -53.04125 
L 230.841368 -53.04125 
L 232.05439 -53.04125 
L 233.267413 -53.04125 
L 234.480435 -53.04125 
L 235.693458 -53.04125 
L 236.90648 -53.04125 
L 238.119503 -53.04125 
L 239.332525 -53.04125 
L 240.545548 -53.04125 
L 241.75857 -53.04125 
L 242.971593 -53.04125 
L 244.184615 -53.04125 
L 245.397638 -53.04125 
L 246.61066 -53.04125 
L 247.823683 -53.04125 
L 249.036705 -53.04125 
L 250.249728 -53.04125 
L 251.46275 -53.04125 
L 252.675773 -53.04125 
L 253.888795 -53.04125 
L 255.101818 -53.04125 
L 256.31484 -53.04125 
L 257.527863 -53.04125 
L 258.740885 -53.04125 
L 259.953908 -53.04125 
L 261.16693 -53.04125 
L 262.379953 -53.04125 
L 263.592975 -53.04125 
L 264.805998 -53.04125 
L 266.01902 -53.04125 
L 267.232043 -53.04125 
L 268.445065 -53.04125 
L 269.658088 -53.04125 
L 270.87111 -53.04125 
L 272.084133 -53.04125 
L 273.297155 -53.04125 
L 274.510178 -53.04125 
L 275.7232 -53.04125 
L 276.936223 -53.04125 
L 278.149245 -53.04125 
L 279.362268 -53.04125 
L 280.57529 -53.04125 
L 281.788313 -53.04125 
L 283.001335 -53.04125 
L 284.214358 -53.04125 
L 285.42738 -53.04125 
L 286.640403 -53.04125 
L 287.853425 -53.04125 
L 289.066448 -53.04125 
L 290.27947 -53.04125 
L 291.492493 -53.04125 
L 292.705515 -53.04125 
L 293.918538 -53.04125 
L 295.13156 -53.04125 
L 296.344583 -53.04125 
L 297.557605 -53.04125 
L 298.770628 -53.04125 
L 299.98365 -53.04125 
L 301.196673 -53.04125 
L 302.409695 -53.04125 
L 303.622718 -53.04125 
L 304.83574 -53.04125 
L 306.048763 -53.04125 
L 307.261785 -53.04125 
L 308.474808 -53.04125 
L 309.68783 -53.04125 
L 310.900853 -53.04125 
L 312.113875 -53.04125 
L 313.326898 -53.04125 
L 314.53992 -53.04125 
L 315.752943 -53.04125 
L 316.965965 -53.04125 
L 318.178988 -53.04125 
L 319.39201 -53.04125 
L 320.605033 -53.04125 
L 321.818055 -53.04125 
L 323.031078 -53.04125 
L 324.2441 -53.04125 
L 325.457123 -53.04125 
L 326.670145 -53.04125 
L 326.670145 -53.044009 
L 326.670145 -53.044009 
L 325.457123 -53.047123 
L 324.2441 -53.052915 
L 323.031078 -53.062864 
L 321.818055 -53.078616 
L 320.605033 -53.101515 
L 319.39201 -53.131933 
L 318.178988 -53.168556 
L 316.965965 -53.207988 
L 315.752943 -53.244993 
L 314.53992 -53.273519 
L 313.326898 -53.288289 
L 312.113875 -53.286382 
L 310.900853 -53.268184 
L 309.68783 -53.237252 
L 308.474808 -53.199187 
L 307.261785 -53.159983 
L 306.048763 -53.124526 
L 304.83574 -53.095742 
L 303.622718 -53.074516 
L 302.409695 -53.060197 
L 301.196673 -53.051318 
L 299.98365 -53.046241 
L 298.770628 -53.043559 
L 297.557605 -53.042246 
L 296.344583 -53.041651 
L 295.13156 -53.041401 
L 293.918538 -53.041303 
L 292.705515 -53.041267 
L 291.492493 -53.041255 
L 290.27947 -53.041252 
L 289.066448 -53.041251 
L 287.853425 -53.041251 
L 286.640403 -53.041252 
L 285.42738 -53.041259 
L 284.214358 -53.041278 
L 283.001335 -53.041337 
L 281.788313 -53.041502 
L 280.57529 -53.041928 
L 279.362268 -53.042954 
L 278.149245 -53.045249 
L 276.936223 -53.050019 
L 275.7232 -53.059219 
L 274.510178 -53.075683 
L 273.297155 -53.102996 
L 272.084133 -53.144978 
L 270.87111 -53.20474 
L 269.658088 -53.283509 
L 268.445065 -53.379654 
L 267.232043 -53.488414 
L 266.01902 -53.602587 
L 264.805998 -53.713943 
L 263.592975 -53.814704 
L 262.379953 -53.898333 
L 261.16693 -53.959408 
L 259.953908 -53.993045 
L 258.740885 -53.994754 
L 257.527863 -53.961364 
L 256.31484 -53.892792 
L 255.101818 -53.793692 
L 253.888795 -53.673828 
L 252.675773 -53.546703 
L 251.46275 -53.426943 
L 250.249728 -53.327605 
L 249.036705 -53.258512 
L 247.823683 -53.226105 
L 246.61066 -53.234538 
L 245.397638 -53.287276 
L 244.184615 -53.38843 
L 242.971593 -53.543283 
L 241.75857 -53.757711 
L 240.545548 -54.036308 
L 239.332525 -54.379241 
L 238.119503 -54.778238 
L 236.90648 -55.212814 
L 235.693458 -55.648484 
L 234.480435 -56.038908 
L 233.267413 -56.332963 
L 232.05439 -56.485884 
L 230.841368 -56.471356 
L 229.628345 -56.290167 
L 228.415323 -55.971664 
L 227.2023 -55.566891 
L 225.989278 -55.135761 
L 224.776255 -54.733098 
L 223.563233 -54.398653 
L 222.35021 -54.154091 
L 221.137188 -54.006763 
L 219.924165 -53.957433 
L 218.711143 -54.007925 
L 217.49812 -54.165206 
L 216.285098 -54.440004 
L 215.072075 -54.840154 
L 213.859053 -55.360914 
L 212.64603 -55.976087 
L 211.433008 -56.63435 
L 210.219985 -57.264061 
L 209.006963 -57.786951 
L 207.79394 -58.137258 
L 206.580918 -58.279807 
L 205.367895 -58.220119 
L 204.154873 -58.002399 
L 202.94185 -57.696167 
L 201.728828 -57.37691 
L 200.515805 -57.108002 
L 199.302783 -56.929667 
L 198.08976 -56.856919 
L 196.876738 -56.884604 
L 195.663715 -56.995707 
L 194.450693 -57.169403 
L 193.23767 -57.387035 
L 192.024648 -57.635756 
L 190.811625 -57.910225 
L 189.598603 -58.212648 
L 188.38558 -58.551311 
L 187.172558 -58.938111 
L 185.959535 -59.38604 
L 184.746513 -59.907631 
L 183.53349 -60.514569 
L 182.320468 -61.217652 
L 181.107445 -62.026045 
L 179.894423 -62.945686 
L 178.6814 -63.978395 
L 177.468378 -65.124045 
L 176.255355 -66.387125 
L 175.042333 -67.786023 
L 173.82931 -69.360129 
L 172.616288 -71.168532 
L 171.403265 -73.276382 
L 170.190243 -75.730519 
L 168.97722 -78.532312 
L 167.764198 -81.61922 
L 166.551175 -84.864972 
L 165.338153 -88.101552 
L 164.12513 -91.157595 
L 162.912108 -93.901481 
L 161.699085 -96.276248 
L 160.486063 -98.317229 
L 159.27304 -100.149413 
L 158.060018 -101.966729 
L 156.846995 -103.998224 
L 155.633973 -106.466891 
L 154.42095 -109.547248 
L 153.207928 -113.328665 
L 151.994905 -117.792261 
L 150.781883 -122.808649 
L 149.56886 -128.16038 
L 148.355838 -133.586751 
L 147.142815 -138.841172 
L 145.929793 -143.745431 
L 144.71677 -148.224106 
L 143.503748 -152.30777 
L 142.290725 -156.104685 
L 141.077703 -159.753206 
L 139.86468 -163.375325 
L 138.651658 -167.050738 
L 137.438635 -170.819851 
L 136.225613 -174.707806 
L 135.01259 -178.748634 
L 133.799568 -182.98712 
L 132.586545 -187.448829 
L 131.373523 -192.09038 
L 130.1605 -196.760407 
L 128.947478 -201.204462 
L 127.734455 -205.129698 
L 126.521433 -208.314289 
L 125.30841 -210.717888 
L 124.095388 -212.538988 
L 122.882365 -214.180648 
L 121.669343 -216.122528 
L 120.45632 -218.739035 
L 119.243298 -222.1318 
L 118.030275 -226.045626 
L 116.817253 -229.907839 
L 115.60423 -232.982092 
L 114.391208 -234.579642 
L 113.178185 -234.246144 
L 111.965163 -231.852886 
L 110.75214 -227.564066 
L 109.539118 -221.705474 
L 108.326095 -214.598766 
L 107.113073 -206.432269 
L 105.90005 -197.215175 
L 104.687028 -186.823241 
L 103.474005 -175.109977 
L 102.260983 -162.038801 
L 101.04796 -147.789456 
L 99.834938 -132.801777 
L 98.621915 -117.738528 
L 97.408893 -103.374144 
L 96.19587 -90.441977 
L 94.982848 -79.48889 
L 93.769825 -70.783516 
L 92.556803 -64.30258 
L 91.34378 -59.788991 
L 90.130758 -56.851105 
L 88.917735 -55.065074 
L 87.704713 -54.051438 
L 86.49169 -53.51456 
L 85.278668 -53.249234 
z
" style="stroke: #ff7f0e"/>
    </defs>
    <g clip-path="url(#p65ca04b65f)">
     <use xlink:href="#m31a5911507" x="0" y="326.35325" style="fill: #ff7f0e; fill-opacity: 0.25; stroke: #ff7f0e"/>
    </g>
   </g>
   <g id="PolyCollection_3">
    <defs>
     <path id="m94dc042f8c" d="M 86.661385 -53.656687 
L 86.661385 -53.04125 
L 88.015639 -53.04125 
L 89.369893 -53.04125 
L 90.724147 -53.04125 
L 92.078401 -53.04125 
L 93.432655 -53.04125 
L 94.786909 -53.04125 
L 96.141163 -53.04125 
L 97.495417 -53.04125 
L 98.849672 -53.04125 
L 100.203926 -53.04125 
L 101.55818 -53.04125 
L 102.912434 -53.04125 
L 104.266688 -53.04125 
L 105.620942 -53.04125 
L 106.975196 -53.04125 
L 108.32945 -53.04125 
L 109.683704 -53.04125 
L 111.037958 -53.04125 
L 112.392212 -53.04125 
L 113.746466 -53.04125 
L 115.10072 -53.04125 
L 116.454974 -53.04125 
L 117.809228 -53.04125 
L 119.163482 -53.04125 
L 120.517736 -53.04125 
L 121.87199 -53.04125 
L 123.226244 -53.04125 
L 124.580498 -53.04125 
L 125.934752 -53.04125 
L 127.289006 -53.04125 
L 128.64326 -53.04125 
L 129.997514 -53.04125 
L 131.351768 -53.04125 
L 132.706022 -53.04125 
L 134.060276 -53.04125 
L 135.414531 -53.04125 
L 136.768785 -53.04125 
L 138.123039 -53.04125 
L 139.477293 -53.04125 
L 140.831547 -53.04125 
L 142.185801 -53.04125 
L 143.540055 -53.04125 
L 144.894309 -53.04125 
L 146.248563 -53.04125 
L 147.602817 -53.04125 
L 148.957071 -53.04125 
L 150.311325 -53.04125 
L 151.665579 -53.04125 
L 153.019833 -53.04125 
L 154.374087 -53.04125 
L 155.728341 -53.04125 
L 157.082595 -53.04125 
L 158.436849 -53.04125 
L 159.791103 -53.04125 
L 161.145357 -53.04125 
L 162.499611 -53.04125 
L 163.853865 -53.04125 
L 165.208119 -53.04125 
L 166.562373 -53.04125 
L 167.916627 -53.04125 
L 169.270881 -53.04125 
L 170.625135 -53.04125 
L 171.97939 -53.04125 
L 173.333644 -53.04125 
L 174.687898 -53.04125 
L 176.042152 -53.04125 
L 177.396406 -53.04125 
L 178.75066 -53.04125 
L 180.104914 -53.04125 
L 181.459168 -53.04125 
L 182.813422 -53.04125 
L 184.167676 -53.04125 
L 185.52193 -53.04125 
L 186.876184 -53.04125 
L 188.230438 -53.04125 
L 189.584692 -53.04125 
L 190.938946 -53.04125 
L 192.2932 -53.04125 
L 193.647454 -53.04125 
L 195.001708 -53.04125 
L 196.355962 -53.04125 
L 197.710216 -53.04125 
L 199.06447 -53.04125 
L 200.418724 -53.04125 
L 201.772978 -53.04125 
L 203.127232 -53.04125 
L 204.481486 -53.04125 
L 205.83574 -53.04125 
L 207.189994 -53.04125 
L 208.544249 -53.04125 
L 209.898503 -53.04125 
L 211.252757 -53.04125 
L 212.607011 -53.04125 
L 213.961265 -53.04125 
L 215.315519 -53.04125 
L 216.669773 -53.04125 
L 218.024027 -53.04125 
L 219.378281 -53.04125 
L 220.732535 -53.04125 
L 222.086789 -53.04125 
L 223.441043 -53.04125 
L 224.795297 -53.04125 
L 226.149551 -53.04125 
L 227.503805 -53.04125 
L 228.858059 -53.04125 
L 230.212313 -53.04125 
L 231.566567 -53.04125 
L 232.920821 -53.04125 
L 234.275075 -53.04125 
L 235.629329 -53.04125 
L 236.983583 -53.04125 
L 238.337837 -53.04125 
L 239.692091 -53.04125 
L 241.046345 -53.04125 
L 242.400599 -53.04125 
L 243.754854 -53.04125 
L 245.109108 -53.04125 
L 246.463362 -53.04125 
L 247.817616 -53.04125 
L 249.17187 -53.04125 
L 250.526124 -53.04125 
L 251.880378 -53.04125 
L 253.234632 -53.04125 
L 254.588886 -53.04125 
L 255.94314 -53.04125 
L 257.297394 -53.04125 
L 258.651648 -53.04125 
L 260.005902 -53.04125 
L 261.360156 -53.04125 
L 262.71441 -53.04125 
L 264.068664 -53.04125 
L 265.422918 -53.04125 
L 266.777172 -53.04125 
L 268.131426 -53.04125 
L 269.48568 -53.04125 
L 270.839934 -53.04125 
L 272.194188 -53.04125 
L 273.548442 -53.04125 
L 274.902696 -53.04125 
L 276.25695 -53.04125 
L 277.611204 -53.04125 
L 278.965458 -53.04125 
L 280.319713 -53.04125 
L 281.673967 -53.04125 
L 283.028221 -53.04125 
L 284.382475 -53.04125 
L 285.736729 -53.04125 
L 287.090983 -53.04125 
L 288.445237 -53.04125 
L 289.799491 -53.04125 
L 291.153745 -53.04125 
L 292.507999 -53.04125 
L 293.862253 -53.04125 
L 295.216507 -53.04125 
L 296.570761 -53.04125 
L 297.925015 -53.04125 
L 299.279269 -53.04125 
L 300.633523 -53.04125 
L 301.987777 -53.04125 
L 303.342031 -53.04125 
L 304.696285 -53.04125 
L 306.050539 -53.04125 
L 307.404793 -53.04125 
L 308.759047 -53.04125 
L 310.113301 -53.04125 
L 311.467555 -53.04125 
L 312.821809 -53.04125 
L 314.176063 -53.04125 
L 315.530317 -53.04125 
L 316.884572 -53.04125 
L 318.238826 -53.04125 
L 319.59308 -53.04125 
L 320.947334 -53.04125 
L 322.301588 -53.04125 
L 323.655842 -53.04125 
L 325.010096 -53.04125 
L 326.36435 -53.04125 
L 327.718604 -53.04125 
L 329.072858 -53.04125 
L 330.427112 -53.04125 
L 331.781366 -53.04125 
L 333.13562 -53.04125 
L 334.489874 -53.04125 
L 335.844128 -53.04125 
L 337.198382 -53.04125 
L 338.552636 -53.04125 
L 339.90689 -53.04125 
L 341.261144 -53.04125 
L 342.615398 -53.04125 
L 343.969652 -53.04125 
L 345.323906 -53.04125 
L 346.67816 -53.04125 
L 348.032414 -53.04125 
L 349.386668 -53.04125 
L 350.740922 -53.04125 
L 352.095176 -53.04125 
L 353.449431 -53.04125 
L 354.803685 -53.04125 
L 356.157939 -53.04125 
L 356.157939 -53.044318 
L 356.157939 -53.044318 
L 354.803685 -53.049009 
L 353.449431 -53.058894 
L 352.095176 -53.077344 
L 350.740922 -53.107728 
L 349.386668 -53.151651 
L 348.032414 -53.206983 
L 346.67816 -53.26713 
L 345.323906 -53.322783 
L 343.969652 -53.3658 
L 342.615398 -53.392854 
L 341.261144 -53.405988 
L 339.90689 -53.409383 
L 338.552636 -53.404883 
L 337.198382 -53.390134 
L 335.844128 -53.360969 
L 334.489874 -53.315943 
L 333.13562 -53.259149 
L 331.781366 -53.199131 
L 330.427112 -53.145034 
L 329.072858 -53.102893 
L 327.718604 -53.074255 
L 326.36435 -53.057158 
L 325.010096 -53.048148 
L 323.655842 -53.043939 
L 322.301588 -53.042192 
L 320.947334 -53.041547 
L 319.59308 -53.041334 
L 318.238826 -53.041271 
L 316.884572 -53.041255 
L 315.530317 -53.041251 
L 314.176063 -53.041251 
L 312.821809 -53.041253 
L 311.467555 -53.041264 
L 310.113301 -53.041307 
L 308.759047 -53.041461 
L 307.404793 -53.041949 
L 306.050539 -53.043336 
L 304.696285 -53.046867 
L 303.342031 -53.054916 
L 301.987777 -53.071345 
L 300.633523 -53.10137 
L 299.279269 -53.150492 
L 297.925015 -53.222419 
L 296.570761 -53.316554 
L 295.216507 -53.426264 
L 293.862253 -53.539026 
L 292.507999 -53.638713 
L 291.153745 -53.70936 
L 289.799491 -53.739388 
L 288.445237 -53.725411 
L 287.090983 -53.674727 
L 285.736729 -53.605273 
L 284.382475 -53.541843 
L 283.028221 -53.508697 
L 281.673967 -53.520768 
L 280.319713 -53.57717 
L 278.965458 -53.660295 
L 277.611204 -53.741432 
L 276.25695 -53.790808 
L 274.902696 -53.787933 
L 273.548442 -53.728046 
L 272.194188 -53.622376 
L 270.839934 -53.492707 
L 269.48568 -53.363197 
L 268.131426 -53.253174 
L 266.777172 -53.173646 
L 265.422918 -53.127923 
L 264.068664 -53.114621 
L 262.71441 -53.130497 
L 261.360156 -53.171401 
L 260.005902 -53.231501 
L 258.651648 -53.302371 
L 257.297394 -53.373582 
L 255.94314 -53.435019 
L 254.588886 -53.479612 
L 253.234632 -53.504872 
L 251.880378 -53.512801 
L 250.526124 -53.508874 
L 249.17187 -53.500769 
L 247.817616 -53.49682 
L 246.463362 -53.504223 
L 245.109108 -53.527707 
L 243.754854 -53.569316 
L 242.400599 -53.628719 
L 241.046345 -53.702602 
L 239.692091 -53.782945 
L 238.337837 -53.856301 
L 236.983583 -53.906702 
L 235.629329 -53.922128 
L 234.275075 -53.900875 
L 232.920821 -53.853219 
L 231.566567 -53.796821 
L 230.212313 -53.748935 
L 228.858059 -53.720565 
L 227.503805 -53.715659 
L 226.149551 -53.734176 
L 224.795297 -53.775086 
L 223.441043 -53.836234 
L 222.086789 -53.911436 
L 220.732535 -53.988318 
L 219.378281 -54.05052 
L 218.024027 -54.084665 
L 216.669773 -54.08846 
L 215.315519 -54.074796 
L 213.961265 -54.068803 
L 212.607011 -54.09875 
L 211.252757 -54.184643 
L 209.898503 -54.329294 
L 208.544249 -54.515717 
L 207.189994 -54.712294 
L 205.83574 -54.883654 
L 204.481486 -55.002118 
L 203.127232 -55.05438 
L 201.772978 -55.041649 
L 200.418724 -54.976062 
L 199.06447 -54.877582 
L 197.710216 -54.772334 
L 196.355962 -54.689381 
L 195.001708 -54.653621 
L 193.647454 -54.678091 
L 192.2932 -54.762845 
L 190.938946 -54.903692 
L 189.584692 -55.104343 
L 188.230438 -55.3797 
L 186.876184 -55.743778 
L 185.52193 -56.189693 
L 184.167676 -56.679004 
L 182.813422 -57.153091 
L 181.459168 -57.562341 
L 180.104914 -57.89356 
L 178.75066 -58.175885 
L 177.396406 -58.461121 
L 176.042152 -58.792651 
L 174.687898 -59.183308 
L 173.333644 -59.613901 
L 171.97939 -60.049955 
L 170.625135 -60.465522 
L 169.270881 -60.862647 
L 167.916627 -61.279407 
L 166.562373 -61.784554 
L 165.208119 -62.461532 
L 163.853865 -63.387867 
L 162.499611 -64.616126 
L 161.145357 -66.160428 
L 159.791103 -67.991654 
L 158.436849 -70.045883 
L 157.082595 -72.248828 
L 155.728341 -74.55001 
L 154.374087 -76.950451 
L 153.019833 -79.50882 
L 151.665579 -82.325448 
L 150.311325 -85.517374 
L 148.957071 -89.196541 
L 147.602817 -93.451865 
L 146.248563 -98.330961 
L 144.894309 -103.824848 
L 143.540055 -109.864709 
L 142.185801 -116.330719 
L 140.831547 -123.05866 
L 139.477293 -129.832086 
L 138.123039 -136.369701 
L 136.768785 -142.336915 
L 135.414531 -147.404759 
L 134.060276 -151.351447 
L 132.706022 -154.174202 
L 131.351768 -156.168657 
L 129.997514 -157.940565 
L 128.64326 -160.33228 
L 127.289006 -164.271215 
L 125.934752 -170.57612 
L 124.580498 -179.77626 
L 123.226244 -191.990457 
L 121.87199 -206.879967 
L 120.517736 -223.664425 
L 119.163482 -241.202228 
L 117.809228 -258.162388 
L 116.454974 -273.293347 
L 115.10072 -285.710697 
L 113.746466 -295.05782 
L 112.392212 -301.437618 
L 111.037958 -305.161277 
L 109.683704 -306.48125 
L 108.32945 -305.450031 
L 106.975196 -301.899922 
L 105.620942 -295.431691 
L 104.266688 -285.361036 
L 102.912434 -270.747799 
L 101.55818 -250.7106 
L 100.203926 -225.048142 
L 98.849672 -194.851267 
L 97.495417 -162.624935 
L 96.141163 -131.679918 
L 94.786909 -105.054722 
L 93.432655 -84.565666 
L 92.078401 -70.471443 
L 90.724147 -61.803895 
L 89.369893 -57.0367 
L 88.015639 -54.690493 
L 86.661385 -53.656687 
z
" style="stroke: #1f77b4"/>
    </defs>
    <g clip-path="url(#p65ca04b65f)">
     <use xlink:href="#m94dc042f8c" x="0" y="326.35325" style="fill: #1f77b4; fill-opacity: 0.25; stroke: #1f77b4"/>
    </g>
   </g>
   <g id="matplotlib.axis_1">
    <g id="xtick_1">
     <g id="line2d_1">
      <defs>
       <path id="m3bf24a122d" d="M 0 0 
L 0 3.5 
" style="stroke: #000000; stroke-width: 0.8"/>
      </defs>
      <g>
       <use xlink:href="#m3bf24a122d" x="99.093008" y="273.312" style="stroke: #000000; stroke-width: 0.8"/>
      </g>
     </g>
     <g id="text_1">
      <!-- 0.0 -->
      <g transform="translate(84.780196 293.989187) scale(0.18 -0.18)">
       <defs>
        <path id="DejaVuSans-30" d="M 2034 4250 
Q 1547 4250 1301 3770 
Q 1056 3291 1056 2328 
Q 1056 1369 1301 889 
Q 1547 409 2034 409 
Q 2525 409 2770 889 
Q 3016 1369 3016 2328 
Q 3016 3291 2770 3770 
Q 2525 4250 2034 4250 
z
M 2034 4750 
Q 2819 4750 3233 4129 
Q 3647 3509 3647 2328 
Q 3647 1150 3233 529 
Q 2819 -91 2034 -91 
Q 1250 -91 836 529 
Q 422 1150 422 2328 
Q 422 3509 836 4129 
Q 1250 4750 2034 4750 
z
" transform="scale(0.015625)"/>
        <path id="DejaVuSans-2e" d="M 684 794 
L 1344 794 
L 1344 0 
L 684 0 
L 684 794 
z
" transform="scale(0.015625)"/>
       </defs>
       <use xlink:href="#DejaVuSans-30"/>
       <use xlink:href="#DejaVuSans-2e" x="63.623047"/>
       <use xlink:href="#DejaVuSans-30" x="95.410156"/>
      </g>
     </g>
    </g>
    <g id="xtick_2">
     <g id="line2d_2">
      <g>
       <use xlink:href="#m3bf24a122d" x="159.910911" y="273.312" style="stroke: #000000; stroke-width: 0.8"/>
      </g>
     </g>
     <g id="text_2">
      <!-- 0.2 -->
      <g transform="translate(145.598099 293.989187) scale(0.18 -0.18)">
       <defs>
        <path id="DejaVuSans-32" d="M 1228 531 
L 3431 531 
L 3431 0 
L 469 0 
L 469 531 
Q 828 903 1448 1529 
Q 2069 2156 2228 2338 
Q 2531 2678 2651 2914 
Q 2772 3150 2772 3378 
Q 2772 3750 2511 3984 
Q 2250 4219 1831 4219 
Q 1534 4219 1204 4116 
Q 875 4013 500 3803 
L 500 4441 
Q 881 4594 1212 4672 
Q 1544 4750 1819 4750 
Q 2544 4750 2975 4387 
Q 3406 4025 3406 3419 
Q 3406 3131 3298 2873 
Q 3191 2616 2906 2266 
Q 2828 2175 2409 1742 
Q 1991 1309 1228 531 
z
" transform="scale(0.015625)"/>
       </defs>
       <use xlink:href="#DejaVuSans-30"/>
       <use xlink:href="#DejaVuSans-2e" x="63.623047"/>
       <use xlink:href="#DejaVuSans-32" x="95.410156"/>
      </g>
     </g>
    </g>
    <g id="xtick_3">
     <g id="line2d_3">
      <g>
       <use xlink:href="#m3bf24a122d" x="220.728814" y="273.312" style="stroke: #000000; stroke-width: 0.8"/>
      </g>
     </g>
     <g id="text_3">
      <!-- 0.4 -->
      <g transform="translate(206.416002 293.989187) scale(0.18 -0.18)">
       <defs>
        <path id="DejaVuSans-34" d="M 2419 4116 
L 825 1625 
L 2419 1625 
L 2419 4116 
z
M 2253 4666 
L 3047 4666 
L 3047 1625 
L 3713 1625 
L 3713 1100 
L 3047 1100 
L 3047 0 
L 2419 0 
L 2419 1100 
L 313 1100 
L 313 1709 
L 2253 4666 
z
" transform="scale(0.015625)"/>
       </defs>
       <use xlink:href="#DejaVuSans-30"/>
       <use xlink:href="#DejaVuSans-2e" x="63.623047"/>
       <use xlink:href="#DejaVuSans-34" x="95.410156"/>
      </g>
     </g>
    </g>
    <g id="xtick_4">
     <g id="line2d_4">
      <g>
       <use xlink:href="#m3bf24a122d" x="281.546717" y="273.312" style="stroke: #000000; stroke-width: 0.8"/>
      </g>
     </g>
     <g id="text_4">
      <!-- 0.6 -->
      <g transform="translate(267.233905 293.989187) scale(0.18 -0.18)">
       <defs>
        <path id="DejaVuSans-36" d="M 2113 2584 
Q 1688 2584 1439 2293 
Q 1191 2003 1191 1497 
Q 1191 994 1439 701 
Q 1688 409 2113 409 
Q 2538 409 2786 701 
Q 3034 994 3034 1497 
Q 3034 2003 2786 2293 
Q 2538 2584 2113 2584 
z
M 3366 4563 
L 3366 3988 
Q 3128 4100 2886 4159 
Q 2644 4219 2406 4219 
Q 1781 4219 1451 3797 
Q 1122 3375 1075 2522 
Q 1259 2794 1537 2939 
Q 1816 3084 2150 3084 
Q 2853 3084 3261 2657 
Q 3669 2231 3669 1497 
Q 3669 778 3244 343 
Q 2819 -91 2113 -91 
Q 1303 -91 875 529 
Q 447 1150 447 2328 
Q 447 3434 972 4092 
Q 1497 4750 2381 4750 
Q 2619 4750 2861 4703 
Q 3103 4656 3366 4563 
z
" transform="scale(0.015625)"/>
       </defs>
       <use xlink:href="#DejaVuSans-30"/>
       <use xlink:href="#DejaVuSans-2e" x="63.623047"/>
       <use xlink:href="#DejaVuSans-36" x="95.410156"/>
      </g>
     </g>
    </g>
    <g id="xtick_5">
     <g id="line2d_5">
      <g>
       <use xlink:href="#m3bf24a122d" x="342.36462" y="273.312" style="stroke: #000000; stroke-width: 0.8"/>
      </g>
     </g>
     <g id="text_5">
      <!-- 0.8 -->
      <g transform="translate(328.051807 293.989187) scale(0.18 -0.18)">
       <defs>
        <path id="DejaVuSans-38" d="M 2034 2216 
Q 1584 2216 1326 1975 
Q 1069 1734 1069 1313 
Q 1069 891 1326 650 
Q 1584 409 2034 409 
Q 2484 409 2743 651 
Q 3003 894 3003 1313 
Q 3003 1734 2745 1975 
Q 2488 2216 2034 2216 
z
M 1403 2484 
Q 997 2584 770 2862 
Q 544 3141 544 3541 
Q 544 4100 942 4425 
Q 1341 4750 2034 4750 
Q 2731 4750 3128 4425 
Q 3525 4100 3525 3541 
Q 3525 3141 3298 2862 
Q 3072 2584 2669 2484 
Q 3125 2378 3379 2068 
Q 3634 1759 3634 1313 
Q 3634 634 3220 271 
Q 2806 -91 2034 -91 
Q 1263 -91 848 271 
Q 434 634 434 1313 
Q 434 1759 690 2068 
Q 947 2378 1403 2484 
z
M 1172 3481 
Q 1172 3119 1398 2916 
Q 1625 2713 2034 2713 
Q 2441 2713 2670 2916 
Q 2900 3119 2900 3481 
Q 2900 3844 2670 4047 
Q 2441 4250 2034 4250 
Q 1625 4250 1398 4047 
Q 1172 3844 1172 3481 
z
" transform="scale(0.015625)"/>
       </defs>
       <use xlink:href="#DejaVuSans-30"/>
       <use xlink:href="#DejaVuSans-2e" x="63.623047"/>
       <use xlink:href="#DejaVuSans-38" x="95.410156"/>
      </g>
     </g>
    </g>
    <g id="xtick_6">
     <g id="line2d_6">
      <g>
       <use xlink:href="#m3bf24a122d" x="403.182523" y="273.312" style="stroke: #000000; stroke-width: 0.8"/>
      </g>
     </g>
     <g id="text_6">
      <!-- 1.0 -->
      <g transform="translate(388.86971 293.989187) scale(0.18 -0.18)">
       <defs>
        <path id="DejaVuSans-31" d="M 794 531 
L 1825 531 
L 1825 4091 
L 703 3866 
L 703 4441 
L 1819 4666 
L 2450 4666 
L 2450 531 
L 3481 531 
L 3481 0 
L 794 0 
L 794 531 
z
" transform="scale(0.015625)"/>
       </defs>
       <use xlink:href="#DejaVuSans-31"/>
       <use xlink:href="#DejaVuSans-2e" x="63.623047"/>
       <use xlink:href="#DejaVuSans-30" x="95.410156"/>
      </g>
     </g>
    </g>
    <g id="text_7">
     <!-- Valor -->
     <g transform="translate(220.124844 315.409812) scale(0.18 -0.18)">
      <defs>
       <path id="DejaVuSans-56" d="M 1831 0 
L 50 4666 
L 709 4666 
L 2188 738 
L 3669 4666 
L 4325 4666 
L 2547 0 
L 1831 0 
z
" transform="scale(0.015625)"/>
       <path id="DejaVuSans-61" d="M 2194 1759 
Q 1497 1759 1228 1600 
Q 959 1441 959 1056 
Q 959 750 1161 570 
Q 1363 391 1709 391 
Q 2188 391 2477 730 
Q 2766 1069 2766 1631 
L 2766 1759 
L 2194 1759 
z
M 3341 1997 
L 3341 0 
L 2766 0 
L 2766 531 
Q 2569 213 2275 61 
Q 1981 -91 1556 -91 
Q 1019 -91 701 211 
Q 384 513 384 1019 
Q 384 1609 779 1909 
Q 1175 2209 1959 2209 
L 2766 2209 
L 2766 2266 
Q 2766 2663 2505 2880 
Q 2244 3097 1772 3097 
Q 1472 3097 1187 3025 
Q 903 2953 641 2809 
L 641 3341 
Q 956 3463 1253 3523 
Q 1550 3584 1831 3584 
Q 2591 3584 2966 3190 
Q 3341 2797 3341 1997 
z
" transform="scale(0.015625)"/>
       <path id="DejaVuSans-6c" d="M 603 4863 
L 1178 4863 
L 1178 0 
L 603 0 
L 603 4863 
z
" transform="scale(0.015625)"/>
       <path id="DejaVuSans-6f" d="M 1959 3097 
Q 1497 3097 1228 2736 
Q 959 2375 959 1747 
Q 959 1119 1226 758 
Q 1494 397 1959 397 
Q 2419 397 2687 759 
Q 2956 1122 2956 1747 
Q 2956 2369 2687 2733 
Q 2419 3097 1959 3097 
z
M 1959 3584 
Q 2709 3584 3137 3096 
Q 3566 2609 3566 1747 
Q 3566 888 3137 398 
Q 2709 -91 1959 -91 
Q 1206 -91 779 398 
Q 353 888 353 1747 
Q 353 2609 779 3096 
Q 1206 3584 1959 3584 
z
" transform="scale(0.015625)"/>
       <path id="DejaVuSans-72" d="M 2631 2963 
Q 2534 3019 2420 3045 
Q 2306 3072 2169 3072 
Q 1681 3072 1420 2755 
Q 1159 2438 1159 1844 
L 1159 0 
L 581 0 
L 581 3500 
L 1159 3500 
L 1159 2956 
Q 1341 3275 1631 3429 
Q 1922 3584 2338 3584 
Q 2397 3584 2469 3576 
Q 2541 3569 2628 3553 
L 2631 2963 
z
" transform="scale(0.015625)"/>
      </defs>
      <use xlink:href="#DejaVuSans-56"/>
      <use xlink:href="#DejaVuSans-61" x="60.658203"/>
      <use xlink:href="#DejaVuSans-6c" x="121.9375"/>
      <use xlink:href="#DejaVuSans-6f" x="149.720703"/>
      <use xlink:href="#DejaVuSans-72" x="210.902344"/>
     </g>
    </g>
   </g>
   <g id="matplotlib.axis_2">
    <g id="ytick_1">
     <g id="line2d_7">
      <defs>
       <path id="meff0e049a5" d="M 0 0 
L -3.5 0 
" style="stroke: #000000; stroke-width: 0.8"/>
      </defs>
      <g>
       <use xlink:href="#meff0e049a5" x="64.24625" y="273.312" style="stroke: #000000; stroke-width: 0.8"/>
      </g>
     </g>
     <g id="text_8">
      <!-- 0.0 -->
      <g transform="translate(28.620625 280.150594) scale(0.18 -0.18)">
       <use xlink:href="#DejaVuSans-30"/>
       <use xlink:href="#DejaVuSans-2e" x="63.623047"/>
       <use xlink:href="#DejaVuSans-30" x="95.410156"/>
      </g>
     </g>
    </g>
    <g id="ytick_2">
     <g id="line2d_8">
      <g>
       <use xlink:href="#meff0e049a5" x="64.24625" y="231.318446" style="stroke: #000000; stroke-width: 0.8"/>
      </g>
     </g>
     <g id="text_9">
      <!-- 0.5 -->
      <g transform="translate(28.620625 238.157039) scale(0.18 -0.18)">
       <defs>
        <path id="DejaVuSans-35" d="M 691 4666 
L 3169 4666 
L 3169 4134 
L 1269 4134 
L 1269 2991 
Q 1406 3038 1543 3061 
Q 1681 3084 1819 3084 
Q 2600 3084 3056 2656 
Q 3513 2228 3513 1497 
Q 3513 744 3044 326 
Q 2575 -91 1722 -91 
Q 1428 -91 1123 -41 
Q 819 9 494 109 
L 494 744 
Q 775 591 1075 516 
Q 1375 441 1709 441 
Q 2250 441 2565 725 
Q 2881 1009 2881 1497 
Q 2881 1984 2565 2268 
Q 2250 2553 1709 2553 
Q 1456 2553 1204 2497 
Q 953 2441 691 2322 
L 691 4666 
z
" transform="scale(0.015625)"/>
       </defs>
       <use xlink:href="#DejaVuSans-30"/>
       <use xlink:href="#DejaVuSans-2e" x="63.623047"/>
       <use xlink:href="#DejaVuSans-35" x="95.410156"/>
      </g>
     </g>
    </g>
    <g id="ytick_3">
     <g id="line2d_9">
      <g>
       <use xlink:href="#meff0e049a5" x="64.24625" y="189.324891" style="stroke: #000000; stroke-width: 0.8"/>
      </g>
     </g>
     <g id="text_10">
      <!-- 1.0 -->
      <g transform="translate(28.620625 196.163485) scale(0.18 -0.18)">
       <use xlink:href="#DejaVuSans-31"/>
       <use xlink:href="#DejaVuSans-2e" x="63.623047"/>
       <use xlink:href="#DejaVuSans-30" x="95.410156"/>
      </g>
     </g>
    </g>
    <g id="ytick_4">
     <g id="line2d_10">
      <g>
       <use xlink:href="#meff0e049a5" x="64.24625" y="147.331337" style="stroke: #000000; stroke-width: 0.8"/>
      </g>
     </g>
     <g id="text_11">
      <!-- 1.5 -->
      <g transform="translate(28.620625 154.169931) scale(0.18 -0.18)">
       <use xlink:href="#DejaVuSans-31"/>
       <use xlink:href="#DejaVuSans-2e" x="63.623047"/>
       <use xlink:href="#DejaVuSans-35" x="95.410156"/>
      </g>
     </g>
    </g>
    <g id="ytick_5">
     <g id="line2d_11">
      <g>
       <use xlink:href="#meff0e049a5" x="64.24625" y="105.337783" style="stroke: #000000; stroke-width: 0.8"/>
      </g>
     </g>
     <g id="text_12">
      <!-- 2.0 -->
      <g transform="translate(28.620625 112.176376) scale(0.18 -0.18)">
       <use xlink:href="#DejaVuSans-32"/>
       <use xlink:href="#DejaVuSans-2e" x="63.623047"/>
       <use xlink:href="#DejaVuSans-30" x="95.410156"/>
      </g>
     </g>
    </g>
    <g id="ytick_6">
     <g id="line2d_12">
      <g>
       <use xlink:href="#meff0e049a5" x="64.24625" y="63.344228" style="stroke: #000000; stroke-width: 0.8"/>
      </g>
     </g>
     <g id="text_13">
      <!-- 2.5 -->
      <g transform="translate(28.620625 70.182822) scale(0.18 -0.18)">
       <use xlink:href="#DejaVuSans-32"/>
       <use xlink:href="#DejaVuSans-2e" x="63.623047"/>
       <use xlink:href="#DejaVuSans-35" x="95.410156"/>
      </g>
     </g>
    </g>
    <g id="ytick_7">
     <g id="line2d_13">
      <g>
       <use xlink:href="#meff0e049a5" x="64.24625" y="21.350674" style="stroke: #000000; stroke-width: 0.8"/>
      </g>
     </g>
     <g id="text_14">
      <!-- 3.0 -->
      <g transform="translate(28.620625 28.189268) scale(0.18 -0.18)">
       <defs>
        <path id="DejaVuSans-33" d="M 2597 2516 
Q 3050 2419 3304 2112 
Q 3559 1806 3559 1356 
Q 3559 666 3084 287 
Q 2609 -91 1734 -91 
Q 1441 -91 1130 -33 
Q 819 25 488 141 
L 488 750 
Q 750 597 1062 519 
Q 1375 441 1716 441 
Q 2309 441 2620 675 
Q 2931 909 2931 1356 
Q 2931 1769 2642 2001 
Q 2353 2234 1838 2234 
L 1294 2234 
L 1294 2753 
L 1863 2753 
Q 2328 2753 2575 2939 
Q 2822 3125 2822 3475 
Q 2822 3834 2567 4026 
Q 2313 4219 1838 4219 
Q 1578 4219 1281 4162 
Q 984 4106 628 3988 
L 628 4550 
Q 988 4650 1302 4700 
Q 1616 4750 1894 4750 
Q 2613 4750 3031 4423 
Q 3450 4097 3450 3541 
Q 3450 3153 3228 2886 
Q 3006 2619 2597 2516 
z
" transform="scale(0.015625)"/>
       </defs>
       <use xlink:href="#DejaVuSans-33"/>
       <use xlink:href="#DejaVuSans-2e" x="63.623047"/>
       <use xlink:href="#DejaVuSans-30" x="95.410156"/>
      </g>
     </g>
    </g>
    <g id="text_15">
     <!-- Density -->
     <g transform="translate(20.877188 174.471469) rotate(-90) scale(0.18 -0.18)">
      <defs>
       <path id="DejaVuSans-44" d="M 1259 4147 
L 1259 519 
L 2022 519 
Q 2988 519 3436 956 
Q 3884 1394 3884 2338 
Q 3884 3275 3436 3711 
Q 2988 4147 2022 4147 
L 1259 4147 
z
M 628 4666 
L 1925 4666 
Q 3281 4666 3915 4102 
Q 4550 3538 4550 2338 
Q 4550 1131 3912 565 
Q 3275 0 1925 0 
L 628 0 
L 628 4666 
z
" transform="scale(0.015625)"/>
       <path id="DejaVuSans-65" d="M 3597 1894 
L 3597 1613 
L 953 1613 
Q 991 1019 1311 708 
Q 1631 397 2203 397 
Q 2534 397 2845 478 
Q 3156 559 3463 722 
L 3463 178 
Q 3153 47 2828 -22 
Q 2503 -91 2169 -91 
Q 1331 -91 842 396 
Q 353 884 353 1716 
Q 353 2575 817 3079 
Q 1281 3584 2069 3584 
Q 2775 3584 3186 3129 
Q 3597 2675 3597 1894 
z
M 3022 2063 
Q 3016 2534 2758 2815 
Q 2500 3097 2075 3097 
Q 1594 3097 1305 2825 
Q 1016 2553 972 2059 
L 3022 2063 
z
" transform="scale(0.015625)"/>
       <path id="DejaVuSans-6e" d="M 3513 2113 
L 3513 0 
L 2938 0 
L 2938 2094 
Q 2938 2591 2744 2837 
Q 2550 3084 2163 3084 
Q 1697 3084 1428 2787 
Q 1159 2491 1159 1978 
L 1159 0 
L 581 0 
L 581 3500 
L 1159 3500 
L 1159 2956 
Q 1366 3272 1645 3428 
Q 1925 3584 2291 3584 
Q 2894 3584 3203 3211 
Q 3513 2838 3513 2113 
z
" transform="scale(0.015625)"/>
       <path id="DejaVuSans-73" d="M 2834 3397 
L 2834 2853 
Q 2591 2978 2328 3040 
Q 2066 3103 1784 3103 
Q 1356 3103 1142 2972 
Q 928 2841 928 2578 
Q 928 2378 1081 2264 
Q 1234 2150 1697 2047 
L 1894 2003 
Q 2506 1872 2764 1633 
Q 3022 1394 3022 966 
Q 3022 478 2636 193 
Q 2250 -91 1575 -91 
Q 1294 -91 989 -36 
Q 684 19 347 128 
L 347 722 
Q 666 556 975 473 
Q 1284 391 1588 391 
Q 1994 391 2212 530 
Q 2431 669 2431 922 
Q 2431 1156 2273 1281 
Q 2116 1406 1581 1522 
L 1381 1569 
Q 847 1681 609 1914 
Q 372 2147 372 2553 
Q 372 3047 722 3315 
Q 1072 3584 1716 3584 
Q 2034 3584 2315 3537 
Q 2597 3491 2834 3397 
z
" transform="scale(0.015625)"/>
       <path id="DejaVuSans-69" d="M 603 3500 
L 1178 3500 
L 1178 0 
L 603 0 
L 603 3500 
z
M 603 4863 
L 1178 4863 
L 1178 4134 
L 603 4134 
L 603 4863 
z
" transform="scale(0.015625)"/>
       <path id="DejaVuSans-74" d="M 1172 4494 
L 1172 3500 
L 2356 3500 
L 2356 3053 
L 1172 3053 
L 1172 1153 
Q 1172 725 1289 603 
Q 1406 481 1766 481 
L 2356 481 
L 2356 0 
L 1766 0 
Q 1100 0 847 248 
Q 594 497 594 1153 
L 594 3053 
L 172 3053 
L 172 3500 
L 594 3500 
L 594 4494 
L 1172 4494 
z
" transform="scale(0.015625)"/>
       <path id="DejaVuSans-79" d="M 2059 -325 
Q 1816 -950 1584 -1140 
Q 1353 -1331 966 -1331 
L 506 -1331 
L 506 -850 
L 844 -850 
Q 1081 -850 1212 -737 
Q 1344 -625 1503 -206 
L 1606 56 
L 191 3500 
L 800 3500 
L 1894 763 
L 2988 3500 
L 3597 3500 
L 2059 -325 
z
" transform="scale(0.015625)"/>
      </defs>
      <use xlink:href="#DejaVuSans-44"/>
      <use xlink:href="#DejaVuSans-65" x="77.001953"/>
      <use xlink:href="#DejaVuSans-6e" x="138.525391"/>
      <use xlink:href="#DejaVuSans-73" x="201.904297"/>
      <use xlink:href="#DejaVuSans-69" x="254.003906"/>
      <use xlink:href="#DejaVuSans-74" x="281.787109"/>
      <use xlink:href="#DejaVuSans-79" x="320.996094"/>
     </g>
    </g>
   </g>
   <g id="patch_3">
    <path d="M 64.24625 273.312 
L 64.24625 7.2 
" style="fill: none; stroke: #000000; stroke-width: 0.8; stroke-linejoin: miter; stroke-linecap: square"/>
   </g>
   <g id="patch_4">
    <path d="M 421.36625 273.312 
L 421.36625 7.2 
" style="fill: none; stroke: #000000; stroke-width: 0.8; stroke-linejoin: miter; stroke-linecap: square"/>
   </g>
   <g id="patch_5">
    <path d="M 64.24625 273.312 
L 421.36625 273.312 
" style="fill: none; stroke: #000000; stroke-width: 0.8; stroke-linejoin: miter; stroke-linecap: square"/>
   </g>
   <g id="patch_6">
    <path d="M 64.24625 7.2 
L 421.36625 7.2 
" style="fill: none; stroke: #000000; stroke-width: 0.8; stroke-linejoin: miter; stroke-linecap: square"/>
   </g>
   <g id="legend_1">
    <g id="patch_7">
     <path d="M 299.939375 127.2825 
L 408.76625 127.2825 
Q 412.36625 127.2825 412.36625 123.6825 
L 412.36625 19.8 
Q 412.36625 16.2 408.76625 16.2 
L 299.939375 16.2 
Q 296.339375 16.2 296.339375 19.8 
L 296.339375 123.6825 
Q 296.339375 127.2825 299.939375 127.2825 
z
" style="fill: #ffffff; opacity: 0.8; stroke: #cccccc; stroke-linejoin: miter"/>
    </g>
    <g id="text_16">
     <!-- Model -->
     <g transform="translate(327.328906 37.077187) scale(0.18 -0.18)">
      <defs>
       <path id="DejaVuSans-4d" d="M 628 4666 
L 1569 4666 
L 2759 1491 
L 3956 4666 
L 4897 4666 
L 4897 0 
L 4281 0 
L 4281 4097 
L 3078 897 
L 2444 897 
L 1241 4097 
L 1241 0 
L 628 0 
L 628 4666 
z
" transform="scale(0.015625)"/>
       <path id="DejaVuSans-64" d="M 2906 2969 
L 2906 4863 
L 3481 4863 
L 3481 0 
L 2906 0 
L 2906 525 
Q 2725 213 2448 61 
Q 2172 -91 1784 -91 
Q 1150 -91 751 415 
Q 353 922 353 1747 
Q 353 2572 751 3078 
Q 1150 3584 1784 3584 
Q 2172 3584 2448 3432 
Q 2725 3281 2906 2969 
z
M 947 1747 
Q 947 1113 1208 752 
Q 1469 391 1925 391 
Q 2381 391 2643 752 
Q 2906 1113 2906 1747 
Q 2906 2381 2643 2742 
Q 2381 3103 1925 3103 
Q 1469 3103 1208 2742 
Q 947 2381 947 1747 
z
" transform="scale(0.015625)"/>
      </defs>
      <use xlink:href="#DejaVuSans-4d"/>
      <use xlink:href="#DejaVuSans-6f" x="86.279297"/>
      <use xlink:href="#DejaVuSans-64" x="147.460938"/>
      <use xlink:href="#DejaVuSans-65" x="210.9375"/>
      <use xlink:href="#DejaVuSans-6c" x="272.460938"/>
     </g>
    </g>
    <g id="patch_8">
     <path d="M 303.539375 63.497812 
L 339.539375 63.497812 
L 339.539375 50.897812 
L 303.539375 50.897812 
z
" style="fill: #1f77b4; fill-opacity: 0.25; stroke: #1f77b4; stroke-linejoin: miter"/>
    </g>
    <g id="text_17">
     <!-- Naive -->
     <g transform="translate(353.939375 63.497812) scale(0.18 -0.18)">
      <defs>
       <path id="DejaVuSans-4e" d="M 628 4666 
L 1478 4666 
L 3547 763 
L 3547 4666 
L 4159 4666 
L 4159 0 
L 3309 0 
L 1241 3903 
L 1241 0 
L 628 0 
L 628 4666 
z
" transform="scale(0.015625)"/>
       <path id="DejaVuSans-76" d="M 191 3500 
L 800 3500 
L 1894 563 
L 2988 3500 
L 3597 3500 
L 2284 0 
L 1503 0 
L 191 3500 
z
" transform="scale(0.015625)"/>
      </defs>
      <use xlink:href="#DejaVuSans-4e"/>
      <use xlink:href="#DejaVuSans-61" x="74.804688"/>
      <use xlink:href="#DejaVuSans-69" x="136.083984"/>
      <use xlink:href="#DejaVuSans-76" x="163.867188"/>
      <use xlink:href="#DejaVuSans-65" x="223.046875"/>
     </g>
    </g>
    <g id="patch_9">
     <path d="M 303.539375 89.918437 
L 339.539375 89.918437 
L 339.539375 77.318437 
L 303.539375 77.318437 
z
" style="fill: #ff7f0e; fill-opacity: 0.25; stroke: #ff7f0e; stroke-linejoin: miter"/>
    </g>
    <g id="text_18">
     <!-- KDE -->
     <g transform="translate(353.939375 89.918437) scale(0.18 -0.18)">
      <defs>
       <path id="DejaVuSans-4b" d="M 628 4666 
L 1259 4666 
L 1259 2694 
L 3353 4666 
L 4166 4666 
L 1850 2491 
L 4331 0 
L 3500 0 
L 1259 2247 
L 1259 0 
L 628 0 
L 628 4666 
z
" transform="scale(0.015625)"/>
       <path id="DejaVuSans-45" d="M 628 4666 
L 3578 4666 
L 3578 4134 
L 1259 4134 
L 1259 2753 
L 3481 2753 
L 3481 2222 
L 1259 2222 
L 1259 531 
L 3634 531 
L 3634 0 
L 628 0 
L 628 4666 
z
" transform="scale(0.015625)"/>
      </defs>
      <use xlink:href="#DejaVuSans-4b"/>
      <use xlink:href="#DejaVuSans-44" x="65.576172"/>
      <use xlink:href="#DejaVuSans-45" x="142.578125"/>
     </g>
    </g>
    <g id="patch_10">
     <path d="M 303.539375 116.339062 
L 339.539375 116.339062 
L 339.539375 103.739062 
L 303.539375 103.739062 
z
" style="fill: #2ca02c; fill-opacity: 0.25; stroke: #2ca02c; stroke-linejoin: miter"/>
    </g>
    <g id="text_19">
     <!-- SEPP -->
     <g transform="translate(353.939375 116.339062) scale(0.18 -0.18)">
      <defs>
       <path id="DejaVuSans-53" d="M 3425 4513 
L 3425 3897 
Q 3066 4069 2747 4153 
Q 2428 4238 2131 4238 
Q 1616 4238 1336 4038 
Q 1056 3838 1056 3469 
Q 1056 3159 1242 3001 
Q 1428 2844 1947 2747 
L 2328 2669 
Q 3034 2534 3370 2195 
Q 3706 1856 3706 1288 
Q 3706 609 3251 259 
Q 2797 -91 1919 -91 
Q 1588 -91 1214 -16 
Q 841 59 441 206 
L 441 856 
Q 825 641 1194 531 
Q 1563 422 1919 422 
Q 2459 422 2753 634 
Q 3047 847 3047 1241 
Q 3047 1584 2836 1778 
Q 2625 1972 2144 2069 
L 1759 2144 
Q 1053 2284 737 2584 
Q 422 2884 422 3419 
Q 422 4038 858 4394 
Q 1294 4750 2059 4750 
Q 2388 4750 2728 4690 
Q 3069 4631 3425 4513 
z
" transform="scale(0.015625)"/>
       <path id="DejaVuSans-50" d="M 1259 4147 
L 1259 2394 
L 2053 2394 
Q 2494 2394 2734 2622 
Q 2975 2850 2975 3272 
Q 2975 3691 2734 3919 
Q 2494 4147 2053 4147 
L 1259 4147 
z
M 628 4666 
L 2053 4666 
Q 2838 4666 3239 4311 
Q 3641 3956 3641 3272 
Q 3641 2581 3239 2228 
Q 2838 1875 2053 1875 
L 1259 1875 
L 1259 0 
L 628 0 
L 628 4666 
z
" transform="scale(0.015625)"/>
      </defs>
      <use xlink:href="#DejaVuSans-53"/>
      <use xlink:href="#DejaVuSans-45" x="63.476562"/>
      <use xlink:href="#DejaVuSans-50" x="126.660156"/>
      <use xlink:href="#DejaVuSans-50" x="186.962891"/>
     </g>
    </g>
   </g>
  </g>
 </g>
 <defs>
  <clipPath id="p65ca04b65f">
   <rect x="64.24625" y="7.2" width="357.12" height="266.112"/>
  </clipPath>
 </defs>
</svg>
