<?xml version="1.0" encoding="utf-8" standalone="no"?>
<!DOCTYPE svg PUBLIC "-//W3C//DTD SVG 1.1//EN"
  "http://www.w3.org/Graphics/SVG/1.1/DTD/svg11.dtd">
<svg xmlns:xlink="http://www.w3.org/1999/xlink" width="428.56625pt" height="326.35325pt" viewBox="0 0 428.56625 326.35325" xmlns="http://www.w3.org/2000/svg" version="1.1">
 <metadata>
  <rdf:RDF xmlns:dc="http://purl.org/dc/elements/1.1/" xmlns:cc="http://creativecommons.org/ns#" xmlns:rdf="http://www.w3.org/1999/02/22-rdf-syntax-ns#">
   <cc:Work>
    <dc:type rdf:resource="http://purl.org/dc/dcmitype/StillImage"/>
    <dc:date>2024-02-06T10:49:55.974407</dc:date>
    <dc:format>image/svg+xml</dc:format>
    <dc:creator>
     <cc:Agent>
      <dc:title>Matplotlib v3.8.2, https://matplotlib.org/</dc:title>
     </cc:Agent>
    </dc:creator>
   </cc:Work>
  </rdf:RDF>
 </metadata>
 <defs>
  <style type="text/css">*{stroke-linejoin: round; stroke-linecap: butt}</style>
 </defs>
 <g id="figure_1">
  <g id="patch_1">
   <path d="M 0 326.35325 
L 428.56625 326.35325 
L 428.56625 0 
L 0 0 
z
" style="fill: #ffffff"/>
  </g>
  <g id="axes_1">
   <g id="patch_2">
    <path d="M 64.24625 273.312 
L 421.36625 273.312 
L 421.36625 7.2 
L 64.24625 7.2 
z
" style="fill: #ffffff"/>
   </g>
   <g id="PolyCollection_1">
    <defs>
     <path id="mf14cd2a765" d="M 80.478977 -53.383183 
L 80.478977 -53.04125 
L 81.505828 -53.04125 
L 82.532678 -53.04125 
L 83.559528 -53.04125 
L 84.586378 -53.04125 
L 85.613229 -53.04125 
L 86.640079 -53.04125 
L 87.666929 -53.04125 
L 88.69378 -53.04125 
L 89.72063 -53.04125 
L 90.74748 -53.04125 
L 91.774331 -53.04125 
L 92.801181 -53.04125 
L 93.828031 -53.04125 
L 94.854881 -53.04125 
L 95.881732 -53.04125 
L 96.908582 -53.04125 
L 97.935432 -53.04125 
L 98.962283 -53.04125 
L 99.989133 -53.04125 
L 101.015983 -53.04125 
L 102.042833 -53.04125 
L 103.069684 -53.04125 
L 104.096534 -53.04125 
L 105.123384 -53.04125 
L 106.150235 -53.04125 
L 107.177085 -53.04125 
L 108.203935 -53.04125 
L 109.230786 -53.04125 
L 110.257636 -53.04125 
L 111.284486 -53.04125 
L 112.311336 -53.04125 
L 113.338187 -53.04125 
L 114.365037 -53.04125 
L 115.391887 -53.04125 
L 116.418738 -53.04125 
L 117.445588 -53.04125 
L 118.472438 -53.04125 
L 119.499289 -53.04125 
L 120.526139 -53.04125 
L 121.552989 -53.04125 
L 122.579839 -53.04125 
L 123.60669 -53.04125 
L 124.63354 -53.04125 
L 125.66039 -53.04125 
L 126.687241 -53.04125 
L 127.714091 -53.04125 
L 128.740941 -53.04125 
L 129.767791 -53.04125 
L 130.794642 -53.04125 
L 131.821492 -53.04125 
L 132.848342 -53.04125 
L 133.875193 -53.04125 
L 134.902043 -53.04125 
L 135.928893 -53.04125 
L 136.955744 -53.04125 
L 137.982594 -53.04125 
L 139.009444 -53.04125 
L 140.036294 -53.04125 
L 141.063145 -53.04125 
L 142.089995 -53.04125 
L 143.116845 -53.04125 
L 144.143696 -53.04125 
L 145.170546 -53.04125 
L 146.197396 -53.04125 
L 147.224247 -53.04125 
L 148.251097 -53.04125 
L 149.277947 -53.04125 
L 150.304797 -53.04125 
L 151.331648 -53.04125 
L 152.358498 -53.04125 
L 153.385348 -53.04125 
L 154.412199 -53.04125 
L 155.439049 -53.04125 
L 156.465899 -53.04125 
L 157.492749 -53.04125 
L 158.5196 -53.04125 
L 159.54645 -53.04125 
L 160.5733 -53.04125 
L 161.600151 -53.04125 
L 162.627001 -53.04125 
L 163.653851 -53.04125 
L 164.680702 -53.04125 
L 165.707552 -53.04125 
L 166.734402 -53.04125 
L 167.761252 -53.04125 
L 168.788103 -53.04125 
L 169.814953 -53.04125 
L 170.841803 -53.04125 
L 171.868654 -53.04125 
L 172.895504 -53.04125 
L 173.922354 -53.04125 
L 174.949204 -53.04125 
L 175.976055 -53.04125 
L 177.002905 -53.04125 
L 178.029755 -53.04125 
L 179.056606 -53.04125 
L 180.083456 -53.04125 
L 181.110306 -53.04125 
L 182.137157 -53.04125 
L 183.164007 -53.04125 
L 184.190857 -53.04125 
L 185.217707 -53.04125 
L 186.244558 -53.04125 
L 187.271408 -53.04125 
L 188.298258 -53.04125 
L 189.325109 -53.04125 
L 190.351959 -53.04125 
L 191.378809 -53.04125 
L 192.40566 -53.04125 
L 193.43251 -53.04125 
L 194.45936 -53.04125 
L 195.48621 -53.04125 
L 196.513061 -53.04125 
L 197.539911 -53.04125 
L 198.566761 -53.04125 
L 199.593612 -53.04125 
L 200.620462 -53.04125 
L 201.647312 -53.04125 
L 202.674162 -53.04125 
L 203.701013 -53.04125 
L 204.727863 -53.04125 
L 205.754713 -53.04125 
L 206.781564 -53.04125 
L 207.808414 -53.04125 
L 208.835264 -53.04125 
L 209.862115 -53.04125 
L 210.888965 -53.04125 
L 211.915815 -53.04125 
L 212.942665 -53.04125 
L 213.969516 -53.04125 
L 214.996366 -53.04125 
L 216.023216 -53.04125 
L 217.050067 -53.04125 
L 218.076917 -53.04125 
L 219.103767 -53.04125 
L 220.130618 -53.04125 
L 221.157468 -53.04125 
L 222.184318 -53.04125 
L 223.211168 -53.04125 
L 224.238019 -53.04125 
L 225.264869 -53.04125 
L 226.291719 -53.04125 
L 227.31857 -53.04125 
L 228.34542 -53.04125 
L 229.37227 -53.04125 
L 230.39912 -53.04125 
L 231.425971 -53.04125 
L 232.452821 -53.04125 
L 233.479671 -53.04125 
L 234.506522 -53.04125 
L 235.533372 -53.04125 
L 236.560222 -53.04125 
L 237.587073 -53.04125 
L 238.613923 -53.04125 
L 239.640773 -53.04125 
L 240.667623 -53.04125 
L 241.694474 -53.04125 
L 242.721324 -53.04125 
L 243.748174 -53.04125 
L 244.775025 -53.04125 
L 245.801875 -53.04125 
L 246.828725 -53.04125 
L 247.855575 -53.04125 
L 248.882426 -53.04125 
L 249.909276 -53.04125 
L 250.936126 -53.04125 
L 251.962977 -53.04125 
L 252.989827 -53.04125 
L 254.016677 -53.04125 
L 255.043528 -53.04125 
L 256.070378 -53.04125 
L 257.097228 -53.04125 
L 258.124078 -53.04125 
L 259.150929 -53.04125 
L 260.177779 -53.04125 
L 261.204629 -53.04125 
L 262.23148 -53.04125 
L 263.25833 -53.04125 
L 264.28518 -53.04125 
L 265.312031 -53.04125 
L 266.338881 -53.04125 
L 267.365731 -53.04125 
L 268.392581 -53.04125 
L 269.419432 -53.04125 
L 270.446282 -53.04125 
L 271.473132 -53.04125 
L 272.499983 -53.04125 
L 273.526833 -53.04125 
L 274.553683 -53.04125 
L 275.580533 -53.04125 
L 276.607384 -53.04125 
L 277.634234 -53.04125 
L 278.661084 -53.04125 
L 279.687935 -53.04125 
L 280.714785 -53.04125 
L 281.741635 -53.04125 
L 282.768486 -53.04125 
L 283.795336 -53.04125 
L 284.822186 -53.04125 
L 284.822186 -53.067277 
L 284.822186 -53.067277 
L 283.795336 -53.083547 
L 282.768486 -53.108412 
L 281.741635 -53.145456 
L 280.714785 -53.199235 
L 279.687935 -53.2753 
L 278.661084 -53.380081 
L 277.634234 -53.520604 
L 276.607384 -53.703992 
L 275.580533 -53.936751 
L 274.553683 -54.223868 
L 273.526833 -54.567778 
L 272.499983 -54.967339 
L 271.473132 -55.416961 
L 270.446282 -55.906068 
L 269.419432 -56.41906 
L 268.392581 -56.93589 
L 267.365731 -57.433304 
L 266.338881 -57.886674 
L 265.312031 -58.272276 
L 264.28518 -58.569745 
L 263.25833 -58.764417 
L 262.23148 -58.849266 
L 261.204629 -58.826153 
L 260.177779 -58.706263 
L 259.150929 -58.509639 
L 258.124078 -58.263896 
L 257.097228 -58.002252 
L 256.070378 -57.761066 
L 255.043528 -57.577104 
L 254.016677 -57.484723 
L 252.989827 -57.513152 
L 251.962977 -57.684013 
L 250.936126 -58.009217 
L 249.909276 -58.489385 
L 248.882426 -59.112951 
L 247.855575 -59.856106 
L 246.828725 -60.683728 
L 245.801875 -61.551387 
L 244.775025 -62.408391 
L 243.748174 -63.201718 
L 242.721324 -63.880515 
L 241.694474 -64.400741 
L 240.667623 -64.729419 
L 239.640773 -64.847994 
L 238.613923 -64.754358 
L 237.587073 -64.463253 
L 236.560222 -64.004988 
L 235.533372 -63.422596 
L 234.506522 -62.767762 
L 233.479671 -62.095988 
L 232.452821 -61.461526 
L 231.425971 -60.912607 
L 230.39912 -60.487417 
L 229.37227 -60.211164 
L 228.34542 -60.094447 
L 227.31857 -60.132997 
L 226.291719 -60.308731 
L 225.264869 -60.591963 
L 224.238019 -60.944512 
L 223.211168 -61.323389 
L 222.184318 -61.684715 
L 221.157468 -61.987503 
L 220.130618 -62.196955 
L 219.103767 -62.286995 
L 218.076917 -62.241845 
L 217.050067 -62.056537 
L 216.023216 -61.736418 
L 214.996366 -61.29576 
L 213.969516 -60.755724 
L 212.942665 -60.141946 
L 211.915815 -59.482047 
L 210.888965 -58.803328 
L 209.862115 -58.13086 
L 208.835264 -57.486112 
L 207.808414 -56.886147 
L 206.781564 -56.343383 
L 205.754713 -55.865836 
L 204.727863 -55.457731 
L 203.701013 -55.120343 
L 202.674162 -54.852971 
L 201.647312 -54.65392 
L 200.620462 -54.521412 
L 199.593612 -54.454379 
L 198.566761 -54.453087 
L 197.539911 -54.519565 
L 196.513061 -54.657812 
L 195.48621 -54.873753 
L 194.45936 -55.174913 
L 193.43251 -55.569769 
L 192.40566 -56.066757 
L 191.378809 -56.672948 
L 190.351959 -57.392426 
L 189.325109 -58.224504 
L 188.298258 -59.16194 
L 187.271408 -60.189432 
L 186.244558 -61.282666 
L 185.217707 -62.408224 
L 184.190857 -63.524574 
L 183.164007 -64.584264 
L 182.137157 -65.537251 
L 181.110306 -66.335102 
L 180.083456 -66.935629 
L 179.056606 -67.30737 
L 178.029755 -67.433289 
L 177.002905 -67.313164 
L 175.976055 -66.964245 
L 174.949204 -66.420079 
L 173.922354 -65.727638 
L 172.895504 -64.943164 
L 171.868654 -64.127316 
L 170.841803 -63.3403 
L 169.814953 -62.637576 
L 168.788103 -62.066651 
L 167.761252 -61.665192 
L 166.734402 -61.460493 
L 165.707552 -61.470127 
L 164.680702 -61.703431 
L 163.653851 -62.16345 
L 162.627001 -62.848924 
L 161.600151 -63.756021 
L 160.5733 -64.879605 
L 159.54645 -66.213983 
L 158.5196 -67.753178 
L 157.492749 -69.490882 
L 156.465899 -71.420314 
L 155.439049 -73.534166 
L 154.412199 -75.824857 
L 153.385348 -78.285163 
L 152.358498 -80.909252 
L 151.331648 -83.69401 
L 150.304797 -86.640459 
L 149.277947 -89.754978 
L 148.251097 -93.050027 
L 147.224247 -96.544083 
L 146.197396 -100.260561 
L 145.170546 -104.225654 
L 144.143696 -108.465154 
L 143.116845 -113.000493 
L 142.089995 -117.844416 
L 141.063145 -122.996778 
L 140.036294 -128.44102 
L 139.009444 -134.141817 
L 137.982594 -140.044306 
L 136.955744 -146.075119 
L 135.928893 -152.145238 
L 134.902043 -158.154505 
L 133.875193 -163.997445 
L 132.848342 -169.569891 
L 131.821492 -174.775877 
L 130.794642 -179.534196 
L 129.767791 -183.78405 
L 128.740941 -187.489327 
L 127.714091 -190.641114 
L 126.687241 -193.258221 
L 125.66039 -195.385672 
L 124.63354 -197.091252 
L 123.60669 -198.460393 
L 122.579839 -199.589766 
L 121.552989 -200.579997 
L 120.526139 -201.52794 
L 119.499289 -202.518869 
L 118.472438 -203.618909 
L 117.445588 -204.867973 
L 116.418738 -206.273493 
L 115.391887 -207.805335 
L 114.365037 -209.392401 
L 113.338187 -210.921576 
L 112.311336 -212.239752 
L 111.284486 -213.1596 
L 110.257636 -213.469521 
L 109.230786 -212.947738 
L 108.203935 -211.379877 
L 107.177085 -208.578714 
L 106.150235 -204.404124 
L 105.123384 -198.780864 
L 104.096534 -191.711776 
L 103.069684 -183.284318 
L 102.042833 -173.669083 
L 101.015983 -163.109994 
L 99.989133 -151.907019 
L 98.962283 -140.393332 
L 97.935432 -128.909606 
L 96.908582 -117.77851 
L 95.881732 -107.282337 
L 94.854881 -97.646083 
L 93.828031 -89.027441 
L 92.801181 -81.514071 
L 91.774331 -75.127545 
L 90.74748 -69.832574 
L 89.72063 -65.549646 
L 88.69378 -62.169116 
L 87.666929 -59.564954 
L 86.640079 -57.606787 
L 85.613229 -56.169382 
L 84.586378 -55.139243 
L 83.559528 -54.418412 
L 82.532678 -53.925896 
L 81.505828 -53.597288 
L 80.478977 -53.383183 
z
" style="stroke: #2ca02c"/>
    </defs>
    <g clip-path="url(#p2a2e610591)">
     <use xlink:href="#mf14cd2a765" x="0" y="326.35325" style="fill: #2ca02c; fill-opacity: 0.25; stroke: #2ca02c"/>
    </g>
   </g>
   <g id="PolyCollection_2">
    <defs>
     <path id="mfcee3d879f" d="M 83.603181 -53.242893 
L 83.603181 -53.04125 
L 85.218912 -53.04125 
L 86.834642 -53.04125 
L 88.450372 -53.04125 
L 90.066103 -53.04125 
L 91.681833 -53.04125 
L 93.297563 -53.04125 
L 94.913294 -53.04125 
L 96.529024 -53.04125 
L 98.144754 -53.04125 
L 99.760485 -53.04125 
L 101.376215 -53.04125 
L 102.991946 -53.04125 
L 104.607676 -53.04125 
L 106.223406 -53.04125 
L 107.839137 -53.04125 
L 109.454867 -53.04125 
L 111.070597 -53.04125 
L 112.686328 -53.04125 
L 114.302058 -53.04125 
L 115.917788 -53.04125 
L 117.533519 -53.04125 
L 119.149249 -53.04125 
L 120.764979 -53.04125 
L 122.38071 -53.04125 
L 123.99644 -53.04125 
L 125.612171 -53.04125 
L 127.227901 -53.04125 
L 128.843631 -53.04125 
L 130.459362 -53.04125 
L 132.075092 -53.04125 
L 133.690822 -53.04125 
L 135.306553 -53.04125 
L 136.922283 -53.04125 
L 138.538013 -53.04125 
L 140.153744 -53.04125 
L 141.769474 -53.04125 
L 143.385204 -53.04125 
L 145.000935 -53.04125 
L 146.616665 -53.04125 
L 148.232396 -53.04125 
L 149.848126 -53.04125 
L 151.463856 -53.04125 
L 153.079587 -53.04125 
L 154.695317 -53.04125 
L 156.311047 -53.04125 
L 157.926778 -53.04125 
L 159.542508 -53.04125 
L 161.158238 -53.04125 
L 162.773969 -53.04125 
L 164.389699 -53.04125 
L 166.00543 -53.04125 
L 167.62116 -53.04125 
L 169.23689 -53.04125 
L 170.852621 -53.04125 
L 172.468351 -53.04125 
L 174.084081 -53.04125 
L 175.699812 -53.04125 
L 177.315542 -53.04125 
L 178.931272 -53.04125 
L 180.547003 -53.04125 
L 182.162733 -53.04125 
L 183.778463 -53.04125 
L 185.394194 -53.04125 
L 187.009924 -53.04125 
L 188.625655 -53.04125 
L 190.241385 -53.04125 
L 191.857115 -53.04125 
L 193.472846 -53.04125 
L 195.088576 -53.04125 
L 196.704306 -53.04125 
L 198.320037 -53.04125 
L 199.935767 -53.04125 
L 201.551497 -53.04125 
L 203.167228 -53.04125 
L 204.782958 -53.04125 
L 206.398689 -53.04125 
L 208.014419 -53.04125 
L 209.630149 -53.04125 
L 211.24588 -53.04125 
L 212.86161 -53.04125 
L 214.47734 -53.04125 
L 216.093071 -53.04125 
L 217.708801 -53.04125 
L 219.324531 -53.04125 
L 220.940262 -53.04125 
L 222.555992 -53.04125 
L 224.171722 -53.04125 
L 225.787453 -53.04125 
L 227.403183 -53.04125 
L 229.018914 -53.04125 
L 230.634644 -53.04125 
L 232.250374 -53.04125 
L 233.866105 -53.04125 
L 235.481835 -53.04125 
L 237.097565 -53.04125 
L 238.713296 -53.04125 
L 240.329026 -53.04125 
L 241.944756 -53.04125 
L 243.560487 -53.04125 
L 245.176217 -53.04125 
L 246.791947 -53.04125 
L 248.407678 -53.04125 
L 250.023408 -53.04125 
L 251.639139 -53.04125 
L 253.254869 -53.04125 
L 254.870599 -53.04125 
L 256.48633 -53.04125 
L 258.10206 -53.04125 
L 259.71779 -53.04125 
L 261.333521 -53.04125 
L 262.949251 -53.04125 
L 264.564981 -53.04125 
L 266.180712 -53.04125 
L 267.796442 -53.04125 
L 269.412173 -53.04125 
L 271.027903 -53.04125 
L 272.643633 -53.04125 
L 274.259364 -53.04125 
L 275.875094 -53.04125 
L 277.490824 -53.04125 
L 279.106555 -53.04125 
L 280.722285 -53.04125 
L 282.338015 -53.04125 
L 283.953746 -53.04125 
L 285.569476 -53.04125 
L 287.185206 -53.04125 
L 288.800937 -53.04125 
L 290.416667 -53.04125 
L 292.032398 -53.04125 
L 293.648128 -53.04125 
L 295.263858 -53.04125 
L 296.879589 -53.04125 
L 298.495319 -53.04125 
L 300.111049 -53.04125 
L 301.72678 -53.04125 
L 303.34251 -53.04125 
L 304.95824 -53.04125 
L 306.573971 -53.04125 
L 308.189701 -53.04125 
L 309.805432 -53.04125 
L 311.421162 -53.04125 
L 313.036892 -53.04125 
L 314.652623 -53.04125 
L 316.268353 -53.04125 
L 317.884083 -53.04125 
L 319.499814 -53.04125 
L 321.115544 -53.04125 
L 322.731274 -53.04125 
L 324.347005 -53.04125 
L 325.962735 -53.04125 
L 327.578465 -53.04125 
L 329.194196 -53.04125 
L 330.809926 -53.04125 
L 332.425657 -53.04125 
L 334.041387 -53.04125 
L 335.657117 -53.04125 
L 337.272848 -53.04125 
L 338.888578 -53.04125 
L 340.504308 -53.04125 
L 342.120039 -53.04125 
L 343.735769 -53.04125 
L 345.351499 -53.04125 
L 346.96723 -53.04125 
L 348.58296 -53.04125 
L 350.198691 -53.04125 
L 351.814421 -53.04125 
L 353.430151 -53.04125 
L 355.045882 -53.04125 
L 356.661612 -53.04125 
L 358.277342 -53.04125 
L 359.893073 -53.04125 
L 361.508803 -53.04125 
L 363.124533 -53.04125 
L 364.740264 -53.04125 
L 366.355994 -53.04125 
L 367.971724 -53.04125 
L 369.587455 -53.04125 
L 371.203185 -53.04125 
L 372.818916 -53.04125 
L 374.434646 -53.04125 
L 376.050376 -53.04125 
L 377.666107 -53.04125 
L 379.281837 -53.04125 
L 380.897567 -53.04125 
L 382.513298 -53.04125 
L 384.129028 -53.04125 
L 385.744758 -53.04125 
L 387.360489 -53.04125 
L 388.976219 -53.04125 
L 390.591949 -53.04125 
L 392.20768 -53.04125 
L 393.82341 -53.04125 
L 395.439141 -53.04125 
L 397.054871 -53.04125 
L 398.670601 -53.04125 
L 400.286332 -53.04125 
L 401.902062 -53.04125 
L 403.517792 -53.04125 
L 405.133523 -53.04125 
L 405.133523 -53.04344 
L 405.133523 -53.04344 
L 403.517792 -53.046321 
L 401.902062 -53.052132 
L 400.286332 -53.062912 
L 398.670601 -53.081322 
L 397.054871 -53.110279 
L 395.439141 -53.15225 
L 393.82341 -53.208365 
L 392.20768 -53.277647 
L 390.591949 -53.356738 
L 388.976219 -53.440308 
L 387.360489 -53.522054 
L 385.744758 -53.595916 
L 384.129028 -53.657103 
L 382.513298 -53.702708 
L 380.897567 -53.731941 
L 379.281837 -53.746114 
L 377.666107 -53.74844 
L 376.050376 -53.743524 
L 374.434646 -53.736408 
L 372.818916 -53.731214 
L 371.203185 -53.729745 
L 369.587455 -53.730611 
L 367.971724 -53.729335 
L 366.355994 -53.719534 
L 364.740264 -53.694853 
L 363.124533 -53.651039 
L 361.508803 -53.587505 
L 359.893073 -53.507838 
L 358.277342 -53.419067 
L 356.661612 -53.329886 
L 355.045882 -53.248461 
L 353.430151 -53.180594 
L 351.814421 -53.128858 
L 350.198691 -53.092842 
L 348.58296 -53.070234 
L 346.96723 -53.05819 
L 345.351499 -53.054543 
L 343.735769 -53.058606 
L 342.120039 -53.07148 
L 340.504308 -53.095837 
L 338.888578 -53.135149 
L 337.272848 -53.192384 
L 335.657117 -53.268439 
L 334.041387 -53.360871 
L 332.425657 -53.463637 
L 330.809926 -53.568277 
L 329.194196 -53.666302 
L 327.578465 -53.751843 
L 325.962735 -53.823281 
L 324.347005 -53.883028 
L 322.731274 -53.93557 
L 321.115544 -53.984799 
L 319.499814 -54.031983 
L 317.884083 -54.075313 
L 316.268353 -54.11112 
L 314.652623 -54.136065 
L 313.036892 -54.149233 
L 311.421162 -54.153167 
L 309.805432 -54.153305 
L 308.189701 -54.155958 
L 306.573971 -54.165623 
L 304.95824 -54.182757 
L 303.34251 -54.203021 
L 301.72678 -54.21831 
L 300.111049 -54.219038 
L 298.495319 -54.196704 
L 296.879589 -54.145823 
L 295.263858 -54.064885 
L 293.648128 -53.95651 
L 292.032398 -53.827091 
L 290.416667 -53.685991 
L 288.800937 -53.54421 
L 287.185206 -53.412505 
L 285.569476 -53.299398 
L 283.953746 -53.209713 
L 282.338015 -53.14422 
L 280.722285 -53.100443 
L 279.106555 -53.074237 
L 277.490824 -53.061496 
L 275.875094 -53.059474 
L 274.259364 -53.067461 
L 272.643633 -53.086731 
L 271.027903 -53.119796 
L 269.412173 -53.169031 
L 267.796442 -53.234989 
L 266.180712 -53.314949 
L 264.564981 -53.402395 
L 262.949251 -53.487852 
L 261.333521 -53.560905 
L 259.71779 -53.612669 
L 258.10206 -53.637802 
L 256.48633 -53.635533 
L 254.870599 -53.609711 
L 253.254869 -53.568154 
L 251.639139 -53.521403 
L 250.023408 -53.480888 
L 248.407678 -53.456567 
L 246.791947 -53.454602 
L 245.176217 -53.475863 
L 243.560487 -53.515874 
L 241.944756 -53.566194 
L 240.329026 -53.616683 
L 238.713296 -53.657931 
L 237.097565 -53.68334 
L 235.481835 -53.690547 
L 233.866105 -53.681869 
L 232.250374 -53.663507 
L 230.634644 -53.643483 
L 229.018914 -53.628919 
L 227.403183 -53.623772 
L 225.787453 -53.628041 
L 224.171722 -53.638765 
L 222.555992 -53.652126 
L 220.940262 -53.665439 
L 219.324531 -53.678017 
L 217.708801 -53.690689 
L 216.093071 -53.704623 
L 214.47734 -53.720401 
L 212.86161 -53.737965 
L 211.24588 -53.75739 
L 209.630149 -53.780069 
L 208.014419 -53.809891 
L 206.398689 -53.854185 
L 204.782958 -53.924141 
L 203.167228 -54.034188 
L 201.551497 -54.199849 
L 199.935767 -54.434253 
L 198.320037 -54.74447 
L 196.704306 -55.129313 
L 195.088576 -55.579616 
L 193.472846 -56.080711 
L 191.857115 -56.615869 
L 190.241385 -57.16964 
L 188.625655 -57.731095 
L 187.009924 -58.297549 
L 185.394194 -58.878752 
L 183.778463 -59.499971 
L 182.162733 -60.201469 
L 180.547003 -61.032849 
L 178.931272 -62.043369 
L 177.315542 -63.272078 
L 175.699812 -64.742351 
L 174.084081 -66.46337 
L 172.468351 -68.437111 
L 170.852621 -70.665882 
L 169.23689 -73.154731 
L 167.62116 -75.905945 
L 166.00543 -78.90786 
L 164.389699 -82.124212 
L 162.773969 -85.490686 
L 161.158238 -88.922097 
L 159.542508 -92.329063 
L 157.926778 -95.639833 
L 156.311047 -98.821666 
L 154.695317 -101.896183 
L 153.079587 -104.943467 
L 151.463856 -108.091345 
L 149.848126 -111.490296 
L 148.232396 -115.280125 
L 146.616665 -119.559045 
L 145.000935 -124.366119 
L 143.385204 -129.683144 
L 141.769474 -135.453703 
L 140.153744 -141.608334 
L 138.538013 -148.079883 
L 136.922283 -154.796276 
L 135.306553 -161.650889 
L 133.690822 -168.469114 
L 132.075092 -175.002568 
L 130.459362 -180.977766 
L 128.843631 -186.199425 
L 127.227901 -190.66984 
L 125.612171 -194.656707 
L 123.99644 -198.645472 
L 122.38071 -203.158053 
L 120.764979 -208.491471 
L 119.149249 -214.489231 
L 117.533519 -220.464099 
L 115.917788 -225.328751 
L 114.302058 -227.889131 
L 112.686328 -227.173384 
L 111.070597 -222.65783 
L 109.454867 -214.316958 
L 107.839137 -202.523056 
L 106.223406 -187.889892 
L 104.607676 -171.155523 
L 102.991946 -153.141133 
L 101.376215 -134.752577 
L 99.760485 -116.957964 
L 98.144754 -100.697214 
L 96.529024 -86.736612 
L 94.913294 -75.52964 
L 93.297563 -67.151278 
L 91.681833 -61.33584 
L 90.066103 -57.596673 
L 88.450372 -55.373207 
L 86.834642 -54.151829 
L 85.218912 -53.532554 
L 83.603181 -53.242893 
z
" style="stroke: #ff7f0e"/>
    </defs>
    <g clip-path="url(#p2a2e610591)">
     <use xlink:href="#mfcee3d879f" x="0" y="326.35325" style="fill: #ff7f0e; fill-opacity: 0.25; stroke: #ff7f0e"/>
    </g>
   </g>
   <g id="PolyCollection_3">
    <defs>
     <path id="mceb285ca78" d="M 89.286628 -53.648658 
L 89.286628 -53.04125 
L 90.667491 -53.04125 
L 92.048354 -53.04125 
L 93.429217 -53.04125 
L 94.81008 -53.04125 
L 96.190943 -53.04125 
L 97.571806 -53.04125 
L 98.95267 -53.04125 
L 100.333533 -53.04125 
L 101.714396 -53.04125 
L 103.095259 -53.04125 
L 104.476122 -53.04125 
L 105.856985 -53.04125 
L 107.237848 -53.04125 
L 108.618712 -53.04125 
L 109.999575 -53.04125 
L 111.380438 -53.04125 
L 112.761301 -53.04125 
L 114.142164 -53.04125 
L 115.523027 -53.04125 
L 116.90389 -53.04125 
L 118.284754 -53.04125 
L 119.665617 -53.04125 
L 121.04648 -53.04125 
L 122.427343 -53.04125 
L 123.808206 -53.04125 
L 125.189069 -53.04125 
L 126.569932 -53.04125 
L 127.950796 -53.04125 
L 129.331659 -53.04125 
L 130.712522 -53.04125 
L 132.093385 -53.04125 
L 133.474248 -53.04125 
L 134.855111 -53.04125 
L 136.235974 -53.04125 
L 137.616838 -53.04125 
L 138.997701 -53.04125 
L 140.378564 -53.04125 
L 141.759427 -53.04125 
L 143.14029 -53.04125 
L 144.521153 -53.04125 
L 145.902017 -53.04125 
L 147.28288 -53.04125 
L 148.663743 -53.04125 
L 150.044606 -53.04125 
L 151.425469 -53.04125 
L 152.806332 -53.04125 
L 154.187195 -53.04125 
L 155.568059 -53.04125 
L 156.948922 -53.04125 
L 158.329785 -53.04125 
L 159.710648 -53.04125 
L 161.091511 -53.04125 
L 162.472374 -53.04125 
L 163.853237 -53.04125 
L 165.234101 -53.04125 
L 166.614964 -53.04125 
L 167.995827 -53.04125 
L 169.37669 -53.04125 
L 170.757553 -53.04125 
L 172.138416 -53.04125 
L 173.519279 -53.04125 
L 174.900143 -53.04125 
L 176.281006 -53.04125 
L 177.661869 -53.04125 
L 179.042732 -53.04125 
L 180.423595 -53.04125 
L 181.804458 -53.04125 
L 183.185321 -53.04125 
L 184.566185 -53.04125 
L 185.947048 -53.04125 
L 187.327911 -53.04125 
L 188.708774 -53.04125 
L 190.089637 -53.04125 
L 191.4705 -53.04125 
L 192.851363 -53.04125 
L 194.232227 -53.04125 
L 195.61309 -53.04125 
L 196.993953 -53.04125 
L 198.374816 -53.04125 
L 199.755679 -53.04125 
L 201.136542 -53.04125 
L 202.517405 -53.04125 
L 203.898269 -53.04125 
L 205.279132 -53.04125 
L 206.659995 -53.04125 
L 208.040858 -53.04125 
L 209.421721 -53.04125 
L 210.802584 -53.04125 
L 212.183447 -53.04125 
L 213.564311 -53.04125 
L 214.945174 -53.04125 
L 216.326037 -53.04125 
L 217.7069 -53.04125 
L 219.087763 -53.04125 
L 220.468626 -53.04125 
L 221.849489 -53.04125 
L 223.230353 -53.04125 
L 224.611216 -53.04125 
L 225.992079 -53.04125 
L 227.372942 -53.04125 
L 228.753805 -53.04125 
L 230.134668 -53.04125 
L 231.515531 -53.04125 
L 232.896395 -53.04125 
L 234.277258 -53.04125 
L 235.658121 -53.04125 
L 237.038984 -53.04125 
L 238.419847 -53.04125 
L 239.80071 -53.04125 
L 241.181573 -53.04125 
L 242.562437 -53.04125 
L 243.9433 -53.04125 
L 245.324163 -53.04125 
L 246.705026 -53.04125 
L 248.085889 -53.04125 
L 249.466752 -53.04125 
L 250.847615 -53.04125 
L 252.228479 -53.04125 
L 253.609342 -53.04125 
L 254.990205 -53.04125 
L 256.371068 -53.04125 
L 257.751931 -53.04125 
L 259.132794 -53.04125 
L 260.513657 -53.04125 
L 261.894521 -53.04125 
L 263.275384 -53.04125 
L 264.656247 -53.04125 
L 266.03711 -53.04125 
L 267.417973 -53.04125 
L 268.798836 -53.04125 
L 270.179699 -53.04125 
L 271.560563 -53.04125 
L 272.941426 -53.04125 
L 274.322289 -53.04125 
L 275.703152 -53.04125 
L 277.084015 -53.04125 
L 278.464878 -53.04125 
L 279.845742 -53.04125 
L 281.226605 -53.04125 
L 282.607468 -53.04125 
L 283.988331 -53.04125 
L 285.369194 -53.04125 
L 286.750057 -53.04125 
L 288.13092 -53.04125 
L 289.511784 -53.04125 
L 290.892647 -53.04125 
L 292.27351 -53.04125 
L 293.654373 -53.04125 
L 295.035236 -53.04125 
L 296.416099 -53.04125 
L 297.796962 -53.04125 
L 299.177826 -53.04125 
L 300.558689 -53.04125 
L 301.939552 -53.04125 
L 303.320415 -53.04125 
L 304.701278 -53.04125 
L 306.082141 -53.04125 
L 307.463004 -53.04125 
L 308.843868 -53.04125 
L 310.224731 -53.04125 
L 311.605594 -53.04125 
L 312.986457 -53.04125 
L 314.36732 -53.04125 
L 315.748183 -53.04125 
L 317.129046 -53.04125 
L 318.50991 -53.04125 
L 319.890773 -53.04125 
L 321.271636 -53.04125 
L 322.652499 -53.04125 
L 324.033362 -53.04125 
L 325.414225 -53.04125 
L 326.795088 -53.04125 
L 328.175952 -53.04125 
L 329.556815 -53.04125 
L 330.937678 -53.04125 
L 332.318541 -53.04125 
L 333.699404 -53.04125 
L 335.080267 -53.04125 
L 336.46113 -53.04125 
L 337.841994 -53.04125 
L 339.222857 -53.04125 
L 340.60372 -53.04125 
L 341.984583 -53.04125 
L 343.365446 -53.04125 
L 344.746309 -53.04125 
L 346.127172 -53.04125 
L 347.508036 -53.04125 
L 348.888899 -53.04125 
L 350.269762 -53.04125 
L 351.650625 -53.04125 
L 353.031488 -53.04125 
L 354.412351 -53.04125 
L 355.793214 -53.04125 
L 357.174078 -53.04125 
L 358.554941 -53.04125 
L 359.935804 -53.04125 
L 361.316667 -53.04125 
L 362.69753 -53.04125 
L 364.078393 -53.04125 
L 364.078393 -53.044238 
L 364.078393 -53.044238 
L 362.69753 -53.049663 
L 361.316667 -53.061945 
L 359.935804 -53.085721 
L 358.554941 -53.124736 
L 357.174078 -53.17817 
L 355.793214 -53.237424 
L 354.412351 -53.286803 
L 353.031488 -53.309795 
L 351.650625 -53.297956 
L 350.269762 -53.256135 
L 348.888899 -53.200079 
L 347.508036 -53.148681 
L 346.127172 -53.116991 
L 344.746309 -53.113861 
L 343.365446 -53.142963 
L 341.984583 -53.203366 
L 340.60372 -53.287976 
L 339.222857 -53.381921 
L 337.841994 -53.464196 
L 336.46113 -53.513579 
L 335.080267 -53.516332 
L 333.699404 -53.47163 
L 332.318541 -53.391804 
L 330.937678 -53.297188 
L 329.556815 -53.208089 
L 328.175952 -53.137959 
L 326.795088 -53.090907 
L 325.414225 -53.063762 
L 324.033362 -53.050236 
L 322.652499 -53.044402 
L 321.271636 -53.04222 
L 319.890773 -53.041512 
L 318.50991 -53.041312 
L 317.129046 -53.041263 
L 315.748183 -53.041252 
L 314.36732 -53.04125 
L 312.986457 -53.04125 
L 311.605594 -53.04125 
L 310.224731 -53.041253 
L 308.843868 -53.041266 
L 307.463004 -53.041327 
L 306.082141 -53.041569 
L 304.701278 -53.042401 
L 303.320415 -53.044872 
L 301.939552 -53.051208 
L 300.558689 -53.065167 
L 299.177826 -53.091435 
L 297.796962 -53.133245 
L 296.416099 -53.188572 
L 295.035236 -53.247356 
L 293.654373 -53.293152 
L 292.27351 -53.310211 
L 290.892647 -53.29213 
L 289.511784 -53.245689 
L 288.13092 -53.1868 
L 286.750057 -53.13183 
L 285.369194 -53.090714 
L 283.988331 -53.065645 
L 282.607468 -53.054284 
L 281.226605 -53.054098 
L 279.845742 -53.065121 
L 278.464878 -53.090163 
L 277.084015 -53.132512 
L 275.703152 -53.192159 
L 274.322289 -53.262913 
L 272.941426 -53.333182 
L 271.560563 -53.390742 
L 270.179699 -53.42786 
L 268.798836 -53.442317 
L 267.417973 -53.434234 
L 266.03711 -53.403459 
L 264.656247 -53.351146 
L 263.275384 -53.283342 
L 261.894521 -53.211406 
L 260.513657 -53.147678 
L 259.132794 -53.100074 
L 257.751931 -53.069931 
L 256.371068 -53.053882 
L 254.990205 -53.047435 
L 253.609342 -53.047889 
L 252.228479 -53.05589 
L 250.847615 -53.075867 
L 249.466752 -53.115183 
L 248.085889 -53.18127 
L 246.705026 -53.27668 
L 245.324163 -53.394203 
L 243.9433 -53.515903 
L 242.562437 -53.618439 
L 241.181573 -53.682532 
L 239.80071 -53.700862 
L 238.419847 -53.679896 
L 237.038984 -53.635934 
L 235.658121 -53.588757 
L 234.277258 -53.555725 
L 232.896395 -53.54754 
L 231.515531 -53.566462 
L 230.134668 -53.607155 
L 228.753805 -53.658845 
L 227.372942 -53.707439 
L 225.992079 -53.738191 
L 224.611216 -53.739829 
L 223.230353 -53.708331 
L 221.849489 -53.647143 
L 220.468626 -53.563965 
L 219.087763 -53.468018 
L 217.7069 -53.370443 
L 216.326037 -53.285912 
L 214.945174 -53.231815 
L 213.564311 -53.223834 
L 212.183447 -53.269471 
L 210.802584 -53.36228 
L 209.421721 -53.480749 
L 208.040858 -53.5959 
L 206.659995 -53.686818 
L 205.279132 -53.754514 
L 203.898269 -53.821664 
L 202.517405 -53.916213 
L 201.136542 -54.052397 
L 199.755679 -54.225857 
L 198.374816 -54.424708 
L 196.993953 -54.641758 
L 195.61309 -54.873698 
L 194.232227 -55.109562 
L 192.851363 -55.323506 
L 191.4705 -55.482587 
L 190.089637 -55.565773 
L 188.708774 -55.580896 
L 187.327911 -55.567717 
L 185.947048 -55.583778 
L 184.566185 -55.679065 
L 183.185321 -55.871121 
L 181.804458 -56.132104 
L 180.423595 -56.395546 
L 179.042732 -56.585124 
L 177.661869 -56.65785 
L 176.281006 -56.639572 
L 174.900143 -56.624892 
L 173.519279 -56.732519 
L 172.138416 -57.042054 
L 170.757553 -57.556176 
L 169.37669 -58.21191 
L 167.995827 -58.925213 
L 166.614964 -59.633002 
L 165.234101 -60.310061 
L 163.853237 -60.963447 
L 162.472374 -61.619328 
L 161.091511 -62.315781 
L 159.710648 -63.108938 
L 158.329785 -64.087971 
L 156.948922 -65.378401 
L 155.568059 -67.11173 
L 154.187195 -69.366003 
L 152.806332 -72.115743 
L 151.425469 -75.232999 
L 150.044606 -78.544849 
L 148.663743 -81.909923 
L 147.28288 -85.268934 
L 145.902017 -88.656975 
L 144.521153 -92.198999 
L 143.14029 -96.103394 
L 141.759427 -100.630683 
L 140.378564 -106.000466 
L 138.997701 -112.245939 
L 137.616838 -119.098442 
L 136.235974 -126.009713 
L 134.855111 -132.355757 
L 133.474248 -137.744894 
L 132.093385 -142.255624 
L 130.712522 -146.437299 
L 129.331659 -151.041484 
L 127.950796 -156.644243 
L 126.569932 -163.428006 
L 125.189069 -171.303439 
L 123.808206 -180.294852 
L 122.427343 -190.865447 
L 121.04648 -203.833626 
L 119.665617 -219.806891 
L 118.284754 -238.469545 
L 116.90389 -258.266101 
L 115.523027 -276.795594 
L 114.142164 -291.718381 
L 112.761301 -301.610164 
L 111.380438 -306.281056 
L 109.999575 -306.48125 
L 108.618712 -303.249347 
L 107.237848 -297.212372 
L 105.856985 -288.064419 
L 104.476122 -274.460878 
L 103.095259 -254.59519 
L 101.714396 -227.450873 
L 100.333533 -194.101542 
L 98.95267 -158.047373 
L 97.571806 -124.076459 
L 96.190943 -96.281227 
L 94.81008 -76.550256 
L 93.429217 -64.395595 
L 92.048354 -57.893624 
L 90.667491 -54.870884 
L 89.286628 -53.648658 
z
" style="stroke: #1f77b4"/>
    </defs>
    <g clip-path="url(#p2a2e610591)">
     <use xlink:href="#mceb285ca78" x="0" y="326.35325" style="fill: #1f77b4; fill-opacity: 0.25; stroke: #1f77b4"/>
    </g>
   </g>
   <g id="matplotlib.axis_1">
    <g id="xtick_1">
     <g id="line2d_1">
      <defs>
       <path id="m5fb975953b" d="M 0 0 
L 0 3.5 
" style="stroke: #000000; stroke-width: 0.8"/>
      </defs>
      <g>
       <use xlink:href="#m5fb975953b" x="100.556269" y="273.312" style="stroke: #000000; stroke-width: 0.8"/>
      </g>
     </g>
     <g id="text_1">
      <!-- 0 -->
      <g transform="translate(94.830019 293.989187) scale(0.18 -0.18)">
       <defs>
        <path id="DejaVuSans-30" d="M 2034 4250 
Q 1547 4250 1301 3770 
Q 1056 3291 1056 2328 
Q 1056 1369 1301 889 
Q 1547 409 2034 409 
Q 2525 409 2770 889 
Q 3016 1369 3016 2328 
Q 3016 3291 2770 3770 
Q 2525 4250 2034 4250 
z
M 2034 4750 
Q 2819 4750 3233 4129 
Q 3647 3509 3647 2328 
Q 3647 1150 3233 529 
Q 2819 -91 2034 -91 
Q 1250 -91 836 529 
Q 422 1150 422 2328 
Q 422 3509 836 4129 
Q 1250 4750 2034 4750 
z
" transform="scale(0.015625)"/>
       </defs>
       <use xlink:href="#DejaVuSans-30"/>
      </g>
     </g>
    </g>
    <g id="xtick_2">
     <g id="line2d_2">
      <g>
       <use xlink:href="#m5fb975953b" x="189.106199" y="273.312" style="stroke: #000000; stroke-width: 0.8"/>
      </g>
     </g>
     <g id="text_2">
      <!-- 1 -->
      <g transform="translate(183.379949 293.989187) scale(0.18 -0.18)">
       <defs>
        <path id="DejaVuSans-31" d="M 794 531 
L 1825 531 
L 1825 4091 
L 703 3866 
L 703 4441 
L 1819 4666 
L 2450 4666 
L 2450 531 
L 3481 531 
L 3481 0 
L 794 0 
L 794 531 
z
" transform="scale(0.015625)"/>
       </defs>
       <use xlink:href="#DejaVuSans-31"/>
      </g>
     </g>
    </g>
    <g id="xtick_3">
     <g id="line2d_3">
      <g>
       <use xlink:href="#m5fb975953b" x="277.656128" y="273.312" style="stroke: #000000; stroke-width: 0.8"/>
      </g>
     </g>
     <g id="text_3">
      <!-- 2 -->
      <g transform="translate(271.929878 293.989187) scale(0.18 -0.18)">
       <defs>
        <path id="DejaVuSans-32" d="M 1228 531 
L 3431 531 
L 3431 0 
L 469 0 
L 469 531 
Q 828 903 1448 1529 
Q 2069 2156 2228 2338 
Q 2531 2678 2651 2914 
Q 2772 3150 2772 3378 
Q 2772 3750 2511 3984 
Q 2250 4219 1831 4219 
Q 1534 4219 1204 4116 
Q 875 4013 500 3803 
L 500 4441 
Q 881 4594 1212 4672 
Q 1544 4750 1819 4750 
Q 2544 4750 2975 4387 
Q 3406 4025 3406 3419 
Q 3406 3131 3298 2873 
Q 3191 2616 2906 2266 
Q 2828 2175 2409 1742 
Q 1991 1309 1228 531 
z
" transform="scale(0.015625)"/>
       </defs>
       <use xlink:href="#DejaVuSans-32"/>
      </g>
     </g>
    </g>
    <g id="xtick_4">
     <g id="line2d_4">
      <g>
       <use xlink:href="#m5fb975953b" x="366.206057" y="273.312" style="stroke: #000000; stroke-width: 0.8"/>
      </g>
     </g>
     <g id="text_4">
      <!-- 3 -->
      <g transform="translate(360.479807 293.989187) scale(0.18 -0.18)">
       <defs>
        <path id="DejaVuSans-33" d="M 2597 2516 
Q 3050 2419 3304 2112 
Q 3559 1806 3559 1356 
Q 3559 666 3084 287 
Q 2609 -91 1734 -91 
Q 1441 -91 1130 -33 
Q 819 25 488 141 
L 488 750 
Q 750 597 1062 519 
Q 1375 441 1716 441 
Q 2309 441 2620 675 
Q 2931 909 2931 1356 
Q 2931 1769 2642 2001 
Q 2353 2234 1838 2234 
L 1294 2234 
L 1294 2753 
L 1863 2753 
Q 2328 2753 2575 2939 
Q 2822 3125 2822 3475 
Q 2822 3834 2567 4026 
Q 2313 4219 1838 4219 
Q 1578 4219 1281 4162 
Q 984 4106 628 3988 
L 628 4550 
Q 988 4650 1302 4700 
Q 1616 4750 1894 4750 
Q 2613 4750 3031 4423 
Q 3450 4097 3450 3541 
Q 3450 3153 3228 2886 
Q 3006 2619 2597 2516 
z
" transform="scale(0.015625)"/>
       </defs>
       <use xlink:href="#DejaVuSans-33"/>
      </g>
     </g>
    </g>
    <g id="text_5">
     <!-- Valor -->
     <g transform="translate(220.124844 315.409812) scale(0.18 -0.18)">
      <defs>
       <path id="DejaVuSans-56" d="M 1831 0 
L 50 4666 
L 709 4666 
L 2188 738 
L 3669 4666 
L 4325 4666 
L 2547 0 
L 1831 0 
z
" transform="scale(0.015625)"/>
       <path id="DejaVuSans-61" d="M 2194 1759 
Q 1497 1759 1228 1600 
Q 959 1441 959 1056 
Q 959 750 1161 570 
Q 1363 391 1709 391 
Q 2188 391 2477 730 
Q 2766 1069 2766 1631 
L 2766 1759 
L 2194 1759 
z
M 3341 1997 
L 3341 0 
L 2766 0 
L 2766 531 
Q 2569 213 2275 61 
Q 1981 -91 1556 -91 
Q 1019 -91 701 211 
Q 384 513 384 1019 
Q 384 1609 779 1909 
Q 1175 2209 1959 2209 
L 2766 2209 
L 2766 2266 
Q 2766 2663 2505 2880 
Q 2244 3097 1772 3097 
Q 1472 3097 1187 3025 
Q 903 2953 641 2809 
L 641 3341 
Q 956 3463 1253 3523 
Q 1550 3584 1831 3584 
Q 2591 3584 2966 3190 
Q 3341 2797 3341 1997 
z
" transform="scale(0.015625)"/>
       <path id="DejaVuSans-6c" d="M 603 4863 
L 1178 4863 
L 1178 0 
L 603 0 
L 603 4863 
z
" transform="scale(0.015625)"/>
       <path id="DejaVuSans-6f" d="M 1959 3097 
Q 1497 3097 1228 2736 
Q 959 2375 959 1747 
Q 959 1119 1226 758 
Q 1494 397 1959 397 
Q 2419 397 2687 759 
Q 2956 1122 2956 1747 
Q 2956 2369 2687 2733 
Q 2419 3097 1959 3097 
z
M 1959 3584 
Q 2709 3584 3137 3096 
Q 3566 2609 3566 1747 
Q 3566 888 3137 398 
Q 2709 -91 1959 -91 
Q 1206 -91 779 398 
Q 353 888 353 1747 
Q 353 2609 779 3096 
Q 1206 3584 1959 3584 
z
" transform="scale(0.015625)"/>
       <path id="DejaVuSans-72" d="M 2631 2963 
Q 2534 3019 2420 3045 
Q 2306 3072 2169 3072 
Q 1681 3072 1420 2755 
Q 1159 2438 1159 1844 
L 1159 0 
L 581 0 
L 581 3500 
L 1159 3500 
L 1159 2956 
Q 1341 3275 1631 3429 
Q 1922 3584 2338 3584 
Q 2397 3584 2469 3576 
Q 2541 3569 2628 3553 
L 2631 2963 
z
" transform="scale(0.015625)"/>
      </defs>
      <use xlink:href="#DejaVuSans-56"/>
      <use xlink:href="#DejaVuSans-61" x="60.658203"/>
      <use xlink:href="#DejaVuSans-6c" x="121.9375"/>
      <use xlink:href="#DejaVuSans-6f" x="149.720703"/>
      <use xlink:href="#DejaVuSans-72" x="210.902344"/>
     </g>
    </g>
   </g>
   <g id="matplotlib.axis_2">
    <g id="ytick_1">
     <g id="line2d_5">
      <defs>
       <path id="m11bed1a404" d="M 0 0 
L -3.5 0 
" style="stroke: #000000; stroke-width: 0.8"/>
      </defs>
      <g>
       <use xlink:href="#m11bed1a404" x="64.24625" y="273.312" style="stroke: #000000; stroke-width: 0.8"/>
      </g>
     </g>
     <g id="text_6">
      <!-- 0.0 -->
      <g transform="translate(28.620625 280.150594) scale(0.18 -0.18)">
       <defs>
        <path id="DejaVuSans-2e" d="M 684 794 
L 1344 794 
L 1344 0 
L 684 0 
L 684 794 
z
" transform="scale(0.015625)"/>
       </defs>
       <use xlink:href="#DejaVuSans-30"/>
       <use xlink:href="#DejaVuSans-2e" x="63.623047"/>
       <use xlink:href="#DejaVuSans-30" x="95.410156"/>
      </g>
     </g>
    </g>
    <g id="ytick_2">
     <g id="line2d_6">
      <g>
       <use xlink:href="#m11bed1a404" x="64.24625" y="222.344335" style="stroke: #000000; stroke-width: 0.8"/>
      </g>
     </g>
     <g id="text_7">
      <!-- 0.2 -->
      <g transform="translate(28.620625 229.182928) scale(0.18 -0.18)">
       <use xlink:href="#DejaVuSans-30"/>
       <use xlink:href="#DejaVuSans-2e" x="63.623047"/>
       <use xlink:href="#DejaVuSans-32" x="95.410156"/>
      </g>
     </g>
    </g>
    <g id="ytick_3">
     <g id="line2d_7">
      <g>
       <use xlink:href="#m11bed1a404" x="64.24625" y="171.376669" style="stroke: #000000; stroke-width: 0.8"/>
      </g>
     </g>
     <g id="text_8">
      <!-- 0.4 -->
      <g transform="translate(28.620625 178.215263) scale(0.18 -0.18)">
       <defs>
        <path id="DejaVuSans-34" d="M 2419 4116 
L 825 1625 
L 2419 1625 
L 2419 4116 
z
M 2253 4666 
L 3047 4666 
L 3047 1625 
L 3713 1625 
L 3713 1100 
L 3047 1100 
L 3047 0 
L 2419 0 
L 2419 1100 
L 313 1100 
L 313 1709 
L 2253 4666 
z
" transform="scale(0.015625)"/>
       </defs>
       <use xlink:href="#DejaVuSans-30"/>
       <use xlink:href="#DejaVuSans-2e" x="63.623047"/>
       <use xlink:href="#DejaVuSans-34" x="95.410156"/>
      </g>
     </g>
    </g>
    <g id="ytick_4">
     <g id="line2d_8">
      <g>
       <use xlink:href="#m11bed1a404" x="64.24625" y="120.409004" style="stroke: #000000; stroke-width: 0.8"/>
      </g>
     </g>
     <g id="text_9">
      <!-- 0.6 -->
      <g transform="translate(28.620625 127.247598) scale(0.18 -0.18)">
       <defs>
        <path id="DejaVuSans-36" d="M 2113 2584 
Q 1688 2584 1439 2293 
Q 1191 2003 1191 1497 
Q 1191 994 1439 701 
Q 1688 409 2113 409 
Q 2538 409 2786 701 
Q 3034 994 3034 1497 
Q 3034 2003 2786 2293 
Q 2538 2584 2113 2584 
z
M 3366 4563 
L 3366 3988 
Q 3128 4100 2886 4159 
Q 2644 4219 2406 4219 
Q 1781 4219 1451 3797 
Q 1122 3375 1075 2522 
Q 1259 2794 1537 2939 
Q 1816 3084 2150 3084 
Q 2853 3084 3261 2657 
Q 3669 2231 3669 1497 
Q 3669 778 3244 343 
Q 2819 -91 2113 -91 
Q 1303 -91 875 529 
Q 447 1150 447 2328 
Q 447 3434 972 4092 
Q 1497 4750 2381 4750 
Q 2619 4750 2861 4703 
Q 3103 4656 3366 4563 
z
" transform="scale(0.015625)"/>
       </defs>
       <use xlink:href="#DejaVuSans-30"/>
       <use xlink:href="#DejaVuSans-2e" x="63.623047"/>
       <use xlink:href="#DejaVuSans-36" x="95.410156"/>
      </g>
     </g>
    </g>
    <g id="ytick_5">
     <g id="line2d_9">
      <g>
       <use xlink:href="#m11bed1a404" x="64.24625" y="69.441339" style="stroke: #000000; stroke-width: 0.8"/>
      </g>
     </g>
     <g id="text_10">
      <!-- 0.8 -->
      <g transform="translate(28.620625 76.279932) scale(0.18 -0.18)">
       <defs>
        <path id="DejaVuSans-38" d="M 2034 2216 
Q 1584 2216 1326 1975 
Q 1069 1734 1069 1313 
Q 1069 891 1326 650 
Q 1584 409 2034 409 
Q 2484 409 2743 651 
Q 3003 894 3003 1313 
Q 3003 1734 2745 1975 
Q 2488 2216 2034 2216 
z
M 1403 2484 
Q 997 2584 770 2862 
Q 544 3141 544 3541 
Q 544 4100 942 4425 
Q 1341 4750 2034 4750 
Q 2731 4750 3128 4425 
Q 3525 4100 3525 3541 
Q 3525 3141 3298 2862 
Q 3072 2584 2669 2484 
Q 3125 2378 3379 2068 
Q 3634 1759 3634 1313 
Q 3634 634 3220 271 
Q 2806 -91 2034 -91 
Q 1263 -91 848 271 
Q 434 634 434 1313 
Q 434 1759 690 2068 
Q 947 2378 1403 2484 
z
M 1172 3481 
Q 1172 3119 1398 2916 
Q 1625 2713 2034 2713 
Q 2441 2713 2670 2916 
Q 2900 3119 2900 3481 
Q 2900 3844 2670 4047 
Q 2441 4250 2034 4250 
Q 1625 4250 1398 4047 
Q 1172 3844 1172 3481 
z
" transform="scale(0.015625)"/>
       </defs>
       <use xlink:href="#DejaVuSans-30"/>
       <use xlink:href="#DejaVuSans-2e" x="63.623047"/>
       <use xlink:href="#DejaVuSans-38" x="95.410156"/>
      </g>
     </g>
    </g>
    <g id="ytick_6">
     <g id="line2d_10">
      <g>
       <use xlink:href="#m11bed1a404" x="64.24625" y="18.473673" style="stroke: #000000; stroke-width: 0.8"/>
      </g>
     </g>
     <g id="text_11">
      <!-- 1.0 -->
      <g transform="translate(28.620625 25.312267) scale(0.18 -0.18)">
       <use xlink:href="#DejaVuSans-31"/>
       <use xlink:href="#DejaVuSans-2e" x="63.623047"/>
       <use xlink:href="#DejaVuSans-30" x="95.410156"/>
      </g>
     </g>
    </g>
    <g id="text_12">
     <!-- Density -->
     <g transform="translate(20.877188 174.471469) rotate(-90) scale(0.18 -0.18)">
      <defs>
       <path id="DejaVuSans-44" d="M 1259 4147 
L 1259 519 
L 2022 519 
Q 2988 519 3436 956 
Q 3884 1394 3884 2338 
Q 3884 3275 3436 3711 
Q 2988 4147 2022 4147 
L 1259 4147 
z
M 628 4666 
L 1925 4666 
Q 3281 4666 3915 4102 
Q 4550 3538 4550 2338 
Q 4550 1131 3912 565 
Q 3275 0 1925 0 
L 628 0 
L 628 4666 
z
" transform="scale(0.015625)"/>
       <path id="DejaVuSans-65" d="M 3597 1894 
L 3597 1613 
L 953 1613 
Q 991 1019 1311 708 
Q 1631 397 2203 397 
Q 2534 397 2845 478 
Q 3156 559 3463 722 
L 3463 178 
Q 3153 47 2828 -22 
Q 2503 -91 2169 -91 
Q 1331 -91 842 396 
Q 353 884 353 1716 
Q 353 2575 817 3079 
Q 1281 3584 2069 3584 
Q 2775 3584 3186 3129 
Q 3597 2675 3597 1894 
z
M 3022 2063 
Q 3016 2534 2758 2815 
Q 2500 3097 2075 3097 
Q 1594 3097 1305 2825 
Q 1016 2553 972 2059 
L 3022 2063 
z
" transform="scale(0.015625)"/>
       <path id="DejaVuSans-6e" d="M 3513 2113 
L 3513 0 
L 2938 0 
L 2938 2094 
Q 2938 2591 2744 2837 
Q 2550 3084 2163 3084 
Q 1697 3084 1428 2787 
Q 1159 2491 1159 1978 
L 1159 0 
L 581 0 
L 581 3500 
L 1159 3500 
L 1159 2956 
Q 1366 3272 1645 3428 
Q 1925 3584 2291 3584 
Q 2894 3584 3203 3211 
Q 3513 2838 3513 2113 
z
" transform="scale(0.015625)"/>
       <path id="DejaVuSans-73" d="M 2834 3397 
L 2834 2853 
Q 2591 2978 2328 3040 
Q 2066 3103 1784 3103 
Q 1356 3103 1142 2972 
Q 928 2841 928 2578 
Q 928 2378 1081 2264 
Q 1234 2150 1697 2047 
L 1894 2003 
Q 2506 1872 2764 1633 
Q 3022 1394 3022 966 
Q 3022 478 2636 193 
Q 2250 -91 1575 -91 
Q 1294 -91 989 -36 
Q 684 19 347 128 
L 347 722 
Q 666 556 975 473 
Q 1284 391 1588 391 
Q 1994 391 2212 530 
Q 2431 669 2431 922 
Q 2431 1156 2273 1281 
Q 2116 1406 1581 1522 
L 1381 1569 
Q 847 1681 609 1914 
Q 372 2147 372 2553 
Q 372 3047 722 3315 
Q 1072 3584 1716 3584 
Q 2034 3584 2315 3537 
Q 2597 3491 2834 3397 
z
" transform="scale(0.015625)"/>
       <path id="DejaVuSans-69" d="M 603 3500 
L 1178 3500 
L 1178 0 
L 603 0 
L 603 3500 
z
M 603 4863 
L 1178 4863 
L 1178 4134 
L 603 4134 
L 603 4863 
z
" transform="scale(0.015625)"/>
       <path id="DejaVuSans-74" d="M 1172 4494 
L 1172 3500 
L 2356 3500 
L 2356 3053 
L 1172 3053 
L 1172 1153 
Q 1172 725 1289 603 
Q 1406 481 1766 481 
L 2356 481 
L 2356 0 
L 1766 0 
Q 1100 0 847 248 
Q 594 497 594 1153 
L 594 3053 
L 172 3053 
L 172 3500 
L 594 3500 
L 594 4494 
L 1172 4494 
z
" transform="scale(0.015625)"/>
       <path id="DejaVuSans-79" d="M 2059 -325 
Q 1816 -950 1584 -1140 
Q 1353 -1331 966 -1331 
L 506 -1331 
L 506 -850 
L 844 -850 
Q 1081 -850 1212 -737 
Q 1344 -625 1503 -206 
L 1606 56 
L 191 3500 
L 800 3500 
L 1894 763 
L 2988 3500 
L 3597 3500 
L 2059 -325 
z
" transform="scale(0.015625)"/>
      </defs>
      <use xlink:href="#DejaVuSans-44"/>
      <use xlink:href="#DejaVuSans-65" x="77.001953"/>
      <use xlink:href="#DejaVuSans-6e" x="138.525391"/>
      <use xlink:href="#DejaVuSans-73" x="201.904297"/>
      <use xlink:href="#DejaVuSans-69" x="254.003906"/>
      <use xlink:href="#DejaVuSans-74" x="281.787109"/>
      <use xlink:href="#DejaVuSans-79" x="320.996094"/>
     </g>
    </g>
   </g>
   <g id="patch_3">
    <path d="M 64.24625 273.312 
L 64.24625 7.2 
" style="fill: none; stroke: #000000; stroke-width: 0.8; stroke-linejoin: miter; stroke-linecap: square"/>
   </g>
   <g id="patch_4">
    <path d="M 421.36625 273.312 
L 421.36625 7.2 
" style="fill: none; stroke: #000000; stroke-width: 0.8; stroke-linejoin: miter; stroke-linecap: square"/>
   </g>
   <g id="patch_5">
    <path d="M 64.24625 273.312 
L 421.36625 273.312 
" style="fill: none; stroke: #000000; stroke-width: 0.8; stroke-linejoin: miter; stroke-linecap: square"/>
   </g>
   <g id="patch_6">
    <path d="M 64.24625 7.2 
L 421.36625 7.2 
" style="fill: none; stroke: #000000; stroke-width: 0.8; stroke-linejoin: miter; stroke-linecap: square"/>
   </g>
   <g id="legend_1">
    <g id="patch_7">
     <path d="M 299.939375 127.2825 
L 408.76625 127.2825 
Q 412.36625 127.2825 412.36625 123.6825 
L 412.36625 19.8 
Q 412.36625 16.2 408.76625 16.2 
L 299.939375 16.2 
Q 296.339375 16.2 296.339375 19.8 
L 296.339375 123.6825 
Q 296.339375 127.2825 299.939375 127.2825 
z
" style="fill: #ffffff; opacity: 0.8; stroke: #cccccc; stroke-linejoin: miter"/>
    </g>
    <g id="text_13">
     <!-- Model -->
     <g transform="translate(327.328906 37.077187) scale(0.18 -0.18)">
      <defs>
       <path id="DejaVuSans-4d" d="M 628 4666 
L 1569 4666 
L 2759 1491 
L 3956 4666 
L 4897 4666 
L 4897 0 
L 4281 0 
L 4281 4097 
L 3078 897 
L 2444 897 
L 1241 4097 
L 1241 0 
L 628 0 
L 628 4666 
z
" transform="scale(0.015625)"/>
       <path id="DejaVuSans-64" d="M 2906 2969 
L 2906 4863 
L 3481 4863 
L 3481 0 
L 2906 0 
L 2906 525 
Q 2725 213 2448 61 
Q 2172 -91 1784 -91 
Q 1150 -91 751 415 
Q 353 922 353 1747 
Q 353 2572 751 3078 
Q 1150 3584 1784 3584 
Q 2172 3584 2448 3432 
Q 2725 3281 2906 2969 
z
M 947 1747 
Q 947 1113 1208 752 
Q 1469 391 1925 391 
Q 2381 391 2643 752 
Q 2906 1113 2906 1747 
Q 2906 2381 2643 2742 
Q 2381 3103 1925 3103 
Q 1469 3103 1208 2742 
Q 947 2381 947 1747 
z
" transform="scale(0.015625)"/>
      </defs>
      <use xlink:href="#DejaVuSans-4d"/>
      <use xlink:href="#DejaVuSans-6f" x="86.279297"/>
      <use xlink:href="#DejaVuSans-64" x="147.460938"/>
      <use xlink:href="#DejaVuSans-65" x="210.9375"/>
      <use xlink:href="#DejaVuSans-6c" x="272.460938"/>
     </g>
    </g>
    <g id="patch_8">
     <path d="M 303.539375 63.497812 
L 339.539375 63.497812 
L 339.539375 50.897812 
L 303.539375 50.897812 
z
" style="fill: #1f77b4; fill-opacity: 0.25; stroke: #1f77b4; stroke-linejoin: miter"/>
    </g>
    <g id="text_14">
     <!-- Naive -->
     <g transform="translate(353.939375 63.497812) scale(0.18 -0.18)">
      <defs>
       <path id="DejaVuSans-4e" d="M 628 4666 
L 1478 4666 
L 3547 763 
L 3547 4666 
L 4159 4666 
L 4159 0 
L 3309 0 
L 1241 3903 
L 1241 0 
L 628 0 
L 628 4666 
z
" transform="scale(0.015625)"/>
       <path id="DejaVuSans-76" d="M 191 3500 
L 800 3500 
L 1894 563 
L 2988 3500 
L 3597 3500 
L 2284 0 
L 1503 0 
L 191 3500 
z
" transform="scale(0.015625)"/>
      </defs>
      <use xlink:href="#DejaVuSans-4e"/>
      <use xlink:href="#DejaVuSans-61" x="74.804688"/>
      <use xlink:href="#DejaVuSans-69" x="136.083984"/>
      <use xlink:href="#DejaVuSans-76" x="163.867188"/>
      <use xlink:href="#DejaVuSans-65" x="223.046875"/>
     </g>
    </g>
    <g id="patch_9">
     <path d="M 303.539375 89.918437 
L 339.539375 89.918437 
L 339.539375 77.318437 
L 303.539375 77.318437 
z
" style="fill: #ff7f0e; fill-opacity: 0.25; stroke: #ff7f0e; stroke-linejoin: miter"/>
    </g>
    <g id="text_15">
     <!-- KDE -->
     <g transform="translate(353.939375 89.918437) scale(0.18 -0.18)">
      <defs>
       <path id="DejaVuSans-4b" d="M 628 4666 
L 1259 4666 
L 1259 2694 
L 3353 4666 
L 4166 4666 
L 1850 2491 
L 4331 0 
L 3500 0 
L 1259 2247 
L 1259 0 
L 628 0 
L 628 4666 
z
" transform="scale(0.015625)"/>
       <path id="DejaVuSans-45" d="M 628 4666 
L 3578 4666 
L 3578 4134 
L 1259 4134 
L 1259 2753 
L 3481 2753 
L 3481 2222 
L 1259 2222 
L 1259 531 
L 3634 531 
L 3634 0 
L 628 0 
L 628 4666 
z
" transform="scale(0.015625)"/>
      </defs>
      <use xlink:href="#DejaVuSans-4b"/>
      <use xlink:href="#DejaVuSans-44" x="65.576172"/>
      <use xlink:href="#DejaVuSans-45" x="142.578125"/>
     </g>
    </g>
    <g id="patch_10">
     <path d="M 303.539375 116.339062 
L 339.539375 116.339062 
L 339.539375 103.739062 
L 303.539375 103.739062 
z
" style="fill: #2ca02c; fill-opacity: 0.25; stroke: #2ca02c; stroke-linejoin: miter"/>
    </g>
    <g id="text_16">
     <!-- SEPP -->
     <g transform="translate(353.939375 116.339062) scale(0.18 -0.18)">
      <defs>
       <path id="DejaVuSans-53" d="M 3425 4513 
L 3425 3897 
Q 3066 4069 2747 4153 
Q 2428 4238 2131 4238 
Q 1616 4238 1336 4038 
Q 1056 3838 1056 3469 
Q 1056 3159 1242 3001 
Q 1428 2844 1947 2747 
L 2328 2669 
Q 3034 2534 3370 2195 
Q 3706 1856 3706 1288 
Q 3706 609 3251 259 
Q 2797 -91 1919 -91 
Q 1588 -91 1214 -16 
Q 841 59 441 206 
L 441 856 
Q 825 641 1194 531 
Q 1563 422 1919 422 
Q 2459 422 2753 634 
Q 3047 847 3047 1241 
Q 3047 1584 2836 1778 
Q 2625 1972 2144 2069 
L 1759 2144 
Q 1053 2284 737 2584 
Q 422 2884 422 3419 
Q 422 4038 858 4394 
Q 1294 4750 2059 4750 
Q 2388 4750 2728 4690 
Q 3069 4631 3425 4513 
z
" transform="scale(0.015625)"/>
       <path id="DejaVuSans-50" d="M 1259 4147 
L 1259 2394 
L 2053 2394 
Q 2494 2394 2734 2622 
Q 2975 2850 2975 3272 
Q 2975 3691 2734 3919 
Q 2494 4147 2053 4147 
L 1259 4147 
z
M 628 4666 
L 2053 4666 
Q 2838 4666 3239 4311 
Q 3641 3956 3641 3272 
Q 3641 2581 3239 2228 
Q 2838 1875 2053 1875 
L 1259 1875 
L 1259 0 
L 628 0 
L 628 4666 
z
" transform="scale(0.015625)"/>
      </defs>
      <use xlink:href="#DejaVuSans-53"/>
      <use xlink:href="#DejaVuSans-45" x="63.476562"/>
      <use xlink:href="#DejaVuSans-50" x="126.660156"/>
      <use xlink:href="#DejaVuSans-50" x="186.962891"/>
     </g>
    </g>
   </g>
  </g>
 </g>
 <defs>
  <clipPath id="p2a2e610591">
   <rect x="64.24625" y="7.2" width="357.12" height="266.112"/>
  </clipPath>
 </defs>
</svg>
