<?xml version="1.0" encoding="utf-8" standalone="no"?>
<!DOCTYPE svg PUBLIC "-//W3C//DTD SVG 1.1//EN"
  "http://www.w3.org/Graphics/SVG/1.1/DTD/svg11.dtd">
<svg xmlns:xlink="http://www.w3.org/1999/xlink" width="1034.2075pt" height="359.853875pt" viewBox="0 0 1034.2075 359.853875" xmlns="http://www.w3.org/2000/svg" version="1.1">
 <metadata>
  <rdf:RDF xmlns:dc="http://purl.org/dc/elements/1.1/" xmlns:cc="http://creativecommons.org/ns#" xmlns:rdf="http://www.w3.org/1999/02/22-rdf-syntax-ns#">
   <cc:Work>
    <dc:type rdf:resource="http://purl.org/dc/dcmitype/StillImage"/>
    <dc:date>2023-09-05T19:53:57.425792</dc:date>
    <dc:format>image/svg+xml</dc:format>
    <dc:creator>
     <cc:Agent>
      <dc:title>Matplotlib v3.7.1, https://matplotlib.org/</dc:title>
     </cc:Agent>
    </dc:creator>
   </cc:Work>
  </rdf:RDF>
 </metadata>
 <defs>
  <style type="text/css">*{stroke-linejoin: round; stroke-linecap: butt}</style>
 </defs>
 <g id="figure_1">
  <g id="patch_1">
   <path d="M 0 359.853875 
L 1034.2075 359.853875 
L 1034.2075 0 
L 0 0 
z
" style="fill: #ffffff"/>
  </g>
  <g id="axes_1">
   <g id="patch_2">
    <path d="M 110.05625 306.812625 
L 356.232721 306.812625 
L 356.232721 29.612625 
L 110.05625 29.612625 
z
" style="fill: #ffffff"/>
   </g>
   <g id="PolyCollection_1">
    <defs>
     <path id="md5fee62eb8" d="M 121.24609 -211.195002 
L 121.24609 -144.177415 
L 125.634262 -149.766717 
L 130.022434 -141.29519 
L 134.410607 -146.173866 
L 138.798779 -136.849542 
L 143.186951 -127.906787 
L 147.575124 -140.266269 
L 151.963296 -126.30758 
L 156.351469 -133.520978 
L 160.739641 -141.775582 
L 165.127813 -160.589902 
L 169.515986 -157.739239 
L 173.904158 -125.512147 
L 178.292331 -120.248129 
L 182.680503 -141.558006 
L 187.068675 -145.423446 
L 191.456848 -133.104616 
L 195.84502 -155.822098 
L 200.233192 -149.185123 
L 204.621365 -149.420839 
L 209.009537 -139.345555 
L 213.39771 -136.961852 
L 217.785882 -155.346186 
L 222.174054 -146.469195 
L 226.562227 -144.899627 
L 230.950399 -129.434635 
L 235.338571 -142.387359 
L 239.726744 -138.459948 
L 244.114916 -134.795682 
L 248.503089 -145.72489 
L 252.891261 -132.324897 
L 257.279433 -128.670978 
L 261.667606 -130.294661 
L 266.055778 -138.935252 
L 270.443951 -150.532867 
L 274.832123 -135.345702 
L 279.220295 -129.042498 
L 283.608468 -148.620819 
L 287.99664 -130.857233 
L 292.384812 -130.792559 
L 296.772985 -125.704636 
L 301.161157 -129.726014 
L 305.54933 -153.216826 
L 309.937502 -145.650011 
L 314.325674 -142.512485 
L 318.713847 -130.273801 
L 323.102019 -148.962337 
L 327.490191 -141.481997 
L 331.878364 -139.853089 
L 336.266536 -130.324787 
L 340.654709 -147.651516 
L 345.042881 -143.591367 
L 345.042881 -219.173323 
L 345.042881 -219.173323 
L 340.654709 -210.331902 
L 336.266536 -186.179535 
L 331.878364 -184.638255 
L 327.490191 -200.778717 
L 323.102019 -217.179828 
L 318.713847 -182.515065 
L 314.325674 -198.187941 
L 309.937502 -208.736742 
L 305.54933 -238.528804 
L 301.161157 -206.963502 
L 296.772985 -208.019531 
L 292.384812 -216.909094 
L 287.99664 -191.170798 
L 283.608468 -218.716504 
L 279.220295 -180.936104 
L 274.832123 -215.979473 
L 270.443951 -237.704799 
L 266.055778 -187.995788 
L 261.667606 -174.671102 
L 257.279433 -181.938344 
L 252.891261 -196.561233 
L 248.503089 -214.776699 
L 244.114916 -204.245963 
L 239.726744 -193.373392 
L 235.338571 -197.501404 
L 230.950399 -185.914307 
L 226.562227 -210.158328 
L 222.174054 -238.757678 
L 217.785882 -241.687201 
L 213.39771 -202.521673 
L 209.009537 -228.938346 
L 204.621365 -225.92204 
L 200.233192 -213.911821 
L 195.84502 -243.259989 
L 191.456848 -223.578806 
L 187.068675 -213.927806 
L 182.680503 -212.255346 
L 178.292331 -214.85504 
L 173.904158 -183.915439 
L 169.515986 -225.268665 
L 165.127813 -233.03304 
L 160.739641 -198.486417 
L 156.351469 -190.814999 
L 151.963296 -174.093612 
L 147.575124 -208.197636 
L 143.186951 -183.284996 
L 138.798779 -215.180578 
L 134.410607 -220.706326 
L 130.022434 -204.681638 
L 125.634262 -215.079503 
L 121.24609 -211.195002 
z
" style="stroke: #ff0000; stroke-opacity: 0.2"/>
    </defs>
    <g clip-path="url(#pe78d5c4470)">
     <use xlink:href="#md5fee62eb8" x="0" y="359.853875" style="fill: #ff0000; fill-opacity: 0.2; stroke: #ff0000; stroke-opacity: 0.2"/>
    </g>
   </g>
   <g id="matplotlib.axis_1">
    <g id="xtick_1">
     <g id="line2d_1">
      <defs>
       <path id="m8604aeba0b" d="M 0 0 
L 0 3.5 
" style="stroke: #000000; stroke-width: 0.8"/>
      </defs>
      <g>
       <use xlink:href="#m8604aeba0b" x="116.857917" y="306.812625" style="stroke: #000000; stroke-width: 0.8"/>
      </g>
     </g>
     <g id="text_1">
      <!-- 0 -->
      <g transform="translate(111.131667 327.489813) scale(0.18 -0.18)">
       <defs>
        <path id="DejaVuSans-30" d="M 2034 4250 
Q 1547 4250 1301 3770 
Q 1056 3291 1056 2328 
Q 1056 1369 1301 889 
Q 1547 409 2034 409 
Q 2525 409 2770 889 
Q 3016 1369 3016 2328 
Q 3016 3291 2770 3770 
Q 2525 4250 2034 4250 
z
M 2034 4750 
Q 2819 4750 3233 4129 
Q 3647 3509 3647 2328 
Q 3647 1150 3233 529 
Q 2819 -91 2034 -91 
Q 1250 -91 836 529 
Q 422 1150 422 2328 
Q 422 3509 836 4129 
Q 1250 4750 2034 4750 
z
" transform="scale(0.015625)"/>
       </defs>
       <use xlink:href="#DejaVuSans-30"/>
      </g>
     </g>
    </g>
    <g id="xtick_2">
     <g id="line2d_2">
      <g>
       <use xlink:href="#m8604aeba0b" x="204.621365" y="306.812625" style="stroke: #000000; stroke-width: 0.8"/>
      </g>
     </g>
     <g id="text_2">
      <!-- 20 -->
      <g transform="translate(193.168865 327.489813) scale(0.18 -0.18)">
       <defs>
        <path id="DejaVuSans-32" d="M 1228 531 
L 3431 531 
L 3431 0 
L 469 0 
L 469 531 
Q 828 903 1448 1529 
Q 2069 2156 2228 2338 
Q 2531 2678 2651 2914 
Q 2772 3150 2772 3378 
Q 2772 3750 2511 3984 
Q 2250 4219 1831 4219 
Q 1534 4219 1204 4116 
Q 875 4013 500 3803 
L 500 4441 
Q 881 4594 1212 4672 
Q 1544 4750 1819 4750 
Q 2544 4750 2975 4387 
Q 3406 4025 3406 3419 
Q 3406 3131 3298 2873 
Q 3191 2616 2906 2266 
Q 2828 2175 2409 1742 
Q 1991 1309 1228 531 
z
" transform="scale(0.015625)"/>
       </defs>
       <use xlink:href="#DejaVuSans-32"/>
       <use xlink:href="#DejaVuSans-30" x="63.623047"/>
      </g>
     </g>
    </g>
    <g id="xtick_3">
     <g id="line2d_3">
      <g>
       <use xlink:href="#m8604aeba0b" x="292.384812" y="306.812625" style="stroke: #000000; stroke-width: 0.8"/>
      </g>
     </g>
     <g id="text_3">
      <!-- 40 -->
      <g transform="translate(280.932312 327.489813) scale(0.18 -0.18)">
       <defs>
        <path id="DejaVuSans-34" d="M 2419 4116 
L 825 1625 
L 2419 1625 
L 2419 4116 
z
M 2253 4666 
L 3047 4666 
L 3047 1625 
L 3713 1625 
L 3713 1100 
L 3047 1100 
L 3047 0 
L 2419 0 
L 2419 1100 
L 313 1100 
L 313 1709 
L 2253 4666 
z
" transform="scale(0.015625)"/>
       </defs>
       <use xlink:href="#DejaVuSans-34"/>
       <use xlink:href="#DejaVuSans-30" x="63.623047"/>
      </g>
     </g>
    </g>
    <g id="text_4">
     <!-- Week number -->
     <g transform="translate(170.501673 348.910438) scale(0.18 -0.18)">
      <defs>
       <path id="DejaVuSans-57" d="M 213 4666 
L 850 4666 
L 1831 722 
L 2809 4666 
L 3519 4666 
L 4500 722 
L 5478 4666 
L 6119 4666 
L 4947 0 
L 4153 0 
L 3169 4050 
L 2175 0 
L 1381 0 
L 213 4666 
z
" transform="scale(0.015625)"/>
       <path id="DejaVuSans-65" d="M 3597 1894 
L 3597 1613 
L 953 1613 
Q 991 1019 1311 708 
Q 1631 397 2203 397 
Q 2534 397 2845 478 
Q 3156 559 3463 722 
L 3463 178 
Q 3153 47 2828 -22 
Q 2503 -91 2169 -91 
Q 1331 -91 842 396 
Q 353 884 353 1716 
Q 353 2575 817 3079 
Q 1281 3584 2069 3584 
Q 2775 3584 3186 3129 
Q 3597 2675 3597 1894 
z
M 3022 2063 
Q 3016 2534 2758 2815 
Q 2500 3097 2075 3097 
Q 1594 3097 1305 2825 
Q 1016 2553 972 2059 
L 3022 2063 
z
" transform="scale(0.015625)"/>
       <path id="DejaVuSans-6b" d="M 581 4863 
L 1159 4863 
L 1159 1991 
L 2875 3500 
L 3609 3500 
L 1753 1863 
L 3688 0 
L 2938 0 
L 1159 1709 
L 1159 0 
L 581 0 
L 581 4863 
z
" transform="scale(0.015625)"/>
       <path id="DejaVuSans-20" transform="scale(0.015625)"/>
       <path id="DejaVuSans-6e" d="M 3513 2113 
L 3513 0 
L 2938 0 
L 2938 2094 
Q 2938 2591 2744 2837 
Q 2550 3084 2163 3084 
Q 1697 3084 1428 2787 
Q 1159 2491 1159 1978 
L 1159 0 
L 581 0 
L 581 3500 
L 1159 3500 
L 1159 2956 
Q 1366 3272 1645 3428 
Q 1925 3584 2291 3584 
Q 2894 3584 3203 3211 
Q 3513 2838 3513 2113 
z
" transform="scale(0.015625)"/>
       <path id="DejaVuSans-75" d="M 544 1381 
L 544 3500 
L 1119 3500 
L 1119 1403 
Q 1119 906 1312 657 
Q 1506 409 1894 409 
Q 2359 409 2629 706 
Q 2900 1003 2900 1516 
L 2900 3500 
L 3475 3500 
L 3475 0 
L 2900 0 
L 2900 538 
Q 2691 219 2414 64 
Q 2138 -91 1772 -91 
Q 1169 -91 856 284 
Q 544 659 544 1381 
z
M 1991 3584 
L 1991 3584 
z
" transform="scale(0.015625)"/>
       <path id="DejaVuSans-6d" d="M 3328 2828 
Q 3544 3216 3844 3400 
Q 4144 3584 4550 3584 
Q 5097 3584 5394 3201 
Q 5691 2819 5691 2113 
L 5691 0 
L 5113 0 
L 5113 2094 
Q 5113 2597 4934 2840 
Q 4756 3084 4391 3084 
Q 3944 3084 3684 2787 
Q 3425 2491 3425 1978 
L 3425 0 
L 2847 0 
L 2847 2094 
Q 2847 2600 2669 2842 
Q 2491 3084 2119 3084 
Q 1678 3084 1418 2786 
Q 1159 2488 1159 1978 
L 1159 0 
L 581 0 
L 581 3500 
L 1159 3500 
L 1159 2956 
Q 1356 3278 1631 3431 
Q 1906 3584 2284 3584 
Q 2666 3584 2933 3390 
Q 3200 3197 3328 2828 
z
" transform="scale(0.015625)"/>
       <path id="DejaVuSans-62" d="M 3116 1747 
Q 3116 2381 2855 2742 
Q 2594 3103 2138 3103 
Q 1681 3103 1420 2742 
Q 1159 2381 1159 1747 
Q 1159 1113 1420 752 
Q 1681 391 2138 391 
Q 2594 391 2855 752 
Q 3116 1113 3116 1747 
z
M 1159 2969 
Q 1341 3281 1617 3432 
Q 1894 3584 2278 3584 
Q 2916 3584 3314 3078 
Q 3713 2572 3713 1747 
Q 3713 922 3314 415 
Q 2916 -91 2278 -91 
Q 1894 -91 1617 61 
Q 1341 213 1159 525 
L 1159 0 
L 581 0 
L 581 4863 
L 1159 4863 
L 1159 2969 
z
" transform="scale(0.015625)"/>
       <path id="DejaVuSans-72" d="M 2631 2963 
Q 2534 3019 2420 3045 
Q 2306 3072 2169 3072 
Q 1681 3072 1420 2755 
Q 1159 2438 1159 1844 
L 1159 0 
L 581 0 
L 581 3500 
L 1159 3500 
L 1159 2956 
Q 1341 3275 1631 3429 
Q 1922 3584 2338 3584 
Q 2397 3584 2469 3576 
Q 2541 3569 2628 3553 
L 2631 2963 
z
" transform="scale(0.015625)"/>
      </defs>
      <use xlink:href="#DejaVuSans-57"/>
      <use xlink:href="#DejaVuSans-65" x="93.001953"/>
      <use xlink:href="#DejaVuSans-65" x="154.525391"/>
      <use xlink:href="#DejaVuSans-6b" x="216.048828"/>
      <use xlink:href="#DejaVuSans-20" x="273.958984"/>
      <use xlink:href="#DejaVuSans-6e" x="305.746094"/>
      <use xlink:href="#DejaVuSans-75" x="369.125"/>
      <use xlink:href="#DejaVuSans-6d" x="432.503906"/>
      <use xlink:href="#DejaVuSans-62" x="529.916016"/>
      <use xlink:href="#DejaVuSans-65" x="593.392578"/>
      <use xlink:href="#DejaVuSans-72" x="654.916016"/>
     </g>
    </g>
   </g>
   <g id="matplotlib.axis_2">
    <g id="ytick_1">
     <g id="line2d_4">
      <defs>
       <path id="mc4e5f05b23" d="M 0 0 
L -3.5 0 
" style="stroke: #000000; stroke-width: 0.8"/>
      </defs>
      <g>
       <use xlink:href="#mc4e5f05b23" x="110.05625" y="306.812625" style="stroke: #000000; stroke-width: 0.8"/>
      </g>
     </g>
     <g id="text_5">
      <!-- 0.00000 -->
      <g transform="translate(28.620625 313.651219) scale(0.18 -0.18)">
       <defs>
        <path id="DejaVuSans-2e" d="M 684 794 
L 1344 794 
L 1344 0 
L 684 0 
L 684 794 
z
" transform="scale(0.015625)"/>
       </defs>
       <use xlink:href="#DejaVuSans-30"/>
       <use xlink:href="#DejaVuSans-2e" x="63.623047"/>
       <use xlink:href="#DejaVuSans-30" x="95.410156"/>
       <use xlink:href="#DejaVuSans-30" x="159.033203"/>
       <use xlink:href="#DejaVuSans-30" x="222.65625"/>
       <use xlink:href="#DejaVuSans-30" x="286.279297"/>
       <use xlink:href="#DejaVuSans-30" x="349.902344"/>
      </g>
     </g>
    </g>
    <g id="ytick_2">
     <g id="line2d_5">
      <g>
       <use xlink:href="#mc4e5f05b23" x="110.05625" y="260.612625" style="stroke: #000000; stroke-width: 0.8"/>
      </g>
     </g>
     <g id="text_6">
      <!-- 0.00025 -->
      <g transform="translate(28.620625 267.451219) scale(0.18 -0.18)">
       <defs>
        <path id="DejaVuSans-35" d="M 691 4666 
L 3169 4666 
L 3169 4134 
L 1269 4134 
L 1269 2991 
Q 1406 3038 1543 3061 
Q 1681 3084 1819 3084 
Q 2600 3084 3056 2656 
Q 3513 2228 3513 1497 
Q 3513 744 3044 326 
Q 2575 -91 1722 -91 
Q 1428 -91 1123 -41 
Q 819 9 494 109 
L 494 744 
Q 775 591 1075 516 
Q 1375 441 1709 441 
Q 2250 441 2565 725 
Q 2881 1009 2881 1497 
Q 2881 1984 2565 2268 
Q 2250 2553 1709 2553 
Q 1456 2553 1204 2497 
Q 953 2441 691 2322 
L 691 4666 
z
" transform="scale(0.015625)"/>
       </defs>
       <use xlink:href="#DejaVuSans-30"/>
       <use xlink:href="#DejaVuSans-2e" x="63.623047"/>
       <use xlink:href="#DejaVuSans-30" x="95.410156"/>
       <use xlink:href="#DejaVuSans-30" x="159.033203"/>
       <use xlink:href="#DejaVuSans-30" x="222.65625"/>
       <use xlink:href="#DejaVuSans-32" x="286.279297"/>
       <use xlink:href="#DejaVuSans-35" x="349.902344"/>
      </g>
     </g>
    </g>
    <g id="ytick_3">
     <g id="line2d_6">
      <g>
       <use xlink:href="#mc4e5f05b23" x="110.05625" y="214.412625" style="stroke: #000000; stroke-width: 0.8"/>
      </g>
     </g>
     <g id="text_7">
      <!-- 0.00050 -->
      <g transform="translate(28.620625 221.251219) scale(0.18 -0.18)">
       <use xlink:href="#DejaVuSans-30"/>
       <use xlink:href="#DejaVuSans-2e" x="63.623047"/>
       <use xlink:href="#DejaVuSans-30" x="95.410156"/>
       <use xlink:href="#DejaVuSans-30" x="159.033203"/>
       <use xlink:href="#DejaVuSans-30" x="222.65625"/>
       <use xlink:href="#DejaVuSans-35" x="286.279297"/>
       <use xlink:href="#DejaVuSans-30" x="349.902344"/>
      </g>
     </g>
    </g>
    <g id="ytick_4">
     <g id="line2d_7">
      <g>
       <use xlink:href="#mc4e5f05b23" x="110.05625" y="168.212625" style="stroke: #000000; stroke-width: 0.8"/>
      </g>
     </g>
     <g id="text_8">
      <!-- 0.00075 -->
      <g transform="translate(28.620625 175.051219) scale(0.18 -0.18)">
       <defs>
        <path id="DejaVuSans-37" d="M 525 4666 
L 3525 4666 
L 3525 4397 
L 1831 0 
L 1172 0 
L 2766 4134 
L 525 4134 
L 525 4666 
z
" transform="scale(0.015625)"/>
       </defs>
       <use xlink:href="#DejaVuSans-30"/>
       <use xlink:href="#DejaVuSans-2e" x="63.623047"/>
       <use xlink:href="#DejaVuSans-30" x="95.410156"/>
       <use xlink:href="#DejaVuSans-30" x="159.033203"/>
       <use xlink:href="#DejaVuSans-30" x="222.65625"/>
       <use xlink:href="#DejaVuSans-37" x="286.279297"/>
       <use xlink:href="#DejaVuSans-35" x="349.902344"/>
      </g>
     </g>
    </g>
    <g id="ytick_5">
     <g id="line2d_8">
      <g>
       <use xlink:href="#mc4e5f05b23" x="110.05625" y="122.012625" style="stroke: #000000; stroke-width: 0.8"/>
      </g>
     </g>
     <g id="text_9">
      <!-- 0.00100 -->
      <g transform="translate(28.620625 128.851219) scale(0.18 -0.18)">
       <defs>
        <path id="DejaVuSans-31" d="M 794 531 
L 1825 531 
L 1825 4091 
L 703 3866 
L 703 4441 
L 1819 4666 
L 2450 4666 
L 2450 531 
L 3481 531 
L 3481 0 
L 794 0 
L 794 531 
z
" transform="scale(0.015625)"/>
       </defs>
       <use xlink:href="#DejaVuSans-30"/>
       <use xlink:href="#DejaVuSans-2e" x="63.623047"/>
       <use xlink:href="#DejaVuSans-30" x="95.410156"/>
       <use xlink:href="#DejaVuSans-30" x="159.033203"/>
       <use xlink:href="#DejaVuSans-31" x="222.65625"/>
       <use xlink:href="#DejaVuSans-30" x="286.279297"/>
       <use xlink:href="#DejaVuSans-30" x="349.902344"/>
      </g>
     </g>
    </g>
    <g id="ytick_6">
     <g id="line2d_9">
      <g>
       <use xlink:href="#mc4e5f05b23" x="110.05625" y="75.812625" style="stroke: #000000; stroke-width: 0.8"/>
      </g>
     </g>
     <g id="text_10">
      <!-- 0.00125 -->
      <g transform="translate(28.620625 82.651219) scale(0.18 -0.18)">
       <use xlink:href="#DejaVuSans-30"/>
       <use xlink:href="#DejaVuSans-2e" x="63.623047"/>
       <use xlink:href="#DejaVuSans-30" x="95.410156"/>
       <use xlink:href="#DejaVuSans-30" x="159.033203"/>
       <use xlink:href="#DejaVuSans-31" x="222.65625"/>
       <use xlink:href="#DejaVuSans-32" x="286.279297"/>
       <use xlink:href="#DejaVuSans-35" x="349.902344"/>
      </g>
     </g>
    </g>
    <g id="ytick_7">
     <g id="line2d_10">
      <g>
       <use xlink:href="#mc4e5f05b23" x="110.05625" y="29.612625" style="stroke: #000000; stroke-width: 0.8"/>
      </g>
     </g>
     <g id="text_11">
      <!-- 0.00150 -->
      <g transform="translate(28.620625 36.451219) scale(0.18 -0.18)">
       <use xlink:href="#DejaVuSans-30"/>
       <use xlink:href="#DejaVuSans-2e" x="63.623047"/>
       <use xlink:href="#DejaVuSans-30" x="95.410156"/>
       <use xlink:href="#DejaVuSans-30" x="159.033203"/>
       <use xlink:href="#DejaVuSans-31" x="222.65625"/>
       <use xlink:href="#DejaVuSans-35" x="286.279297"/>
       <use xlink:href="#DejaVuSans-30" x="349.902344"/>
      </g>
     </g>
    </g>
    <g id="text_12">
     <!-- Variance -->
     <g style="fill: #ff0000" transform="translate(20.877188 207.092625) rotate(-90) scale(0.18 -0.18)">
      <defs>
       <path id="DejaVuSans-56" d="M 1831 0 
L 50 4666 
L 709 4666 
L 2188 738 
L 3669 4666 
L 4325 4666 
L 2547 0 
L 1831 0 
z
" transform="scale(0.015625)"/>
       <path id="DejaVuSans-61" d="M 2194 1759 
Q 1497 1759 1228 1600 
Q 959 1441 959 1056 
Q 959 750 1161 570 
Q 1363 391 1709 391 
Q 2188 391 2477 730 
Q 2766 1069 2766 1631 
L 2766 1759 
L 2194 1759 
z
M 3341 1997 
L 3341 0 
L 2766 0 
L 2766 531 
Q 2569 213 2275 61 
Q 1981 -91 1556 -91 
Q 1019 -91 701 211 
Q 384 513 384 1019 
Q 384 1609 779 1909 
Q 1175 2209 1959 2209 
L 2766 2209 
L 2766 2266 
Q 2766 2663 2505 2880 
Q 2244 3097 1772 3097 
Q 1472 3097 1187 3025 
Q 903 2953 641 2809 
L 641 3341 
Q 956 3463 1253 3523 
Q 1550 3584 1831 3584 
Q 2591 3584 2966 3190 
Q 3341 2797 3341 1997 
z
" transform="scale(0.015625)"/>
       <path id="DejaVuSans-69" d="M 603 3500 
L 1178 3500 
L 1178 0 
L 603 0 
L 603 3500 
z
M 603 4863 
L 1178 4863 
L 1178 4134 
L 603 4134 
L 603 4863 
z
" transform="scale(0.015625)"/>
       <path id="DejaVuSans-63" d="M 3122 3366 
L 3122 2828 
Q 2878 2963 2633 3030 
Q 2388 3097 2138 3097 
Q 1578 3097 1268 2742 
Q 959 2388 959 1747 
Q 959 1106 1268 751 
Q 1578 397 2138 397 
Q 2388 397 2633 464 
Q 2878 531 3122 666 
L 3122 134 
Q 2881 22 2623 -34 
Q 2366 -91 2075 -91 
Q 1284 -91 818 406 
Q 353 903 353 1747 
Q 353 2603 823 3093 
Q 1294 3584 2113 3584 
Q 2378 3584 2631 3529 
Q 2884 3475 3122 3366 
z
" transform="scale(0.015625)"/>
      </defs>
      <use xlink:href="#DejaVuSans-56"/>
      <use xlink:href="#DejaVuSans-61" x="60.658203"/>
      <use xlink:href="#DejaVuSans-72" x="121.9375"/>
      <use xlink:href="#DejaVuSans-69" x="163.050781"/>
      <use xlink:href="#DejaVuSans-61" x="190.833984"/>
      <use xlink:href="#DejaVuSans-6e" x="252.113281"/>
      <use xlink:href="#DejaVuSans-63" x="315.492188"/>
      <use xlink:href="#DejaVuSans-65" x="370.472656"/>
     </g>
    </g>
   </g>
   <g id="line2d_11">
    <path d="M 121.24609 183.021485 
L 125.634262 178.929016 
L 130.022434 188.296766 
L 134.410607 179.138458 
L 138.798779 187.876203 
L 143.186951 205.767746 
L 147.575124 186.257882 
L 151.963296 210.943624 
L 156.351469 200.269774 
L 160.739641 190.013726 
L 165.127813 165.413855 
L 169.515986 168.737673 
L 173.904158 206.624431 
L 178.292331 201.603411 
L 182.680503 185.732293 
L 187.068675 181.546077 
L 191.456848 185.703359 
L 195.84502 164.868222 
L 200.233192 180.445932 
L 204.621365 174.154066 
L 209.009537 179.335404 
L 213.39771 191.506889 
L 217.785882 164.487392 
L 222.174054 171.087729 
L 226.562227 183.064918 
L 230.950399 202.005205 
L 235.338571 191.848379 
L 239.726744 195.719053 
L 244.114916 189.776513 
L 248.503089 180.3136 
L 252.891261 198.541036 
L 257.279433 203.365472 
L 261.667606 207.358292 
L 266.055778 196.581812 
L 270.443951 166.790744 
L 274.832123 188.141978 
L 279.220295 206.404617 
L 283.608468 178.735026 
L 287.99664 199.791392 
L 292.384812 192.579158 
L 296.772985 196.901482 
L 301.161157 195.920587 
L 305.54933 167.522598 
L 309.937502 184.330897 
L 314.325674 189.738125 
L 318.713847 204.200846 
L 323.102019 179.657831 
L 327.490191 187.151411 
L 331.878364 197.765933 
L 336.266536 201.717717 
L 340.654709 180.907236 
L 345.042881 181.123394 
" clip-path="url(#pe78d5c4470)" style="fill: none; stroke: #ff0000; stroke-width: 1.5; stroke-linecap: square"/>
   </g>
   <g id="patch_3">
    <path d="M 110.05625 306.812625 
L 110.05625 29.612625 
" style="fill: none; stroke: #000000; stroke-width: 0.8; stroke-linejoin: miter; stroke-linecap: square"/>
   </g>
   <g id="patch_4">
    <path d="M 356.232721 306.812625 
L 356.232721 29.612625 
" style="fill: none; stroke: #000000; stroke-width: 0.8; stroke-linejoin: miter; stroke-linecap: square"/>
   </g>
   <g id="patch_5">
    <path d="M 110.05625 306.812625 
L 356.232721 306.812625 
" style="fill: none; stroke: #000000; stroke-width: 0.8; stroke-linejoin: miter; stroke-linecap: square"/>
   </g>
   <g id="patch_6">
    <path d="M 110.05625 29.612625 
L 356.232721 29.612625 
" style="fill: none; stroke: #000000; stroke-width: 0.8; stroke-linejoin: miter; stroke-linecap: square"/>
   </g>
   <g id="text_13">
    <!-- Naive -->
    <g transform="translate(202.40836 23.612625) scale(0.216 -0.216)">
     <defs>
      <path id="DejaVuSans-4e" d="M 628 4666 
L 1478 4666 
L 3547 763 
L 3547 4666 
L 4159 4666 
L 4159 0 
L 3309 0 
L 1241 3903 
L 1241 0 
L 628 0 
L 628 4666 
z
" transform="scale(0.015625)"/>
      <path id="DejaVuSans-76" d="M 191 3500 
L 800 3500 
L 1894 563 
L 2988 3500 
L 3597 3500 
L 2284 0 
L 1503 0 
L 191 3500 
z
" transform="scale(0.015625)"/>
     </defs>
     <use xlink:href="#DejaVuSans-4e"/>
     <use xlink:href="#DejaVuSans-61" x="74.804688"/>
     <use xlink:href="#DejaVuSans-69" x="136.083984"/>
     <use xlink:href="#DejaVuSans-76" x="163.867188"/>
     <use xlink:href="#DejaVuSans-65" x="223.046875"/>
    </g>
   </g>
  </g>
  <g id="axes_2">
   <g id="patch_7">
    <path d="M 405.468015 306.812625 
L 651.644485 306.812625 
L 651.644485 29.612625 
L 405.468015 29.612625 
z
" style="fill: #ffffff"/>
   </g>
   <g id="PolyCollection_2">
    <defs>
     <path id="m5d6dbc5078" d="M 416.657854 -236.307603 
L 416.657854 -157.199449 
L 421.046027 -173.771469 
L 425.434199 -161.213414 
L 429.822371 -161.916823 
L 434.210544 -149.887406 
L 438.598716 -149.724584 
L 442.986889 -163.342047 
L 447.375061 -148.752729 
L 451.763233 -148.148947 
L 456.151406 -155.57152 
L 460.539578 -176.225433 
L 464.92775 -177.702993 
L 469.315923 -145.616286 
L 473.704095 -137.791168 
L 478.092268 -149.242028 
L 482.48044 -157.884423 
L 486.868612 -161.994151 
L 491.256785 -164.742615 
L 495.644957 -168.554266 
L 500.03313 -171.232515 
L 504.421302 -167.015804 
L 508.809474 -156.558606 
L 513.197647 -164.66391 
L 517.585819 -165.668727 
L 521.973991 -173.334921 
L 526.362164 -151.794078 
L 530.750336 -169.385795 
L 535.138509 -158.896086 
L 539.526681 -165.384396 
L 543.914853 -172.157894 
L 548.303026 -157.380928 
L 552.691198 -148.311982 
L 557.07937 -159.296275 
L 561.467543 -152.55884 
L 565.855715 -170.477356 
L 570.243888 -152.902798 
L 574.63206 -146.829159 
L 579.020232 -162.878131 
L 583.408405 -144.937416 
L 587.796577 -147.451438 
L 592.18475 -152.389475 
L 596.572922 -149.291477 
L 600.961094 -171.540476 
L 605.349267 -163.980545 
L 609.737439 -159.248072 
L 614.125611 -137.287489 
L 618.513784 -170.84531 
L 622.901956 -164.251272 
L 627.290129 -169.431259 
L 631.678301 -156.551987 
L 636.066473 -180.710281 
L 640.454646 -175.079786 
L 640.454646 -286.59155 
L 640.454646 -286.59155 
L 636.066473 -266.516108 
L 631.678301 -248.537395 
L 627.290129 -234.256519 
L 622.901956 -235.039306 
L 618.513784 -240.520498 
L 614.125611 -197.307018 
L 609.737439 -217.669538 
L 605.349267 -238.573288 
L 600.961094 -263.398899 
L 596.572922 -224.80045 
L 592.18475 -263.560283 
L 587.796577 -260.218026 
L 583.408405 -200.372298 
L 579.020232 -228.112287 
L 574.63206 -212.452314 
L 570.243888 -242.669466 
L 565.855715 -263.667778 
L 561.467543 -215.725356 
L 557.07937 -229.066206 
L 552.691198 -225.522175 
L 548.303026 -229.564588 
L 543.914853 -264.591754 
L 539.526681 -240.614181 
L 535.138509 -230.488439 
L 530.750336 -238.047549 
L 526.362164 -232.27611 
L 521.973991 -266.088912 
L 517.585819 -257.740264 
L 513.197647 -277.603879 
L 508.809474 -236.032787 
L 504.421302 -278.974679 
L 500.03313 -274.966992 
L 495.644957 -262.260717 
L 491.256785 -273.148353 
L 486.868612 -253.406841 
L 482.48044 -248.790858 
L 478.092268 -242.095398 
L 473.704095 -242.60812 
L 469.315923 -217.694502 
L 464.92775 -246.976452 
L 460.539578 -270.907991 
L 456.151406 -218.602429 
L 451.763233 -210.477462 
L 447.375061 -205.656045 
L 442.986889 -243.677747 
L 438.598716 -203.20512 
L 434.210544 -240.965782 
L 429.822371 -262.360752 
L 425.434199 -232.287102 
L 421.046027 -256.711647 
L 416.657854 -236.307603 
z
" style="stroke: #ff0000; stroke-opacity: 0.2"/>
    </defs>
    <g clip-path="url(#p8cb90e5143)">
     <use xlink:href="#m5d6dbc5078" x="0" y="359.853875" style="fill: #ff0000; fill-opacity: 0.2; stroke: #ff0000; stroke-opacity: 0.2"/>
    </g>
   </g>
   <g id="matplotlib.axis_3">
    <g id="xtick_4">
     <g id="line2d_12">
      <g>
       <use xlink:href="#m8604aeba0b" x="412.269682" y="306.812625" style="stroke: #000000; stroke-width: 0.8"/>
      </g>
     </g>
     <g id="text_14">
      <!-- 0 -->
      <g transform="translate(406.543432 327.489813) scale(0.18 -0.18)">
       <use xlink:href="#DejaVuSans-30"/>
      </g>
     </g>
    </g>
    <g id="xtick_5">
     <g id="line2d_13">
      <g>
       <use xlink:href="#m8604aeba0b" x="500.03313" y="306.812625" style="stroke: #000000; stroke-width: 0.8"/>
      </g>
     </g>
     <g id="text_15">
      <!-- 20 -->
      <g transform="translate(488.58063 327.489813) scale(0.18 -0.18)">
       <use xlink:href="#DejaVuSans-32"/>
       <use xlink:href="#DejaVuSans-30" x="63.623047"/>
      </g>
     </g>
    </g>
    <g id="xtick_6">
     <g id="line2d_14">
      <g>
       <use xlink:href="#m8604aeba0b" x="587.796577" y="306.812625" style="stroke: #000000; stroke-width: 0.8"/>
      </g>
     </g>
     <g id="text_16">
      <!-- 40 -->
      <g transform="translate(576.344077 327.489813) scale(0.18 -0.18)">
       <use xlink:href="#DejaVuSans-34"/>
       <use xlink:href="#DejaVuSans-30" x="63.623047"/>
      </g>
     </g>
    </g>
    <g id="text_17">
     <!-- Week number -->
     <g transform="translate(465.913438 348.910438) scale(0.18 -0.18)">
      <use xlink:href="#DejaVuSans-57"/>
      <use xlink:href="#DejaVuSans-65" x="93.001953"/>
      <use xlink:href="#DejaVuSans-65" x="154.525391"/>
      <use xlink:href="#DejaVuSans-6b" x="216.048828"/>
      <use xlink:href="#DejaVuSans-20" x="273.958984"/>
      <use xlink:href="#DejaVuSans-6e" x="305.746094"/>
      <use xlink:href="#DejaVuSans-75" x="369.125"/>
      <use xlink:href="#DejaVuSans-6d" x="432.503906"/>
      <use xlink:href="#DejaVuSans-62" x="529.916016"/>
      <use xlink:href="#DejaVuSans-65" x="593.392578"/>
      <use xlink:href="#DejaVuSans-72" x="654.916016"/>
     </g>
    </g>
   </g>
   <g id="matplotlib.axis_4">
    <g id="ytick_8">
     <g id="line2d_15">
      <g>
       <use xlink:href="#mc4e5f05b23" x="405.468015" y="306.812625" style="stroke: #000000; stroke-width: 0.8"/>
      </g>
     </g>
    </g>
    <g id="ytick_9">
     <g id="line2d_16">
      <g>
       <use xlink:href="#mc4e5f05b23" x="405.468015" y="260.612625" style="stroke: #000000; stroke-width: 0.8"/>
      </g>
     </g>
    </g>
    <g id="ytick_10">
     <g id="line2d_17">
      <g>
       <use xlink:href="#mc4e5f05b23" x="405.468015" y="214.412625" style="stroke: #000000; stroke-width: 0.8"/>
      </g>
     </g>
    </g>
    <g id="ytick_11">
     <g id="line2d_18">
      <g>
       <use xlink:href="#mc4e5f05b23" x="405.468015" y="168.212625" style="stroke: #000000; stroke-width: 0.8"/>
      </g>
     </g>
    </g>
    <g id="ytick_12">
     <g id="line2d_19">
      <g>
       <use xlink:href="#mc4e5f05b23" x="405.468015" y="122.012625" style="stroke: #000000; stroke-width: 0.8"/>
      </g>
     </g>
    </g>
    <g id="ytick_13">
     <g id="line2d_20">
      <g>
       <use xlink:href="#mc4e5f05b23" x="405.468015" y="75.812625" style="stroke: #000000; stroke-width: 0.8"/>
      </g>
     </g>
    </g>
    <g id="ytick_14">
     <g id="line2d_21">
      <g>
       <use xlink:href="#mc4e5f05b23" x="405.468015" y="29.612625" style="stroke: #000000; stroke-width: 0.8"/>
      </g>
     </g>
    </g>
   </g>
   <g id="line2d_22">
    <path d="M 416.657854 165.134458 
L 421.046027 146.55224 
L 425.434199 164.858841 
L 429.822371 150.000395 
L 434.210544 165.796316 
L 438.598716 183.817049 
L 442.986889 158.765134 
L 447.375061 183.457421 
L 451.763233 179.322028 
L 456.151406 173.730312 
L 460.539578 135.845309 
L 464.92775 148.504197 
L 469.315923 179.564807 
L 473.704095 175.618192 
L 478.092268 167.074222 
L 482.48044 160.527339 
L 486.868612 153.767575 
L 491.256785 143.939018 
L 495.644957 147.965176 
L 500.03313 138.246961 
L 504.421302 140.732665 
L 508.809474 165.720093 
L 513.197647 142.229924 
L 517.585819 151.463162 
L 521.973991 142.23912 
L 526.362164 169.296813 
L 530.750336 157.936802 
L 535.138509 166.975401 
L 539.526681 157.771295 
L 543.914853 145.322652 
L 548.303026 169.253734 
L 552.691198 176.435113 
L 557.07937 168.290729 
L 561.467543 175.669225 
L 565.855715 143.457558 
L 570.243888 166.653599 
L 574.63206 183.14308 
L 579.020232 166.366322 
L 583.408405 188.225052 
L 587.796577 161.902639 
L 592.18475 159.048993 
L 596.572922 174.749298 
L 600.961094 144.699038 
L 605.349267 159.48234 
L 609.737439 173.280556 
L 614.125611 193.913242 
L 618.513784 155.415056 
L 622.901956 160.110837 
L 627.290129 157.656953 
L 631.678301 162.546021 
L 636.066473 137.788288 
L 640.454646 131.647882 
" clip-path="url(#p8cb90e5143)" style="fill: none; stroke: #ff0000; stroke-width: 1.5; stroke-linecap: square"/>
   </g>
   <g id="patch_8">
    <path d="M 405.468015 306.812625 
L 405.468015 29.612625 
" style="fill: none; stroke: #000000; stroke-width: 0.8; stroke-linejoin: miter; stroke-linecap: square"/>
   </g>
   <g id="patch_9">
    <path d="M 651.644485 306.812625 
L 651.644485 29.612625 
" style="fill: none; stroke: #000000; stroke-width: 0.8; stroke-linejoin: miter; stroke-linecap: square"/>
   </g>
   <g id="patch_10">
    <path d="M 405.468015 306.812625 
L 651.644485 306.812625 
" style="fill: none; stroke: #000000; stroke-width: 0.8; stroke-linejoin: miter; stroke-linecap: square"/>
   </g>
   <g id="patch_11">
    <path d="M 405.468015 29.612625 
L 651.644485 29.612625 
" style="fill: none; stroke: #000000; stroke-width: 0.8; stroke-linejoin: miter; stroke-linecap: square"/>
   </g>
   <g id="text_18">
    <!-- KDE -->
    <g transform="translate(506.333563 23.612625) scale(0.216 -0.216)">
     <defs>
      <path id="DejaVuSans-4b" d="M 628 4666 
L 1259 4666 
L 1259 2694 
L 3353 4666 
L 4166 4666 
L 1850 2491 
L 4331 0 
L 3500 0 
L 1259 2247 
L 1259 0 
L 628 0 
L 628 4666 
z
" transform="scale(0.015625)"/>
      <path id="DejaVuSans-44" d="M 1259 4147 
L 1259 519 
L 2022 519 
Q 2988 519 3436 956 
Q 3884 1394 3884 2338 
Q 3884 3275 3436 3711 
Q 2988 4147 2022 4147 
L 1259 4147 
z
M 628 4666 
L 1925 4666 
Q 3281 4666 3915 4102 
Q 4550 3538 4550 2338 
Q 4550 1131 3912 565 
Q 3275 0 1925 0 
L 628 0 
L 628 4666 
z
" transform="scale(0.015625)"/>
      <path id="DejaVuSans-45" d="M 628 4666 
L 3578 4666 
L 3578 4134 
L 1259 4134 
L 1259 2753 
L 3481 2753 
L 3481 2222 
L 1259 2222 
L 1259 531 
L 3634 531 
L 3634 0 
L 628 0 
L 628 4666 
z
" transform="scale(0.015625)"/>
     </defs>
     <use xlink:href="#DejaVuSans-4b"/>
     <use xlink:href="#DejaVuSans-44" x="65.576172"/>
     <use xlink:href="#DejaVuSans-45" x="142.578125"/>
    </g>
   </g>
  </g>
  <g id="axes_3">
   <g id="patch_12">
    <path d="M 700.879779 306.812625 
L 947.05625 306.812625 
L 947.05625 29.612625 
L 700.879779 29.612625 
z
" style="fill: #ffffff"/>
   </g>
   <g id="PolyCollection_3">
    <defs>
     <path id="m9a2d51b53a" d="M 712.069619 -369.66065 
L 712.069619 -173.6167 
L 716.457791 -168.82411 
L 720.845964 -162.465263 
L 725.234136 -163.513203 
L 729.622309 -155.352465 
L 734.010481 -148.05418 
L 738.398653 -158.378791 
L 742.786826 -136.710975 
L 747.174998 -145.383455 
L 751.56317 -158.617436 
L 755.951343 -172.038353 
L 760.339515 -175.16867 
L 764.727688 -142.13954 
L 769.11586 -142.255237 
L 773.504032 -159.840161 
L 777.892205 -155.064978 
L 782.280377 -155.401659 
L 786.668549 -170.376476 
L 791.056722 -169.625634 
L 795.444894 -164.246177 
L 799.833067 -155.709059 
L 804.221239 -154.379834 
L 808.609411 -172.411859 
L 812.997584 -154.123642 
L 817.385756 -163.714624 
L 821.773929 -145.618275 
L 826.162101 -157.022114 
L 830.550273 -155.522217 
L 834.938446 -146.55003 
L 839.326618 -159.656869 
L 843.71479 -152.929588 
L 848.102963 -153.743506 
L 852.491135 -147.286538 
L 856.879308 -161.128545 
L 861.26748 -173.096814 
L 865.655652 -145.502175 
L 870.043825 -144.636107 
L 874.431997 -176.032637 
L 878.820169 -139.649321 
L 883.208342 -150.459044 
L 887.596514 -144.521084 
L 891.984687 -155.761626 
L 896.372859 -161.531607 
L 900.761031 -169.587225 
L 905.149204 -159.401541 
L 909.537376 -151.016031 
L 913.925549 -162.738082 
L 918.313721 -160.090066 
L 922.701893 -151.652284 
L 927.090066 -150.487028 
L 931.478238 -180.435361 
L 935.86641 -154.389962 
L 935.86641 -284.074278 
L 935.86641 -284.074278 
L 931.478238 -309.442153 
L 927.090066 -236.017269 
L 922.701893 -212.308323 
L 918.313721 -255.541212 
L 913.925549 -243.019578 
L 909.537376 -248.66965 
L 905.149204 -282.685118 
L 900.761031 -284.081591 
L 896.372859 -283.250301 
L 891.984687 -309.046357 
L 887.596514 -253.700286 
L 883.208342 -273.806855 
L 878.820169 -265.623128 
L 874.431997 -327.770554 
L 870.043825 -243.702924 
L 865.655652 -249.018952 
L 861.26748 -309.995133 
L 856.879308 -254.174129 
L 852.491135 -249.405407 
L 848.102963 -249.165355 
L 843.71479 -317.93796 
L 839.326618 -255.931468 
L 834.938446 -313.737052 
L 830.550273 -235.631881 
L 826.162101 -229.49389 
L 821.773929 -261.166176 
L 817.385756 -273.251233 
L 812.997584 -327.669539 
L 808.609411 -299.009301 
L 804.221239 -240.205039 
L 799.833067 -256.130017 
L 795.444894 -290.062818 
L 791.056722 -349.926613 
L 786.668549 -310.580582 
L 782.280377 -273.734583 
L 777.892205 -245.519698 
L 773.504032 -297.99915 
L 769.11586 -356.57296 
L 764.727688 -247.480629 
L 760.339515 -260.206673 
L 755.951343 -301.265039 
L 751.56317 -267.079049 
L 747.174998 -262.046456 
L 742.786826 -198.802768 
L 738.398653 -275.301569 
L 734.010481 -257.463668 
L 729.622309 -304.359239 
L 725.234136 -328.365403 
L 720.845964 -267.943134 
L 716.457791 -286.924855 
L 712.069619 -369.66065 
z
" style="stroke: #ff0000; stroke-opacity: 0.2"/>
    </defs>
    <g clip-path="url(#p5eacc4a1aa)">
     <use xlink:href="#m9a2d51b53a" x="0" y="359.853875" style="fill: #ff0000; fill-opacity: 0.2; stroke: #ff0000; stroke-opacity: 0.2"/>
    </g>
   </g>
   <g id="matplotlib.axis_5">
    <g id="xtick_7">
     <g id="line2d_23">
      <g>
       <use xlink:href="#m8604aeba0b" x="707.681447" y="306.812625" style="stroke: #000000; stroke-width: 0.8"/>
      </g>
     </g>
     <g id="text_19">
      <!-- 0 -->
      <g transform="translate(701.955197 327.489813) scale(0.18 -0.18)">
       <use xlink:href="#DejaVuSans-30"/>
      </g>
     </g>
    </g>
    <g id="xtick_8">
     <g id="line2d_24">
      <g>
       <use xlink:href="#m8604aeba0b" x="795.444894" y="306.812625" style="stroke: #000000; stroke-width: 0.8"/>
      </g>
     </g>
     <g id="text_20">
      <!-- 20 -->
      <g transform="translate(783.992394 327.489813) scale(0.18 -0.18)">
       <use xlink:href="#DejaVuSans-32"/>
       <use xlink:href="#DejaVuSans-30" x="63.623047"/>
      </g>
     </g>
    </g>
    <g id="xtick_9">
     <g id="line2d_25">
      <g>
       <use xlink:href="#m8604aeba0b" x="883.208342" y="306.812625" style="stroke: #000000; stroke-width: 0.8"/>
      </g>
     </g>
     <g id="text_21">
      <!-- 40 -->
      <g transform="translate(871.755842 327.489813) scale(0.18 -0.18)">
       <use xlink:href="#DejaVuSans-34"/>
       <use xlink:href="#DejaVuSans-30" x="63.623047"/>
      </g>
     </g>
    </g>
    <g id="text_22">
     <!-- Week number -->
     <g transform="translate(761.325202 348.910438) scale(0.18 -0.18)">
      <use xlink:href="#DejaVuSans-57"/>
      <use xlink:href="#DejaVuSans-65" x="93.001953"/>
      <use xlink:href="#DejaVuSans-65" x="154.525391"/>
      <use xlink:href="#DejaVuSans-6b" x="216.048828"/>
      <use xlink:href="#DejaVuSans-20" x="273.958984"/>
      <use xlink:href="#DejaVuSans-6e" x="305.746094"/>
      <use xlink:href="#DejaVuSans-75" x="369.125"/>
      <use xlink:href="#DejaVuSans-6d" x="432.503906"/>
      <use xlink:href="#DejaVuSans-62" x="529.916016"/>
      <use xlink:href="#DejaVuSans-65" x="593.392578"/>
      <use xlink:href="#DejaVuSans-72" x="654.916016"/>
     </g>
    </g>
   </g>
   <g id="matplotlib.axis_6">
    <g id="ytick_15">
     <g id="line2d_26">
      <g>
       <use xlink:href="#mc4e5f05b23" x="700.879779" y="306.812625" style="stroke: #000000; stroke-width: 0.8"/>
      </g>
     </g>
    </g>
    <g id="ytick_16">
     <g id="line2d_27">
      <g>
       <use xlink:href="#mc4e5f05b23" x="700.879779" y="260.612625" style="stroke: #000000; stroke-width: 0.8"/>
      </g>
     </g>
    </g>
    <g id="ytick_17">
     <g id="line2d_28">
      <g>
       <use xlink:href="#mc4e5f05b23" x="700.879779" y="214.412625" style="stroke: #000000; stroke-width: 0.8"/>
      </g>
     </g>
    </g>
    <g id="ytick_18">
     <g id="line2d_29">
      <g>
       <use xlink:href="#mc4e5f05b23" x="700.879779" y="168.212625" style="stroke: #000000; stroke-width: 0.8"/>
      </g>
     </g>
    </g>
    <g id="ytick_19">
     <g id="line2d_30">
      <g>
       <use xlink:href="#mc4e5f05b23" x="700.879779" y="122.012625" style="stroke: #000000; stroke-width: 0.8"/>
      </g>
     </g>
    </g>
    <g id="ytick_20">
     <g id="line2d_31">
      <g>
       <use xlink:href="#mc4e5f05b23" x="700.879779" y="75.812625" style="stroke: #000000; stroke-width: 0.8"/>
      </g>
     </g>
    </g>
    <g id="ytick_21">
     <g id="line2d_32">
      <g>
       <use xlink:href="#mc4e5f05b23" x="700.879779" y="29.612625" style="stroke: #000000; stroke-width: 0.8"/>
      </g>
     </g>
    </g>
   </g>
   <g id="line2d_33">
    <path d="M 712.069619 106.625103 
L 716.457791 138.420299 
L 720.845964 149.767567 
L 725.234136 132.098839 
L 729.622309 142.699183 
L 734.010481 167.05969 
L 738.398653 147.250829 
L 742.786826 194.511016 
L 747.174998 163.806142 
L 751.56317 154.307863 
L 755.951343 133.005596 
L 760.339515 145.436149 
L 764.727688 175.757962 
L 769.11586 135.015108 
L 773.504032 139.663917 
L 777.892205 163.429453 
L 782.280377 147.275343 
L 786.668549 129.113546 
L 791.056722 122.139766 
L 795.444894 140.626525 
L 799.833067 159.497333 
L 804.221239 166.921709 
L 808.609411 130.489729 
L 812.997584 136.010943 
L 817.385756 145.116614 
L 821.773929 165.459705 
L 826.162101 165.974407 
L 830.550273 167.66614 
L 834.938446 142.183591 
L 839.326618 159.082376 
L 843.71479 140.188286 
L 848.102963 162.994358 
L 852.491135 170.500596 
L 856.879308 154.32582 
L 861.26748 127.393416 
L 865.655652 168.701018 
L 870.043825 171.419003 
L 874.431997 123.629759 
L 878.820169 164.332903 
L 883.208342 154.603166 
L 887.596514 169.42531 
L 891.984687 143.044282 
L 896.372859 148.762428 
L 900.761031 141.588541 
L 905.149204 152.21258 
L 909.537376 167.672691 
L 913.925549 159.021144 
L 918.313721 154.694206 
L 922.701893 180.013714 
L 927.090066 168.028379 
L 931.478238 123.363801 
L 935.86641 148.937563 
" clip-path="url(#p5eacc4a1aa)" style="fill: none; stroke: #ff0000; stroke-width: 1.5; stroke-linecap: square"/>
   </g>
   <g id="patch_13">
    <path d="M 700.879779 306.812625 
L 700.879779 29.612625 
" style="fill: none; stroke: #000000; stroke-width: 0.8; stroke-linejoin: miter; stroke-linecap: square"/>
   </g>
   <g id="patch_14">
    <path d="M 947.05625 306.812625 
L 947.05625 29.612625 
" style="fill: none; stroke: #000000; stroke-width: 0.8; stroke-linejoin: miter; stroke-linecap: square"/>
   </g>
   <g id="patch_15">
    <path d="M 700.879779 306.812625 
L 947.05625 306.812625 
" style="fill: none; stroke: #000000; stroke-width: 0.8; stroke-linejoin: miter; stroke-linecap: square"/>
   </g>
   <g id="patch_16">
    <path d="M 700.879779 29.612625 
L 947.05625 29.612625 
" style="fill: none; stroke: #000000; stroke-width: 0.8; stroke-linejoin: miter; stroke-linecap: square"/>
   </g>
   <g id="text_23">
    <!-- SEPP -->
    <g transform="translate(797.263327 23.612625) scale(0.216 -0.216)">
     <defs>
      <path id="DejaVuSans-53" d="M 3425 4513 
L 3425 3897 
Q 3066 4069 2747 4153 
Q 2428 4238 2131 4238 
Q 1616 4238 1336 4038 
Q 1056 3838 1056 3469 
Q 1056 3159 1242 3001 
Q 1428 2844 1947 2747 
L 2328 2669 
Q 3034 2534 3370 2195 
Q 3706 1856 3706 1288 
Q 3706 609 3251 259 
Q 2797 -91 1919 -91 
Q 1588 -91 1214 -16 
Q 841 59 441 206 
L 441 856 
Q 825 641 1194 531 
Q 1563 422 1919 422 
Q 2459 422 2753 634 
Q 3047 847 3047 1241 
Q 3047 1584 2836 1778 
Q 2625 1972 2144 2069 
L 1759 2144 
Q 1053 2284 737 2584 
Q 422 2884 422 3419 
Q 422 4038 858 4394 
Q 1294 4750 2059 4750 
Q 2388 4750 2728 4690 
Q 3069 4631 3425 4513 
z
" transform="scale(0.015625)"/>
      <path id="DejaVuSans-50" d="M 1259 4147 
L 1259 2394 
L 2053 2394 
Q 2494 2394 2734 2622 
Q 2975 2850 2975 3272 
Q 2975 3691 2734 3919 
Q 2494 4147 2053 4147 
L 1259 4147 
z
M 628 4666 
L 2053 4666 
Q 2838 4666 3239 4311 
Q 3641 3956 3641 3272 
Q 3641 2581 3239 2228 
Q 2838 1875 2053 1875 
L 1259 1875 
L 1259 0 
L 628 0 
L 628 4666 
z
" transform="scale(0.015625)"/>
     </defs>
     <use xlink:href="#DejaVuSans-53"/>
     <use xlink:href="#DejaVuSans-45" x="63.476562"/>
     <use xlink:href="#DejaVuSans-50" x="126.660156"/>
     <use xlink:href="#DejaVuSans-50" x="186.962891"/>
    </g>
   </g>
  </g>
  <g id="axes_4">
   <g id="PolyCollection_4">
    <defs>
     <path id="ma4be4af379" d="M 121.24609 -172.91717 
L 121.24609 -16.86765 
L 125.634262 -8.597933 
L 130.022434 -15.626945 
L 134.410607 -31.867377 
L 138.798779 1.613445 
L 143.186951 0.633799 
L 147.575124 -12.548957 
L 151.963296 -19.084096 
L 156.351469 -15.789111 
L 160.739641 17.8159 
L 165.127813 -42.897598 
L 169.515986 -21.029853 
L 173.904158 -2.440192 
L 178.292331 21.744536 
L 182.680503 -1.597986 
L 187.068675 -17.571101 
L 191.456848 1.314626 
L 195.84502 -11.071552 
L 200.233192 -4.222888 
L 204.621365 6.172908 
L 209.009537 22.199749 
L 213.39771 2.958041 
L 217.785882 -6.232567 
L 222.174054 -1.891845 
L 226.562227 25.540825 
L 230.950399 -12.013096 
L 235.338571 -3.100682 
L 239.726744 -30.435768 
L 244.114916 -7.020497 
L 248.503089 -6.452083 
L 252.891261 5.661775 
L 257.279433 10.353597 
L 261.667606 6.794921 
L 266.055778 4.573757 
L 270.443951 -20.644159 
L 274.832123 -12.683669 
L 279.220295 -28.704207 
L 283.608468 -14.894384 
L 287.99664 16.92605 
L 292.384812 -6.821925 
L 296.772985 5.876687 
L 301.161157 -26.85231 
L 305.54933 -22.619957 
L 309.937502 9.958689 
L 314.325674 6.542112 
L 318.713847 -4.924567 
L 323.102019 -27.931617 
L 327.490191 -28.994844 
L 331.878364 -7.120691 
L 336.266536 -2.980134 
L 340.654709 -23.681403 
L 345.042881 2.123458 
L 345.042881 -163.627223 
L 345.042881 -163.627223 
L 340.654709 -227.256033 
L 336.266536 -131.49361 
L 331.878364 -176.772452 
L 327.490191 -201.350342 
L 323.102019 -192.120664 
L 318.713847 -143.404331 
L 314.325674 -145.910769 
L 309.937502 -140.503238 
L 305.54933 -158.475693 
L 301.161157 -166.311663 
L 296.772985 -130.128552 
L 292.384812 -138.397772 
L 287.99664 -121.883043 
L 283.608468 -178.131948 
L 279.220295 -189.394527 
L 274.832123 -157.127296 
L 270.443951 -181.474419 
L 266.055778 -139.211362 
L 261.667606 -142.549552 
L 257.279433 -135.820702 
L 252.891261 -148.355799 
L 248.503089 -145.287307 
L 244.114916 -152.107853 
L 239.726744 -199.157537 
L 235.338571 -155.189462 
L 230.950399 -163.847087 
L 226.562227 -135.077893 
L 222.174054 -134.069305 
L 217.785882 -163.985939 
L 213.39771 -155.975863 
L 209.009537 -115.361409 
L 204.621365 -145.994383 
L 200.233192 -152.013842 
L 195.84502 -155.088619 
L 191.456848 -139.166295 
L 187.068675 -176.017928 
L 182.680503 -159.22137 
L 178.292331 -119.662277 
L 173.904158 -147.844304 
L 169.515986 -179.088276 
L 165.127813 -208.805458 
L 160.739641 -126.617613 
L 156.351469 -171.070579 
L 151.963296 -169.586406 
L 147.575124 -179.804887 
L 143.186951 -151.632772 
L 138.798779 -151.71238 
L 134.410607 -190.030567 
L 130.022434 -149.307554 
L 125.634262 -154.114861 
L 121.24609 -172.91717 
z
" style="stroke: #0000ff; stroke-opacity: 0.2"/>
    </defs>
    <g clip-path="url(#pe78d5c4470)">
     <use xlink:href="#ma4be4af379" x="0" y="359.853875" style="fill: #0000ff; fill-opacity: 0.2; stroke: #0000ff; stroke-opacity: 0.2"/>
    </g>
   </g>
   <g id="line2d_34">
    <path d="M 121.24609 263.298567 
L 125.634262 282.989089 
L 130.022434 277.110657 
L 134.410607 246.77577 
L 138.798779 281.296042 
L 143.186951 286.954201 
L 147.575124 260.138913 
L 151.963296 266.569761 
L 156.351469 269.330116 
L 160.739641 309.195224 
L 165.127813 237.73093 
L 169.515986 259.472229 
L 173.904158 285.663958 
L 178.292331 310.654171 
L 182.680503 281.633272 
L 187.068675 264.0449 
L 191.456848 288.823969 
L 195.84502 278.328018 
L 200.233192 286.123253 
L 204.621365 291.983922 
L 209.009537 313.402825 
L 213.39771 282.953991 
L 217.785882 271.414564 
L 222.174054 294.734593 
L 226.562227 305.20995 
L 230.950399 274.183709 
L 235.338571 279.288418 
L 239.726744 241.678543 
L 244.114916 280.863326 
L 248.503089 283.187648 
L 252.891261 293.144705 
L 257.279433 296.012853 
L 261.667606 294.083122 
L 266.055778 291.497892 
L 270.443951 259.478117 
L 274.832123 274.936568 
L 279.220295 249.196967 
L 283.608468 261.443617 
L 287.99664 308.433756 
L 292.384812 285.41471 
L 296.772985 296.794568 
L 301.161157 262.65588 
L 305.54933 269.245689 
L 309.937502 295.265295 
L 314.325674 291.059542 
L 318.713847 287.667873 
L 323.102019 252.381983 
L 327.490191 242.500523 
L 331.878364 270.649194 
L 336.266536 293.377445 
L 340.654709 238.718655 
L 345.042881 281.268213 
" clip-path="url(#pe78d5c4470)" style="fill: none; stroke: #0000ff; stroke-width: 1.5; stroke-linecap: square"/>
   </g>
  </g>
  <g id="axes_5">
   <g id="PolyCollection_5">
    <defs>
     <path id="m11cda3cf4b" d="M 416.657854 -231.085764 
L 416.657854 -57.517726 
L 421.046027 -48.772027 
L 425.434199 -46.399812 
L 429.822371 -99.282113 
L 434.210544 -47.732255 
L 438.598716 -38.447808 
L 442.986889 -54.008873 
L 447.375061 -69.693012 
L 451.763233 -48.292713 
L 456.151406 -15.48666 
L 460.539578 -82.565165 
L 464.92775 -60.591327 
L 469.315923 -61.362027 
L 473.704095 -29.173953 
L 478.092268 -35.17961 
L 482.48044 -100.020885 
L 486.868612 -64.634209 
L 491.256785 -71.827588 
L 495.644957 -47.990878 
L 500.03313 -48.666352 
L 504.421302 -48.957279 
L 508.809474 -63.872028 
L 513.197647 -48.278309 
L 517.585819 -51.571552 
L 521.973991 -32.847368 
L 526.362164 -59.808712 
L 530.750336 -46.929369 
L 535.138509 -61.404853 
L 539.526681 -44.609706 
L 543.914853 -62.101966 
L 548.303026 -62.441353 
L 552.691198 -31.781168 
L 557.07937 -40.927069 
L 561.467543 -44.314642 
L 565.855715 -52.251563 
L 570.243888 -49.794249 
L 574.63206 -90.563598 
L 579.020232 -59.150638 
L 583.408405 -16.149487 
L 587.796577 -46.763679 
L 592.18475 -62.845404 
L 596.572922 -73.514188 
L 600.961094 -63.993148 
L 605.349267 -57.636708 
L 609.737439 -55.144141 
L 614.125611 -64.978538 
L 618.513784 -58.213199 
L 622.901956 -80.556887 
L 627.290129 -54.890064 
L 631.678301 -58.928967 
L 636.066473 -74.0221 
L 640.454646 -50.896932 
L 640.454646 -222.21178 
L 640.454646 -222.21178 
L 636.066473 -266.792059 
L 631.678301 -215.844619 
L 627.290129 -241.933363 
L 622.901956 -267.779525 
L 618.513784 -231.763486 
L 614.125611 -245.283368 
L 609.737439 -230.052508 
L 605.349267 -220.548916 
L 600.961094 -224.675105 
L 596.572922 -237.910726 
L 592.18475 -214.998812 
L 587.796577 -193.021785 
L 583.408405 -176.215415 
L 579.020232 -236.353876 
L 574.63206 -271.633602 
L 570.243888 -206.539692 
L 565.855715 -227.142168 
L 561.467543 -203.965189 
L 557.07937 -199.320097 
L 552.691198 -204.496838 
L 548.303026 -229.44697 
L 543.914853 -227.195419 
L 539.526681 -210.799295 
L 535.138509 -254.869559 
L 530.750336 -206.420301 
L 526.362164 -231.166158 
L 521.973991 -207.524332 
L 517.585819 -201.844694 
L 513.197647 -207.011207 
L 508.809474 -259.071424 
L 504.421302 -215.707918 
L 500.03313 -231.761939 
L 495.644957 -212.16188 
L 491.256785 -249.816476 
L 486.868612 -228.394944 
L 482.48044 -295.561659 
L 478.092268 -189.686784 
L 473.704095 -185.33815 
L 469.315923 -221.867627 
L 464.92775 -241.009176 
L 460.539578 -276.948132 
L 456.151406 -166.500811 
L 451.763233 -249.183413 
L 447.375061 -247.928528 
L 442.986889 -243.867336 
L 438.598716 -207.502125 
L 434.210544 -216.658028 
L 429.822371 -273.358069 
L 425.434199 -194.976937 
L 421.046027 -218.994616 
L 416.657854 -231.085764 
z
" style="stroke: #0000ff; stroke-opacity: 0.2"/>
    </defs>
    <g clip-path="url(#p8cb90e5143)">
     <use xlink:href="#m11cda3cf4b" x="0" y="359.853875" style="fill: #0000ff; fill-opacity: 0.2; stroke: #0000ff; stroke-opacity: 0.2"/>
    </g>
   </g>
   <g id="line2d_35">
    <path d="M 416.657854 213.673919 
L 421.046027 227.653188 
L 425.434199 236.226914 
L 429.822371 173.258121 
L 434.210544 221.736196 
L 438.598716 236.267117 
L 442.986889 207.655739 
L 447.375061 199.723984 
L 451.763233 216.007686 
L 456.151406 264.350561 
L 460.539578 186.250138 
L 464.92775 210.470474 
L 469.315923 224.960308 
L 473.704095 249.791593 
L 478.092268 244.598139 
L 482.48044 161.072284 
L 486.868612 218.711584 
L 491.256785 206.826939 
L 495.644957 230.926925 
L 500.03313 222.871776 
L 504.421302 227.042218 
L 508.809474 204.239843 
L 513.197647 234.844692 
L 517.585819 236.484594 
L 521.973991 241.640033 
L 526.362164 214.831589 
L 530.750336 237.609695 
L 535.138509 202.29811 
L 539.526681 229.178176 
L 543.914853 214.592423 
L 548.303026 210.206538 
L 552.691198 241.556295 
L 557.07937 239.220343 
L 561.467543 235.764094 
L 565.855715 219.403172 
L 570.243888 233.045598 
L 574.63206 180.606318 
L 579.020232 215.345837 
L 583.408405 263.220686 
L 587.796577 239.216661 
L 592.18475 222.466922 
L 596.572922 204.998348 
L 600.961094 213.393547 
L 605.349267 222.649613 
L 609.737439 219.008565 
L 614.125611 210.180259 
L 618.513784 214.519251 
L 622.901956 186.436731 
L 627.290129 214.287468 
L 631.678301 222.011478 
L 636.066473 187.62291 
L 640.454646 218.917747 
" clip-path="url(#p8cb90e5143)" style="fill: none; stroke: #0000ff; stroke-width: 1.5; stroke-linecap: square"/>
   </g>
  </g>
  <g id="axes_6">
   <g id="PolyCollection_6">
    <defs>
     <path id="m231f48aeb0" d="M 712.069619 -219.288192 
L 712.069619 -48.966456 
L 716.457791 -40.248959 
L 720.845964 -40.81552 
L 725.234136 -47.183596 
L 729.622309 -23.714632 
L 734.010481 -26.22185 
L 738.398653 -35.929318 
L 742.786826 -21.769639 
L 747.174998 -23.053068 
L 751.56317 -1.715153 
L 755.951343 -43.940923 
L 760.339515 -60.110411 
L 764.727688 -36.602509 
L 769.11586 -6.430929 
L 773.504032 -21.768901 
L 777.892205 -27.992192 
L 782.280377 -35.44331 
L 786.668549 -37.060462 
L 791.056722 -25.840274 
L 795.444894 -9.548297 
L 799.833067 4.176518 
L 804.221239 -3.466611 
L 808.609411 -39.09534 
L 812.997584 -23.185378 
L 817.385756 -4.062543 
L 821.773929 -35.16003 
L 826.162101 -26.412397 
L 830.550273 -38.425227 
L 834.938446 -40.844908 
L 839.326618 -23.317235 
L 843.71479 -30.383779 
L 848.102963 -16.342358 
L 852.491135 -0.303446 
L 856.879308 -35.135031 
L 861.26748 -59.86248 
L 865.655652 -15.721969 
L 870.043825 -44.882682 
L 874.431997 -47.844874 
L 878.820169 -31.851018 
L 883.208342 -43.931799 
L 887.596514 -34.130667 
L 891.984687 -53.394004 
L 896.372859 -47.579313 
L 900.761031 -34.629465 
L 905.149204 -11.254519 
L 909.537376 -21.934802 
L 913.925549 -34.34381 
L 918.313721 -37.714747 
L 922.701893 -28.56 
L 927.090066 -31.218254 
L 931.478238 -38.84443 
L 935.86641 -24.979449 
L 935.86641 -205.616913 
L 935.86641 -205.616913 
L 931.478238 -242.182215 
L 927.090066 -151.78228 
L 922.701893 -194.856668 
L 918.313721 -233.211675 
L 913.925549 -198.4492 
L 909.537376 -180.407785 
L 905.149204 -168.066034 
L 900.761031 -164.54235 
L 896.372859 -177.523756 
L 891.984687 -194.727275 
L 887.596514 -162.061484 
L 883.208342 -185.678624 
L 878.820169 -170.451699 
L 874.431997 -218.317701 
L 870.043825 -211.460968 
L 865.655652 -180.352125 
L 861.26748 -230.350723 
L 856.879308 -209.719469 
L 852.491135 -126.427789 
L 848.102963 -158.617366 
L 843.71479 -165.106374 
L 839.326618 -192.938497 
L 834.938446 -188.892787 
L 830.550273 -224.772693 
L 826.162101 -174.627285 
L 821.773929 -203.298419 
L 817.385756 -178.380717 
L 812.997584 -166.466226 
L 808.609411 -186.493819 
L 804.221239 -175.998215 
L 799.833067 -149.045793 
L 795.444894 -163.698233 
L 791.056722 -174.173535 
L 786.668549 -188.77796 
L 782.280377 -191.307139 
L 777.892205 -179.045389 
L 773.504032 -171.479983 
L 769.11586 -152.251495 
L 764.727688 -171.301598 
L 760.339515 -210.930264 
L 755.951343 -186.234946 
L 751.56317 -148.874096 
L 747.174998 -180.429346 
L 742.786826 -188.939126 
L 738.398653 -204.120717 
L 734.010481 -184.343103 
L 729.622309 -189.896672 
L 725.234136 -203.693961 
L 720.845964 -178.439904 
L 716.457791 -197.02127 
L 712.069619 -219.288192 
z
" style="stroke: #0000ff; stroke-opacity: 0.2"/>
    </defs>
    <g clip-path="url(#p5eacc4a1aa)">
     <use xlink:href="#m231f48aeb0" x="0" y="359.853875" style="fill: #0000ff; fill-opacity: 0.2; stroke: #0000ff; stroke-opacity: 0.2"/>
    </g>
   </g>
   <g id="matplotlib.axis_7">
    <g id="ytick_22">
     <g id="line2d_36">
      <defs>
       <path id="mde5da42475" d="M 0 0 
L 3.5 0 
" style="stroke: #000000; stroke-width: 0.8"/>
      </defs>
      <g>
       <use xlink:href="#mde5da42475" x="947.05625" y="306.812625" style="stroke: #000000; stroke-width: 0.8"/>
      </g>
     </g>
     <g id="text_24">
      <!-- 0.030 -->
      <g transform="translate(954.05625 313.651219) scale(0.18 -0.18)">
       <defs>
        <path id="DejaVuSans-33" d="M 2597 2516 
Q 3050 2419 3304 2112 
Q 3559 1806 3559 1356 
Q 3559 666 3084 287 
Q 2609 -91 1734 -91 
Q 1441 -91 1130 -33 
Q 819 25 488 141 
L 488 750 
Q 750 597 1062 519 
Q 1375 441 1716 441 
Q 2309 441 2620 675 
Q 2931 909 2931 1356 
Q 2931 1769 2642 2001 
Q 2353 2234 1838 2234 
L 1294 2234 
L 1294 2753 
L 1863 2753 
Q 2328 2753 2575 2939 
Q 2822 3125 2822 3475 
Q 2822 3834 2567 4026 
Q 2313 4219 1838 4219 
Q 1578 4219 1281 4162 
Q 984 4106 628 3988 
L 628 4550 
Q 988 4650 1302 4700 
Q 1616 4750 1894 4750 
Q 2613 4750 3031 4423 
Q 3450 4097 3450 3541 
Q 3450 3153 3228 2886 
Q 3006 2619 2597 2516 
z
" transform="scale(0.015625)"/>
       </defs>
       <use xlink:href="#DejaVuSans-30"/>
       <use xlink:href="#DejaVuSans-2e" x="63.623047"/>
       <use xlink:href="#DejaVuSans-30" x="95.410156"/>
       <use xlink:href="#DejaVuSans-33" x="159.033203"/>
       <use xlink:href="#DejaVuSans-30" x="222.65625"/>
      </g>
     </g>
    </g>
    <g id="ytick_23">
     <g id="line2d_37">
      <g>
       <use xlink:href="#mde5da42475" x="947.05625" y="260.612625" style="stroke: #000000; stroke-width: 0.8"/>
      </g>
     </g>
     <g id="text_25">
      <!-- 0.033 -->
      <g transform="translate(954.05625 267.451219) scale(0.18 -0.18)">
       <use xlink:href="#DejaVuSans-30"/>
       <use xlink:href="#DejaVuSans-2e" x="63.623047"/>
       <use xlink:href="#DejaVuSans-30" x="95.410156"/>
       <use xlink:href="#DejaVuSans-33" x="159.033203"/>
       <use xlink:href="#DejaVuSans-33" x="222.65625"/>
      </g>
     </g>
    </g>
    <g id="ytick_24">
     <g id="line2d_38">
      <g>
       <use xlink:href="#mde5da42475" x="947.05625" y="214.412625" style="stroke: #000000; stroke-width: 0.8"/>
      </g>
     </g>
     <g id="text_26">
      <!-- 0.035 -->
      <g transform="translate(954.05625 221.251219) scale(0.18 -0.18)">
       <use xlink:href="#DejaVuSans-30"/>
       <use xlink:href="#DejaVuSans-2e" x="63.623047"/>
       <use xlink:href="#DejaVuSans-30" x="95.410156"/>
       <use xlink:href="#DejaVuSans-33" x="159.033203"/>
       <use xlink:href="#DejaVuSans-35" x="222.65625"/>
      </g>
     </g>
    </g>
    <g id="ytick_25">
     <g id="line2d_39">
      <g>
       <use xlink:href="#mde5da42475" x="947.05625" y="168.212625" style="stroke: #000000; stroke-width: 0.8"/>
      </g>
     </g>
     <g id="text_27">
      <!-- 0.037 -->
      <g transform="translate(954.05625 175.051219) scale(0.18 -0.18)">
       <use xlink:href="#DejaVuSans-30"/>
       <use xlink:href="#DejaVuSans-2e" x="63.623047"/>
       <use xlink:href="#DejaVuSans-30" x="95.410156"/>
       <use xlink:href="#DejaVuSans-33" x="159.033203"/>
       <use xlink:href="#DejaVuSans-37" x="222.65625"/>
      </g>
     </g>
    </g>
    <g id="ytick_26">
     <g id="line2d_40">
      <g>
       <use xlink:href="#mde5da42475" x="947.05625" y="122.012625" style="stroke: #000000; stroke-width: 0.8"/>
      </g>
     </g>
     <g id="text_28">
      <!-- 0.040 -->
      <g transform="translate(954.05625 128.851219) scale(0.18 -0.18)">
       <use xlink:href="#DejaVuSans-30"/>
       <use xlink:href="#DejaVuSans-2e" x="63.623047"/>
       <use xlink:href="#DejaVuSans-30" x="95.410156"/>
       <use xlink:href="#DejaVuSans-34" x="159.033203"/>
       <use xlink:href="#DejaVuSans-30" x="222.65625"/>
      </g>
     </g>
    </g>
    <g id="ytick_27">
     <g id="line2d_41">
      <g>
       <use xlink:href="#mde5da42475" x="947.05625" y="75.812625" style="stroke: #000000; stroke-width: 0.8"/>
      </g>
     </g>
     <g id="text_29">
      <!-- 0.042 -->
      <g transform="translate(954.05625 82.651219) scale(0.18 -0.18)">
       <use xlink:href="#DejaVuSans-30"/>
       <use xlink:href="#DejaVuSans-2e" x="63.623047"/>
       <use xlink:href="#DejaVuSans-30" x="95.410156"/>
       <use xlink:href="#DejaVuSans-34" x="159.033203"/>
       <use xlink:href="#DejaVuSans-32" x="222.65625"/>
      </g>
     </g>
    </g>
    <g id="ytick_28">
     <g id="line2d_42">
      <g>
       <use xlink:href="#mde5da42475" x="947.05625" y="29.612625" style="stroke: #000000; stroke-width: 0.8"/>
      </g>
     </g>
     <g id="text_30">
      <!-- 0.045 -->
      <g transform="translate(954.05625 36.451219) scale(0.18 -0.18)">
       <use xlink:href="#DejaVuSans-30"/>
       <use xlink:href="#DejaVuSans-2e" x="63.623047"/>
       <use xlink:href="#DejaVuSans-30" x="95.410156"/>
       <use xlink:href="#DejaVuSans-34" x="159.033203"/>
       <use xlink:href="#DejaVuSans-35" x="222.65625"/>
      </g>
     </g>
    </g>
    <g id="text_31">
     <!-- EMD -->
     <g style="fill: #0000ff" transform="translate(1023.264062 188.594813) rotate(-90) scale(0.18 -0.18)">
      <defs>
       <path id="DejaVuSans-4d" d="M 628 4666 
L 1569 4666 
L 2759 1491 
L 3956 4666 
L 4897 4666 
L 4897 0 
L 4281 0 
L 4281 4097 
L 3078 897 
L 2444 897 
L 1241 4097 
L 1241 0 
L 628 0 
L 628 4666 
z
" transform="scale(0.015625)"/>
      </defs>
      <use xlink:href="#DejaVuSans-45"/>
      <use xlink:href="#DejaVuSans-4d" x="63.183594"/>
      <use xlink:href="#DejaVuSans-44" x="149.462891"/>
     </g>
    </g>
   </g>
   <g id="line2d_43">
    <path d="M 712.069619 222.812844 
L 716.457791 241.466806 
L 720.845964 247.783817 
L 725.234136 228.02039 
L 729.622309 257.903073 
L 734.010481 253.583363 
L 738.398653 243.198241 
L 742.786826 256.189169 
L 747.174998 254.958102 
L 751.56317 285.746331 
L 755.951343 248.254069 
L 760.339515 226.603485 
L 764.727688 257.716304 
L 769.11586 280.588707 
L 773.504032 264.781219 
L 777.892205 256.833192 
L 782.280377 248.246657 
L 786.668549 251.940791 
L 791.056722 258.606644 
L 795.444894 270.760762 
L 799.833067 286.517944 
L 804.221239 269.632786 
L 808.609411 247.699286 
L 812.997584 266.148007 
L 817.385756 273.236281 
L 821.773929 241.002033 
L 826.162101 259.995978 
L 830.550273 224.784602 
L 834.938446 244.825302 
L 839.326618 252.659189 
L 843.71479 262.915897 
L 848.102963 273.575534 
L 852.491135 294.871585 
L 856.879308 243.939032 
L 861.26748 220.528783 
L 865.655652 262.645988 
L 870.043825 230.691877 
L 874.431997 226.064533 
L 878.820169 260.518992 
L 883.208342 246.275111 
L 887.596514 264.533195 
L 891.984687 235.268545 
L 896.372859 250.032919 
L 900.761031 259.25134 
L 905.149204 270.659 
L 909.537376 258.683388 
L 913.925549 246.270688 
L 918.313721 228.257868 
L 922.701893 249.018316 
L 927.090066 268.518467 
L 931.478238 220.866607 
L 935.86641 252.111486 
" clip-path="url(#p5eacc4a1aa)" style="fill: none; stroke: #0000ff; stroke-width: 1.5; stroke-linecap: square"/>
   </g>
   <g id="patch_17">
    <path d="M 700.879779 306.812625 
L 700.879779 29.612625 
" style="fill: none; stroke: #000000; stroke-width: 0.8; stroke-linejoin: miter; stroke-linecap: square"/>
   </g>
   <g id="patch_18">
    <path d="M 947.05625 306.812625 
L 947.05625 29.612625 
" style="fill: none; stroke: #000000; stroke-width: 0.8; stroke-linejoin: miter; stroke-linecap: square"/>
   </g>
   <g id="patch_19">
    <path d="M 700.879779 306.812625 
L 947.05625 306.812625 
" style="fill: none; stroke: #000000; stroke-width: 0.8; stroke-linejoin: miter; stroke-linecap: square"/>
   </g>
   <g id="patch_20">
    <path d="M 700.879779 29.612625 
L 947.05625 29.612625 
" style="fill: none; stroke: #000000; stroke-width: 0.8; stroke-linejoin: miter; stroke-linecap: square"/>
   </g>
  </g>
 </g>
 <defs>
  <clipPath id="pe78d5c4470">
   <rect x="110.05625" y="29.612625" width="246.176471" height="277.2"/>
  </clipPath>
  <clipPath id="p8cb90e5143">
   <rect x="405.468015" y="29.612625" width="246.176471" height="277.2"/>
  </clipPath>
  <clipPath id="p5eacc4a1aa">
   <rect x="700.879779" y="29.612625" width="246.176471" height="277.2"/>
  </clipPath>
 </defs>
</svg>
