<?xml version="1.0" encoding="utf-8" standalone="no"?>
<!DOCTYPE svg PUBLIC "-//W3C//DTD SVG 1.1//EN"
  "http://www.w3.org/Graphics/SVG/1.1/DTD/svg11.dtd">
<svg xmlns:xlink="http://www.w3.org/1999/xlink" width="427.07175pt" height="160.84143pt" viewBox="0 0 427.07175 160.84143" xmlns="http://www.w3.org/2000/svg" version="1.1">
 <metadata>
  <rdf:RDF xmlns:dc="http://purl.org/dc/elements/1.1/" xmlns:cc="http://creativecommons.org/ns#" xmlns:rdf="http://www.w3.org/1999/02/22-rdf-syntax-ns#">
   <cc:Work>
    <dc:type rdf:resource="http://purl.org/dc/dcmitype/StillImage"/>
    <dc:date>2024-07-19T13:25:03.927546</dc:date>
    <dc:format>image/svg+xml</dc:format>
    <dc:creator>
     <cc:Agent>
      <dc:title>Matplotlib v3.8.2, https://matplotlib.org/</dc:title>
     </cc:Agent>
    </dc:creator>
   </cc:Work>
  </rdf:RDF>
 </metadata>
 <defs>
  <style type="text/css">*{stroke-linejoin: round; stroke-linecap: butt}</style>
 </defs>
 <g id="figure_1">
  <g id="patch_1">
   <path d="M 0 160.84143 
L 427.07175 160.84143 
L 427.07175 0 
L 0 0 
z
" style="fill: #ffffff"/>
  </g>
  <g id="axes_1">
   <g id="patch_2">
    <path d="M 47.27625 126.51768 
L 149.507564 126.51768 
L 149.507564 34.81632 
L 47.27625 34.81632 
z
" style="fill: #eaeaf2"/>
   </g>
   <g id="matplotlib.axis_1">
    <g id="xtick_1">
     <g id="line2d_1">
      <path d="M 48.662161 126.51768 
L 48.662161 34.81632 
" clip-path="url(#pe0a4ab1837)" style="fill: none; stroke: #ffffff; stroke-width: 0.8; stroke-linecap: round"/>
     </g>
     <g id="text_1">
      <!-- 0% -->
      <g style="fill: #262626" transform="translate(42.880911 140.54393) scale(0.08 -0.08)">
       <defs>
        <path id="ArialMT-30" d="M 266 2259 
Q 266 3072 433 3567 
Q 600 4063 929 4331 
Q 1259 4600 1759 4600 
Q 2128 4600 2406 4451 
Q 2684 4303 2865 4023 
Q 3047 3744 3150 3342 
Q 3253 2941 3253 2259 
Q 3253 1453 3087 958 
Q 2922 463 2592 192 
Q 2263 -78 1759 -78 
Q 1097 -78 719 397 
Q 266 969 266 2259 
z
M 844 2259 
Q 844 1131 1108 757 
Q 1372 384 1759 384 
Q 2147 384 2411 759 
Q 2675 1134 2675 2259 
Q 2675 3391 2411 3762 
Q 2147 4134 1753 4134 
Q 1366 4134 1134 3806 
Q 844 3388 844 2259 
z
" transform="scale(0.015625)"/>
        <path id="ArialMT-25" d="M 372 3481 
Q 372 3972 619 4315 
Q 866 4659 1334 4659 
Q 1766 4659 2048 4351 
Q 2331 4044 2331 3447 
Q 2331 2866 2045 2552 
Q 1759 2238 1341 2238 
Q 925 2238 648 2547 
Q 372 2856 372 3481 
z
M 1350 4272 
Q 1141 4272 1002 4090 
Q 863 3909 863 3425 
Q 863 2984 1003 2804 
Q 1144 2625 1350 2625 
Q 1563 2625 1702 2806 
Q 1841 2988 1841 3469 
Q 1841 3913 1700 4092 
Q 1559 4272 1350 4272 
z
M 1353 -169 
L 3859 4659 
L 4316 4659 
L 1819 -169 
L 1353 -169 
z
M 3334 1075 
Q 3334 1569 3581 1911 
Q 3828 2253 4300 2253 
Q 4731 2253 5014 1945 
Q 5297 1638 5297 1041 
Q 5297 459 5011 145 
Q 4725 -169 4303 -169 
Q 3888 -169 3611 142 
Q 3334 453 3334 1075 
z
M 4316 1866 
Q 4103 1866 3964 1684 
Q 3825 1503 3825 1019 
Q 3825 581 3965 400 
Q 4106 219 4313 219 
Q 4528 219 4667 400 
Q 4806 581 4806 1063 
Q 4806 1506 4665 1686 
Q 4525 1866 4316 1866 
z
" transform="scale(0.015625)"/>
       </defs>
       <use xlink:href="#ArialMT-30"/>
       <use xlink:href="#ArialMT-25" x="55.615234"/>
      </g>
     </g>
    </g>
    <g id="xtick_2">
     <g id="line2d_2">
      <path d="M 81.27183 126.51768 
L 81.27183 34.81632 
" clip-path="url(#pe0a4ab1837)" style="fill: none; stroke: #ffffff; stroke-width: 0.8; stroke-linecap: round"/>
     </g>
     <g id="text_2">
      <!-- 10% -->
      <g style="fill: #262626" transform="translate(73.266205 140.54393) scale(0.08 -0.08)">
       <defs>
        <path id="ArialMT-31" d="M 2384 0 
L 1822 0 
L 1822 3584 
Q 1619 3391 1289 3197 
Q 959 3003 697 2906 
L 697 3450 
Q 1169 3672 1522 3987 
Q 1875 4303 2022 4600 
L 2384 4600 
L 2384 0 
z
" transform="scale(0.015625)"/>
       </defs>
       <use xlink:href="#ArialMT-31"/>
       <use xlink:href="#ArialMT-30" x="55.615234"/>
       <use xlink:href="#ArialMT-25" x="111.230469"/>
      </g>
     </g>
    </g>
    <g id="xtick_3">
     <g id="line2d_3">
      <path d="M 113.8815 126.51768 
L 113.8815 34.81632 
" clip-path="url(#pe0a4ab1837)" style="fill: none; stroke: #ffffff; stroke-width: 0.8; stroke-linecap: round"/>
     </g>
     <g id="text_3">
      <!-- 20% -->
      <g style="fill: #262626" transform="translate(105.875875 140.54393) scale(0.08 -0.08)">
       <defs>
        <path id="ArialMT-32" d="M 3222 541 
L 3222 0 
L 194 0 
Q 188 203 259 391 
Q 375 700 629 1000 
Q 884 1300 1366 1694 
Q 2113 2306 2375 2664 
Q 2638 3022 2638 3341 
Q 2638 3675 2398 3904 
Q 2159 4134 1775 4134 
Q 1369 4134 1125 3890 
Q 881 3647 878 3216 
L 300 3275 
Q 359 3922 746 4261 
Q 1134 4600 1788 4600 
Q 2447 4600 2831 4234 
Q 3216 3869 3216 3328 
Q 3216 3053 3103 2787 
Q 2991 2522 2730 2228 
Q 2469 1934 1863 1422 
Q 1356 997 1212 845 
Q 1069 694 975 541 
L 3222 541 
z
" transform="scale(0.015625)"/>
       </defs>
       <use xlink:href="#ArialMT-32"/>
       <use xlink:href="#ArialMT-30" x="55.615234"/>
       <use xlink:href="#ArialMT-25" x="111.230469"/>
      </g>
     </g>
    </g>
    <g id="xtick_4">
     <g id="line2d_4">
      <path d="M 146.491169 126.51768 
L 146.491169 34.81632 
" clip-path="url(#pe0a4ab1837)" style="fill: none; stroke: #ffffff; stroke-width: 0.8; stroke-linecap: round"/>
     </g>
     <g id="text_4">
      <!-- 30% -->
      <g style="fill: #262626" transform="translate(138.485544 140.54393) scale(0.08 -0.08)">
       <defs>
        <path id="ArialMT-33" d="M 269 1209 
L 831 1284 
Q 928 806 1161 595 
Q 1394 384 1728 384 
Q 2125 384 2398 659 
Q 2672 934 2672 1341 
Q 2672 1728 2419 1979 
Q 2166 2231 1775 2231 
Q 1616 2231 1378 2169 
L 1441 2663 
Q 1497 2656 1531 2656 
Q 1891 2656 2178 2843 
Q 2466 3031 2466 3422 
Q 2466 3731 2256 3934 
Q 2047 4138 1716 4138 
Q 1388 4138 1169 3931 
Q 950 3725 888 3313 
L 325 3413 
Q 428 3978 793 4289 
Q 1159 4600 1703 4600 
Q 2078 4600 2393 4439 
Q 2709 4278 2876 4000 
Q 3044 3722 3044 3409 
Q 3044 3113 2884 2869 
Q 2725 2625 2413 2481 
Q 2819 2388 3044 2092 
Q 3269 1797 3269 1353 
Q 3269 753 2831 336 
Q 2394 -81 1725 -81 
Q 1122 -81 723 278 
Q 325 638 269 1209 
z
" transform="scale(0.015625)"/>
       </defs>
       <use xlink:href="#ArialMT-33"/>
       <use xlink:href="#ArialMT-30" x="55.615234"/>
       <use xlink:href="#ArialMT-25" x="111.230469"/>
      </g>
     </g>
    </g>
    <g id="text_5">
     <!-- Coverage area -->
     <g style="fill: #262626" transform="translate(71.933157 151.95768) scale(0.08 -0.08)">
      <defs>
       <path id="ArialMT-43" d="M 3763 1606 
L 4369 1453 
Q 4178 706 3683 314 
Q 3188 -78 2472 -78 
Q 1731 -78 1267 223 
Q 803 525 561 1097 
Q 319 1669 319 2325 
Q 319 3041 592 3573 
Q 866 4106 1370 4382 
Q 1875 4659 2481 4659 
Q 3169 4659 3637 4309 
Q 4106 3959 4291 3325 
L 3694 3184 
Q 3534 3684 3231 3912 
Q 2928 4141 2469 4141 
Q 1941 4141 1586 3887 
Q 1231 3634 1087 3207 
Q 944 2781 944 2328 
Q 944 1744 1114 1308 
Q 1284 872 1643 656 
Q 2003 441 2422 441 
Q 2931 441 3284 734 
Q 3638 1028 3763 1606 
z
" transform="scale(0.015625)"/>
       <path id="ArialMT-6f" d="M 213 1659 
Q 213 2581 725 3025 
Q 1153 3394 1769 3394 
Q 2453 3394 2887 2945 
Q 3322 2497 3322 1706 
Q 3322 1066 3130 698 
Q 2938 331 2570 128 
Q 2203 -75 1769 -75 
Q 1072 -75 642 372 
Q 213 819 213 1659 
z
M 791 1659 
Q 791 1022 1069 705 
Q 1347 388 1769 388 
Q 2188 388 2466 706 
Q 2744 1025 2744 1678 
Q 2744 2294 2464 2611 
Q 2184 2928 1769 2928 
Q 1347 2928 1069 2612 
Q 791 2297 791 1659 
z
" transform="scale(0.015625)"/>
       <path id="ArialMT-76" d="M 1344 0 
L 81 3319 
L 675 3319 
L 1388 1331 
Q 1503 1009 1600 663 
Q 1675 925 1809 1294 
L 2547 3319 
L 3125 3319 
L 1869 0 
L 1344 0 
z
" transform="scale(0.015625)"/>
       <path id="ArialMT-65" d="M 2694 1069 
L 3275 997 
Q 3138 488 2766 206 
Q 2394 -75 1816 -75 
Q 1088 -75 661 373 
Q 234 822 234 1631 
Q 234 2469 665 2931 
Q 1097 3394 1784 3394 
Q 2450 3394 2872 2941 
Q 3294 2488 3294 1666 
Q 3294 1616 3291 1516 
L 816 1516 
Q 847 969 1125 678 
Q 1403 388 1819 388 
Q 2128 388 2347 550 
Q 2566 713 2694 1069 
z
M 847 1978 
L 2700 1978 
Q 2663 2397 2488 2606 
Q 2219 2931 1791 2931 
Q 1403 2931 1139 2672 
Q 875 2413 847 1978 
z
" transform="scale(0.015625)"/>
       <path id="ArialMT-72" d="M 416 0 
L 416 3319 
L 922 3319 
L 922 2816 
Q 1116 3169 1280 3281 
Q 1444 3394 1641 3394 
Q 1925 3394 2219 3213 
L 2025 2691 
Q 1819 2813 1613 2813 
Q 1428 2813 1281 2702 
Q 1134 2591 1072 2394 
Q 978 2094 978 1738 
L 978 0 
L 416 0 
z
" transform="scale(0.015625)"/>
       <path id="ArialMT-61" d="M 2588 409 
Q 2275 144 1986 34 
Q 1697 -75 1366 -75 
Q 819 -75 525 192 
Q 231 459 231 875 
Q 231 1119 342 1320 
Q 453 1522 633 1644 
Q 813 1766 1038 1828 
Q 1203 1872 1538 1913 
Q 2219 1994 2541 2106 
Q 2544 2222 2544 2253 
Q 2544 2597 2384 2738 
Q 2169 2928 1744 2928 
Q 1347 2928 1158 2789 
Q 969 2650 878 2297 
L 328 2372 
Q 403 2725 575 2942 
Q 747 3159 1072 3276 
Q 1397 3394 1825 3394 
Q 2250 3394 2515 3294 
Q 2781 3194 2906 3042 
Q 3031 2891 3081 2659 
Q 3109 2516 3109 2141 
L 3109 1391 
Q 3109 606 3145 398 
Q 3181 191 3288 0 
L 2700 0 
Q 2613 175 2588 409 
z
M 2541 1666 
Q 2234 1541 1622 1453 
Q 1275 1403 1131 1340 
Q 988 1278 909 1158 
Q 831 1038 831 891 
Q 831 666 1001 516 
Q 1172 366 1500 366 
Q 1825 366 2078 508 
Q 2331 650 2450 897 
Q 2541 1088 2541 1459 
L 2541 1666 
z
" transform="scale(0.015625)"/>
       <path id="ArialMT-67" d="M 319 -275 
L 866 -356 
Q 900 -609 1056 -725 
Q 1266 -881 1628 -881 
Q 2019 -881 2231 -725 
Q 2444 -569 2519 -288 
Q 2563 -116 2559 434 
Q 2191 0 1641 0 
Q 956 0 581 494 
Q 206 988 206 1678 
Q 206 2153 378 2554 
Q 550 2956 876 3175 
Q 1203 3394 1644 3394 
Q 2231 3394 2613 2919 
L 2613 3319 
L 3131 3319 
L 3131 450 
Q 3131 -325 2973 -648 
Q 2816 -972 2473 -1159 
Q 2131 -1347 1631 -1347 
Q 1038 -1347 672 -1080 
Q 306 -813 319 -275 
z
M 784 1719 
Q 784 1066 1043 766 
Q 1303 466 1694 466 
Q 2081 466 2343 764 
Q 2606 1063 2606 1700 
Q 2606 2309 2336 2618 
Q 2066 2928 1684 2928 
Q 1309 2928 1046 2623 
Q 784 2319 784 1719 
z
" transform="scale(0.015625)"/>
       <path id="ArialMT-20" transform="scale(0.015625)"/>
      </defs>
      <use xlink:href="#ArialMT-43"/>
      <use xlink:href="#ArialMT-6f" x="72.216797"/>
      <use xlink:href="#ArialMT-76" x="127.832031"/>
      <use xlink:href="#ArialMT-65" x="177.832031"/>
      <use xlink:href="#ArialMT-72" x="233.447266"/>
      <use xlink:href="#ArialMT-61" x="266.748047"/>
      <use xlink:href="#ArialMT-67" x="322.363281"/>
      <use xlink:href="#ArialMT-65" x="377.978516"/>
      <use xlink:href="#ArialMT-20" x="433.59375"/>
      <use xlink:href="#ArialMT-61" x="461.376953"/>
      <use xlink:href="#ArialMT-72" x="516.992188"/>
      <use xlink:href="#ArialMT-65" x="550.292969"/>
      <use xlink:href="#ArialMT-61" x="605.908203"/>
     </g>
    </g>
   </g>
   <g id="matplotlib.axis_2">
    <g id="ytick_1">
     <g id="line2d_5">
      <path d="M 47.27625 126.51768 
L 149.507564 126.51768 
" clip-path="url(#pe0a4ab1837)" style="fill: none; stroke: #ffffff; stroke-width: 0.8; stroke-linecap: round"/>
     </g>
     <g id="text_6">
      <!-- 0% -->
      <g style="fill: #262626" transform="translate(27.41375 129.380805) scale(0.08 -0.08)">
       <use xlink:href="#ArialMT-30"/>
       <use xlink:href="#ArialMT-25" x="55.615234"/>
      </g>
     </g>
    </g>
    <g id="ytick_2">
     <g id="line2d_6">
      <path d="M 47.27625 108.177408 
L 149.507564 108.177408 
" clip-path="url(#pe0a4ab1837)" style="fill: none; stroke: #ffffff; stroke-width: 0.8; stroke-linecap: round"/>
     </g>
     <g id="text_7">
      <!-- 20% -->
      <g style="fill: #262626" transform="translate(22.965 111.040533) scale(0.08 -0.08)">
       <use xlink:href="#ArialMT-32"/>
       <use xlink:href="#ArialMT-30" x="55.615234"/>
       <use xlink:href="#ArialMT-25" x="111.230469"/>
      </g>
     </g>
    </g>
    <g id="ytick_3">
     <g id="line2d_7">
      <path d="M 47.27625 89.837136 
L 149.507564 89.837136 
" clip-path="url(#pe0a4ab1837)" style="fill: none; stroke: #ffffff; stroke-width: 0.8; stroke-linecap: round"/>
     </g>
     <g id="text_8">
      <!-- 40% -->
      <g style="fill: #262626" transform="translate(22.965 92.700261) scale(0.08 -0.08)">
       <defs>
        <path id="ArialMT-34" d="M 2069 0 
L 2069 1097 
L 81 1097 
L 81 1613 
L 2172 4581 
L 2631 4581 
L 2631 1613 
L 3250 1613 
L 3250 1097 
L 2631 1097 
L 2631 0 
L 2069 0 
z
M 2069 1613 
L 2069 3678 
L 634 1613 
L 2069 1613 
z
" transform="scale(0.015625)"/>
       </defs>
       <use xlink:href="#ArialMT-34"/>
       <use xlink:href="#ArialMT-30" x="55.615234"/>
       <use xlink:href="#ArialMT-25" x="111.230469"/>
      </g>
     </g>
    </g>
    <g id="ytick_4">
     <g id="line2d_8">
      <path d="M 47.27625 71.496864 
L 149.507564 71.496864 
" clip-path="url(#pe0a4ab1837)" style="fill: none; stroke: #ffffff; stroke-width: 0.8; stroke-linecap: round"/>
     </g>
     <g id="text_9">
      <!-- 60% -->
      <g style="fill: #262626" transform="translate(22.965 74.359989) scale(0.08 -0.08)">
       <defs>
        <path id="ArialMT-36" d="M 3184 3459 
L 2625 3416 
Q 2550 3747 2413 3897 
Q 2184 4138 1850 4138 
Q 1581 4138 1378 3988 
Q 1113 3794 959 3422 
Q 806 3050 800 2363 
Q 1003 2672 1297 2822 
Q 1591 2972 1913 2972 
Q 2475 2972 2870 2558 
Q 3266 2144 3266 1488 
Q 3266 1056 3080 686 
Q 2894 316 2569 119 
Q 2244 -78 1831 -78 
Q 1128 -78 684 439 
Q 241 956 241 2144 
Q 241 3472 731 4075 
Q 1159 4600 1884 4600 
Q 2425 4600 2770 4297 
Q 3116 3994 3184 3459 
z
M 888 1484 
Q 888 1194 1011 928 
Q 1134 663 1356 523 
Q 1578 384 1822 384 
Q 2178 384 2434 671 
Q 2691 959 2691 1453 
Q 2691 1928 2437 2201 
Q 2184 2475 1800 2475 
Q 1419 2475 1153 2201 
Q 888 1928 888 1484 
z
" transform="scale(0.015625)"/>
       </defs>
       <use xlink:href="#ArialMT-36"/>
       <use xlink:href="#ArialMT-30" x="55.615234"/>
       <use xlink:href="#ArialMT-25" x="111.230469"/>
      </g>
     </g>
    </g>
    <g id="ytick_5">
     <g id="line2d_9">
      <path d="M 47.27625 53.156592 
L 149.507564 53.156592 
" clip-path="url(#pe0a4ab1837)" style="fill: none; stroke: #ffffff; stroke-width: 0.8; stroke-linecap: round"/>
     </g>
     <g id="text_10">
      <!-- 80% -->
      <g style="fill: #262626" transform="translate(22.965 56.019717) scale(0.08 -0.08)">
       <defs>
        <path id="ArialMT-38" d="M 1131 2484 
Q 781 2613 612 2850 
Q 444 3088 444 3419 
Q 444 3919 803 4259 
Q 1163 4600 1759 4600 
Q 2359 4600 2725 4251 
Q 3091 3903 3091 3403 
Q 3091 3084 2923 2848 
Q 2756 2613 2416 2484 
Q 2838 2347 3058 2040 
Q 3278 1734 3278 1309 
Q 3278 722 2862 322 
Q 2447 -78 1769 -78 
Q 1091 -78 675 323 
Q 259 725 259 1325 
Q 259 1772 486 2073 
Q 713 2375 1131 2484 
z
M 1019 3438 
Q 1019 3113 1228 2906 
Q 1438 2700 1772 2700 
Q 2097 2700 2305 2904 
Q 2513 3109 2513 3406 
Q 2513 3716 2298 3927 
Q 2084 4138 1766 4138 
Q 1444 4138 1231 3931 
Q 1019 3725 1019 3438 
z
M 838 1322 
Q 838 1081 952 856 
Q 1066 631 1291 507 
Q 1516 384 1775 384 
Q 2178 384 2440 643 
Q 2703 903 2703 1303 
Q 2703 1709 2433 1975 
Q 2163 2241 1756 2241 
Q 1359 2241 1098 1978 
Q 838 1716 838 1322 
z
" transform="scale(0.015625)"/>
       </defs>
       <use xlink:href="#ArialMT-38"/>
       <use xlink:href="#ArialMT-30" x="55.615234"/>
       <use xlink:href="#ArialMT-25" x="111.230469"/>
      </g>
     </g>
    </g>
    <g id="ytick_6">
     <g id="line2d_10">
      <path d="M 47.27625 34.81632 
L 149.507564 34.81632 
" clip-path="url(#pe0a4ab1837)" style="fill: none; stroke: #ffffff; stroke-width: 0.8; stroke-linecap: round"/>
     </g>
     <g id="text_11">
      <!-- 100% -->
      <g style="fill: #262626" transform="translate(18.51625 37.679445) scale(0.08 -0.08)">
       <use xlink:href="#ArialMT-31"/>
       <use xlink:href="#ArialMT-30" x="55.615234"/>
       <use xlink:href="#ArialMT-30" x="111.230469"/>
       <use xlink:href="#ArialMT-25" x="166.845703"/>
      </g>
     </g>
    </g>
    <g id="text_12">
     <!-- Precision -->
     <g style="fill: #262626" transform="translate(12.92625 97.117625) rotate(-90) scale(0.08 -0.08)">
      <defs>
       <path id="ArialMT-50" d="M 494 0 
L 494 4581 
L 2222 4581 
Q 2678 4581 2919 4538 
Q 3256 4481 3484 4323 
Q 3713 4166 3852 3881 
Q 3991 3597 3991 3256 
Q 3991 2672 3619 2267 
Q 3247 1863 2275 1863 
L 1100 1863 
L 1100 0 
L 494 0 
z
M 1100 2403 
L 2284 2403 
Q 2872 2403 3119 2622 
Q 3366 2841 3366 3238 
Q 3366 3525 3220 3729 
Q 3075 3934 2838 4000 
Q 2684 4041 2272 4041 
L 1100 4041 
L 1100 2403 
z
" transform="scale(0.015625)"/>
       <path id="ArialMT-63" d="M 2588 1216 
L 3141 1144 
Q 3050 572 2676 248 
Q 2303 -75 1759 -75 
Q 1078 -75 664 370 
Q 250 816 250 1647 
Q 250 2184 428 2587 
Q 606 2991 970 3192 
Q 1334 3394 1763 3394 
Q 2303 3394 2647 3120 
Q 2991 2847 3088 2344 
L 2541 2259 
Q 2463 2594 2264 2762 
Q 2066 2931 1784 2931 
Q 1359 2931 1093 2626 
Q 828 2322 828 1663 
Q 828 994 1084 691 
Q 1341 388 1753 388 
Q 2084 388 2306 591 
Q 2528 794 2588 1216 
z
" transform="scale(0.015625)"/>
       <path id="ArialMT-69" d="M 425 3934 
L 425 4581 
L 988 4581 
L 988 3934 
L 425 3934 
z
M 425 0 
L 425 3319 
L 988 3319 
L 988 0 
L 425 0 
z
" transform="scale(0.015625)"/>
       <path id="ArialMT-73" d="M 197 991 
L 753 1078 
Q 800 744 1014 566 
Q 1228 388 1613 388 
Q 2000 388 2187 545 
Q 2375 703 2375 916 
Q 2375 1106 2209 1216 
Q 2094 1291 1634 1406 
Q 1016 1563 777 1677 
Q 538 1791 414 1992 
Q 291 2194 291 2438 
Q 291 2659 392 2848 
Q 494 3038 669 3163 
Q 800 3259 1026 3326 
Q 1253 3394 1513 3394 
Q 1903 3394 2198 3281 
Q 2494 3169 2634 2976 
Q 2775 2784 2828 2463 
L 2278 2388 
Q 2241 2644 2061 2787 
Q 1881 2931 1553 2931 
Q 1166 2931 1000 2803 
Q 834 2675 834 2503 
Q 834 2394 903 2306 
Q 972 2216 1119 2156 
Q 1203 2125 1616 2013 
Q 2213 1853 2448 1751 
Q 2684 1650 2818 1456 
Q 2953 1263 2953 975 
Q 2953 694 2789 445 
Q 2625 197 2315 61 
Q 2006 -75 1616 -75 
Q 969 -75 630 194 
Q 291 463 197 991 
z
" transform="scale(0.015625)"/>
       <path id="ArialMT-6e" d="M 422 0 
L 422 3319 
L 928 3319 
L 928 2847 
Q 1294 3394 1984 3394 
Q 2284 3394 2536 3286 
Q 2788 3178 2913 3003 
Q 3038 2828 3088 2588 
Q 3119 2431 3119 2041 
L 3119 0 
L 2556 0 
L 2556 2019 
Q 2556 2363 2490 2533 
Q 2425 2703 2258 2804 
Q 2091 2906 1866 2906 
Q 1506 2906 1245 2678 
Q 984 2450 984 1813 
L 984 0 
L 422 0 
z
" transform="scale(0.015625)"/>
      </defs>
      <use xlink:href="#ArialMT-50"/>
      <use xlink:href="#ArialMT-72" x="66.699219"/>
      <use xlink:href="#ArialMT-65" x="100"/>
      <use xlink:href="#ArialMT-63" x="155.615234"/>
      <use xlink:href="#ArialMT-69" x="205.615234"/>
      <use xlink:href="#ArialMT-73" x="227.832031"/>
      <use xlink:href="#ArialMT-69" x="277.832031"/>
      <use xlink:href="#ArialMT-6f" x="300.048828"/>
      <use xlink:href="#ArialMT-6e" x="355.664062"/>
     </g>
    </g>
   </g>
   <g id="PolyCollection_1">
    <defs>
     <path id="m663b0ad91a" d="M 51.923128 -116.384359 
L 51.923128 -113.779986 
L 53.553611 -107.547766 
L 55.184095 -103.93689 
L 56.814578 -101.885157 
L 58.445062 -100.965804 
L 60.075545 -100.065464 
L 61.706029 -98.318003 
L 63.336512 -96.578758 
L 64.966996 -94.757839 
L 66.597479 -93.610615 
L 68.227963 -92.603013 
L 69.858446 -91.691106 
L 71.48893 -90.812636 
L 73.119413 -90.145257 
L 74.749896 -89.842367 
L 76.38038 -89.259538 
L 78.010863 -88.773499 
L 79.641347 -88.29544 
L 81.27183 -87.749655 
L 82.902314 -87.19008 
L 84.532797 -86.564287 
L 86.163281 -85.925129 
L 87.793764 -85.359416 
L 89.424248 -84.793943 
L 91.054731 -84.213715 
L 92.685215 -83.765712 
L 94.315698 -83.460577 
L 95.946182 -83.080063 
L 97.576665 -82.674087 
L 99.207148 -82.60183 
L 100.837632 -82.249749 
L 102.468115 -81.92755 
L 104.098599 -81.60928 
L 105.729082 -81.336972 
L 107.359566 -81.032871 
L 108.990049 -80.867716 
L 110.620533 -80.63595 
L 112.251016 -80.475037 
L 113.8815 -80.317127 
L 115.511983 -80.163512 
L 117.142467 -80.048812 
L 118.77295 -79.911381 
L 120.403434 -79.78313 
L 122.033917 -79.736266 
L 123.664401 -79.669785 
L 125.294884 -79.630389 
L 126.925367 -79.608768 
L 128.555851 -79.563075 
L 130.186334 -79.570971 
L 131.816818 -79.555737 
L 133.447301 -79.484335 
L 135.077785 -79.522648 
L 136.708268 -79.514483 
L 138.338752 -79.49394 
L 139.969235 -79.49634 
L 141.599719 -79.506381 
L 143.230202 -79.500948 
L 144.860686 -79.500899 
L 144.860686 -80.434298 
L 144.860686 -80.434298 
L 143.230202 -80.413145 
L 141.599719 -80.43667 
L 139.969235 -80.436803 
L 138.338752 -80.455833 
L 136.708268 -80.427151 
L 135.077785 -80.442834 
L 133.447301 -80.464916 
L 131.816818 -80.50078 
L 130.186334 -80.516896 
L 128.555851 -80.503749 
L 126.925367 -80.590324 
L 125.294884 -80.602348 
L 123.664401 -80.65949 
L 122.033917 -80.670985 
L 120.403434 -80.794896 
L 118.77295 -80.894881 
L 117.142467 -81.064334 
L 115.511983 -81.222342 
L 113.8815 -81.408256 
L 112.251016 -81.579512 
L 110.620533 -81.758103 
L 108.990049 -82.003022 
L 107.359566 -82.200642 
L 105.729082 -82.521974 
L 104.098599 -82.834143 
L 102.468115 -83.123432 
L 100.837632 -83.463657 
L 99.207148 -83.827825 
L 97.576665 -83.978868 
L 95.946182 -84.396276 
L 94.315698 -84.750832 
L 92.685215 -85.073677 
L 91.054731 -85.461409 
L 89.424248 -86.049452 
L 87.793764 -86.73965 
L 86.163281 -87.318922 
L 84.532797 -87.925936 
L 82.902314 -88.642013 
L 81.27183 -89.121703 
L 79.641347 -89.702915 
L 78.010863 -90.100278 
L 76.38038 -90.686161 
L 74.749896 -91.290992 
L 73.119413 -91.619966 
L 71.48893 -92.366375 
L 69.858446 -93.193967 
L 68.227963 -94.182771 
L 66.597479 -95.177318 
L 64.966996 -96.345533 
L 63.336512 -98.12707 
L 61.706029 -99.926775 
L 60.075545 -101.763579 
L 58.445062 -102.748367 
L 56.814578 -103.941242 
L 55.184095 -106.189281 
L 53.553611 -109.933509 
L 51.923128 -116.384359 
z
" style="stroke: #4c72b0; stroke-opacity: 0.2; stroke-width: 0.8"/>
    </defs>
    <g clip-path="url(#pe0a4ab1837)">
     <use xlink:href="#m663b0ad91a" x="0" y="160.84143" style="fill: #4c72b0; fill-opacity: 0.2; stroke: #4c72b0; stroke-opacity: 0.2; stroke-width: 0.8"/>
    </g>
   </g>
   <g id="PolyCollection_2">
    <defs>
     <path id="m4c85c90808" d="M 51.923128 -76.222179 
L 51.923128 -72.201392 
L 53.553611 -72.189113 
L 55.184095 -73.160898 
L 56.814578 -72.841063 
L 58.445062 -72.810602 
L 60.075545 -72.70399 
L 61.706029 -72.521227 
L 63.336512 -72.263156 
L 64.966996 -71.898476 
L 66.597479 -71.88962 
L 68.227963 -72.025122 
L 69.858446 -72.010919 
L 71.48893 -72.093084 
L 73.119413 -72.098302 
L 74.749896 -72.084287 
L 76.38038 -72.135013 
L 78.010863 -71.881202 
L 79.641347 -71.799215 
L 81.27183 -71.673228 
L 82.902314 -71.671943 
L 84.532797 -71.491667 
L 86.163281 -71.369914 
L 87.793764 -71.304431 
L 89.424248 -71.233133 
L 91.054731 -71.181758 
L 92.685215 -71.040141 
L 94.315698 -70.973804 
L 95.946182 -70.944048 
L 97.576665 -70.851396 
L 99.207148 -70.719599 
L 100.837632 -70.665972 
L 102.468115 -70.529889 
L 104.098599 -70.557772 
L 105.729082 -70.424685 
L 107.359566 -70.357451 
L 108.990049 -70.32096 
L 110.620533 -70.153443 
L 112.251016 -70.132651 
L 113.8815 -70.137927 
L 115.511983 -70.020306 
L 117.142467 -69.904113 
L 118.77295 -69.922435 
L 120.403434 -69.855684 
L 122.033917 -69.765925 
L 123.664401 -69.728163 
L 125.294884 -69.742963 
L 126.925367 -69.642663 
L 128.555851 -69.592423 
L 130.186334 -69.532697 
L 131.816818 -69.546105 
L 133.447301 -69.500681 
L 135.077785 -69.46342 
L 136.708268 -69.430949 
L 138.338752 -69.425484 
L 139.969235 -69.39985 
L 141.599719 -69.376262 
L 143.230202 -69.356498 
L 144.860686 -69.396663 
L 144.860686 -70.578332 
L 144.860686 -70.578332 
L 143.230202 -70.575961 
L 141.599719 -70.633127 
L 139.969235 -70.615941 
L 138.338752 -70.637578 
L 136.708268 -70.678961 
L 135.077785 -70.679874 
L 133.447301 -70.765635 
L 131.816818 -70.704535 
L 130.186334 -70.785677 
L 128.555851 -70.778392 
L 126.925367 -70.873521 
L 125.294884 -71.01905 
L 123.664401 -71.023259 
L 122.033917 -71.055858 
L 120.403434 -71.137726 
L 118.77295 -71.203452 
L 117.142467 -71.212153 
L 115.511983 -71.258809 
L 113.8815 -71.368328 
L 112.251016 -71.436175 
L 110.620533 -71.510329 
L 108.990049 -71.660264 
L 107.359566 -71.770318 
L 105.729082 -71.779198 
L 104.098599 -71.951448 
L 102.468115 -71.974846 
L 100.837632 -72.109836 
L 99.207148 -72.105671 
L 97.576665 -72.295338 
L 95.946182 -72.384777 
L 94.315698 -72.420956 
L 92.685215 -72.520028 
L 91.054731 -72.682285 
L 89.424248 -72.683124 
L 87.793764 -72.859959 
L 86.163281 -72.870416 
L 84.532797 -73.131068 
L 82.902314 -73.240736 
L 81.27183 -73.238574 
L 79.641347 -73.440971 
L 78.010863 -73.512244 
L 76.38038 -73.749801 
L 74.749896 -73.849915 
L 73.119413 -73.994754 
L 71.48893 -74.024869 
L 69.858446 -74.013545 
L 68.227963 -73.95225 
L 66.597479 -73.921918 
L 64.966996 -74.006177 
L 63.336512 -74.456557 
L 61.706029 -74.794343 
L 60.075545 -75.13422 
L 58.445062 -75.461047 
L 56.814578 -75.651045 
L 55.184095 -76.26787 
L 53.553611 -75.788117 
L 51.923128 -76.222179 
z
" style="stroke: #dd8452; stroke-opacity: 0.2; stroke-width: 0.8"/>
    </defs>
    <g clip-path="url(#pe0a4ab1837)">
     <use xlink:href="#m4c85c90808" x="0" y="160.84143" style="fill: #dd8452; fill-opacity: 0.2; stroke: #dd8452; stroke-opacity: 0.2; stroke-width: 0.8"/>
    </g>
   </g>
   <g id="line2d_11">
    <path d="M 51.923128 45.690721 
L 53.553611 52.114843 
L 55.184095 55.749216 
L 56.814578 57.920615 
L 58.445062 58.953504 
L 60.075545 59.921637 
L 61.706029 61.700765 
L 63.336512 63.512806 
L 64.966996 65.304082 
L 66.597479 66.453909 
L 68.227963 67.457403 
L 69.858446 68.39903 
L 71.48893 69.216387 
L 73.119413 69.958818 
L 74.749896 70.276921 
L 76.38038 70.9006 
L 78.010863 71.382368 
L 79.641347 71.830023 
L 81.27183 72.373502 
L 82.902314 72.927743 
L 84.532797 73.595007 
L 86.163281 74.205109 
L 87.793764 74.831144 
L 89.424248 75.428281 
L 91.054731 76.007813 
L 92.685215 76.41438 
L 94.315698 76.744146 
L 95.946182 77.084311 
L 97.576665 77.468391 
L 99.207148 77.655053 
L 100.837632 77.990885 
L 102.468115 78.289793 
L 104.098599 78.610658 
L 105.729082 78.880305 
L 107.359566 79.168097 
L 108.990049 79.372933 
L 110.620533 79.630627 
L 112.251016 79.839971 
L 113.8815 79.994842 
L 115.511983 80.140726 
L 117.142467 80.292733 
L 118.77295 80.447 
L 120.403434 80.546105 
L 122.033917 80.63974 
L 123.664401 80.702229 
L 125.294884 80.719753 
L 126.925367 80.758016 
L 128.555851 80.783966 
L 130.186334 80.796567 
L 131.816818 80.821325 
L 133.447301 80.831982 
L 135.077785 80.849984 
L 136.708268 80.861101 
L 138.338752 80.864383 
L 139.969235 80.869641 
L 141.599719 80.870102 
L 143.230202 80.870102 
L 144.860686 80.870102 
" clip-path="url(#pe0a4ab1837)" style="fill: none; stroke: #4c72b0; stroke-width: 1.2; stroke-linecap: round"/>
   </g>
   <g id="line2d_12">
    <path d="M 51.923128 86.675335 
L 53.553611 86.869521 
L 55.184095 86.104201 
L 56.814578 86.492572 
L 58.445062 86.690566 
L 60.075545 86.928711 
L 61.706029 87.177934 
L 63.336512 87.47166 
L 64.966996 87.871862 
L 66.597479 87.90361 
L 68.227963 87.863295 
L 69.858446 87.842734 
L 71.48893 87.769837 
L 73.119413 87.829027 
L 74.749896 87.863295 
L 76.38038 87.944523 
L 78.010863 88.161073 
L 79.641347 88.23276 
L 81.27183 88.386681 
L 82.902314 88.386032 
L 84.532797 88.553248 
L 86.163281 88.751288 
L 87.793764 88.749924 
L 89.424248 88.867878 
L 91.054731 88.923208 
L 92.685215 89.060682 
L 94.315698 89.166122 
L 95.946182 89.203006 
L 97.576665 89.272247 
L 99.207148 89.417446 
L 100.837632 89.438625 
L 102.468115 89.596872 
L 104.098599 89.611767 
L 105.729082 89.726572 
L 107.359566 89.808899 
L 108.990049 89.841865 
L 110.620533 89.993772 
L 112.251016 90.048282 
L 113.8815 90.132195 
L 115.511983 90.205078 
L 117.142467 90.265555 
L 118.77295 90.305936 
L 120.403434 90.363886 
L 122.033917 90.399629 
L 123.664401 90.449104 
L 125.294884 90.490992 
L 126.925367 90.558062 
L 128.555851 90.648966 
L 130.186334 90.674233 
L 131.816818 90.722163 
L 133.447301 90.738476 
L 135.077785 90.766388 
L 136.708268 90.797026 
L 138.338752 90.803114 
L 139.969235 90.822255 
L 141.599719 90.840551 
L 143.230202 90.846574 
L 144.860686 90.860499 
" clip-path="url(#pe0a4ab1837)" style="fill: none; stroke: #dd8452; stroke-width: 1.2; stroke-linecap: round"/>
   </g>
   <g id="line2d_13"/>
   <g id="line2d_14"/>
   <g id="patch_3">
    <path d="M 47.27625 126.51768 
L 47.27625 34.81632 
" style="fill: none; stroke: #ffffff; stroke-linejoin: miter; stroke-linecap: square"/>
   </g>
   <g id="patch_4">
    <path d="M 47.27625 126.51768 
L 149.507564 126.51768 
" style="fill: none; stroke: #ffffff; stroke-linejoin: miter; stroke-linecap: square"/>
   </g>
  </g>
  <g id="axes_2">
   <g id="patch_5">
    <path d="M 164.033362 126.51768 
L 266.264675 126.51768 
L 266.264675 34.81632 
L 164.033362 34.81632 
z
" style="fill: #eaeaf2"/>
   </g>
   <g id="matplotlib.axis_3">
    <g id="xtick_5">
     <g id="line2d_15">
      <path d="M 165.419273 126.51768 
L 165.419273 34.81632 
" clip-path="url(#p00c798aa54)" style="fill: none; stroke: #ffffff; stroke-width: 0.8; stroke-linecap: round"/>
     </g>
     <g id="text_13">
      <!-- 0% -->
      <g style="fill: #262626" transform="translate(159.638023 140.54393) scale(0.08 -0.08)">
       <use xlink:href="#ArialMT-30"/>
       <use xlink:href="#ArialMT-25" x="55.615234"/>
      </g>
     </g>
    </g>
    <g id="xtick_6">
     <g id="line2d_16">
      <path d="M 198.028942 126.51768 
L 198.028942 34.81632 
" clip-path="url(#p00c798aa54)" style="fill: none; stroke: #ffffff; stroke-width: 0.8; stroke-linecap: round"/>
     </g>
     <g id="text_14">
      <!-- 10% -->
      <g style="fill: #262626" transform="translate(190.023317 140.54393) scale(0.08 -0.08)">
       <use xlink:href="#ArialMT-31"/>
       <use xlink:href="#ArialMT-30" x="55.615234"/>
       <use xlink:href="#ArialMT-25" x="111.230469"/>
      </g>
     </g>
    </g>
    <g id="xtick_7">
     <g id="line2d_17">
      <path d="M 230.638611 126.51768 
L 230.638611 34.81632 
" clip-path="url(#p00c798aa54)" style="fill: none; stroke: #ffffff; stroke-width: 0.8; stroke-linecap: round"/>
     </g>
     <g id="text_15">
      <!-- 20% -->
      <g style="fill: #262626" transform="translate(222.632986 140.54393) scale(0.08 -0.08)">
       <use xlink:href="#ArialMT-32"/>
       <use xlink:href="#ArialMT-30" x="55.615234"/>
       <use xlink:href="#ArialMT-25" x="111.230469"/>
      </g>
     </g>
    </g>
    <g id="xtick_8">
     <g id="line2d_18">
      <path d="M 263.248281 126.51768 
L 263.248281 34.81632 
" clip-path="url(#p00c798aa54)" style="fill: none; stroke: #ffffff; stroke-width: 0.8; stroke-linecap: round"/>
     </g>
     <g id="text_16">
      <!-- 30% -->
      <g style="fill: #262626" transform="translate(255.242656 140.54393) scale(0.08 -0.08)">
       <use xlink:href="#ArialMT-33"/>
       <use xlink:href="#ArialMT-30" x="55.615234"/>
       <use xlink:href="#ArialMT-25" x="111.230469"/>
      </g>
     </g>
    </g>
    <g id="text_17">
     <!-- Coverage area -->
     <g style="fill: #262626" transform="translate(188.690269 151.95768) scale(0.08 -0.08)">
      <use xlink:href="#ArialMT-43"/>
      <use xlink:href="#ArialMT-6f" x="72.216797"/>
      <use xlink:href="#ArialMT-76" x="127.832031"/>
      <use xlink:href="#ArialMT-65" x="177.832031"/>
      <use xlink:href="#ArialMT-72" x="233.447266"/>
      <use xlink:href="#ArialMT-61" x="266.748047"/>
      <use xlink:href="#ArialMT-67" x="322.363281"/>
      <use xlink:href="#ArialMT-65" x="377.978516"/>
      <use xlink:href="#ArialMT-20" x="433.59375"/>
      <use xlink:href="#ArialMT-61" x="461.376953"/>
      <use xlink:href="#ArialMT-72" x="516.992188"/>
      <use xlink:href="#ArialMT-65" x="550.292969"/>
      <use xlink:href="#ArialMT-61" x="605.908203"/>
     </g>
    </g>
   </g>
   <g id="matplotlib.axis_4">
    <g id="ytick_7">
     <g id="line2d_19">
      <path d="M 164.033362 126.51768 
L 266.264675 126.51768 
" clip-path="url(#p00c798aa54)" style="fill: none; stroke: #ffffff; stroke-width: 0.8; stroke-linecap: round"/>
     </g>
    </g>
    <g id="ytick_8">
     <g id="line2d_20">
      <path d="M 164.033362 108.177408 
L 266.264675 108.177408 
" clip-path="url(#p00c798aa54)" style="fill: none; stroke: #ffffff; stroke-width: 0.8; stroke-linecap: round"/>
     </g>
    </g>
    <g id="ytick_9">
     <g id="line2d_21">
      <path d="M 164.033362 89.837136 
L 266.264675 89.837136 
" clip-path="url(#p00c798aa54)" style="fill: none; stroke: #ffffff; stroke-width: 0.8; stroke-linecap: round"/>
     </g>
    </g>
    <g id="ytick_10">
     <g id="line2d_22">
      <path d="M 164.033362 71.496864 
L 266.264675 71.496864 
" clip-path="url(#p00c798aa54)" style="fill: none; stroke: #ffffff; stroke-width: 0.8; stroke-linecap: round"/>
     </g>
    </g>
    <g id="ytick_11">
     <g id="line2d_23">
      <path d="M 164.033362 53.156592 
L 266.264675 53.156592 
" clip-path="url(#p00c798aa54)" style="fill: none; stroke: #ffffff; stroke-width: 0.8; stroke-linecap: round"/>
     </g>
    </g>
    <g id="ytick_12">
     <g id="line2d_24">
      <path d="M 164.033362 34.81632 
L 266.264675 34.81632 
" clip-path="url(#p00c798aa54)" style="fill: none; stroke: #ffffff; stroke-width: 0.8; stroke-linecap: round"/>
     </g>
    </g>
   </g>
   <g id="PolyCollection_3">
    <defs>
     <path id="m8271340b1b" d="M 168.68024 -115.973142 
L 168.68024 -113.41446 
L 170.310723 -107.82191 
L 171.941207 -104.367199 
L 173.57169 -101.777784 
L 175.202174 -100.753965 
L 176.832657 -99.622615 
L 178.46314 -98.208574 
L 180.093624 -96.361054 
L 181.724107 -94.722128 
L 183.354591 -93.714887 
L 184.985074 -92.608972 
L 186.615558 -91.839282 
L 188.246041 -90.90389 
L 189.876525 -90.130959 
L 191.507008 -89.833457 
L 193.137492 -89.212313 
L 194.767975 -88.676641 
L 196.398459 -88.31648 
L 198.028942 -87.753026 
L 199.659426 -87.179745 
L 201.289909 -86.562859 
L 202.920393 -85.967826 
L 204.550876 -85.359893 
L 206.181359 -84.736239 
L 207.811843 -84.329628 
L 209.442326 -83.86592 
L 211.07281 -83.389677 
L 212.703293 -83.101574 
L 214.333777 -82.745204 
L 215.96426 -82.660559 
L 217.594744 -82.296339 
L 219.225227 -82.004498 
L 220.855711 -81.742265 
L 222.486194 -81.392475 
L 224.116678 -81.255626 
L 225.747161 -81.079994 
L 227.377645 -80.872959 
L 229.008128 -80.557396 
L 230.638611 -80.465467 
L 232.269095 -80.284979 
L 233.899578 -80.199885 
L 235.530062 -80.014659 
L 237.160545 -79.936442 
L 238.791029 -79.869785 
L 240.421512 -79.818944 
L 242.051996 -79.753117 
L 243.682479 -79.703067 
L 245.312963 -79.687047 
L 246.943446 -79.651231 
L 248.57393 -79.635672 
L 250.204413 -79.628529 
L 251.834897 -79.577603 
L 253.46538 -79.597359 
L 255.095864 -79.601381 
L 256.726347 -79.601839 
L 258.35683 -79.608471 
L 259.987314 -79.566328 
L 261.617797 -79.582391 
L 261.617797 -80.530874 
L 261.617797 -80.530874 
L 259.987314 -80.497018 
L 258.35683 -80.557113 
L 256.726347 -80.565175 
L 255.095864 -80.530962 
L 253.46538 -80.527934 
L 251.834897 -80.536218 
L 250.204413 -80.572531 
L 248.57393 -80.542378 
L 246.943446 -80.620564 
L 245.312963 -80.67177 
L 243.682479 -80.641481 
L 242.051996 -80.744724 
L 240.421512 -80.831321 
L 238.791029 -80.838353 
L 237.160545 -80.930341 
L 235.530062 -81.05402 
L 233.899578 -81.2218 
L 232.269095 -81.373496 
L 230.638611 -81.577471 
L 229.008128 -81.691751 
L 227.377645 -82.012317 
L 225.747161 -82.27078 
L 224.116678 -82.412455 
L 222.486194 -82.652175 
L 220.855711 -82.948112 
L 219.225227 -83.242879 
L 217.594744 -83.515045 
L 215.96426 -83.894434 
L 214.333777 -84.060516 
L 212.703293 -84.410808 
L 211.07281 -84.768461 
L 209.442326 -85.175434 
L 207.811843 -85.678009 
L 206.181359 -86.150806 
L 204.550876 -86.715123 
L 202.920393 -87.324354 
L 201.289909 -87.930621 
L 199.659426 -88.553488 
L 198.028942 -89.152962 
L 196.398459 -89.720374 
L 194.767975 -90.176877 
L 193.137492 -90.639149 
L 191.507008 -91.249985 
L 189.876525 -91.511372 
L 188.246041 -92.391759 
L 186.615558 -93.352697 
L 184.985074 -94.242218 
L 183.354591 -95.34719 
L 181.724107 -96.396033 
L 180.093624 -98.014187 
L 178.46314 -99.826255 
L 176.832657 -101.425906 
L 175.202174 -102.573288 
L 173.57169 -103.788939 
L 171.941207 -106.600498 
L 170.310723 -110.180239 
L 168.68024 -115.973142 
z
" style="stroke: #4c72b0; stroke-opacity: 0.2; stroke-width: 0.8"/>
    </defs>
    <g clip-path="url(#p00c798aa54)">
     <use xlink:href="#m8271340b1b" x="0" y="160.84143" style="fill: #4c72b0; fill-opacity: 0.2; stroke: #4c72b0; stroke-opacity: 0.2; stroke-width: 0.8"/>
    </g>
   </g>
   <g id="PolyCollection_4">
    <defs>
     <path id="m04f2df8ebd" d="M 168.68024 -78.552408 
L 168.68024 -74.119262 
L 170.310723 -73.903373 
L 171.941207 -73.274554 
L 173.57169 -73.406486 
L 175.202174 -73.419051 
L 176.832657 -73.189974 
L 178.46314 -73.126344 
L 180.093624 -72.870191 
L 181.724107 -73.105784 
L 183.354591 -72.953744 
L 184.985074 -72.826454 
L 186.615558 -72.744598 
L 188.246041 -72.61022 
L 189.876525 -72.36645 
L 191.507008 -72.210393 
L 193.137492 -72.140344 
L 194.767975 -72.126987 
L 196.398459 -72.078488 
L 198.028942 -71.827553 
L 199.659426 -71.708834 
L 201.289909 -71.582368 
L 202.920393 -71.550149 
L 204.550876 -71.456597 
L 206.181359 -71.308574 
L 207.811843 -71.184106 
L 209.442326 -71.005559 
L 211.07281 -70.870375 
L 212.703293 -70.886515 
L 214.333777 -70.601327 
L 215.96426 -70.55494 
L 217.594744 -70.45801 
L 219.225227 -70.372266 
L 220.855711 -70.33315 
L 222.486194 -70.158671 
L 224.116678 -70.114471 
L 225.747161 -70.090515 
L 227.377645 -70.052764 
L 229.008128 -69.968595 
L 230.638611 -69.860031 
L 232.269095 -69.784154 
L 233.899578 -69.733162 
L 235.530062 -69.620664 
L 237.160545 -69.537798 
L 238.791029 -69.524988 
L 240.421512 -69.501539 
L 242.051996 -69.465419 
L 243.682479 -69.326762 
L 245.312963 -69.318432 
L 246.943446 -69.238281 
L 248.57393 -69.257351 
L 250.204413 -69.21386 
L 251.834897 -69.200675 
L 253.46538 -69.180096 
L 255.095864 -69.160109 
L 256.726347 -69.136928 
L 258.35683 -69.129282 
L 259.987314 -69.137904 
L 261.617797 -69.141967 
L 261.617797 -70.365591 
L 261.617797 -70.365591 
L 259.987314 -70.378481 
L 258.35683 -70.397996 
L 256.726347 -70.370231 
L 255.095864 -70.352293 
L 253.46538 -70.348922 
L 251.834897 -70.333529 
L 250.204413 -70.45371 
L 248.57393 -70.469439 
L 246.943446 -70.508348 
L 245.312963 -70.517015 
L 243.682479 -70.644277 
L 242.051996 -70.702513 
L 240.421512 -70.739336 
L 238.791029 -70.766362 
L 237.160545 -70.846887 
L 235.530062 -70.942602 
L 233.899578 -70.984819 
L 232.269095 -71.062544 
L 230.638611 -71.206639 
L 229.008128 -71.278647 
L 227.377645 -71.440918 
L 225.747161 -71.449266 
L 224.116678 -71.534324 
L 222.486194 -71.533086 
L 220.855711 -71.733966 
L 219.225227 -71.763948 
L 217.594744 -71.952569 
L 215.96426 -71.901083 
L 214.333777 -72.164624 
L 212.703293 -72.372972 
L 211.07281 -72.409756 
L 209.442326 -72.524016 
L 207.811843 -72.712758 
L 206.181359 -72.87221 
L 204.550876 -73.063895 
L 202.920393 -73.15193 
L 201.289909 -73.292463 
L 199.659426 -73.437701 
L 198.028942 -73.487906 
L 196.398459 -73.787436 
L 194.767975 -73.862133 
L 193.137492 -73.902484 
L 191.507008 -74.168608 
L 189.876525 -74.269042 
L 188.246041 -74.517239 
L 186.615558 -74.753392 
L 184.985074 -74.767469 
L 183.354591 -75.010232 
L 181.724107 -75.231903 
L 180.093624 -75.230282 
L 178.46314 -75.480275 
L 176.832657 -75.744814 
L 175.202174 -76.115948 
L 173.57169 -76.268298 
L 171.941207 -76.611122 
L 170.310723 -77.673717 
L 168.68024 -78.552408 
z
" style="stroke: #dd8452; stroke-opacity: 0.2; stroke-width: 0.8"/>
    </defs>
    <g clip-path="url(#p00c798aa54)">
     <use xlink:href="#m04f2df8ebd" x="0" y="160.84143" style="fill: #dd8452; fill-opacity: 0.2; stroke: #dd8452; stroke-opacity: 0.2; stroke-width: 0.8"/>
    </g>
   </g>
   <g id="line2d_25">
    <path d="M 168.68024 46.19332 
L 170.310723 51.868113 
L 171.941207 55.318418 
L 173.57169 58.011997 
L 175.202174 59.152882 
L 176.832657 60.290677 
L 178.46314 61.828699 
L 180.093624 63.649879 
L 181.724107 65.296868 
L 183.354591 66.342946 
L 184.985074 67.409726 
L 186.615558 68.250992 
L 188.246041 69.185927 
L 189.876525 70.010811 
L 191.507008 70.276921 
L 193.137492 70.909167 
L 194.767975 71.402526 
L 196.398459 71.845362 
L 198.028942 72.41349 
L 199.659426 72.969354 
L 201.289909 73.560003 
L 202.920393 74.175297 
L 204.550876 74.788194 
L 206.181359 75.378998 
L 207.811843 75.870006 
L 209.442326 76.287064 
L 211.07281 76.718068 
L 212.703293 77.083751 
L 214.333777 77.402122 
L 215.96426 77.590266 
L 217.594744 77.928954 
L 219.225227 78.204286 
L 220.855711 78.48813 
L 222.486194 78.78003 
L 224.116678 79.000757 
L 225.747161 79.195916 
L 227.377645 79.406587 
L 229.008128 79.677919 
L 230.638611 79.821828 
L 232.269095 79.995249 
L 233.899578 80.13813 
L 235.530062 80.28202 
L 237.160545 80.406501 
L 238.791029 80.490609 
L 240.421512 80.556126 
L 242.051996 80.600259 
L 243.682479 80.65857 
L 245.312963 80.680366 
L 246.943446 80.709175 
L 248.57393 80.731165 
L 250.204413 80.747319 
L 251.834897 80.759784 
L 253.46538 80.768369 
L 255.095864 80.773044 
L 256.726347 80.778362 
L 258.35683 80.780161 
L 259.987314 80.780161 
L 261.617797 80.780161 
" clip-path="url(#p00c798aa54)" style="fill: none; stroke: #4c72b0; stroke-width: 1.2; stroke-linecap: round"/>
   </g>
   <g id="line2d_26">
    <path d="M 168.68024 84.619251 
L 170.310723 85.087581 
L 171.941207 85.875747 
L 173.57169 86.012819 
L 175.202174 86.081355 
L 176.832657 86.330578 
L 178.46314 86.549686 
L 180.093624 86.786299 
L 181.724107 86.706748 
L 183.354591 86.871537 
L 184.985074 87.069719 
L 186.615558 87.09569 
L 188.246041 87.283853 
L 189.876525 87.50348 
L 191.507008 87.649462 
L 193.137492 87.837911 
L 194.767975 87.872748 
L 196.398459 87.935928 
L 198.028942 88.151531 
L 199.659426 88.270301 
L 201.289909 88.405237 
L 202.920393 88.494043 
L 204.550876 88.572328 
L 206.181359 88.776133 
L 207.811843 88.862555 
L 209.442326 89.073586 
L 211.07281 89.160537 
L 212.703293 89.205036 
L 214.333777 89.422957 
L 215.96426 89.6227 
L 217.594744 89.662854 
L 219.225227 89.785852 
L 220.855711 89.817367 
L 222.486194 89.967713 
L 224.116678 90.056869 
L 225.747161 90.074013 
L 227.377645 90.126474 
L 229.008128 90.183558 
L 230.638611 90.30709 
L 232.269095 90.42352 
L 233.899578 90.471319 
L 235.530062 90.572542 
L 237.160545 90.666479 
L 238.791029 90.684981 
L 240.421512 90.739134 
L 242.051996 90.779762 
L 243.682479 90.860169 
L 245.312963 90.935997 
L 246.943446 90.960115 
L 248.57393 90.98251 
L 250.204413 91.012921 
L 251.834897 91.060087 
L 253.46538 91.071371 
L 255.095864 91.080126 
L 256.726347 91.083205 
L 258.35683 91.088073 
L 259.987314 91.085398 
L 261.617797 91.092248 
" clip-path="url(#p00c798aa54)" style="fill: none; stroke: #dd8452; stroke-width: 1.2; stroke-linecap: round"/>
   </g>
   <g id="patch_6">
    <path d="M 164.033362 126.51768 
L 164.033362 34.81632 
" style="fill: none; stroke: #ffffff; stroke-linejoin: miter; stroke-linecap: square"/>
   </g>
   <g id="patch_7">
    <path d="M 164.033362 126.51768 
L 266.264675 126.51768 
" style="fill: none; stroke: #ffffff; stroke-linejoin: miter; stroke-linecap: square"/>
   </g>
  </g>
  <g id="axes_3">
   <g id="patch_8">
    <path d="M 280.790474 126.51768 
L 383.021787 126.51768 
L 383.021787 34.81632 
L 280.790474 34.81632 
z
" style="fill: #eaeaf2"/>
   </g>
   <g id="matplotlib.axis_5">
    <g id="xtick_9">
     <g id="line2d_27">
      <path d="M 282.176384 126.51768 
L 282.176384 34.81632 
" clip-path="url(#p9cd3a91e9c)" style="fill: none; stroke: #ffffff; stroke-width: 0.8; stroke-linecap: round"/>
     </g>
     <g id="text_18">
      <!-- 0% -->
      <g style="fill: #262626" transform="translate(276.395134 140.54393) scale(0.08 -0.08)">
       <use xlink:href="#ArialMT-30"/>
       <use xlink:href="#ArialMT-25" x="55.615234"/>
      </g>
     </g>
    </g>
    <g id="xtick_10">
     <g id="line2d_28">
      <path d="M 314.786054 126.51768 
L 314.786054 34.81632 
" clip-path="url(#p9cd3a91e9c)" style="fill: none; stroke: #ffffff; stroke-width: 0.8; stroke-linecap: round"/>
     </g>
     <g id="text_19">
      <!-- 10% -->
      <g style="fill: #262626" transform="translate(306.780429 140.54393) scale(0.08 -0.08)">
       <use xlink:href="#ArialMT-31"/>
       <use xlink:href="#ArialMT-30" x="55.615234"/>
       <use xlink:href="#ArialMT-25" x="111.230469"/>
      </g>
     </g>
    </g>
    <g id="xtick_11">
     <g id="line2d_29">
      <path d="M 347.395723 126.51768 
L 347.395723 34.81632 
" clip-path="url(#p9cd3a91e9c)" style="fill: none; stroke: #ffffff; stroke-width: 0.8; stroke-linecap: round"/>
     </g>
     <g id="text_20">
      <!-- 20% -->
      <g style="fill: #262626" transform="translate(339.390098 140.54393) scale(0.08 -0.08)">
       <use xlink:href="#ArialMT-32"/>
       <use xlink:href="#ArialMT-30" x="55.615234"/>
       <use xlink:href="#ArialMT-25" x="111.230469"/>
      </g>
     </g>
    </g>
    <g id="xtick_12">
     <g id="line2d_30">
      <path d="M 380.005393 126.51768 
L 380.005393 34.81632 
" clip-path="url(#p9cd3a91e9c)" style="fill: none; stroke: #ffffff; stroke-width: 0.8; stroke-linecap: round"/>
     </g>
     <g id="text_21">
      <!-- 30% -->
      <g style="fill: #262626" transform="translate(371.999768 140.54393) scale(0.08 -0.08)">
       <use xlink:href="#ArialMT-33"/>
       <use xlink:href="#ArialMT-30" x="55.615234"/>
       <use xlink:href="#ArialMT-25" x="111.230469"/>
      </g>
     </g>
    </g>
    <g id="text_22">
     <!-- Coverage area -->
     <g style="fill: #262626" transform="translate(305.44738 151.95768) scale(0.08 -0.08)">
      <use xlink:href="#ArialMT-43"/>
      <use xlink:href="#ArialMT-6f" x="72.216797"/>
      <use xlink:href="#ArialMT-76" x="127.832031"/>
      <use xlink:href="#ArialMT-65" x="177.832031"/>
      <use xlink:href="#ArialMT-72" x="233.447266"/>
      <use xlink:href="#ArialMT-61" x="266.748047"/>
      <use xlink:href="#ArialMT-67" x="322.363281"/>
      <use xlink:href="#ArialMT-65" x="377.978516"/>
      <use xlink:href="#ArialMT-20" x="433.59375"/>
      <use xlink:href="#ArialMT-61" x="461.376953"/>
      <use xlink:href="#ArialMT-72" x="516.992188"/>
      <use xlink:href="#ArialMT-65" x="550.292969"/>
      <use xlink:href="#ArialMT-61" x="605.908203"/>
     </g>
    </g>
   </g>
   <g id="matplotlib.axis_6">
    <g id="ytick_13">
     <g id="line2d_31">
      <path d="M 280.790474 126.51768 
L 383.021787 126.51768 
" clip-path="url(#p9cd3a91e9c)" style="fill: none; stroke: #ffffff; stroke-width: 0.8; stroke-linecap: round"/>
     </g>
    </g>
    <g id="ytick_14">
     <g id="line2d_32">
      <path d="M 280.790474 108.177408 
L 383.021787 108.177408 
" clip-path="url(#p9cd3a91e9c)" style="fill: none; stroke: #ffffff; stroke-width: 0.8; stroke-linecap: round"/>
     </g>
    </g>
    <g id="ytick_15">
     <g id="line2d_33">
      <path d="M 280.790474 89.837136 
L 383.021787 89.837136 
" clip-path="url(#p9cd3a91e9c)" style="fill: none; stroke: #ffffff; stroke-width: 0.8; stroke-linecap: round"/>
     </g>
    </g>
    <g id="ytick_16">
     <g id="line2d_34">
      <path d="M 280.790474 71.496864 
L 383.021787 71.496864 
" clip-path="url(#p9cd3a91e9c)" style="fill: none; stroke: #ffffff; stroke-width: 0.8; stroke-linecap: round"/>
     </g>
    </g>
    <g id="ytick_17">
     <g id="line2d_35">
      <path d="M 280.790474 53.156592 
L 383.021787 53.156592 
" clip-path="url(#p9cd3a91e9c)" style="fill: none; stroke: #ffffff; stroke-width: 0.8; stroke-linecap: round"/>
     </g>
    </g>
    <g id="ytick_18">
     <g id="line2d_36">
      <path d="M 280.790474 34.81632 
L 383.021787 34.81632 
" clip-path="url(#p9cd3a91e9c)" style="fill: none; stroke: #ffffff; stroke-width: 0.8; stroke-linecap: round"/>
     </g>
    </g>
   </g>
   <g id="PolyCollection_5">
    <defs>
     <path id="md1f3963c20" d="M 285.437351 -122.506921 
L 285.437351 -120.632458 
L 287.067835 -116.18332 
L 288.698318 -113.668533 
L 290.328802 -111.327915 
L 291.959285 -109.389207 
L 293.589769 -107.414647 
L 295.220252 -105.829793 
L 296.850736 -104.117532 
L 298.481219 -102.318458 
L 300.111703 -101.188917 
L 301.742186 -99.927292 
L 303.37267 -98.676447 
L 305.003153 -97.508744 
L 306.633637 -96.762422 
L 308.26412 -96.266602 
L 309.894603 -95.487653 
L 311.525087 -94.776358 
L 313.15557 -94.008252 
L 314.786054 -93.335962 
L 316.416537 -92.671835 
L 318.047021 -92.099682 
L 319.677504 -91.567587 
L 321.307988 -90.848541 
L 322.938471 -90.335078 
L 324.568955 -89.810454 
L 326.199438 -89.32017 
L 327.829922 -88.809526 
L 329.460405 -88.314095 
L 331.090889 -87.765432 
L 332.721372 -87.55016 
L 334.351856 -87.204018 
L 335.982339 -86.788793 
L 337.612822 -86.432405 
L 339.243306 -86.064168 
L 340.873789 -85.735839 
L 342.504273 -85.479599 
L 344.134756 -85.309548 
L 345.76524 -85.021571 
L 347.395723 -84.788784 
L 349.026207 -84.627256 
L 350.65669 -84.44365 
L 352.287174 -84.286091 
L 353.917657 -84.118677 
L 355.548141 -84.065314 
L 357.178624 -84.012362 
L 358.809108 -83.940175 
L 360.439591 -83.942794 
L 362.070074 -83.849841 
L 363.700558 -83.865706 
L 365.331041 -83.830158 
L 366.961525 -83.819079 
L 368.592008 -83.808212 
L 370.222492 -83.789898 
L 371.852975 -83.79005 
L 373.483459 -83.785642 
L 375.113942 -83.753863 
L 376.744426 -83.755082 
L 378.374909 -83.769628 
L 378.374909 -84.672985 
L 378.374909 -84.672985 
L 376.744426 -84.679243 
L 375.113942 -84.64631 
L 373.483459 -84.671388 
L 371.852975 -84.651208 
L 370.222492 -84.690683 
L 368.592008 -84.660382 
L 366.961525 -84.689447 
L 365.331041 -84.698248 
L 363.700558 -84.725793 
L 362.070074 -84.798068 
L 360.439591 -84.835576 
L 358.809108 -84.876771 
L 357.178624 -84.966008 
L 355.548141 -84.975406 
L 353.917657 -85.059421 
L 352.287174 -85.26531 
L 350.65669 -85.417359 
L 349.026207 -85.621414 
L 347.395723 -85.843692 
L 345.76524 -86.093595 
L 344.134756 -86.379041 
L 342.504273 -86.598224 
L 340.873789 -86.940317 
L 339.243306 -87.191063 
L 337.612822 -87.593807 
L 335.982339 -87.992651 
L 334.351856 -88.39348 
L 332.721372 -88.790867 
L 331.090889 -89.029089 
L 329.460405 -89.563944 
L 327.829922 -90.063392 
L 326.199438 -90.510566 
L 324.568955 -91.112467 
L 322.938471 -91.662752 
L 321.307988 -92.1643 
L 319.677504 -92.919956 
L 318.047021 -93.420007 
L 316.416537 -94.00093 
L 314.786054 -94.689684 
L 313.15557 -95.441886 
L 311.525087 -96.171673 
L 309.894603 -96.918667 
L 308.26412 -97.779081 
L 306.633637 -98.180529 
L 305.003153 -99.052457 
L 303.37267 -100.173277 
L 301.742186 -101.405735 
L 300.111703 -102.722984 
L 298.481219 -103.98587 
L 296.850736 -105.706159 
L 295.220252 -107.328679 
L 293.589769 -109.123306 
L 291.959285 -111.17177 
L 290.328802 -113.155926 
L 288.698318 -115.510197 
L 287.067835 -118.157161 
L 285.437351 -122.506921 
z
" style="stroke: #4c72b0; stroke-opacity: 0.2; stroke-width: 0.8"/>
    </defs>
    <g clip-path="url(#p9cd3a91e9c)">
     <use xlink:href="#md1f3963c20" x="0" y="160.84143" style="fill: #4c72b0; fill-opacity: 0.2; stroke: #4c72b0; stroke-opacity: 0.2; stroke-width: 0.8"/>
    </g>
   </g>
   <g id="PolyCollection_6">
    <defs>
     <path id="mce906c5772" d="M 285.437351 -92.899307 
L 285.437351 -88.648924 
L 287.067835 -87.439261 
L 288.698318 -86.479755 
L 290.328802 -85.228971 
L 291.959285 -84.553128 
L 293.589769 -83.283479 
L 295.220252 -82.687136 
L 296.850736 -81.868007 
L 298.481219 -81.330763 
L 300.111703 -80.888012 
L 301.742186 -80.25018 
L 303.37267 -79.934382 
L 305.003153 -79.488913 
L 306.633637 -78.906369 
L 308.26412 -78.652653 
L 309.894603 -78.202112 
L 311.525087 -77.751677 
L 313.15557 -77.601938 
L 314.786054 -77.247812 
L 316.416537 -77.025355 
L 318.047021 -76.595272 
L 319.677504 -76.361009 
L 321.307988 -76.248226 
L 322.938471 -76.042276 
L 324.568955 -75.912196 
L 326.199438 -75.62399 
L 327.829922 -75.461816 
L 329.460405 -75.277486 
L 331.090889 -75.046454 
L 332.721372 -74.881295 
L 334.351856 -74.713315 
L 335.982339 -74.35315 
L 337.612822 -74.254306 
L 339.243306 -74.086603 
L 340.873789 -74.004129 
L 342.504273 -73.887874 
L 344.134756 -73.751411 
L 345.76524 -73.699924 
L 347.395723 -73.479425 
L 349.026207 -73.400981 
L 350.65669 -73.308715 
L 352.287174 -73.224787 
L 353.917657 -73.112282 
L 355.548141 -73.087824 
L 357.178624 -73.00432 
L 358.809108 -72.924041 
L 360.439591 -72.798709 
L 362.070074 -72.761915 
L 363.700558 -72.692106 
L 365.331041 -72.677196 
L 366.961525 -72.647235 
L 368.592008 -72.568067 
L 370.222492 -72.577524 
L 371.852975 -72.570708 
L 373.483459 -72.493647 
L 375.113942 -72.496712 
L 376.744426 -72.471299 
L 378.374909 -72.496587 
L 378.374909 -73.617931 
L 378.374909 -73.617931 
L 376.744426 -73.630415 
L 375.113942 -73.610319 
L 373.483459 -73.671013 
L 371.852975 -73.708153 
L 370.222492 -73.762407 
L 368.592008 -73.792883 
L 366.961525 -73.78895 
L 365.331041 -73.843364 
L 363.700558 -73.961309 
L 362.070074 -73.936479 
L 360.439591 -73.974541 
L 358.809108 -74.209722 
L 357.178624 -74.209888 
L 355.548141 -74.342909 
L 353.917657 -74.391657 
L 352.287174 -74.577484 
L 350.65669 -74.658475 
L 349.026207 -74.743679 
L 347.395723 -74.81959 
L 345.76524 -74.98648 
L 344.134756 -75.111311 
L 342.504273 -75.218624 
L 340.873789 -75.338959 
L 339.243306 -75.47185 
L 337.612822 -75.609171 
L 335.982339 -75.774374 
L 334.351856 -76.098473 
L 332.721372 -76.294215 
L 331.090889 -76.531022 
L 329.460405 -76.787485 
L 327.829922 -77.013367 
L 326.199438 -77.247899 
L 324.568955 -77.436313 
L 322.938471 -77.624197 
L 321.307988 -77.887558 
L 319.677504 -77.901511 
L 318.047021 -78.232556 
L 316.416537 -78.69295 
L 314.786054 -78.817705 
L 313.15557 -79.269753 
L 311.525087 -79.439793 
L 309.894603 -79.903331 
L 308.26412 -80.369621 
L 306.633637 -80.631909 
L 305.003153 -81.271164 
L 303.37267 -81.853737 
L 301.742186 -82.126087 
L 300.111703 -82.823352 
L 298.481219 -83.335874 
L 296.850736 -84.012699 
L 295.220252 -84.960537 
L 293.589769 -85.614019 
L 291.959285 -87.020429 
L 290.328802 -87.987979 
L 288.698318 -89.518191 
L 287.067835 -90.969729 
L 285.437351 -92.899307 
z
" style="stroke: #dd8452; stroke-opacity: 0.2; stroke-width: 0.8"/>
    </defs>
    <g clip-path="url(#p9cd3a91e9c)">
     <use xlink:href="#mce906c5772" x="0" y="160.84143" style="fill: #dd8452; fill-opacity: 0.2; stroke: #dd8452; stroke-opacity: 0.2; stroke-width: 0.8"/>
    </g>
   </g>
   <g id="line2d_37">
    <path d="M 285.437351 39.294015 
L 287.067835 43.616361 
L 288.698318 46.252065 
L 290.328802 48.5997 
L 291.959285 50.54225 
L 293.589769 52.551365 
L 295.220252 54.234894 
L 296.850736 55.901263 
L 298.481219 57.649677 
L 300.111703 58.895352 
L 301.742186 60.180653 
L 303.37267 61.408344 
L 305.003153 62.560766 
L 306.633637 63.360442 
L 308.26412 63.807109 
L 309.894603 64.625259 
L 311.525087 65.363282 
L 313.15557 66.141299 
L 314.786054 66.82165 
L 316.416537 67.485369 
L 318.047021 68.051464 
L 319.677504 68.609137 
L 321.307988 69.298833 
L 322.938471 69.839794 
L 324.568955 70.404418 
L 326.199438 70.920806 
L 327.829922 71.418365 
L 329.460405 71.895436 
L 331.090889 72.417264 
L 332.721372 72.65023 
L 334.351856 73.044805 
L 335.982339 73.429621 
L 337.612822 73.818555 
L 339.243306 74.214933 
L 340.873789 74.507143 
L 342.504273 74.780154 
L 344.134756 75.030402 
L 345.76524 75.27952 
L 347.395723 75.532448 
L 349.026207 75.718343 
L 350.65669 75.918235 
L 352.287174 76.081452 
L 353.917657 76.233233 
L 355.548141 76.312517 
L 357.178624 76.362928 
L 358.809108 76.40908 
L 360.439591 76.470462 
L 362.070074 76.522601 
L 363.700558 76.538201 
L 365.331041 76.555678 
L 366.961525 76.586871 
L 368.592008 76.600869 
L 370.222492 76.600036 
L 371.852975 76.607894 
L 373.483459 76.611009 
L 375.113942 76.614216 
L 376.744426 76.614216 
L 378.374909 76.614216 
" clip-path="url(#p9cd3a91e9c)" style="fill: none; stroke: #4c72b0; stroke-width: 1.2; stroke-linecap: round"/>
   </g>
   <g id="line2d_38">
    <path d="M 285.437351 70.135279 
L 287.067835 71.620229 
L 288.698318 72.922416 
L 290.328802 74.310273 
L 291.959285 75.024191 
L 293.589769 76.374145 
L 295.220252 76.966048 
L 296.850736 77.866809 
L 298.481219 78.508111 
L 300.111703 78.969723 
L 301.742186 79.638958 
L 303.37267 79.94737 
L 305.003153 80.480083 
L 306.633637 81.038237 
L 308.26412 81.316723 
L 309.894603 81.827038 
L 311.525087 82.219698 
L 313.15557 82.453036 
L 314.786054 82.81485 
L 316.416537 82.96685 
L 318.047021 83.432777 
L 319.677504 83.668604 
L 321.307988 83.740553 
L 322.938471 84.010008 
L 324.568955 84.166805 
L 326.199438 84.39712 
L 327.829922 84.634533 
L 329.460405 84.797497 
L 331.090889 85.028167 
L 332.721372 85.293558 
L 334.351856 85.466591 
L 335.982339 85.757418 
L 337.612822 85.890036 
L 339.243306 86.04211 
L 340.873789 86.185024 
L 342.504273 86.267619 
L 344.134756 86.43766 
L 345.76524 86.50134 
L 347.395723 86.670522 
L 349.026207 86.765809 
L 350.65669 86.850712 
L 352.287174 86.930708 
L 353.917657 87.078296 
L 355.548141 87.146939 
L 357.178624 87.273223 
L 358.809108 87.30165 
L 360.439591 87.412362 
L 362.070074 87.491132 
L 363.700558 87.522538 
L 365.331041 87.579473 
L 366.961525 87.624949 
L 368.592008 87.658848 
L 370.222492 87.691445 
L 371.852975 87.715704 
L 373.483459 87.743438 
L 375.113942 87.761126 
L 376.744426 87.771059 
L 378.374909 87.779228 
" clip-path="url(#p9cd3a91e9c)" style="fill: none; stroke: #dd8452; stroke-width: 1.2; stroke-linecap: round"/>
   </g>
   <g id="patch_9">
    <path d="M 280.790474 126.51768 
L 280.790474 34.81632 
" style="fill: none; stroke: #ffffff; stroke-linejoin: miter; stroke-linecap: square"/>
   </g>
   <g id="patch_10">
    <path d="M 280.790474 126.51768 
L 383.021787 126.51768 
" style="fill: none; stroke: #ffffff; stroke-linejoin: miter; stroke-linecap: square"/>
   </g>
  </g>
  <g id="text_23">
   <!-- Chicago -->
   <g style="fill: #262626" transform="translate(196.23145 13.90896) scale(0.09216 -0.09216)">
    <defs>
     <path id="ArialMT-68" d="M 422 0 
L 422 4581 
L 984 4581 
L 984 2938 
Q 1378 3394 1978 3394 
Q 2347 3394 2619 3248 
Q 2891 3103 3008 2847 
Q 3125 2591 3125 2103 
L 3125 0 
L 2563 0 
L 2563 2103 
Q 2563 2525 2380 2717 
Q 2197 2909 1863 2909 
Q 1613 2909 1392 2779 
Q 1172 2650 1078 2428 
Q 984 2206 984 1816 
L 984 0 
L 422 0 
z
" transform="scale(0.015625)"/>
    </defs>
    <use xlink:href="#ArialMT-43"/>
    <use xlink:href="#ArialMT-68" x="72.216797"/>
    <use xlink:href="#ArialMT-69" x="127.832031"/>
    <use xlink:href="#ArialMT-63" x="150.048828"/>
    <use xlink:href="#ArialMT-61" x="200.048828"/>
    <use xlink:href="#ArialMT-67" x="255.664062"/>
    <use xlink:href="#ArialMT-6f" x="311.279297"/>
   </g>
  </g>
  <g id="legend_1">
   <g id="text_24">
    <!-- Model -->
    <g style="fill: #262626" transform="translate(392.0464 67.6332) scale(0.0768 -0.0768)">
     <defs>
      <path id="ArialMT-4d" d="M 475 0 
L 475 4581 
L 1388 4581 
L 2472 1338 
Q 2622 884 2691 659 
Q 2769 909 2934 1394 
L 4031 4581 
L 4847 4581 
L 4847 0 
L 4263 0 
L 4263 3834 
L 2931 0 
L 2384 0 
L 1059 3900 
L 1059 0 
L 475 0 
z
" transform="scale(0.015625)"/>
      <path id="ArialMT-64" d="M 2575 0 
L 2575 419 
Q 2259 -75 1647 -75 
Q 1250 -75 917 144 
Q 584 363 401 755 
Q 219 1147 219 1656 
Q 219 2153 384 2558 
Q 550 2963 881 3178 
Q 1213 3394 1622 3394 
Q 1922 3394 2156 3267 
Q 2391 3141 2538 2938 
L 2538 4581 
L 3097 4581 
L 3097 0 
L 2575 0 
z
M 797 1656 
Q 797 1019 1065 703 
Q 1334 388 1700 388 
Q 2069 388 2326 689 
Q 2584 991 2584 1609 
Q 2584 2291 2321 2609 
Q 2059 2928 1675 2928 
Q 1300 2928 1048 2622 
Q 797 2316 797 1656 
z
" transform="scale(0.015625)"/>
      <path id="ArialMT-6c" d="M 409 0 
L 409 4581 
L 972 4581 
L 972 0 
L 409 0 
z
" transform="scale(0.015625)"/>
     </defs>
     <use xlink:href="#ArialMT-4d"/>
     <use xlink:href="#ArialMT-6f" x="83.300781"/>
     <use xlink:href="#ArialMT-64" x="138.916016"/>
     <use xlink:href="#ArialMT-65" x="194.53125"/>
     <use xlink:href="#ArialMT-6c" x="250.146484"/>
    </g>
   </g>
   <g id="line2d_39">
    <path d="M 387.95305 75.2547 
L 394.99305 75.2547 
L 402.03305 75.2547 
" style="fill: none; stroke: #4c72b0; stroke-width: 1.2; stroke-linecap: round"/>
   </g>
   <g id="text_25">
    <!-- G1 -->
    <g style="fill: #262626" transform="translate(407.66505 77.7187) scale(0.0704 -0.0704)">
     <defs>
      <path id="ArialMT-47" d="M 2638 1797 
L 2638 2334 
L 4578 2338 
L 4578 638 
Q 4131 281 3656 101 
Q 3181 -78 2681 -78 
Q 2006 -78 1454 211 
Q 903 500 622 1047 
Q 341 1594 341 2269 
Q 341 2938 620 3517 
Q 900 4097 1425 4378 
Q 1950 4659 2634 4659 
Q 3131 4659 3532 4498 
Q 3934 4338 4162 4050 
Q 4391 3763 4509 3300 
L 3963 3150 
Q 3859 3500 3706 3700 
Q 3553 3900 3268 4020 
Q 2984 4141 2638 4141 
Q 2222 4141 1919 4014 
Q 1616 3888 1430 3681 
Q 1244 3475 1141 3228 
Q 966 2803 966 2306 
Q 966 1694 1177 1281 
Q 1388 869 1791 669 
Q 2194 469 2647 469 
Q 3041 469 3416 620 
Q 3791 772 3984 944 
L 3984 1797 
L 2638 1797 
z
" transform="scale(0.015625)"/>
     </defs>
     <use xlink:href="#ArialMT-47"/>
     <use xlink:href="#ArialMT-31" x="77.783203"/>
    </g>
   </g>
   <g id="line2d_40">
    <path d="M 387.95305 85.213 
L 394.99305 85.213 
L 402.03305 85.213 
" style="fill: none; stroke: #dd8452; stroke-width: 1.2; stroke-linecap: round"/>
   </g>
   <g id="text_26">
    <!-- G2 -->
    <g style="fill: #262626" transform="translate(407.66505 87.677) scale(0.0704 -0.0704)">
     <use xlink:href="#ArialMT-47"/>
     <use xlink:href="#ArialMT-32" x="77.783203"/>
    </g>
   </g>
  </g>
 </g>
 <defs>
  <clipPath id="pe0a4ab1837">
   <rect x="47.27625" y="34.81632" width="102.231314" height="91.70136"/>
  </clipPath>
  <clipPath id="p00c798aa54">
   <rect x="164.033362" y="34.81632" width="102.231314" height="91.70136"/>
  </clipPath>
  <clipPath id="p9cd3a91e9c">
   <rect x="280.790474" y="34.81632" width="102.231314" height="91.70136"/>
  </clipPath>
 </defs>
</svg>
