<?xml version="1.0" encoding="utf-8" standalone="no"?>
<!DOCTYPE svg PUBLIC "-//W3C//DTD SVG 1.1//EN"
  "http://www.w3.org/Graphics/SVG/1.1/DTD/svg11.dtd">
<svg xmlns:xlink="http://www.w3.org/1999/xlink" width="493.85625pt" height="164.13pt" viewBox="0 0 493.85625 164.13" xmlns="http://www.w3.org/2000/svg" version="1.1">
 <metadata>
  <rdf:RDF xmlns:dc="http://purl.org/dc/elements/1.1/" xmlns:cc="http://creativecommons.org/ns#" xmlns:rdf="http://www.w3.org/1999/02/22-rdf-syntax-ns#">
   <cc:Work>
    <dc:type rdf:resource="http://purl.org/dc/dcmitype/StillImage"/>
    <dc:date>2024-07-19T13:23:32.988840</dc:date>
    <dc:format>image/svg+xml</dc:format>
    <dc:creator>
     <cc:Agent>
      <dc:title>Matplotlib v3.8.2, https://matplotlib.org/</dc:title>
     </cc:Agent>
    </dc:creator>
   </cc:Work>
  </rdf:RDF>
 </metadata>
 <defs>
  <style type="text/css">*{stroke-linejoin: round; stroke-linecap: butt}</style>
 </defs>
 <g id="figure_1">
  <g id="patch_1">
   <path d="M 0 164.13 
L 493.85625 164.13 
L 493.85625 0 
L 0 0 
z
" style="fill: #ffffff"/>
  </g>
  <g id="axes_1">
   <g id="patch_2">
    <path d="M 40.25625 129.90375 
L 486.65625 129.90375 
L 486.65625 19.02375 
L 40.25625 19.02375 
z
" style="fill: #eaeaf2"/>
   </g>
   <g id="matplotlib.axis_1">
    <g id="xtick_1">
     <g id="line2d_1">
      <path d="M 60.547159 129.90375 
L 60.547159 19.02375 
" clip-path="url(#pbb4ecfec94)" style="fill: none; stroke: #ffffff; stroke-width: 0.8; stroke-linecap: round"/>
     </g>
     <g id="text_1">
      <!-- 2022-01-01 -->
      <g style="fill: #262626" transform="translate(40.088409 143.93) scale(0.08 -0.08)">
       <defs>
        <path id="ArialMT-32" d="M 3222 541 
L 3222 0 
L 194 0 
Q 188 203 259 391 
Q 375 700 629 1000 
Q 884 1300 1366 1694 
Q 2113 2306 2375 2664 
Q 2638 3022 2638 3341 
Q 2638 3675 2398 3904 
Q 2159 4134 1775 4134 
Q 1369 4134 1125 3890 
Q 881 3647 878 3216 
L 300 3275 
Q 359 3922 746 4261 
Q 1134 4600 1788 4600 
Q 2447 4600 2831 4234 
Q 3216 3869 3216 3328 
Q 3216 3053 3103 2787 
Q 2991 2522 2730 2228 
Q 2469 1934 1863 1422 
Q 1356 997 1212 845 
Q 1069 694 975 541 
L 3222 541 
z
" transform="scale(0.015625)"/>
        <path id="ArialMT-30" d="M 266 2259 
Q 266 3072 433 3567 
Q 600 4063 929 4331 
Q 1259 4600 1759 4600 
Q 2128 4600 2406 4451 
Q 2684 4303 2865 4023 
Q 3047 3744 3150 3342 
Q 3253 2941 3253 2259 
Q 3253 1453 3087 958 
Q 2922 463 2592 192 
Q 2263 -78 1759 -78 
Q 1097 -78 719 397 
Q 266 969 266 2259 
z
M 844 2259 
Q 844 1131 1108 757 
Q 1372 384 1759 384 
Q 2147 384 2411 759 
Q 2675 1134 2675 2259 
Q 2675 3391 2411 3762 
Q 2147 4134 1753 4134 
Q 1366 4134 1134 3806 
Q 844 3388 844 2259 
z
" transform="scale(0.015625)"/>
        <path id="ArialMT-2d" d="M 203 1375 
L 203 1941 
L 1931 1941 
L 1931 1375 
L 203 1375 
z
" transform="scale(0.015625)"/>
        <path id="ArialMT-31" d="M 2384 0 
L 1822 0 
L 1822 3584 
Q 1619 3391 1289 3197 
Q 959 3003 697 2906 
L 697 3450 
Q 1169 3672 1522 3987 
Q 1875 4303 2022 4600 
L 2384 4600 
L 2384 0 
z
" transform="scale(0.015625)"/>
       </defs>
       <use xlink:href="#ArialMT-32"/>
       <use xlink:href="#ArialMT-30" x="55.615234"/>
       <use xlink:href="#ArialMT-32" x="111.230469"/>
       <use xlink:href="#ArialMT-32" x="166.845703"/>
       <use xlink:href="#ArialMT-2d" x="222.460938"/>
       <use xlink:href="#ArialMT-30" x="255.761719"/>
       <use xlink:href="#ArialMT-31" x="311.376953"/>
       <use xlink:href="#ArialMT-2d" x="366.992188"/>
       <use xlink:href="#ArialMT-30" x="400.292969"/>
       <use xlink:href="#ArialMT-31" x="455.908203"/>
      </g>
     </g>
    </g>
    <g id="xtick_2">
     <g id="line2d_2">
      <path d="M 193.314836 129.90375 
L 193.314836 19.02375 
" clip-path="url(#pbb4ecfec94)" style="fill: none; stroke: #ffffff; stroke-width: 0.8; stroke-linecap: round"/>
     </g>
     <g id="text_2">
      <!-- 2022-08-01 -->
      <g style="fill: #262626" transform="translate(172.856086 143.93) scale(0.08 -0.08)">
       <defs>
        <path id="ArialMT-38" d="M 1131 2484 
Q 781 2613 612 2850 
Q 444 3088 444 3419 
Q 444 3919 803 4259 
Q 1163 4600 1759 4600 
Q 2359 4600 2725 4251 
Q 3091 3903 3091 3403 
Q 3091 3084 2923 2848 
Q 2756 2613 2416 2484 
Q 2838 2347 3058 2040 
Q 3278 1734 3278 1309 
Q 3278 722 2862 322 
Q 2447 -78 1769 -78 
Q 1091 -78 675 323 
Q 259 725 259 1325 
Q 259 1772 486 2073 
Q 713 2375 1131 2484 
z
M 1019 3438 
Q 1019 3113 1228 2906 
Q 1438 2700 1772 2700 
Q 2097 2700 2305 2904 
Q 2513 3109 2513 3406 
Q 2513 3716 2298 3927 
Q 2084 4138 1766 4138 
Q 1444 4138 1231 3931 
Q 1019 3725 1019 3438 
z
M 838 1322 
Q 838 1081 952 856 
Q 1066 631 1291 507 
Q 1516 384 1775 384 
Q 2178 384 2440 643 
Q 2703 903 2703 1303 
Q 2703 1709 2433 1975 
Q 2163 2241 1756 2241 
Q 1359 2241 1098 1978 
Q 838 1716 838 1322 
z
" transform="scale(0.015625)"/>
       </defs>
       <use xlink:href="#ArialMT-32"/>
       <use xlink:href="#ArialMT-30" x="55.615234"/>
       <use xlink:href="#ArialMT-32" x="111.230469"/>
       <use xlink:href="#ArialMT-32" x="166.845703"/>
       <use xlink:href="#ArialMT-2d" x="222.460938"/>
       <use xlink:href="#ArialMT-30" x="255.761719"/>
       <use xlink:href="#ArialMT-38" x="311.376953"/>
       <use xlink:href="#ArialMT-2d" x="366.992188"/>
       <use xlink:href="#ArialMT-30" x="400.292969"/>
       <use xlink:href="#ArialMT-31" x="455.908203"/>
      </g>
     </g>
    </g>
    <g id="xtick_3">
     <g id="line2d_3">
      <path d="M 326.082513 129.90375 
L 326.082513 19.02375 
" clip-path="url(#pbb4ecfec94)" style="fill: none; stroke: #ffffff; stroke-width: 0.8; stroke-linecap: round"/>
     </g>
     <g id="text_3">
      <!-- 2023-03-01 -->
      <g style="fill: #262626" transform="translate(305.623763 143.93) scale(0.08 -0.08)">
       <defs>
        <path id="ArialMT-33" d="M 269 1209 
L 831 1284 
Q 928 806 1161 595 
Q 1394 384 1728 384 
Q 2125 384 2398 659 
Q 2672 934 2672 1341 
Q 2672 1728 2419 1979 
Q 2166 2231 1775 2231 
Q 1616 2231 1378 2169 
L 1441 2663 
Q 1497 2656 1531 2656 
Q 1891 2656 2178 2843 
Q 2466 3031 2466 3422 
Q 2466 3731 2256 3934 
Q 2047 4138 1716 4138 
Q 1388 4138 1169 3931 
Q 950 3725 888 3313 
L 325 3413 
Q 428 3978 793 4289 
Q 1159 4600 1703 4600 
Q 2078 4600 2393 4439 
Q 2709 4278 2876 4000 
Q 3044 3722 3044 3409 
Q 3044 3113 2884 2869 
Q 2725 2625 2413 2481 
Q 2819 2388 3044 2092 
Q 3269 1797 3269 1353 
Q 3269 753 2831 336 
Q 2394 -81 1725 -81 
Q 1122 -81 723 278 
Q 325 638 269 1209 
z
" transform="scale(0.015625)"/>
       </defs>
       <use xlink:href="#ArialMT-32"/>
       <use xlink:href="#ArialMT-30" x="55.615234"/>
       <use xlink:href="#ArialMT-32" x="111.230469"/>
       <use xlink:href="#ArialMT-33" x="166.845703"/>
       <use xlink:href="#ArialMT-2d" x="222.460938"/>
       <use xlink:href="#ArialMT-30" x="255.761719"/>
       <use xlink:href="#ArialMT-33" x="311.376953"/>
       <use xlink:href="#ArialMT-2d" x="366.992188"/>
       <use xlink:href="#ArialMT-30" x="400.292969"/>
       <use xlink:href="#ArialMT-31" x="455.908203"/>
      </g>
     </g>
    </g>
    <g id="xtick_4">
     <g id="line2d_4">
      <path d="M 460.102715 129.90375 
L 460.102715 19.02375 
" clip-path="url(#pbb4ecfec94)" style="fill: none; stroke: #ffffff; stroke-width: 0.8; stroke-linecap: round"/>
     </g>
     <g id="text_4">
      <!-- 2023-10-01 -->
      <g style="fill: #262626" transform="translate(439.643965 143.93) scale(0.08 -0.08)">
       <use xlink:href="#ArialMT-32"/>
       <use xlink:href="#ArialMT-30" x="55.615234"/>
       <use xlink:href="#ArialMT-32" x="111.230469"/>
       <use xlink:href="#ArialMT-33" x="166.845703"/>
       <use xlink:href="#ArialMT-2d" x="222.460938"/>
       <use xlink:href="#ArialMT-31" x="255.761719"/>
       <use xlink:href="#ArialMT-30" x="311.376953"/>
       <use xlink:href="#ArialMT-2d" x="366.992188"/>
       <use xlink:href="#ArialMT-30" x="400.292969"/>
       <use xlink:href="#ArialMT-31" x="455.908203"/>
      </g>
     </g>
    </g>
    <g id="text_5">
     <!-- Days -->
     <g style="fill: #262626" transform="translate(254.343125 155.24625) scale(0.08 -0.08)">
      <defs>
       <path id="ArialMT-44" d="M 494 0 
L 494 4581 
L 2072 4581 
Q 2606 4581 2888 4516 
Q 3281 4425 3559 4188 
Q 3922 3881 4101 3404 
Q 4281 2928 4281 2316 
Q 4281 1794 4159 1391 
Q 4038 988 3847 723 
Q 3656 459 3429 307 
Q 3203 156 2883 78 
Q 2563 0 2147 0 
L 494 0 
z
M 1100 541 
L 2078 541 
Q 2531 541 2789 625 
Q 3047 709 3200 863 
Q 3416 1078 3536 1442 
Q 3656 1806 3656 2325 
Q 3656 3044 3420 3430 
Q 3184 3816 2847 3947 
Q 2603 4041 2063 4041 
L 1100 4041 
L 1100 541 
z
" transform="scale(0.015625)"/>
       <path id="ArialMT-61" d="M 2588 409 
Q 2275 144 1986 34 
Q 1697 -75 1366 -75 
Q 819 -75 525 192 
Q 231 459 231 875 
Q 231 1119 342 1320 
Q 453 1522 633 1644 
Q 813 1766 1038 1828 
Q 1203 1872 1538 1913 
Q 2219 1994 2541 2106 
Q 2544 2222 2544 2253 
Q 2544 2597 2384 2738 
Q 2169 2928 1744 2928 
Q 1347 2928 1158 2789 
Q 969 2650 878 2297 
L 328 2372 
Q 403 2725 575 2942 
Q 747 3159 1072 3276 
Q 1397 3394 1825 3394 
Q 2250 3394 2515 3294 
Q 2781 3194 2906 3042 
Q 3031 2891 3081 2659 
Q 3109 2516 3109 2141 
L 3109 1391 
Q 3109 606 3145 398 
Q 3181 191 3288 0 
L 2700 0 
Q 2613 175 2588 409 
z
M 2541 1666 
Q 2234 1541 1622 1453 
Q 1275 1403 1131 1340 
Q 988 1278 909 1158 
Q 831 1038 831 891 
Q 831 666 1001 516 
Q 1172 366 1500 366 
Q 1825 366 2078 508 
Q 2331 650 2450 897 
Q 2541 1088 2541 1459 
L 2541 1666 
z
" transform="scale(0.015625)"/>
       <path id="ArialMT-79" d="M 397 -1278 
L 334 -750 
Q 519 -800 656 -800 
Q 844 -800 956 -737 
Q 1069 -675 1141 -563 
Q 1194 -478 1313 -144 
Q 1328 -97 1363 -6 
L 103 3319 
L 709 3319 
L 1400 1397 
Q 1534 1031 1641 628 
Q 1738 1016 1872 1384 
L 2581 3319 
L 3144 3319 
L 1881 -56 
Q 1678 -603 1566 -809 
Q 1416 -1088 1222 -1217 
Q 1028 -1347 759 -1347 
Q 597 -1347 397 -1278 
z
" transform="scale(0.015625)"/>
       <path id="ArialMT-73" d="M 197 991 
L 753 1078 
Q 800 744 1014 566 
Q 1228 388 1613 388 
Q 2000 388 2187 545 
Q 2375 703 2375 916 
Q 2375 1106 2209 1216 
Q 2094 1291 1634 1406 
Q 1016 1563 777 1677 
Q 538 1791 414 1992 
Q 291 2194 291 2438 
Q 291 2659 392 2848 
Q 494 3038 669 3163 
Q 800 3259 1026 3326 
Q 1253 3394 1513 3394 
Q 1903 3394 2198 3281 
Q 2494 3169 2634 2976 
Q 2775 2784 2828 2463 
L 2278 2388 
Q 2241 2644 2061 2787 
Q 1881 2931 1553 2931 
Q 1166 2931 1000 2803 
Q 834 2675 834 2503 
Q 834 2394 903 2306 
Q 972 2216 1119 2156 
Q 1203 2125 1616 2013 
Q 2213 1853 2448 1751 
Q 2684 1650 2818 1456 
Q 2953 1263 2953 975 
Q 2953 694 2789 445 
Q 2625 197 2315 61 
Q 2006 -75 1616 -75 
Q 969 -75 630 194 
Q 291 463 197 991 
z
" transform="scale(0.015625)"/>
      </defs>
      <use xlink:href="#ArialMT-44"/>
      <use xlink:href="#ArialMT-61" x="72.216797"/>
      <use xlink:href="#ArialMT-79" x="127.832031"/>
      <use xlink:href="#ArialMT-73" x="177.832031"/>
     </g>
    </g>
   </g>
   <g id="matplotlib.axis_2">
    <g id="ytick_1">
     <g id="line2d_5">
      <path d="M 40.25625 120.66375 
L 486.65625 120.66375 
" clip-path="url(#pbb4ecfec94)" style="fill: none; stroke: #ffffff; stroke-width: 0.8; stroke-linecap: round"/>
     </g>
     <g id="text_6">
      <!-- 60 -->
      <g style="fill: #262626" transform="translate(23.05875 123.526875) scale(0.08 -0.08)">
       <defs>
        <path id="ArialMT-36" d="M 3184 3459 
L 2625 3416 
Q 2550 3747 2413 3897 
Q 2184 4138 1850 4138 
Q 1581 4138 1378 3988 
Q 1113 3794 959 3422 
Q 806 3050 800 2363 
Q 1003 2672 1297 2822 
Q 1591 2972 1913 2972 
Q 2475 2972 2870 2558 
Q 3266 2144 3266 1488 
Q 3266 1056 3080 686 
Q 2894 316 2569 119 
Q 2244 -78 1831 -78 
Q 1128 -78 684 439 
Q 241 956 241 2144 
Q 241 3472 731 4075 
Q 1159 4600 1884 4600 
Q 2425 4600 2770 4297 
Q 3116 3994 3184 3459 
z
M 888 1484 
Q 888 1194 1011 928 
Q 1134 663 1356 523 
Q 1578 384 1822 384 
Q 2178 384 2434 671 
Q 2691 959 2691 1453 
Q 2691 1928 2437 2201 
Q 2184 2475 1800 2475 
Q 1419 2475 1153 2201 
Q 888 1928 888 1484 
z
" transform="scale(0.015625)"/>
       </defs>
       <use xlink:href="#ArialMT-36"/>
       <use xlink:href="#ArialMT-30" x="55.615234"/>
      </g>
     </g>
    </g>
    <g id="ytick_2">
     <g id="line2d_6">
      <path d="M 40.25625 102.18375 
L 486.65625 102.18375 
" clip-path="url(#pbb4ecfec94)" style="fill: none; stroke: #ffffff; stroke-width: 0.8; stroke-linecap: round"/>
     </g>
     <g id="text_7">
      <!-- 80 -->
      <g style="fill: #262626" transform="translate(23.05875 105.046875) scale(0.08 -0.08)">
       <use xlink:href="#ArialMT-38"/>
       <use xlink:href="#ArialMT-30" x="55.615234"/>
      </g>
     </g>
    </g>
    <g id="ytick_3">
     <g id="line2d_7">
      <path d="M 40.25625 83.70375 
L 486.65625 83.70375 
" clip-path="url(#pbb4ecfec94)" style="fill: none; stroke: #ffffff; stroke-width: 0.8; stroke-linecap: round"/>
     </g>
     <g id="text_8">
      <!-- 100 -->
      <g style="fill: #262626" transform="translate(18.61 86.566875) scale(0.08 -0.08)">
       <use xlink:href="#ArialMT-31"/>
       <use xlink:href="#ArialMT-30" x="55.615234"/>
       <use xlink:href="#ArialMT-30" x="111.230469"/>
      </g>
     </g>
    </g>
    <g id="ytick_4">
     <g id="line2d_8">
      <path d="M 40.25625 65.22375 
L 486.65625 65.22375 
" clip-path="url(#pbb4ecfec94)" style="fill: none; stroke: #ffffff; stroke-width: 0.8; stroke-linecap: round"/>
     </g>
     <g id="text_9">
      <!-- 120 -->
      <g style="fill: #262626" transform="translate(18.61 68.086875) scale(0.08 -0.08)">
       <use xlink:href="#ArialMT-31"/>
       <use xlink:href="#ArialMT-32" x="55.615234"/>
       <use xlink:href="#ArialMT-30" x="111.230469"/>
      </g>
     </g>
    </g>
    <g id="ytick_5">
     <g id="line2d_9">
      <path d="M 40.25625 46.74375 
L 486.65625 46.74375 
" clip-path="url(#pbb4ecfec94)" style="fill: none; stroke: #ffffff; stroke-width: 0.8; stroke-linecap: round"/>
     </g>
     <g id="text_10">
      <!-- 140 -->
      <g style="fill: #262626" transform="translate(18.61 49.606875) scale(0.08 -0.08)">
       <defs>
        <path id="ArialMT-34" d="M 2069 0 
L 2069 1097 
L 81 1097 
L 81 1613 
L 2172 4581 
L 2631 4581 
L 2631 1613 
L 3250 1613 
L 3250 1097 
L 2631 1097 
L 2631 0 
L 2069 0 
z
M 2069 1613 
L 2069 3678 
L 634 1613 
L 2069 1613 
z
" transform="scale(0.015625)"/>
       </defs>
       <use xlink:href="#ArialMT-31"/>
       <use xlink:href="#ArialMT-34" x="55.615234"/>
       <use xlink:href="#ArialMT-30" x="111.230469"/>
      </g>
     </g>
    </g>
    <g id="ytick_6">
     <g id="line2d_10">
      <path d="M 40.25625 28.26375 
L 486.65625 28.26375 
" clip-path="url(#pbb4ecfec94)" style="fill: none; stroke: #ffffff; stroke-width: 0.8; stroke-linecap: round"/>
     </g>
     <g id="text_11">
      <!-- 160 -->
      <g style="fill: #262626" transform="translate(18.61 31.126875) scale(0.08 -0.08)">
       <use xlink:href="#ArialMT-31"/>
       <use xlink:href="#ArialMT-36" x="55.615234"/>
       <use xlink:href="#ArialMT-30" x="111.230469"/>
      </g>
     </g>
    </g>
    <g id="text_12">
     <!-- Frequency -->
     <g style="fill: #262626" transform="translate(12.92625 93.360625) rotate(-90) scale(0.08 -0.08)">
      <defs>
       <path id="ArialMT-46" d="M 525 0 
L 525 4581 
L 3616 4581 
L 3616 4041 
L 1131 4041 
L 1131 2622 
L 3281 2622 
L 3281 2081 
L 1131 2081 
L 1131 0 
L 525 0 
z
" transform="scale(0.015625)"/>
       <path id="ArialMT-72" d="M 416 0 
L 416 3319 
L 922 3319 
L 922 2816 
Q 1116 3169 1280 3281 
Q 1444 3394 1641 3394 
Q 1925 3394 2219 3213 
L 2025 2691 
Q 1819 2813 1613 2813 
Q 1428 2813 1281 2702 
Q 1134 2591 1072 2394 
Q 978 2094 978 1738 
L 978 0 
L 416 0 
z
" transform="scale(0.015625)"/>
       <path id="ArialMT-65" d="M 2694 1069 
L 3275 997 
Q 3138 488 2766 206 
Q 2394 -75 1816 -75 
Q 1088 -75 661 373 
Q 234 822 234 1631 
Q 234 2469 665 2931 
Q 1097 3394 1784 3394 
Q 2450 3394 2872 2941 
Q 3294 2488 3294 1666 
Q 3294 1616 3291 1516 
L 816 1516 
Q 847 969 1125 678 
Q 1403 388 1819 388 
Q 2128 388 2347 550 
Q 2566 713 2694 1069 
z
M 847 1978 
L 2700 1978 
Q 2663 2397 2488 2606 
Q 2219 2931 1791 2931 
Q 1403 2931 1139 2672 
Q 875 2413 847 1978 
z
" transform="scale(0.015625)"/>
       <path id="ArialMT-71" d="M 2538 -1272 
L 2538 353 
Q 2406 169 2170 47 
Q 1934 -75 1669 -75 
Q 1078 -75 651 397 
Q 225 869 225 1691 
Q 225 2191 398 2587 
Q 572 2984 901 3189 
Q 1231 3394 1625 3394 
Q 2241 3394 2594 2875 
L 2594 3319 
L 3100 3319 
L 3100 -1272 
L 2538 -1272 
z
M 803 1669 
Q 803 1028 1072 708 
Q 1341 388 1716 388 
Q 2075 388 2334 692 
Q 2594 997 2594 1619 
Q 2594 2281 2320 2615 
Q 2047 2950 1678 2950 
Q 1313 2950 1058 2639 
Q 803 2328 803 1669 
z
" transform="scale(0.015625)"/>
       <path id="ArialMT-75" d="M 2597 0 
L 2597 488 
Q 2209 -75 1544 -75 
Q 1250 -75 995 37 
Q 741 150 617 320 
Q 494 491 444 738 
Q 409 903 409 1263 
L 409 3319 
L 972 3319 
L 972 1478 
Q 972 1038 1006 884 
Q 1059 663 1231 536 
Q 1403 409 1656 409 
Q 1909 409 2131 539 
Q 2353 669 2445 892 
Q 2538 1116 2538 1541 
L 2538 3319 
L 3100 3319 
L 3100 0 
L 2597 0 
z
" transform="scale(0.015625)"/>
       <path id="ArialMT-6e" d="M 422 0 
L 422 3319 
L 928 3319 
L 928 2847 
Q 1294 3394 1984 3394 
Q 2284 3394 2536 3286 
Q 2788 3178 2913 3003 
Q 3038 2828 3088 2588 
Q 3119 2431 3119 2041 
L 3119 0 
L 2556 0 
L 2556 2019 
Q 2556 2363 2490 2533 
Q 2425 2703 2258 2804 
Q 2091 2906 1866 2906 
Q 1506 2906 1245 2678 
Q 984 2450 984 1813 
L 984 0 
L 422 0 
z
" transform="scale(0.015625)"/>
       <path id="ArialMT-63" d="M 2588 1216 
L 3141 1144 
Q 3050 572 2676 248 
Q 2303 -75 1759 -75 
Q 1078 -75 664 370 
Q 250 816 250 1647 
Q 250 2184 428 2587 
Q 606 2991 970 3192 
Q 1334 3394 1763 3394 
Q 2303 3394 2647 3120 
Q 2991 2847 3088 2344 
L 2541 2259 
Q 2463 2594 2264 2762 
Q 2066 2931 1784 2931 
Q 1359 2931 1093 2626 
Q 828 2322 828 1663 
Q 828 994 1084 691 
Q 1341 388 1753 388 
Q 2084 388 2306 591 
Q 2528 794 2588 1216 
z
" transform="scale(0.015625)"/>
      </defs>
      <use xlink:href="#ArialMT-46"/>
      <use xlink:href="#ArialMT-72" x="61.083984"/>
      <use xlink:href="#ArialMT-65" x="94.384766"/>
      <use xlink:href="#ArialMT-71" x="150"/>
      <use xlink:href="#ArialMT-75" x="205.615234"/>
      <use xlink:href="#ArialMT-65" x="261.230469"/>
      <use xlink:href="#ArialMT-6e" x="316.845703"/>
      <use xlink:href="#ArialMT-63" x="372.460938"/>
      <use xlink:href="#ArialMT-79" x="422.460938"/>
     </g>
    </g>
   </g>
   <g id="PolyCollection_1">
    <defs>
     <path id="m11993a1046" d="M 60.547159 -40.64862 
L 60.547159 11.97375 
L 67.793912 11.97375 
L 67.793912 11.97375 
L 75.040666 11.97375 
L 75.040666 11.97375 
L 82.287419 11.97375 
L 82.287419 11.97375 
L 89.534172 11.97375 
L 89.534172 11.97375 
L 96.780925 11.97375 
L 96.780925 11.97375 
L 104.027679 11.97375 
L 104.027679 11.97375 
L 111.274432 11.97375 
L 111.274432 11.97375 
L 118.521185 11.97375 
L 118.521185 11.97375 
L 125.767938 11.97375 
L 125.767938 11.97375 
L 133.014692 11.97375 
L 133.014692 11.97375 
L 140.261445 11.97375 
L 140.261445 11.97375 
L 147.508198 11.97375 
L 147.508198 11.97375 
L 154.754951 11.97375 
L 154.754951 11.97375 
L 162.001705 11.97375 
L 162.001705 11.97375 
L 169.248458 11.97375 
L 169.248458 11.97375 
L 176.495211 11.97375 
L 176.495211 11.97375 
L 183.741964 11.97375 
L 183.741964 11.97375 
L 190.988718 11.97375 
L 190.988718 11.97375 
L 198.235471 11.97375 
L 198.235471 11.97375 
L 205.482224 11.97375 
L 205.482224 11.97375 
L 212.728977 11.97375 
L 212.728977 11.97375 
L 219.975731 11.97375 
L 219.975731 11.97375 
L 227.222484 11.97375 
L 227.222484 11.97375 
L 234.469237 11.97375 
L 234.469237 11.97375 
L 241.71599 11.97375 
L 241.71599 11.97375 
L 248.962744 11.97375 
L 248.962744 11.97375 
L 256.209497 11.97375 
L 256.209497 11.97375 
L 263.45625 11.97375 
L 263.45625 11.97375 
L 270.703003 11.97375 
L 270.703003 11.97375 
L 277.949756 11.97375 
L 277.949756 11.97375 
L 285.19651 11.97375 
L 285.19651 11.97375 
L 292.443263 11.97375 
L 292.443263 11.97375 
L 299.690016 11.97375 
L 299.690016 11.97375 
L 306.936769 11.97375 
L 306.936769 11.97375 
L 314.183523 11.97375 
L 314.183523 11.97375 
L 321.430276 11.97375 
L 321.430276 11.97375 
L 328.677029 11.97375 
L 328.677029 11.97375 
L 335.923782 11.97375 
L 335.923782 11.97375 
L 343.170536 11.97375 
L 343.170536 11.97375 
L 350.417289 11.97375 
L 350.417289 11.97375 
L 357.664042 11.97375 
L 357.664042 11.97375 
L 364.910795 11.97375 
L 364.910795 11.97375 
L 372.157549 11.97375 
L 372.157549 11.97375 
L 379.404302 11.97375 
L 379.404302 11.97375 
L 386.651055 11.97375 
L 386.651055 11.97375 
L 393.897808 11.97375 
L 393.897808 11.97375 
L 401.144562 11.97375 
L 401.144562 11.97375 
L 408.391315 11.97375 
L 408.391315 11.97375 
L 415.638068 11.97375 
L 415.638068 11.97375 
L 422.884821 11.97375 
L 422.884821 11.97375 
L 430.131575 11.97375 
L 430.131575 11.97375 
L 437.378328 11.97375 
L 437.378328 11.97375 
L 444.625081 11.97375 
L 444.625081 11.97375 
L 451.871834 11.97375 
L 451.871834 11.97375 
L 459.118588 11.97375 
L 459.118588 11.97375 
L 466.365341 11.97375 
L 466.365341 11.97375 
L 466.365341 -85.685065 
L 466.365341 -85.685065 
L 466.365341 -85.685065 
L 459.118588 -85.685065 
L 459.118588 -82.730546 
L 451.871834 -82.730546 
L 451.871834 -74.346102 
L 444.625081 -74.346102 
L 444.625081 -83.289509 
L 437.378328 -83.289509 
L 437.378328 -77.620028 
L 430.131575 -77.620028 
L 430.131575 -87.601509 
L 422.884821 -87.601509 
L 422.884821 -87.20225 
L 415.638068 -87.20225 
L 415.638068 -91.035139 
L 408.391315 -91.035139 
L 408.391315 -81.133509 
L 401.144562 -81.133509 
L 401.144562 -90.875435 
L 393.897808 -90.875435 
L 393.897808 -85.126102 
L 386.651055 -85.126102 
L 386.651055 -83.688769 
L 379.404302 -83.688769 
L 379.404302 -85.365657 
L 372.157549 -85.365657 
L 372.157549 -79.45662 
L 364.910795 -79.45662 
L 364.910795 -74.425954 
L 357.664042 -74.425954 
L 357.664042 -80.73425 
L 350.417289 -80.73425 
L 350.417289 -87.761213 
L 343.170536 -87.761213 
L 343.170536 -82.171583 
L 335.923782 -82.171583 
L 335.923782 -79.776028 
L 328.677029 -79.776028 
L 328.677029 -72.828917 
L 321.430276 -72.828917 
L 321.430276 -86.403731 
L 314.183523 -86.403731 
L 314.183523 -76.741657 
L 306.936769 -76.741657 
L 306.936769 -87.20225 
L 299.690016 -87.20225 
L 299.690016 -88.639583 
L 292.443263 -88.639583 
L 292.443263 -65.562398 
L 285.19651 -65.562398 
L 285.19651 -73.547583 
L 277.949756 -73.547583 
L 277.949756 -87.042546 
L 270.703003 -87.042546 
L 270.703003 -91.434398 
L 263.45625 -91.434398 
L 263.45625 -89.118694 
L 256.209497 -89.118694 
L 256.209497 -105.32862 
L 248.962744 -105.32862 
L 248.962744 -112.355583 
L 241.71599 -112.355583 
L 241.71599 -100.617361 
L 234.469237 -100.617361 
L 234.469237 -98.461361 
L 227.222484 -98.461361 
L 227.222484 -91.354546 
L 219.975731 -91.354546 
L 219.975731 -90.556028 
L 212.728977 -90.556028 
L 212.728977 -87.042546 
L 205.482224 -87.042546 
L 205.482224 -79.536472 
L 198.235471 -79.536472 
L 198.235471 -81.532769 
L 190.988718 -81.532769 
L 190.988718 -78.258843 
L 183.741964 -78.258843 
L 183.741964 -72.429657 
L 176.495211 -72.429657 
L 176.495211 -68.596769 
L 169.248458 -68.596769 
L 169.248458 -68.596769 
L 162.001705 -68.596769 
L 162.001705 -60.611583 
L 154.754951 -60.611583 
L 154.754951 -53.904028 
L 147.508198 -53.904028 
L 147.508198 -60.771287 
L 140.261445 -60.771287 
L 140.261445 -51.668176 
L 133.014692 -51.668176 
L 133.014692 -56.858546 
L 125.767938 -56.858546 
L 125.767938 -49.831583 
L 118.521185 -49.831583 
L 118.521185 -48.953213 
L 111.274432 -48.953213 
L 111.274432 -51.109213 
L 104.027679 -51.109213 
L 104.027679 -51.588324 
L 96.780925 -51.588324 
L 96.780925 -51.029361 
L 89.534172 -51.029361 
L 89.534172 -47.994991 
L 82.287419 -47.994991 
L 82.287419 -41.766546 
L 75.040666 -41.766546 
L 75.040666 -46.397954 
L 67.793912 -46.397954 
L 67.793912 -40.64862 
L 60.547159 -40.64862 
z
" style="stroke: #dd8452; stroke-width: 0.8"/>
    </defs>
    <g clip-path="url(#pbb4ecfec94)">
     <use xlink:href="#m11993a1046" x="0" y="164.13" style="fill: #dd8452; fill-opacity: 0.25; stroke: #dd8452; stroke-width: 0.8"/>
    </g>
   </g>
   <g id="PolyCollection_2">
    <defs>
     <path id="mb051275c08" d="M 60.547159 -60.930991 
L 60.547159 11.97375 
L 67.793912 11.97375 
L 67.793912 11.97375 
L 75.040666 11.97375 
L 75.040666 11.97375 
L 82.287419 11.97375 
L 82.287419 11.97375 
L 89.534172 11.97375 
L 89.534172 11.97375 
L 96.780925 11.97375 
L 96.780925 11.97375 
L 104.027679 11.97375 
L 104.027679 11.97375 
L 111.274432 11.97375 
L 111.274432 11.97375 
L 118.521185 11.97375 
L 118.521185 11.97375 
L 125.767938 11.97375 
L 125.767938 11.97375 
L 133.014692 11.97375 
L 133.014692 11.97375 
L 140.261445 11.97375 
L 140.261445 11.97375 
L 147.508198 11.97375 
L 147.508198 11.97375 
L 154.754951 11.97375 
L 154.754951 11.97375 
L 162.001705 11.97375 
L 162.001705 11.97375 
L 169.248458 11.97375 
L 169.248458 11.97375 
L 176.495211 11.97375 
L 176.495211 11.97375 
L 183.741964 11.97375 
L 183.741964 11.97375 
L 190.988718 11.97375 
L 190.988718 11.97375 
L 198.235471 11.97375 
L 198.235471 11.97375 
L 205.482224 11.97375 
L 205.482224 11.97375 
L 212.728977 11.97375 
L 212.728977 11.97375 
L 219.975731 11.97375 
L 219.975731 11.97375 
L 227.222484 11.97375 
L 227.222484 11.97375 
L 234.469237 11.97375 
L 234.469237 11.97375 
L 241.71599 11.97375 
L 241.71599 11.97375 
L 248.962744 11.97375 
L 248.962744 11.97375 
L 256.209497 11.97375 
L 256.209497 11.97375 
L 263.45625 11.97375 
L 263.45625 11.97375 
L 270.703003 11.97375 
L 270.703003 11.97375 
L 277.949756 11.97375 
L 277.949756 11.97375 
L 285.19651 11.97375 
L 285.19651 11.97375 
L 292.443263 11.97375 
L 292.443263 11.97375 
L 299.690016 11.97375 
L 299.690016 11.97375 
L 306.936769 11.97375 
L 306.936769 11.97375 
L 314.183523 11.97375 
L 314.183523 11.97375 
L 321.430276 11.97375 
L 321.430276 11.97375 
L 328.677029 11.97375 
L 328.677029 11.97375 
L 335.923782 11.97375 
L 335.923782 11.97375 
L 343.170536 11.97375 
L 343.170536 11.97375 
L 350.417289 11.97375 
L 350.417289 11.97375 
L 357.664042 11.97375 
L 357.664042 11.97375 
L 364.910795 11.97375 
L 364.910795 11.97375 
L 372.157549 11.97375 
L 372.157549 11.97375 
L 379.404302 11.97375 
L 379.404302 11.97375 
L 386.651055 11.97375 
L 386.651055 11.97375 
L 393.897808 11.97375 
L 393.897808 11.97375 
L 401.144562 11.97375 
L 401.144562 11.97375 
L 408.391315 11.97375 
L 408.391315 11.97375 
L 415.638068 11.97375 
L 415.638068 11.97375 
L 422.884821 11.97375 
L 422.884821 11.97375 
L 430.131575 11.97375 
L 430.131575 11.97375 
L 437.378328 11.97375 
L 437.378328 11.97375 
L 444.625081 11.97375 
L 444.625081 11.97375 
L 451.871834 11.97375 
L 451.871834 11.97375 
L 459.118588 11.97375 
L 459.118588 11.97375 
L 466.365341 11.97375 
L 466.365341 11.97375 
L 466.365341 -111.317509 
L 466.365341 -111.317509 
L 466.365341 -111.317509 
L 459.118588 -111.317509 
L 459.118588 -106.127139 
L 451.871834 -106.127139 
L 451.871834 -107.724176 
L 444.625081 -107.724176 
L 444.625081 -120.660176 
L 437.378328 -120.660176 
L 437.378328 -122.017657 
L 430.131575 -122.017657 
L 430.131575 -139.82462 
L 422.884821 -139.82462 
L 422.884821 -119.302694 
L 415.638068 -119.302694 
L 415.638068 -127.846843 
L 408.391315 -127.846843 
L 408.391315 -108.442843 
L 401.144562 -108.442843 
L 401.144562 -130.481954 
L 393.897808 -130.481954 
L 393.897808 -113.07425 
L 386.651055 -113.07425 
L 386.651055 -108.602546 
L 379.404302 -108.602546 
L 379.404302 -110.359287 
L 372.157549 -110.359287 
L 372.157549 -102.054694 
L 364.910795 -102.054694 
L 364.910795 -98.301657 
L 357.664042 -98.301657 
L 357.664042 -102.773361 
L 350.417289 -102.773361 
L 350.417289 -102.693509 
L 343.170536 -102.693509 
L 343.170536 -97.662843 
L 335.923782 -97.662843 
L 335.923782 -86.004472 
L 328.677029 -86.004472 
L 328.677029 -87.841065 
L 321.430276 -87.841065 
L 321.430276 -95.586694 
L 314.183523 -95.586694 
L 314.183523 -87.601509 
L 306.936769 -87.601509 
L 306.936769 -96.145657 
L 299.690016 -96.145657 
L 299.690016 -112.275731 
L 292.443263 -112.275731 
L 292.443263 -79.057361 
L 285.19651 -79.057361 
L 285.19651 -83.209657 
L 277.949756 -83.209657 
L 277.949756 -118.424324 
L 270.703003 -118.424324 
L 270.703003 -106.366694 
L 263.45625 -106.366694 
L 263.45625 -113.393657 
L 256.209497 -113.393657 
L 256.209497 -118.504176 
L 248.962744 -118.504176 
L 248.962744 -121.618398 
L 241.71599 -121.618398 
L 241.71599 -116.188472 
L 234.469237 -116.188472 
L 234.469237 -110.91825 
L 227.222484 -110.91825 
L 227.222484 -114.112324 
L 219.975731 -114.112324 
L 219.975731 -110.598843 
L 212.728977 -110.598843 
L 212.728977 -109.560769 
L 205.482224 -109.560769 
L 205.482224 -109.001806 
L 198.235471 -109.001806 
L 198.235471 -140.942546 
L 190.988718 -140.942546 
L 190.988718 -117.066843 
L 183.741964 -117.066843 
L 183.741964 -105.32862 
L 176.495211 -105.32862 
L 176.495211 -106.765954 
L 169.248458 -106.765954 
L 169.248458 -94.229213 
L 162.001705 -94.229213 
L 162.001705 -93.350843 
L 154.754951 -93.350843 
L 154.754951 -80.095435 
L 147.508198 -80.095435 
L 147.508198 -88.400028 
L 140.261445 -88.400028 
L 140.261445 -79.616324 
L 133.014692 -79.616324 
L 133.014692 -73.866991 
L 125.767938 -73.866991 
L 125.767938 -67.79825 
L 118.521185 -67.79825 
L 118.521185 -77.220769 
L 111.274432 -77.220769 
L 111.274432 -80.893954 
L 104.027679 -80.893954 
L 104.027679 -67.878102 
L 96.780925 -67.878102 
L 96.780925 -60.372028 
L 89.534172 -60.372028 
L 89.534172 -70.83262 
L 82.287419 -70.83262 
L 82.287419 -56.459287 
L 75.040666 -56.459287 
L 75.040666 -72.190102 
L 67.793912 -72.190102 
L 67.793912 -60.930991 
L 60.547159 -60.930991 
z
" style="stroke: #4c72b0; stroke-width: 0.8"/>
    </defs>
    <g clip-path="url(#pbb4ecfec94)">
     <use xlink:href="#mb051275c08" x="0" y="164.13" style="fill: #4c72b0; fill-opacity: 0.25; stroke: #4c72b0; stroke-width: 0.8"/>
    </g>
   </g>
   <g id="patch_3">
    <path d="M 40.25625 129.90375 
L 40.25625 19.02375 
" style="fill: none; stroke: #ffffff; stroke-linejoin: miter; stroke-linecap: square"/>
   </g>
   <g id="patch_4">
    <path d="M 486.65625 129.90375 
L 486.65625 19.02375 
" style="fill: none; stroke: #ffffff; stroke-linejoin: miter; stroke-linecap: square"/>
   </g>
   <g id="patch_5">
    <path d="M 40.25625 129.90375 
L 486.65625 129.90375 
" style="fill: none; stroke: #ffffff; stroke-linejoin: miter; stroke-linecap: square"/>
   </g>
   <g id="patch_6">
    <path d="M 40.25625 19.02375 
L 486.65625 19.02375 
" style="fill: none; stroke: #ffffff; stroke-linejoin: miter; stroke-linecap: square"/>
   </g>
   <g id="text_13">
    <!-- Chicago -->
    <g style="fill: #262626" transform="translate(248.78125 13.02375) scale(0.08 -0.08)">
     <defs>
      <path id="ArialMT-43" d="M 3763 1606 
L 4369 1453 
Q 4178 706 3683 314 
Q 3188 -78 2472 -78 
Q 1731 -78 1267 223 
Q 803 525 561 1097 
Q 319 1669 319 2325 
Q 319 3041 592 3573 
Q 866 4106 1370 4382 
Q 1875 4659 2481 4659 
Q 3169 4659 3637 4309 
Q 4106 3959 4291 3325 
L 3694 3184 
Q 3534 3684 3231 3912 
Q 2928 4141 2469 4141 
Q 1941 4141 1586 3887 
Q 1231 3634 1087 3207 
Q 944 2781 944 2328 
Q 944 1744 1114 1308 
Q 1284 872 1643 656 
Q 2003 441 2422 441 
Q 2931 441 3284 734 
Q 3638 1028 3763 1606 
z
" transform="scale(0.015625)"/>
      <path id="ArialMT-68" d="M 422 0 
L 422 4581 
L 984 4581 
L 984 2938 
Q 1378 3394 1978 3394 
Q 2347 3394 2619 3248 
Q 2891 3103 3008 2847 
Q 3125 2591 3125 2103 
L 3125 0 
L 2563 0 
L 2563 2103 
Q 2563 2525 2380 2717 
Q 2197 2909 1863 2909 
Q 1613 2909 1392 2779 
Q 1172 2650 1078 2428 
Q 984 2206 984 1816 
L 984 0 
L 422 0 
z
" transform="scale(0.015625)"/>
      <path id="ArialMT-69" d="M 425 3934 
L 425 4581 
L 988 4581 
L 988 3934 
L 425 3934 
z
M 425 0 
L 425 3319 
L 988 3319 
L 988 0 
L 425 0 
z
" transform="scale(0.015625)"/>
      <path id="ArialMT-67" d="M 319 -275 
L 866 -356 
Q 900 -609 1056 -725 
Q 1266 -881 1628 -881 
Q 2019 -881 2231 -725 
Q 2444 -569 2519 -288 
Q 2563 -116 2559 434 
Q 2191 0 1641 0 
Q 956 0 581 494 
Q 206 988 206 1678 
Q 206 2153 378 2554 
Q 550 2956 876 3175 
Q 1203 3394 1644 3394 
Q 2231 3394 2613 2919 
L 2613 3319 
L 3131 3319 
L 3131 450 
Q 3131 -325 2973 -648 
Q 2816 -972 2473 -1159 
Q 2131 -1347 1631 -1347 
Q 1038 -1347 672 -1080 
Q 306 -813 319 -275 
z
M 784 1719 
Q 784 1066 1043 766 
Q 1303 466 1694 466 
Q 2081 466 2343 764 
Q 2606 1063 2606 1700 
Q 2606 2309 2336 2618 
Q 2066 2928 1684 2928 
Q 1309 2928 1046 2623 
Q 784 2319 784 1719 
z
" transform="scale(0.015625)"/>
      <path id="ArialMT-6f" d="M 213 1659 
Q 213 2581 725 3025 
Q 1153 3394 1769 3394 
Q 2453 3394 2887 2945 
Q 3322 2497 3322 1706 
Q 3322 1066 3130 698 
Q 2938 331 2570 128 
Q 2203 -75 1769 -75 
Q 1072 -75 642 372 
Q 213 819 213 1659 
z
M 791 1659 
Q 791 1022 1069 705 
Q 1347 388 1769 388 
Q 2188 388 2466 706 
Q 2744 1025 2744 1678 
Q 2744 2294 2464 2611 
Q 2184 2928 1769 2928 
Q 1347 2928 1069 2612 
Q 791 2297 791 1659 
z
" transform="scale(0.015625)"/>
     </defs>
     <use xlink:href="#ArialMT-43"/>
     <use xlink:href="#ArialMT-68" x="72.216797"/>
     <use xlink:href="#ArialMT-69" x="127.832031"/>
     <use xlink:href="#ArialMT-63" x="150.048828"/>
     <use xlink:href="#ArialMT-61" x="200.048828"/>
     <use xlink:href="#ArialMT-67" x="255.664062"/>
     <use xlink:href="#ArialMT-6f" x="311.279297"/>
    </g>
   </g>
   <g id="legend_1">
    <g id="patch_7">
     <path d="M 449.80955 126.38375 
L 481.72825 126.38375 
Q 483.13625 126.38375 483.13625 124.97575 
L 483.13625 95.12955 
Q 483.13625 93.72155 481.72825 93.72155 
L 449.80955 93.72155 
Q 448.40155 93.72155 448.40155 95.12955 
L 448.40155 124.97575 
Q 448.40155 126.38375 449.80955 126.38375 
z
" style="fill: #eaeaf2; opacity: 0.8; stroke: #cccccc; stroke-width: 0.8; stroke-linejoin: miter"/>
    </g>
    <g id="text_14">
     <!-- Region -->
     <g style="fill: #262626" transform="translate(453.6009 102.03475) scale(0.0768 -0.0768)">
      <defs>
       <path id="ArialMT-52" d="M 503 0 
L 503 4581 
L 2534 4581 
Q 3147 4581 3465 4457 
Q 3784 4334 3975 4021 
Q 4166 3709 4166 3331 
Q 4166 2844 3850 2509 
Q 3534 2175 2875 2084 
Q 3116 1969 3241 1856 
Q 3506 1613 3744 1247 
L 4541 0 
L 3778 0 
L 3172 953 
Q 2906 1366 2734 1584 
Q 2563 1803 2427 1890 
Q 2291 1978 2150 2013 
Q 2047 2034 1813 2034 
L 1109 2034 
L 1109 0 
L 503 0 
z
M 1109 2559 
L 2413 2559 
Q 2828 2559 3062 2645 
Q 3297 2731 3419 2920 
Q 3541 3109 3541 3331 
Q 3541 3656 3305 3865 
Q 3069 4075 2559 4075 
L 1109 4075 
L 1109 2559 
z
" transform="scale(0.015625)"/>
      </defs>
      <use xlink:href="#ArialMT-52"/>
      <use xlink:href="#ArialMT-65" x="72.216797"/>
      <use xlink:href="#ArialMT-67" x="127.832031"/>
      <use xlink:href="#ArialMT-69" x="183.447266"/>
      <use xlink:href="#ArialMT-6f" x="205.664062"/>
      <use xlink:href="#ArialMT-6e" x="261.279297"/>
     </g>
    </g>
    <g id="patch_8">
     <path d="M 451.21755 112.21025 
L 465.29755 112.21025 
L 465.29755 107.28225 
L 451.21755 107.28225 
z
" style="fill: #4c72b0; fill-opacity: 0.25; stroke: #4c72b0; stroke-width: 0.8; stroke-linejoin: miter"/>
    </g>
    <g id="text_15">
     <!-- G1 -->
     <g style="fill: #262626" transform="translate(470.92955 112.21025) scale(0.0704 -0.0704)">
      <defs>
       <path id="ArialMT-47" d="M 2638 1797 
L 2638 2334 
L 4578 2338 
L 4578 638 
Q 4131 281 3656 101 
Q 3181 -78 2681 -78 
Q 2006 -78 1454 211 
Q 903 500 622 1047 
Q 341 1594 341 2269 
Q 341 2938 620 3517 
Q 900 4097 1425 4378 
Q 1950 4659 2634 4659 
Q 3131 4659 3532 4498 
Q 3934 4338 4162 4050 
Q 4391 3763 4509 3300 
L 3963 3150 
Q 3859 3500 3706 3700 
Q 3553 3900 3268 4020 
Q 2984 4141 2638 4141 
Q 2222 4141 1919 4014 
Q 1616 3888 1430 3681 
Q 1244 3475 1141 3228 
Q 966 2803 966 2306 
Q 966 1694 1177 1281 
Q 1388 869 1791 669 
Q 2194 469 2647 469 
Q 3041 469 3416 620 
Q 3791 772 3984 944 
L 3984 1797 
L 2638 1797 
z
" transform="scale(0.015625)"/>
      </defs>
      <use xlink:href="#ArialMT-47"/>
      <use xlink:href="#ArialMT-31" x="77.783203"/>
     </g>
    </g>
    <g id="patch_9">
     <path d="M 451.21755 122.16855 
L 465.29755 122.16855 
L 465.29755 117.24055 
L 451.21755 117.24055 
z
" style="fill: #dd8452; fill-opacity: 0.25; stroke: #dd8452; stroke-width: 0.8; stroke-linejoin: miter"/>
    </g>
    <g id="text_16">
     <!-- G2 -->
     <g style="fill: #262626" transform="translate(470.92955 122.16855) scale(0.0704 -0.0704)">
      <use xlink:href="#ArialMT-47"/>
      <use xlink:href="#ArialMT-32" x="77.783203"/>
     </g>
    </g>
   </g>
  </g>
 </g>
 <defs>
  <clipPath id="pbb4ecfec94">
   <rect x="40.25625" y="19.02375" width="446.4" height="110.88"/>
  </clipPath>
 </defs>
</svg>
