<?xml version="1.0" encoding="utf-8" standalone="no"?>
<!DOCTYPE svg PUBLIC "-//W3C//DTD SVG 1.1//EN"
  "http://www.w3.org/Graphics/SVG/1.1/DTD/svg11.dtd">
<svg xmlns:xlink="http://www.w3.org/1999/xlink" width="971.224375pt" height="359.853875pt" viewBox="0 0 971.224375 359.853875" xmlns="http://www.w3.org/2000/svg" version="1.1">
 <metadata>
  <rdf:RDF xmlns:dc="http://purl.org/dc/elements/1.1/" xmlns:cc="http://creativecommons.org/ns#" xmlns:rdf="http://www.w3.org/1999/02/22-rdf-syntax-ns#">
   <cc:Work>
    <dc:type rdf:resource="http://purl.org/dc/dcmitype/StillImage"/>
    <dc:date>2023-11-07T15:17:56.913749</dc:date>
    <dc:format>image/svg+xml</dc:format>
    <dc:creator>
     <cc:Agent>
      <dc:title>Matplotlib v3.7.1, https://matplotlib.org/</dc:title>
     </cc:Agent>
    </dc:creator>
   </cc:Work>
  </rdf:RDF>
 </metadata>
 <defs>
  <style type="text/css">*{stroke-linejoin: round; stroke-linecap: butt}</style>
 </defs>
 <g id="figure_1">
  <g id="patch_1">
   <path d="M 0 359.853875 
L 971.224375 359.853875 
L 971.224375 0 
L 0 0 
z
" style="fill: #ffffff"/>
  </g>
  <g id="axes_1">
   <g id="patch_2">
    <path d="M 58.525625 306.812625 
L 304.702096 306.812625 
L 304.702096 29.612625 
L 58.525625 29.612625 
z
" style="fill: #ffffff"/>
   </g>
   <g id="PolyCollection_1">
    <defs>
     <path id="md77bb216d6" d="M 69.715465 -177.047697 
L 69.715465 -81.176732 
L 77.175358 -136.819584 
L 84.635251 -151.953107 
L 92.095144 -106.305805 
L 99.555037 -98.489664 
L 107.01493 -130.725927 
L 114.474823 -83.761044 
L 121.934716 -90.107545 
L 129.394609 -156.282419 
L 136.854502 -88.917643 
L 144.314395 -113.175423 
L 151.774288 -118.372283 
L 159.234181 -65.64125 
L 166.694074 -103.460615 
L 174.153967 -108.933996 
L 181.61386 -102.594377 
L 189.073753 -110.776224 
L 196.533646 -97.890893 
L 203.993539 -122.535378 
L 211.453432 -130.964238 
L 218.913326 -102.804496 
L 226.373219 -137.743042 
L 233.833112 -103.222557 
L 241.293005 -128.335437 
L 248.752898 -112.309056 
L 256.212791 -99.846715 
L 263.672684 -94.236796 
L 271.132577 -75.325336 
L 278.59247 -93.530597 
L 286.052363 -122.222939 
L 293.512256 -120.727964 
L 293.512256 -135.65026 
L 293.512256 -135.65026 
L 286.052363 -252.931251 
L 278.59247 -132.35994 
L 271.132577 -247.978378 
L 263.672684 -155.099418 
L 256.212791 -171.68445 
L 248.752898 -248.023907 
L 241.293005 -187.205746 
L 233.833112 -216.826745 
L 226.373219 -238.932702 
L 218.913326 -200.078179 
L 211.453432 -166.538043 
L 203.993539 -290.945531 
L 196.533646 -256.37929 
L 189.073753 -219.213086 
L 181.61386 -213.864301 
L 174.153967 -196.617894 
L 166.694074 -226.824467 
L 159.234181 -140.543467 
L 151.774288 -257.079484 
L 144.314395 -273.623661 
L 136.854502 -186.449132 
L 129.394609 -202.609095 
L 121.934716 -184.29728 
L 114.474823 -165.995743 
L 107.01493 -247.215277 
L 99.555037 -212.749458 
L 92.095144 -220.643183 
L 84.635251 -183.017023 
L 77.175358 -191.206343 
L 69.715465 -177.047697 
z
" style="stroke: #ff0000; stroke-opacity: 0.2"/>
    </defs>
    <g clip-path="url(#pc5e70bba0a)">
     <use xlink:href="#md77bb216d6" x="0" y="359.853875" style="fill: #ff0000; fill-opacity: 0.2; stroke: #ff0000; stroke-opacity: 0.2"/>
    </g>
   </g>
   <g id="matplotlib.axis_1">
    <g id="xtick_1">
     <g id="line2d_1">
      <defs>
       <path id="m9bfada5de7" d="M 0 0 
L 0 3.5 
" style="stroke: #000000; stroke-width: 0.8"/>
      </defs>
      <g>
       <use xlink:href="#m9bfada5de7" x="62.255572" y="306.812625" style="stroke: #000000; stroke-width: 0.8"/>
      </g>
     </g>
     <g id="text_1">
      <!-- 0 -->
      <g transform="translate(56.529322 327.489813) scale(0.18 -0.18)">
       <defs>
        <path id="DejaVuSans-30" d="M 2034 4250 
Q 1547 4250 1301 3770 
Q 1056 3291 1056 2328 
Q 1056 1369 1301 889 
Q 1547 409 2034 409 
Q 2525 409 2770 889 
Q 3016 1369 3016 2328 
Q 3016 3291 2770 3770 
Q 2525 4250 2034 4250 
z
M 2034 4750 
Q 2819 4750 3233 4129 
Q 3647 3509 3647 2328 
Q 3647 1150 3233 529 
Q 2819 -91 2034 -91 
Q 1250 -91 836 529 
Q 422 1150 422 2328 
Q 422 3509 836 4129 
Q 1250 4750 2034 4750 
z
" transform="scale(0.015625)"/>
       </defs>
       <use xlink:href="#DejaVuSans-30"/>
      </g>
     </g>
    </g>
    <g id="xtick_2">
     <g id="line2d_2">
      <g>
       <use xlink:href="#m9bfada5de7" x="136.854502" y="306.812625" style="stroke: #000000; stroke-width: 0.8"/>
      </g>
     </g>
     <g id="text_2">
      <!-- 10 -->
      <g transform="translate(125.402002 327.489813) scale(0.18 -0.18)">
       <defs>
        <path id="DejaVuSans-31" d="M 794 531 
L 1825 531 
L 1825 4091 
L 703 3866 
L 703 4441 
L 1819 4666 
L 2450 4666 
L 2450 531 
L 3481 531 
L 3481 0 
L 794 0 
L 794 531 
z
" transform="scale(0.015625)"/>
       </defs>
       <use xlink:href="#DejaVuSans-31"/>
       <use xlink:href="#DejaVuSans-30" x="63.623047"/>
      </g>
     </g>
    </g>
    <g id="xtick_3">
     <g id="line2d_3">
      <g>
       <use xlink:href="#m9bfada5de7" x="211.453432" y="306.812625" style="stroke: #000000; stroke-width: 0.8"/>
      </g>
     </g>
     <g id="text_3">
      <!-- 20 -->
      <g transform="translate(200.000932 327.489813) scale(0.18 -0.18)">
       <defs>
        <path id="DejaVuSans-32" d="M 1228 531 
L 3431 531 
L 3431 0 
L 469 0 
L 469 531 
Q 828 903 1448 1529 
Q 2069 2156 2228 2338 
Q 2531 2678 2651 2914 
Q 2772 3150 2772 3378 
Q 2772 3750 2511 3984 
Q 2250 4219 1831 4219 
Q 1534 4219 1204 4116 
Q 875 4013 500 3803 
L 500 4441 
Q 881 4594 1212 4672 
Q 1544 4750 1819 4750 
Q 2544 4750 2975 4387 
Q 3406 4025 3406 3419 
Q 3406 3131 3298 2873 
Q 3191 2616 2906 2266 
Q 2828 2175 2409 1742 
Q 1991 1309 1228 531 
z
" transform="scale(0.015625)"/>
       </defs>
       <use xlink:href="#DejaVuSans-32"/>
       <use xlink:href="#DejaVuSans-30" x="63.623047"/>
      </g>
     </g>
    </g>
    <g id="xtick_4">
     <g id="line2d_4">
      <g>
       <use xlink:href="#m9bfada5de7" x="286.052363" y="306.812625" style="stroke: #000000; stroke-width: 0.8"/>
      </g>
     </g>
     <g id="text_4">
      <!-- 30 -->
      <g transform="translate(274.599863 327.489813) scale(0.18 -0.18)">
       <defs>
        <path id="DejaVuSans-33" d="M 2597 2516 
Q 3050 2419 3304 2112 
Q 3559 1806 3559 1356 
Q 3559 666 3084 287 
Q 2609 -91 1734 -91 
Q 1441 -91 1130 -33 
Q 819 25 488 141 
L 488 750 
Q 750 597 1062 519 
Q 1375 441 1716 441 
Q 2309 441 2620 675 
Q 2931 909 2931 1356 
Q 2931 1769 2642 2001 
Q 2353 2234 1838 2234 
L 1294 2234 
L 1294 2753 
L 1863 2753 
Q 2328 2753 2575 2939 
Q 2822 3125 2822 3475 
Q 2822 3834 2567 4026 
Q 2313 4219 1838 4219 
Q 1578 4219 1281 4162 
Q 984 4106 628 3988 
L 628 4550 
Q 988 4650 1302 4700 
Q 1616 4750 1894 4750 
Q 2613 4750 3031 4423 
Q 3450 4097 3450 3541 
Q 3450 3153 3228 2886 
Q 3006 2619 2597 2516 
z
" transform="scale(0.015625)"/>
       </defs>
       <use xlink:href="#DejaVuSans-33"/>
       <use xlink:href="#DejaVuSans-30" x="63.623047"/>
      </g>
     </g>
    </g>
    <g id="text_5">
     <!-- Day -->
     <g transform="translate(163.841673 348.910438) scale(0.18 -0.18)">
      <defs>
       <path id="DejaVuSans-44" d="M 1259 4147 
L 1259 519 
L 2022 519 
Q 2988 519 3436 956 
Q 3884 1394 3884 2338 
Q 3884 3275 3436 3711 
Q 2988 4147 2022 4147 
L 1259 4147 
z
M 628 4666 
L 1925 4666 
Q 3281 4666 3915 4102 
Q 4550 3538 4550 2338 
Q 4550 1131 3912 565 
Q 3275 0 1925 0 
L 628 0 
L 628 4666 
z
" transform="scale(0.015625)"/>
       <path id="DejaVuSans-61" d="M 2194 1759 
Q 1497 1759 1228 1600 
Q 959 1441 959 1056 
Q 959 750 1161 570 
Q 1363 391 1709 391 
Q 2188 391 2477 730 
Q 2766 1069 2766 1631 
L 2766 1759 
L 2194 1759 
z
M 3341 1997 
L 3341 0 
L 2766 0 
L 2766 531 
Q 2569 213 2275 61 
Q 1981 -91 1556 -91 
Q 1019 -91 701 211 
Q 384 513 384 1019 
Q 384 1609 779 1909 
Q 1175 2209 1959 2209 
L 2766 2209 
L 2766 2266 
Q 2766 2663 2505 2880 
Q 2244 3097 1772 3097 
Q 1472 3097 1187 3025 
Q 903 2953 641 2809 
L 641 3341 
Q 956 3463 1253 3523 
Q 1550 3584 1831 3584 
Q 2591 3584 2966 3190 
Q 3341 2797 3341 1997 
z
" transform="scale(0.015625)"/>
       <path id="DejaVuSans-79" d="M 2059 -325 
Q 1816 -950 1584 -1140 
Q 1353 -1331 966 -1331 
L 506 -1331 
L 506 -850 
L 844 -850 
Q 1081 -850 1212 -737 
Q 1344 -625 1503 -206 
L 1606 56 
L 191 3500 
L 800 3500 
L 1894 763 
L 2988 3500 
L 3597 3500 
L 2059 -325 
z
" transform="scale(0.015625)"/>
      </defs>
      <use xlink:href="#DejaVuSans-44"/>
      <use xlink:href="#DejaVuSans-61" x="77.001953"/>
      <use xlink:href="#DejaVuSans-79" x="138.28125"/>
     </g>
    </g>
   </g>
   <g id="matplotlib.axis_2">
    <g id="ytick_1">
     <g id="line2d_5">
      <defs>
       <path id="mab516a5b6b" d="M 0 0 
L -3.5 0 
" style="stroke: #000000; stroke-width: 0.8"/>
      </defs>
      <g>
       <use xlink:href="#mab516a5b6b" x="58.525625" y="293.698145" style="stroke: #000000; stroke-width: 0.8"/>
      </g>
     </g>
     <g id="text_6">
      <!-- 0 -->
      <g transform="translate(40.073125 300.536739) scale(0.18 -0.18)">
       <use xlink:href="#DejaVuSans-30"/>
      </g>
     </g>
    </g>
    <g id="ytick_2">
     <g id="line2d_6">
      <g>
       <use xlink:href="#mab516a5b6b" x="58.525625" y="216.651801" style="stroke: #000000; stroke-width: 0.8"/>
      </g>
     </g>
     <g id="text_7">
      <!-- 5 -->
      <g transform="translate(40.073125 223.490395) scale(0.18 -0.18)">
       <defs>
        <path id="DejaVuSans-35" d="M 691 4666 
L 3169 4666 
L 3169 4134 
L 1269 4134 
L 1269 2991 
Q 1406 3038 1543 3061 
Q 1681 3084 1819 3084 
Q 2600 3084 3056 2656 
Q 3513 2228 3513 1497 
Q 3513 744 3044 326 
Q 2575 -91 1722 -91 
Q 1428 -91 1123 -41 
Q 819 9 494 109 
L 494 744 
Q 775 591 1075 516 
Q 1375 441 1709 441 
Q 2250 441 2565 725 
Q 2881 1009 2881 1497 
Q 2881 1984 2565 2268 
Q 2250 2553 1709 2553 
Q 1456 2553 1204 2497 
Q 953 2441 691 2322 
L 691 4666 
z
" transform="scale(0.015625)"/>
       </defs>
       <use xlink:href="#DejaVuSans-35"/>
      </g>
     </g>
    </g>
    <g id="ytick_3">
     <g id="line2d_7">
      <g>
       <use xlink:href="#mab516a5b6b" x="58.525625" y="139.605457" style="stroke: #000000; stroke-width: 0.8"/>
      </g>
     </g>
     <g id="text_8">
      <!-- 10 -->
      <g transform="translate(28.620625 146.44405) scale(0.18 -0.18)">
       <use xlink:href="#DejaVuSans-31"/>
       <use xlink:href="#DejaVuSans-30" x="63.623047"/>
      </g>
     </g>
    </g>
    <g id="ytick_4">
     <g id="line2d_8">
      <g>
       <use xlink:href="#mab516a5b6b" x="58.525625" y="62.559112" style="stroke: #000000; stroke-width: 0.8"/>
      </g>
     </g>
     <g id="text_9">
      <!-- 15 -->
      <g transform="translate(28.620625 69.397706) scale(0.18 -0.18)">
       <use xlink:href="#DejaVuSans-31"/>
       <use xlink:href="#DejaVuSans-35" x="63.623047"/>
      </g>
     </g>
    </g>
    <g id="text_10">
     <!-- Gini -->
     <g style="fill: #ff0000" transform="translate(20.877188 185.890594) rotate(-90) scale(0.18 -0.18)">
      <defs>
       <path id="DejaVuSans-47" d="M 3809 666 
L 3809 1919 
L 2778 1919 
L 2778 2438 
L 4434 2438 
L 4434 434 
Q 4069 175 3628 42 
Q 3188 -91 2688 -91 
Q 1594 -91 976 548 
Q 359 1188 359 2328 
Q 359 3472 976 4111 
Q 1594 4750 2688 4750 
Q 3144 4750 3555 4637 
Q 3966 4525 4313 4306 
L 4313 3634 
Q 3963 3931 3569 4081 
Q 3175 4231 2741 4231 
Q 1884 4231 1454 3753 
Q 1025 3275 1025 2328 
Q 1025 1384 1454 906 
Q 1884 428 2741 428 
Q 3075 428 3337 486 
Q 3600 544 3809 666 
z
" transform="scale(0.015625)"/>
       <path id="DejaVuSans-69" d="M 603 3500 
L 1178 3500 
L 1178 0 
L 603 0 
L 603 3500 
z
M 603 4863 
L 1178 4863 
L 1178 4134 
L 603 4134 
L 603 4863 
z
" transform="scale(0.015625)"/>
       <path id="DejaVuSans-6e" d="M 3513 2113 
L 3513 0 
L 2938 0 
L 2938 2094 
Q 2938 2591 2744 2837 
Q 2550 3084 2163 3084 
Q 1697 3084 1428 2787 
Q 1159 2491 1159 1978 
L 1159 0 
L 581 0 
L 581 3500 
L 1159 3500 
L 1159 2956 
Q 1366 3272 1645 3428 
Q 1925 3584 2291 3584 
Q 2894 3584 3203 3211 
Q 3513 2838 3513 2113 
z
" transform="scale(0.015625)"/>
      </defs>
      <use xlink:href="#DejaVuSans-47"/>
      <use xlink:href="#DejaVuSans-69" x="77.490234"/>
      <use xlink:href="#DejaVuSans-6e" x="105.273438"/>
      <use xlink:href="#DejaVuSans-69" x="168.652344"/>
     </g>
    </g>
   </g>
   <g id="line2d_9">
    <path d="M 69.715465 230.741661 
L 77.175358 195.840912 
L 84.635251 192.36881 
L 92.095144 196.379381 
L 99.555037 204.234314 
L 107.01493 170.883273 
L 114.474823 234.975481 
L 121.934716 222.651463 
L 129.394609 180.408118 
L 136.854502 222.170487 
L 144.314395 166.454333 
L 151.774288 172.127992 
L 159.234181 256.761517 
L 166.694074 194.711334 
L 174.153967 207.07793 
L 181.61386 201.624536 
L 189.073753 194.85922 
L 196.533646 182.718783 
L 203.993539 153.113421 
L 211.453432 211.102735 
L 218.913326 208.412537 
L 226.373219 171.516003 
L 233.833112 199.829224 
L 241.293005 202.083283 
L 248.752898 179.687394 
L 256.212791 224.088292 
L 263.672684 235.185768 
L 271.132577 198.202018 
L 278.59247 246.908607 
L 286.052363 172.27678 
L 293.512256 231.664763 
" clip-path="url(#pc5e70bba0a)" style="fill: none; stroke: #ff0000; stroke-width: 1.5; stroke-linecap: square"/>
   </g>
   <g id="patch_3">
    <path d="M 58.525625 306.812625 
L 58.525625 29.612625 
" style="fill: none; stroke: #000000; stroke-width: 0.8; stroke-linejoin: miter; stroke-linecap: square"/>
   </g>
   <g id="patch_4">
    <path d="M 304.702096 306.812625 
L 304.702096 29.612625 
" style="fill: none; stroke: #000000; stroke-width: 0.8; stroke-linejoin: miter; stroke-linecap: square"/>
   </g>
   <g id="patch_5">
    <path d="M 58.525625 306.812625 
L 304.702096 306.812625 
" style="fill: none; stroke: #000000; stroke-width: 0.8; stroke-linejoin: miter; stroke-linecap: square"/>
   </g>
   <g id="patch_6">
    <path d="M 58.525625 29.612625 
L 304.702096 29.612625 
" style="fill: none; stroke: #000000; stroke-width: 0.8; stroke-linejoin: miter; stroke-linecap: square"/>
   </g>
   <g id="text_11">
    <!-- Naive -->
    <g transform="translate(150.877735 23.612625) scale(0.216 -0.216)">
     <defs>
      <path id="DejaVuSans-4e" d="M 628 4666 
L 1478 4666 
L 3547 763 
L 3547 4666 
L 4159 4666 
L 4159 0 
L 3309 0 
L 1241 3903 
L 1241 0 
L 628 0 
L 628 4666 
z
" transform="scale(0.015625)"/>
      <path id="DejaVuSans-76" d="M 191 3500 
L 800 3500 
L 1894 563 
L 2988 3500 
L 3597 3500 
L 2284 0 
L 1503 0 
L 191 3500 
z
" transform="scale(0.015625)"/>
      <path id="DejaVuSans-65" d="M 3597 1894 
L 3597 1613 
L 953 1613 
Q 991 1019 1311 708 
Q 1631 397 2203 397 
Q 2534 397 2845 478 
Q 3156 559 3463 722 
L 3463 178 
Q 3153 47 2828 -22 
Q 2503 -91 2169 -91 
Q 1331 -91 842 396 
Q 353 884 353 1716 
Q 353 2575 817 3079 
Q 1281 3584 2069 3584 
Q 2775 3584 3186 3129 
Q 3597 2675 3597 1894 
z
M 3022 2063 
Q 3016 2534 2758 2815 
Q 2500 3097 2075 3097 
Q 1594 3097 1305 2825 
Q 1016 2553 972 2059 
L 3022 2063 
z
" transform="scale(0.015625)"/>
     </defs>
     <use xlink:href="#DejaVuSans-4e"/>
     <use xlink:href="#DejaVuSans-61" x="74.804688"/>
     <use xlink:href="#DejaVuSans-69" x="136.083984"/>
     <use xlink:href="#DejaVuSans-76" x="163.867188"/>
     <use xlink:href="#DejaVuSans-65" x="223.046875"/>
    </g>
   </g>
  </g>
  <g id="axes_2">
   <g id="patch_7">
    <path d="M 353.93739 306.812625 
L 600.11386 306.812625 
L 600.11386 29.612625 
L 353.93739 29.612625 
z
" style="fill: #ffffff"/>
   </g>
   <g id="PolyCollection_2">
    <defs>
     <path id="mbb0c9a26c0" d="M 365.127229 -179.590293 
L 365.127229 -89.220075 
L 372.587122 -121.676645 
L 380.047015 -147.385603 
L 387.506908 -103.966843 
L 394.966801 -86.011615 
L 402.426695 -123.663037 
L 409.886588 -79.500323 
L 417.346481 -87.601569 
L 424.806374 -153.803762 
L 432.266267 -89.296806 
L 439.72616 -111.677637 
L 447.186053 -111.882326 
L 454.645946 -67.131066 
L 462.105839 -95.604455 
L 469.565732 -119.294089 
L 477.025625 -96.914065 
L 484.485518 -108.807736 
L 491.945411 -90.644818 
L 499.405304 -119.624908 
L 506.865197 -126.691442 
L 514.32509 -98.074846 
L 521.784983 -130.316046 
L 529.244876 -100.738355 
L 536.704769 -130.866713 
L 544.164662 -114.166038 
L 551.624555 -95.244879 
L 559.084449 -103.90336 
L 566.544342 -67.152075 
L 574.004235 -86.501535 
L 581.464128 -112.496762 
L 588.924021 -119.368865 
L 588.924021 -136.158403 
L 588.924021 -136.158403 
L 581.464128 -245.608507 
L 574.004235 -136.680653 
L 566.544342 -237.82099 
L 559.084449 -153.751652 
L 551.624555 -153.427439 
L 544.164662 -245.448589 
L 536.704769 -193.627829 
L 529.244876 -207.661028 
L 521.784983 -245.691293 
L 514.32509 -196.174752 
L 506.865197 -156.819054 
L 499.405304 -276.268686 
L 491.945411 -263.404291 
L 484.485518 -216.426971 
L 477.025625 -203.886155 
L 469.565732 -211.02494 
L 462.105839 -229.436052 
L 454.645946 -130.91441 
L 447.186053 -251.592005 
L 439.72616 -277.306717 
L 432.266267 -186.671415 
L 424.806374 -191.429363 
L 417.346481 -181.23861 
L 409.886588 -163.627775 
L 402.426695 -252.246527 
L 394.966801 -214.638325 
L 387.506908 -219.991711 
L 380.047015 -189.316471 
L 372.587122 -191.333507 
L 365.127229 -179.590293 
z
" style="stroke: #ff0000; stroke-opacity: 0.2"/>
    </defs>
    <g clip-path="url(#p2dc76320d1)">
     <use xlink:href="#mbb0c9a26c0" x="0" y="359.853875" style="fill: #ff0000; fill-opacity: 0.2; stroke: #ff0000; stroke-opacity: 0.2"/>
    </g>
   </g>
   <g id="matplotlib.axis_3">
    <g id="xtick_5">
     <g id="line2d_10">
      <g>
       <use xlink:href="#m9bfada5de7" x="357.667336" y="306.812625" style="stroke: #000000; stroke-width: 0.8"/>
      </g>
     </g>
     <g id="text_12">
      <!-- 0 -->
      <g transform="translate(351.941086 327.489813) scale(0.18 -0.18)">
       <use xlink:href="#DejaVuSans-30"/>
      </g>
     </g>
    </g>
    <g id="xtick_6">
     <g id="line2d_11">
      <g>
       <use xlink:href="#m9bfada5de7" x="432.266267" y="306.812625" style="stroke: #000000; stroke-width: 0.8"/>
      </g>
     </g>
     <g id="text_13">
      <!-- 10 -->
      <g transform="translate(420.813767 327.489813) scale(0.18 -0.18)">
       <use xlink:href="#DejaVuSans-31"/>
       <use xlink:href="#DejaVuSans-30" x="63.623047"/>
      </g>
     </g>
    </g>
    <g id="xtick_7">
     <g id="line2d_12">
      <g>
       <use xlink:href="#m9bfada5de7" x="506.865197" y="306.812625" style="stroke: #000000; stroke-width: 0.8"/>
      </g>
     </g>
     <g id="text_14">
      <!-- 20 -->
      <g transform="translate(495.412697 327.489813) scale(0.18 -0.18)">
       <use xlink:href="#DejaVuSans-32"/>
       <use xlink:href="#DejaVuSans-30" x="63.623047"/>
      </g>
     </g>
    </g>
    <g id="xtick_8">
     <g id="line2d_13">
      <g>
       <use xlink:href="#m9bfada5de7" x="581.464128" y="306.812625" style="stroke: #000000; stroke-width: 0.8"/>
      </g>
     </g>
     <g id="text_15">
      <!-- 30 -->
      <g transform="translate(570.011628 327.489813) scale(0.18 -0.18)">
       <use xlink:href="#DejaVuSans-33"/>
       <use xlink:href="#DejaVuSans-30" x="63.623047"/>
      </g>
     </g>
    </g>
    <g id="text_16">
     <!-- Day -->
     <g transform="translate(459.253438 348.910438) scale(0.18 -0.18)">
      <use xlink:href="#DejaVuSans-44"/>
      <use xlink:href="#DejaVuSans-61" x="77.001953"/>
      <use xlink:href="#DejaVuSans-79" x="138.28125"/>
     </g>
    </g>
   </g>
   <g id="matplotlib.axis_4">
    <g id="ytick_5">
     <g id="line2d_14">
      <g>
       <use xlink:href="#mab516a5b6b" x="353.93739" y="293.698145" style="stroke: #000000; stroke-width: 0.8"/>
      </g>
     </g>
    </g>
    <g id="ytick_6">
     <g id="line2d_15">
      <g>
       <use xlink:href="#mab516a5b6b" x="353.93739" y="216.651801" style="stroke: #000000; stroke-width: 0.8"/>
      </g>
     </g>
    </g>
    <g id="ytick_7">
     <g id="line2d_16">
      <g>
       <use xlink:href="#mab516a5b6b" x="353.93739" y="139.605457" style="stroke: #000000; stroke-width: 0.8"/>
      </g>
     </g>
    </g>
    <g id="ytick_8">
     <g id="line2d_17">
      <g>
       <use xlink:href="#mab516a5b6b" x="353.93739" y="62.559112" style="stroke: #000000; stroke-width: 0.8"/>
      </g>
     </g>
    </g>
   </g>
   <g id="line2d_18">
    <path d="M 365.127229 225.448691 
L 372.587122 203.348799 
L 380.047015 191.502838 
L 387.506908 197.874598 
L 394.966801 209.528905 
L 402.426695 171.899093 
L 409.886588 238.289826 
L 417.346481 225.433786 
L 424.806374 187.237312 
L 432.266267 221.869764 
L 439.72616 165.361698 
L 447.186053 178.11671 
L 454.645946 260.831137 
L 462.105839 197.333622 
L 469.565732 194.69436 
L 477.025625 209.453765 
L 484.485518 197.236522 
L 491.945411 182.82932 
L 499.405304 161.907078 
L 506.865197 218.098627 
L 514.32509 212.729076 
L 521.784983 171.850205 
L 529.244876 205.654184 
L 536.704769 197.606604 
L 544.164662 180.046562 
L 551.624555 235.517716 
L 559.084449 231.026369 
L 566.544342 207.367343 
L 574.004235 248.262781 
L 581.464128 180.801241 
L 588.924021 232.090241 
" clip-path="url(#p2dc76320d1)" style="fill: none; stroke: #ff0000; stroke-width: 1.5; stroke-linecap: square"/>
   </g>
   <g id="patch_8">
    <path d="M 353.93739 306.812625 
L 353.93739 29.612625 
" style="fill: none; stroke: #000000; stroke-width: 0.8; stroke-linejoin: miter; stroke-linecap: square"/>
   </g>
   <g id="patch_9">
    <path d="M 600.11386 306.812625 
L 600.11386 29.612625 
" style="fill: none; stroke: #000000; stroke-width: 0.8; stroke-linejoin: miter; stroke-linecap: square"/>
   </g>
   <g id="patch_10">
    <path d="M 353.93739 306.812625 
L 600.11386 306.812625 
" style="fill: none; stroke: #000000; stroke-width: 0.8; stroke-linejoin: miter; stroke-linecap: square"/>
   </g>
   <g id="patch_11">
    <path d="M 353.93739 29.612625 
L 600.11386 29.612625 
" style="fill: none; stroke: #000000; stroke-width: 0.8; stroke-linejoin: miter; stroke-linecap: square"/>
   </g>
   <g id="text_17">
    <!-- KDE -->
    <g transform="translate(454.802938 23.612625) scale(0.216 -0.216)">
     <defs>
      <path id="DejaVuSans-4b" d="M 628 4666 
L 1259 4666 
L 1259 2694 
L 3353 4666 
L 4166 4666 
L 1850 2491 
L 4331 0 
L 3500 0 
L 1259 2247 
L 1259 0 
L 628 0 
L 628 4666 
z
" transform="scale(0.015625)"/>
      <path id="DejaVuSans-45" d="M 628 4666 
L 3578 4666 
L 3578 4134 
L 1259 4134 
L 1259 2753 
L 3481 2753 
L 3481 2222 
L 1259 2222 
L 1259 531 
L 3634 531 
L 3634 0 
L 628 0 
L 628 4666 
z
" transform="scale(0.015625)"/>
     </defs>
     <use xlink:href="#DejaVuSans-4b"/>
     <use xlink:href="#DejaVuSans-44" x="65.576172"/>
     <use xlink:href="#DejaVuSans-45" x="142.578125"/>
    </g>
   </g>
  </g>
  <g id="axes_3">
   <g id="patch_12">
    <path d="M 649.349154 306.812625 
L 895.525625 306.812625 
L 895.525625 29.612625 
L 649.349154 29.612625 
z
" style="fill: #ffffff"/>
   </g>
   <g id="PolyCollection_3">
    <defs>
     <path id="m1273a3de10" d="M 660.538994 -256.375476 
L 660.538994 -95.149171 
L 667.998887 -157.79752 
L 675.45878 -150.828744 
L 682.918673 -159.434103 
L 690.378566 -160.20641 
L 697.838459 -174.732405 
L 705.298352 -163.982995 
L 712.758245 -113.423199 
L 720.218138 -109.887371 
L 727.678031 -110.910099 
L 735.137924 -136.69915 
L 742.597818 -178.763444 
L 750.057711 -107.859955 
L 757.517604 -112.109362 
L 764.977497 -114.138041 
L 772.43739 -170.23137 
L 779.897283 -116.105758 
L 787.357176 -107.968123 
L 794.817069 -152.401327 
L 802.276962 -183.853177 
L 809.736855 -134.757343 
L 817.196748 -202.98339 
L 824.656641 -135.293751 
L 832.116534 -130.20384 
L 839.576427 -135.451352 
L 847.03632 -95.101625 
L 854.496213 -101.229853 
L 861.956106 -99.49468 
L 869.415999 -106.416358 
L 876.875892 -152.860048 
L 884.335785 -176.929916 
L 884.335785 -195.260864 
L 884.335785 -195.260864 
L 876.875892 -274.151914 
L 869.415999 -197.264939 
L 861.956106 -264.417053 
L 854.496213 -211.760449 
L 847.03632 -172.800442 
L 839.576427 -285.078574 
L 832.116534 -236.004546 
L 824.656641 -252.344233 
L 817.196748 -254.499425 
L 809.736855 -203.471066 
L 802.276962 -201.525914 
L 794.817069 -279.586218 
L 787.357176 -317.64125 
L 779.897283 -258.981399 
L 772.43739 -266.22275 
L 764.977497 -233.886698 
L 757.517604 -252.726352 
L 750.057711 -199.482913 
L 742.597818 -288.230195 
L 735.137924 -284.733946 
L 727.678031 -258.064565 
L 720.218138 -252.107265 
L 712.758245 -207.153887 
L 705.298352 -230.838175 
L 697.838459 -292.214832 
L 690.378566 -187.125685 
L 682.918673 -228.715805 
L 675.45878 -192.799603 
L 667.998887 -247.147055 
L 660.538994 -256.375476 
z
" style="stroke: #ff0000; stroke-opacity: 0.2"/>
    </defs>
    <g clip-path="url(#p0541bb0b79)">
     <use xlink:href="#m1273a3de10" x="0" y="359.853875" style="fill: #ff0000; fill-opacity: 0.2; stroke: #ff0000; stroke-opacity: 0.2"/>
    </g>
   </g>
   <g id="matplotlib.axis_5">
    <g id="xtick_9">
     <g id="line2d_19">
      <g>
       <use xlink:href="#m9bfada5de7" x="653.079101" y="306.812625" style="stroke: #000000; stroke-width: 0.8"/>
      </g>
     </g>
     <g id="text_18">
      <!-- 0 -->
      <g transform="translate(647.352851 327.489813) scale(0.18 -0.18)">
       <use xlink:href="#DejaVuSans-30"/>
      </g>
     </g>
    </g>
    <g id="xtick_10">
     <g id="line2d_20">
      <g>
       <use xlink:href="#m9bfada5de7" x="727.678031" y="306.812625" style="stroke: #000000; stroke-width: 0.8"/>
      </g>
     </g>
     <g id="text_19">
      <!-- 10 -->
      <g transform="translate(716.225531 327.489813) scale(0.18 -0.18)">
       <use xlink:href="#DejaVuSans-31"/>
       <use xlink:href="#DejaVuSans-30" x="63.623047"/>
      </g>
     </g>
    </g>
    <g id="xtick_11">
     <g id="line2d_21">
      <g>
       <use xlink:href="#m9bfada5de7" x="802.276962" y="306.812625" style="stroke: #000000; stroke-width: 0.8"/>
      </g>
     </g>
     <g id="text_20">
      <!-- 20 -->
      <g transform="translate(790.824462 327.489813) scale(0.18 -0.18)">
       <use xlink:href="#DejaVuSans-32"/>
       <use xlink:href="#DejaVuSans-30" x="63.623047"/>
      </g>
     </g>
    </g>
    <g id="xtick_12">
     <g id="line2d_22">
      <g>
       <use xlink:href="#m9bfada5de7" x="876.875892" y="306.812625" style="stroke: #000000; stroke-width: 0.8"/>
      </g>
     </g>
     <g id="text_21">
      <!-- 30 -->
      <g transform="translate(865.423392 327.489813) scale(0.18 -0.18)">
       <use xlink:href="#DejaVuSans-33"/>
       <use xlink:href="#DejaVuSans-30" x="63.623047"/>
      </g>
     </g>
    </g>
    <g id="text_22">
     <!-- Day -->
     <g transform="translate(754.665202 348.910438) scale(0.18 -0.18)">
      <use xlink:href="#DejaVuSans-44"/>
      <use xlink:href="#DejaVuSans-61" x="77.001953"/>
      <use xlink:href="#DejaVuSans-79" x="138.28125"/>
     </g>
    </g>
   </g>
   <g id="matplotlib.axis_6">
    <g id="ytick_9">
     <g id="line2d_23">
      <g>
       <use xlink:href="#mab516a5b6b" x="649.349154" y="293.698145" style="stroke: #000000; stroke-width: 0.8"/>
      </g>
     </g>
    </g>
    <g id="ytick_10">
     <g id="line2d_24">
      <g>
       <use xlink:href="#mab516a5b6b" x="649.349154" y="216.651801" style="stroke: #000000; stroke-width: 0.8"/>
      </g>
     </g>
    </g>
    <g id="ytick_11">
     <g id="line2d_25">
      <g>
       <use xlink:href="#mab516a5b6b" x="649.349154" y="139.605457" style="stroke: #000000; stroke-width: 0.8"/>
      </g>
     </g>
    </g>
    <g id="ytick_12">
     <g id="line2d_26">
      <g>
       <use xlink:href="#mab516a5b6b" x="649.349154" y="62.559112" style="stroke: #000000; stroke-width: 0.8"/>
      </g>
     </g>
    </g>
   </g>
   <g id="line2d_27">
    <path d="M 660.538994 184.091552 
L 667.998887 157.381587 
L 675.45878 188.039701 
L 682.918673 165.778921 
L 690.378566 186.187828 
L 697.838459 126.380257 
L 705.298352 162.44329 
L 712.758245 199.565332 
L 720.218138 178.856557 
L 727.678031 175.366543 
L 735.137924 149.137327 
L 742.597818 126.357056 
L 750.057711 206.182441 
L 757.517604 177.436018 
L 764.977497 185.841505 
L 772.43739 141.626815 
L 779.897283 172.310297 
L 787.357176 147.049188 
L 794.817069 143.860102 
L 802.276962 167.16433 
L 809.736855 190.739671 
L 817.196748 131.112468 
L 824.656641 166.034883 
L 832.116534 176.749682 
L 839.576427 149.588912 
L 847.03632 225.902841 
L 854.496213 203.358724 
L 861.956106 177.898008 
L 869.415999 208.013226 
L 876.875892 146.347894 
L 884.335785 173.758485 
" clip-path="url(#p0541bb0b79)" style="fill: none; stroke: #ff0000; stroke-width: 1.5; stroke-linecap: square"/>
   </g>
   <g id="patch_13">
    <path d="M 649.349154 306.812625 
L 649.349154 29.612625 
" style="fill: none; stroke: #000000; stroke-width: 0.8; stroke-linejoin: miter; stroke-linecap: square"/>
   </g>
   <g id="patch_14">
    <path d="M 895.525625 306.812625 
L 895.525625 29.612625 
" style="fill: none; stroke: #000000; stroke-width: 0.8; stroke-linejoin: miter; stroke-linecap: square"/>
   </g>
   <g id="patch_15">
    <path d="M 649.349154 306.812625 
L 895.525625 306.812625 
" style="fill: none; stroke: #000000; stroke-width: 0.8; stroke-linejoin: miter; stroke-linecap: square"/>
   </g>
   <g id="patch_16">
    <path d="M 649.349154 29.612625 
L 895.525625 29.612625 
" style="fill: none; stroke: #000000; stroke-width: 0.8; stroke-linejoin: miter; stroke-linecap: square"/>
   </g>
   <g id="text_23">
    <!-- SEPP -->
    <g transform="translate(745.732702 23.612625) scale(0.216 -0.216)">
     <defs>
      <path id="DejaVuSans-53" d="M 3425 4513 
L 3425 3897 
Q 3066 4069 2747 4153 
Q 2428 4238 2131 4238 
Q 1616 4238 1336 4038 
Q 1056 3838 1056 3469 
Q 1056 3159 1242 3001 
Q 1428 2844 1947 2747 
L 2328 2669 
Q 3034 2534 3370 2195 
Q 3706 1856 3706 1288 
Q 3706 609 3251 259 
Q 2797 -91 1919 -91 
Q 1588 -91 1214 -16 
Q 841 59 441 206 
L 441 856 
Q 825 641 1194 531 
Q 1563 422 1919 422 
Q 2459 422 2753 634 
Q 3047 847 3047 1241 
Q 3047 1584 2836 1778 
Q 2625 1972 2144 2069 
L 1759 2144 
Q 1053 2284 737 2584 
Q 422 2884 422 3419 
Q 422 4038 858 4394 
Q 1294 4750 2059 4750 
Q 2388 4750 2728 4690 
Q 3069 4631 3425 4513 
z
" transform="scale(0.015625)"/>
      <path id="DejaVuSans-50" d="M 1259 4147 
L 1259 2394 
L 2053 2394 
Q 2494 2394 2734 2622 
Q 2975 2850 2975 3272 
Q 2975 3691 2734 3919 
Q 2494 4147 2053 4147 
L 1259 4147 
z
M 628 4666 
L 2053 4666 
Q 2838 4666 3239 4311 
Q 3641 3956 3641 3272 
Q 3641 2581 3239 2228 
Q 2838 1875 2053 1875 
L 1259 1875 
L 1259 0 
L 628 0 
L 628 4666 
z
" transform="scale(0.015625)"/>
     </defs>
     <use xlink:href="#DejaVuSans-53"/>
     <use xlink:href="#DejaVuSans-45" x="63.476562"/>
     <use xlink:href="#DejaVuSans-50" x="126.660156"/>
     <use xlink:href="#DejaVuSans-50" x="186.962891"/>
    </g>
   </g>
  </g>
  <g id="axes_4">
   <g id="PolyCollection_4">
    <defs>
     <path id="m32560fef27" d="M 69.715465 -287.877665 
L 69.715465 -143.853783 
L 77.175358 -197.881902 
L 84.635251 -153.105973 
L 92.095144 -133.566605 
L 99.555037 -161.389239 
L 107.01493 -154.670593 
L 114.474823 -99.914432 
L 121.934716 -142.663212 
L 129.394609 -116.190084 
L 136.854502 -150.238178 
L 144.314395 -65.64125 
L 151.774288 -158.176368 
L 159.234181 -138.288849 
L 166.694074 -83.685287 
L 174.153967 -134.199349 
L 181.61386 -165.985335 
L 189.073753 -77.500428 
L 196.533646 -114.487611 
L 203.993539 -107.844711 
L 211.453432 -101.227856 
L 218.913326 -86.008796 
L 226.373219 -159.398813 
L 233.833112 -163.802043 
L 241.293005 -118.16638 
L 248.752898 -125.564919 
L 256.212791 -189.652591 
L 263.672684 -157.666543 
L 271.132577 -126.070192 
L 278.59247 -156.079955 
L 286.052363 -124.658505 
L 293.512256 -144.047753 
L 293.512256 -272.869803 
L 293.512256 -272.869803 
L 286.052363 -290.056123 
L 278.59247 -287.176554 
L 271.132577 -211.668963 
L 263.672684 -317.64125 
L 256.212791 -233.623158 
L 248.752898 -184.119327 
L 241.293005 -292.99871 
L 233.833112 -286.433369 
L 226.373219 -290.040533 
L 218.913326 -264.596641 
L 211.453432 -228.158836 
L 203.993539 -192.19301 
L 196.533646 -180.292991 
L 189.073753 -259.169203 
L 181.61386 -282.561239 
L 174.153967 -266.158255 
L 166.694074 -231.62105 
L 159.234181 -250.535613 
L 151.774288 -248.270442 
L 144.314395 -194.78275 
L 136.854502 -243.633473 
L 129.394609 -299.262351 
L 121.934716 -277.811241 
L 114.474823 -262.308843 
L 107.01493 -285.289664 
L 99.555037 -269.986496 
L 92.095144 -217.539899 
L 84.635251 -251.001415 
L 77.175358 -282.361884 
L 69.715465 -287.877665 
z
" style="stroke: #0000ff; stroke-opacity: 0.2"/>
    </defs>
    <g clip-path="url(#pc5e70bba0a)">
     <use xlink:href="#m32560fef27" x="0" y="359.853875" style="fill: #0000ff; fill-opacity: 0.2; stroke: #0000ff; stroke-opacity: 0.2"/>
    </g>
   </g>
   <g id="line2d_28">
    <path d="M 69.715465 143.988151 
L 77.175358 119.731982 
L 84.635251 157.800181 
L 92.095144 184.300623 
L 99.555037 144.166008 
L 107.01493 139.873747 
L 114.474823 178.742238 
L 121.934716 149.616648 
L 129.394609 152.127658 
L 136.854502 162.91805 
L 144.314395 229.641875 
L 151.774288 156.63047 
L 159.234181 165.441644 
L 166.694074 202.200706 
L 174.153967 159.675073 
L 181.61386 135.580588 
L 189.073753 191.51906 
L 196.533646 212.463574 
L 203.993539 209.835014 
L 211.453432 195.160529 
L 218.913326 184.551156 
L 226.373219 135.134202 
L 233.833112 134.736169 
L 241.293005 154.27133 
L 248.752898 205.011752 
L 256.212791 148.216001 
L 263.672684 122.199978 
L 271.132577 190.984298 
L 278.59247 138.225621 
L 286.052363 152.496561 
L 293.512256 151.395097 
" clip-path="url(#pc5e70bba0a)" style="fill: none; stroke: #0000ff; stroke-width: 1.5; stroke-linecap: square"/>
   </g>
  </g>
  <g id="axes_5">
   <g id="PolyCollection_5">
    <defs>
     <path id="m3148a0534c" d="M 365.127229 -283.319446 
L 365.127229 -141.788194 
L 372.587122 -221.686089 
L 380.047015 -149.530927 
L 387.506908 -141.70576 
L 394.966801 -161.601076 
L 402.426695 -156.675307 
L 409.886588 -107.766162 
L 417.346481 -142.295205 
L 424.806374 -141.23132 
L 432.266267 -157.070322 
L 439.72616 -65.64125 
L 447.186053 -154.956803 
L 454.645946 -142.367087 
L 462.105839 -88.611576 
L 469.565732 -145.033032 
L 477.025625 -186.709094 
L 484.485518 -87.627292 
L 491.945411 -129.839974 
L 499.405304 -111.198509 
L 506.865197 -104.852346 
L 514.32509 -97.286275 
L 521.784983 -161.303978 
L 529.244876 -181.992311 
L 536.704769 -125.647596 
L 544.164662 -132.612747 
L 551.624555 -194.366809 
L 559.084449 -161.212284 
L 566.544342 -145.973367 
L 574.004235 -145.372964 
L 581.464128 -149.82452 
L 588.924021 -135.441169 
L 588.924021 -303.513481 
L 588.924021 -303.513481 
L 581.464128 -299.877173 
L 574.004235 -309.823942 
L 566.544342 -225.003832 
L 559.084449 -317.64125 
L 551.624555 -253.645546 
L 544.164662 -192.181612 
L 536.704769 -288.489612 
L 529.244876 -301.350477 
L 521.784983 -296.053027 
L 514.32509 -285.492816 
L 506.865197 -228.354385 
L 499.405304 -213.514388 
L 491.945411 -180.599795 
L 484.485518 -255.931661 
L 477.025625 -294.810837 
L 469.565732 -261.694489 
L 462.105839 -260.212001 
L 454.645946 -249.509406 
L 447.186053 -276.432859 
L 439.72616 -209.08528 
L 432.266267 -241.512895 
L 424.806374 -306.866478 
L 417.346481 -285.630913 
L 409.886588 -290.726963 
L 402.426695 -285.707745 
L 394.966801 -295.418828 
L 387.506908 -223.717245 
L 380.047015 -247.496974 
L 372.587122 -288.697895 
L 365.127229 -283.319446 
z
" style="stroke: #0000ff; stroke-opacity: 0.2"/>
    </defs>
    <g clip-path="url(#p2dc76320d1)">
     <use xlink:href="#m3148a0534c" x="0" y="359.853875" style="fill: #0000ff; fill-opacity: 0.2; stroke: #0000ff; stroke-opacity: 0.2"/>
    </g>
   </g>
   <g id="line2d_29">
    <path d="M 365.127229 147.300055 
L 372.587122 104.661883 
L 380.047015 161.339925 
L 387.506908 177.142372 
L 394.966801 131.343923 
L 402.426695 138.662349 
L 409.886588 160.607312 
L 417.346481 145.890816 
L 424.806374 135.804976 
L 432.266267 160.562266 
L 439.72616 222.49061 
L 447.186053 144.159044 
L 454.645946 163.915628 
L 462.105839 185.442086 
L 469.565732 156.490114 
L 477.025625 119.093909 
L 484.485518 188.074398 
L 491.945411 204.63399 
L 499.405304 197.497426 
L 506.865197 193.25051 
L 514.32509 168.464329 
L 521.784983 131.175372 
L 529.244876 118.182481 
L 536.704769 152.785271 
L 544.164662 197.456695 
L 551.624555 135.847697 
L 559.084449 120.427108 
L 566.544342 174.365275 
L 574.004235 132.255422 
L 581.464128 135.003029 
L 588.924021 140.37655 
" clip-path="url(#p2dc76320d1)" style="fill: none; stroke: #0000ff; stroke-width: 1.5; stroke-linecap: square"/>
   </g>
  </g>
  <g id="axes_6">
   <g id="PolyCollection_6">
    <defs>
     <path id="m0fbcc668dd" d="M 660.538994 -219.851211 
L 660.538994 -146.961891 
L 667.998887 -195.338393 
L 675.45878 -132.505658 
L 682.918673 -127.780988 
L 690.378566 -124.0599 
L 697.838459 -167.168171 
L 705.298352 -122.256904 
L 712.758245 -147.427873 
L 720.218138 -113.301775 
L 727.678031 -128.807231 
L 735.137924 -72.091008 
L 742.597818 -125.830134 
L 750.057711 -142.003987 
L 757.517604 -88.354265 
L 764.977497 -126.76263 
L 772.43739 -156.28102 
L 779.897283 -65.64125 
L 787.357176 -131.407508 
L 794.817069 -69.100982 
L 802.276962 -95.521692 
L 809.736855 -104.018976 
L 817.196748 -135.059472 
L 824.656641 -145.875052 
L 832.116534 -98.525422 
L 839.576427 -135.431578 
L 847.03632 -162.071297 
L 854.496213 -147.871691 
L 861.956106 -121.122706 
L 869.415999 -100.788811 
L 876.875892 -124.91779 
L 884.335785 -98.835736 
L 884.335785 -317.64125 
L 884.335785 -317.64125 
L 876.875892 -250.642552 
L 869.415999 -303.823095 
L 861.956106 -228.751934 
L 854.496213 -286.805926 
L 847.03632 -208.346597 
L 839.576427 -197.887279 
L 832.116534 -262.412715 
L 824.656641 -265.356251 
L 817.196748 -275.637242 
L 809.736855 -255.18056 
L 802.276962 -169.123434 
L 794.817069 -157.50766 
L 787.357176 -183.538562 
L 779.897283 -207.900623 
L 772.43739 -254.113915 
L 764.977497 -226.16647 
L 757.517604 -233.052473 
L 750.057711 -192.383326 
L 742.597818 -233.565998 
L 735.137924 -197.025971 
L 727.678031 -205.06495 
L 720.218138 -271.974671 
L 712.758245 -228.33729 
L 705.298352 -259.361241 
L 697.838459 -219.696705 
L 690.378566 -254.309832 
L 682.918673 -259.09018 
L 675.45878 -201.82979 
L 667.998887 -253.208924 
L 660.538994 -219.851211 
z
" style="stroke: #0000ff; stroke-opacity: 0.2"/>
    </defs>
    <g clip-path="url(#p0541bb0b79)">
     <use xlink:href="#m0fbcc668dd" x="0" y="359.853875" style="fill: #0000ff; fill-opacity: 0.2; stroke: #0000ff; stroke-opacity: 0.2"/>
    </g>
   </g>
   <g id="matplotlib.axis_7">
    <g id="ytick_13">
     <g id="line2d_30">
      <defs>
       <path id="m3d44ff4013" d="M 0 0 
L 3.5 0 
" style="stroke: #000000; stroke-width: 0.8"/>
      </defs>
      <g>
       <use xlink:href="#m3d44ff4013" x="895.525625" y="252.233826" style="stroke: #000000; stroke-width: 0.8"/>
      </g>
     </g>
     <g id="text_24">
      <!-- 0.00 -->
      <g transform="translate(902.525625 259.07242) scale(0.18 -0.18)">
       <defs>
        <path id="DejaVuSans-2e" d="M 684 794 
L 1344 794 
L 1344 0 
L 684 0 
L 684 794 
z
" transform="scale(0.015625)"/>
       </defs>
       <use xlink:href="#DejaVuSans-30"/>
       <use xlink:href="#DejaVuSans-2e" x="63.623047"/>
       <use xlink:href="#DejaVuSans-30" x="95.410156"/>
       <use xlink:href="#DejaVuSans-30" x="159.033203"/>
      </g>
     </g>
    </g>
    <g id="ytick_14">
     <g id="line2d_31">
      <g>
       <use xlink:href="#m3d44ff4013" x="895.525625" y="176.504562" style="stroke: #000000; stroke-width: 0.8"/>
      </g>
     </g>
     <g id="text_25">
      <!-- 0.00 -->
      <g transform="translate(902.525625 183.343155) scale(0.18 -0.18)">
       <use xlink:href="#DejaVuSans-30"/>
       <use xlink:href="#DejaVuSans-2e" x="63.623047"/>
       <use xlink:href="#DejaVuSans-30" x="95.410156"/>
       <use xlink:href="#DejaVuSans-30" x="159.033203"/>
      </g>
     </g>
    </g>
    <g id="ytick_15">
     <g id="line2d_32">
      <g>
       <use xlink:href="#m3d44ff4013" x="895.525625" y="100.775297" style="stroke: #000000; stroke-width: 0.8"/>
      </g>
     </g>
     <g id="text_26">
      <!-- 0.00 -->
      <g transform="translate(902.525625 107.61389) scale(0.18 -0.18)">
       <use xlink:href="#DejaVuSans-30"/>
       <use xlink:href="#DejaVuSans-2e" x="63.623047"/>
       <use xlink:href="#DejaVuSans-30" x="95.410156"/>
       <use xlink:href="#DejaVuSans-30" x="159.033203"/>
      </g>
     </g>
    </g>
    <g id="text_27">
     <!-- EMD -->
     <g style="fill: #0000ff" transform="translate(960.280937 188.594813) rotate(-90) scale(0.18 -0.18)">
      <defs>
       <path id="DejaVuSans-4d" d="M 628 4666 
L 1569 4666 
L 2759 1491 
L 3956 4666 
L 4897 4666 
L 4897 0 
L 4281 0 
L 4281 4097 
L 3078 897 
L 2444 897 
L 1241 4097 
L 1241 0 
L 628 0 
L 628 4666 
z
" transform="scale(0.015625)"/>
      </defs>
      <use xlink:href="#DejaVuSans-45"/>
      <use xlink:href="#DejaVuSans-4d" x="63.183594"/>
      <use xlink:href="#DejaVuSans-44" x="149.462891"/>
     </g>
    </g>
   </g>
   <g id="line2d_33">
    <path d="M 660.538994 176.447324 
L 667.998887 135.580217 
L 675.45878 192.686151 
L 682.918673 166.418291 
L 690.378566 170.669009 
L 697.838459 166.421437 
L 705.298352 169.044803 
L 712.758245 171.971294 
L 720.218138 167.215652 
L 727.678031 192.917784 
L 735.137924 225.295385 
L 742.597818 180.155809 
L 750.057711 192.660219 
L 757.517604 199.150506 
L 764.977497 183.389325 
L 772.43739 154.656408 
L 779.897283 223.082938 
L 787.357176 202.38084 
L 794.817069 246.549554 
L 802.276962 227.531312 
L 809.736855 180.254107 
L 817.196748 154.505518 
L 824.656641 154.238224 
L 832.116534 179.384806 
L 839.576427 193.194447 
L 847.03632 174.644928 
L 854.496213 142.515066 
L 861.956106 184.916555 
L 869.415999 157.547922 
L 876.875892 172.073704 
L 884.335785 151.615382 
" clip-path="url(#p0541bb0b79)" style="fill: none; stroke: #0000ff; stroke-width: 1.5; stroke-linecap: square"/>
   </g>
   <g id="patch_17">
    <path d="M 649.349154 306.812625 
L 649.349154 29.612625 
" style="fill: none; stroke: #000000; stroke-width: 0.8; stroke-linejoin: miter; stroke-linecap: square"/>
   </g>
   <g id="patch_18">
    <path d="M 895.525625 306.812625 
L 895.525625 29.612625 
" style="fill: none; stroke: #000000; stroke-width: 0.8; stroke-linejoin: miter; stroke-linecap: square"/>
   </g>
   <g id="patch_19">
    <path d="M 649.349154 306.812625 
L 895.525625 306.812625 
" style="fill: none; stroke: #000000; stroke-width: 0.8; stroke-linejoin: miter; stroke-linecap: square"/>
   </g>
   <g id="patch_20">
    <path d="M 649.349154 29.612625 
L 895.525625 29.612625 
" style="fill: none; stroke: #000000; stroke-width: 0.8; stroke-linejoin: miter; stroke-linecap: square"/>
   </g>
  </g>
 </g>
 <defs>
  <clipPath id="pc5e70bba0a">
   <rect x="58.525625" y="29.612625" width="246.176471" height="277.2"/>
  </clipPath>
  <clipPath id="p2dc76320d1">
   <rect x="353.93739" y="29.612625" width="246.176471" height="277.2"/>
  </clipPath>
  <clipPath id="p0541bb0b79">
   <rect x="649.349154" y="29.612625" width="246.176471" height="277.2"/>
  </clipPath>
 </defs>
</svg>
