<?xml version="1.0" encoding="utf-8" standalone="no"?>
<!DOCTYPE svg PUBLIC "-//W3C//DTD SVG 1.1//EN"
  "http://www.w3.org/Graphics/SVG/1.1/DTD/svg11.dtd">
<svg xmlns:xlink="http://www.w3.org/1999/xlink" width="959.771875pt" height="359.853875pt" viewBox="0 0 959.771875 359.853875" xmlns="http://www.w3.org/2000/svg" version="1.1">
 <metadata>
  <rdf:RDF xmlns:dc="http://purl.org/dc/elements/1.1/" xmlns:cc="http://creativecommons.org/ns#" xmlns:rdf="http://www.w3.org/1999/02/22-rdf-syntax-ns#">
   <cc:Work>
    <dc:type rdf:resource="http://purl.org/dc/dcmitype/StillImage"/>
    <dc:date>2023-11-07T15:19:14.703005</dc:date>
    <dc:format>image/svg+xml</dc:format>
    <dc:creator>
     <cc:Agent>
      <dc:title>Matplotlib v3.7.1, https://matplotlib.org/</dc:title>
     </cc:Agent>
    </dc:creator>
   </cc:Work>
  </rdf:RDF>
 </metadata>
 <defs>
  <style type="text/css">*{stroke-linejoin: round; stroke-linecap: butt}</style>
 </defs>
 <g id="figure_1">
  <g id="patch_1">
   <path d="M 0 359.853875 
L 959.771875 359.853875 
L 959.771875 0 
L 0 0 
z
" style="fill: #ffffff"/>
  </g>
  <g id="axes_1">
   <g id="patch_2">
    <path d="M 47.073125 306.812625 
L 293.249596 306.812625 
L 293.249596 29.612625 
L 47.073125 29.612625 
z
" style="fill: #ffffff"/>
   </g>
   <g id="PolyCollection_1">
    <defs>
     <path id="md232f95886" d="M 58.262965 -194.109279 
L 58.262965 -86.023631 
L 65.722858 -150.469324 
L 73.182751 -166.678959 
L 80.642644 -114.225104 
L 88.102537 -105.960101 
L 95.56243 -140.657683 
L 103.022323 -89.044735 
L 110.482216 -93.692723 
L 117.942109 -167.683392 
L 125.402002 -92.340366 
L 132.861895 -118.324982 
L 140.321788 -121.908972 
L 147.781681 -65.986998 
L 155.241574 -105.489265 
L 162.701467 -114.648014 
L 170.16136 -110.376318 
L 177.621253 -118.406855 
L 185.081146 -102.668964 
L 192.541039 -130.106842 
L 200.000932 -138.409513 
L 207.460826 -106.135134 
L 214.920719 -146.705172 
L 222.380612 -111.799794 
L 229.840505 -141.931193 
L 237.300398 -119.212012 
L 244.760291 -104.599517 
L 252.220184 -100.739171 
L 259.680077 -74.86915 
L 267.13997 -99.429101 
L 274.599863 -130.590588 
L 282.059756 -125.876199 
L 282.059756 -153.173563 
L 282.059756 -153.173563 
L 274.599863 -288.244797 
L 267.13997 -145.776133 
L 259.680077 -283.101888 
L 252.220184 -169.001105 
L 244.760291 -190.505408 
L 237.300398 -274.991176 
L 229.840505 -204.963377 
L 222.380612 -246.775498 
L 214.920719 -281.201572 
L 207.460826 -225.095282 
L 200.000932 -179.322382 
L 192.541039 -317.64125 
L 185.081146 -279.377369 
L 177.621253 -236.416617 
L 170.16136 -241.3385 
L 162.701467 -222.562136 
L 155.241574 -256.412499 
L 147.781681 -152.647165 
L 140.321788 -293.742393 
L 132.861895 -298.074746 
L 125.402002 -209.067047 
L 117.942109 -229.618519 
L 110.482216 -206.110884 
L 103.022323 -179.041469 
L 95.56243 -280.768931 
L 88.102537 -241.07743 
L 80.642644 -245.311486 
L 73.182751 -200.41216 
L 65.722858 -218.457622 
L 58.262965 -194.109279 
z
" style="stroke: #ff0000; stroke-opacity: 0.2"/>
    </defs>
    <g clip-path="url(#p540f4d34e9)">
     <use xlink:href="#md232f95886" x="0" y="359.853875" style="fill: #ff0000; fill-opacity: 0.2; stroke: #ff0000; stroke-opacity: 0.2"/>
    </g>
   </g>
   <g id="matplotlib.axis_1">
    <g id="xtick_1">
     <g id="line2d_1">
      <defs>
       <path id="madb438ccb5" d="M 0 0 
L 0 3.5 
" style="stroke: #000000; stroke-width: 0.8"/>
      </defs>
      <g>
       <use xlink:href="#madb438ccb5" x="50.803072" y="306.812625" style="stroke: #000000; stroke-width: 0.8"/>
      </g>
     </g>
     <g id="text_1">
      <!-- 0 -->
      <g transform="translate(45.076822 327.489813) scale(0.18 -0.18)">
       <defs>
        <path id="DejaVuSans-30" d="M 2034 4250 
Q 1547 4250 1301 3770 
Q 1056 3291 1056 2328 
Q 1056 1369 1301 889 
Q 1547 409 2034 409 
Q 2525 409 2770 889 
Q 3016 1369 3016 2328 
Q 3016 3291 2770 3770 
Q 2525 4250 2034 4250 
z
M 2034 4750 
Q 2819 4750 3233 4129 
Q 3647 3509 3647 2328 
Q 3647 1150 3233 529 
Q 2819 -91 2034 -91 
Q 1250 -91 836 529 
Q 422 1150 422 2328 
Q 422 3509 836 4129 
Q 1250 4750 2034 4750 
z
" transform="scale(0.015625)"/>
       </defs>
       <use xlink:href="#DejaVuSans-30"/>
      </g>
     </g>
    </g>
    <g id="xtick_2">
     <g id="line2d_2">
      <g>
       <use xlink:href="#madb438ccb5" x="125.402002" y="306.812625" style="stroke: #000000; stroke-width: 0.8"/>
      </g>
     </g>
     <g id="text_2">
      <!-- 10 -->
      <g transform="translate(113.949502 327.489813) scale(0.18 -0.18)">
       <defs>
        <path id="DejaVuSans-31" d="M 794 531 
L 1825 531 
L 1825 4091 
L 703 3866 
L 703 4441 
L 1819 4666 
L 2450 4666 
L 2450 531 
L 3481 531 
L 3481 0 
L 794 0 
L 794 531 
z
" transform="scale(0.015625)"/>
       </defs>
       <use xlink:href="#DejaVuSans-31"/>
       <use xlink:href="#DejaVuSans-30" x="63.623047"/>
      </g>
     </g>
    </g>
    <g id="xtick_3">
     <g id="line2d_3">
      <g>
       <use xlink:href="#madb438ccb5" x="200.000932" y="306.812625" style="stroke: #000000; stroke-width: 0.8"/>
      </g>
     </g>
     <g id="text_3">
      <!-- 20 -->
      <g transform="translate(188.548432 327.489813) scale(0.18 -0.18)">
       <defs>
        <path id="DejaVuSans-32" d="M 1228 531 
L 3431 531 
L 3431 0 
L 469 0 
L 469 531 
Q 828 903 1448 1529 
Q 2069 2156 2228 2338 
Q 2531 2678 2651 2914 
Q 2772 3150 2772 3378 
Q 2772 3750 2511 3984 
Q 2250 4219 1831 4219 
Q 1534 4219 1204 4116 
Q 875 4013 500 3803 
L 500 4441 
Q 881 4594 1212 4672 
Q 1544 4750 1819 4750 
Q 2544 4750 2975 4387 
Q 3406 4025 3406 3419 
Q 3406 3131 3298 2873 
Q 3191 2616 2906 2266 
Q 2828 2175 2409 1742 
Q 1991 1309 1228 531 
z
" transform="scale(0.015625)"/>
       </defs>
       <use xlink:href="#DejaVuSans-32"/>
       <use xlink:href="#DejaVuSans-30" x="63.623047"/>
      </g>
     </g>
    </g>
    <g id="xtick_4">
     <g id="line2d_4">
      <g>
       <use xlink:href="#madb438ccb5" x="274.599863" y="306.812625" style="stroke: #000000; stroke-width: 0.8"/>
      </g>
     </g>
     <g id="text_4">
      <!-- 30 -->
      <g transform="translate(263.147363 327.489813) scale(0.18 -0.18)">
       <defs>
        <path id="DejaVuSans-33" d="M 2597 2516 
Q 3050 2419 3304 2112 
Q 3559 1806 3559 1356 
Q 3559 666 3084 287 
Q 2609 -91 1734 -91 
Q 1441 -91 1130 -33 
Q 819 25 488 141 
L 488 750 
Q 750 597 1062 519 
Q 1375 441 1716 441 
Q 2309 441 2620 675 
Q 2931 909 2931 1356 
Q 2931 1769 2642 2001 
Q 2353 2234 1838 2234 
L 1294 2234 
L 1294 2753 
L 1863 2753 
Q 2328 2753 2575 2939 
Q 2822 3125 2822 3475 
Q 2822 3834 2567 4026 
Q 2313 4219 1838 4219 
Q 1578 4219 1281 4162 
Q 984 4106 628 3988 
L 628 4550 
Q 988 4650 1302 4700 
Q 1616 4750 1894 4750 
Q 2613 4750 3031 4423 
Q 3450 4097 3450 3541 
Q 3450 3153 3228 2886 
Q 3006 2619 2597 2516 
z
" transform="scale(0.015625)"/>
       </defs>
       <use xlink:href="#DejaVuSans-33"/>
       <use xlink:href="#DejaVuSans-30" x="63.623047"/>
      </g>
     </g>
    </g>
    <g id="text_5">
     <!-- Day -->
     <g transform="translate(152.389173 348.910438) scale(0.18 -0.18)">
      <defs>
       <path id="DejaVuSans-44" d="M 1259 4147 
L 1259 519 
L 2022 519 
Q 2988 519 3436 956 
Q 3884 1394 3884 2338 
Q 3884 3275 3436 3711 
Q 2988 4147 2022 4147 
L 1259 4147 
z
M 628 4666 
L 1925 4666 
Q 3281 4666 3915 4102 
Q 4550 3538 4550 2338 
Q 4550 1131 3912 565 
Q 3275 0 1925 0 
L 628 0 
L 628 4666 
z
" transform="scale(0.015625)"/>
       <path id="DejaVuSans-61" d="M 2194 1759 
Q 1497 1759 1228 1600 
Q 959 1441 959 1056 
Q 959 750 1161 570 
Q 1363 391 1709 391 
Q 2188 391 2477 730 
Q 2766 1069 2766 1631 
L 2766 1759 
L 2194 1759 
z
M 3341 1997 
L 3341 0 
L 2766 0 
L 2766 531 
Q 2569 213 2275 61 
Q 1981 -91 1556 -91 
Q 1019 -91 701 211 
Q 384 513 384 1019 
Q 384 1609 779 1909 
Q 1175 2209 1959 2209 
L 2766 2209 
L 2766 2266 
Q 2766 2663 2505 2880 
Q 2244 3097 1772 3097 
Q 1472 3097 1187 3025 
Q 903 2953 641 2809 
L 641 3341 
Q 956 3463 1253 3523 
Q 1550 3584 1831 3584 
Q 2591 3584 2966 3190 
Q 3341 2797 3341 1997 
z
" transform="scale(0.015625)"/>
       <path id="DejaVuSans-79" d="M 2059 -325 
Q 1816 -950 1584 -1140 
Q 1353 -1331 966 -1331 
L 506 -1331 
L 506 -850 
L 844 -850 
Q 1081 -850 1212 -737 
Q 1344 -625 1503 -206 
L 1606 56 
L 191 3500 
L 800 3500 
L 1894 763 
L 2988 3500 
L 3597 3500 
L 2059 -325 
z
" transform="scale(0.015625)"/>
      </defs>
      <use xlink:href="#DejaVuSans-44"/>
      <use xlink:href="#DejaVuSans-61" x="77.001953"/>
      <use xlink:href="#DejaVuSans-79" x="138.28125"/>
     </g>
    </g>
   </g>
   <g id="matplotlib.axis_2">
    <g id="ytick_1">
     <g id="line2d_5">
      <defs>
       <path id="m44b79274b5" d="M 0 0 
L -3.5 0 
" style="stroke: #000000; stroke-width: 0.8"/>
      </defs>
      <g>
       <use xlink:href="#m44b79274b5" x="47.073125" y="292.328683" style="stroke: #000000; stroke-width: 0.8"/>
      </g>
     </g>
     <g id="text_6">
      <!-- 0 -->
      <g transform="translate(28.620625 299.167277) scale(0.18 -0.18)">
       <use xlink:href="#DejaVuSans-30"/>
      </g>
     </g>
    </g>
    <g id="ytick_2">
     <g id="line2d_6">
      <g>
       <use xlink:href="#m44b79274b5" x="47.073125" y="244.423565" style="stroke: #000000; stroke-width: 0.8"/>
      </g>
     </g>
     <g id="text_7">
      <!-- 0 -->
      <g transform="translate(28.620625 251.262159) scale(0.18 -0.18)">
       <use xlink:href="#DejaVuSans-30"/>
      </g>
     </g>
    </g>
    <g id="ytick_3">
     <g id="line2d_7">
      <g>
       <use xlink:href="#m44b79274b5" x="47.073125" y="196.518447" style="stroke: #000000; stroke-width: 0.8"/>
      </g>
     </g>
     <g id="text_8">
      <!-- 0 -->
      <g transform="translate(28.620625 203.357041) scale(0.18 -0.18)">
       <use xlink:href="#DejaVuSans-30"/>
      </g>
     </g>
    </g>
    <g id="ytick_4">
     <g id="line2d_8">
      <g>
       <use xlink:href="#m44b79274b5" x="47.073125" y="148.613329" style="stroke: #000000; stroke-width: 0.8"/>
      </g>
     </g>
     <g id="text_9">
      <!-- 0 -->
      <g transform="translate(28.620625 155.451923) scale(0.18 -0.18)">
       <use xlink:href="#DejaVuSans-30"/>
      </g>
     </g>
    </g>
    <g id="ytick_5">
     <g id="line2d_9">
      <g>
       <use xlink:href="#m44b79274b5" x="47.073125" y="100.708211" style="stroke: #000000; stroke-width: 0.8"/>
      </g>
     </g>
     <g id="text_10">
      <!-- 0 -->
      <g transform="translate(28.620625 107.546805) scale(0.18 -0.18)">
       <use xlink:href="#DejaVuSans-30"/>
      </g>
     </g>
    </g>
    <g id="ytick_6">
     <g id="line2d_10">
      <g>
       <use xlink:href="#m44b79274b5" x="47.073125" y="52.803094" style="stroke: #000000; stroke-width: 0.8"/>
      </g>
     </g>
     <g id="text_11">
      <!-- 0 -->
      <g transform="translate(28.620625 59.641687) scale(0.18 -0.18)">
       <use xlink:href="#DejaVuSans-30"/>
      </g>
     </g>
    </g>
    <g id="text_12">
     <!-- Maxmin -->
     <g style="fill: #ff0000" transform="translate(20.877188 203.79075) rotate(-90) scale(0.18 -0.18)">
      <defs>
       <path id="DejaVuSans-4d" d="M 628 4666 
L 1569 4666 
L 2759 1491 
L 3956 4666 
L 4897 4666 
L 4897 0 
L 4281 0 
L 4281 4097 
L 3078 897 
L 2444 897 
L 1241 4097 
L 1241 0 
L 628 0 
L 628 4666 
z
" transform="scale(0.015625)"/>
       <path id="DejaVuSans-78" d="M 3513 3500 
L 2247 1797 
L 3578 0 
L 2900 0 
L 1881 1375 
L 863 0 
L 184 0 
L 1544 1831 
L 300 3500 
L 978 3500 
L 1906 2253 
L 2834 3500 
L 3513 3500 
z
" transform="scale(0.015625)"/>
       <path id="DejaVuSans-6d" d="M 3328 2828 
Q 3544 3216 3844 3400 
Q 4144 3584 4550 3584 
Q 5097 3584 5394 3201 
Q 5691 2819 5691 2113 
L 5691 0 
L 5113 0 
L 5113 2094 
Q 5113 2597 4934 2840 
Q 4756 3084 4391 3084 
Q 3944 3084 3684 2787 
Q 3425 2491 3425 1978 
L 3425 0 
L 2847 0 
L 2847 2094 
Q 2847 2600 2669 2842 
Q 2491 3084 2119 3084 
Q 1678 3084 1418 2786 
Q 1159 2488 1159 1978 
L 1159 0 
L 581 0 
L 581 3500 
L 1159 3500 
L 1159 2956 
Q 1356 3278 1631 3431 
Q 1906 3584 2284 3584 
Q 2666 3584 2933 3390 
Q 3200 3197 3328 2828 
z
" transform="scale(0.015625)"/>
       <path id="DejaVuSans-69" d="M 603 3500 
L 1178 3500 
L 1178 0 
L 603 0 
L 603 3500 
z
M 603 4863 
L 1178 4863 
L 1178 4134 
L 603 4134 
L 603 4863 
z
" transform="scale(0.015625)"/>
       <path id="DejaVuSans-6e" d="M 3513 2113 
L 3513 0 
L 2938 0 
L 2938 2094 
Q 2938 2591 2744 2837 
Q 2550 3084 2163 3084 
Q 1697 3084 1428 2787 
Q 1159 2491 1159 1978 
L 1159 0 
L 581 0 
L 581 3500 
L 1159 3500 
L 1159 2956 
Q 1366 3272 1645 3428 
Q 1925 3584 2291 3584 
Q 2894 3584 3203 3211 
Q 3513 2838 3513 2113 
z
" transform="scale(0.015625)"/>
      </defs>
      <use xlink:href="#DejaVuSans-4d"/>
      <use xlink:href="#DejaVuSans-61" x="86.279297"/>
      <use xlink:href="#DejaVuSans-78" x="147.558594"/>
      <use xlink:href="#DejaVuSans-6d" x="206.738281"/>
      <use xlink:href="#DejaVuSans-69" x="304.150391"/>
      <use xlink:href="#DejaVuSans-6e" x="331.933594"/>
     </g>
    </g>
   </g>
   <g id="line2d_11">
    <path d="M 58.262965 219.78742 
L 65.722858 175.390402 
L 73.182751 176.308315 
L 80.642644 180.08558 
L 88.102537 186.33511 
L 95.56243 149.140568 
L 103.022323 225.810773 
L 110.482216 209.952072 
L 117.942109 161.20292 
L 125.402002 209.150169 
L 132.861895 151.654011 
L 140.321788 152.028193 
L 147.781681 250.536794 
L 155.241574 178.902993 
L 162.701467 191.2488 
L 170.16136 183.996466 
L 177.621253 182.442139 
L 185.081146 168.830708 
L 192.541039 135.979829 
L 200.000932 200.987927 
L 207.460826 194.238667 
L 214.920719 145.900503 
L 222.380612 180.566229 
L 229.840505 186.40659 
L 237.300398 162.752281 
L 244.760291 212.301413 
L 252.220184 224.983737 
L 259.680077 180.868356 
L 267.13997 237.251258 
L 274.599863 150.436183 
L 282.059756 220.328994 
" clip-path="url(#p540f4d34e9)" style="fill: none; stroke: #ff0000; stroke-width: 1.5; stroke-linecap: square"/>
   </g>
   <g id="patch_3">
    <path d="M 47.073125 306.812625 
L 47.073125 29.612625 
" style="fill: none; stroke: #000000; stroke-width: 0.8; stroke-linejoin: miter; stroke-linecap: square"/>
   </g>
   <g id="patch_4">
    <path d="M 293.249596 306.812625 
L 293.249596 29.612625 
" style="fill: none; stroke: #000000; stroke-width: 0.8; stroke-linejoin: miter; stroke-linecap: square"/>
   </g>
   <g id="patch_5">
    <path d="M 47.073125 306.812625 
L 293.249596 306.812625 
" style="fill: none; stroke: #000000; stroke-width: 0.8; stroke-linejoin: miter; stroke-linecap: square"/>
   </g>
   <g id="patch_6">
    <path d="M 47.073125 29.612625 
L 293.249596 29.612625 
" style="fill: none; stroke: #000000; stroke-width: 0.8; stroke-linejoin: miter; stroke-linecap: square"/>
   </g>
   <g id="text_13">
    <!-- Naive -->
    <g transform="translate(139.425235 23.612625) scale(0.216 -0.216)">
     <defs>
      <path id="DejaVuSans-4e" d="M 628 4666 
L 1478 4666 
L 3547 763 
L 3547 4666 
L 4159 4666 
L 4159 0 
L 3309 0 
L 1241 3903 
L 1241 0 
L 628 0 
L 628 4666 
z
" transform="scale(0.015625)"/>
      <path id="DejaVuSans-76" d="M 191 3500 
L 800 3500 
L 1894 563 
L 2988 3500 
L 3597 3500 
L 2284 0 
L 1503 0 
L 191 3500 
z
" transform="scale(0.015625)"/>
      <path id="DejaVuSans-65" d="M 3597 1894 
L 3597 1613 
L 953 1613 
Q 991 1019 1311 708 
Q 1631 397 2203 397 
Q 2534 397 2845 478 
Q 3156 559 3463 722 
L 3463 178 
Q 3153 47 2828 -22 
Q 2503 -91 2169 -91 
Q 1331 -91 842 396 
Q 353 884 353 1716 
Q 353 2575 817 3079 
Q 1281 3584 2069 3584 
Q 2775 3584 3186 3129 
Q 3597 2675 3597 1894 
z
M 3022 2063 
Q 3016 2534 2758 2815 
Q 2500 3097 2075 3097 
Q 1594 3097 1305 2825 
Q 1016 2553 972 2059 
L 3022 2063 
z
" transform="scale(0.015625)"/>
     </defs>
     <use xlink:href="#DejaVuSans-4e"/>
     <use xlink:href="#DejaVuSans-61" x="74.804688"/>
     <use xlink:href="#DejaVuSans-69" x="136.083984"/>
     <use xlink:href="#DejaVuSans-76" x="163.867188"/>
     <use xlink:href="#DejaVuSans-65" x="223.046875"/>
    </g>
   </g>
  </g>
  <g id="axes_2">
   <g id="patch_7">
    <path d="M 342.48489 306.812625 
L 588.66136 306.812625 
L 588.66136 29.612625 
L 342.48489 29.612625 
z
" style="fill: #ffffff"/>
   </g>
   <g id="PolyCollection_2">
    <defs>
     <path id="m038ed43ec3" d="M 353.674729 -197.34447 
L 353.674729 -95.578796 
L 361.134622 -133.277303 
L 368.594515 -161.384864 
L 376.054408 -111.293881 
L 383.514301 -91.817398 
L 390.974195 -133.360818 
L 398.434088 -84.681723 
L 405.893981 -90.739518 
L 413.353874 -166.7406 
L 420.813767 -92.798194 
L 428.27366 -117.54989 
L 435.733553 -116.023871 
L 443.193446 -67.774211 
L 450.653339 -96.781936 
L 458.113232 -125.871785 
L 465.573125 -104.020022 
L 473.033018 -116.379734 
L 480.492911 -94.953813 
L 487.952804 -126.402092 
L 495.412697 -134.033807 
L 502.87259 -100.729302 
L 510.332483 -138.483871 
L 517.792376 -109.705347 
L 525.252269 -145.19566 
L 532.712162 -121.397104 
L 540.172055 -99.798658 
L 547.631949 -112.335056 
L 555.091842 -65.64125 
L 562.551735 -92.243598 
L 570.011628 -118.940665 
L 577.471521 -124.242391 
L 577.471521 -154.32064 
L 577.471521 -154.32064 
L 570.011628 -282.754554 
L 562.551735 -149.657726 
L 555.091842 -272.374302 
L 547.631949 -167.608549 
L 540.172055 -169.701667 
L 532.712162 -273.568199 
L 525.252269 -212.122585 
L 517.792376 -235.583375 
L 510.332483 -290.236703 
L 502.87259 -221.611719 
L 495.412697 -168.887137 
L 487.952804 -304.049453 
L 480.492911 -286.675606 
L 473.033018 -233.481009 
L 465.573125 -230.556194 
L 458.113232 -239.930632 
L 450.653339 -260.096064 
L 443.193446 -142.071376 
L 435.733553 -286.723419 
L 428.27366 -301.237809 
L 420.813767 -209.953908 
L 413.353874 -216.784944 
L 405.893981 -203.773206 
L 398.434088 -176.980962 
L 390.974195 -286.540064 
L 383.514301 -243.352306 
L 376.054408 -245.387046 
L 368.594515 -207.941614 
L 361.134622 -218.502565 
L 353.674729 -197.34447 
z
" style="stroke: #ff0000; stroke-opacity: 0.2"/>
    </defs>
    <g clip-path="url(#p36454e9e17)">
     <use xlink:href="#m038ed43ec3" x="0" y="359.853875" style="fill: #ff0000; fill-opacity: 0.2; stroke: #ff0000; stroke-opacity: 0.2"/>
    </g>
   </g>
   <g id="matplotlib.axis_3">
    <g id="xtick_5">
     <g id="line2d_12">
      <g>
       <use xlink:href="#madb438ccb5" x="346.214836" y="306.812625" style="stroke: #000000; stroke-width: 0.8"/>
      </g>
     </g>
     <g id="text_14">
      <!-- 0 -->
      <g transform="translate(340.488586 327.489813) scale(0.18 -0.18)">
       <use xlink:href="#DejaVuSans-30"/>
      </g>
     </g>
    </g>
    <g id="xtick_6">
     <g id="line2d_13">
      <g>
       <use xlink:href="#madb438ccb5" x="420.813767" y="306.812625" style="stroke: #000000; stroke-width: 0.8"/>
      </g>
     </g>
     <g id="text_15">
      <!-- 10 -->
      <g transform="translate(409.361267 327.489813) scale(0.18 -0.18)">
       <use xlink:href="#DejaVuSans-31"/>
       <use xlink:href="#DejaVuSans-30" x="63.623047"/>
      </g>
     </g>
    </g>
    <g id="xtick_7">
     <g id="line2d_14">
      <g>
       <use xlink:href="#madb438ccb5" x="495.412697" y="306.812625" style="stroke: #000000; stroke-width: 0.8"/>
      </g>
     </g>
     <g id="text_16">
      <!-- 20 -->
      <g transform="translate(483.960197 327.489813) scale(0.18 -0.18)">
       <use xlink:href="#DejaVuSans-32"/>
       <use xlink:href="#DejaVuSans-30" x="63.623047"/>
      </g>
     </g>
    </g>
    <g id="xtick_8">
     <g id="line2d_15">
      <g>
       <use xlink:href="#madb438ccb5" x="570.011628" y="306.812625" style="stroke: #000000; stroke-width: 0.8"/>
      </g>
     </g>
     <g id="text_17">
      <!-- 30 -->
      <g transform="translate(558.559128 327.489813) scale(0.18 -0.18)">
       <use xlink:href="#DejaVuSans-33"/>
       <use xlink:href="#DejaVuSans-30" x="63.623047"/>
      </g>
     </g>
    </g>
    <g id="text_18">
     <!-- Day -->
     <g transform="translate(447.800938 348.910438) scale(0.18 -0.18)">
      <use xlink:href="#DejaVuSans-44"/>
      <use xlink:href="#DejaVuSans-61" x="77.001953"/>
      <use xlink:href="#DejaVuSans-79" x="138.28125"/>
     </g>
    </g>
   </g>
   <g id="matplotlib.axis_4">
    <g id="ytick_7">
     <g id="line2d_16">
      <g>
       <use xlink:href="#m44b79274b5" x="342.48489" y="292.328683" style="stroke: #000000; stroke-width: 0.8"/>
      </g>
     </g>
    </g>
    <g id="ytick_8">
     <g id="line2d_17">
      <g>
       <use xlink:href="#m44b79274b5" x="342.48489" y="244.423565" style="stroke: #000000; stroke-width: 0.8"/>
      </g>
     </g>
    </g>
    <g id="ytick_9">
     <g id="line2d_18">
      <g>
       <use xlink:href="#m44b79274b5" x="342.48489" y="196.518447" style="stroke: #000000; stroke-width: 0.8"/>
      </g>
     </g>
    </g>
    <g id="ytick_10">
     <g id="line2d_19">
      <g>
       <use xlink:href="#m44b79274b5" x="342.48489" y="148.613329" style="stroke: #000000; stroke-width: 0.8"/>
      </g>
     </g>
    </g>
    <g id="ytick_11">
     <g id="line2d_20">
      <g>
       <use xlink:href="#m44b79274b5" x="342.48489" y="100.708211" style="stroke: #000000; stroke-width: 0.8"/>
      </g>
     </g>
    </g>
    <g id="ytick_12">
     <g id="line2d_21">
      <g>
       <use xlink:href="#m44b79274b5" x="342.48489" y="52.803094" style="stroke: #000000; stroke-width: 0.8"/>
      </g>
     </g>
    </g>
   </g>
   <g id="line2d_22">
    <path d="M 353.674729 213.392242 
L 361.134622 183.963941 
L 368.594515 175.190636 
L 376.054408 181.513412 
L 383.514301 192.269023 
L 390.974195 149.903434 
L 398.434088 229.022533 
L 405.893981 212.597513 
L 413.353874 168.091103 
L 420.813767 208.477824 
L 428.27366 150.460026 
L 435.733553 158.48023 
L 443.193446 254.931081 
L 450.653339 181.414875 
L 458.113232 176.952666 
L 465.573125 192.565767 
L 473.033018 184.923503 
L 480.492911 169.039165 
L 487.952804 144.628102 
L 495.412697 208.393403 
L 502.87259 198.683365 
L 510.332483 145.493588 
L 517.792376 187.209514 
L 525.252269 181.194753 
L 532.712162 162.371224 
L 540.172055 225.103712 
L 547.631949 219.882073 
L 555.091842 190.846099 
L 562.551735 238.903213 
L 570.011628 159.006266 
L 577.471521 220.572359 
" clip-path="url(#p36454e9e17)" style="fill: none; stroke: #ff0000; stroke-width: 1.5; stroke-linecap: square"/>
   </g>
   <g id="patch_8">
    <path d="M 342.48489 306.812625 
L 342.48489 29.612625 
" style="fill: none; stroke: #000000; stroke-width: 0.8; stroke-linejoin: miter; stroke-linecap: square"/>
   </g>
   <g id="patch_9">
    <path d="M 588.66136 306.812625 
L 588.66136 29.612625 
" style="fill: none; stroke: #000000; stroke-width: 0.8; stroke-linejoin: miter; stroke-linecap: square"/>
   </g>
   <g id="patch_10">
    <path d="M 342.48489 306.812625 
L 588.66136 306.812625 
" style="fill: none; stroke: #000000; stroke-width: 0.8; stroke-linejoin: miter; stroke-linecap: square"/>
   </g>
   <g id="patch_11">
    <path d="M 342.48489 29.612625 
L 588.66136 29.612625 
" style="fill: none; stroke: #000000; stroke-width: 0.8; stroke-linejoin: miter; stroke-linecap: square"/>
   </g>
   <g id="text_19">
    <!-- KDE -->
    <g transform="translate(443.350437 23.612625) scale(0.216 -0.216)">
     <defs>
      <path id="DejaVuSans-4b" d="M 628 4666 
L 1259 4666 
L 1259 2694 
L 3353 4666 
L 4166 4666 
L 1850 2491 
L 4331 0 
L 3500 0 
L 1259 2247 
L 1259 0 
L 628 0 
L 628 4666 
z
" transform="scale(0.015625)"/>
      <path id="DejaVuSans-45" d="M 628 4666 
L 3578 4666 
L 3578 4134 
L 1259 4134 
L 1259 2753 
L 3481 2753 
L 3481 2222 
L 1259 2222 
L 1259 531 
L 3634 531 
L 3634 0 
L 628 0 
L 628 4666 
z
" transform="scale(0.015625)"/>
     </defs>
     <use xlink:href="#DejaVuSans-4b"/>
     <use xlink:href="#DejaVuSans-44" x="65.576172"/>
     <use xlink:href="#DejaVuSans-45" x="142.578125"/>
    </g>
   </g>
  </g>
  <g id="axes_3">
   <g id="patch_12">
    <path d="M 637.896654 306.812625 
L 884.073125 306.812625 
L 884.073125 29.612625 
L 637.896654 29.612625 
z
" style="fill: #ffffff"/>
   </g>
   <g id="PolyCollection_3">
    <defs>
     <path id="md0180de9b1" d="M 649.086494 -249.704927 
L 649.086494 -101.928604 
L 656.546387 -165.457496 
L 664.00628 -156.185303 
L 671.466173 -162.900077 
L 678.926066 -163.803371 
L 686.385959 -177.496473 
L 693.845852 -172.042565 
L 701.305745 -114.898368 
L 708.765638 -109.067411 
L 716.225531 -111.001188 
L 723.685424 -133.233865 
L 731.145318 -173.071662 
L 738.605211 -108.053725 
L 746.065104 -108.955937 
L 753.524997 -113.462381 
L 760.98489 -173.939532 
L 768.444783 -116.681785 
L 775.904676 -110.520164 
L 783.364569 -151.745648 
L 790.824462 -179.859772 
L 798.284355 -142.856763 
L 805.744248 -206.381624 
L 813.204141 -140.142782 
L 820.664034 -134.196477 
L 828.123927 -139.407429 
L 835.58382 -96.901405 
L 843.043713 -104.042807 
L 850.503606 -96.492089 
L 857.963499 -108.38875 
L 865.423392 -152.690913 
L 872.883285 -170.066462 
L 872.883285 -214.51558 
L 872.883285 -214.51558 
L 865.423392 -294.056887 
L 857.963499 -207.990965 
L 850.503606 -282.282111 
L 843.043713 -215.708089 
L 835.58382 -178.332609 
L 828.123927 -290.709164 
L 820.664034 -241.243768 
L 813.204141 -267.515903 
L 805.744248 -270.689408 
L 798.284355 -199.882501 
L 790.824462 -202.002941 
L 783.364569 -283.049741 
L 775.904676 -314.008785 
L 768.444783 -255.467928 
L 760.98489 -276.566563 
L 753.524997 -248.030952 
L 746.065104 -266.226406 
L 738.605211 -202.220859 
L 731.145318 -300.005972 
L 723.685424 -285.529467 
L 716.225531 -267.621938 
L 708.765638 -268.753974 
L 701.305745 -210.332775 
L 693.845852 -225.612633 
L 686.385959 -304.994382 
L 678.926066 -197.851417 
L 671.466173 -240.17123 
L 664.00628 -198.111262 
L 656.546387 -256.535851 
L 649.086494 -249.704927 
z
" style="stroke: #ff0000; stroke-opacity: 0.2"/>
    </defs>
    <g clip-path="url(#p78b7a6e656)">
     <use xlink:href="#md0180de9b1" x="0" y="359.853875" style="fill: #ff0000; fill-opacity: 0.2; stroke: #ff0000; stroke-opacity: 0.2"/>
    </g>
   </g>
   <g id="matplotlib.axis_5">
    <g id="xtick_9">
     <g id="line2d_23">
      <g>
       <use xlink:href="#madb438ccb5" x="641.626601" y="306.812625" style="stroke: #000000; stroke-width: 0.8"/>
      </g>
     </g>
     <g id="text_20">
      <!-- 0 -->
      <g transform="translate(635.900351 327.489813) scale(0.18 -0.18)">
       <use xlink:href="#DejaVuSans-30"/>
      </g>
     </g>
    </g>
    <g id="xtick_10">
     <g id="line2d_24">
      <g>
       <use xlink:href="#madb438ccb5" x="716.225531" y="306.812625" style="stroke: #000000; stroke-width: 0.8"/>
      </g>
     </g>
     <g id="text_21">
      <!-- 10 -->
      <g transform="translate(704.773031 327.489813) scale(0.18 -0.18)">
       <use xlink:href="#DejaVuSans-31"/>
       <use xlink:href="#DejaVuSans-30" x="63.623047"/>
      </g>
     </g>
    </g>
    <g id="xtick_11">
     <g id="line2d_25">
      <g>
       <use xlink:href="#madb438ccb5" x="790.824462" y="306.812625" style="stroke: #000000; stroke-width: 0.8"/>
      </g>
     </g>
     <g id="text_22">
      <!-- 20 -->
      <g transform="translate(779.371962 327.489813) scale(0.18 -0.18)">
       <use xlink:href="#DejaVuSans-32"/>
       <use xlink:href="#DejaVuSans-30" x="63.623047"/>
      </g>
     </g>
    </g>
    <g id="xtick_12">
     <g id="line2d_26">
      <g>
       <use xlink:href="#madb438ccb5" x="865.423392" y="306.812625" style="stroke: #000000; stroke-width: 0.8"/>
      </g>
     </g>
     <g id="text_23">
      <!-- 30 -->
      <g transform="translate(853.970892 327.489813) scale(0.18 -0.18)">
       <use xlink:href="#DejaVuSans-33"/>
       <use xlink:href="#DejaVuSans-30" x="63.623047"/>
      </g>
     </g>
    </g>
    <g id="text_24">
     <!-- Day -->
     <g transform="translate(743.212702 348.910438) scale(0.18 -0.18)">
      <use xlink:href="#DejaVuSans-44"/>
      <use xlink:href="#DejaVuSans-61" x="77.001953"/>
      <use xlink:href="#DejaVuSans-79" x="138.28125"/>
     </g>
    </g>
   </g>
   <g id="matplotlib.axis_6">
    <g id="ytick_13">
     <g id="line2d_27">
      <g>
       <use xlink:href="#m44b79274b5" x="637.896654" y="292.328683" style="stroke: #000000; stroke-width: 0.8"/>
      </g>
     </g>
    </g>
    <g id="ytick_14">
     <g id="line2d_28">
      <g>
       <use xlink:href="#m44b79274b5" x="637.896654" y="244.423565" style="stroke: #000000; stroke-width: 0.8"/>
      </g>
     </g>
    </g>
    <g id="ytick_15">
     <g id="line2d_29">
      <g>
       <use xlink:href="#m44b79274b5" x="637.896654" y="196.518447" style="stroke: #000000; stroke-width: 0.8"/>
      </g>
     </g>
    </g>
    <g id="ytick_16">
     <g id="line2d_30">
      <g>
       <use xlink:href="#m44b79274b5" x="637.896654" y="148.613329" style="stroke: #000000; stroke-width: 0.8"/>
      </g>
     </g>
    </g>
    <g id="ytick_17">
     <g id="line2d_31">
      <g>
       <use xlink:href="#m44b79274b5" x="637.896654" y="100.708211" style="stroke: #000000; stroke-width: 0.8"/>
      </g>
     </g>
    </g>
    <g id="ytick_18">
     <g id="line2d_32">
      <g>
       <use xlink:href="#m44b79274b5" x="637.896654" y="52.803094" style="stroke: #000000; stroke-width: 0.8"/>
      </g>
     </g>
    </g>
   </g>
   <g id="line2d_33">
    <path d="M 649.086494 184.037109 
L 656.546387 148.857202 
L 664.00628 182.705592 
L 671.466173 158.318222 
L 678.926066 179.026481 
L 686.385959 118.608447 
L 693.845852 161.026276 
L 701.305745 197.238303 
L 708.765638 170.943182 
L 716.225531 170.542312 
L 723.685424 150.472209 
L 731.145318 123.315058 
L 738.605211 204.716583 
L 746.065104 172.262704 
L 753.524997 179.107208 
L 760.98489 134.600827 
L 768.444783 173.779019 
L 775.904676 147.5894 
L 783.364569 142.456181 
L 790.824462 168.922518 
L 798.284355 188.484243 
L 805.744248 121.318359 
L 813.204141 156.024533 
L 820.664034 172.133753 
L 828.123927 144.795578 
L 835.58382 222.236868 
L 843.043713 199.978427 
L 850.503606 170.466775 
L 857.963499 201.664017 
L 865.423392 136.479975 
L 872.883285 167.562854 
" clip-path="url(#p78b7a6e656)" style="fill: none; stroke: #ff0000; stroke-width: 1.5; stroke-linecap: square"/>
   </g>
   <g id="patch_13">
    <path d="M 637.896654 306.812625 
L 637.896654 29.612625 
" style="fill: none; stroke: #000000; stroke-width: 0.8; stroke-linejoin: miter; stroke-linecap: square"/>
   </g>
   <g id="patch_14">
    <path d="M 884.073125 306.812625 
L 884.073125 29.612625 
" style="fill: none; stroke: #000000; stroke-width: 0.8; stroke-linejoin: miter; stroke-linecap: square"/>
   </g>
   <g id="patch_15">
    <path d="M 637.896654 306.812625 
L 884.073125 306.812625 
" style="fill: none; stroke: #000000; stroke-width: 0.8; stroke-linejoin: miter; stroke-linecap: square"/>
   </g>
   <g id="patch_16">
    <path d="M 637.896654 29.612625 
L 884.073125 29.612625 
" style="fill: none; stroke: #000000; stroke-width: 0.8; stroke-linejoin: miter; stroke-linecap: square"/>
   </g>
   <g id="text_25">
    <!-- SEPP -->
    <g transform="translate(734.280202 23.612625) scale(0.216 -0.216)">
     <defs>
      <path id="DejaVuSans-53" d="M 3425 4513 
L 3425 3897 
Q 3066 4069 2747 4153 
Q 2428 4238 2131 4238 
Q 1616 4238 1336 4038 
Q 1056 3838 1056 3469 
Q 1056 3159 1242 3001 
Q 1428 2844 1947 2747 
L 2328 2669 
Q 3034 2534 3370 2195 
Q 3706 1856 3706 1288 
Q 3706 609 3251 259 
Q 2797 -91 1919 -91 
Q 1588 -91 1214 -16 
Q 841 59 441 206 
L 441 856 
Q 825 641 1194 531 
Q 1563 422 1919 422 
Q 2459 422 2753 634 
Q 3047 847 3047 1241 
Q 3047 1584 2836 1778 
Q 2625 1972 2144 2069 
L 1759 2144 
Q 1053 2284 737 2584 
Q 422 2884 422 3419 
Q 422 4038 858 4394 
Q 1294 4750 2059 4750 
Q 2388 4750 2728 4690 
Q 3069 4631 3425 4513 
z
" transform="scale(0.015625)"/>
      <path id="DejaVuSans-50" d="M 1259 4147 
L 1259 2394 
L 2053 2394 
Q 2494 2394 2734 2622 
Q 2975 2850 2975 3272 
Q 2975 3691 2734 3919 
Q 2494 4147 2053 4147 
L 1259 4147 
z
M 628 4666 
L 2053 4666 
Q 2838 4666 3239 4311 
Q 3641 3956 3641 3272 
Q 3641 2581 3239 2228 
Q 2838 1875 2053 1875 
L 1259 1875 
L 1259 0 
L 628 0 
L 628 4666 
z
" transform="scale(0.015625)"/>
     </defs>
     <use xlink:href="#DejaVuSans-53"/>
     <use xlink:href="#DejaVuSans-45" x="63.476562"/>
     <use xlink:href="#DejaVuSans-50" x="126.660156"/>
     <use xlink:href="#DejaVuSans-50" x="186.962891"/>
    </g>
   </g>
  </g>
  <g id="axes_4">
   <g id="PolyCollection_4">
    <defs>
     <path id="mcba9e5e907" d="M 58.262965 -287.877665 
L 58.262965 -143.853783 
L 65.722858 -197.881902 
L 73.182751 -153.105973 
L 80.642644 -133.566605 
L 88.102537 -161.389239 
L 95.56243 -154.670593 
L 103.022323 -99.914432 
L 110.482216 -142.663212 
L 117.942109 -116.190084 
L 125.402002 -150.238178 
L 132.861895 -65.64125 
L 140.321788 -158.176368 
L 147.781681 -138.288849 
L 155.241574 -83.685287 
L 162.701467 -134.199349 
L 170.16136 -165.985335 
L 177.621253 -77.500428 
L 185.081146 -114.487611 
L 192.541039 -107.844711 
L 200.000932 -101.227856 
L 207.460826 -86.008796 
L 214.920719 -159.398813 
L 222.380612 -163.802043 
L 229.840505 -118.16638 
L 237.300398 -125.564919 
L 244.760291 -189.652591 
L 252.220184 -157.666543 
L 259.680077 -126.070192 
L 267.13997 -156.079955 
L 274.599863 -124.658505 
L 282.059756 -144.047753 
L 282.059756 -272.869803 
L 282.059756 -272.869803 
L 274.599863 -290.056123 
L 267.13997 -287.176554 
L 259.680077 -211.668963 
L 252.220184 -317.64125 
L 244.760291 -233.623158 
L 237.300398 -184.119327 
L 229.840505 -292.99871 
L 222.380612 -286.433369 
L 214.920719 -290.040533 
L 207.460826 -264.596641 
L 200.000932 -228.158836 
L 192.541039 -192.19301 
L 185.081146 -180.292991 
L 177.621253 -259.169203 
L 170.16136 -282.561239 
L 162.701467 -266.158255 
L 155.241574 -231.62105 
L 147.781681 -250.535613 
L 140.321788 -248.270442 
L 132.861895 -194.78275 
L 125.402002 -243.633473 
L 117.942109 -299.262351 
L 110.482216 -277.811241 
L 103.022323 -262.308843 
L 95.56243 -285.289664 
L 88.102537 -269.986496 
L 80.642644 -217.539899 
L 73.182751 -251.001415 
L 65.722858 -282.361884 
L 58.262965 -287.877665 
z
" style="stroke: #0000ff; stroke-opacity: 0.2"/>
    </defs>
    <g clip-path="url(#p540f4d34e9)">
     <use xlink:href="#mcba9e5e907" x="0" y="359.853875" style="fill: #0000ff; fill-opacity: 0.2; stroke: #0000ff; stroke-opacity: 0.2"/>
    </g>
   </g>
   <g id="line2d_34">
    <path d="M 58.262965 143.988151 
L 65.722858 119.731982 
L 73.182751 157.800181 
L 80.642644 184.300623 
L 88.102537 144.166008 
L 95.56243 139.873747 
L 103.022323 178.742238 
L 110.482216 149.616648 
L 117.942109 152.127658 
L 125.402002 162.91805 
L 132.861895 229.641875 
L 140.321788 156.63047 
L 147.781681 165.441644 
L 155.241574 202.200706 
L 162.701467 159.675073 
L 170.16136 135.580588 
L 177.621253 191.51906 
L 185.081146 212.463574 
L 192.541039 209.835014 
L 200.000932 195.160529 
L 207.460826 184.551156 
L 214.920719 135.134202 
L 222.380612 134.736169 
L 229.840505 154.27133 
L 237.300398 205.011752 
L 244.760291 148.216001 
L 252.220184 122.199978 
L 259.680077 190.984298 
L 267.13997 138.225621 
L 274.599863 152.496561 
L 282.059756 151.395097 
" clip-path="url(#p540f4d34e9)" style="fill: none; stroke: #0000ff; stroke-width: 1.5; stroke-linecap: square"/>
   </g>
  </g>
  <g id="axes_5">
   <g id="PolyCollection_5">
    <defs>
     <path id="m7bc0bf9680" d="M 353.674729 -283.319446 
L 353.674729 -141.788194 
L 361.134622 -221.686089 
L 368.594515 -149.530927 
L 376.054408 -141.70576 
L 383.514301 -161.601076 
L 390.974195 -156.675307 
L 398.434088 -107.766162 
L 405.893981 -142.295205 
L 413.353874 -141.23132 
L 420.813767 -157.070322 
L 428.27366 -65.64125 
L 435.733553 -154.956803 
L 443.193446 -142.367087 
L 450.653339 -88.611576 
L 458.113232 -145.033032 
L 465.573125 -186.709094 
L 473.033018 -87.627292 
L 480.492911 -129.839974 
L 487.952804 -111.198509 
L 495.412697 -104.852346 
L 502.87259 -97.286275 
L 510.332483 -161.303978 
L 517.792376 -181.992311 
L 525.252269 -125.647596 
L 532.712162 -132.612747 
L 540.172055 -194.366809 
L 547.631949 -161.212284 
L 555.091842 -145.973367 
L 562.551735 -145.372964 
L 570.011628 -149.82452 
L 577.471521 -135.441169 
L 577.471521 -303.513481 
L 577.471521 -303.513481 
L 570.011628 -299.877173 
L 562.551735 -309.823942 
L 555.091842 -225.003832 
L 547.631949 -317.64125 
L 540.172055 -253.645546 
L 532.712162 -192.181612 
L 525.252269 -288.489612 
L 517.792376 -301.350477 
L 510.332483 -296.053027 
L 502.87259 -285.492816 
L 495.412697 -228.354385 
L 487.952804 -213.514388 
L 480.492911 -180.599795 
L 473.033018 -255.931661 
L 465.573125 -294.810837 
L 458.113232 -261.694489 
L 450.653339 -260.212001 
L 443.193446 -249.509406 
L 435.733553 -276.432859 
L 428.27366 -209.08528 
L 420.813767 -241.512895 
L 413.353874 -306.866478 
L 405.893981 -285.630913 
L 398.434088 -290.726963 
L 390.974195 -285.707745 
L 383.514301 -295.418828 
L 376.054408 -223.717245 
L 368.594515 -247.496974 
L 361.134622 -288.697895 
L 353.674729 -283.319446 
z
" style="stroke: #0000ff; stroke-opacity: 0.2"/>
    </defs>
    <g clip-path="url(#p36454e9e17)">
     <use xlink:href="#m7bc0bf9680" x="0" y="359.853875" style="fill: #0000ff; fill-opacity: 0.2; stroke: #0000ff; stroke-opacity: 0.2"/>
    </g>
   </g>
   <g id="line2d_35">
    <path d="M 353.674729 147.300055 
L 361.134622 104.661883 
L 368.594515 161.339925 
L 376.054408 177.142372 
L 383.514301 131.343923 
L 390.974195 138.662349 
L 398.434088 160.607312 
L 405.893981 145.890816 
L 413.353874 135.804976 
L 420.813767 160.562266 
L 428.27366 222.49061 
L 435.733553 144.159044 
L 443.193446 163.915628 
L 450.653339 185.442086 
L 458.113232 156.490114 
L 465.573125 119.093909 
L 473.033018 188.074398 
L 480.492911 204.63399 
L 487.952804 197.497426 
L 495.412697 193.25051 
L 502.87259 168.464329 
L 510.332483 131.175372 
L 517.792376 118.182481 
L 525.252269 152.785271 
L 532.712162 197.456695 
L 540.172055 135.847697 
L 547.631949 120.427108 
L 555.091842 174.365275 
L 562.551735 132.255422 
L 570.011628 135.003029 
L 577.471521 140.37655 
" clip-path="url(#p36454e9e17)" style="fill: none; stroke: #0000ff; stroke-width: 1.5; stroke-linecap: square"/>
   </g>
  </g>
  <g id="axes_6">
   <g id="PolyCollection_6">
    <defs>
     <path id="m807b0d6eff" d="M 649.086494 -219.851211 
L 649.086494 -146.961891 
L 656.546387 -195.338393 
L 664.00628 -132.505658 
L 671.466173 -127.780988 
L 678.926066 -124.0599 
L 686.385959 -167.168171 
L 693.845852 -122.256904 
L 701.305745 -147.427873 
L 708.765638 -113.301775 
L 716.225531 -128.807231 
L 723.685424 -72.091008 
L 731.145318 -125.830134 
L 738.605211 -142.003987 
L 746.065104 -88.354265 
L 753.524997 -126.76263 
L 760.98489 -156.28102 
L 768.444783 -65.64125 
L 775.904676 -131.407508 
L 783.364569 -69.100982 
L 790.824462 -95.521692 
L 798.284355 -104.018976 
L 805.744248 -135.059472 
L 813.204141 -145.875052 
L 820.664034 -98.525422 
L 828.123927 -135.431578 
L 835.58382 -162.071297 
L 843.043713 -147.871691 
L 850.503606 -121.122706 
L 857.963499 -100.788811 
L 865.423392 -124.91779 
L 872.883285 -98.835736 
L 872.883285 -317.64125 
L 872.883285 -317.64125 
L 865.423392 -250.642552 
L 857.963499 -303.823095 
L 850.503606 -228.751934 
L 843.043713 -286.805926 
L 835.58382 -208.346597 
L 828.123927 -197.887279 
L 820.664034 -262.412715 
L 813.204141 -265.356251 
L 805.744248 -275.637242 
L 798.284355 -255.18056 
L 790.824462 -169.123434 
L 783.364569 -157.50766 
L 775.904676 -183.538562 
L 768.444783 -207.900623 
L 760.98489 -254.113915 
L 753.524997 -226.16647 
L 746.065104 -233.052473 
L 738.605211 -192.383326 
L 731.145318 -233.565998 
L 723.685424 -197.025971 
L 716.225531 -205.06495 
L 708.765638 -271.974671 
L 701.305745 -228.33729 
L 693.845852 -259.361241 
L 686.385959 -219.696705 
L 678.926066 -254.309832 
L 671.466173 -259.09018 
L 664.00628 -201.82979 
L 656.546387 -253.208924 
L 649.086494 -219.851211 
z
" style="stroke: #0000ff; stroke-opacity: 0.2"/>
    </defs>
    <g clip-path="url(#p78b7a6e656)">
     <use xlink:href="#m807b0d6eff" x="0" y="359.853875" style="fill: #0000ff; fill-opacity: 0.2; stroke: #0000ff; stroke-opacity: 0.2"/>
    </g>
   </g>
   <g id="matplotlib.axis_7">
    <g id="ytick_19">
     <g id="line2d_36">
      <defs>
       <path id="mc345e766da" d="M 0 0 
L 3.5 0 
" style="stroke: #000000; stroke-width: 0.8"/>
      </defs>
      <g>
       <use xlink:href="#mc345e766da" x="884.073125" y="252.233826" style="stroke: #000000; stroke-width: 0.8"/>
      </g>
     </g>
     <g id="text_26">
      <!-- 0.00 -->
      <g transform="translate(891.073125 259.07242) scale(0.18 -0.18)">
       <defs>
        <path id="DejaVuSans-2e" d="M 684 794 
L 1344 794 
L 1344 0 
L 684 0 
L 684 794 
z
" transform="scale(0.015625)"/>
       </defs>
       <use xlink:href="#DejaVuSans-30"/>
       <use xlink:href="#DejaVuSans-2e" x="63.623047"/>
       <use xlink:href="#DejaVuSans-30" x="95.410156"/>
       <use xlink:href="#DejaVuSans-30" x="159.033203"/>
      </g>
     </g>
    </g>
    <g id="ytick_20">
     <g id="line2d_37">
      <g>
       <use xlink:href="#mc345e766da" x="884.073125" y="176.504562" style="stroke: #000000; stroke-width: 0.8"/>
      </g>
     </g>
     <g id="text_27">
      <!-- 0.00 -->
      <g transform="translate(891.073125 183.343155) scale(0.18 -0.18)">
       <use xlink:href="#DejaVuSans-30"/>
       <use xlink:href="#DejaVuSans-2e" x="63.623047"/>
       <use xlink:href="#DejaVuSans-30" x="95.410156"/>
       <use xlink:href="#DejaVuSans-30" x="159.033203"/>
      </g>
     </g>
    </g>
    <g id="ytick_21">
     <g id="line2d_38">
      <g>
       <use xlink:href="#mc345e766da" x="884.073125" y="100.775297" style="stroke: #000000; stroke-width: 0.8"/>
      </g>
     </g>
     <g id="text_28">
      <!-- 0.00 -->
      <g transform="translate(891.073125 107.61389) scale(0.18 -0.18)">
       <use xlink:href="#DejaVuSans-30"/>
       <use xlink:href="#DejaVuSans-2e" x="63.623047"/>
       <use xlink:href="#DejaVuSans-30" x="95.410156"/>
       <use xlink:href="#DejaVuSans-30" x="159.033203"/>
      </g>
     </g>
    </g>
    <g id="text_29">
     <!-- EMD -->
     <g style="fill: #0000ff" transform="translate(948.828437 188.594813) rotate(-90) scale(0.18 -0.18)">
      <use xlink:href="#DejaVuSans-45"/>
      <use xlink:href="#DejaVuSans-4d" x="63.183594"/>
      <use xlink:href="#DejaVuSans-44" x="149.462891"/>
     </g>
    </g>
   </g>
   <g id="line2d_39">
    <path d="M 649.086494 176.447324 
L 656.546387 135.580217 
L 664.00628 192.686151 
L 671.466173 166.418291 
L 678.926066 170.669009 
L 686.385959 166.421437 
L 693.845852 169.044803 
L 701.305745 171.971294 
L 708.765638 167.215652 
L 716.225531 192.917784 
L 723.685424 225.295385 
L 731.145318 180.155809 
L 738.605211 192.660219 
L 746.065104 199.150506 
L 753.524997 183.389325 
L 760.98489 154.656408 
L 768.444783 223.082938 
L 775.904676 202.38084 
L 783.364569 246.549554 
L 790.824462 227.531312 
L 798.284355 180.254107 
L 805.744248 154.505518 
L 813.204141 154.238224 
L 820.664034 179.384806 
L 828.123927 193.194447 
L 835.58382 174.644928 
L 843.043713 142.515066 
L 850.503606 184.916555 
L 857.963499 157.547922 
L 865.423392 172.073704 
L 872.883285 151.615382 
" clip-path="url(#p78b7a6e656)" style="fill: none; stroke: #0000ff; stroke-width: 1.5; stroke-linecap: square"/>
   </g>
   <g id="patch_17">
    <path d="M 637.896654 306.812625 
L 637.896654 29.612625 
" style="fill: none; stroke: #000000; stroke-width: 0.8; stroke-linejoin: miter; stroke-linecap: square"/>
   </g>
   <g id="patch_18">
    <path d="M 884.073125 306.812625 
L 884.073125 29.612625 
" style="fill: none; stroke: #000000; stroke-width: 0.8; stroke-linejoin: miter; stroke-linecap: square"/>
   </g>
   <g id="patch_19">
    <path d="M 637.896654 306.812625 
L 884.073125 306.812625 
" style="fill: none; stroke: #000000; stroke-width: 0.8; stroke-linejoin: miter; stroke-linecap: square"/>
   </g>
   <g id="patch_20">
    <path d="M 637.896654 29.612625 
L 884.073125 29.612625 
" style="fill: none; stroke: #000000; stroke-width: 0.8; stroke-linejoin: miter; stroke-linecap: square"/>
   </g>
  </g>
 </g>
 <defs>
  <clipPath id="p540f4d34e9">
   <rect x="47.073125" y="29.612625" width="246.176471" height="277.2"/>
  </clipPath>
  <clipPath id="p36454e9e17">
   <rect x="342.48489" y="29.612625" width="246.176471" height="277.2"/>
  </clipPath>
  <clipPath id="p78b7a6e656">
   <rect x="637.896654" y="29.612625" width="246.176471" height="277.2"/>
  </clipPath>
 </defs>
</svg>
