<?xml version="1.0" encoding="utf-8" standalone="no"?>
<!DOCTYPE svg PUBLIC "-//W3C//DTD SVG 1.1//EN"
  "http://www.w3.org/Graphics/SVG/1.1/DTD/svg11.dtd">
<svg xmlns:xlink="http://www.w3.org/1999/xlink" width="455.202975pt" height="326.35325pt" viewBox="0 0 455.202975 326.35325" xmlns="http://www.w3.org/2000/svg" version="1.1">
 <metadata>
  <rdf:RDF xmlns:dc="http://purl.org/dc/elements/1.1/" xmlns:cc="http://creativecommons.org/ns#" xmlns:rdf="http://www.w3.org/1999/02/22-rdf-syntax-ns#">
   <cc:Work>
    <dc:type rdf:resource="http://purl.org/dc/dcmitype/StillImage"/>
    <dc:date>2023-11-07T15:19:00.596718</dc:date>
    <dc:format>image/svg+xml</dc:format>
    <dc:creator>
     <cc:Agent>
      <dc:title>Matplotlib v3.7.1, https://matplotlib.org/</dc:title>
     </cc:Agent>
    </dc:creator>
   </cc:Work>
  </rdf:RDF>
 </metadata>
 <defs>
  <style type="text/css">*{stroke-linejoin: round; stroke-linecap: butt}</style>
 </defs>
 <g id="figure_1">
  <g id="patch_1">
   <path d="M 0 326.35325 
L 455.202975 326.35325 
L 455.202975 0 
L 0 0 
z
" style="fill: #ffffff"/>
  </g>
  <g id="axes_1">
   <g id="patch_2">
    <path d="M 81.430625 273.312 
L 438.550625 273.312 
L 438.550625 7.2 
L 81.430625 7.2 
z
" style="fill: #ffffff"/>
   </g>
   <g id="PolyCollection_1">
    <defs>
     <path id="m5ce7a461ad" d="M 104.987085 -53.248739 
L 104.987085 -53.04125 
L 106.399798 -53.04125 
L 107.812511 -53.04125 
L 109.225223 -53.04125 
L 110.637936 -53.04125 
L 112.050649 -53.04125 
L 113.463362 -53.04125 
L 114.876074 -53.04125 
L 116.288787 -53.04125 
L 117.7015 -53.04125 
L 119.114213 -53.04125 
L 120.526925 -53.04125 
L 121.939638 -53.04125 
L 123.352351 -53.04125 
L 124.765064 -53.04125 
L 126.177776 -53.04125 
L 127.590489 -53.04125 
L 129.003202 -53.04125 
L 130.415915 -53.04125 
L 131.828627 -53.04125 
L 133.24134 -53.04125 
L 134.654053 -53.04125 
L 136.066766 -53.04125 
L 137.479478 -53.04125 
L 138.892191 -53.04125 
L 140.304904 -53.04125 
L 141.717617 -53.04125 
L 143.130329 -53.04125 
L 144.543042 -53.04125 
L 145.955755 -53.04125 
L 147.368468 -53.04125 
L 148.78118 -53.04125 
L 150.193893 -53.04125 
L 151.606606 -53.04125 
L 153.019319 -53.04125 
L 154.432031 -53.04125 
L 155.844744 -53.04125 
L 157.257457 -53.04125 
L 158.67017 -53.04125 
L 160.082882 -53.04125 
L 161.495595 -53.04125 
L 162.908308 -53.04125 
L 164.321021 -53.04125 
L 165.733733 -53.04125 
L 167.146446 -53.04125 
L 168.559159 -53.04125 
L 169.971872 -53.04125 
L 171.384584 -53.04125 
L 172.797297 -53.04125 
L 174.21001 -53.04125 
L 175.622723 -53.04125 
L 177.035435 -53.04125 
L 178.448148 -53.04125 
L 179.860861 -53.04125 
L 181.273574 -53.04125 
L 182.686286 -53.04125 
L 184.098999 -53.04125 
L 185.511712 -53.04125 
L 186.924425 -53.04125 
L 188.337137 -53.04125 
L 189.74985 -53.04125 
L 191.162563 -53.04125 
L 192.575276 -53.04125 
L 193.987988 -53.04125 
L 195.400701 -53.04125 
L 196.813414 -53.04125 
L 198.226127 -53.04125 
L 199.638839 -53.04125 
L 201.051552 -53.04125 
L 202.464265 -53.04125 
L 203.876978 -53.04125 
L 205.28969 -53.04125 
L 206.702403 -53.04125 
L 208.115116 -53.04125 
L 209.527829 -53.04125 
L 210.940541 -53.04125 
L 212.353254 -53.04125 
L 213.765967 -53.04125 
L 215.17868 -53.04125 
L 216.591392 -53.04125 
L 218.004105 -53.04125 
L 219.416818 -53.04125 
L 220.829531 -53.04125 
L 222.242243 -53.04125 
L 223.654956 -53.04125 
L 225.067669 -53.04125 
L 226.480382 -53.04125 
L 227.893094 -53.04125 
L 229.305807 -53.04125 
L 230.71852 -53.04125 
L 232.131233 -53.04125 
L 233.543945 -53.04125 
L 234.956658 -53.04125 
L 236.369371 -53.04125 
L 237.782084 -53.04125 
L 239.194796 -53.04125 
L 240.607509 -53.04125 
L 242.020222 -53.04125 
L 243.432935 -53.04125 
L 244.845647 -53.04125 
L 246.25836 -53.04125 
L 247.671073 -53.04125 
L 249.083786 -53.04125 
L 250.496498 -53.04125 
L 251.909211 -53.04125 
L 253.321924 -53.04125 
L 254.734637 -53.04125 
L 256.147349 -53.04125 
L 257.560062 -53.04125 
L 258.972775 -53.04125 
L 260.385488 -53.04125 
L 261.7982 -53.04125 
L 263.210913 -53.04125 
L 264.623626 -53.04125 
L 266.036339 -53.04125 
L 267.449051 -53.04125 
L 268.861764 -53.04125 
L 270.274477 -53.04125 
L 271.68719 -53.04125 
L 273.099902 -53.04125 
L 274.512615 -53.04125 
L 275.925328 -53.04125 
L 277.338041 -53.04125 
L 278.750753 -53.04125 
L 280.163466 -53.04125 
L 281.576179 -53.04125 
L 282.988892 -53.04125 
L 284.401604 -53.04125 
L 285.814317 -53.04125 
L 287.22703 -53.04125 
L 288.639743 -53.04125 
L 290.052455 -53.04125 
L 291.465168 -53.04125 
L 292.877881 -53.04125 
L 294.290594 -53.04125 
L 295.703306 -53.04125 
L 297.116019 -53.04125 
L 298.528732 -53.04125 
L 299.941445 -53.04125 
L 301.354157 -53.04125 
L 302.76687 -53.04125 
L 304.179583 -53.04125 
L 305.592296 -53.04125 
L 307.005008 -53.04125 
L 308.417721 -53.04125 
L 309.830434 -53.04125 
L 311.243147 -53.04125 
L 312.655859 -53.04125 
L 314.068572 -53.04125 
L 315.481285 -53.04125 
L 316.893998 -53.04125 
L 318.30671 -53.04125 
L 319.719423 -53.04125 
L 321.132136 -53.04125 
L 322.544849 -53.04125 
L 323.957561 -53.04125 
L 325.370274 -53.04125 
L 326.782987 -53.04125 
L 328.1957 -53.04125 
L 329.608412 -53.04125 
L 331.021125 -53.04125 
L 332.433838 -53.04125 
L 333.846551 -53.04125 
L 335.259263 -53.04125 
L 336.671976 -53.04125 
L 338.084689 -53.04125 
L 339.497402 -53.04125 
L 340.910114 -53.04125 
L 342.322827 -53.04125 
L 343.73554 -53.04125 
L 345.148253 -53.04125 
L 346.560965 -53.04125 
L 347.973678 -53.04125 
L 349.386391 -53.04125 
L 350.799104 -53.04125 
L 352.211816 -53.04125 
L 353.624529 -53.04125 
L 355.037242 -53.04125 
L 356.449955 -53.04125 
L 357.862667 -53.04125 
L 359.27538 -53.04125 
L 360.688093 -53.04125 
L 362.100806 -53.04125 
L 363.513518 -53.04125 
L 364.926231 -53.04125 
L 366.338944 -53.04125 
L 367.751657 -53.04125 
L 369.164369 -53.04125 
L 370.577082 -53.04125 
L 371.989795 -53.04125 
L 373.402508 -53.04125 
L 374.81522 -53.04125 
L 376.227933 -53.04125 
L 377.640646 -53.04125 
L 379.053359 -53.04125 
L 380.466071 -53.04125 
L 381.878784 -53.04125 
L 383.291497 -53.04125 
L 384.70421 -53.04125 
L 386.116922 -53.04125 
L 386.116922 -53.124977 
L 386.116922 -53.124977 
L 384.70421 -53.152195 
L 383.291497 -53.187126 
L 381.878784 -53.23158 
L 380.466071 -53.287681 
L 379.053359 -53.357886 
L 377.640646 -53.445007 
L 376.227933 -53.552214 
L 374.81522 -53.683038 
L 373.402508 -53.84135 
L 371.989795 -54.03133 
L 370.577082 -54.25742 
L 369.164369 -54.524257 
L 367.751657 -54.836586 
L 366.338944 -55.199163 
L 364.926231 -55.616634 
L 363.513518 -56.093416 
L 362.100806 -56.633559 
L 360.688093 -57.240618 
L 359.27538 -57.917526 
L 357.862667 -58.666487 
L 356.449955 -59.488885 
L 355.037242 -60.385229 
L 353.624529 -61.355127 
L 352.211816 -62.397301 
L 350.799104 -63.509648 
L 349.386391 -64.689338 
L 347.973678 -65.932952 
L 346.560965 -67.236656 
L 345.148253 -68.596397 
L 343.73554 -70.008113 
L 342.322827 -71.467948 
L 340.910114 -72.972456 
L 339.497402 -74.518776 
L 338.084689 -76.104775 
L 336.671976 -77.729145 
L 335.259263 -79.391443 
L 333.846551 -81.092077 
L 332.433838 -82.832227 
L 331.021125 -84.613724 
L 329.608412 -86.438867 
L 328.1957 -88.31022 
L 326.782987 -90.230376 
L 325.370274 -92.201723 
L 323.957561 -94.226216 
L 322.544849 -96.305169 
L 321.132136 -98.439101 
L 319.719423 -100.627608 
L 318.30671 -102.869313 
L 316.893998 -105.161859 
L 315.481285 -107.501965 
L 314.068572 -109.885538 
L 312.655859 -112.307823 
L 311.243147 -114.76359 
L 309.830434 -117.247337 
L 308.417721 -119.753501 
L 307.005008 -122.276664 
L 305.592296 -124.811734 
L 304.179583 -127.354106 
L 302.76687 -129.899775 
L 301.354157 -132.445429 
L 299.941445 -134.988486 
L 298.528732 -137.527117 
L 297.116019 -140.060227 
L 295.703306 -142.587432 
L 294.290594 -145.109031 
L 292.877881 -147.625981 
L 291.465168 -150.139898 
L 290.052455 -152.653086 
L 288.639743 -155.168598 
L 287.22703 -157.690345 
L 285.814317 -160.223233 
L 284.401604 -162.773336 
L 282.988892 -165.348085 
L 281.576179 -167.956453 
L 280.163466 -170.609123 
L 278.750753 -173.318608 
L 277.338041 -176.09929 
L 275.925328 -178.967362 
L 274.512615 -181.940647 
L 273.099902 -185.038263 
L 271.68719 -188.280135 
L 270.274477 -191.68635 
L 268.861764 -195.276346 
L 267.449051 -199.067984 
L 266.036339 -203.076505 
L 264.623626 -207.313436 
L 263.210913 -211.785493 
L 261.7982 -216.493538 
L 260.385488 -221.431658 
L 258.972775 -226.586433 
L 257.560062 -231.936451 
L 256.147349 -237.452109 
L 254.734637 -243.095764 
L 253.321924 -248.82222 
L 251.909211 -254.579573 
L 250.496498 -260.310388 
L 249.083786 -265.953156 
L 247.671073 -271.443982 
L 246.25836 -276.718421 
L 244.845647 -281.713371 
L 243.432935 -286.368938 
L 242.020222 -290.630175 
L 240.607509 -294.448613 
L 239.194796 -297.783507 
L 237.782084 -300.602748 
L 236.369371 -302.883402 
L 234.956658 -304.611867 
L 233.543945 -305.783656 
L 232.131233 -306.402849 
L 230.71852 -306.48125 
L 229.305807 -306.037323 
L 227.893094 -305.094983 
L 226.480382 -303.682313 
L 225.067669 -301.830285 
L 223.654956 -299.57155 
L 222.242243 -296.939362 
L 220.829531 -293.966663 
L 219.416818 -290.685378 
L 218.004105 -287.125908 
L 216.591392 -283.316836 
L 215.17868 -279.284823 
L 213.765967 -275.054659 
L 212.353254 -270.649456 
L 210.940541 -266.090924 
L 209.527829 -261.399705 
L 208.115116 -256.595722 
L 206.702403 -251.69852 
L 205.28969 -246.72756 
L 203.876978 -241.702454 
L 202.464265 -236.643124 
L 201.051552 -231.569876 
L 199.638839 -226.50339 
L 198.226127 -221.464618 
L 196.813414 -216.474606 
L 195.400701 -211.554236 
L 193.987988 -206.723909 
L 192.575276 -202.003169 
L 191.162563 -197.410285 
L 189.74985 -192.961812 
L 188.337137 -188.672126 
L 186.924425 -184.55298 
L 185.511712 -180.613065 
L 184.098999 -176.857631 
L 182.686286 -173.28816 
L 181.273574 -169.90213 
L 179.860861 -166.692883 
L 178.448148 -163.64962 
L 177.035435 -160.757526 
L 175.622723 -157.998056 
L 174.21001 -155.349358 
L 172.797297 -152.786849 
L 171.384584 -150.28393 
L 169.971872 -147.812805 
L 168.559159 -145.345396 
L 167.146446 -142.854302 
L 165.733733 -140.313775 
L 164.321021 -137.700668 
L 162.908308 -134.995301 
L 161.495595 -132.182226 
L 160.082882 -129.250829 
L 158.67017 -126.195758 
L 157.257457 -123.01715 
L 155.844744 -119.720636 
L 154.432031 -116.317145 
L 153.019319 -112.82249 
L 151.606606 -109.25678 
L 150.193893 -105.643674 
L 148.78118 -102.009513 
L 147.368468 -98.382386 
L 145.955755 -94.791149 
L 144.543042 -91.264468 
L 143.130329 -87.829903 
L 141.717617 -84.513087 
L 140.304904 -81.337024 
L 138.892191 -78.321522 
L 137.479478 -75.48279 
L 136.066766 -72.833189 
L 134.654053 -70.381139 
L 133.24134 -68.131185 
L 131.828627 -66.08418 
L 130.415915 -64.237586 
L 129.003202 -62.585861 
L 127.590489 -61.120906 
L 126.177776 -59.832542 
L 124.765064 -58.709008 
L 123.352351 -57.737438 
L 121.939638 -56.904317 
L 120.526925 -56.195895 
L 119.114213 -55.598541 
L 117.7015 -55.099045 
L 116.288787 -54.68486 
L 114.876074 -54.344275 
L 113.463362 -54.066544 
L 112.050649 -53.841951 
L 110.637936 -53.661839 
L 109.225223 -53.518599 
L 107.812511 -53.405629 
L 106.399798 -53.317272 
L 104.987085 -53.248739 
z
" style="stroke: #2ca02c"/>
    </defs>
    <g clip-path="url(#p594c29e97d)">
     <use xlink:href="#m5ce7a461ad" x="0" y="326.35325" style="fill: #2ca02c; fill-opacity: 0.25; stroke: #2ca02c"/>
    </g>
   </g>
   <g id="PolyCollection_2">
    <defs>
     <path id="m6a8b6d618d" d="M 97.663352 -53.32024 
L 97.663352 -53.04125 
L 99.229662 -53.04125 
L 100.795973 -53.04125 
L 102.362283 -53.04125 
L 103.928593 -53.04125 
L 105.494903 -53.04125 
L 107.061213 -53.04125 
L 108.627523 -53.04125 
L 110.193833 -53.04125 
L 111.760144 -53.04125 
L 113.326454 -53.04125 
L 114.892764 -53.04125 
L 116.459074 -53.04125 
L 118.025384 -53.04125 
L 119.591694 -53.04125 
L 121.158004 -53.04125 
L 122.724315 -53.04125 
L 124.290625 -53.04125 
L 125.856935 -53.04125 
L 127.423245 -53.04125 
L 128.989555 -53.04125 
L 130.555865 -53.04125 
L 132.122175 -53.04125 
L 133.688485 -53.04125 
L 135.254796 -53.04125 
L 136.821106 -53.04125 
L 138.387416 -53.04125 
L 139.953726 -53.04125 
L 141.520036 -53.04125 
L 143.086346 -53.04125 
L 144.652656 -53.04125 
L 146.218967 -53.04125 
L 147.785277 -53.04125 
L 149.351587 -53.04125 
L 150.917897 -53.04125 
L 152.484207 -53.04125 
L 154.050517 -53.04125 
L 155.616827 -53.04125 
L 157.183138 -53.04125 
L 158.749448 -53.04125 
L 160.315758 -53.04125 
L 161.882068 -53.04125 
L 163.448378 -53.04125 
L 165.014688 -53.04125 
L 166.580998 -53.04125 
L 168.147309 -53.04125 
L 169.713619 -53.04125 
L 171.279929 -53.04125 
L 172.846239 -53.04125 
L 174.412549 -53.04125 
L 175.978859 -53.04125 
L 177.545169 -53.04125 
L 179.11148 -53.04125 
L 180.67779 -53.04125 
L 182.2441 -53.04125 
L 183.81041 -53.04125 
L 185.37672 -53.04125 
L 186.94303 -53.04125 
L 188.50934 -53.04125 
L 190.075651 -53.04125 
L 191.641961 -53.04125 
L 193.208271 -53.04125 
L 194.774581 -53.04125 
L 196.340891 -53.04125 
L 197.907201 -53.04125 
L 199.473511 -53.04125 
L 201.039822 -53.04125 
L 202.606132 -53.04125 
L 204.172442 -53.04125 
L 205.738752 -53.04125 
L 207.305062 -53.04125 
L 208.871372 -53.04125 
L 210.437682 -53.04125 
L 212.003993 -53.04125 
L 213.570303 -53.04125 
L 215.136613 -53.04125 
L 216.702923 -53.04125 
L 218.269233 -53.04125 
L 219.835543 -53.04125 
L 221.401853 -53.04125 
L 222.968163 -53.04125 
L 224.534474 -53.04125 
L 226.100784 -53.04125 
L 227.667094 -53.04125 
L 229.233404 -53.04125 
L 230.799714 -53.04125 
L 232.366024 -53.04125 
L 233.932334 -53.04125 
L 235.498645 -53.04125 
L 237.064955 -53.04125 
L 238.631265 -53.04125 
L 240.197575 -53.04125 
L 241.763885 -53.04125 
L 243.330195 -53.04125 
L 244.896505 -53.04125 
L 246.462816 -53.04125 
L 248.029126 -53.04125 
L 249.595436 -53.04125 
L 251.161746 -53.04125 
L 252.728056 -53.04125 
L 254.294366 -53.04125 
L 255.860676 -53.04125 
L 257.426987 -53.04125 
L 258.993297 -53.04125 
L 260.559607 -53.04125 
L 262.125917 -53.04125 
L 263.692227 -53.04125 
L 265.258537 -53.04125 
L 266.824847 -53.04125 
L 268.391158 -53.04125 
L 269.957468 -53.04125 
L 271.523778 -53.04125 
L 273.090088 -53.04125 
L 274.656398 -53.04125 
L 276.222708 -53.04125 
L 277.789018 -53.04125 
L 279.355329 -53.04125 
L 280.921639 -53.04125 
L 282.487949 -53.04125 
L 284.054259 -53.04125 
L 285.620569 -53.04125 
L 287.186879 -53.04125 
L 288.753189 -53.04125 
L 290.3195 -53.04125 
L 291.88581 -53.04125 
L 293.45212 -53.04125 
L 295.01843 -53.04125 
L 296.58474 -53.04125 
L 298.15105 -53.04125 
L 299.71736 -53.04125 
L 301.283671 -53.04125 
L 302.849981 -53.04125 
L 304.416291 -53.04125 
L 305.982601 -53.04125 
L 307.548911 -53.04125 
L 309.115221 -53.04125 
L 310.681531 -53.04125 
L 312.247841 -53.04125 
L 313.814152 -53.04125 
L 315.380462 -53.04125 
L 316.946772 -53.04125 
L 318.513082 -53.04125 
L 320.079392 -53.04125 
L 321.645702 -53.04125 
L 323.212012 -53.04125 
L 324.778323 -53.04125 
L 326.344633 -53.04125 
L 327.910943 -53.04125 
L 329.477253 -53.04125 
L 331.043563 -53.04125 
L 332.609873 -53.04125 
L 334.176183 -53.04125 
L 335.742494 -53.04125 
L 337.308804 -53.04125 
L 338.875114 -53.04125 
L 340.441424 -53.04125 
L 342.007734 -53.04125 
L 343.574044 -53.04125 
L 345.140354 -53.04125 
L 346.706665 -53.04125 
L 348.272975 -53.04125 
L 349.839285 -53.04125 
L 351.405595 -53.04125 
L 352.971905 -53.04125 
L 354.538215 -53.04125 
L 356.104525 -53.04125 
L 357.670836 -53.04125 
L 359.237146 -53.04125 
L 360.803456 -53.04125 
L 362.369766 -53.04125 
L 363.936076 -53.04125 
L 365.502386 -53.04125 
L 367.068696 -53.04125 
L 368.635007 -53.04125 
L 370.201317 -53.04125 
L 371.767627 -53.04125 
L 373.333937 -53.04125 
L 374.900247 -53.04125 
L 376.466557 -53.04125 
L 378.032867 -53.04125 
L 379.599178 -53.04125 
L 381.165488 -53.04125 
L 382.731798 -53.04125 
L 384.298108 -53.04125 
L 385.864418 -53.04125 
L 387.430728 -53.04125 
L 388.997038 -53.04125 
L 390.563348 -53.04125 
L 392.129659 -53.04125 
L 393.695969 -53.04125 
L 395.262279 -53.04125 
L 396.828589 -53.04125 
L 398.394899 -53.04125 
L 399.961209 -53.04125 
L 401.527519 -53.04125 
L 403.09383 -53.04125 
L 404.66014 -53.04125 
L 406.22645 -53.04125 
L 407.79276 -53.04125 
L 409.35907 -53.04125 
L 409.35907 -53.089066 
L 409.35907 -53.089066 
L 407.79276 -53.104588 
L 406.22645 -53.124424 
L 404.66014 -53.149535 
L 403.09383 -53.181021 
L 401.527519 -53.220128 
L 399.961209 -53.268241 
L 398.394899 -53.326874 
L 396.828589 -53.397657 
L 395.262279 -53.482304 
L 393.695969 -53.582586 
L 392.129659 -53.700289 
L 390.563348 -53.837166 
L 388.997038 -53.994891 
L 387.430728 -54.175003 
L 385.864418 -54.378853 
L 384.298108 -54.607562 
L 382.731798 -54.861975 
L 381.165488 -55.142638 
L 379.599178 -55.449773 
L 378.032867 -55.783287 
L 376.466557 -56.142777 
L 374.900247 -56.527569 
L 373.333937 -56.936755 
L 371.767627 -57.369254 
L 370.201317 -57.823871 
L 368.635007 -58.299364 
L 367.068696 -58.794507 
L 365.502386 -59.308145 
L 363.936076 -59.83924 
L 362.369766 -60.386909 
L 360.803456 -60.950439 
L 359.237146 -61.529301 
L 357.670836 -62.123152 
L 356.104525 -62.731831 
L 354.538215 -63.355362 
L 352.971905 -63.993965 
L 351.405595 -64.648078 
L 349.839285 -65.318399 
L 348.272975 -66.005949 
L 346.706665 -66.712142 
L 345.140354 -67.438882 
L 343.574044 -68.188646 
L 342.007734 -68.964569 
L 340.441424 -69.770502 
L 338.875114 -70.611032 
L 337.308804 -71.491457 
L 335.742494 -72.417694 
L 334.176183 -73.396127 
L 332.609873 -74.433379 
L 331.043563 -75.536033 
L 329.477253 -76.710288 
L 327.910943 -77.961594 
L 326.344633 -79.294276 
L 324.778323 -80.711166 
L 323.212012 -82.213288 
L 321.645702 -83.799612 
L 320.079392 -85.466904 
L 318.513082 -87.209681 
L 316.946772 -89.020298 
L 315.380462 -90.889154 
L 313.814152 -92.805009 
L 312.247841 -94.755411 
L 310.681531 -96.727191 
L 309.115221 -98.707005 
L 307.548911 -100.681892 
L 305.982601 -102.63981 
L 304.416291 -104.570118 
L 302.849981 -106.46398 
L 301.283671 -108.314659 
L 299.71736 -110.117707 
L 298.15105 -111.871019 
L 296.58474 -113.574779 
L 295.01843 -115.231288 
L 293.45212 -116.844713 
L 291.88581 -118.420755 
L 290.3195 -119.966294 
L 288.753189 -121.489009 
L 287.186879 -122.997027 
L 285.620569 -124.498615 
L 284.054259 -126.001943 
L 282.487949 -127.514929 
L 280.921639 -129.045191 
L 279.355329 -130.600101 
L 277.789018 -132.186936 
L 276.222708 -133.813125 
L 274.656398 -135.486564 
L 273.090088 -137.215974 
L 271.523778 -139.011282 
L 269.957468 -140.883966 
L 268.391158 -142.847353 
L 266.824847 -144.916814 
L 265.258537 -147.109825 
L 263.692227 -149.445869 
L 262.125917 -151.946157 
L 260.559607 -154.633152 
L 258.993297 -157.529904 
L 257.426987 -160.659206 
L 255.860676 -164.042604 
L 254.294366 -167.699301 
L 252.728056 -171.644993 
L 251.161746 -175.890725 
L 249.595436 -180.441798 
L 248.029126 -185.296814 
L 246.462816 -190.446918 
L 244.896505 -195.875276 
L 243.330195 -201.55685 
L 241.763885 -207.458488 
L 240.197575 -213.539334 
L 238.631265 -219.751573 
L 237.064955 -226.041455 
L 235.498645 -232.350589 
L 233.932334 -238.617429 
L 232.366024 -244.778891 
L 230.799714 -250.772043 
L 229.233404 -256.535766 
L 227.667094 -262.012342 
L 226.100784 -267.148878 
L 224.534474 -271.898532 
L 222.968163 -276.221475 
L 221.401853 -280.085588 
L 219.835543 -283.466853 
L 218.269233 -286.349468 
L 216.702923 -288.725678 
L 215.136613 -290.595375 
L 213.570303 -291.965484 
L 212.003993 -292.849189 
L 210.437682 -293.265042 
L 208.871372 -293.236005 
L 207.305062 -292.788458 
L 205.738752 -291.951225 
L 204.172442 -290.754634 
L 202.606132 -289.229665 
L 201.039822 -287.407165 
L 199.473511 -285.317191 
L 197.907201 -282.988445 
L 196.340891 -280.447834 
L 194.774581 -277.72014 
L 193.208271 -274.827783 
L 191.641961 -271.790693 
L 190.075651 -268.626242 
L 188.50934 -265.349251 
L 186.94303 -261.972033 
L 185.37672 -258.504466 
L 183.81041 -254.954071 
L 182.2441 -251.326087 
L 180.67779 -247.623538 
L 179.11148 -243.84728 
L 177.545169 -239.996035 
L 175.978859 -236.06644 
L 174.412549 -232.053095 
L 172.846239 -227.948678 
L 171.279929 -223.744111 
L 169.713619 -219.428827 
L 168.147309 -214.991158 
L 166.580998 -210.418849 
L 165.014688 -205.699697 
L 163.448378 -200.822323 
L 161.882068 -195.777031 
L 160.315758 -190.556725 
L 158.749448 -185.157834 
L 157.183138 -179.581177 
L 155.616827 -173.832713 
L 154.050517 -167.924111 
L 152.484207 -161.873081 
L 150.917897 -155.703439 
L 149.351587 -149.444853 
L 147.785277 -143.132304 
L 146.218967 -136.805241 
L 144.652656 -130.506495 
L 143.086346 -124.280985 
L 141.520036 -118.174307 
L 139.953726 -112.23126 
L 138.387416 -106.494415 
L 136.821106 -101.002773 
L 135.254796 -95.790608 
L 133.688485 -90.88654 
L 132.122175 -86.312861 
L 130.555865 -82.085163 
L 128.989555 -78.212243 
L 127.423245 -74.696282 
L 125.856935 -71.533269 
L 124.290625 -68.713619 
L 122.724315 -66.222947 
L 121.158004 -64.042938 
L 119.591694 -62.152264 
L 118.025384 -60.527503 
L 116.459074 -59.144007 
L 114.892764 -57.976707 
L 113.326454 -57.000804 
L 111.760144 -56.192353 
L 110.193833 -55.52872 
L 108.627523 -54.988919 
L 107.061213 -54.553832 
L 105.494903 -54.206328 
L 103.928593 -53.931291 
L 102.362283 -53.715579 
L 100.795973 -53.547925 
L 99.229662 -53.418798 
L 97.663352 -53.32024 
z
" style="stroke: #ff7f0e"/>
    </defs>
    <g clip-path="url(#p594c29e97d)">
     <use xlink:href="#m6a8b6d618d" x="0" y="326.35325" style="fill: #ff7f0e; fill-opacity: 0.25; stroke: #ff7f0e"/>
    </g>
   </g>
   <g id="PolyCollection_3">
    <defs>
     <path id="m7f54aa126c" d="M 98.479845 -53.291108 
L 98.479845 -53.04125 
L 100.107172 -53.04125 
L 101.734499 -53.04125 
L 103.361826 -53.04125 
L 104.989153 -53.04125 
L 106.616479 -53.04125 
L 108.243806 -53.04125 
L 109.871133 -53.04125 
L 111.49846 -53.04125 
L 113.125787 -53.04125 
L 114.753114 -53.04125 
L 116.380441 -53.04125 
L 118.007768 -53.04125 
L 119.635095 -53.04125 
L 121.262422 -53.04125 
L 122.889748 -53.04125 
L 124.517075 -53.04125 
L 126.144402 -53.04125 
L 127.771729 -53.04125 
L 129.399056 -53.04125 
L 131.026383 -53.04125 
L 132.65371 -53.04125 
L 134.281037 -53.04125 
L 135.908364 -53.04125 
L 137.535691 -53.04125 
L 139.163017 -53.04125 
L 140.790344 -53.04125 
L 142.417671 -53.04125 
L 144.044998 -53.04125 
L 145.672325 -53.04125 
L 147.299652 -53.04125 
L 148.926979 -53.04125 
L 150.554306 -53.04125 
L 152.181633 -53.04125 
L 153.80896 -53.04125 
L 155.436286 -53.04125 
L 157.063613 -53.04125 
L 158.69094 -53.04125 
L 160.318267 -53.04125 
L 161.945594 -53.04125 
L 163.572921 -53.04125 
L 165.200248 -53.04125 
L 166.827575 -53.04125 
L 168.454902 -53.04125 
L 170.082228 -53.04125 
L 171.709555 -53.04125 
L 173.336882 -53.04125 
L 174.964209 -53.04125 
L 176.591536 -53.04125 
L 178.218863 -53.04125 
L 179.84619 -53.04125 
L 181.473517 -53.04125 
L 183.100844 -53.04125 
L 184.728171 -53.04125 
L 186.355497 -53.04125 
L 187.982824 -53.04125 
L 189.610151 -53.04125 
L 191.237478 -53.04125 
L 192.864805 -53.04125 
L 194.492132 -53.04125 
L 196.119459 -53.04125 
L 197.746786 -53.04125 
L 199.374113 -53.04125 
L 201.00144 -53.04125 
L 202.628766 -53.04125 
L 204.256093 -53.04125 
L 205.88342 -53.04125 
L 207.510747 -53.04125 
L 209.138074 -53.04125 
L 210.765401 -53.04125 
L 212.392728 -53.04125 
L 214.020055 -53.04125 
L 215.647382 -53.04125 
L 217.274709 -53.04125 
L 218.902035 -53.04125 
L 220.529362 -53.04125 
L 222.156689 -53.04125 
L 223.784016 -53.04125 
L 225.411343 -53.04125 
L 227.03867 -53.04125 
L 228.665997 -53.04125 
L 230.293324 -53.04125 
L 231.920651 -53.04125 
L 233.547978 -53.04125 
L 235.175304 -53.04125 
L 236.802631 -53.04125 
L 238.429958 -53.04125 
L 240.057285 -53.04125 
L 241.684612 -53.04125 
L 243.311939 -53.04125 
L 244.939266 -53.04125 
L 246.566593 -53.04125 
L 248.19392 -53.04125 
L 249.821247 -53.04125 
L 251.448573 -53.04125 
L 253.0759 -53.04125 
L 254.703227 -53.04125 
L 256.330554 -53.04125 
L 257.957881 -53.04125 
L 259.585208 -53.04125 
L 261.212535 -53.04125 
L 262.839862 -53.04125 
L 264.467189 -53.04125 
L 266.094515 -53.04125 
L 267.721842 -53.04125 
L 269.349169 -53.04125 
L 270.976496 -53.04125 
L 272.603823 -53.04125 
L 274.23115 -53.04125 
L 275.858477 -53.04125 
L 277.485804 -53.04125 
L 279.113131 -53.04125 
L 280.740458 -53.04125 
L 282.367784 -53.04125 
L 283.995111 -53.04125 
L 285.622438 -53.04125 
L 287.249765 -53.04125 
L 288.877092 -53.04125 
L 290.504419 -53.04125 
L 292.131746 -53.04125 
L 293.759073 -53.04125 
L 295.3864 -53.04125 
L 297.013727 -53.04125 
L 298.641053 -53.04125 
L 300.26838 -53.04125 
L 301.895707 -53.04125 
L 303.523034 -53.04125 
L 305.150361 -53.04125 
L 306.777688 -53.04125 
L 308.405015 -53.04125 
L 310.032342 -53.04125 
L 311.659669 -53.04125 
L 313.286996 -53.04125 
L 314.914322 -53.04125 
L 316.541649 -53.04125 
L 318.168976 -53.04125 
L 319.796303 -53.04125 
L 321.42363 -53.04125 
L 323.050957 -53.04125 
L 324.678284 -53.04125 
L 326.305611 -53.04125 
L 327.932938 -53.04125 
L 329.560265 -53.04125 
L 331.187591 -53.04125 
L 332.814918 -53.04125 
L 334.442245 -53.04125 
L 336.069572 -53.04125 
L 337.696899 -53.04125 
L 339.324226 -53.04125 
L 340.951553 -53.04125 
L 342.57888 -53.04125 
L 344.206207 -53.04125 
L 345.833534 -53.04125 
L 347.46086 -53.04125 
L 349.088187 -53.04125 
L 350.715514 -53.04125 
L 352.342841 -53.04125 
L 353.970168 -53.04125 
L 355.597495 -53.04125 
L 357.224822 -53.04125 
L 358.852149 -53.04125 
L 360.479476 -53.04125 
L 362.106802 -53.04125 
L 363.734129 -53.04125 
L 365.361456 -53.04125 
L 366.988783 -53.04125 
L 368.61611 -53.04125 
L 370.243437 -53.04125 
L 371.870764 -53.04125 
L 373.498091 -53.04125 
L 375.125418 -53.04125 
L 376.752745 -53.04125 
L 378.380071 -53.04125 
L 380.007398 -53.04125 
L 381.634725 -53.04125 
L 383.262052 -53.04125 
L 384.889379 -53.04125 
L 386.516706 -53.04125 
L 388.144033 -53.04125 
L 389.77136 -53.04125 
L 391.398687 -53.04125 
L 393.026014 -53.04125 
L 394.65334 -53.04125 
L 396.280667 -53.04125 
L 397.907994 -53.04125 
L 399.535321 -53.04125 
L 401.162648 -53.04125 
L 402.789975 -53.04125 
L 404.417302 -53.04125 
L 406.044629 -53.04125 
L 407.671956 -53.04125 
L 409.299283 -53.04125 
L 410.926609 -53.04125 
L 412.553936 -53.04125 
L 414.181263 -53.04125 
L 415.80859 -53.04125 
L 417.435917 -53.04125 
L 419.063244 -53.04125 
L 420.690571 -53.04125 
L 422.317898 -53.04125 
L 422.317898 -53.088959 
L 422.317898 -53.088959 
L 420.690571 -53.105227 
L 419.063244 -53.126208 
L 417.435917 -53.152975 
L 415.80859 -53.186753 
L 414.181263 -53.228912 
L 412.553936 -53.280955 
L 410.926609 -53.34449 
L 409.299283 -53.421195 
L 407.671956 -53.512768 
L 406.044629 -53.620866 
L 404.417302 -53.747037 
L 402.789975 -53.892638 
L 401.162648 -54.058759 
L 399.535321 -54.246138 
L 397.907994 -54.455094 
L 396.280667 -54.685468 
L 394.65334 -54.936584 
L 393.026014 -55.207244 
L 391.398687 -55.495743 
L 389.77136 -55.799928 
L 388.144033 -56.117283 
L 386.516706 -56.445047 
L 384.889379 -56.78036 
L 383.262052 -57.120418 
L 381.634725 -57.462637 
L 380.007398 -57.804811 
L 378.380071 -58.14524 
L 376.752745 -58.482832 
L 375.125418 -58.817156 
L 373.498091 -59.148447 
L 371.870764 -59.477555 
L 370.243437 -59.805838 
L 368.61611 -60.135023 
L 366.988783 -60.467023 
L 365.361456 -60.803746 
L 363.734129 -61.146908 
L 362.106802 -61.49786 
L 360.479476 -61.857467 
L 358.852149 -62.226034 
L 357.224822 -62.603306 
L 355.597495 -62.98853 
L 353.970168 -63.380592 
L 352.342841 -63.778217 
L 350.715514 -64.180213 
L 349.088187 -64.58575 
L 347.46086 -64.994651 
L 345.833534 -65.407669 
L 344.206207 -65.826746 
L 342.57888 -66.255221 
L 340.951553 -66.69798 
L 339.324226 -67.161547 
L 337.696899 -67.654099 
L 336.069572 -68.185409 
L 334.442245 -68.766718 
L 332.814918 -69.410542 
L 331.187591 -70.130407 
L 329.560265 -70.940526 
L 327.932938 -71.855409 
L 326.305611 -72.889425 
L 324.678284 -74.056304 
L 323.050957 -75.368592 
L 321.42363 -76.83708 
L 319.796303 -78.470202 
L 318.168976 -80.273454 
L 316.541649 -82.248835 
L 314.914322 -84.394364 
L 313.286996 -86.70371 
L 311.659669 -89.165961 
L 310.032342 -91.765592 
L 308.405015 -94.482635 
L 306.777688 -97.29309 
L 305.150361 -100.169568 
L 303.523034 -103.08216 
L 301.895707 -105.999497 
L 300.26838 -108.889953 
L 298.641053 -111.72294 
L 297.013727 -114.470206 
L 295.3864 -117.107085 
L 293.759073 -119.613617 
L 292.131746 -121.975468 
L 290.504419 -124.184627 
L 288.877092 -126.239823 
L 287.249765 -128.146672 
L 285.622438 -129.917559 
L 283.995111 -131.571279 
L 282.367784 -133.132482 
L 280.740458 -134.630969 
L 279.113131 -136.100892 
L 277.485804 -137.579891 
L 275.858477 -139.108222 
L 274.23115 -140.72788 
L 272.603823 -142.481732 
L 270.976496 -144.412662 
L 269.349169 -146.562695 
L 267.721842 -148.972095 
L 266.094515 -151.678409 
L 264.467189 -154.71545 
L 262.839862 -158.1122 
L 261.212535 -161.891675 
L 259.585208 -166.069754 
L 257.957881 -170.654047 
L 256.330554 -175.642851 
L 254.703227 -181.024272 
L 253.0759 -186.775593 
L 251.448573 -192.862969 
L 249.821247 -199.241494 
L 248.19392 -205.855709 
L 246.566593 -212.64056 
L 244.939266 -219.522803 
L 243.311939 -226.422826 
L 241.684612 -233.256829 
L 240.057285 -239.939272 
L 238.429958 -246.385497 
L 236.802631 -252.514387 
L 235.175304 -258.250958 
L 233.547978 -263.528746 
L 231.920651 -268.291878 
L 230.293324 -272.496721 
L 228.665997 -276.113045 
L 227.03867 -279.124621 
L 225.411343 -281.529257 
L 223.784016 -283.338255 
L 222.156689 -284.575348 
L 220.529362 -285.275156 
L 218.902035 -285.48128 
L 217.274709 -285.244118 
L 215.647382 -284.618534 
L 214.020055 -283.661509 
L 212.392728 -282.429876 
L 210.765401 -280.978267 
L 209.138074 -279.357347 
L 207.510747 -277.612392 
L 205.88342 -275.782272 
L 204.256093 -273.898809 
L 202.628766 -271.986518 
L 201.00144 -270.062671 
L 199.374113 -268.137627 
L 197.746786 -266.215359 
L 196.119459 -264.294096 
L 194.492132 -262.36703 
L 192.864805 -260.423008 
L 191.237478 -258.447193 
L 189.610151 -256.421663 
L 187.982824 -254.325938 
L 186.355497 -252.137462 
L 184.728171 -249.832058 
L 183.100844 -247.384379 
L 181.473517 -244.768405 
L 179.84619 -241.957985 
L 178.218863 -238.927467 
L 176.591536 -235.6524 
L 174.964209 -232.110309 
L 173.336882 -228.281512 
L 171.709555 -224.149958 
L 170.082228 -219.704027 
L 168.454902 -214.937269 
L 166.827575 -209.849025 
L 165.200248 -204.444888 
L 163.572921 -198.736997 
L 161.945594 -192.744105 
L 160.318267 -186.491457 
L 158.69094 -180.010434 
L 157.063613 -173.338007 
L 155.436286 -166.516004 
L 153.80896 -159.59022 
L 152.181633 -152.609406 
L 150.554306 -145.624163 
L 148.926979 -138.685784 
L 147.299652 -131.845088 
L 145.672325 -125.151261 
L 144.044998 -118.650773 
L 142.417671 -112.386373 
L 140.790344 -106.396215 
L 139.163017 -100.713133 
L 137.535691 -95.364078 
L 135.908364 -90.369758 
L 134.281037 -85.744459 
L 132.65371 -81.496064 
L 131.026383 -77.626265 
L 129.399056 -74.130938 
L 127.771729 -71.000679 
L 126.144402 -68.221447 
L 124.517075 -65.775313 
L 122.889748 -63.641247 
L 121.262422 -61.795934 
L 119.635095 -60.214574 
L 118.007768 -58.871635 
L 116.380441 -57.741544 
L 114.753114 -56.799279 
L 113.125787 -56.020872 
L 111.49846 -55.383802 
L 109.871133 -54.867279 
L 108.243806 -54.452427 
L 106.616479 -54.122381 
L 104.989153 -53.862295 
L 103.361826 -53.659294 
L 101.734499 -53.502364 
L 100.107172 -53.382213 
L 98.479845 -53.291108 
z
" style="stroke: #1f77b4"/>
    </defs>
    <g clip-path="url(#p594c29e97d)">
     <use xlink:href="#m7f54aa126c" x="0" y="326.35325" style="fill: #1f77b4; fill-opacity: 0.25; stroke: #1f77b4"/>
    </g>
   </g>
   <g id="matplotlib.axis_1">
    <g id="xtick_1">
     <g id="line2d_1">
      <defs>
       <path id="m2bd506fc2d" d="M 0 0 
L 0 3.5 
" style="stroke: #000000; stroke-width: 0.8"/>
      </defs>
      <g>
       <use xlink:href="#m2bd506fc2d" x="143.821708" y="273.312" style="stroke: #000000; stroke-width: 0.8"/>
      </g>
     </g>
     <g id="text_1">
      <!-- 0.0000 -->
      <g transform="translate(112.330146 293.989187) scale(0.18 -0.18)">
       <defs>
        <path id="DejaVuSans-30" d="M 2034 4250 
Q 1547 4250 1301 3770 
Q 1056 3291 1056 2328 
Q 1056 1369 1301 889 
Q 1547 409 2034 409 
Q 2525 409 2770 889 
Q 3016 1369 3016 2328 
Q 3016 3291 2770 3770 
Q 2525 4250 2034 4250 
z
M 2034 4750 
Q 2819 4750 3233 4129 
Q 3647 3509 3647 2328 
Q 3647 1150 3233 529 
Q 2819 -91 2034 -91 
Q 1250 -91 836 529 
Q 422 1150 422 2328 
Q 422 3509 836 4129 
Q 1250 4750 2034 4750 
z
" transform="scale(0.015625)"/>
        <path id="DejaVuSans-2e" d="M 684 794 
L 1344 794 
L 1344 0 
L 684 0 
L 684 794 
z
" transform="scale(0.015625)"/>
       </defs>
       <use xlink:href="#DejaVuSans-30"/>
       <use xlink:href="#DejaVuSans-2e" x="63.623047"/>
       <use xlink:href="#DejaVuSans-30" x="95.410156"/>
       <use xlink:href="#DejaVuSans-30" x="159.033203"/>
       <use xlink:href="#DejaVuSans-30" x="222.65625"/>
       <use xlink:href="#DejaVuSans-30" x="286.279297"/>
      </g>
     </g>
    </g>
    <g id="xtick_2">
     <g id="line2d_2">
      <g>
       <use xlink:href="#m2bd506fc2d" x="211.994134" y="273.312" style="stroke: #000000; stroke-width: 0.8"/>
      </g>
     </g>
     <g id="text_2">
      <!-- 0.0002 -->
      <g transform="translate(180.502572 293.989187) scale(0.18 -0.18)">
       <defs>
        <path id="DejaVuSans-32" d="M 1228 531 
L 3431 531 
L 3431 0 
L 469 0 
L 469 531 
Q 828 903 1448 1529 
Q 2069 2156 2228 2338 
Q 2531 2678 2651 2914 
Q 2772 3150 2772 3378 
Q 2772 3750 2511 3984 
Q 2250 4219 1831 4219 
Q 1534 4219 1204 4116 
Q 875 4013 500 3803 
L 500 4441 
Q 881 4594 1212 4672 
Q 1544 4750 1819 4750 
Q 2544 4750 2975 4387 
Q 3406 4025 3406 3419 
Q 3406 3131 3298 2873 
Q 3191 2616 2906 2266 
Q 2828 2175 2409 1742 
Q 1991 1309 1228 531 
z
" transform="scale(0.015625)"/>
       </defs>
       <use xlink:href="#DejaVuSans-30"/>
       <use xlink:href="#DejaVuSans-2e" x="63.623047"/>
       <use xlink:href="#DejaVuSans-30" x="95.410156"/>
       <use xlink:href="#DejaVuSans-30" x="159.033203"/>
       <use xlink:href="#DejaVuSans-30" x="222.65625"/>
       <use xlink:href="#DejaVuSans-32" x="286.279297"/>
      </g>
     </g>
    </g>
    <g id="xtick_3">
     <g id="line2d_3">
      <g>
       <use xlink:href="#m2bd506fc2d" x="280.166561" y="273.312" style="stroke: #000000; stroke-width: 0.8"/>
      </g>
     </g>
     <g id="text_3">
      <!-- 0.0004 -->
      <g transform="translate(248.674998 293.989187) scale(0.18 -0.18)">
       <defs>
        <path id="DejaVuSans-34" d="M 2419 4116 
L 825 1625 
L 2419 1625 
L 2419 4116 
z
M 2253 4666 
L 3047 4666 
L 3047 1625 
L 3713 1625 
L 3713 1100 
L 3047 1100 
L 3047 0 
L 2419 0 
L 2419 1100 
L 313 1100 
L 313 1709 
L 2253 4666 
z
" transform="scale(0.015625)"/>
       </defs>
       <use xlink:href="#DejaVuSans-30"/>
       <use xlink:href="#DejaVuSans-2e" x="63.623047"/>
       <use xlink:href="#DejaVuSans-30" x="95.410156"/>
       <use xlink:href="#DejaVuSans-30" x="159.033203"/>
       <use xlink:href="#DejaVuSans-30" x="222.65625"/>
       <use xlink:href="#DejaVuSans-34" x="286.279297"/>
      </g>
     </g>
    </g>
    <g id="xtick_4">
     <g id="line2d_4">
      <g>
       <use xlink:href="#m2bd506fc2d" x="348.338987" y="273.312" style="stroke: #000000; stroke-width: 0.8"/>
      </g>
     </g>
     <g id="text_4">
      <!-- 0.0006 -->
      <g transform="translate(316.847424 293.989187) scale(0.18 -0.18)">
       <defs>
        <path id="DejaVuSans-36" d="M 2113 2584 
Q 1688 2584 1439 2293 
Q 1191 2003 1191 1497 
Q 1191 994 1439 701 
Q 1688 409 2113 409 
Q 2538 409 2786 701 
Q 3034 994 3034 1497 
Q 3034 2003 2786 2293 
Q 2538 2584 2113 2584 
z
M 3366 4563 
L 3366 3988 
Q 3128 4100 2886 4159 
Q 2644 4219 2406 4219 
Q 1781 4219 1451 3797 
Q 1122 3375 1075 2522 
Q 1259 2794 1537 2939 
Q 1816 3084 2150 3084 
Q 2853 3084 3261 2657 
Q 3669 2231 3669 1497 
Q 3669 778 3244 343 
Q 2819 -91 2113 -91 
Q 1303 -91 875 529 
Q 447 1150 447 2328 
Q 447 3434 972 4092 
Q 1497 4750 2381 4750 
Q 2619 4750 2861 4703 
Q 3103 4656 3366 4563 
z
" transform="scale(0.015625)"/>
       </defs>
       <use xlink:href="#DejaVuSans-30"/>
       <use xlink:href="#DejaVuSans-2e" x="63.623047"/>
       <use xlink:href="#DejaVuSans-30" x="95.410156"/>
       <use xlink:href="#DejaVuSans-30" x="159.033203"/>
       <use xlink:href="#DejaVuSans-30" x="222.65625"/>
       <use xlink:href="#DejaVuSans-36" x="286.279297"/>
      </g>
     </g>
    </g>
    <g id="xtick_5">
     <g id="line2d_5">
      <g>
       <use xlink:href="#m2bd506fc2d" x="416.511413" y="273.312" style="stroke: #000000; stroke-width: 0.8"/>
      </g>
     </g>
     <g id="text_5">
      <!-- 0.0008 -->
      <g transform="translate(385.01985 293.989187) scale(0.18 -0.18)">
       <defs>
        <path id="DejaVuSans-38" d="M 2034 2216 
Q 1584 2216 1326 1975 
Q 1069 1734 1069 1313 
Q 1069 891 1326 650 
Q 1584 409 2034 409 
Q 2484 409 2743 651 
Q 3003 894 3003 1313 
Q 3003 1734 2745 1975 
Q 2488 2216 2034 2216 
z
M 1403 2484 
Q 997 2584 770 2862 
Q 544 3141 544 3541 
Q 544 4100 942 4425 
Q 1341 4750 2034 4750 
Q 2731 4750 3128 4425 
Q 3525 4100 3525 3541 
Q 3525 3141 3298 2862 
Q 3072 2584 2669 2484 
Q 3125 2378 3379 2068 
Q 3634 1759 3634 1313 
Q 3634 634 3220 271 
Q 2806 -91 2034 -91 
Q 1263 -91 848 271 
Q 434 634 434 1313 
Q 434 1759 690 2068 
Q 947 2378 1403 2484 
z
M 1172 3481 
Q 1172 3119 1398 2916 
Q 1625 2713 2034 2713 
Q 2441 2713 2670 2916 
Q 2900 3119 2900 3481 
Q 2900 3844 2670 4047 
Q 2441 4250 2034 4250 
Q 1625 4250 1398 4047 
Q 1172 3844 1172 3481 
z
" transform="scale(0.015625)"/>
       </defs>
       <use xlink:href="#DejaVuSans-30"/>
       <use xlink:href="#DejaVuSans-2e" x="63.623047"/>
       <use xlink:href="#DejaVuSans-30" x="95.410156"/>
       <use xlink:href="#DejaVuSans-30" x="159.033203"/>
       <use xlink:href="#DejaVuSans-30" x="222.65625"/>
       <use xlink:href="#DejaVuSans-38" x="286.279297"/>
      </g>
     </g>
    </g>
    <g id="text_6">
     <!-- Valor -->
     <g transform="translate(237.309219 315.409812) scale(0.18 -0.18)">
      <defs>
       <path id="DejaVuSans-56" d="M 1831 0 
L 50 4666 
L 709 4666 
L 2188 738 
L 3669 4666 
L 4325 4666 
L 2547 0 
L 1831 0 
z
" transform="scale(0.015625)"/>
       <path id="DejaVuSans-61" d="M 2194 1759 
Q 1497 1759 1228 1600 
Q 959 1441 959 1056 
Q 959 750 1161 570 
Q 1363 391 1709 391 
Q 2188 391 2477 730 
Q 2766 1069 2766 1631 
L 2766 1759 
L 2194 1759 
z
M 3341 1997 
L 3341 0 
L 2766 0 
L 2766 531 
Q 2569 213 2275 61 
Q 1981 -91 1556 -91 
Q 1019 -91 701 211 
Q 384 513 384 1019 
Q 384 1609 779 1909 
Q 1175 2209 1959 2209 
L 2766 2209 
L 2766 2266 
Q 2766 2663 2505 2880 
Q 2244 3097 1772 3097 
Q 1472 3097 1187 3025 
Q 903 2953 641 2809 
L 641 3341 
Q 956 3463 1253 3523 
Q 1550 3584 1831 3584 
Q 2591 3584 2966 3190 
Q 3341 2797 3341 1997 
z
" transform="scale(0.015625)"/>
       <path id="DejaVuSans-6c" d="M 603 4863 
L 1178 4863 
L 1178 0 
L 603 0 
L 603 4863 
z
" transform="scale(0.015625)"/>
       <path id="DejaVuSans-6f" d="M 1959 3097 
Q 1497 3097 1228 2736 
Q 959 2375 959 1747 
Q 959 1119 1226 758 
Q 1494 397 1959 397 
Q 2419 397 2687 759 
Q 2956 1122 2956 1747 
Q 2956 2369 2687 2733 
Q 2419 3097 1959 3097 
z
M 1959 3584 
Q 2709 3584 3137 3096 
Q 3566 2609 3566 1747 
Q 3566 888 3137 398 
Q 2709 -91 1959 -91 
Q 1206 -91 779 398 
Q 353 888 353 1747 
Q 353 2609 779 3096 
Q 1206 3584 1959 3584 
z
" transform="scale(0.015625)"/>
       <path id="DejaVuSans-72" d="M 2631 2963 
Q 2534 3019 2420 3045 
Q 2306 3072 2169 3072 
Q 1681 3072 1420 2755 
Q 1159 2438 1159 1844 
L 1159 0 
L 581 0 
L 581 3500 
L 1159 3500 
L 1159 2956 
Q 1341 3275 1631 3429 
Q 1922 3584 2338 3584 
Q 2397 3584 2469 3576 
Q 2541 3569 2628 3553 
L 2631 2963 
z
" transform="scale(0.015625)"/>
      </defs>
      <use xlink:href="#DejaVuSans-56"/>
      <use xlink:href="#DejaVuSans-61" x="60.658203"/>
      <use xlink:href="#DejaVuSans-6c" x="121.9375"/>
      <use xlink:href="#DejaVuSans-6f" x="149.720703"/>
      <use xlink:href="#DejaVuSans-72" x="210.902344"/>
     </g>
    </g>
   </g>
   <g id="matplotlib.axis_2">
    <g id="ytick_1">
     <g id="line2d_6">
      <defs>
       <path id="mee9e2845b1" d="M 0 0 
L -3.5 0 
" style="stroke: #000000; stroke-width: 0.8"/>
      </defs>
      <g>
       <use xlink:href="#mee9e2845b1" x="81.430625" y="273.312" style="stroke: #000000; stroke-width: 0.8"/>
      </g>
     </g>
     <g id="text_7">
      <!-- 0 -->
      <g transform="translate(62.978125 280.150594) scale(0.18 -0.18)">
       <use xlink:href="#DejaVuSans-30"/>
      </g>
     </g>
    </g>
    <g id="ytick_2">
     <g id="line2d_7">
      <g>
       <use xlink:href="#mee9e2845b1" x="81.430625" y="226.853362" style="stroke: #000000; stroke-width: 0.8"/>
      </g>
     </g>
     <g id="text_8">
      <!-- 200 -->
      <g transform="translate(40.073125 233.691956) scale(0.18 -0.18)">
       <use xlink:href="#DejaVuSans-32"/>
       <use xlink:href="#DejaVuSans-30" x="63.623047"/>
       <use xlink:href="#DejaVuSans-30" x="127.246094"/>
      </g>
     </g>
    </g>
    <g id="ytick_3">
     <g id="line2d_8">
      <g>
       <use xlink:href="#mee9e2845b1" x="81.430625" y="180.394724" style="stroke: #000000; stroke-width: 0.8"/>
      </g>
     </g>
     <g id="text_9">
      <!-- 400 -->
      <g transform="translate(40.073125 187.233318) scale(0.18 -0.18)">
       <use xlink:href="#DejaVuSans-34"/>
       <use xlink:href="#DejaVuSans-30" x="63.623047"/>
       <use xlink:href="#DejaVuSans-30" x="127.246094"/>
      </g>
     </g>
    </g>
    <g id="ytick_4">
     <g id="line2d_9">
      <g>
       <use xlink:href="#mee9e2845b1" x="81.430625" y="133.936087" style="stroke: #000000; stroke-width: 0.8"/>
      </g>
     </g>
     <g id="text_10">
      <!-- 600 -->
      <g transform="translate(40.073125 140.77468) scale(0.18 -0.18)">
       <use xlink:href="#DejaVuSans-36"/>
       <use xlink:href="#DejaVuSans-30" x="63.623047"/>
       <use xlink:href="#DejaVuSans-30" x="127.246094"/>
      </g>
     </g>
    </g>
    <g id="ytick_5">
     <g id="line2d_10">
      <g>
       <use xlink:href="#mee9e2845b1" x="81.430625" y="87.477449" style="stroke: #000000; stroke-width: 0.8"/>
      </g>
     </g>
     <g id="text_11">
      <!-- 800 -->
      <g transform="translate(40.073125 94.316043) scale(0.18 -0.18)">
       <use xlink:href="#DejaVuSans-38"/>
       <use xlink:href="#DejaVuSans-30" x="63.623047"/>
       <use xlink:href="#DejaVuSans-30" x="127.246094"/>
      </g>
     </g>
    </g>
    <g id="ytick_6">
     <g id="line2d_11">
      <g>
       <use xlink:href="#mee9e2845b1" x="81.430625" y="41.018811" style="stroke: #000000; stroke-width: 0.8"/>
      </g>
     </g>
     <g id="text_12">
      <!-- 1000 -->
      <g transform="translate(28.620625 47.857405) scale(0.18 -0.18)">
       <defs>
        <path id="DejaVuSans-31" d="M 794 531 
L 1825 531 
L 1825 4091 
L 703 3866 
L 703 4441 
L 1819 4666 
L 2450 4666 
L 2450 531 
L 3481 531 
L 3481 0 
L 794 0 
L 794 531 
z
" transform="scale(0.015625)"/>
       </defs>
       <use xlink:href="#DejaVuSans-31"/>
       <use xlink:href="#DejaVuSans-30" x="63.623047"/>
       <use xlink:href="#DejaVuSans-30" x="127.246094"/>
       <use xlink:href="#DejaVuSans-30" x="190.869141"/>
      </g>
     </g>
    </g>
    <g id="text_13">
     <!-- Density -->
     <g transform="translate(20.877187 174.471469) rotate(-90) scale(0.18 -0.18)">
      <defs>
       <path id="DejaVuSans-44" d="M 1259 4147 
L 1259 519 
L 2022 519 
Q 2988 519 3436 956 
Q 3884 1394 3884 2338 
Q 3884 3275 3436 3711 
Q 2988 4147 2022 4147 
L 1259 4147 
z
M 628 4666 
L 1925 4666 
Q 3281 4666 3915 4102 
Q 4550 3538 4550 2338 
Q 4550 1131 3912 565 
Q 3275 0 1925 0 
L 628 0 
L 628 4666 
z
" transform="scale(0.015625)"/>
       <path id="DejaVuSans-65" d="M 3597 1894 
L 3597 1613 
L 953 1613 
Q 991 1019 1311 708 
Q 1631 397 2203 397 
Q 2534 397 2845 478 
Q 3156 559 3463 722 
L 3463 178 
Q 3153 47 2828 -22 
Q 2503 -91 2169 -91 
Q 1331 -91 842 396 
Q 353 884 353 1716 
Q 353 2575 817 3079 
Q 1281 3584 2069 3584 
Q 2775 3584 3186 3129 
Q 3597 2675 3597 1894 
z
M 3022 2063 
Q 3016 2534 2758 2815 
Q 2500 3097 2075 3097 
Q 1594 3097 1305 2825 
Q 1016 2553 972 2059 
L 3022 2063 
z
" transform="scale(0.015625)"/>
       <path id="DejaVuSans-6e" d="M 3513 2113 
L 3513 0 
L 2938 0 
L 2938 2094 
Q 2938 2591 2744 2837 
Q 2550 3084 2163 3084 
Q 1697 3084 1428 2787 
Q 1159 2491 1159 1978 
L 1159 0 
L 581 0 
L 581 3500 
L 1159 3500 
L 1159 2956 
Q 1366 3272 1645 3428 
Q 1925 3584 2291 3584 
Q 2894 3584 3203 3211 
Q 3513 2838 3513 2113 
z
" transform="scale(0.015625)"/>
       <path id="DejaVuSans-73" d="M 2834 3397 
L 2834 2853 
Q 2591 2978 2328 3040 
Q 2066 3103 1784 3103 
Q 1356 3103 1142 2972 
Q 928 2841 928 2578 
Q 928 2378 1081 2264 
Q 1234 2150 1697 2047 
L 1894 2003 
Q 2506 1872 2764 1633 
Q 3022 1394 3022 966 
Q 3022 478 2636 193 
Q 2250 -91 1575 -91 
Q 1294 -91 989 -36 
Q 684 19 347 128 
L 347 722 
Q 666 556 975 473 
Q 1284 391 1588 391 
Q 1994 391 2212 530 
Q 2431 669 2431 922 
Q 2431 1156 2273 1281 
Q 2116 1406 1581 1522 
L 1381 1569 
Q 847 1681 609 1914 
Q 372 2147 372 2553 
Q 372 3047 722 3315 
Q 1072 3584 1716 3584 
Q 2034 3584 2315 3537 
Q 2597 3491 2834 3397 
z
" transform="scale(0.015625)"/>
       <path id="DejaVuSans-69" d="M 603 3500 
L 1178 3500 
L 1178 0 
L 603 0 
L 603 3500 
z
M 603 4863 
L 1178 4863 
L 1178 4134 
L 603 4134 
L 603 4863 
z
" transform="scale(0.015625)"/>
       <path id="DejaVuSans-74" d="M 1172 4494 
L 1172 3500 
L 2356 3500 
L 2356 3053 
L 1172 3053 
L 1172 1153 
Q 1172 725 1289 603 
Q 1406 481 1766 481 
L 2356 481 
L 2356 0 
L 1766 0 
Q 1100 0 847 248 
Q 594 497 594 1153 
L 594 3053 
L 172 3053 
L 172 3500 
L 594 3500 
L 594 4494 
L 1172 4494 
z
" transform="scale(0.015625)"/>
       <path id="DejaVuSans-79" d="M 2059 -325 
Q 1816 -950 1584 -1140 
Q 1353 -1331 966 -1331 
L 506 -1331 
L 506 -850 
L 844 -850 
Q 1081 -850 1212 -737 
Q 1344 -625 1503 -206 
L 1606 56 
L 191 3500 
L 800 3500 
L 1894 763 
L 2988 3500 
L 3597 3500 
L 2059 -325 
z
" transform="scale(0.015625)"/>
      </defs>
      <use xlink:href="#DejaVuSans-44"/>
      <use xlink:href="#DejaVuSans-65" x="77.001953"/>
      <use xlink:href="#DejaVuSans-6e" x="138.525391"/>
      <use xlink:href="#DejaVuSans-73" x="201.904297"/>
      <use xlink:href="#DejaVuSans-69" x="254.003906"/>
      <use xlink:href="#DejaVuSans-74" x="281.787109"/>
      <use xlink:href="#DejaVuSans-79" x="320.996094"/>
     </g>
    </g>
   </g>
   <g id="patch_3">
    <path d="M 81.430625 273.312 
L 81.430625 7.2 
" style="fill: none; stroke: #000000; stroke-width: 0.8; stroke-linejoin: miter; stroke-linecap: square"/>
   </g>
   <g id="patch_4">
    <path d="M 438.550625 273.312 
L 438.550625 7.2 
" style="fill: none; stroke: #000000; stroke-width: 0.8; stroke-linejoin: miter; stroke-linecap: square"/>
   </g>
   <g id="patch_5">
    <path d="M 81.430625 273.312 
L 438.550625 273.312 
" style="fill: none; stroke: #000000; stroke-width: 0.8; stroke-linejoin: miter; stroke-linecap: square"/>
   </g>
   <g id="patch_6">
    <path d="M 81.430625 7.2 
L 438.550625 7.2 
" style="fill: none; stroke: #000000; stroke-width: 0.8; stroke-linejoin: miter; stroke-linecap: square"/>
   </g>
   <g id="legend_1">
    <g id="patch_7">
     <path d="M 317.12375 127.2825 
L 425.950625 127.2825 
Q 429.550625 127.2825 429.550625 123.6825 
L 429.550625 19.8 
Q 429.550625 16.2 425.950625 16.2 
L 317.12375 16.2 
Q 313.52375 16.2 313.52375 19.8 
L 313.52375 123.6825 
Q 313.52375 127.2825 317.12375 127.2825 
z
" style="fill: #ffffff; opacity: 0.8; stroke: #cccccc; stroke-linejoin: miter"/>
    </g>
    <g id="text_14">
     <!-- Model -->
     <g transform="translate(344.513281 37.077187) scale(0.18 -0.18)">
      <defs>
       <path id="DejaVuSans-4d" d="M 628 4666 
L 1569 4666 
L 2759 1491 
L 3956 4666 
L 4897 4666 
L 4897 0 
L 4281 0 
L 4281 4097 
L 3078 897 
L 2444 897 
L 1241 4097 
L 1241 0 
L 628 0 
L 628 4666 
z
" transform="scale(0.015625)"/>
       <path id="DejaVuSans-64" d="M 2906 2969 
L 2906 4863 
L 3481 4863 
L 3481 0 
L 2906 0 
L 2906 525 
Q 2725 213 2448 61 
Q 2172 -91 1784 -91 
Q 1150 -91 751 415 
Q 353 922 353 1747 
Q 353 2572 751 3078 
Q 1150 3584 1784 3584 
Q 2172 3584 2448 3432 
Q 2725 3281 2906 2969 
z
M 947 1747 
Q 947 1113 1208 752 
Q 1469 391 1925 391 
Q 2381 391 2643 752 
Q 2906 1113 2906 1747 
Q 2906 2381 2643 2742 
Q 2381 3103 1925 3103 
Q 1469 3103 1208 2742 
Q 947 2381 947 1747 
z
" transform="scale(0.015625)"/>
      </defs>
      <use xlink:href="#DejaVuSans-4d"/>
      <use xlink:href="#DejaVuSans-6f" x="86.279297"/>
      <use xlink:href="#DejaVuSans-64" x="147.460938"/>
      <use xlink:href="#DejaVuSans-65" x="210.9375"/>
      <use xlink:href="#DejaVuSans-6c" x="272.460938"/>
     </g>
    </g>
    <g id="patch_8">
     <path d="M 320.72375 63.497812 
L 356.72375 63.497812 
L 356.72375 50.897812 
L 320.72375 50.897812 
z
" style="fill: #1f77b4; fill-opacity: 0.25; stroke: #1f77b4; stroke-linejoin: miter"/>
    </g>
    <g id="text_15">
     <!-- Naive -->
     <g transform="translate(371.12375 63.497812) scale(0.18 -0.18)">
      <defs>
       <path id="DejaVuSans-4e" d="M 628 4666 
L 1478 4666 
L 3547 763 
L 3547 4666 
L 4159 4666 
L 4159 0 
L 3309 0 
L 1241 3903 
L 1241 0 
L 628 0 
L 628 4666 
z
" transform="scale(0.015625)"/>
       <path id="DejaVuSans-76" d="M 191 3500 
L 800 3500 
L 1894 563 
L 2988 3500 
L 3597 3500 
L 2284 0 
L 1503 0 
L 191 3500 
z
" transform="scale(0.015625)"/>
      </defs>
      <use xlink:href="#DejaVuSans-4e"/>
      <use xlink:href="#DejaVuSans-61" x="74.804688"/>
      <use xlink:href="#DejaVuSans-69" x="136.083984"/>
      <use xlink:href="#DejaVuSans-76" x="163.867188"/>
      <use xlink:href="#DejaVuSans-65" x="223.046875"/>
     </g>
    </g>
    <g id="patch_9">
     <path d="M 320.72375 89.918437 
L 356.72375 89.918437 
L 356.72375 77.318437 
L 320.72375 77.318437 
z
" style="fill: #ff7f0e; fill-opacity: 0.25; stroke: #ff7f0e; stroke-linejoin: miter"/>
    </g>
    <g id="text_16">
     <!-- KDE -->
     <g transform="translate(371.12375 89.918437) scale(0.18 -0.18)">
      <defs>
       <path id="DejaVuSans-4b" d="M 628 4666 
L 1259 4666 
L 1259 2694 
L 3353 4666 
L 4166 4666 
L 1850 2491 
L 4331 0 
L 3500 0 
L 1259 2247 
L 1259 0 
L 628 0 
L 628 4666 
z
" transform="scale(0.015625)"/>
       <path id="DejaVuSans-45" d="M 628 4666 
L 3578 4666 
L 3578 4134 
L 1259 4134 
L 1259 2753 
L 3481 2753 
L 3481 2222 
L 1259 2222 
L 1259 531 
L 3634 531 
L 3634 0 
L 628 0 
L 628 4666 
z
" transform="scale(0.015625)"/>
      </defs>
      <use xlink:href="#DejaVuSans-4b"/>
      <use xlink:href="#DejaVuSans-44" x="65.576172"/>
      <use xlink:href="#DejaVuSans-45" x="142.578125"/>
     </g>
    </g>
    <g id="patch_10">
     <path d="M 320.72375 116.339062 
L 356.72375 116.339062 
L 356.72375 103.739062 
L 320.72375 103.739062 
z
" style="fill: #2ca02c; fill-opacity: 0.25; stroke: #2ca02c; stroke-linejoin: miter"/>
    </g>
    <g id="text_17">
     <!-- SEPP -->
     <g transform="translate(371.12375 116.339062) scale(0.18 -0.18)">
      <defs>
       <path id="DejaVuSans-53" d="M 3425 4513 
L 3425 3897 
Q 3066 4069 2747 4153 
Q 2428 4238 2131 4238 
Q 1616 4238 1336 4038 
Q 1056 3838 1056 3469 
Q 1056 3159 1242 3001 
Q 1428 2844 1947 2747 
L 2328 2669 
Q 3034 2534 3370 2195 
Q 3706 1856 3706 1288 
Q 3706 609 3251 259 
Q 2797 -91 1919 -91 
Q 1588 -91 1214 -16 
Q 841 59 441 206 
L 441 856 
Q 825 641 1194 531 
Q 1563 422 1919 422 
Q 2459 422 2753 634 
Q 3047 847 3047 1241 
Q 3047 1584 2836 1778 
Q 2625 1972 2144 2069 
L 1759 2144 
Q 1053 2284 737 2584 
Q 422 2884 422 3419 
Q 422 4038 858 4394 
Q 1294 4750 2059 4750 
Q 2388 4750 2728 4690 
Q 3069 4631 3425 4513 
z
" transform="scale(0.015625)"/>
       <path id="DejaVuSans-50" d="M 1259 4147 
L 1259 2394 
L 2053 2394 
Q 2494 2394 2734 2622 
Q 2975 2850 2975 3272 
Q 2975 3691 2734 3919 
Q 2494 4147 2053 4147 
L 1259 4147 
z
M 628 4666 
L 2053 4666 
Q 2838 4666 3239 4311 
Q 3641 3956 3641 3272 
Q 3641 2581 3239 2228 
Q 2838 1875 2053 1875 
L 1259 1875 
L 1259 0 
L 628 0 
L 628 4666 
z
" transform="scale(0.015625)"/>
      </defs>
      <use xlink:href="#DejaVuSans-53"/>
      <use xlink:href="#DejaVuSans-45" x="63.476562"/>
      <use xlink:href="#DejaVuSans-50" x="126.660156"/>
      <use xlink:href="#DejaVuSans-50" x="186.962891"/>
     </g>
    </g>
   </g>
  </g>
 </g>
 <defs>
  <clipPath id="p594c29e97d">
   <rect x="81.430625" y="7.2" width="357.12" height="266.112"/>
  </clipPath>
 </defs>
</svg>
