<?xml version="1.0" encoding="utf-8" standalone="no"?>
<!DOCTYPE svg PUBLIC "-//W3C//DTD SVG 1.1//EN"
  "http://www.w3.org/Graphics/SVG/1.1/DTD/svg11.dtd">
<svg xmlns:xlink="http://www.w3.org/1999/xlink" width="988.327187pt" height="359.853875pt" viewBox="0 0 988.327187 359.853875" xmlns="http://www.w3.org/2000/svg" version="1.1">
 <metadata>
  <rdf:RDF xmlns:dc="http://purl.org/dc/elements/1.1/" xmlns:cc="http://creativecommons.org/ns#" xmlns:rdf="http://www.w3.org/1999/02/22-rdf-syntax-ns#">
   <cc:Work>
    <dc:type rdf:resource="http://purl.org/dc/dcmitype/StillImage"/>
    <dc:date>2023-09-26T15:50:57.181134</dc:date>
    <dc:format>image/svg+xml</dc:format>
    <dc:creator>
     <cc:Agent>
      <dc:title>Matplotlib v3.7.1, https://matplotlib.org/</dc:title>
     </cc:Agent>
    </dc:creator>
   </cc:Work>
  </rdf:RDF>
 </metadata>
 <defs>
  <style type="text/css">*{stroke-linejoin: round; stroke-linecap: butt}</style>
 </defs>
 <g id="figure_1">
  <g id="patch_1">
   <path d="M 0 359.853875 
L 988.327187 359.853875 
L 988.327187 0 
L 0 0 
z
" style="fill: #ffffff"/>
  </g>
  <g id="axes_1">
   <g id="patch_2">
    <path d="M 75.628438 306.812625 
L 321.804908 306.812625 
L 321.804908 29.612625 
L 75.628438 29.612625 
z
" style="fill: #ffffff"/>
   </g>
   <g id="PolyCollection_1">
    <defs>
     <path id="m862e5371c1" d="M 86.818277 -296.048418 
L 86.818277 -55.541457 
L 91.206449 -57.463285 
L 95.594622 -61.745366 
L 99.982794 -65.202747 
L 104.370967 -58.881625 
L 108.759139 -57.878523 
L 113.147311 -53.401934 
L 117.535484 -46.892127 
L 121.923656 -55.793978 
L 126.311829 -71.677718 
L 130.700001 -68.746635 
L 135.088173 -68.35503 
L 139.476346 -56.063022 
L 143.864518 -46.733757 
L 148.25269 -60.557776 
L 152.640863 -59.802853 
L 157.029035 -54.178421 
L 161.417208 -71.588964 
L 165.80538 -71.966597 
L 170.193552 -59.883989 
L 174.581725 -63.709327 
L 178.969897 -66.138883 
L 183.358069 -60.844875 
L 187.746242 -55.78416 
L 192.134414 -62.533901 
L 196.522587 -56.195607 
L 200.910759 -54.337854 
L 205.298931 -59.113628 
L 209.687104 -56.251348 
L 214.075276 -61.866884 
L 218.463449 -53.624513 
L 222.851621 -52.065245 
L 227.239793 -56.046398 
L 231.627966 -60.866116 
L 236.016138 -65.280533 
L 240.40431 -54.891364 
L 244.792483 -48.579503 
L 249.180655 -62.010949 
L 253.568828 -58.481135 
L 257.957 -48.850976 
L 262.345172 -45.746421 
L 266.733345 -46.111131 
L 271.121517 -70.875075 
L 275.509689 -67.772234 
L 279.897862 -67.429124 
L 284.286034 -48.00553 
L 288.674207 -64.107574 
L 293.062379 -60.003724 
L 297.450551 -60.737813 
L 301.838724 -55.149459 
L 306.226896 -60.628305 
L 310.615069 -65.042465 
L 310.615069 -300.291681 
L 310.615069 -300.291681 
L 306.226896 -297.055915 
L 301.838724 -293.93882 
L 297.450551 -295.734704 
L 293.062379 -295.985638 
L 288.674207 -301.550748 
L 284.286034 -296.250098 
L 279.897862 -301.052474 
L 275.509689 -292.435856 
L 271.121517 -300.099438 
L 266.733345 -286.698702 
L 262.345172 -290.201721 
L 257.957 -288.366849 
L 253.568828 -293.820843 
L 249.180655 -294.192005 
L 244.792483 -291.192517 
L 240.40431 -287.954219 
L 236.016138 -291.949976 
L 231.627966 -295.363172 
L 227.239793 -296.686155 
L 222.851621 -289.518984 
L 218.463449 -284.32839 
L 214.075276 -301.52098 
L 209.687104 -295.952349 
L 205.298931 -289.21188 
L 200.910759 -284.191715 
L 196.522587 -292.944346 
L 192.134414 -302.565055 
L 187.746242 -297.892459 
L 183.358069 -298.432457 
L 178.969897 -284.624463 
L 174.581725 -297.292739 
L 170.193552 -298.571001 
L 165.80538 -301.868326 
L 161.417208 -303.314082 
L 157.029035 -294.988738 
L 152.640863 -292.106278 
L 148.25269 -297.627562 
L 143.864518 -292.706555 
L 139.476346 -294.00462 
L 135.088173 -304.346452 
L 130.700001 -299.616755 
L 126.311829 -302.061205 
L 121.923656 -292.451436 
L 117.535484 -279.933964 
L 113.147311 -295.47173 
L 108.759139 -291.840299 
L 104.370967 -292.298599 
L 99.982794 -295.475334 
L 95.594622 -289.587955 
L 91.206449 -296.128866 
L 86.818277 -296.048418 
z
" style="stroke: #ff0000; stroke-opacity: 0.2"/>
    </defs>
    <g clip-path="url(#p3a4c06dc3c)">
     <use xlink:href="#m862e5371c1" x="0" y="359.853875" style="fill: #ff0000; fill-opacity: 0.2; stroke: #ff0000; stroke-opacity: 0.2"/>
    </g>
   </g>
   <g id="matplotlib.axis_1">
    <g id="xtick_1">
     <g id="line2d_1">
      <defs>
       <path id="m479d01fd33" d="M 0 0 
L 0 3.5 
" style="stroke: #000000; stroke-width: 0.8"/>
      </defs>
      <g>
       <use xlink:href="#m479d01fd33" x="82.430105" y="306.812625" style="stroke: #000000; stroke-width: 0.8"/>
      </g>
     </g>
     <g id="text_1">
      <!-- 0 -->
      <g transform="translate(76.703855 327.489813) scale(0.18 -0.18)">
       <defs>
        <path id="DejaVuSans-30" d="M 2034 4250 
Q 1547 4250 1301 3770 
Q 1056 3291 1056 2328 
Q 1056 1369 1301 889 
Q 1547 409 2034 409 
Q 2525 409 2770 889 
Q 3016 1369 3016 2328 
Q 3016 3291 2770 3770 
Q 2525 4250 2034 4250 
z
M 2034 4750 
Q 2819 4750 3233 4129 
Q 3647 3509 3647 2328 
Q 3647 1150 3233 529 
Q 2819 -91 2034 -91 
Q 1250 -91 836 529 
Q 422 1150 422 2328 
Q 422 3509 836 4129 
Q 1250 4750 2034 4750 
z
" transform="scale(0.015625)"/>
       </defs>
       <use xlink:href="#DejaVuSans-30"/>
      </g>
     </g>
    </g>
    <g id="xtick_2">
     <g id="line2d_2">
      <g>
       <use xlink:href="#m479d01fd33" x="170.193552" y="306.812625" style="stroke: #000000; stroke-width: 0.8"/>
      </g>
     </g>
     <g id="text_2">
      <!-- 20 -->
      <g transform="translate(158.741052 327.489813) scale(0.18 -0.18)">
       <defs>
        <path id="DejaVuSans-32" d="M 1228 531 
L 3431 531 
L 3431 0 
L 469 0 
L 469 531 
Q 828 903 1448 1529 
Q 2069 2156 2228 2338 
Q 2531 2678 2651 2914 
Q 2772 3150 2772 3378 
Q 2772 3750 2511 3984 
Q 2250 4219 1831 4219 
Q 1534 4219 1204 4116 
Q 875 4013 500 3803 
L 500 4441 
Q 881 4594 1212 4672 
Q 1544 4750 1819 4750 
Q 2544 4750 2975 4387 
Q 3406 4025 3406 3419 
Q 3406 3131 3298 2873 
Q 3191 2616 2906 2266 
Q 2828 2175 2409 1742 
Q 1991 1309 1228 531 
z
" transform="scale(0.015625)"/>
       </defs>
       <use xlink:href="#DejaVuSans-32"/>
       <use xlink:href="#DejaVuSans-30" x="63.623047"/>
      </g>
     </g>
    </g>
    <g id="xtick_3">
     <g id="line2d_3">
      <g>
       <use xlink:href="#m479d01fd33" x="257.957" y="306.812625" style="stroke: #000000; stroke-width: 0.8"/>
      </g>
     </g>
     <g id="text_3">
      <!-- 40 -->
      <g transform="translate(246.5045 327.489813) scale(0.18 -0.18)">
       <defs>
        <path id="DejaVuSans-34" d="M 2419 4116 
L 825 1625 
L 2419 1625 
L 2419 4116 
z
M 2253 4666 
L 3047 4666 
L 3047 1625 
L 3713 1625 
L 3713 1100 
L 3047 1100 
L 3047 0 
L 2419 0 
L 2419 1100 
L 313 1100 
L 313 1709 
L 2253 4666 
z
" transform="scale(0.015625)"/>
       </defs>
       <use xlink:href="#DejaVuSans-34"/>
       <use xlink:href="#DejaVuSans-30" x="63.623047"/>
      </g>
     </g>
    </g>
    <g id="text_4">
     <!-- Week number -->
     <g transform="translate(136.07386 348.910438) scale(0.18 -0.18)">
      <defs>
       <path id="DejaVuSans-57" d="M 213 4666 
L 850 4666 
L 1831 722 
L 2809 4666 
L 3519 4666 
L 4500 722 
L 5478 4666 
L 6119 4666 
L 4947 0 
L 4153 0 
L 3169 4050 
L 2175 0 
L 1381 0 
L 213 4666 
z
" transform="scale(0.015625)"/>
       <path id="DejaVuSans-65" d="M 3597 1894 
L 3597 1613 
L 953 1613 
Q 991 1019 1311 708 
Q 1631 397 2203 397 
Q 2534 397 2845 478 
Q 3156 559 3463 722 
L 3463 178 
Q 3153 47 2828 -22 
Q 2503 -91 2169 -91 
Q 1331 -91 842 396 
Q 353 884 353 1716 
Q 353 2575 817 3079 
Q 1281 3584 2069 3584 
Q 2775 3584 3186 3129 
Q 3597 2675 3597 1894 
z
M 3022 2063 
Q 3016 2534 2758 2815 
Q 2500 3097 2075 3097 
Q 1594 3097 1305 2825 
Q 1016 2553 972 2059 
L 3022 2063 
z
" transform="scale(0.015625)"/>
       <path id="DejaVuSans-6b" d="M 581 4863 
L 1159 4863 
L 1159 1991 
L 2875 3500 
L 3609 3500 
L 1753 1863 
L 3688 0 
L 2938 0 
L 1159 1709 
L 1159 0 
L 581 0 
L 581 4863 
z
" transform="scale(0.015625)"/>
       <path id="DejaVuSans-20" transform="scale(0.015625)"/>
       <path id="DejaVuSans-6e" d="M 3513 2113 
L 3513 0 
L 2938 0 
L 2938 2094 
Q 2938 2591 2744 2837 
Q 2550 3084 2163 3084 
Q 1697 3084 1428 2787 
Q 1159 2491 1159 1978 
L 1159 0 
L 581 0 
L 581 3500 
L 1159 3500 
L 1159 2956 
Q 1366 3272 1645 3428 
Q 1925 3584 2291 3584 
Q 2894 3584 3203 3211 
Q 3513 2838 3513 2113 
z
" transform="scale(0.015625)"/>
       <path id="DejaVuSans-75" d="M 544 1381 
L 544 3500 
L 1119 3500 
L 1119 1403 
Q 1119 906 1312 657 
Q 1506 409 1894 409 
Q 2359 409 2629 706 
Q 2900 1003 2900 1516 
L 2900 3500 
L 3475 3500 
L 3475 0 
L 2900 0 
L 2900 538 
Q 2691 219 2414 64 
Q 2138 -91 1772 -91 
Q 1169 -91 856 284 
Q 544 659 544 1381 
z
M 1991 3584 
L 1991 3584 
z
" transform="scale(0.015625)"/>
       <path id="DejaVuSans-6d" d="M 3328 2828 
Q 3544 3216 3844 3400 
Q 4144 3584 4550 3584 
Q 5097 3584 5394 3201 
Q 5691 2819 5691 2113 
L 5691 0 
L 5113 0 
L 5113 2094 
Q 5113 2597 4934 2840 
Q 4756 3084 4391 3084 
Q 3944 3084 3684 2787 
Q 3425 2491 3425 1978 
L 3425 0 
L 2847 0 
L 2847 2094 
Q 2847 2600 2669 2842 
Q 2491 3084 2119 3084 
Q 1678 3084 1418 2786 
Q 1159 2488 1159 1978 
L 1159 0 
L 581 0 
L 581 3500 
L 1159 3500 
L 1159 2956 
Q 1356 3278 1631 3431 
Q 1906 3584 2284 3584 
Q 2666 3584 2933 3390 
Q 3200 3197 3328 2828 
z
" transform="scale(0.015625)"/>
       <path id="DejaVuSans-62" d="M 3116 1747 
Q 3116 2381 2855 2742 
Q 2594 3103 2138 3103 
Q 1681 3103 1420 2742 
Q 1159 2381 1159 1747 
Q 1159 1113 1420 752 
Q 1681 391 2138 391 
Q 2594 391 2855 752 
Q 3116 1113 3116 1747 
z
M 1159 2969 
Q 1341 3281 1617 3432 
Q 1894 3584 2278 3584 
Q 2916 3584 3314 3078 
Q 3713 2572 3713 1747 
Q 3713 922 3314 415 
Q 2916 -91 2278 -91 
Q 1894 -91 1617 61 
Q 1341 213 1159 525 
L 1159 0 
L 581 0 
L 581 4863 
L 1159 4863 
L 1159 2969 
z
" transform="scale(0.015625)"/>
       <path id="DejaVuSans-72" d="M 2631 2963 
Q 2534 3019 2420 3045 
Q 2306 3072 2169 3072 
Q 1681 3072 1420 2755 
Q 1159 2438 1159 1844 
L 1159 0 
L 581 0 
L 581 3500 
L 1159 3500 
L 1159 2956 
Q 1341 3275 1631 3429 
Q 1922 3584 2338 3584 
Q 2397 3584 2469 3576 
Q 2541 3569 2628 3553 
L 2631 2963 
z
" transform="scale(0.015625)"/>
      </defs>
      <use xlink:href="#DejaVuSans-57"/>
      <use xlink:href="#DejaVuSans-65" x="93.001953"/>
      <use xlink:href="#DejaVuSans-65" x="154.525391"/>
      <use xlink:href="#DejaVuSans-6b" x="216.048828"/>
      <use xlink:href="#DejaVuSans-20" x="273.958984"/>
      <use xlink:href="#DejaVuSans-6e" x="305.746094"/>
      <use xlink:href="#DejaVuSans-75" x="369.125"/>
      <use xlink:href="#DejaVuSans-6d" x="432.503906"/>
      <use xlink:href="#DejaVuSans-62" x="529.916016"/>
      <use xlink:href="#DejaVuSans-65" x="593.392578"/>
      <use xlink:href="#DejaVuSans-72" x="654.916016"/>
     </g>
    </g>
   </g>
   <g id="matplotlib.axis_2">
    <g id="ytick_1">
     <g id="line2d_4">
      <defs>
       <path id="m97bc94ec6a" d="M 0 0 
L -3.5 0 
" style="stroke: #000000; stroke-width: 0.8"/>
      </defs>
      <g>
       <use xlink:href="#m97bc94ec6a" x="75.628438" y="306.812625" style="stroke: #000000; stroke-width: 0.8"/>
      </g>
     </g>
     <g id="text_5">
      <!-- 5% -->
      <g transform="translate(40.073125 313.651219) scale(0.18 -0.18)">
       <defs>
        <path id="DejaVuSans-35" d="M 691 4666 
L 3169 4666 
L 3169 4134 
L 1269 4134 
L 1269 2991 
Q 1406 3038 1543 3061 
Q 1681 3084 1819 3084 
Q 2600 3084 3056 2656 
Q 3513 2228 3513 1497 
Q 3513 744 3044 326 
Q 2575 -91 1722 -91 
Q 1428 -91 1123 -41 
Q 819 9 494 109 
L 494 744 
Q 775 591 1075 516 
Q 1375 441 1709 441 
Q 2250 441 2565 725 
Q 2881 1009 2881 1497 
Q 2881 1984 2565 2268 
Q 2250 2553 1709 2553 
Q 1456 2553 1204 2497 
Q 953 2441 691 2322 
L 691 4666 
z
" transform="scale(0.015625)"/>
        <path id="DejaVuSans-25" d="M 4653 2053 
Q 4381 2053 4226 1822 
Q 4072 1591 4072 1178 
Q 4072 772 4226 539 
Q 4381 306 4653 306 
Q 4919 306 5073 539 
Q 5228 772 5228 1178 
Q 5228 1588 5073 1820 
Q 4919 2053 4653 2053 
z
M 4653 2450 
Q 5147 2450 5437 2106 
Q 5728 1763 5728 1178 
Q 5728 594 5436 251 
Q 5144 -91 4653 -91 
Q 4153 -91 3862 251 
Q 3572 594 3572 1178 
Q 3572 1766 3864 2108 
Q 4156 2450 4653 2450 
z
M 1428 4353 
Q 1159 4353 1004 4120 
Q 850 3888 850 3481 
Q 850 3069 1003 2837 
Q 1156 2606 1428 2606 
Q 1700 2606 1854 2837 
Q 2009 3069 2009 3481 
Q 2009 3884 1853 4118 
Q 1697 4353 1428 4353 
z
M 4250 4750 
L 4750 4750 
L 1831 -91 
L 1331 -91 
L 4250 4750 
z
M 1428 4750 
Q 1922 4750 2215 4408 
Q 2509 4066 2509 3481 
Q 2509 2891 2217 2550 
Q 1925 2209 1428 2209 
Q 931 2209 642 2551 
Q 353 2894 353 3481 
Q 353 4063 643 4406 
Q 934 4750 1428 4750 
z
" transform="scale(0.015625)"/>
       </defs>
       <use xlink:href="#DejaVuSans-35"/>
       <use xlink:href="#DejaVuSans-25" x="63.623047"/>
      </g>
     </g>
    </g>
    <g id="ytick_2">
     <g id="line2d_5">
      <g>
       <use xlink:href="#m97bc94ec6a" x="75.628438" y="267.212625" style="stroke: #000000; stroke-width: 0.8"/>
      </g>
     </g>
     <g id="text_6">
      <!-- 10% -->
      <g transform="translate(28.620625 274.051219) scale(0.18 -0.18)">
       <defs>
        <path id="DejaVuSans-31" d="M 794 531 
L 1825 531 
L 1825 4091 
L 703 3866 
L 703 4441 
L 1819 4666 
L 2450 4666 
L 2450 531 
L 3481 531 
L 3481 0 
L 794 0 
L 794 531 
z
" transform="scale(0.015625)"/>
       </defs>
       <use xlink:href="#DejaVuSans-31"/>
       <use xlink:href="#DejaVuSans-30" x="63.623047"/>
       <use xlink:href="#DejaVuSans-25" x="127.246094"/>
      </g>
     </g>
    </g>
    <g id="ytick_3">
     <g id="line2d_6">
      <g>
       <use xlink:href="#m97bc94ec6a" x="75.628438" y="227.612625" style="stroke: #000000; stroke-width: 0.8"/>
      </g>
     </g>
     <g id="text_7">
      <!-- 15% -->
      <g transform="translate(28.620625 234.451219) scale(0.18 -0.18)">
       <use xlink:href="#DejaVuSans-31"/>
       <use xlink:href="#DejaVuSans-35" x="63.623047"/>
       <use xlink:href="#DejaVuSans-25" x="127.246094"/>
      </g>
     </g>
    </g>
    <g id="ytick_4">
     <g id="line2d_7">
      <g>
       <use xlink:href="#m97bc94ec6a" x="75.628438" y="188.012625" style="stroke: #000000; stroke-width: 0.8"/>
      </g>
     </g>
     <g id="text_8">
      <!-- 20% -->
      <g transform="translate(28.620625 194.851219) scale(0.18 -0.18)">
       <use xlink:href="#DejaVuSans-32"/>
       <use xlink:href="#DejaVuSans-30" x="63.623047"/>
       <use xlink:href="#DejaVuSans-25" x="127.246094"/>
      </g>
     </g>
    </g>
    <g id="ytick_5">
     <g id="line2d_8">
      <g>
       <use xlink:href="#m97bc94ec6a" x="75.628438" y="148.412625" style="stroke: #000000; stroke-width: 0.8"/>
      </g>
     </g>
     <g id="text_9">
      <!-- 25% -->
      <g transform="translate(28.620625 155.251219) scale(0.18 -0.18)">
       <use xlink:href="#DejaVuSans-32"/>
       <use xlink:href="#DejaVuSans-35" x="63.623047"/>
       <use xlink:href="#DejaVuSans-25" x="127.246094"/>
      </g>
     </g>
    </g>
    <g id="ytick_6">
     <g id="line2d_9">
      <g>
       <use xlink:href="#m97bc94ec6a" x="75.628438" y="108.812625" style="stroke: #000000; stroke-width: 0.8"/>
      </g>
     </g>
     <g id="text_10">
      <!-- 30% -->
      <g transform="translate(28.620625 115.651219) scale(0.18 -0.18)">
       <defs>
        <path id="DejaVuSans-33" d="M 2597 2516 
Q 3050 2419 3304 2112 
Q 3559 1806 3559 1356 
Q 3559 666 3084 287 
Q 2609 -91 1734 -91 
Q 1441 -91 1130 -33 
Q 819 25 488 141 
L 488 750 
Q 750 597 1062 519 
Q 1375 441 1716 441 
Q 2309 441 2620 675 
Q 2931 909 2931 1356 
Q 2931 1769 2642 2001 
Q 2353 2234 1838 2234 
L 1294 2234 
L 1294 2753 
L 1863 2753 
Q 2328 2753 2575 2939 
Q 2822 3125 2822 3475 
Q 2822 3834 2567 4026 
Q 2313 4219 1838 4219 
Q 1578 4219 1281 4162 
Q 984 4106 628 3988 
L 628 4550 
Q 988 4650 1302 4700 
Q 1616 4750 1894 4750 
Q 2613 4750 3031 4423 
Q 3450 4097 3450 3541 
Q 3450 3153 3228 2886 
Q 3006 2619 2597 2516 
z
" transform="scale(0.015625)"/>
       </defs>
       <use xlink:href="#DejaVuSans-33"/>
       <use xlink:href="#DejaVuSans-30" x="63.623047"/>
       <use xlink:href="#DejaVuSans-25" x="127.246094"/>
      </g>
     </g>
    </g>
    <g id="ytick_7">
     <g id="line2d_10">
      <g>
       <use xlink:href="#m97bc94ec6a" x="75.628438" y="69.212625" style="stroke: #000000; stroke-width: 0.8"/>
      </g>
     </g>
     <g id="text_11">
      <!-- 35% -->
      <g transform="translate(28.620625 76.051219) scale(0.18 -0.18)">
       <use xlink:href="#DejaVuSans-33"/>
       <use xlink:href="#DejaVuSans-35" x="63.623047"/>
       <use xlink:href="#DejaVuSans-25" x="127.246094"/>
      </g>
     </g>
    </g>
    <g id="ytick_8">
     <g id="line2d_11">
      <g>
       <use xlink:href="#m97bc94ec6a" x="75.628438" y="29.612625" style="stroke: #000000; stroke-width: 0.8"/>
      </g>
     </g>
     <g id="text_12">
      <!-- 40% -->
      <g transform="translate(28.620625 36.451219) scale(0.18 -0.18)">
       <use xlink:href="#DejaVuSans-34"/>
       <use xlink:href="#DejaVuSans-30" x="63.623047"/>
       <use xlink:href="#DejaVuSans-25" x="127.246094"/>
      </g>
     </g>
    </g>
    <g id="text_13">
     <!-- Gini -->
     <g style="fill: #ff0000" transform="translate(20.877188 185.890594) rotate(-90) scale(0.18 -0.18)">
      <defs>
       <path id="DejaVuSans-47" d="M 3809 666 
L 3809 1919 
L 2778 1919 
L 2778 2438 
L 4434 2438 
L 4434 434 
Q 4069 175 3628 42 
Q 3188 -91 2688 -91 
Q 1594 -91 976 548 
Q 359 1188 359 2328 
Q 359 3472 976 4111 
Q 1594 4750 2688 4750 
Q 3144 4750 3555 4637 
Q 3966 4525 4313 4306 
L 4313 3634 
Q 3963 3931 3569 4081 
Q 3175 4231 2741 4231 
Q 1884 4231 1454 3753 
Q 1025 3275 1025 2328 
Q 1025 1384 1454 906 
Q 1884 428 2741 428 
Q 3075 428 3337 486 
Q 3600 544 3809 666 
z
" transform="scale(0.015625)"/>
       <path id="DejaVuSans-69" d="M 603 3500 
L 1178 3500 
L 1178 0 
L 603 0 
L 603 3500 
z
M 603 4863 
L 1178 4863 
L 1178 4134 
L 603 4134 
L 603 4863 
z
" transform="scale(0.015625)"/>
      </defs>
      <use xlink:href="#DejaVuSans-47"/>
      <use xlink:href="#DejaVuSans-69" x="77.490234"/>
      <use xlink:href="#DejaVuSans-6e" x="105.273438"/>
      <use xlink:href="#DejaVuSans-69" x="168.652344"/>
     </g>
    </g>
   </g>
   <g id="line2d_12">
    <path d="M 86.818277 184.058937 
L 91.206449 183.0578 
L 95.594622 184.187215 
L 99.982794 179.514834 
L 104.370967 184.263763 
L 108.759139 184.994464 
L 113.147311 185.417043 
L 117.535484 196.44083 
L 121.923656 185.731168 
L 126.311829 172.984413 
L 130.700001 175.67218 
L 135.088173 173.503134 
L 139.476346 184.820054 
L 143.864518 190.133719 
L 148.25269 180.761206 
L 152.640863 183.899309 
L 157.029035 185.270296 
L 161.417208 172.402352 
L 165.80538 172.936414 
L 170.193552 180.62638 
L 174.581725 179.352842 
L 178.969897 184.472202 
L 183.358069 180.215209 
L 187.746242 183.015566 
L 192.134414 177.304397 
L 196.522587 185.283898 
L 200.910759 190.589091 
L 205.298931 185.691121 
L 209.687104 183.752027 
L 214.075276 178.159943 
L 218.463449 190.877423 
L 222.851621 189.06176 
L 227.239793 183.487598 
L 231.627966 181.739231 
L 236.016138 181.23862 
L 240.40431 188.431083 
L 244.792483 189.967865 
L 249.180655 181.752398 
L 253.568828 183.702886 
L 257.957 191.244962 
L 262.345172 191.879804 
L 266.733345 193.448959 
L 271.121517 174.366618 
L 275.509689 179.74983 
L 279.897862 175.613076 
L 284.286034 187.726061 
L 288.674207 177.024714 
L 293.062379 181.859194 
L 297.450551 181.617616 
L 301.838724 185.309735 
L 306.226896 181.011765 
L 310.615069 177.186802 
" clip-path="url(#p3a4c06dc3c)" style="fill: none; stroke: #ff0000; stroke-width: 1.5; stroke-linecap: square"/>
   </g>
   <g id="patch_3">
    <path d="M 75.628438 306.812625 
L 75.628438 29.612625 
" style="fill: none; stroke: #000000; stroke-width: 0.8; stroke-linejoin: miter; stroke-linecap: square"/>
   </g>
   <g id="patch_4">
    <path d="M 321.804908 306.812625 
L 321.804908 29.612625 
" style="fill: none; stroke: #000000; stroke-width: 0.8; stroke-linejoin: miter; stroke-linecap: square"/>
   </g>
   <g id="patch_5">
    <path d="M 75.628438 306.812625 
L 321.804908 306.812625 
" style="fill: none; stroke: #000000; stroke-width: 0.8; stroke-linejoin: miter; stroke-linecap: square"/>
   </g>
   <g id="patch_6">
    <path d="M 75.628438 29.612625 
L 321.804908 29.612625 
" style="fill: none; stroke: #000000; stroke-width: 0.8; stroke-linejoin: miter; stroke-linecap: square"/>
   </g>
   <g id="text_14">
    <!-- Naive -->
    <g transform="translate(167.980548 23.612625) scale(0.216 -0.216)">
     <defs>
      <path id="DejaVuSans-4e" d="M 628 4666 
L 1478 4666 
L 3547 763 
L 3547 4666 
L 4159 4666 
L 4159 0 
L 3309 0 
L 1241 3903 
L 1241 0 
L 628 0 
L 628 4666 
z
" transform="scale(0.015625)"/>
      <path id="DejaVuSans-61" d="M 2194 1759 
Q 1497 1759 1228 1600 
Q 959 1441 959 1056 
Q 959 750 1161 570 
Q 1363 391 1709 391 
Q 2188 391 2477 730 
Q 2766 1069 2766 1631 
L 2766 1759 
L 2194 1759 
z
M 3341 1997 
L 3341 0 
L 2766 0 
L 2766 531 
Q 2569 213 2275 61 
Q 1981 -91 1556 -91 
Q 1019 -91 701 211 
Q 384 513 384 1019 
Q 384 1609 779 1909 
Q 1175 2209 1959 2209 
L 2766 2209 
L 2766 2266 
Q 2766 2663 2505 2880 
Q 2244 3097 1772 3097 
Q 1472 3097 1187 3025 
Q 903 2953 641 2809 
L 641 3341 
Q 956 3463 1253 3523 
Q 1550 3584 1831 3584 
Q 2591 3584 2966 3190 
Q 3341 2797 3341 1997 
z
" transform="scale(0.015625)"/>
      <path id="DejaVuSans-76" d="M 191 3500 
L 800 3500 
L 1894 563 
L 2988 3500 
L 3597 3500 
L 2284 0 
L 1503 0 
L 191 3500 
z
" transform="scale(0.015625)"/>
     </defs>
     <use xlink:href="#DejaVuSans-4e"/>
     <use xlink:href="#DejaVuSans-61" x="74.804688"/>
     <use xlink:href="#DejaVuSans-69" x="136.083984"/>
     <use xlink:href="#DejaVuSans-76" x="163.867188"/>
     <use xlink:href="#DejaVuSans-65" x="223.046875"/>
    </g>
   </g>
  </g>
  <g id="axes_2">
   <g id="patch_7">
    <path d="M 371.040202 306.812625 
L 617.216673 306.812625 
L 617.216673 29.612625 
L 371.040202 29.612625 
z
" style="fill: #ffffff"/>
   </g>
   <g id="PolyCollection_2">
    <defs>
     <path id="m431d189145" d="M 382.230042 -306.00796 
L 382.230042 -62.54795 
L 386.618214 -65.607462 
L 391.006387 -65.472128 
L 395.394559 -62.611662 
L 399.782731 -60.756836 
L 404.170904 -62.542707 
L 408.559076 -62.296293 
L 412.947248 -53.450858 
L 417.335421 -63.5258 
L 421.723593 -71.896715 
L 426.111766 -67.399908 
L 430.499938 -67.804094 
L 434.88811 -54.53749 
L 439.276283 -42.502871 
L 443.664455 -57.367619 
L 448.052627 -49.180687 
L 452.4408 -62.703632 
L 456.828972 -65.039948 
L 461.217145 -66.138207 
L 465.605317 -63.041801 
L 469.993489 -68.613987 
L 474.381662 -66.695173 
L 478.769834 -67.421186 
L 483.158007 -67.941526 
L 487.546179 -70.832078 
L 491.934351 -62.954804 
L 496.322524 -61.011676 
L 500.710696 -62.71603 
L 505.098868 -67.502309 
L 509.487041 -66.82288 
L 513.875213 -62.113043 
L 518.263386 -58.36096 
L 522.651558 -71.086843 
L 527.03973 -60.5525 
L 531.427903 -72.860369 
L 535.816075 -53.671133 
L 540.204248 -52.784542 
L 544.59242 -61.228198 
L 548.980592 -59.076446 
L 553.368765 -44.920864 
L 557.756937 -52.556527 
L 562.145109 -56.489401 
L 566.533282 -68.24346 
L 570.921454 -72.378788 
L 575.309627 -68.054516 
L 579.697799 -44.955197 
L 584.085971 -77.431493 
L 588.474144 -61.777335 
L 592.862316 -69.484784 
L 597.250488 -62.399158 
L 601.638661 -70.763745 
L 606.026833 -74.779174 
L 606.026833 -309.113419 
L 606.026833 -309.113419 
L 601.638661 -303.703817 
L 597.250488 -299.451809 
L 592.862316 -300.227265 
L 588.474144 -303.017563 
L 584.085971 -307.702661 
L 579.697799 -296.757972 
L 575.309627 -303.784248 
L 570.921454 -299.999314 
L 566.533282 -305.508434 
L 562.145109 -294.846441 
L 557.756937 -296.701147 
L 553.368765 -292.600624 
L 548.980592 -296.127671 
L 544.59242 -297.453352 
L 540.204248 -292.811663 
L 535.816075 -297.608973 
L 531.427903 -299.47816 
L 527.03973 -301.293193 
L 522.651558 -307.402732 
L 518.263386 -295.198988 
L 513.875213 -289.840322 
L 509.487041 -306.460696 
L 505.098868 -303.348145 
L 500.710696 -293.897125 
L 496.322524 -290.296753 
L 491.934351 -300.522558 
L 487.546179 -310.399246 
L 483.158007 -301.036551 
L 478.769834 -307.909072 
L 474.381662 -292.659734 
L 469.993489 -304.579875 
L 465.605317 -307.337143 
L 461.217145 -306.060389 
L 456.828972 -307.628998 
L 452.4408 -300.170827 
L 448.052627 -293.231078 
L 443.664455 -302.136438 
L 439.276283 -294.815039 
L 434.88811 -298.910141 
L 430.499938 -306.953071 
L 426.111766 -303.573673 
L 421.723593 -307.425914 
L 417.335421 -297.505724 
L 412.947248 -286.582522 
L 408.559076 -304.250078 
L 404.170904 -295.145488 
L 399.782731 -294.634763 
L 395.394559 -298.322444 
L 391.006387 -296.671448 
L 386.618214 -306.243521 
L 382.230042 -306.00796 
z
" style="stroke: #ff0000; stroke-opacity: 0.2"/>
    </defs>
    <g clip-path="url(#p4abd0c10b8)">
     <use xlink:href="#m431d189145" x="0" y="359.853875" style="fill: #ff0000; fill-opacity: 0.2; stroke: #ff0000; stroke-opacity: 0.2"/>
    </g>
   </g>
   <g id="matplotlib.axis_3">
    <g id="xtick_4">
     <g id="line2d_13">
      <g>
       <use xlink:href="#m479d01fd33" x="377.841869" y="306.812625" style="stroke: #000000; stroke-width: 0.8"/>
      </g>
     </g>
     <g id="text_15">
      <!-- 0 -->
      <g transform="translate(372.115619 327.489813) scale(0.18 -0.18)">
       <use xlink:href="#DejaVuSans-30"/>
      </g>
     </g>
    </g>
    <g id="xtick_5">
     <g id="line2d_14">
      <g>
       <use xlink:href="#m479d01fd33" x="465.605317" y="306.812625" style="stroke: #000000; stroke-width: 0.8"/>
      </g>
     </g>
     <g id="text_16">
      <!-- 20 -->
      <g transform="translate(454.152817 327.489813) scale(0.18 -0.18)">
       <use xlink:href="#DejaVuSans-32"/>
       <use xlink:href="#DejaVuSans-30" x="63.623047"/>
      </g>
     </g>
    </g>
    <g id="xtick_6">
     <g id="line2d_15">
      <g>
       <use xlink:href="#m479d01fd33" x="553.368765" y="306.812625" style="stroke: #000000; stroke-width: 0.8"/>
      </g>
     </g>
     <g id="text_17">
      <!-- 40 -->
      <g transform="translate(541.916265 327.489813) scale(0.18 -0.18)">
       <use xlink:href="#DejaVuSans-34"/>
       <use xlink:href="#DejaVuSans-30" x="63.623047"/>
      </g>
     </g>
    </g>
    <g id="text_18">
     <!-- Week number -->
     <g transform="translate(431.485625 348.910438) scale(0.18 -0.18)">
      <use xlink:href="#DejaVuSans-57"/>
      <use xlink:href="#DejaVuSans-65" x="93.001953"/>
      <use xlink:href="#DejaVuSans-65" x="154.525391"/>
      <use xlink:href="#DejaVuSans-6b" x="216.048828"/>
      <use xlink:href="#DejaVuSans-20" x="273.958984"/>
      <use xlink:href="#DejaVuSans-6e" x="305.746094"/>
      <use xlink:href="#DejaVuSans-75" x="369.125"/>
      <use xlink:href="#DejaVuSans-6d" x="432.503906"/>
      <use xlink:href="#DejaVuSans-62" x="529.916016"/>
      <use xlink:href="#DejaVuSans-65" x="593.392578"/>
      <use xlink:href="#DejaVuSans-72" x="654.916016"/>
     </g>
    </g>
   </g>
   <g id="matplotlib.axis_4">
    <g id="ytick_9">
     <g id="line2d_16">
      <g>
       <use xlink:href="#m97bc94ec6a" x="371.040202" y="306.812625" style="stroke: #000000; stroke-width: 0.8"/>
      </g>
     </g>
    </g>
    <g id="ytick_10">
     <g id="line2d_17">
      <g>
       <use xlink:href="#m97bc94ec6a" x="371.040202" y="267.212625" style="stroke: #000000; stroke-width: 0.8"/>
      </g>
     </g>
    </g>
    <g id="ytick_11">
     <g id="line2d_18">
      <g>
       <use xlink:href="#m97bc94ec6a" x="371.040202" y="227.612625" style="stroke: #000000; stroke-width: 0.8"/>
      </g>
     </g>
    </g>
    <g id="ytick_12">
     <g id="line2d_19">
      <g>
       <use xlink:href="#m97bc94ec6a" x="371.040202" y="188.012625" style="stroke: #000000; stroke-width: 0.8"/>
      </g>
     </g>
    </g>
    <g id="ytick_13">
     <g id="line2d_20">
      <g>
       <use xlink:href="#m97bc94ec6a" x="371.040202" y="148.412625" style="stroke: #000000; stroke-width: 0.8"/>
      </g>
     </g>
    </g>
    <g id="ytick_14">
     <g id="line2d_21">
      <g>
       <use xlink:href="#m97bc94ec6a" x="371.040202" y="108.812625" style="stroke: #000000; stroke-width: 0.8"/>
      </g>
     </g>
    </g>
    <g id="ytick_15">
     <g id="line2d_22">
      <g>
       <use xlink:href="#m97bc94ec6a" x="371.040202" y="69.212625" style="stroke: #000000; stroke-width: 0.8"/>
      </g>
     </g>
    </g>
    <g id="ytick_16">
     <g id="line2d_23">
      <g>
       <use xlink:href="#m97bc94ec6a" x="371.040202" y="29.612625" style="stroke: #000000; stroke-width: 0.8"/>
      </g>
     </g>
    </g>
   </g>
   <g id="line2d_24">
    <path d="M 382.230042 175.57592 
L 386.618214 173.928384 
L 391.006387 178.782087 
L 395.394559 179.386822 
L 399.782731 182.158075 
L 404.170904 181.009778 
L 408.559076 176.58069 
L 412.947248 189.837185 
L 417.335421 179.338113 
L 421.723593 170.192561 
L 426.111766 174.367085 
L 430.499938 172.475292 
L 434.88811 183.130059 
L 439.276283 191.19492 
L 443.664455 180.101846 
L 448.052627 188.647992 
L 452.4408 178.416645 
L 456.828972 173.519402 
L 461.217145 173.754577 
L 465.605317 174.664403 
L 469.993489 173.256944 
L 474.381662 180.176422 
L 478.769834 172.188746 
L 483.158007 175.364837 
L 487.546179 169.238213 
L 491.934351 178.115194 
L 496.322524 184.199661 
L 500.710696 181.547298 
L 505.098868 174.428648 
L 509.487041 173.212087 
L 513.875213 183.877193 
L 518.263386 183.073901 
L 522.651558 170.609088 
L 527.03973 178.931029 
L 531.427903 173.68461 
L 535.816075 184.213822 
L 540.204248 187.055773 
L 544.59242 180.5131 
L 548.980592 182.251817 
L 553.368765 191.093131 
L 557.756937 185.225038 
L 562.145109 184.185954 
L 566.533282 172.977928 
L 570.921454 173.664824 
L 575.309627 173.934493 
L 579.697799 188.99729 
L 584.085971 167.286798 
L 588.474144 177.456426 
L 592.862316 174.99785 
L 597.250488 178.928391 
L 601.638661 172.620094 
L 606.026833 167.907579 
" clip-path="url(#p4abd0c10b8)" style="fill: none; stroke: #ff0000; stroke-width: 1.5; stroke-linecap: square"/>
   </g>
   <g id="patch_8">
    <path d="M 371.040202 306.812625 
L 371.040202 29.612625 
" style="fill: none; stroke: #000000; stroke-width: 0.8; stroke-linejoin: miter; stroke-linecap: square"/>
   </g>
   <g id="patch_9">
    <path d="M 617.216673 306.812625 
L 617.216673 29.612625 
" style="fill: none; stroke: #000000; stroke-width: 0.8; stroke-linejoin: miter; stroke-linecap: square"/>
   </g>
   <g id="patch_10">
    <path d="M 371.040202 306.812625 
L 617.216673 306.812625 
" style="fill: none; stroke: #000000; stroke-width: 0.8; stroke-linejoin: miter; stroke-linecap: square"/>
   </g>
   <g id="patch_11">
    <path d="M 371.040202 29.612625 
L 617.216673 29.612625 
" style="fill: none; stroke: #000000; stroke-width: 0.8; stroke-linejoin: miter; stroke-linecap: square"/>
   </g>
   <g id="text_19">
    <!-- KDE -->
    <g transform="translate(471.90575 23.612625) scale(0.216 -0.216)">
     <defs>
      <path id="DejaVuSans-4b" d="M 628 4666 
L 1259 4666 
L 1259 2694 
L 3353 4666 
L 4166 4666 
L 1850 2491 
L 4331 0 
L 3500 0 
L 1259 2247 
L 1259 0 
L 628 0 
L 628 4666 
z
" transform="scale(0.015625)"/>
      <path id="DejaVuSans-44" d="M 1259 4147 
L 1259 519 
L 2022 519 
Q 2988 519 3436 956 
Q 3884 1394 3884 2338 
Q 3884 3275 3436 3711 
Q 2988 4147 2022 4147 
L 1259 4147 
z
M 628 4666 
L 1925 4666 
Q 3281 4666 3915 4102 
Q 4550 3538 4550 2338 
Q 4550 1131 3912 565 
Q 3275 0 1925 0 
L 628 0 
L 628 4666 
z
" transform="scale(0.015625)"/>
      <path id="DejaVuSans-45" d="M 628 4666 
L 3578 4666 
L 3578 4134 
L 1259 4134 
L 1259 2753 
L 3481 2753 
L 3481 2222 
L 1259 2222 
L 1259 531 
L 3634 531 
L 3634 0 
L 628 0 
L 628 4666 
z
" transform="scale(0.015625)"/>
     </defs>
     <use xlink:href="#DejaVuSans-4b"/>
     <use xlink:href="#DejaVuSans-44" x="65.576172"/>
     <use xlink:href="#DejaVuSans-45" x="142.578125"/>
    </g>
   </g>
  </g>
  <g id="axes_3">
   <g id="patch_12">
    <path d="M 666.451967 306.812625 
L 912.628438 306.812625 
L 912.628438 29.612625 
L 666.451967 29.612625 
z
" style="fill: #ffffff"/>
   </g>
   <g id="PolyCollection_3">
    <defs>
     <path id="med51ba292b" d="M 677.641806 -308.020463 
L 677.641806 -73.441261 
L 682.029979 -60.634268 
L 686.418151 -72.979572 
L 690.806324 -77.983247 
L 695.194496 -74.910359 
L 699.582668 -70.667161 
L 703.970841 -65.807831 
L 708.359013 -56.140458 
L 712.747186 -63.01202 
L 717.135358 -70.531355 
L 721.52353 -75.407971 
L 725.911703 -74.073937 
L 730.299875 -66.844618 
L 734.688047 -59.757408 
L 739.07622 -75.617884 
L 743.464392 -64.797887 
L 747.852565 -58.729388 
L 752.240737 -76.155103 
L 756.628909 -75.939551 
L 761.017082 -74.360537 
L 765.405254 -74.579978 
L 769.793426 -71.847731 
L 774.181599 -70.071884 
L 778.569771 -64.102721 
L 782.957944 -61.754073 
L 787.346116 -55.117208 
L 791.734288 -61.576194 
L 796.122461 -68.221526 
L 800.510633 -59.919279 
L 804.898806 -66.558863 
L 809.286978 -54.0054 
L 813.67515 -67.802059 
L 818.063323 -67.484745 
L 822.451495 -76.742285 
L 826.839667 -79.477249 
L 831.22784 -57.53217 
L 835.616012 -54.8887 
L 840.004185 -75.229995 
L 844.392357 -55.73661 
L 848.780529 -60.287671 
L 853.168702 -58.567205 
L 857.556874 -62.704832 
L 861.945046 -74.699709 
L 866.333219 -82.487482 
L 870.721391 -73.033393 
L 875.109564 -66.917528 
L 879.497736 -69.421918 
L 883.885908 -63.637313 
L 888.274081 -63.493055 
L 892.662253 -63.044506 
L 897.050426 -74.102484 
L 901.438598 -74.002239 
L 901.438598 -307.343444 
L 901.438598 -307.343444 
L 897.050426 -307.316895 
L 892.662253 -302.51549 
L 888.274081 -303.764051 
L 883.885908 -304.147198 
L 879.497736 -307.786238 
L 875.109564 -306.870584 
L 870.721391 -306.81746 
L 866.333219 -301.421985 
L 861.945046 -301.990691 
L 857.556874 -296.835132 
L 853.168702 -299.668794 
L 848.780529 -295.319642 
L 844.392357 -300.180147 
L 840.004185 -307.002476 
L 835.616012 -299.810806 
L 831.22784 -295.514644 
L 826.839667 -302.043709 
L 822.451495 -308.095546 
L 818.063323 -304.672934 
L 813.67515 -298.128086 
L 809.286978 -291.970528 
L 804.898806 -304.843053 
L 800.510633 -301.778331 
L 796.122461 -301.870265 
L 791.734288 -294.67512 
L 787.346116 -295.856956 
L 782.957944 -307.457068 
L 778.569771 -303.59818 
L 774.181599 -304.16033 
L 769.793426 -293.397259 
L 765.405254 -303.896128 
L 761.017082 -306.766076 
L 756.628909 -306.982196 
L 752.240737 -306.981136 
L 747.852565 -302.548367 
L 743.464392 -300.618652 
L 739.07622 -308.492684 
L 734.688047 -302.298547 
L 730.299875 -296.876324 
L 725.911703 -310.806236 
L 721.52353 -311.288361 
L 717.135358 -307.429938 
L 712.747186 -301.238994 
L 708.359013 -287.95324 
L 703.970841 -307.996839 
L 699.582668 -303.244494 
L 695.194496 -304.532906 
L 690.806324 -301.812827 
L 686.418151 -299.073744 
L 682.029979 -302.402664 
L 677.641806 -308.020463 
z
" style="stroke: #ff0000; stroke-opacity: 0.2"/>
    </defs>
    <g clip-path="url(#pa72b86734f)">
     <use xlink:href="#med51ba292b" x="0" y="359.853875" style="fill: #ff0000; fill-opacity: 0.2; stroke: #ff0000; stroke-opacity: 0.2"/>
    </g>
   </g>
   <g id="matplotlib.axis_5">
    <g id="xtick_7">
     <g id="line2d_25">
      <g>
       <use xlink:href="#m479d01fd33" x="673.253634" y="306.812625" style="stroke: #000000; stroke-width: 0.8"/>
      </g>
     </g>
     <g id="text_20">
      <!-- 0 -->
      <g transform="translate(667.527384 327.489813) scale(0.18 -0.18)">
       <use xlink:href="#DejaVuSans-30"/>
      </g>
     </g>
    </g>
    <g id="xtick_8">
     <g id="line2d_26">
      <g>
       <use xlink:href="#m479d01fd33" x="761.017082" y="306.812625" style="stroke: #000000; stroke-width: 0.8"/>
      </g>
     </g>
     <g id="text_21">
      <!-- 20 -->
      <g transform="translate(749.564582 327.489813) scale(0.18 -0.18)">
       <use xlink:href="#DejaVuSans-32"/>
       <use xlink:href="#DejaVuSans-30" x="63.623047"/>
      </g>
     </g>
    </g>
    <g id="xtick_9">
     <g id="line2d_27">
      <g>
       <use xlink:href="#m479d01fd33" x="848.780529" y="306.812625" style="stroke: #000000; stroke-width: 0.8"/>
      </g>
     </g>
     <g id="text_22">
      <!-- 40 -->
      <g transform="translate(837.328029 327.489813) scale(0.18 -0.18)">
       <use xlink:href="#DejaVuSans-34"/>
       <use xlink:href="#DejaVuSans-30" x="63.623047"/>
      </g>
     </g>
    </g>
    <g id="text_23">
     <!-- Week number -->
     <g transform="translate(726.89739 348.910438) scale(0.18 -0.18)">
      <use xlink:href="#DejaVuSans-57"/>
      <use xlink:href="#DejaVuSans-65" x="93.001953"/>
      <use xlink:href="#DejaVuSans-65" x="154.525391"/>
      <use xlink:href="#DejaVuSans-6b" x="216.048828"/>
      <use xlink:href="#DejaVuSans-20" x="273.958984"/>
      <use xlink:href="#DejaVuSans-6e" x="305.746094"/>
      <use xlink:href="#DejaVuSans-75" x="369.125"/>
      <use xlink:href="#DejaVuSans-6d" x="432.503906"/>
      <use xlink:href="#DejaVuSans-62" x="529.916016"/>
      <use xlink:href="#DejaVuSans-65" x="593.392578"/>
      <use xlink:href="#DejaVuSans-72" x="654.916016"/>
     </g>
    </g>
   </g>
   <g id="matplotlib.axis_6">
    <g id="ytick_17">
     <g id="line2d_28">
      <g>
       <use xlink:href="#m97bc94ec6a" x="666.451967" y="306.812625" style="stroke: #000000; stroke-width: 0.8"/>
      </g>
     </g>
    </g>
    <g id="ytick_18">
     <g id="line2d_29">
      <g>
       <use xlink:href="#m97bc94ec6a" x="666.451967" y="267.212625" style="stroke: #000000; stroke-width: 0.8"/>
      </g>
     </g>
    </g>
    <g id="ytick_19">
     <g id="line2d_30">
      <g>
       <use xlink:href="#m97bc94ec6a" x="666.451967" y="227.612625" style="stroke: #000000; stroke-width: 0.8"/>
      </g>
     </g>
    </g>
    <g id="ytick_20">
     <g id="line2d_31">
      <g>
       <use xlink:href="#m97bc94ec6a" x="666.451967" y="188.012625" style="stroke: #000000; stroke-width: 0.8"/>
      </g>
     </g>
    </g>
    <g id="ytick_21">
     <g id="line2d_32">
      <g>
       <use xlink:href="#m97bc94ec6a" x="666.451967" y="148.412625" style="stroke: #000000; stroke-width: 0.8"/>
      </g>
     </g>
    </g>
    <g id="ytick_22">
     <g id="line2d_33">
      <g>
       <use xlink:href="#m97bc94ec6a" x="666.451967" y="108.812625" style="stroke: #000000; stroke-width: 0.8"/>
      </g>
     </g>
    </g>
    <g id="ytick_23">
     <g id="line2d_34">
      <g>
       <use xlink:href="#m97bc94ec6a" x="666.451967" y="69.212625" style="stroke: #000000; stroke-width: 0.8"/>
      </g>
     </g>
    </g>
    <g id="ytick_24">
     <g id="line2d_35">
      <g>
       <use xlink:href="#m97bc94ec6a" x="666.451967" y="29.612625" style="stroke: #000000; stroke-width: 0.8"/>
      </g>
     </g>
    </g>
   </g>
   <g id="line2d_36">
    <path d="M 677.641806 169.123013 
L 682.029979 178.335409 
L 686.418151 173.827217 
L 690.806324 169.955838 
L 695.194496 170.132242 
L 699.582668 172.898048 
L 703.970841 172.95154 
L 708.359013 187.807026 
L 712.747186 177.728368 
L 717.135358 170.873229 
L 721.52353 166.505709 
L 725.911703 167.413789 
L 730.299875 177.993404 
L 734.688047 178.825898 
L 739.07622 167.798591 
L 743.464392 177.145606 
L 747.852565 179.214998 
L 752.240737 168.285755 
L 756.628909 168.393002 
L 761.017082 169.290569 
L 765.405254 170.615822 
L 769.793426 177.23138 
L 774.181599 172.737768 
L 778.569771 176.003424 
L 782.957944 175.248305 
L 787.346116 184.366793 
L 791.734288 181.728218 
L 796.122461 174.807979 
L 800.510633 179.00507 
L 804.898806 174.152917 
L 809.286978 186.865911 
L 813.67515 176.888803 
L 818.063323 173.775036 
L 822.451495 167.434959 
L 826.839667 169.093396 
L 831.22784 183.330468 
L 835.616012 182.504122 
L 840.004185 168.737639 
L 844.392357 181.895497 
L 848.780529 182.050219 
L 853.168702 180.735875 
L 857.556874 180.083893 
L 861.945046 171.508675 
L 866.333219 167.899141 
L 870.721391 169.928449 
L 875.109564 172.959819 
L 879.497736 171.249797 
L 883.885908 175.961619 
L 888.274081 176.225322 
L 892.662253 177.073877 
L 897.050426 169.144186 
L 901.438598 169.181034 
" clip-path="url(#pa72b86734f)" style="fill: none; stroke: #ff0000; stroke-width: 1.5; stroke-linecap: square"/>
   </g>
   <g id="patch_13">
    <path d="M 666.451967 306.812625 
L 666.451967 29.612625 
" style="fill: none; stroke: #000000; stroke-width: 0.8; stroke-linejoin: miter; stroke-linecap: square"/>
   </g>
   <g id="patch_14">
    <path d="M 912.628438 306.812625 
L 912.628438 29.612625 
" style="fill: none; stroke: #000000; stroke-width: 0.8; stroke-linejoin: miter; stroke-linecap: square"/>
   </g>
   <g id="patch_15">
    <path d="M 666.451967 306.812625 
L 912.628438 306.812625 
" style="fill: none; stroke: #000000; stroke-width: 0.8; stroke-linejoin: miter; stroke-linecap: square"/>
   </g>
   <g id="patch_16">
    <path d="M 666.451967 29.612625 
L 912.628438 29.612625 
" style="fill: none; stroke: #000000; stroke-width: 0.8; stroke-linejoin: miter; stroke-linecap: square"/>
   </g>
   <g id="text_24">
    <!-- SEPP -->
    <g transform="translate(762.835515 23.612625) scale(0.216 -0.216)">
     <defs>
      <path id="DejaVuSans-53" d="M 3425 4513 
L 3425 3897 
Q 3066 4069 2747 4153 
Q 2428 4238 2131 4238 
Q 1616 4238 1336 4038 
Q 1056 3838 1056 3469 
Q 1056 3159 1242 3001 
Q 1428 2844 1947 2747 
L 2328 2669 
Q 3034 2534 3370 2195 
Q 3706 1856 3706 1288 
Q 3706 609 3251 259 
Q 2797 -91 1919 -91 
Q 1588 -91 1214 -16 
Q 841 59 441 206 
L 441 856 
Q 825 641 1194 531 
Q 1563 422 1919 422 
Q 2459 422 2753 634 
Q 3047 847 3047 1241 
Q 3047 1584 2836 1778 
Q 2625 1972 2144 2069 
L 1759 2144 
Q 1053 2284 737 2584 
Q 422 2884 422 3419 
Q 422 4038 858 4394 
Q 1294 4750 2059 4750 
Q 2388 4750 2728 4690 
Q 3069 4631 3425 4513 
z
" transform="scale(0.015625)"/>
      <path id="DejaVuSans-50" d="M 1259 4147 
L 1259 2394 
L 2053 2394 
Q 2494 2394 2734 2622 
Q 2975 2850 2975 3272 
Q 2975 3691 2734 3919 
Q 2494 4147 2053 4147 
L 1259 4147 
z
M 628 4666 
L 2053 4666 
Q 2838 4666 3239 4311 
Q 3641 3956 3641 3272 
Q 3641 2581 3239 2228 
Q 2838 1875 2053 1875 
L 1259 1875 
L 1259 0 
L 628 0 
L 628 4666 
z
" transform="scale(0.015625)"/>
     </defs>
     <use xlink:href="#DejaVuSans-53"/>
     <use xlink:href="#DejaVuSans-45" x="63.476562"/>
     <use xlink:href="#DejaVuSans-50" x="126.660156"/>
     <use xlink:href="#DejaVuSans-50" x="186.962891"/>
    </g>
   </g>
  </g>
  <g id="axes_4">
   <g id="PolyCollection_4">
    <defs>
     <path id="ma516464038" d="M 86.818277 -343.365103 
L 86.818277 -148.411363 
L 91.206449 -156.230872 
L 95.594622 -160.574494 
L 99.982794 -143.683975 
L 104.370967 -158.790819 
L 108.759139 -155.114043 
L 113.147311 -165.429842 
L 117.535484 -135.440792 
L 121.923656 -141.031516 
L 126.311829 -136.199488 
L 130.700001 -157.050552 
L 135.088173 -140.878571 
L 139.476346 -124.549534 
L 143.864518 -128.648093 
L 148.25269 -155.413944 
L 152.640863 -140.611088 
L 157.029035 -143.129915 
L 161.417208 -151.013993 
L 165.80538 -147.750139 
L 170.193552 -149.86175 
L 174.581725 -140.581645 
L 178.969897 -148.831167 
L 183.358069 -154.039073 
L 187.746242 -131.342307 
L 192.134414 -136.328387 
L 196.522587 -126.900782 
L 200.910759 -135.593742 
L 205.298931 -155.141496 
L 209.687104 -141.407221 
L 214.075276 -166.388952 
L 218.463449 -148.53792 
L 222.851621 -140.096996 
L 227.239793 -133.839522 
L 231.627966 -132.508805 
L 236.016138 -159.077232 
L 240.40431 -149.045961 
L 244.792483 -142.829928 
L 249.180655 -138.952414 
L 253.568828 -137.842541 
L 257.957 -141.723865 
L 262.345172 -150.803389 
L 266.733345 -145.397539 
L 271.121517 -138.438988 
L 275.509689 -139.464595 
L 279.897862 -164.11298 
L 284.286034 -146.639005 
L 288.674207 -151.633889 
L 293.062379 -156.532264 
L 297.450551 -143.612427 
L 301.838724 -149.233937 
L 306.226896 -143.227232 
L 310.615069 -127.473435 
L 310.615069 -327.464617 
L 310.615069 -327.464617 
L 306.226896 -345.907466 
L 301.838724 -317.510399 
L 297.450551 -335.893203 
L 293.062379 -328.158731 
L 288.674207 -341.503881 
L 284.286034 -329.410091 
L 279.897862 -319.577539 
L 275.509689 -316.097213 
L 271.121517 -317.875115 
L 266.733345 -313.881233 
L 262.345172 -307.534669 
L 257.957 -321.200786 
L 253.568828 -322.046863 
L 249.180655 -360.848965 
L 244.792483 -329.104702 
L 240.40431 -325.684166 
L 236.016138 -330.817471 
L 231.627966 -312.76728 
L 227.239793 -314.07755 
L 222.851621 -315.430793 
L 218.463449 -330.71437 
L 214.075276 -312.919677 
L 209.687104 -328.145536 
L 205.298931 -333.743668 
L 200.910759 -330.803018 
L 196.522587 -319.573498 
L 192.134414 -320.055577 
L 187.746242 -318.632235 
L 183.358069 -320.302163 
L 178.969897 -327.796225 
L 174.581725 -343.063095 
L 170.193552 -324.708262 
L 165.80538 -326.926075 
L 161.417208 -307.643293 
L 157.029035 -309.400597 
L 152.640863 -327.643522 
L 148.25269 -317.400591 
L 143.864518 -316.966581 
L 139.476346 -304.376309 
L 135.088173 -331.9262 
L 130.700001 -334.284873 
L 126.311829 -304.473892 
L 121.923656 -310.962281 
L 117.535484 -325.846531 
L 113.147311 -343.475499 
L 108.759139 -314.060198 
L 104.370967 -307.925982 
L 99.982794 -327.631417 
L 95.594622 -310.758706 
L 91.206449 -345.746387 
L 86.818277 -343.365103 
z
" style="stroke: #0000ff; stroke-opacity: 0.2"/>
    </defs>
    <g clip-path="url(#p3a4c06dc3c)">
     <use xlink:href="#ma516464038" x="0" y="359.853875" style="fill: #0000ff; fill-opacity: 0.2; stroke: #0000ff; stroke-opacity: 0.2"/>
    </g>
   </g>
   <g id="line2d_37">
    <path d="M 86.818277 113.965642 
L 91.206449 108.865246 
L 95.594622 124.187275 
L 99.982794 124.196179 
L 104.370967 126.495475 
L 108.759139 125.266755 
L 113.147311 105.401204 
L 117.535484 129.210213 
L 121.923656 133.856976 
L 126.311829 139.517185 
L 130.700001 114.186162 
L 135.088173 123.45149 
L 139.476346 145.390953 
L 143.864518 137.046538 
L 148.25269 123.446608 
L 152.640863 125.72657 
L 157.029035 133.588619 
L 161.417208 130.525232 
L 165.80538 122.515768 
L 170.193552 122.568869 
L 174.581725 118.031505 
L 178.969897 121.540179 
L 183.358069 122.683257 
L 187.746242 134.866604 
L 192.134414 131.661893 
L 196.522587 136.616735 
L 200.910759 126.655495 
L 205.298931 115.411293 
L 209.687104 125.077496 
L 214.075276 120.199561 
L 218.463449 120.22773 
L 222.851621 132.08998 
L 227.239793 135.895339 
L 231.627966 137.215832 
L 236.016138 114.906524 
L 240.40431 122.488812 
L 244.792483 123.88656 
L 249.180655 109.953185 
L 253.568828 129.909173 
L 257.957 128.39155 
L 262.345172 130.684846 
L 266.733345 130.214489 
L 271.121517 131.696823 
L 275.509689 132.072971 
L 279.897862 118.008616 
L 284.286034 121.829327 
L 288.674207 113.28499 
L 293.062379 117.508378 
L 297.450551 120.10106 
L 301.838724 126.481707 
L 306.226896 115.286526 
L 310.615069 132.384849 
" clip-path="url(#p3a4c06dc3c)" style="fill: none; stroke: #0000ff; stroke-width: 1.5; stroke-linecap: square"/>
   </g>
  </g>
  <g id="axes_5">
   <g id="PolyCollection_5">
    <defs>
     <path id="m9e9e3fb8c9" d="M 382.230042 -284.595302 
L 382.230042 -137.68711 
L 386.618214 -134.694338 
L 391.006387 -132.718176 
L 395.394559 -120.439867 
L 399.782731 -134.257618 
L 404.170904 -130.156273 
L 408.559076 -140.739923 
L 412.947248 -110.310778 
L 417.335421 -118.500303 
L 421.723593 -120.936456 
L 426.111766 -128.203546 
L 430.499938 -119.89342 
L 434.88811 -108.997431 
L 439.276283 -116.194098 
L 443.664455 -127.909734 
L 448.052627 -118.166837 
L 452.4408 -124.903505 
L 456.828972 -130.557865 
L 461.217145 -128.013416 
L 465.605317 -122.997711 
L 469.993489 -123.46818 
L 474.381662 -127.752288 
L 478.769834 -130.696517 
L 483.158007 -120.55926 
L 487.546179 -111.369991 
L 491.934351 -110.266385 
L 496.322524 -116.51091 
L 500.710696 -134.942282 
L 505.098868 -116.4018 
L 509.487041 -140.722547 
L 513.875213 -129.112032 
L 518.263386 -119.273679 
L 522.651558 -118.962791 
L 527.03973 -111.832928 
L 531.427903 -127.975941 
L 535.816075 -131.590931 
L 540.204248 -120.808997 
L 544.59242 -126.409366 
L 548.980592 -118.292479 
L 553.368765 -124.107634 
L 557.756937 -130.919377 
L 562.145109 -124.508652 
L 566.533282 -126.833051 
L 570.921454 -123.585426 
L 575.309627 -141.812566 
L 579.697799 -131.423223 
L 584.085971 -136.206327 
L 588.474144 -131.168555 
L 592.862316 -123.757804 
L 597.250488 -130.889701 
L 601.638661 -133.182806 
L 606.026833 -112.429247 
L 606.026833 -269.639702 
L 606.026833 -269.639702 
L 601.638661 -291.749884 
L 597.250488 -259.384962 
L 592.862316 -277.11979 
L 588.474144 -270.529454 
L 584.085971 -279.20594 
L 579.697799 -268.741646 
L 575.309627 -261.867766 
L 570.921454 -261.738186 
L 566.533282 -261.994829 
L 562.145109 -259.608518 
L 557.756937 -248.284208 
L 553.368765 -259.177821 
L 548.980592 -261.521797 
L 544.59242 -305.309623 
L 540.204248 -273.669193 
L 535.816075 -273.510354 
L 531.427903 -276.55681 
L 527.03973 -255.129561 
L 522.651558 -255.398225 
L 518.263386 -255.37268 
L 513.875213 -272.601273 
L 509.487041 -260.261106 
L 505.098868 -278.243534 
L 500.710696 -274.37834 
L 496.322524 -267.336534 
L 491.934351 -262.851235 
L 487.546179 -270.950558 
L 483.158007 -264.682309 
L 478.769834 -261.311833 
L 474.381662 -267.281382 
L 469.993489 -283.16472 
L 465.605317 -278.364661 
L 461.217145 -269.527762 
L 456.828972 -258.541958 
L 452.4408 -254.557101 
L 448.052627 -274.237796 
L 443.664455 -263.938028 
L 439.276283 -256.879049 
L 434.88811 -249.992712 
L 430.499938 -271.304367 
L 426.111766 -276.266429 
L 421.723593 -241.635664 
L 417.335421 -257.464661 
L 412.947248 -272.243279 
L 408.559076 -287.209423 
L 404.170904 -254.613039 
L 399.782731 -250.722631 
L 395.394559 -276.641505 
L 391.006387 -257.087598 
L 386.618214 -291.844036 
L 382.230042 -284.595302 
z
" style="stroke: #0000ff; stroke-opacity: 0.2"/>
    </defs>
    <g clip-path="url(#p4abd0c10b8)">
     <use xlink:href="#m9e9e3fb8c9" x="0" y="359.853875" style="fill: #0000ff; fill-opacity: 0.2; stroke: #0000ff; stroke-opacity: 0.2"/>
    </g>
   </g>
   <g id="line2d_38">
    <path d="M 382.230042 148.712669 
L 386.618214 146.584688 
L 391.006387 164.950988 
L 395.394559 161.313189 
L 399.782731 167.36375 
L 404.170904 167.469219 
L 408.559076 145.879202 
L 412.947248 168.576846 
L 417.335421 171.871393 
L 421.723593 178.567815 
L 426.111766 157.618888 
L 430.499938 164.254981 
L 434.88811 180.358803 
L 439.276283 173.317302 
L 443.664455 163.929994 
L 448.052627 163.651558 
L 452.4408 170.123572 
L 456.828972 165.303963 
L 461.217145 161.083286 
L 465.605317 159.172689 
L 469.993489 156.537425 
L 474.381662 162.33704 
L 478.769834 163.8497 
L 483.158007 167.233091 
L 487.546179 168.693601 
L 491.934351 173.295065 
L 496.322524 167.930153 
L 500.710696 155.193564 
L 505.098868 162.531208 
L 509.487041 159.362048 
L 513.875213 158.997223 
L 518.263386 172.530695 
L 522.651558 172.673367 
L 527.03973 176.372631 
L 531.427903 157.587499 
L 535.816075 157.303233 
L 540.204248 162.61478 
L 544.59242 143.99438 
L 548.980592 169.946737 
L 553.368765 168.211148 
L 557.756937 170.252082 
L 562.145109 167.79529 
L 566.533282 165.439935 
L 570.921454 167.192069 
L 575.309627 158.013709 
L 579.697799 159.77144 
L 584.085971 152.147742 
L 588.474144 159.004871 
L 592.862316 159.415078 
L 597.250488 164.716544 
L 601.638661 147.38753 
L 606.026833 168.819401 
" clip-path="url(#p4abd0c10b8)" style="fill: none; stroke: #0000ff; stroke-width: 1.5; stroke-linecap: square"/>
   </g>
  </g>
  <g id="axes_6">
   <g id="PolyCollection_6">
    <defs>
     <path id="m61c07e280e" d="M 677.641806 -243.456611 
L 677.641806 -115.037432 
L 682.029979 -127.062429 
L 686.418151 -116.865899 
L 690.806324 -107.224523 
L 695.194496 -119.118903 
L 699.582668 -118.402197 
L 703.970841 -116.564194 
L 708.359013 -102.940156 
L 712.747186 -115.601368 
L 717.135358 -110.894709 
L 721.52353 -118.963275 
L 725.911703 -104.383865 
L 730.299875 -99.699746 
L 734.688047 -105.818051 
L 739.07622 -120.304294 
L 743.464392 -115.563991 
L 747.852565 -110.517841 
L 752.240737 -112.334595 
L 756.628909 -115.158568 
L 761.017082 -113.98025 
L 765.405254 -103.264652 
L 769.793426 -109.723601 
L 774.181599 -120.850713 
L 778.569771 -102.806482 
L 782.957944 -109.122987 
L 787.346116 -95.619496 
L 791.734288 -107.072593 
L 796.122461 -121.117852 
L 800.510633 -106.554993 
L 804.898806 -117.386174 
L 809.286978 -125.068673 
L 813.67515 -105.354537 
L 818.063323 -112.675214 
L 822.451495 -103.285382 
L 826.839667 -124.210638 
L 831.22784 -114.955473 
L 835.616012 -113.512661 
L 840.004185 -117.372661 
L 844.392357 -117.592103 
L 848.780529 -110.433946 
L 853.168702 -103.752952 
L 857.556874 -115.639835 
L 861.945046 -112.464761 
L 866.333219 -116.115017 
L 870.721391 -127.767446 
L 875.109564 -113.555354 
L 879.497736 -122.651656 
L 883.885908 -119.448709 
L 888.274081 -111.114847 
L 892.662253 -116.76799 
L 897.050426 -120.905588 
L 901.438598 -99.985831 
L 901.438598 -245.345849 
L 901.438598 -245.345849 
L 897.050426 -258.077776 
L 892.662253 -242.583587 
L 888.274081 -248.558677 
L 883.885908 -251.404642 
L 879.497736 -264.10085 
L 875.109564 -244.712776 
L 870.721391 -237.898863 
L 866.333219 -237.383926 
L 861.945046 -236.876844 
L 857.556874 -233.564937 
L 853.168702 -222.583105 
L 848.780529 -249.247756 
L 844.392357 -237.054062 
L 840.004185 -274.060893 
L 835.616012 -254.198012 
L 831.22784 -255.277919 
L 826.839667 -253.193161 
L 822.451495 -230.862783 
L 818.063323 -238.679002 
L 813.67515 -249.425597 
L 809.286978 -255.409545 
L 804.898806 -235.831232 
L 800.510633 -258.146401 
L 796.122461 -259.754051 
L 791.734288 -249.471168 
L 787.346116 -236.968534 
L 782.957944 -242.265909 
L 778.569771 -245.820483 
L 774.181599 -251.018766 
L 769.793426 -249.550265 
L 765.405254 -265.518298 
L 761.017082 -257.583999 
L 756.628909 -247.441799 
L 752.240737 -239.545209 
L 747.852565 -235.119172 
L 743.464392 -237.892527 
L 739.07622 -238.307005 
L 734.688047 -231.653888 
L 730.299875 -228.671001 
L 725.911703 -245.042241 
L 721.52353 -250.279077 
L 717.135358 -232.462314 
L 712.747186 -223.600731 
L 708.359013 -250.050241 
L 703.970841 -271.329978 
L 699.582668 -239.924214 
L 695.194496 -226.478531 
L 690.806324 -246.87707 
L 686.418151 -234.937246 
L 682.029979 -266.608489 
L 677.641806 -243.456611 
z
" style="stroke: #0000ff; stroke-opacity: 0.2"/>
    </defs>
    <g clip-path="url(#pa72b86734f)">
     <use xlink:href="#m61c07e280e" x="0" y="359.853875" style="fill: #0000ff; fill-opacity: 0.2; stroke: #0000ff; stroke-opacity: 0.2"/>
    </g>
   </g>
   <g id="matplotlib.axis_7">
    <g id="ytick_25">
     <g id="line2d_39">
      <defs>
       <path id="md09edfccc5" d="M 0 0 
L 3.5 0 
" style="stroke: #000000; stroke-width: 0.8"/>
      </defs>
      <g>
       <use xlink:href="#md09edfccc5" x="912.628438" y="306.812625" style="stroke: #000000; stroke-width: 0.8"/>
      </g>
     </g>
     <g id="text_25">
      <!-- 0.01 -->
      <g transform="translate(919.628438 313.651219) scale(0.18 -0.18)">
       <defs>
        <path id="DejaVuSans-2e" d="M 684 794 
L 1344 794 
L 1344 0 
L 684 0 
L 684 794 
z
" transform="scale(0.015625)"/>
       </defs>
       <use xlink:href="#DejaVuSans-30"/>
       <use xlink:href="#DejaVuSans-2e" x="63.623047"/>
       <use xlink:href="#DejaVuSans-30" x="95.410156"/>
       <use xlink:href="#DejaVuSans-31" x="159.033203"/>
      </g>
     </g>
    </g>
    <g id="ytick_26">
     <g id="line2d_40">
      <g>
       <use xlink:href="#md09edfccc5" x="912.628438" y="260.612625" style="stroke: #000000; stroke-width: 0.8"/>
      </g>
     </g>
     <g id="text_26">
      <!-- 0.01 -->
      <g transform="translate(919.628438 267.451219) scale(0.18 -0.18)">
       <use xlink:href="#DejaVuSans-30"/>
       <use xlink:href="#DejaVuSans-2e" x="63.623047"/>
       <use xlink:href="#DejaVuSans-30" x="95.410156"/>
       <use xlink:href="#DejaVuSans-31" x="159.033203"/>
      </g>
     </g>
    </g>
    <g id="ytick_27">
     <g id="line2d_41">
      <g>
       <use xlink:href="#md09edfccc5" x="912.628438" y="214.412625" style="stroke: #000000; stroke-width: 0.8"/>
      </g>
     </g>
     <g id="text_27">
      <!-- 0.02 -->
      <g transform="translate(919.628438 221.251219) scale(0.18 -0.18)">
       <use xlink:href="#DejaVuSans-30"/>
       <use xlink:href="#DejaVuSans-2e" x="63.623047"/>
       <use xlink:href="#DejaVuSans-30" x="95.410156"/>
       <use xlink:href="#DejaVuSans-32" x="159.033203"/>
      </g>
     </g>
    </g>
    <g id="ytick_28">
     <g id="line2d_42">
      <g>
       <use xlink:href="#md09edfccc5" x="912.628438" y="168.212625" style="stroke: #000000; stroke-width: 0.8"/>
      </g>
     </g>
     <g id="text_28">
      <!-- 0.03 -->
      <g transform="translate(919.628438 175.051219) scale(0.18 -0.18)">
       <use xlink:href="#DejaVuSans-30"/>
       <use xlink:href="#DejaVuSans-2e" x="63.623047"/>
       <use xlink:href="#DejaVuSans-30" x="95.410156"/>
       <use xlink:href="#DejaVuSans-33" x="159.033203"/>
      </g>
     </g>
    </g>
    <g id="ytick_29">
     <g id="line2d_43">
      <g>
       <use xlink:href="#md09edfccc5" x="912.628438" y="122.012625" style="stroke: #000000; stroke-width: 0.8"/>
      </g>
     </g>
     <g id="text_29">
      <!-- 0.03 -->
      <g transform="translate(919.628438 128.851219) scale(0.18 -0.18)">
       <use xlink:href="#DejaVuSans-30"/>
       <use xlink:href="#DejaVuSans-2e" x="63.623047"/>
       <use xlink:href="#DejaVuSans-30" x="95.410156"/>
       <use xlink:href="#DejaVuSans-33" x="159.033203"/>
      </g>
     </g>
    </g>
    <g id="ytick_30">
     <g id="line2d_44">
      <g>
       <use xlink:href="#md09edfccc5" x="912.628438" y="75.812625" style="stroke: #000000; stroke-width: 0.8"/>
      </g>
     </g>
     <g id="text_30">
      <!-- 0.04 -->
      <g transform="translate(919.628438 82.651219) scale(0.18 -0.18)">
       <use xlink:href="#DejaVuSans-30"/>
       <use xlink:href="#DejaVuSans-2e" x="63.623047"/>
       <use xlink:href="#DejaVuSans-30" x="95.410156"/>
       <use xlink:href="#DejaVuSans-34" x="159.033203"/>
      </g>
     </g>
    </g>
    <g id="ytick_31">
     <g id="line2d_45">
      <g>
       <use xlink:href="#md09edfccc5" x="912.628438" y="29.612625" style="stroke: #000000; stroke-width: 0.8"/>
      </g>
     </g>
     <g id="text_31">
      <!-- 0.04 -->
      <g transform="translate(919.628438 36.451219) scale(0.18 -0.18)">
       <use xlink:href="#DejaVuSans-30"/>
       <use xlink:href="#DejaVuSans-2e" x="63.623047"/>
       <use xlink:href="#DejaVuSans-30" x="95.410156"/>
       <use xlink:href="#DejaVuSans-34" x="159.033203"/>
      </g>
     </g>
    </g>
    <g id="text_32">
     <!-- EMD -->
     <g style="fill: #0000ff" transform="translate(977.38375 188.594813) rotate(-90) scale(0.18 -0.18)">
      <defs>
       <path id="DejaVuSans-4d" d="M 628 4666 
L 1569 4666 
L 2759 1491 
L 3956 4666 
L 4897 4666 
L 4897 0 
L 4281 0 
L 4281 4097 
L 3078 897 
L 2444 897 
L 1241 4097 
L 1241 0 
L 628 0 
L 628 4666 
z
" transform="scale(0.015625)"/>
      </defs>
      <use xlink:href="#DejaVuSans-45"/>
      <use xlink:href="#DejaVuSans-4d" x="63.183594"/>
      <use xlink:href="#DejaVuSans-44" x="149.462891"/>
     </g>
    </g>
   </g>
   <g id="line2d_46">
    <path d="M 677.641806 180.606854 
L 682.029979 163.018416 
L 686.418151 183.952302 
L 690.806324 182.803078 
L 695.194496 187.055158 
L 699.582668 180.690669 
L 703.970841 165.906789 
L 708.359013 183.358676 
L 712.747186 190.252826 
L 717.135358 188.175364 
L 721.52353 175.232699 
L 725.911703 185.140822 
L 730.299875 195.668501 
L 734.688047 191.117906 
L 739.07622 180.548226 
L 743.464392 183.125616 
L 747.852565 187.035368 
L 752.240737 183.913973 
L 756.628909 178.553691 
L 761.017082 174.07175 
L 765.405254 175.4624 
L 769.793426 180.216942 
L 774.181599 173.919136 
L 778.569771 185.540393 
L 782.957944 184.159427 
L 787.346116 193.55986 
L 791.734288 181.581994 
L 796.122461 169.417924 
L 800.510633 177.503178 
L 804.898806 183.245172 
L 809.286978 169.614766 
L 813.67515 182.463808 
L 818.063323 184.176767 
L 822.451495 192.779792 
L 826.839667 171.151975 
L 831.22784 174.737179 
L 835.616012 175.998539 
L 840.004185 164.137098 
L 844.392357 182.530793 
L 848.780529 180.013024 
L 853.168702 196.685847 
L 857.556874 185.251489 
L 861.945046 185.183072 
L 866.333219 183.104403 
L 870.721391 177.02072 
L 875.109564 180.71981 
L 879.497736 166.477622 
L 883.885908 174.4272 
L 888.274081 180.017113 
L 892.662253 180.178087 
L 897.050426 170.362193 
L 901.438598 187.188035 
" clip-path="url(#pa72b86734f)" style="fill: none; stroke: #0000ff; stroke-width: 1.5; stroke-linecap: square"/>
   </g>
   <g id="patch_17">
    <path d="M 666.451967 306.812625 
L 666.451967 29.612625 
" style="fill: none; stroke: #000000; stroke-width: 0.8; stroke-linejoin: miter; stroke-linecap: square"/>
   </g>
   <g id="patch_18">
    <path d="M 912.628438 306.812625 
L 912.628438 29.612625 
" style="fill: none; stroke: #000000; stroke-width: 0.8; stroke-linejoin: miter; stroke-linecap: square"/>
   </g>
   <g id="patch_19">
    <path d="M 666.451967 306.812625 
L 912.628438 306.812625 
" style="fill: none; stroke: #000000; stroke-width: 0.8; stroke-linejoin: miter; stroke-linecap: square"/>
   </g>
   <g id="patch_20">
    <path d="M 666.451967 29.612625 
L 912.628438 29.612625 
" style="fill: none; stroke: #000000; stroke-width: 0.8; stroke-linejoin: miter; stroke-linecap: square"/>
   </g>
  </g>
 </g>
 <defs>
  <clipPath id="p3a4c06dc3c">
   <rect x="75.628438" y="29.612625" width="246.176471" height="277.2"/>
  </clipPath>
  <clipPath id="p4abd0c10b8">
   <rect x="371.040202" y="29.612625" width="246.176471" height="277.2"/>
  </clipPath>
  <clipPath id="pa72b86734f">
   <rect x="666.451967" y="29.612625" width="246.176471" height="277.2"/>
  </clipPath>
 </defs>
</svg>
