<?xml version="1.0" encoding="utf-8" standalone="no"?>
<!DOCTYPE svg PUBLIC "-//W3C//DTD SVG 1.1//EN"
  "http://www.w3.org/Graphics/SVG/1.1/DTD/svg11.dtd">
<svg xmlns:xlink="http://www.w3.org/1999/xlink" width="959.771875pt" height="359.853875pt" viewBox="0 0 959.771875 359.853875" xmlns="http://www.w3.org/2000/svg" version="1.1">
 <metadata>
  <rdf:RDF xmlns:dc="http://purl.org/dc/elements/1.1/" xmlns:cc="http://creativecommons.org/ns#" xmlns:rdf="http://www.w3.org/1999/02/22-rdf-syntax-ns#">
   <cc:Work>
    <dc:type rdf:resource="http://purl.org/dc/dcmitype/StillImage"/>
    <dc:date>2023-09-26T15:50:51.360732</dc:date>
    <dc:format>image/svg+xml</dc:format>
    <dc:creator>
     <cc:Agent>
      <dc:title>Matplotlib v3.7.1, https://matplotlib.org/</dc:title>
     </cc:Agent>
    </dc:creator>
   </cc:Work>
  </rdf:RDF>
 </metadata>
 <defs>
  <style type="text/css">*{stroke-linejoin: round; stroke-linecap: butt}</style>
 </defs>
 <g id="figure_1">
  <g id="patch_1">
   <path d="M 0 359.853875 
L 959.771875 359.853875 
L 959.771875 0 
L 0 0 
z
" style="fill: #ffffff"/>
  </g>
  <g id="axes_1">
   <g id="patch_2">
    <path d="M 47.073125 306.812625 
L 293.249596 306.812625 
L 293.249596 29.612625 
L 47.073125 29.612625 
z
" style="fill: #ffffff"/>
   </g>
   <g id="PolyCollection_1">
    <defs>
     <path id="mae681c5516" d="M 58.262965 -232.13092 
L 58.262965 -81.881004 
L 62.651137 -87.216113 
L 67.039309 -90.618324 
L 71.427482 -88.72358 
L 75.815654 -71.699741 
L 80.203826 -77.411481 
L 84.591999 -76.555502 
L 88.980171 -78.985812 
L 93.368344 -78.384029 
L 97.756516 -97.921637 
L 102.144688 -99.577972 
L 106.532861 -101.113598 
L 110.921033 -78.080302 
L 115.309206 -58.071955 
L 119.697378 -79.330134 
L 124.08555 -83.464228 
L 128.473723 -70.098417 
L 132.861895 -90.801525 
L 137.250067 -100.906712 
L 141.63824 -79.829889 
L 146.026412 -78.274568 
L 150.414585 -88.052554 
L 154.802757 -79.530349 
L 159.190929 -72.156136 
L 163.579102 -81.399217 
L 167.967274 -83.425308 
L 172.355446 -86.956244 
L 176.743619 -88.760436 
L 181.131791 -78.979635 
L 185.519964 -83.537932 
L 189.908136 -75.436577 
L 194.296308 -80.20287 
L 198.684481 -82.521549 
L 203.072653 -88.365563 
L 207.460826 -85.54191 
L 211.848998 -72.989445 
L 216.23717 -76.784793 
L 220.625343 -91.760307 
L 225.013515 -79.302055 
L 229.401687 -73.381858 
L 233.78986 -60.919311 
L 238.178032 -70.369357 
L 242.566205 -86.486836 
L 246.954377 -92.992717 
L 251.342549 -96.742089 
L 255.730722 -79.208345 
L 260.118894 -93.794578 
L 264.507066 -89.310259 
L 268.895239 -95.417625 
L 273.283411 -84.258033 
L 277.671584 -90.518362 
L 282.059756 -78.458297 
L 282.059756 -249.244852 
L 282.059756 -249.244852 
L 277.671584 -233.927152 
L 273.283411 -218.598471 
L 268.895239 -215.187346 
L 264.507066 -232.949415 
L 260.118894 -235.842516 
L 255.730722 -216.61832 
L 251.342549 -229.605322 
L 246.954377 -234.893875 
L 242.566205 -256.701994 
L 238.178032 -229.91351 
L 233.78986 -234.781964 
L 229.401687 -229.870007 
L 225.013515 -224.495419 
L 220.625343 -235.277721 
L 216.23717 -213.726372 
L 211.848998 -236.034439 
L 207.460826 -257.382805 
L 203.072653 -225.236944 
L 198.684481 -209.091361 
L 194.296308 -211.219566 
L 189.908136 -224.208497 
L 185.519964 -246.225971 
L 181.131791 -232.00248 
L 176.743619 -223.311651 
L 172.355446 -223.721024 
L 167.967274 -221.905132 
L 163.579102 -244.30564 
L 159.190929 -257.768009 
L 154.802757 -263.456535 
L 150.414585 -225.927806 
L 146.026412 -248.411938 
L 141.63824 -254.196386 
L 137.250067 -236.086663 
L 132.861895 -257.456565 
L 128.473723 -239.562537 
L 124.08555 -237.358515 
L 119.697378 -239.160363 
L 115.309206 -225.790841 
L 110.921033 -218.404465 
L 106.532861 -248.844333 
L 102.144688 -255.07421 
L 97.756516 -230.841319 
L 93.368344 -220.61386 
L 88.980171 -203.573337 
L 84.591999 -238.336375 
L 80.203826 -221.434509 
L 75.815654 -244.251813 
L 71.427482 -244.169101 
L 67.039309 -232.239993 
L 62.651137 -240.319026 
L 58.262965 -232.13092 
z
" style="stroke: #ff0000; stroke-opacity: 0.2"/>
    </defs>
    <g clip-path="url(#pf333b8ba35)">
     <use xlink:href="#mae681c5516" x="0" y="359.853875" style="fill: #ff0000; fill-opacity: 0.2; stroke: #ff0000; stroke-opacity: 0.2"/>
    </g>
   </g>
   <g id="matplotlib.axis_1">
    <g id="xtick_1">
     <g id="line2d_1">
      <defs>
       <path id="m581ef82fea" d="M 0 0 
L 0 3.5 
" style="stroke: #000000; stroke-width: 0.8"/>
      </defs>
      <g>
       <use xlink:href="#m581ef82fea" x="53.874792" y="306.812625" style="stroke: #000000; stroke-width: 0.8"/>
      </g>
     </g>
     <g id="text_1">
      <!-- 0 -->
      <g transform="translate(48.148542 327.489813) scale(0.18 -0.18)">
       <defs>
        <path id="DejaVuSans-30" d="M 2034 4250 
Q 1547 4250 1301 3770 
Q 1056 3291 1056 2328 
Q 1056 1369 1301 889 
Q 1547 409 2034 409 
Q 2525 409 2770 889 
Q 3016 1369 3016 2328 
Q 3016 3291 2770 3770 
Q 2525 4250 2034 4250 
z
M 2034 4750 
Q 2819 4750 3233 4129 
Q 3647 3509 3647 2328 
Q 3647 1150 3233 529 
Q 2819 -91 2034 -91 
Q 1250 -91 836 529 
Q 422 1150 422 2328 
Q 422 3509 836 4129 
Q 1250 4750 2034 4750 
z
" transform="scale(0.015625)"/>
       </defs>
       <use xlink:href="#DejaVuSans-30"/>
      </g>
     </g>
    </g>
    <g id="xtick_2">
     <g id="line2d_2">
      <g>
       <use xlink:href="#m581ef82fea" x="141.63824" y="306.812625" style="stroke: #000000; stroke-width: 0.8"/>
      </g>
     </g>
     <g id="text_2">
      <!-- 20 -->
      <g transform="translate(130.18574 327.489813) scale(0.18 -0.18)">
       <defs>
        <path id="DejaVuSans-32" d="M 1228 531 
L 3431 531 
L 3431 0 
L 469 0 
L 469 531 
Q 828 903 1448 1529 
Q 2069 2156 2228 2338 
Q 2531 2678 2651 2914 
Q 2772 3150 2772 3378 
Q 2772 3750 2511 3984 
Q 2250 4219 1831 4219 
Q 1534 4219 1204 4116 
Q 875 4013 500 3803 
L 500 4441 
Q 881 4594 1212 4672 
Q 1544 4750 1819 4750 
Q 2544 4750 2975 4387 
Q 3406 4025 3406 3419 
Q 3406 3131 3298 2873 
Q 3191 2616 2906 2266 
Q 2828 2175 2409 1742 
Q 1991 1309 1228 531 
z
" transform="scale(0.015625)"/>
       </defs>
       <use xlink:href="#DejaVuSans-32"/>
       <use xlink:href="#DejaVuSans-30" x="63.623047"/>
      </g>
     </g>
    </g>
    <g id="xtick_3">
     <g id="line2d_3">
      <g>
       <use xlink:href="#m581ef82fea" x="229.401687" y="306.812625" style="stroke: #000000; stroke-width: 0.8"/>
      </g>
     </g>
     <g id="text_3">
      <!-- 40 -->
      <g transform="translate(217.949187 327.489813) scale(0.18 -0.18)">
       <defs>
        <path id="DejaVuSans-34" d="M 2419 4116 
L 825 1625 
L 2419 1625 
L 2419 4116 
z
M 2253 4666 
L 3047 4666 
L 3047 1625 
L 3713 1625 
L 3713 1100 
L 3047 1100 
L 3047 0 
L 2419 0 
L 2419 1100 
L 313 1100 
L 313 1709 
L 2253 4666 
z
" transform="scale(0.015625)"/>
       </defs>
       <use xlink:href="#DejaVuSans-34"/>
       <use xlink:href="#DejaVuSans-30" x="63.623047"/>
      </g>
     </g>
    </g>
    <g id="text_4">
     <!-- Week number -->
     <g transform="translate(107.518548 348.910438) scale(0.18 -0.18)">
      <defs>
       <path id="DejaVuSans-57" d="M 213 4666 
L 850 4666 
L 1831 722 
L 2809 4666 
L 3519 4666 
L 4500 722 
L 5478 4666 
L 6119 4666 
L 4947 0 
L 4153 0 
L 3169 4050 
L 2175 0 
L 1381 0 
L 213 4666 
z
" transform="scale(0.015625)"/>
       <path id="DejaVuSans-65" d="M 3597 1894 
L 3597 1613 
L 953 1613 
Q 991 1019 1311 708 
Q 1631 397 2203 397 
Q 2534 397 2845 478 
Q 3156 559 3463 722 
L 3463 178 
Q 3153 47 2828 -22 
Q 2503 -91 2169 -91 
Q 1331 -91 842 396 
Q 353 884 353 1716 
Q 353 2575 817 3079 
Q 1281 3584 2069 3584 
Q 2775 3584 3186 3129 
Q 3597 2675 3597 1894 
z
M 3022 2063 
Q 3016 2534 2758 2815 
Q 2500 3097 2075 3097 
Q 1594 3097 1305 2825 
Q 1016 2553 972 2059 
L 3022 2063 
z
" transform="scale(0.015625)"/>
       <path id="DejaVuSans-6b" d="M 581 4863 
L 1159 4863 
L 1159 1991 
L 2875 3500 
L 3609 3500 
L 1753 1863 
L 3688 0 
L 2938 0 
L 1159 1709 
L 1159 0 
L 581 0 
L 581 4863 
z
" transform="scale(0.015625)"/>
       <path id="DejaVuSans-20" transform="scale(0.015625)"/>
       <path id="DejaVuSans-6e" d="M 3513 2113 
L 3513 0 
L 2938 0 
L 2938 2094 
Q 2938 2591 2744 2837 
Q 2550 3084 2163 3084 
Q 1697 3084 1428 2787 
Q 1159 2491 1159 1978 
L 1159 0 
L 581 0 
L 581 3500 
L 1159 3500 
L 1159 2956 
Q 1366 3272 1645 3428 
Q 1925 3584 2291 3584 
Q 2894 3584 3203 3211 
Q 3513 2838 3513 2113 
z
" transform="scale(0.015625)"/>
       <path id="DejaVuSans-75" d="M 544 1381 
L 544 3500 
L 1119 3500 
L 1119 1403 
Q 1119 906 1312 657 
Q 1506 409 1894 409 
Q 2359 409 2629 706 
Q 2900 1003 2900 1516 
L 2900 3500 
L 3475 3500 
L 3475 0 
L 2900 0 
L 2900 538 
Q 2691 219 2414 64 
Q 2138 -91 1772 -91 
Q 1169 -91 856 284 
Q 544 659 544 1381 
z
M 1991 3584 
L 1991 3584 
z
" transform="scale(0.015625)"/>
       <path id="DejaVuSans-6d" d="M 3328 2828 
Q 3544 3216 3844 3400 
Q 4144 3584 4550 3584 
Q 5097 3584 5394 3201 
Q 5691 2819 5691 2113 
L 5691 0 
L 5113 0 
L 5113 2094 
Q 5113 2597 4934 2840 
Q 4756 3084 4391 3084 
Q 3944 3084 3684 2787 
Q 3425 2491 3425 1978 
L 3425 0 
L 2847 0 
L 2847 2094 
Q 2847 2600 2669 2842 
Q 2491 3084 2119 3084 
Q 1678 3084 1418 2786 
Q 1159 2488 1159 1978 
L 1159 0 
L 581 0 
L 581 3500 
L 1159 3500 
L 1159 2956 
Q 1356 3278 1631 3431 
Q 1906 3584 2284 3584 
Q 2666 3584 2933 3390 
Q 3200 3197 3328 2828 
z
" transform="scale(0.015625)"/>
       <path id="DejaVuSans-62" d="M 3116 1747 
Q 3116 2381 2855 2742 
Q 2594 3103 2138 3103 
Q 1681 3103 1420 2742 
Q 1159 2381 1159 1747 
Q 1159 1113 1420 752 
Q 1681 391 2138 391 
Q 2594 391 2855 752 
Q 3116 1113 3116 1747 
z
M 1159 2969 
Q 1341 3281 1617 3432 
Q 1894 3584 2278 3584 
Q 2916 3584 3314 3078 
Q 3713 2572 3713 1747 
Q 3713 922 3314 415 
Q 2916 -91 2278 -91 
Q 1894 -91 1617 61 
Q 1341 213 1159 525 
L 1159 0 
L 581 0 
L 581 4863 
L 1159 4863 
L 1159 2969 
z
" transform="scale(0.015625)"/>
       <path id="DejaVuSans-72" d="M 2631 2963 
Q 2534 3019 2420 3045 
Q 2306 3072 2169 3072 
Q 1681 3072 1420 2755 
Q 1159 2438 1159 1844 
L 1159 0 
L 581 0 
L 581 3500 
L 1159 3500 
L 1159 2956 
Q 1341 3275 1631 3429 
Q 1922 3584 2338 3584 
Q 2397 3584 2469 3576 
Q 2541 3569 2628 3553 
L 2631 2963 
z
" transform="scale(0.015625)"/>
      </defs>
      <use xlink:href="#DejaVuSans-57"/>
      <use xlink:href="#DejaVuSans-65" x="93.001953"/>
      <use xlink:href="#DejaVuSans-65" x="154.525391"/>
      <use xlink:href="#DejaVuSans-6b" x="216.048828"/>
      <use xlink:href="#DejaVuSans-20" x="273.958984"/>
      <use xlink:href="#DejaVuSans-6e" x="305.746094"/>
      <use xlink:href="#DejaVuSans-75" x="369.125"/>
      <use xlink:href="#DejaVuSans-6d" x="432.503906"/>
      <use xlink:href="#DejaVuSans-62" x="529.916016"/>
      <use xlink:href="#DejaVuSans-65" x="593.392578"/>
      <use xlink:href="#DejaVuSans-72" x="654.916016"/>
     </g>
    </g>
   </g>
   <g id="matplotlib.axis_2">
    <g id="ytick_1">
     <g id="line2d_4">
      <defs>
       <path id="m9c3e45df8a" d="M 0 0 
L -3.5 0 
" style="stroke: #000000; stroke-width: 0.8"/>
      </defs>
      <g>
       <use xlink:href="#m9c3e45df8a" x="47.073125" y="306.812625" style="stroke: #000000; stroke-width: 0.8"/>
      </g>
     </g>
     <g id="text_5">
      <!-- 1 -->
      <g transform="translate(28.620625 313.651219) scale(0.18 -0.18)">
       <defs>
        <path id="DejaVuSans-31" d="M 794 531 
L 1825 531 
L 1825 4091 
L 703 3866 
L 703 4441 
L 1819 4666 
L 2450 4666 
L 2450 531 
L 3481 531 
L 3481 0 
L 794 0 
L 794 531 
z
" transform="scale(0.015625)"/>
       </defs>
       <use xlink:href="#DejaVuSans-31"/>
      </g>
     </g>
    </g>
    <g id="ytick_2">
     <g id="line2d_5">
      <g>
       <use xlink:href="#m9c3e45df8a" x="47.073125" y="251.372625" style="stroke: #000000; stroke-width: 0.8"/>
      </g>
     </g>
     <g id="text_6">
      <!-- 2 -->
      <g transform="translate(28.620625 258.211219) scale(0.18 -0.18)">
       <use xlink:href="#DejaVuSans-32"/>
      </g>
     </g>
    </g>
    <g id="ytick_3">
     <g id="line2d_6">
      <g>
       <use xlink:href="#m9c3e45df8a" x="47.073125" y="195.932625" style="stroke: #000000; stroke-width: 0.8"/>
      </g>
     </g>
     <g id="text_7">
      <!-- 3 -->
      <g transform="translate(28.620625 202.771219) scale(0.18 -0.18)">
       <defs>
        <path id="DejaVuSans-33" d="M 2597 2516 
Q 3050 2419 3304 2112 
Q 3559 1806 3559 1356 
Q 3559 666 3084 287 
Q 2609 -91 1734 -91 
Q 1441 -91 1130 -33 
Q 819 25 488 141 
L 488 750 
Q 750 597 1062 519 
Q 1375 441 1716 441 
Q 2309 441 2620 675 
Q 2931 909 2931 1356 
Q 2931 1769 2642 2001 
Q 2353 2234 1838 2234 
L 1294 2234 
L 1294 2753 
L 1863 2753 
Q 2328 2753 2575 2939 
Q 2822 3125 2822 3475 
Q 2822 3834 2567 4026 
Q 2313 4219 1838 4219 
Q 1578 4219 1281 4162 
Q 984 4106 628 3988 
L 628 4550 
Q 988 4650 1302 4700 
Q 1616 4750 1894 4750 
Q 2613 4750 3031 4423 
Q 3450 4097 3450 3541 
Q 3450 3153 3228 2886 
Q 3006 2619 2597 2516 
z
" transform="scale(0.015625)"/>
       </defs>
       <use xlink:href="#DejaVuSans-33"/>
      </g>
     </g>
    </g>
    <g id="ytick_4">
     <g id="line2d_7">
      <g>
       <use xlink:href="#m9c3e45df8a" x="47.073125" y="140.492625" style="stroke: #000000; stroke-width: 0.8"/>
      </g>
     </g>
     <g id="text_8">
      <!-- 4 -->
      <g transform="translate(28.620625 147.331219) scale(0.18 -0.18)">
       <use xlink:href="#DejaVuSans-34"/>
      </g>
     </g>
    </g>
    <g id="ytick_5">
     <g id="line2d_8">
      <g>
       <use xlink:href="#m9c3e45df8a" x="47.073125" y="85.052625" style="stroke: #000000; stroke-width: 0.8"/>
      </g>
     </g>
     <g id="text_9">
      <!-- 5 -->
      <g transform="translate(28.620625 91.891219) scale(0.18 -0.18)">
       <defs>
        <path id="DejaVuSans-35" d="M 691 4666 
L 3169 4666 
L 3169 4134 
L 1269 4134 
L 1269 2991 
Q 1406 3038 1543 3061 
Q 1681 3084 1819 3084 
Q 2600 3084 3056 2656 
Q 3513 2228 3513 1497 
Q 3513 744 3044 326 
Q 2575 -91 1722 -91 
Q 1428 -91 1123 -41 
Q 819 9 494 109 
L 494 744 
Q 775 591 1075 516 
Q 1375 441 1709 441 
Q 2250 441 2565 725 
Q 2881 1009 2881 1497 
Q 2881 1984 2565 2268 
Q 2250 2553 1709 2553 
Q 1456 2553 1204 2497 
Q 953 2441 691 2322 
L 691 4666 
z
" transform="scale(0.015625)"/>
       </defs>
       <use xlink:href="#DejaVuSans-35"/>
      </g>
     </g>
    </g>
    <g id="ytick_6">
     <g id="line2d_9">
      <g>
       <use xlink:href="#m9c3e45df8a" x="47.073125" y="29.612625" style="stroke: #000000; stroke-width: 0.8"/>
      </g>
     </g>
     <g id="text_10">
      <!-- 6 -->
      <g transform="translate(28.620625 36.451219) scale(0.18 -0.18)">
       <defs>
        <path id="DejaVuSans-36" d="M 2113 2584 
Q 1688 2584 1439 2293 
Q 1191 2003 1191 1497 
Q 1191 994 1439 701 
Q 1688 409 2113 409 
Q 2538 409 2786 701 
Q 3034 994 3034 1497 
Q 3034 2003 2786 2293 
Q 2538 2584 2113 2584 
z
M 3366 4563 
L 3366 3988 
Q 3128 4100 2886 4159 
Q 2644 4219 2406 4219 
Q 1781 4219 1451 3797 
Q 1122 3375 1075 2522 
Q 1259 2794 1537 2939 
Q 1816 3084 2150 3084 
Q 2853 3084 3261 2657 
Q 3669 2231 3669 1497 
Q 3669 778 3244 343 
Q 2819 -91 2113 -91 
Q 1303 -91 875 529 
Q 447 1150 447 2328 
Q 447 3434 972 4092 
Q 1497 4750 2381 4750 
Q 2619 4750 2861 4703 
Q 3103 4656 3366 4563 
z
" transform="scale(0.015625)"/>
       </defs>
       <use xlink:href="#DejaVuSans-36"/>
      </g>
     </g>
    </g>
    <g id="text_11">
     <!-- Maxmin -->
     <g style="fill: #ff0000" transform="translate(20.877188 203.79075) rotate(-90) scale(0.18 -0.18)">
      <defs>
       <path id="DejaVuSans-4d" d="M 628 4666 
L 1569 4666 
L 2759 1491 
L 3956 4666 
L 4897 4666 
L 4897 0 
L 4281 0 
L 4281 4097 
L 3078 897 
L 2444 897 
L 1241 4097 
L 1241 0 
L 628 0 
L 628 4666 
z
" transform="scale(0.015625)"/>
       <path id="DejaVuSans-61" d="M 2194 1759 
Q 1497 1759 1228 1600 
Q 959 1441 959 1056 
Q 959 750 1161 570 
Q 1363 391 1709 391 
Q 2188 391 2477 730 
Q 2766 1069 2766 1631 
L 2766 1759 
L 2194 1759 
z
M 3341 1997 
L 3341 0 
L 2766 0 
L 2766 531 
Q 2569 213 2275 61 
Q 1981 -91 1556 -91 
Q 1019 -91 701 211 
Q 384 513 384 1019 
Q 384 1609 779 1909 
Q 1175 2209 1959 2209 
L 2766 2209 
L 2766 2266 
Q 2766 2663 2505 2880 
Q 2244 3097 1772 3097 
Q 1472 3097 1187 3025 
Q 903 2953 641 2809 
L 641 3341 
Q 956 3463 1253 3523 
Q 1550 3584 1831 3584 
Q 2591 3584 2966 3190 
Q 3341 2797 3341 1997 
z
" transform="scale(0.015625)"/>
       <path id="DejaVuSans-78" d="M 3513 3500 
L 2247 1797 
L 3578 0 
L 2900 0 
L 1881 1375 
L 863 0 
L 184 0 
L 1544 1831 
L 300 3500 
L 978 3500 
L 1906 2253 
L 2834 3500 
L 3513 3500 
z
" transform="scale(0.015625)"/>
       <path id="DejaVuSans-69" d="M 603 3500 
L 1178 3500 
L 1178 0 
L 603 0 
L 603 3500 
z
M 603 4863 
L 1178 4863 
L 1178 4134 
L 603 4134 
L 603 4863 
z
" transform="scale(0.015625)"/>
      </defs>
      <use xlink:href="#DejaVuSans-4d"/>
      <use xlink:href="#DejaVuSans-61" x="86.279297"/>
      <use xlink:href="#DejaVuSans-78" x="147.558594"/>
      <use xlink:href="#DejaVuSans-6d" x="206.738281"/>
      <use xlink:href="#DejaVuSans-69" x="304.150391"/>
      <use xlink:href="#DejaVuSans-6e" x="331.933594"/>
     </g>
    </g>
   </g>
   <g id="line2d_10">
    <path d="M 58.262965 202.847913 
L 62.651137 196.086306 
L 67.039309 198.424716 
L 71.427482 193.407534 
L 75.815654 201.878098 
L 80.203826 210.43088 
L 84.591999 202.407936 
L 88.980171 218.5743 
L 93.368344 210.354931 
L 97.756516 195.472397 
L 102.144688 182.527784 
L 106.532861 184.874909 
L 110.921033 211.611492 
L 115.309206 217.922477 
L 119.697378 200.608627 
L 124.08555 199.442503 
L 128.473723 205.023398 
L 132.861895 185.72483 
L 137.250067 191.357188 
L 141.63824 192.840737 
L 146.026412 196.510622 
L 150.414585 202.863695 
L 154.802757 188.360433 
L 159.190929 194.891803 
L 163.579102 197.001446 
L 167.967274 207.188655 
L 172.355446 204.515241 
L 176.743619 203.817832 
L 181.131791 204.362818 
L 185.519964 194.971923 
L 189.908136 210.031338 
L 194.296308 214.142657 
L 198.684481 214.04742 
L 203.072653 203.052622 
L 207.460826 188.391518 
L 211.848998 205.341933 
L 216.23717 214.598293 
L 220.625343 196.334861 
L 225.013515 207.955138 
L 229.401687 208.227942 
L 233.78986 212.003238 
L 238.178032 209.712441 
L 242.566205 188.25946 
L 246.954377 195.910579 
L 251.342549 196.68017 
L 255.730722 211.940543 
L 260.118894 195.035328 
L 264.507066 198.724038 
L 268.895239 204.551389 
L 273.283411 208.425623 
L 277.671584 197.631118 
L 282.059756 196.002301 
" clip-path="url(#pf333b8ba35)" style="fill: none; stroke: #ff0000; stroke-width: 1.5; stroke-linecap: square"/>
   </g>
   <g id="patch_3">
    <path d="M 47.073125 306.812625 
L 47.073125 29.612625 
" style="fill: none; stroke: #000000; stroke-width: 0.8; stroke-linejoin: miter; stroke-linecap: square"/>
   </g>
   <g id="patch_4">
    <path d="M 293.249596 306.812625 
L 293.249596 29.612625 
" style="fill: none; stroke: #000000; stroke-width: 0.8; stroke-linejoin: miter; stroke-linecap: square"/>
   </g>
   <g id="patch_5">
    <path d="M 47.073125 306.812625 
L 293.249596 306.812625 
" style="fill: none; stroke: #000000; stroke-width: 0.8; stroke-linejoin: miter; stroke-linecap: square"/>
   </g>
   <g id="patch_6">
    <path d="M 47.073125 29.612625 
L 293.249596 29.612625 
" style="fill: none; stroke: #000000; stroke-width: 0.8; stroke-linejoin: miter; stroke-linecap: square"/>
   </g>
   <g id="text_12">
    <!-- Naive -->
    <g transform="translate(139.425235 23.612625) scale(0.216 -0.216)">
     <defs>
      <path id="DejaVuSans-4e" d="M 628 4666 
L 1478 4666 
L 3547 763 
L 3547 4666 
L 4159 4666 
L 4159 0 
L 3309 0 
L 1241 3903 
L 1241 0 
L 628 0 
L 628 4666 
z
" transform="scale(0.015625)"/>
      <path id="DejaVuSans-76" d="M 191 3500 
L 800 3500 
L 1894 563 
L 2988 3500 
L 3597 3500 
L 2284 0 
L 1503 0 
L 191 3500 
z
" transform="scale(0.015625)"/>
     </defs>
     <use xlink:href="#DejaVuSans-4e"/>
     <use xlink:href="#DejaVuSans-61" x="74.804688"/>
     <use xlink:href="#DejaVuSans-69" x="136.083984"/>
     <use xlink:href="#DejaVuSans-76" x="163.867188"/>
     <use xlink:href="#DejaVuSans-65" x="223.046875"/>
    </g>
   </g>
  </g>
  <g id="axes_2">
   <g id="patch_7">
    <path d="M 342.48489 306.812625 
L 588.66136 306.812625 
L 588.66136 29.612625 
L 342.48489 29.612625 
z
" style="fill: #ffffff"/>
   </g>
   <g id="PolyCollection_2">
    <defs>
     <path id="me6af82486b" d="M 353.674729 -248.522667 
L 353.674729 -92.465253 
L 358.062902 -101.362172 
L 362.451074 -101.76381 
L 366.839246 -89.602097 
L 371.227419 -78.017341 
L 375.615591 -91.799782 
L 380.003764 -90.051218 
L 384.391936 -88.917108 
L 388.780108 -95.910522 
L 393.168281 -101.875364 
L 397.556453 -94.289664 
L 401.944625 -108.354557 
L 406.332798 -78.401381 
L 410.72097 -61.475961 
L 415.109143 -76.706509 
L 419.497315 -80.58697 
L 423.885487 -91.42514 
L 428.27366 -90.193096 
L 432.661832 -93.480527 
L 437.050005 -84.643177 
L 441.438177 -85.4477 
L 445.826349 -94.307086 
L 450.214522 -86.751263 
L 454.602694 -96.712356 
L 458.990866 -91.516688 
L 463.379039 -92.461559 
L 467.767211 -101.220017 
L 472.155384 -100.614347 
L 476.543556 -100.020748 
L 480.931728 -94.901294 
L 485.319901 -94.85131 
L 489.708073 -87.845001 
L 494.096245 -102.135683 
L 498.484418 -90.321492 
L 502.87259 -98.035315 
L 507.260763 -80.393381 
L 511.648935 -90.583634 
L 516.037107 -98.886993 
L 520.42528 -95.410635 
L 524.813452 -64.828676 
L 529.201625 -75.007848 
L 533.589797 -88.378115 
L 537.977969 -97.456408 
L 542.366142 -104.77464 
L 546.754314 -108.306869 
L 551.142486 -81.778907 
L 555.530659 -119.10244 
L 559.918831 -96.71755 
L 564.307004 -106.610151 
L 568.695176 -91.18398 
L 573.083348 -104.978998 
L 577.471521 -92.914352 
L 577.471521 -290.388361 
L 577.471521 -290.388361 
L 573.083348 -269.626383 
L 568.695176 -256.53846 
L 564.307004 -249.829609 
L 559.918831 -257.030254 
L 555.530659 -248.782937 
L 551.142486 -226.086669 
L 546.754314 -236.942661 
L 542.366142 -258.100089 
L 537.977969 -274.260169 
L 533.589797 -250.264141 
L 529.201625 -264.348569 
L 524.813452 -260.760938 
L 520.42528 -224.045115 
L 516.037107 -244.564826 
L 511.648935 -235.043696 
L 507.260763 -254.213387 
L 502.87259 -273.970889 
L 498.484418 -247.148633 
L 494.096245 -246.886596 
L 489.708073 -237.141632 
L 485.319901 -246.305789 
L 480.931728 -276.751448 
L 476.543556 -259.00761 
L 472.155384 -245.58848 
L 467.767211 -250.507744 
L 463.379039 -257.117311 
L 458.990866 -279.899132 
L 454.602694 -270.305246 
L 450.214522 -287.201446 
L 445.826349 -250.973167 
L 441.438177 -284.94489 
L 437.050005 -288.038703 
L 432.661832 -271.587959 
L 428.27366 -279.513746 
L 423.885487 -261.109841 
L 419.497315 -258.493938 
L 415.109143 -259.841938 
L 410.72097 -251.566518 
L 406.332798 -249.170756 
L 401.944625 -262.31781 
L 397.556453 -285.658 
L 393.168281 -245.728735 
L 388.780108 -233.937895 
L 384.391936 -233.979704 
L 380.003764 -262.69354 
L 375.615591 -233.145476 
L 371.227419 -265.742008 
L 366.839246 -273.191233 
L 362.451074 -250.247214 
L 358.062902 -266.35439 
L 353.674729 -248.522667 
z
" style="stroke: #ff0000; stroke-opacity: 0.2"/>
    </defs>
    <g clip-path="url(#pdd03b0d3f6)">
     <use xlink:href="#me6af82486b" x="0" y="359.853875" style="fill: #ff0000; fill-opacity: 0.2; stroke: #ff0000; stroke-opacity: 0.2"/>
    </g>
   </g>
   <g id="matplotlib.axis_3">
    <g id="xtick_4">
     <g id="line2d_11">
      <g>
       <use xlink:href="#m581ef82fea" x="349.286557" y="306.812625" style="stroke: #000000; stroke-width: 0.8"/>
      </g>
     </g>
     <g id="text_13">
      <!-- 0 -->
      <g transform="translate(343.560307 327.489813) scale(0.18 -0.18)">
       <use xlink:href="#DejaVuSans-30"/>
      </g>
     </g>
    </g>
    <g id="xtick_5">
     <g id="line2d_12">
      <g>
       <use xlink:href="#m581ef82fea" x="437.050005" y="306.812625" style="stroke: #000000; stroke-width: 0.8"/>
      </g>
     </g>
     <g id="text_14">
      <!-- 20 -->
      <g transform="translate(425.597505 327.489813) scale(0.18 -0.18)">
       <use xlink:href="#DejaVuSans-32"/>
       <use xlink:href="#DejaVuSans-30" x="63.623047"/>
      </g>
     </g>
    </g>
    <g id="xtick_6">
     <g id="line2d_13">
      <g>
       <use xlink:href="#m581ef82fea" x="524.813452" y="306.812625" style="stroke: #000000; stroke-width: 0.8"/>
      </g>
     </g>
     <g id="text_15">
      <!-- 40 -->
      <g transform="translate(513.360952 327.489813) scale(0.18 -0.18)">
       <use xlink:href="#DejaVuSans-34"/>
       <use xlink:href="#DejaVuSans-30" x="63.623047"/>
      </g>
     </g>
    </g>
    <g id="text_16">
     <!-- Week number -->
     <g transform="translate(402.930313 348.910438) scale(0.18 -0.18)">
      <use xlink:href="#DejaVuSans-57"/>
      <use xlink:href="#DejaVuSans-65" x="93.001953"/>
      <use xlink:href="#DejaVuSans-65" x="154.525391"/>
      <use xlink:href="#DejaVuSans-6b" x="216.048828"/>
      <use xlink:href="#DejaVuSans-20" x="273.958984"/>
      <use xlink:href="#DejaVuSans-6e" x="305.746094"/>
      <use xlink:href="#DejaVuSans-75" x="369.125"/>
      <use xlink:href="#DejaVuSans-6d" x="432.503906"/>
      <use xlink:href="#DejaVuSans-62" x="529.916016"/>
      <use xlink:href="#DejaVuSans-65" x="593.392578"/>
      <use xlink:href="#DejaVuSans-72" x="654.916016"/>
     </g>
    </g>
   </g>
   <g id="matplotlib.axis_4">
    <g id="ytick_7">
     <g id="line2d_14">
      <g>
       <use xlink:href="#m9c3e45df8a" x="342.48489" y="306.812625" style="stroke: #000000; stroke-width: 0.8"/>
      </g>
     </g>
    </g>
    <g id="ytick_8">
     <g id="line2d_15">
      <g>
       <use xlink:href="#m9c3e45df8a" x="342.48489" y="251.372625" style="stroke: #000000; stroke-width: 0.8"/>
      </g>
     </g>
    </g>
    <g id="ytick_9">
     <g id="line2d_16">
      <g>
       <use xlink:href="#m9c3e45df8a" x="342.48489" y="195.932625" style="stroke: #000000; stroke-width: 0.8"/>
      </g>
     </g>
    </g>
    <g id="ytick_10">
     <g id="line2d_17">
      <g>
       <use xlink:href="#m9c3e45df8a" x="342.48489" y="140.492625" style="stroke: #000000; stroke-width: 0.8"/>
      </g>
     </g>
    </g>
    <g id="ytick_11">
     <g id="line2d_18">
      <g>
       <use xlink:href="#m9c3e45df8a" x="342.48489" y="85.052625" style="stroke: #000000; stroke-width: 0.8"/>
      </g>
     </g>
    </g>
    <g id="ytick_12">
     <g id="line2d_19">
      <g>
       <use xlink:href="#m9c3e45df8a" x="342.48489" y="29.612625" style="stroke: #000000; stroke-width: 0.8"/>
      </g>
     </g>
    </g>
   </g>
   <g id="line2d_20">
    <path d="M 353.674729 189.359915 
L 358.062902 175.995594 
L 362.451074 183.848363 
L 366.839246 178.45721 
L 371.227419 187.974201 
L 375.615591 197.381246 
L 380.003764 183.481496 
L 384.391936 198.405469 
L 388.780108 194.929666 
L 393.168281 186.051826 
L 397.556453 169.880043 
L 401.944625 174.517691 
L 406.332798 196.067807 
L 410.72097 203.332636 
L 415.109143 191.579651 
L 419.497315 190.313421 
L 423.885487 183.586385 
L 428.27366 175.000454 
L 432.661832 177.319632 
L 437.050005 173.512935 
L 441.438177 174.65758 
L 445.826349 187.213749 
L 450.214522 172.877521 
L 454.602694 176.345074 
L 458.990866 174.145965 
L 463.379039 185.06444 
L 467.767211 183.989995 
L 472.155384 186.752461 
L 476.543556 180.339696 
L 480.931728 174.027504 
L 485.319901 189.275326 
L 489.708073 197.360559 
L 494.096245 185.342735 
L 498.484418 191.118812 
L 502.87259 173.850773 
L 507.260763 192.550491 
L 511.648935 197.04021 
L 516.037107 188.127966 
L 520.42528 200.126 
L 524.813452 197.059068 
L 529.201625 190.175667 
L 533.589797 190.532747 
L 537.977969 173.995587 
L 542.366142 178.416511 
L 546.754314 187.22911 
L 551.142486 205.921087 
L 555.530659 175.911186 
L 559.918831 182.979973 
L 564.307004 181.633995 
L 568.695176 185.992655 
L 573.083348 172.551185 
L 577.471521 168.202519 
" clip-path="url(#pdd03b0d3f6)" style="fill: none; stroke: #ff0000; stroke-width: 1.5; stroke-linecap: square"/>
   </g>
   <g id="patch_8">
    <path d="M 342.48489 306.812625 
L 342.48489 29.612625 
" style="fill: none; stroke: #000000; stroke-width: 0.8; stroke-linejoin: miter; stroke-linecap: square"/>
   </g>
   <g id="patch_9">
    <path d="M 588.66136 306.812625 
L 588.66136 29.612625 
" style="fill: none; stroke: #000000; stroke-width: 0.8; stroke-linejoin: miter; stroke-linecap: square"/>
   </g>
   <g id="patch_10">
    <path d="M 342.48489 306.812625 
L 588.66136 306.812625 
" style="fill: none; stroke: #000000; stroke-width: 0.8; stroke-linejoin: miter; stroke-linecap: square"/>
   </g>
   <g id="patch_11">
    <path d="M 342.48489 29.612625 
L 588.66136 29.612625 
" style="fill: none; stroke: #000000; stroke-width: 0.8; stroke-linejoin: miter; stroke-linecap: square"/>
   </g>
   <g id="text_17">
    <!-- KDE -->
    <g transform="translate(443.350437 23.612625) scale(0.216 -0.216)">
     <defs>
      <path id="DejaVuSans-4b" d="M 628 4666 
L 1259 4666 
L 1259 2694 
L 3353 4666 
L 4166 4666 
L 1850 2491 
L 4331 0 
L 3500 0 
L 1259 2247 
L 1259 0 
L 628 0 
L 628 4666 
z
" transform="scale(0.015625)"/>
      <path id="DejaVuSans-44" d="M 1259 4147 
L 1259 519 
L 2022 519 
Q 2988 519 3436 956 
Q 3884 1394 3884 2338 
Q 3884 3275 3436 3711 
Q 2988 4147 2022 4147 
L 1259 4147 
z
M 628 4666 
L 1925 4666 
Q 3281 4666 3915 4102 
Q 4550 3538 4550 2338 
Q 4550 1131 3912 565 
Q 3275 0 1925 0 
L 628 0 
L 628 4666 
z
" transform="scale(0.015625)"/>
      <path id="DejaVuSans-45" d="M 628 4666 
L 3578 4666 
L 3578 4134 
L 1259 4134 
L 1259 2753 
L 3481 2753 
L 3481 2222 
L 1259 2222 
L 1259 531 
L 3634 531 
L 3634 0 
L 628 0 
L 628 4666 
z
" transform="scale(0.015625)"/>
     </defs>
     <use xlink:href="#DejaVuSans-4b"/>
     <use xlink:href="#DejaVuSans-44" x="65.576172"/>
     <use xlink:href="#DejaVuSans-45" x="142.578125"/>
    </g>
   </g>
  </g>
  <g id="axes_3">
   <g id="patch_12">
    <path d="M 637.896654 306.812625 
L 884.073125 306.812625 
L 884.073125 29.612625 
L 637.896654 29.612625 
z
" style="fill: #ffffff"/>
   </g>
   <g id="PolyCollection_3">
    <defs>
     <path id="m7fed97c37d" d="M 649.086494 -310.575439 
L 649.086494 -68.299021 
L 653.474666 -78.836013 
L 657.862839 -90.341253 
L 662.251011 -86.564022 
L 666.639184 -72.6509 
L 671.027356 -88.143129 
L 675.415528 -75.585332 
L 679.803701 -85.259776 
L 684.191873 -73.910112 
L 688.580045 -83.475648 
L 692.968218 -91.675848 
L 697.35639 -100.305633 
L 701.744563 -80.445983 
L 706.132735 -44.867588 
L 710.520907 -80.225707 
L 714.90908 -81.163488 
L 719.297252 -70.144587 
L 723.685424 -84.371594 
L 728.073597 -79.354965 
L 732.461769 -86.176777 
L 736.849942 -89.6453 
L 741.238114 -91.064447 
L 745.626286 -80.228176 
L 750.014459 -68.247792 
L 754.402631 -72.715307 
L 758.790804 -68.331655 
L 763.178976 -92.349356 
L 767.567148 -94.160164 
L 771.955321 -60.921839 
L 776.343493 -82.012982 
L 780.731665 -49.579014 
L 785.119838 -82.692668 
L 789.50801 -81.037161 
L 793.896183 -102.751541 
L 798.284355 -94.239479 
L 802.672527 -75.731452 
L 807.0607 -72.535606 
L 811.448872 -77.818503 
L 815.837044 -62.562819 
L 820.225217 -81.7063 
L 824.613389 -73.399612 
L 829.001562 -67.654065 
L 833.389734 -87.390992 
L 837.777906 -102.139516 
L 842.166079 -89.531469 
L 846.554251 -93.032254 
L 850.942424 -96.319984 
L 855.330596 -83.726206 
L 859.718768 -92.953219 
L 864.106941 -86.336839 
L 868.495113 -90.832763 
L 872.883285 -75.815854 
L 872.883285 -278.791831 
L 872.883285 -278.791831 
L 868.495113 -292.272158 
L 864.106941 -252.811315 
L 859.718768 -238.022667 
L 855.330596 -268.652939 
L 850.942424 -253.831194 
L 846.554251 -247.386481 
L 842.166079 -266.540367 
L 837.777906 -272.409218 
L 833.389734 -269.743594 
L 829.001562 -288.957206 
L 824.613389 -258.193406 
L 820.225217 -266.146794 
L 815.837044 -266.509697 
L 811.448872 -303.436718 
L 807.0607 -256.630762 
L 802.672527 -247.433242 
L 798.284355 -294.536099 
L 793.896183 -266.378103 
L 789.50801 -253.972938 
L 785.119838 -261.293775 
L 780.731665 -292.221721 
L 776.343493 -261.953481 
L 771.955321 -290.573518 
L 767.567148 -248.837771 
L 763.178976 -250.060717 
L 758.790804 -263.286051 
L 754.402631 -282.742866 
L 750.014459 -288.526118 
L 745.626286 -292.706865 
L 741.238114 -247.02933 
L 736.849942 -260.987246 
L 732.461769 -285.241715 
L 728.073597 -306.649891 
L 723.685424 -294.487305 
L 719.297252 -275.120225 
L 714.90908 -258.94378 
L 710.520907 -288.034773 
L 706.132735 -298.933044 
L 701.744563 -251.789068 
L 697.35639 -270.144633 
L 692.968218 -290.15874 
L 688.580045 -274.637062 
L 684.191873 -258.154582 
L 679.803701 -222.200245 
L 675.415528 -279.378852 
L 671.027356 -255.080379 
L 666.639184 -289.807215 
L 662.251011 -290.92499 
L 657.862839 -271.574249 
L 653.474666 -279.304825 
L 649.086494 -310.575439 
z
" style="stroke: #ff0000; stroke-opacity: 0.2"/>
    </defs>
    <g clip-path="url(#p2c246b1436)">
     <use xlink:href="#m7fed97c37d" x="0" y="359.853875" style="fill: #ff0000; fill-opacity: 0.2; stroke: #ff0000; stroke-opacity: 0.2"/>
    </g>
   </g>
   <g id="matplotlib.axis_5">
    <g id="xtick_7">
     <g id="line2d_21">
      <g>
       <use xlink:href="#m581ef82fea" x="644.698322" y="306.812625" style="stroke: #000000; stroke-width: 0.8"/>
      </g>
     </g>
     <g id="text_18">
      <!-- 0 -->
      <g transform="translate(638.972072 327.489813) scale(0.18 -0.18)">
       <use xlink:href="#DejaVuSans-30"/>
      </g>
     </g>
    </g>
    <g id="xtick_8">
     <g id="line2d_22">
      <g>
       <use xlink:href="#m581ef82fea" x="732.461769" y="306.812625" style="stroke: #000000; stroke-width: 0.8"/>
      </g>
     </g>
     <g id="text_19">
      <!-- 20 -->
      <g transform="translate(721.009269 327.489813) scale(0.18 -0.18)">
       <use xlink:href="#DejaVuSans-32"/>
       <use xlink:href="#DejaVuSans-30" x="63.623047"/>
      </g>
     </g>
    </g>
    <g id="xtick_9">
     <g id="line2d_23">
      <g>
       <use xlink:href="#m581ef82fea" x="820.225217" y="306.812625" style="stroke: #000000; stroke-width: 0.8"/>
      </g>
     </g>
     <g id="text_20">
      <!-- 40 -->
      <g transform="translate(808.772717 327.489813) scale(0.18 -0.18)">
       <use xlink:href="#DejaVuSans-34"/>
       <use xlink:href="#DejaVuSans-30" x="63.623047"/>
      </g>
     </g>
    </g>
    <g id="text_21">
     <!-- Week number -->
     <g transform="translate(698.342077 348.910438) scale(0.18 -0.18)">
      <use xlink:href="#DejaVuSans-57"/>
      <use xlink:href="#DejaVuSans-65" x="93.001953"/>
      <use xlink:href="#DejaVuSans-65" x="154.525391"/>
      <use xlink:href="#DejaVuSans-6b" x="216.048828"/>
      <use xlink:href="#DejaVuSans-20" x="273.958984"/>
      <use xlink:href="#DejaVuSans-6e" x="305.746094"/>
      <use xlink:href="#DejaVuSans-75" x="369.125"/>
      <use xlink:href="#DejaVuSans-6d" x="432.503906"/>
      <use xlink:href="#DejaVuSans-62" x="529.916016"/>
      <use xlink:href="#DejaVuSans-65" x="593.392578"/>
      <use xlink:href="#DejaVuSans-72" x="654.916016"/>
     </g>
    </g>
   </g>
   <g id="matplotlib.axis_6">
    <g id="ytick_13">
     <g id="line2d_24">
      <g>
       <use xlink:href="#m9c3e45df8a" x="637.896654" y="306.812625" style="stroke: #000000; stroke-width: 0.8"/>
      </g>
     </g>
    </g>
    <g id="ytick_14">
     <g id="line2d_25">
      <g>
       <use xlink:href="#m9c3e45df8a" x="637.896654" y="251.372625" style="stroke: #000000; stroke-width: 0.8"/>
      </g>
     </g>
    </g>
    <g id="ytick_15">
     <g id="line2d_26">
      <g>
       <use xlink:href="#m9c3e45df8a" x="637.896654" y="195.932625" style="stroke: #000000; stroke-width: 0.8"/>
      </g>
     </g>
    </g>
    <g id="ytick_16">
     <g id="line2d_27">
      <g>
       <use xlink:href="#m9c3e45df8a" x="637.896654" y="140.492625" style="stroke: #000000; stroke-width: 0.8"/>
      </g>
     </g>
    </g>
    <g id="ytick_17">
     <g id="line2d_28">
      <g>
       <use xlink:href="#m9c3e45df8a" x="637.896654" y="85.052625" style="stroke: #000000; stroke-width: 0.8"/>
      </g>
     </g>
    </g>
    <g id="ytick_18">
     <g id="line2d_29">
      <g>
       <use xlink:href="#m9c3e45df8a" x="637.896654" y="29.612625" style="stroke: #000000; stroke-width: 0.8"/>
      </g>
     </g>
    </g>
   </g>
   <g id="line2d_30">
    <path d="M 649.086494 170.416645 
L 653.474666 180.783456 
L 657.862839 178.896124 
L 662.251011 171.109369 
L 666.639184 178.624818 
L 671.027356 188.242121 
L 675.415528 182.371783 
L 679.803701 206.123864 
L 684.191873 193.821528 
L 688.580045 180.79752 
L 692.968218 168.936581 
L 697.35639 174.628742 
L 701.744563 193.736349 
L 706.132735 187.953559 
L 710.520907 175.723635 
L 714.90908 189.800241 
L 719.297252 187.221469 
L 723.685424 170.424425 
L 728.073597 166.851447 
L 732.461769 174.144629 
L 736.849942 184.537602 
L 741.238114 190.806986 
L 745.626286 173.386354 
L 750.014459 181.46692 
L 754.402631 182.124788 
L 758.790804 194.045022 
L 763.178976 188.648838 
L 767.567148 188.354908 
L 771.955321 184.106196 
L 776.343493 187.870644 
L 780.731665 188.953508 
L 785.119838 187.860653 
L 789.50801 192.348826 
L 793.896183 175.289053 
L 798.284355 165.466086 
L 802.672527 198.271528 
L 807.0607 195.270691 
L 811.448872 169.226264 
L 815.837044 195.317617 
L 820.225217 185.927328 
L 824.613389 194.057366 
L 829.001562 181.548239 
L 833.389734 181.286582 
L 837.777906 172.579508 
L 842.166079 181.817957 
L 846.554251 189.644507 
L 850.942424 184.778286 
L 855.330596 183.664302 
L 859.718768 194.365932 
L 864.106941 190.279798 
L 868.495113 168.301414 
L 872.883285 182.550032 
" clip-path="url(#p2c246b1436)" style="fill: none; stroke: #ff0000; stroke-width: 1.5; stroke-linecap: square"/>
   </g>
   <g id="patch_13">
    <path d="M 637.896654 306.812625 
L 637.896654 29.612625 
" style="fill: none; stroke: #000000; stroke-width: 0.8; stroke-linejoin: miter; stroke-linecap: square"/>
   </g>
   <g id="patch_14">
    <path d="M 884.073125 306.812625 
L 884.073125 29.612625 
" style="fill: none; stroke: #000000; stroke-width: 0.8; stroke-linejoin: miter; stroke-linecap: square"/>
   </g>
   <g id="patch_15">
    <path d="M 637.896654 306.812625 
L 884.073125 306.812625 
" style="fill: none; stroke: #000000; stroke-width: 0.8; stroke-linejoin: miter; stroke-linecap: square"/>
   </g>
   <g id="patch_16">
    <path d="M 637.896654 29.612625 
L 884.073125 29.612625 
" style="fill: none; stroke: #000000; stroke-width: 0.8; stroke-linejoin: miter; stroke-linecap: square"/>
   </g>
   <g id="text_22">
    <!-- SEPP -->
    <g transform="translate(734.280202 23.612625) scale(0.216 -0.216)">
     <defs>
      <path id="DejaVuSans-53" d="M 3425 4513 
L 3425 3897 
Q 3066 4069 2747 4153 
Q 2428 4238 2131 4238 
Q 1616 4238 1336 4038 
Q 1056 3838 1056 3469 
Q 1056 3159 1242 3001 
Q 1428 2844 1947 2747 
L 2328 2669 
Q 3034 2534 3370 2195 
Q 3706 1856 3706 1288 
Q 3706 609 3251 259 
Q 2797 -91 1919 -91 
Q 1588 -91 1214 -16 
Q 841 59 441 206 
L 441 856 
Q 825 641 1194 531 
Q 1563 422 1919 422 
Q 2459 422 2753 634 
Q 3047 847 3047 1241 
Q 3047 1584 2836 1778 
Q 2625 1972 2144 2069 
L 1759 2144 
Q 1053 2284 737 2584 
Q 422 2884 422 3419 
Q 422 4038 858 4394 
Q 1294 4750 2059 4750 
Q 2388 4750 2728 4690 
Q 3069 4631 3425 4513 
z
" transform="scale(0.015625)"/>
      <path id="DejaVuSans-50" d="M 1259 4147 
L 1259 2394 
L 2053 2394 
Q 2494 2394 2734 2622 
Q 2975 2850 2975 3272 
Q 2975 3691 2734 3919 
Q 2494 4147 2053 4147 
L 1259 4147 
z
M 628 4666 
L 2053 4666 
Q 2838 4666 3239 4311 
Q 3641 3956 3641 3272 
Q 3641 2581 3239 2228 
Q 2838 1875 2053 1875 
L 1259 1875 
L 1259 0 
L 628 0 
L 628 4666 
z
" transform="scale(0.015625)"/>
     </defs>
     <use xlink:href="#DejaVuSans-53"/>
     <use xlink:href="#DejaVuSans-45" x="63.476562"/>
     <use xlink:href="#DejaVuSans-50" x="126.660156"/>
     <use xlink:href="#DejaVuSans-50" x="186.962891"/>
    </g>
   </g>
  </g>
  <g id="axes_4">
   <g id="PolyCollection_4">
    <defs>
     <path id="m6db29cfb62" d="M 58.262965 -343.365103 
L 58.262965 -148.411363 
L 62.651137 -156.230872 
L 67.039309 -160.574494 
L 71.427482 -143.683975 
L 75.815654 -158.790819 
L 80.203826 -155.114043 
L 84.591999 -165.429842 
L 88.980171 -135.440792 
L 93.368344 -141.031516 
L 97.756516 -136.199488 
L 102.144688 -157.050552 
L 106.532861 -140.878571 
L 110.921033 -124.549534 
L 115.309206 -128.648093 
L 119.697378 -155.413944 
L 124.08555 -140.611088 
L 128.473723 -143.129915 
L 132.861895 -151.013993 
L 137.250067 -147.750139 
L 141.63824 -149.86175 
L 146.026412 -140.581645 
L 150.414585 -148.831167 
L 154.802757 -154.039073 
L 159.190929 -131.342307 
L 163.579102 -136.328387 
L 167.967274 -126.900782 
L 172.355446 -135.593742 
L 176.743619 -155.141496 
L 181.131791 -141.407221 
L 185.519964 -166.388952 
L 189.908136 -148.53792 
L 194.296308 -140.096996 
L 198.684481 -133.839522 
L 203.072653 -132.508805 
L 207.460826 -159.077232 
L 211.848998 -149.045961 
L 216.23717 -142.829928 
L 220.625343 -138.952414 
L 225.013515 -137.842541 
L 229.401687 -141.723865 
L 233.78986 -150.803389 
L 238.178032 -145.397539 
L 242.566205 -138.438988 
L 246.954377 -139.464595 
L 251.342549 -164.11298 
L 255.730722 -146.639005 
L 260.118894 -151.633889 
L 264.507066 -156.532264 
L 268.895239 -143.612427 
L 273.283411 -149.233937 
L 277.671584 -143.227232 
L 282.059756 -127.473435 
L 282.059756 -327.464617 
L 282.059756 -327.464617 
L 277.671584 -345.907466 
L 273.283411 -317.510399 
L 268.895239 -335.893203 
L 264.507066 -328.158731 
L 260.118894 -341.503881 
L 255.730722 -329.410091 
L 251.342549 -319.577539 
L 246.954377 -316.097213 
L 242.566205 -317.875115 
L 238.178032 -313.881233 
L 233.78986 -307.534669 
L 229.401687 -321.200786 
L 225.013515 -322.046863 
L 220.625343 -360.848965 
L 216.23717 -329.104702 
L 211.848998 -325.684166 
L 207.460826 -330.817471 
L 203.072653 -312.76728 
L 198.684481 -314.07755 
L 194.296308 -315.430793 
L 189.908136 -330.71437 
L 185.519964 -312.919677 
L 181.131791 -328.145536 
L 176.743619 -333.743668 
L 172.355446 -330.803018 
L 167.967274 -319.573498 
L 163.579102 -320.055577 
L 159.190929 -318.632235 
L 154.802757 -320.302163 
L 150.414585 -327.796225 
L 146.026412 -343.063095 
L 141.63824 -324.708262 
L 137.250067 -326.926075 
L 132.861895 -307.643293 
L 128.473723 -309.400597 
L 124.08555 -327.643522 
L 119.697378 -317.400591 
L 115.309206 -316.966581 
L 110.921033 -304.376309 
L 106.532861 -331.9262 
L 102.144688 -334.284873 
L 97.756516 -304.473892 
L 93.368344 -310.962281 
L 88.980171 -325.846531 
L 84.591999 -343.475499 
L 80.203826 -314.060198 
L 75.815654 -307.925982 
L 71.427482 -327.631417 
L 67.039309 -310.758706 
L 62.651137 -345.746387 
L 58.262965 -343.365103 
z
" style="stroke: #0000ff; stroke-opacity: 0.2"/>
    </defs>
    <g clip-path="url(#pf333b8ba35)">
     <use xlink:href="#m6db29cfb62" x="0" y="359.853875" style="fill: #0000ff; fill-opacity: 0.2; stroke: #0000ff; stroke-opacity: 0.2"/>
    </g>
   </g>
   <g id="line2d_31">
    <path d="M 58.262965 113.965642 
L 62.651137 108.865246 
L 67.039309 124.187275 
L 71.427482 124.196179 
L 75.815654 126.495475 
L 80.203826 125.266755 
L 84.591999 105.401204 
L 88.980171 129.210213 
L 93.368344 133.856976 
L 97.756516 139.517185 
L 102.144688 114.186162 
L 106.532861 123.45149 
L 110.921033 145.390953 
L 115.309206 137.046538 
L 119.697378 123.446608 
L 124.08555 125.72657 
L 128.473723 133.588619 
L 132.861895 130.525232 
L 137.250067 122.515768 
L 141.63824 122.568869 
L 146.026412 118.031505 
L 150.414585 121.540179 
L 154.802757 122.683257 
L 159.190929 134.866604 
L 163.579102 131.661893 
L 167.967274 136.616735 
L 172.355446 126.655495 
L 176.743619 115.411293 
L 181.131791 125.077496 
L 185.519964 120.199561 
L 189.908136 120.22773 
L 194.296308 132.08998 
L 198.684481 135.895339 
L 203.072653 137.215832 
L 207.460826 114.906524 
L 211.848998 122.488812 
L 216.23717 123.88656 
L 220.625343 109.953185 
L 225.013515 129.909173 
L 229.401687 128.39155 
L 233.78986 130.684846 
L 238.178032 130.214489 
L 242.566205 131.696823 
L 246.954377 132.072971 
L 251.342549 118.008616 
L 255.730722 121.829327 
L 260.118894 113.28499 
L 264.507066 117.508378 
L 268.895239 120.10106 
L 273.283411 126.481707 
L 277.671584 115.286526 
L 282.059756 132.384849 
" clip-path="url(#pf333b8ba35)" style="fill: none; stroke: #0000ff; stroke-width: 1.5; stroke-linecap: square"/>
   </g>
  </g>
  <g id="axes_5">
   <g id="PolyCollection_5">
    <defs>
     <path id="mcf27d01724" d="M 353.674729 -284.595302 
L 353.674729 -137.68711 
L 358.062902 -134.694338 
L 362.451074 -132.718176 
L 366.839246 -120.439867 
L 371.227419 -134.257618 
L 375.615591 -130.156273 
L 380.003764 -140.739923 
L 384.391936 -110.310778 
L 388.780108 -118.500303 
L 393.168281 -120.936456 
L 397.556453 -128.203546 
L 401.944625 -119.89342 
L 406.332798 -108.997431 
L 410.72097 -116.194098 
L 415.109143 -127.909734 
L 419.497315 -118.166837 
L 423.885487 -124.903505 
L 428.27366 -130.557865 
L 432.661832 -128.013416 
L 437.050005 -122.997711 
L 441.438177 -123.46818 
L 445.826349 -127.752288 
L 450.214522 -130.696517 
L 454.602694 -120.55926 
L 458.990866 -111.369991 
L 463.379039 -110.266385 
L 467.767211 -116.51091 
L 472.155384 -134.942282 
L 476.543556 -116.4018 
L 480.931728 -140.722547 
L 485.319901 -129.112032 
L 489.708073 -119.273679 
L 494.096245 -118.962791 
L 498.484418 -111.832928 
L 502.87259 -127.975941 
L 507.260763 -131.590931 
L 511.648935 -120.808997 
L 516.037107 -126.409366 
L 520.42528 -118.292479 
L 524.813452 -124.107634 
L 529.201625 -130.919377 
L 533.589797 -124.508652 
L 537.977969 -126.833051 
L 542.366142 -123.585426 
L 546.754314 -141.812566 
L 551.142486 -131.423223 
L 555.530659 -136.206327 
L 559.918831 -131.168555 
L 564.307004 -123.757804 
L 568.695176 -130.889701 
L 573.083348 -133.182806 
L 577.471521 -112.429247 
L 577.471521 -269.639702 
L 577.471521 -269.639702 
L 573.083348 -291.749884 
L 568.695176 -259.384962 
L 564.307004 -277.11979 
L 559.918831 -270.529454 
L 555.530659 -279.20594 
L 551.142486 -268.741646 
L 546.754314 -261.867766 
L 542.366142 -261.738186 
L 537.977969 -261.994829 
L 533.589797 -259.608518 
L 529.201625 -248.284208 
L 524.813452 -259.177821 
L 520.42528 -261.521797 
L 516.037107 -305.309623 
L 511.648935 -273.669193 
L 507.260763 -273.510354 
L 502.87259 -276.55681 
L 498.484418 -255.129561 
L 494.096245 -255.398225 
L 489.708073 -255.37268 
L 485.319901 -272.601273 
L 480.931728 -260.261106 
L 476.543556 -278.243534 
L 472.155384 -274.37834 
L 467.767211 -267.336534 
L 463.379039 -262.851235 
L 458.990866 -270.950558 
L 454.602694 -264.682309 
L 450.214522 -261.311833 
L 445.826349 -267.281382 
L 441.438177 -283.16472 
L 437.050005 -278.364661 
L 432.661832 -269.527762 
L 428.27366 -258.541958 
L 423.885487 -254.557101 
L 419.497315 -274.237796 
L 415.109143 -263.938028 
L 410.72097 -256.879049 
L 406.332798 -249.992712 
L 401.944625 -271.304367 
L 397.556453 -276.266429 
L 393.168281 -241.635664 
L 388.780108 -257.464661 
L 384.391936 -272.243279 
L 380.003764 -287.209423 
L 375.615591 -254.613039 
L 371.227419 -250.722631 
L 366.839246 -276.641505 
L 362.451074 -257.087598 
L 358.062902 -291.844036 
L 353.674729 -284.595302 
z
" style="stroke: #0000ff; stroke-opacity: 0.2"/>
    </defs>
    <g clip-path="url(#pdd03b0d3f6)">
     <use xlink:href="#mcf27d01724" x="0" y="359.853875" style="fill: #0000ff; fill-opacity: 0.2; stroke: #0000ff; stroke-opacity: 0.2"/>
    </g>
   </g>
   <g id="line2d_32">
    <path d="M 353.674729 148.712669 
L 358.062902 146.584688 
L 362.451074 164.950988 
L 366.839246 161.313189 
L 371.227419 167.36375 
L 375.615591 167.469219 
L 380.003764 145.879202 
L 384.391936 168.576846 
L 388.780108 171.871393 
L 393.168281 178.567815 
L 397.556453 157.618888 
L 401.944625 164.254981 
L 406.332798 180.358803 
L 410.72097 173.317302 
L 415.109143 163.929994 
L 419.497315 163.651558 
L 423.885487 170.123572 
L 428.27366 165.303963 
L 432.661832 161.083286 
L 437.050005 159.172689 
L 441.438177 156.537425 
L 445.826349 162.33704 
L 450.214522 163.8497 
L 454.602694 167.233091 
L 458.990866 168.693601 
L 463.379039 173.295065 
L 467.767211 167.930153 
L 472.155384 155.193564 
L 476.543556 162.531208 
L 480.931728 159.362048 
L 485.319901 158.997223 
L 489.708073 172.530695 
L 494.096245 172.673367 
L 498.484418 176.372631 
L 502.87259 157.587499 
L 507.260763 157.303233 
L 511.648935 162.61478 
L 516.037107 143.99438 
L 520.42528 169.946737 
L 524.813452 168.211148 
L 529.201625 170.252082 
L 533.589797 167.79529 
L 537.977969 165.439935 
L 542.366142 167.192069 
L 546.754314 158.013709 
L 551.142486 159.77144 
L 555.530659 152.147742 
L 559.918831 159.004871 
L 564.307004 159.415078 
L 568.695176 164.716544 
L 573.083348 147.38753 
L 577.471521 168.819401 
" clip-path="url(#pdd03b0d3f6)" style="fill: none; stroke: #0000ff; stroke-width: 1.5; stroke-linecap: square"/>
   </g>
  </g>
  <g id="axes_6">
   <g id="PolyCollection_6">
    <defs>
     <path id="m89fe1f80e4" d="M 649.086494 -243.456611 
L 649.086494 -115.037432 
L 653.474666 -127.062429 
L 657.862839 -116.865899 
L 662.251011 -107.224523 
L 666.639184 -119.118903 
L 671.027356 -118.402197 
L 675.415528 -116.564194 
L 679.803701 -102.940156 
L 684.191873 -115.601368 
L 688.580045 -110.894709 
L 692.968218 -118.963275 
L 697.35639 -104.383865 
L 701.744563 -99.699746 
L 706.132735 -105.818051 
L 710.520907 -120.304294 
L 714.90908 -115.563991 
L 719.297252 -110.517841 
L 723.685424 -112.334595 
L 728.073597 -115.158568 
L 732.461769 -113.98025 
L 736.849942 -103.264652 
L 741.238114 -109.723601 
L 745.626286 -120.850713 
L 750.014459 -102.806482 
L 754.402631 -109.122987 
L 758.790804 -95.619496 
L 763.178976 -107.072593 
L 767.567148 -121.117852 
L 771.955321 -106.554993 
L 776.343493 -117.386174 
L 780.731665 -125.068673 
L 785.119838 -105.354537 
L 789.50801 -112.675214 
L 793.896183 -103.285382 
L 798.284355 -124.210638 
L 802.672527 -114.955473 
L 807.0607 -113.512661 
L 811.448872 -117.372661 
L 815.837044 -117.592103 
L 820.225217 -110.433946 
L 824.613389 -103.752952 
L 829.001562 -115.639835 
L 833.389734 -112.464761 
L 837.777906 -116.115017 
L 842.166079 -127.767446 
L 846.554251 -113.555354 
L 850.942424 -122.651656 
L 855.330596 -119.448709 
L 859.718768 -111.114847 
L 864.106941 -116.76799 
L 868.495113 -120.905588 
L 872.883285 -99.985831 
L 872.883285 -245.345849 
L 872.883285 -245.345849 
L 868.495113 -258.077776 
L 864.106941 -242.583587 
L 859.718768 -248.558677 
L 855.330596 -251.404642 
L 850.942424 -264.10085 
L 846.554251 -244.712776 
L 842.166079 -237.898863 
L 837.777906 -237.383926 
L 833.389734 -236.876844 
L 829.001562 -233.564937 
L 824.613389 -222.583105 
L 820.225217 -249.247756 
L 815.837044 -237.054062 
L 811.448872 -274.060893 
L 807.0607 -254.198012 
L 802.672527 -255.277919 
L 798.284355 -253.193161 
L 793.896183 -230.862783 
L 789.50801 -238.679002 
L 785.119838 -249.425597 
L 780.731665 -255.409545 
L 776.343493 -235.831232 
L 771.955321 -258.146401 
L 767.567148 -259.754051 
L 763.178976 -249.471168 
L 758.790804 -236.968534 
L 754.402631 -242.265909 
L 750.014459 -245.820483 
L 745.626286 -251.018766 
L 741.238114 -249.550265 
L 736.849942 -265.518298 
L 732.461769 -257.583999 
L 728.073597 -247.441799 
L 723.685424 -239.545209 
L 719.297252 -235.119172 
L 714.90908 -237.892527 
L 710.520907 -238.307005 
L 706.132735 -231.653888 
L 701.744563 -228.671001 
L 697.35639 -245.042241 
L 692.968218 -250.279077 
L 688.580045 -232.462314 
L 684.191873 -223.600731 
L 679.803701 -250.050241 
L 675.415528 -271.329978 
L 671.027356 -239.924214 
L 666.639184 -226.478531 
L 662.251011 -246.87707 
L 657.862839 -234.937246 
L 653.474666 -266.608489 
L 649.086494 -243.456611 
z
" style="stroke: #0000ff; stroke-opacity: 0.2"/>
    </defs>
    <g clip-path="url(#p2c246b1436)">
     <use xlink:href="#m89fe1f80e4" x="0" y="359.853875" style="fill: #0000ff; fill-opacity: 0.2; stroke: #0000ff; stroke-opacity: 0.2"/>
    </g>
   </g>
   <g id="matplotlib.axis_7">
    <g id="ytick_19">
     <g id="line2d_33">
      <defs>
       <path id="m2086dfcc35" d="M 0 0 
L 3.5 0 
" style="stroke: #000000; stroke-width: 0.8"/>
      </defs>
      <g>
       <use xlink:href="#m2086dfcc35" x="884.073125" y="306.812625" style="stroke: #000000; stroke-width: 0.8"/>
      </g>
     </g>
     <g id="text_23">
      <!-- 0.01 -->
      <g transform="translate(891.073125 313.651219) scale(0.18 -0.18)">
       <defs>
        <path id="DejaVuSans-2e" d="M 684 794 
L 1344 794 
L 1344 0 
L 684 0 
L 684 794 
z
" transform="scale(0.015625)"/>
       </defs>
       <use xlink:href="#DejaVuSans-30"/>
       <use xlink:href="#DejaVuSans-2e" x="63.623047"/>
       <use xlink:href="#DejaVuSans-30" x="95.410156"/>
       <use xlink:href="#DejaVuSans-31" x="159.033203"/>
      </g>
     </g>
    </g>
    <g id="ytick_20">
     <g id="line2d_34">
      <g>
       <use xlink:href="#m2086dfcc35" x="884.073125" y="260.612625" style="stroke: #000000; stroke-width: 0.8"/>
      </g>
     </g>
     <g id="text_24">
      <!-- 0.01 -->
      <g transform="translate(891.073125 267.451219) scale(0.18 -0.18)">
       <use xlink:href="#DejaVuSans-30"/>
       <use xlink:href="#DejaVuSans-2e" x="63.623047"/>
       <use xlink:href="#DejaVuSans-30" x="95.410156"/>
       <use xlink:href="#DejaVuSans-31" x="159.033203"/>
      </g>
     </g>
    </g>
    <g id="ytick_21">
     <g id="line2d_35">
      <g>
       <use xlink:href="#m2086dfcc35" x="884.073125" y="214.412625" style="stroke: #000000; stroke-width: 0.8"/>
      </g>
     </g>
     <g id="text_25">
      <!-- 0.02 -->
      <g transform="translate(891.073125 221.251219) scale(0.18 -0.18)">
       <use xlink:href="#DejaVuSans-30"/>
       <use xlink:href="#DejaVuSans-2e" x="63.623047"/>
       <use xlink:href="#DejaVuSans-30" x="95.410156"/>
       <use xlink:href="#DejaVuSans-32" x="159.033203"/>
      </g>
     </g>
    </g>
    <g id="ytick_22">
     <g id="line2d_36">
      <g>
       <use xlink:href="#m2086dfcc35" x="884.073125" y="168.212625" style="stroke: #000000; stroke-width: 0.8"/>
      </g>
     </g>
     <g id="text_26">
      <!-- 0.03 -->
      <g transform="translate(891.073125 175.051219) scale(0.18 -0.18)">
       <use xlink:href="#DejaVuSans-30"/>
       <use xlink:href="#DejaVuSans-2e" x="63.623047"/>
       <use xlink:href="#DejaVuSans-30" x="95.410156"/>
       <use xlink:href="#DejaVuSans-33" x="159.033203"/>
      </g>
     </g>
    </g>
    <g id="ytick_23">
     <g id="line2d_37">
      <g>
       <use xlink:href="#m2086dfcc35" x="884.073125" y="122.012625" style="stroke: #000000; stroke-width: 0.8"/>
      </g>
     </g>
     <g id="text_27">
      <!-- 0.03 -->
      <g transform="translate(891.073125 128.851219) scale(0.18 -0.18)">
       <use xlink:href="#DejaVuSans-30"/>
       <use xlink:href="#DejaVuSans-2e" x="63.623047"/>
       <use xlink:href="#DejaVuSans-30" x="95.410156"/>
       <use xlink:href="#DejaVuSans-33" x="159.033203"/>
      </g>
     </g>
    </g>
    <g id="ytick_24">
     <g id="line2d_38">
      <g>
       <use xlink:href="#m2086dfcc35" x="884.073125" y="75.812625" style="stroke: #000000; stroke-width: 0.8"/>
      </g>
     </g>
     <g id="text_28">
      <!-- 0.04 -->
      <g transform="translate(891.073125 82.651219) scale(0.18 -0.18)">
       <use xlink:href="#DejaVuSans-30"/>
       <use xlink:href="#DejaVuSans-2e" x="63.623047"/>
       <use xlink:href="#DejaVuSans-30" x="95.410156"/>
       <use xlink:href="#DejaVuSans-34" x="159.033203"/>
      </g>
     </g>
    </g>
    <g id="ytick_25">
     <g id="line2d_39">
      <g>
       <use xlink:href="#m2086dfcc35" x="884.073125" y="29.612625" style="stroke: #000000; stroke-width: 0.8"/>
      </g>
     </g>
     <g id="text_29">
      <!-- 0.04 -->
      <g transform="translate(891.073125 36.451219) scale(0.18 -0.18)">
       <use xlink:href="#DejaVuSans-30"/>
       <use xlink:href="#DejaVuSans-2e" x="63.623047"/>
       <use xlink:href="#DejaVuSans-30" x="95.410156"/>
       <use xlink:href="#DejaVuSans-34" x="159.033203"/>
      </g>
     </g>
    </g>
    <g id="text_30">
     <!-- EMD -->
     <g style="fill: #0000ff" transform="translate(948.828437 188.594813) rotate(-90) scale(0.18 -0.18)">
      <use xlink:href="#DejaVuSans-45"/>
      <use xlink:href="#DejaVuSans-4d" x="63.183594"/>
      <use xlink:href="#DejaVuSans-44" x="149.462891"/>
     </g>
    </g>
   </g>
   <g id="line2d_40">
    <path d="M 649.086494 180.606854 
L 653.474666 163.018416 
L 657.862839 183.952302 
L 662.251011 182.803078 
L 666.639184 187.055158 
L 671.027356 180.690669 
L 675.415528 165.906789 
L 679.803701 183.358676 
L 684.191873 190.252826 
L 688.580045 188.175364 
L 692.968218 175.232699 
L 697.35639 185.140822 
L 701.744563 195.668501 
L 706.132735 191.117906 
L 710.520907 180.548226 
L 714.90908 183.125616 
L 719.297252 187.035368 
L 723.685424 183.913973 
L 728.073597 178.553691 
L 732.461769 174.07175 
L 736.849942 175.4624 
L 741.238114 180.216942 
L 745.626286 173.919136 
L 750.014459 185.540393 
L 754.402631 184.159427 
L 758.790804 193.55986 
L 763.178976 181.581994 
L 767.567148 169.417924 
L 771.955321 177.503178 
L 776.343493 183.245172 
L 780.731665 169.614766 
L 785.119838 182.463808 
L 789.50801 184.176767 
L 793.896183 192.779792 
L 798.284355 171.151975 
L 802.672527 174.737179 
L 807.0607 175.998539 
L 811.448872 164.137098 
L 815.837044 182.530793 
L 820.225217 180.013024 
L 824.613389 196.685847 
L 829.001562 185.251489 
L 833.389734 185.183072 
L 837.777906 183.104403 
L 842.166079 177.02072 
L 846.554251 180.71981 
L 850.942424 166.477622 
L 855.330596 174.4272 
L 859.718768 180.017113 
L 864.106941 180.178087 
L 868.495113 170.362193 
L 872.883285 187.188035 
" clip-path="url(#p2c246b1436)" style="fill: none; stroke: #0000ff; stroke-width: 1.5; stroke-linecap: square"/>
   </g>
   <g id="patch_17">
    <path d="M 637.896654 306.812625 
L 637.896654 29.612625 
" style="fill: none; stroke: #000000; stroke-width: 0.8; stroke-linejoin: miter; stroke-linecap: square"/>
   </g>
   <g id="patch_18">
    <path d="M 884.073125 306.812625 
L 884.073125 29.612625 
" style="fill: none; stroke: #000000; stroke-width: 0.8; stroke-linejoin: miter; stroke-linecap: square"/>
   </g>
   <g id="patch_19">
    <path d="M 637.896654 306.812625 
L 884.073125 306.812625 
" style="fill: none; stroke: #000000; stroke-width: 0.8; stroke-linejoin: miter; stroke-linecap: square"/>
   </g>
   <g id="patch_20">
    <path d="M 637.896654 29.612625 
L 884.073125 29.612625 
" style="fill: none; stroke: #000000; stroke-width: 0.8; stroke-linejoin: miter; stroke-linecap: square"/>
   </g>
  </g>
 </g>
 <defs>
  <clipPath id="pf333b8ba35">
   <rect x="47.073125" y="29.612625" width="246.176471" height="277.2"/>
  </clipPath>
  <clipPath id="pdd03b0d3f6">
   <rect x="342.48489" y="29.612625" width="246.176471" height="277.2"/>
  </clipPath>
  <clipPath id="p2c246b1436">
   <rect x="637.896654" y="29.612625" width="246.176471" height="277.2"/>
  </clipPath>
 </defs>
</svg>
