<?xml version="1.0" encoding="utf-8" standalone="no"?>
<!DOCTYPE svg PUBLIC "-//W3C//DTD SVG 1.1//EN"
  "http://www.w3.org/Graphics/SVG/1.1/DTD/svg11.dtd">
<svg xmlns:xlink="http://www.w3.org/1999/xlink" width="807.089595pt" height="335.3245pt" viewBox="0 0 807.089595 335.3245" xmlns="http://www.w3.org/2000/svg" version="1.1">
 <metadata>
  <rdf:RDF xmlns:dc="http://purl.org/dc/elements/1.1/" xmlns:cc="http://creativecommons.org/ns#" xmlns:rdf="http://www.w3.org/1999/02/22-rdf-syntax-ns#">
   <cc:Work>
    <dc:type rdf:resource="http://purl.org/dc/dcmitype/StillImage"/>
    <dc:date>2024-06-05T20:41:15.119633</dc:date>
    <dc:format>image/svg+xml</dc:format>
    <dc:creator>
     <cc:Agent>
      <dc:title>Matplotlib v3.8.2, https://matplotlib.org/</dc:title>
     </cc:Agent>
    </dc:creator>
   </cc:Work>
  </rdf:RDF>
 </metadata>
 <defs>
  <style type="text/css">*{stroke-linejoin: round; stroke-linecap: butt}</style>
 </defs>
 <g id="figure_1">
  <g id="patch_1">
   <path d="M 0 335.3245 
L 807.089595 335.3245 
L 807.089595 0 
L 0 0 
z
" style="fill: #ffffff"/>
  </g>
  <g id="axes_1">
   <g id="patch_2">
    <path d="M 66.0715 280.209 
L 358.867614 280.209 
L 358.867614 27.789 
L 66.0715 27.789 
z
" style="fill: #ffffff"/>
   </g>
   <g id="PolyCollection_1">
    <defs>
     <path id="m973de9bdb4" d="M 79.380414 -105.118685 
L 79.380414 -82.701661 
L 84.050209 -79.145 
L 88.720003 -81.59304 
L 93.389798 -80.094824 
L 98.059592 -79.229823 
L 102.729387 -79.342443 
L 107.399181 -78.359891 
L 112.068976 -76.410082 
L 116.73877 -75.835412 
L 121.408565 -75.181048 
L 126.078359 -76.570711 
L 130.748154 -77.162502 
L 135.417948 -77.535868 
L 140.087743 -77.691168 
L 144.757537 -77.208898 
L 149.427332 -76.314707 
L 154.097126 -75.550383 
L 158.766921 -75.797357 
L 163.436715 -75.068186 
L 168.10651 -75.269598 
L 172.776304 -74.790302 
L 177.446099 -73.314948 
L 182.115893 -73.86566 
L 186.785688 -73.309342 
L 191.455482 -73.732512 
L 196.125276 -73.048779 
L 200.795071 -72.460811 
L 205.464865 -72.713006 
L 210.13466 -72.522428 
L 214.804454 -72.695165 
L 219.474249 -72.053001 
L 224.144043 -71.687549 
L 228.813838 -71.298743 
L 233.483632 -71.079333 
L 238.153427 -70.754974 
L 242.823221 -70.498146 
L 247.493016 -70.094352 
L 252.16281 -70.108483 
L 256.832605 -69.637215 
L 261.502399 -69.456692 
L 266.172194 -69.336361 
L 270.841988 -69.369232 
L 275.511783 -69.2631 
L 280.181577 -69.076936 
L 284.851372 -69.150124 
L 289.521166 -69.049745 
L 294.190961 -68.770339 
L 298.860755 -68.169088 
L 303.53055 -68.283823 
L 308.200344 -68.576979 
L 312.870139 -68.447921 
L 317.539933 -68.021799 
L 322.209728 -68.320783 
L 326.879522 -68.161475 
L 331.549317 -68.198818 
L 336.219111 -68.166007 
L 340.888906 -68.029158 
L 345.5587 -67.969727 
L 345.5587 -75.141599 
L 345.5587 -75.141599 
L 340.888906 -75.216051 
L 336.219111 -75.18904 
L 331.549317 -74.956687 
L 326.879522 -75.204722 
L 322.209728 -75.43769 
L 317.539933 -75.544147 
L 312.870139 -75.713424 
L 308.200344 -75.505451 
L 303.53055 -75.543699 
L 298.860755 -75.773592 
L 294.190961 -76.091509 
L 289.521166 -76.245463 
L 284.851372 -76.308715 
L 280.181577 -76.514661 
L 275.511783 -76.995855 
L 270.841988 -76.601659 
L 266.172194 -76.858586 
L 261.502399 -77.050121 
L 256.832605 -77.173488 
L 252.16281 -77.469566 
L 247.493016 -77.463583 
L 242.823221 -78.307502 
L 238.153427 -78.384022 
L 233.483632 -79.018348 
L 228.813838 -79.302727 
L 224.144043 -79.684443 
L 219.474249 -80.888248 
L 214.804454 -80.698485 
L 210.13466 -81.12263 
L 205.464865 -80.574253 
L 200.795071 -80.747016 
L 196.125276 -81.655092 
L 191.455482 -81.763394 
L 186.785688 -82.201217 
L 182.115893 -82.99122 
L 177.446099 -82.377234 
L 172.776304 -83.373445 
L 168.10651 -84.477176 
L 163.436715 -84.306301 
L 158.766921 -84.821359 
L 154.097126 -85.41247 
L 149.427332 -86.842441 
L 144.757537 -87.513628 
L 140.087743 -88.027775 
L 135.417948 -88.129994 
L 130.748154 -88.387584 
L 126.078359 -88.134921 
L 121.408565 -86.934704 
L 116.73877 -87.73336 
L 112.068976 -88.384541 
L 107.399181 -91.223444 
L 102.729387 -91.914225 
L 98.059592 -93.958831 
L 93.389798 -96.076126 
L 88.720003 -99.429606 
L 84.050209 -100.224578 
L 79.380414 -105.118685 
z
" style="stroke: #1f77b4; stroke-opacity: 0.2; stroke-width: 0.8"/>
    </defs>
    <g clip-path="url(#p85acf7efac)">
     <use xlink:href="#m973de9bdb4" x="0" y="335.3245" style="fill: #1f77b4; fill-opacity: 0.2; stroke: #1f77b4; stroke-opacity: 0.2; stroke-width: 0.8"/>
    </g>
   </g>
   <g id="PolyCollection_2">
    <defs>
     <path id="m5339ae859f" d="M 79.380414 -109.213875 
L 79.380414 -86.165608 
L 84.050209 -85.062905 
L 88.720003 -83.171148 
L 93.389798 -83.290492 
L 98.059592 -83.225067 
L 102.729387 -82.269116 
L 107.399181 -80.727053 
L 112.068976 -79.994642 
L 116.73877 -80.333019 
L 121.408565 -79.69258 
L 126.078359 -79.163377 
L 130.748154 -79.148551 
L 135.417948 -78.612927 
L 140.087743 -77.492918 
L 144.757537 -76.300855 
L 149.427332 -76.0701 
L 154.097126 -75.649151 
L 158.766921 -75.822008 
L 163.436715 -75.431081 
L 168.10651 -74.713011 
L 172.776304 -74.557854 
L 177.446099 -74.404072 
L 182.115893 -73.873834 
L 186.785688 -73.679832 
L 191.455482 -73.13201 
L 196.125276 -71.827466 
L 200.795071 -71.883086 
L 205.464865 -71.882008 
L 210.13466 -71.634139 
L 214.804454 -71.123297 
L 219.474249 -71.043953 
L 224.144043 -70.658205 
L 228.813838 -70.286396 
L 233.483632 -69.963505 
L 238.153427 -69.960999 
L 242.823221 -69.854739 
L 247.493016 -69.923949 
L 252.16281 -69.621448 
L 256.832605 -69.222674 
L 261.502399 -68.76624 
L 266.172194 -68.666422 
L 270.841988 -68.008239 
L 275.511783 -68.305118 
L 280.181577 -68.010565 
L 284.851372 -67.852903 
L 289.521166 -67.235878 
L 294.190961 -67.475135 
L 298.860755 -66.966097 
L 303.53055 -67.220647 
L 308.200344 -66.888574 
L 312.870139 -67.197458 
L 317.539933 -66.700306 
L 322.209728 -66.775969 
L 326.879522 -66.589136 
L 331.549317 -66.642965 
L 336.219111 -67.025289 
L 340.888906 -66.781844 
L 345.5587 -66.599872 
L 345.5587 -73.643337 
L 345.5587 -73.643337 
L 340.888906 -73.775355 
L 336.219111 -73.7947 
L 331.549317 -73.943498 
L 326.879522 -74.071051 
L 322.209728 -73.883542 
L 317.539933 -74.124569 
L 312.870139 -74.374901 
L 308.200344 -74.416857 
L 303.53055 -74.454272 
L 298.860755 -74.226063 
L 294.190961 -74.841848 
L 289.521166 -75.081266 
L 284.851372 -75.4413 
L 280.181577 -75.383759 
L 275.511783 -75.874302 
L 270.841988 -75.695446 
L 266.172194 -76.330424 
L 261.502399 -76.463231 
L 256.832605 -77.044892 
L 252.16281 -77.402305 
L 247.493016 -77.656985 
L 242.823221 -77.659622 
L 238.153427 -78.027141 
L 233.483632 -78.140285 
L 228.813838 -78.469748 
L 224.144043 -78.936586 
L 219.474249 -79.220863 
L 214.804454 -79.224505 
L 210.13466 -79.960513 
L 205.464865 -80.362009 
L 200.795071 -81.207582 
L 196.125276 -81.465823 
L 191.455482 -81.840468 
L 186.785688 -82.556713 
L 182.115893 -83.020097 
L 177.446099 -83.784059 
L 172.776304 -83.459573 
L 168.10651 -84.476092 
L 163.436715 -85.22602 
L 158.766921 -85.57779 
L 154.097126 -85.804276 
L 149.427332 -86.594327 
L 144.757537 -86.905741 
L 140.087743 -88.149092 
L 135.417948 -89.932265 
L 130.748154 -90.656509 
L 126.078359 -91.02535 
L 121.408565 -91.947517 
L 116.73877 -92.290147 
L 112.068976 -92.444223 
L 107.399181 -94.142944 
L 102.729387 -95.789915 
L 98.059592 -98.587948 
L 93.389798 -98.801322 
L 88.720003 -100.380416 
L 84.050209 -104.722186 
L 79.380414 -109.213875 
z
" style="stroke: #ff7f0e; stroke-opacity: 0.2; stroke-width: 0.8"/>
    </defs>
    <g clip-path="url(#p85acf7efac)">
     <use xlink:href="#m5339ae859f" x="0" y="335.3245" style="fill: #ff7f0e; fill-opacity: 0.2; stroke: #ff7f0e; stroke-opacity: 0.2; stroke-width: 0.8"/>
    </g>
   </g>
   <g id="PolyCollection_3">
    <defs>
     <path id="m88d5162b20" d="M 79.380414 -162.869548 
L 79.380414 -140.776036 
L 84.050209 -137.856536 
L 88.720003 -135.094847 
L 93.389798 -129.213436 
L 98.059592 -128.253749 
L 102.729387 -123.416848 
L 107.399181 -120.495375 
L 112.068976 -117.260535 
L 116.73877 -114.360973 
L 121.408565 -112.555751 
L 126.078359 -110.608009 
L 130.748154 -108.40549 
L 135.417948 -107.145837 
L 140.087743 -104.912545 
L 144.757537 -103.796862 
L 149.427332 -101.427666 
L 154.097126 -100.52884 
L 158.766921 -99.274978 
L 163.436715 -98.294058 
L 168.10651 -98.084484 
L 172.776304 -95.998029 
L 177.446099 -95.060312 
L 182.115893 -94.780716 
L 186.785688 -93.931394 
L 191.455482 -93.477418 
L 196.125276 -92.420698 
L 200.795071 -91.363595 
L 205.464865 -90.47766 
L 210.13466 -90.176872 
L 214.804454 -89.188057 
L 219.474249 -88.667131 
L 224.144043 -87.930242 
L 228.813838 -86.981593 
L 233.483632 -86.286663 
L 238.153427 -85.71843 
L 242.823221 -85.938564 
L 247.493016 -84.922332 
L 252.16281 -84.729771 
L 256.832605 -84.695203 
L 261.502399 -83.823176 
L 266.172194 -83.950813 
L 270.841988 -83.371371 
L 275.511783 -83.230184 
L 280.181577 -83.264581 
L 284.851372 -83.020584 
L 289.521166 -83.102036 
L 294.190961 -82.711967 
L 298.860755 -82.442497 
L 303.53055 -82.365191 
L 308.200344 -82.301288 
L 312.870139 -82.160398 
L 317.539933 -81.769763 
L 322.209728 -82.091123 
L 326.879522 -81.745352 
L 331.549317 -81.962859 
L 336.219111 -81.979163 
L 340.888906 -81.500748 
L 345.5587 -81.55392 
L 345.5587 -88.145443 
L 345.5587 -88.145443 
L 340.888906 -88.439142 
L 336.219111 -88.523045 
L 331.549317 -88.426531 
L 326.879522 -88.612648 
L 322.209728 -88.771089 
L 317.539933 -88.786602 
L 312.870139 -88.888754 
L 308.200344 -89.111619 
L 303.53055 -89.25133 
L 298.860755 -89.509042 
L 294.190961 -89.3592 
L 289.521166 -89.832597 
L 284.851372 -90.018376 
L 280.181577 -90.363719 
L 275.511783 -90.608317 
L 270.841988 -91.044315 
L 266.172194 -91.265483 
L 261.502399 -91.399031 
L 256.832605 -91.781035 
L 252.16281 -92.128293 
L 247.493016 -92.624464 
L 242.823221 -93.506175 
L 238.153427 -93.631837 
L 233.483632 -94.303611 
L 228.813838 -94.928155 
L 224.144043 -95.448893 
L 219.474249 -96.624927 
L 214.804454 -97.265465 
L 210.13466 -98.392308 
L 205.464865 -99.299866 
L 200.795071 -99.818748 
L 196.125276 -100.66937 
L 191.455482 -102.217944 
L 186.785688 -102.507141 
L 182.115893 -103.555419 
L 177.446099 -104.095199 
L 172.776304 -105.091772 
L 168.10651 -107.407669 
L 163.436715 -107.299904 
L 158.766921 -109.278578 
L 154.097126 -110.000753 
L 149.427332 -111.495118 
L 144.757537 -113.873397 
L 140.087743 -114.461085 
L 135.417948 -117.736735 
L 130.748154 -118.824553 
L 126.078359 -121.125684 
L 121.408565 -123.806733 
L 116.73877 -125.78401 
L 112.068976 -129.300936 
L 107.399181 -133.124184 
L 102.729387 -137.1055 
L 98.059592 -142.459351 
L 93.389798 -144.724265 
L 88.720003 -151.511115 
L 84.050209 -157.740697 
L 79.380414 -162.869548 
z
" style="stroke: #2ca02c; stroke-opacity: 0.2; stroke-width: 0.8"/>
    </defs>
    <g clip-path="url(#p85acf7efac)">
     <use xlink:href="#m88d5162b20" x="0" y="335.3245" style="fill: #2ca02c; fill-opacity: 0.2; stroke: #2ca02c; stroke-opacity: 0.2; stroke-width: 0.8"/>
    </g>
   </g>
   <g id="matplotlib.axis_1">
    <g id="xtick_1">
     <g id="line2d_1">
      <defs>
       <path id="m8293515eaa" d="M 0 0 
L 0 4.8 
" style="stroke: #000000"/>
      </defs>
      <g>
       <use xlink:href="#m8293515eaa" x="70.040825" y="280.209" style="stroke: #000000"/>
      </g>
     </g>
     <g id="text_1">
      <!-- 0.0 -->
      <g transform="translate(56.046075 301.88225) scale(0.176 -0.176)">
       <defs>
        <path id="DejaVuSans-30" d="M 2034 4250 
Q 1547 4250 1301 3770 
Q 1056 3291 1056 2328 
Q 1056 1369 1301 889 
Q 1547 409 2034 409 
Q 2525 409 2770 889 
Q 3016 1369 3016 2328 
Q 3016 3291 2770 3770 
Q 2525 4250 2034 4250 
z
M 2034 4750 
Q 2819 4750 3233 4129 
Q 3647 3509 3647 2328 
Q 3647 1150 3233 529 
Q 2819 -91 2034 -91 
Q 1250 -91 836 529 
Q 422 1150 422 2328 
Q 422 3509 836 4129 
Q 1250 4750 2034 4750 
z
" transform="scale(0.015625)"/>
        <path id="DejaVuSans-2e" d="M 684 794 
L 1344 794 
L 1344 0 
L 684 0 
L 684 794 
z
" transform="scale(0.015625)"/>
       </defs>
       <use xlink:href="#DejaVuSans-30"/>
       <use xlink:href="#DejaVuSans-2e" x="63.623047"/>
       <use xlink:href="#DejaVuSans-30" x="95.410156"/>
      </g>
     </g>
    </g>
    <g id="xtick_2">
     <g id="line2d_2">
      <g>
       <use xlink:href="#m8293515eaa" x="163.436715" y="280.209" style="stroke: #000000"/>
      </g>
     </g>
     <g id="text_2">
      <!-- 0.1 -->
      <g transform="translate(149.441965 301.88225) scale(0.176 -0.176)">
       <defs>
        <path id="DejaVuSans-31" d="M 794 531 
L 1825 531 
L 1825 4091 
L 703 3866 
L 703 4441 
L 1819 4666 
L 2450 4666 
L 2450 531 
L 3481 531 
L 3481 0 
L 794 0 
L 794 531 
z
" transform="scale(0.015625)"/>
       </defs>
       <use xlink:href="#DejaVuSans-30"/>
       <use xlink:href="#DejaVuSans-2e" x="63.623047"/>
       <use xlink:href="#DejaVuSans-31" x="95.410156"/>
      </g>
     </g>
    </g>
    <g id="xtick_3">
     <g id="line2d_3">
      <g>
       <use xlink:href="#m8293515eaa" x="256.832605" y="280.209" style="stroke: #000000"/>
      </g>
     </g>
     <g id="text_3">
      <!-- 0.2 -->
      <g transform="translate(242.837855 301.88225) scale(0.176 -0.176)">
       <defs>
        <path id="DejaVuSans-32" d="M 1228 531 
L 3431 531 
L 3431 0 
L 469 0 
L 469 531 
Q 828 903 1448 1529 
Q 2069 2156 2228 2338 
Q 2531 2678 2651 2914 
Q 2772 3150 2772 3378 
Q 2772 3750 2511 3984 
Q 2250 4219 1831 4219 
Q 1534 4219 1204 4116 
Q 875 4013 500 3803 
L 500 4441 
Q 881 4594 1212 4672 
Q 1544 4750 1819 4750 
Q 2544 4750 2975 4387 
Q 3406 4025 3406 3419 
Q 3406 3131 3298 2873 
Q 3191 2616 2906 2266 
Q 2828 2175 2409 1742 
Q 1991 1309 1228 531 
z
" transform="scale(0.015625)"/>
       </defs>
       <use xlink:href="#DejaVuSans-30"/>
       <use xlink:href="#DejaVuSans-2e" x="63.623047"/>
       <use xlink:href="#DejaVuSans-32" x="95.410156"/>
      </g>
     </g>
    </g>
    <g id="xtick_4">
     <g id="line2d_4">
      <g>
       <use xlink:href="#m8293515eaa" x="350.228495" y="280.209" style="stroke: #000000"/>
      </g>
     </g>
     <g id="text_4">
      <!-- 0.3 -->
      <g transform="translate(336.233745 301.88225) scale(0.176 -0.176)">
       <defs>
        <path id="DejaVuSans-33" d="M 2597 2516 
Q 3050 2419 3304 2112 
Q 3559 1806 3559 1356 
Q 3559 666 3084 287 
Q 2609 -91 1734 -91 
Q 1441 -91 1130 -33 
Q 819 25 488 141 
L 488 750 
Q 750 597 1062 519 
Q 1375 441 1716 441 
Q 2309 441 2620 675 
Q 2931 909 2931 1356 
Q 2931 1769 2642 2001 
Q 2353 2234 1838 2234 
L 1294 2234 
L 1294 2753 
L 1863 2753 
Q 2328 2753 2575 2939 
Q 2822 3125 2822 3475 
Q 2822 3834 2567 4026 
Q 2313 4219 1838 4219 
Q 1578 4219 1281 4162 
Q 984 4106 628 3988 
L 628 4550 
Q 988 4650 1302 4700 
Q 1616 4750 1894 4750 
Q 2613 4750 3031 4423 
Q 3450 4097 3450 3541 
Q 3450 3153 3228 2886 
Q 3006 2619 2597 2516 
z
" transform="scale(0.015625)"/>
       </defs>
       <use xlink:href="#DejaVuSans-30"/>
       <use xlink:href="#DejaVuSans-2e" x="63.623047"/>
       <use xlink:href="#DejaVuSans-33" x="95.410156"/>
      </g>
     </g>
    </g>
    <g id="text_5">
     <!-- Percentage -->
     <g transform="translate(158.474057 324.1315) scale(0.192 -0.192)">
      <defs>
       <path id="DejaVuSans-50" d="M 1259 4147 
L 1259 2394 
L 2053 2394 
Q 2494 2394 2734 2622 
Q 2975 2850 2975 3272 
Q 2975 3691 2734 3919 
Q 2494 4147 2053 4147 
L 1259 4147 
z
M 628 4666 
L 2053 4666 
Q 2838 4666 3239 4311 
Q 3641 3956 3641 3272 
Q 3641 2581 3239 2228 
Q 2838 1875 2053 1875 
L 1259 1875 
L 1259 0 
L 628 0 
L 628 4666 
z
" transform="scale(0.015625)"/>
       <path id="DejaVuSans-65" d="M 3597 1894 
L 3597 1613 
L 953 1613 
Q 991 1019 1311 708 
Q 1631 397 2203 397 
Q 2534 397 2845 478 
Q 3156 559 3463 722 
L 3463 178 
Q 3153 47 2828 -22 
Q 2503 -91 2169 -91 
Q 1331 -91 842 396 
Q 353 884 353 1716 
Q 353 2575 817 3079 
Q 1281 3584 2069 3584 
Q 2775 3584 3186 3129 
Q 3597 2675 3597 1894 
z
M 3022 2063 
Q 3016 2534 2758 2815 
Q 2500 3097 2075 3097 
Q 1594 3097 1305 2825 
Q 1016 2553 972 2059 
L 3022 2063 
z
" transform="scale(0.015625)"/>
       <path id="DejaVuSans-72" d="M 2631 2963 
Q 2534 3019 2420 3045 
Q 2306 3072 2169 3072 
Q 1681 3072 1420 2755 
Q 1159 2438 1159 1844 
L 1159 0 
L 581 0 
L 581 3500 
L 1159 3500 
L 1159 2956 
Q 1341 3275 1631 3429 
Q 1922 3584 2338 3584 
Q 2397 3584 2469 3576 
Q 2541 3569 2628 3553 
L 2631 2963 
z
" transform="scale(0.015625)"/>
       <path id="DejaVuSans-63" d="M 3122 3366 
L 3122 2828 
Q 2878 2963 2633 3030 
Q 2388 3097 2138 3097 
Q 1578 3097 1268 2742 
Q 959 2388 959 1747 
Q 959 1106 1268 751 
Q 1578 397 2138 397 
Q 2388 397 2633 464 
Q 2878 531 3122 666 
L 3122 134 
Q 2881 22 2623 -34 
Q 2366 -91 2075 -91 
Q 1284 -91 818 406 
Q 353 903 353 1747 
Q 353 2603 823 3093 
Q 1294 3584 2113 3584 
Q 2378 3584 2631 3529 
Q 2884 3475 3122 3366 
z
" transform="scale(0.015625)"/>
       <path id="DejaVuSans-6e" d="M 3513 2113 
L 3513 0 
L 2938 0 
L 2938 2094 
Q 2938 2591 2744 2837 
Q 2550 3084 2163 3084 
Q 1697 3084 1428 2787 
Q 1159 2491 1159 1978 
L 1159 0 
L 581 0 
L 581 3500 
L 1159 3500 
L 1159 2956 
Q 1366 3272 1645 3428 
Q 1925 3584 2291 3584 
Q 2894 3584 3203 3211 
Q 3513 2838 3513 2113 
z
" transform="scale(0.015625)"/>
       <path id="DejaVuSans-74" d="M 1172 4494 
L 1172 3500 
L 2356 3500 
L 2356 3053 
L 1172 3053 
L 1172 1153 
Q 1172 725 1289 603 
Q 1406 481 1766 481 
L 2356 481 
L 2356 0 
L 1766 0 
Q 1100 0 847 248 
Q 594 497 594 1153 
L 594 3053 
L 172 3053 
L 172 3500 
L 594 3500 
L 594 4494 
L 1172 4494 
z
" transform="scale(0.015625)"/>
       <path id="DejaVuSans-61" d="M 2194 1759 
Q 1497 1759 1228 1600 
Q 959 1441 959 1056 
Q 959 750 1161 570 
Q 1363 391 1709 391 
Q 2188 391 2477 730 
Q 2766 1069 2766 1631 
L 2766 1759 
L 2194 1759 
z
M 3341 1997 
L 3341 0 
L 2766 0 
L 2766 531 
Q 2569 213 2275 61 
Q 1981 -91 1556 -91 
Q 1019 -91 701 211 
Q 384 513 384 1019 
Q 384 1609 779 1909 
Q 1175 2209 1959 2209 
L 2766 2209 
L 2766 2266 
Q 2766 2663 2505 2880 
Q 2244 3097 1772 3097 
Q 1472 3097 1187 3025 
Q 903 2953 641 2809 
L 641 3341 
Q 956 3463 1253 3523 
Q 1550 3584 1831 3584 
Q 2591 3584 2966 3190 
Q 3341 2797 3341 1997 
z
" transform="scale(0.015625)"/>
       <path id="DejaVuSans-67" d="M 2906 1791 
Q 2906 2416 2648 2759 
Q 2391 3103 1925 3103 
Q 1463 3103 1205 2759 
Q 947 2416 947 1791 
Q 947 1169 1205 825 
Q 1463 481 1925 481 
Q 2391 481 2648 825 
Q 2906 1169 2906 1791 
z
M 3481 434 
Q 3481 -459 3084 -895 
Q 2688 -1331 1869 -1331 
Q 1566 -1331 1297 -1286 
Q 1028 -1241 775 -1147 
L 775 -588 
Q 1028 -725 1275 -790 
Q 1522 -856 1778 -856 
Q 2344 -856 2625 -561 
Q 2906 -266 2906 331 
L 2906 616 
Q 2728 306 2450 153 
Q 2172 0 1784 0 
Q 1141 0 747 490 
Q 353 981 353 1791 
Q 353 2603 747 3093 
Q 1141 3584 1784 3584 
Q 2172 3584 2450 3431 
Q 2728 3278 2906 2969 
L 2906 3500 
L 3481 3500 
L 3481 434 
z
" transform="scale(0.015625)"/>
      </defs>
      <use xlink:href="#DejaVuSans-50"/>
      <use xlink:href="#DejaVuSans-65" x="56.677734"/>
      <use xlink:href="#DejaVuSans-72" x="118.201172"/>
      <use xlink:href="#DejaVuSans-63" x="157.064453"/>
      <use xlink:href="#DejaVuSans-65" x="212.044922"/>
      <use xlink:href="#DejaVuSans-6e" x="273.568359"/>
      <use xlink:href="#DejaVuSans-74" x="336.947266"/>
      <use xlink:href="#DejaVuSans-61" x="376.15625"/>
      <use xlink:href="#DejaVuSans-67" x="437.435547"/>
      <use xlink:href="#DejaVuSans-65" x="500.912109"/>
     </g>
    </g>
   </g>
   <g id="matplotlib.axis_2">
    <g id="ytick_1">
     <g id="line2d_5">
      <defs>
       <path id="m812e9dcf57" d="M 0 0 
L -4.8 0 
" style="stroke: #000000"/>
      </defs>
      <g>
       <use xlink:href="#m812e9dcf57" x="66.0715" y="252.622839" style="stroke: #000000"/>
      </g>
     </g>
     <g id="text_6">
      <!-- 0.4 -->
      <g transform="translate(29.782 259.309464) scale(0.176 -0.176)">
       <defs>
        <path id="DejaVuSans-34" d="M 2419 4116 
L 825 1625 
L 2419 1625 
L 2419 4116 
z
M 2253 4666 
L 3047 4666 
L 3047 1625 
L 3713 1625 
L 3713 1100 
L 3047 1100 
L 3047 0 
L 2419 0 
L 2419 1100 
L 313 1100 
L 313 1709 
L 2253 4666 
z
" transform="scale(0.015625)"/>
       </defs>
       <use xlink:href="#DejaVuSans-30"/>
       <use xlink:href="#DejaVuSans-2e" x="63.623047"/>
       <use xlink:href="#DejaVuSans-34" x="95.410156"/>
      </g>
     </g>
    </g>
    <g id="ytick_2">
     <g id="line2d_6">
      <g>
       <use xlink:href="#m812e9dcf57" x="66.0715" y="214.274814" style="stroke: #000000"/>
      </g>
     </g>
     <g id="text_7">
      <!-- 0.5 -->
      <g transform="translate(29.782 220.961439) scale(0.176 -0.176)">
       <defs>
        <path id="DejaVuSans-35" d="M 691 4666 
L 3169 4666 
L 3169 4134 
L 1269 4134 
L 1269 2991 
Q 1406 3038 1543 3061 
Q 1681 3084 1819 3084 
Q 2600 3084 3056 2656 
Q 3513 2228 3513 1497 
Q 3513 744 3044 326 
Q 2575 -91 1722 -91 
Q 1428 -91 1123 -41 
Q 819 9 494 109 
L 494 744 
Q 775 591 1075 516 
Q 1375 441 1709 441 
Q 2250 441 2565 725 
Q 2881 1009 2881 1497 
Q 2881 1984 2565 2268 
Q 2250 2553 1709 2553 
Q 1456 2553 1204 2497 
Q 953 2441 691 2322 
L 691 4666 
z
" transform="scale(0.015625)"/>
       </defs>
       <use xlink:href="#DejaVuSans-30"/>
       <use xlink:href="#DejaVuSans-2e" x="63.623047"/>
       <use xlink:href="#DejaVuSans-35" x="95.410156"/>
      </g>
     </g>
    </g>
    <g id="ytick_3">
     <g id="line2d_7">
      <g>
       <use xlink:href="#m812e9dcf57" x="66.0715" y="175.92679" style="stroke: #000000"/>
      </g>
     </g>
     <g id="text_8">
      <!-- 0.6 -->
      <g transform="translate(29.782 182.613415) scale(0.176 -0.176)">
       <defs>
        <path id="DejaVuSans-36" d="M 2113 2584 
Q 1688 2584 1439 2293 
Q 1191 2003 1191 1497 
Q 1191 994 1439 701 
Q 1688 409 2113 409 
Q 2538 409 2786 701 
Q 3034 994 3034 1497 
Q 3034 2003 2786 2293 
Q 2538 2584 2113 2584 
z
M 3366 4563 
L 3366 3988 
Q 3128 4100 2886 4159 
Q 2644 4219 2406 4219 
Q 1781 4219 1451 3797 
Q 1122 3375 1075 2522 
Q 1259 2794 1537 2939 
Q 1816 3084 2150 3084 
Q 2853 3084 3261 2657 
Q 3669 2231 3669 1497 
Q 3669 778 3244 343 
Q 2819 -91 2113 -91 
Q 1303 -91 875 529 
Q 447 1150 447 2328 
Q 447 3434 972 4092 
Q 1497 4750 2381 4750 
Q 2619 4750 2861 4703 
Q 3103 4656 3366 4563 
z
" transform="scale(0.015625)"/>
       </defs>
       <use xlink:href="#DejaVuSans-30"/>
       <use xlink:href="#DejaVuSans-2e" x="63.623047"/>
       <use xlink:href="#DejaVuSans-36" x="95.410156"/>
      </g>
     </g>
    </g>
    <g id="ytick_4">
     <g id="line2d_8">
      <g>
       <use xlink:href="#m812e9dcf57" x="66.0715" y="137.578765" style="stroke: #000000"/>
      </g>
     </g>
     <g id="text_9">
      <!-- 0.7 -->
      <g transform="translate(29.782 144.26539) scale(0.176 -0.176)">
       <defs>
        <path id="DejaVuSans-37" d="M 525 4666 
L 3525 4666 
L 3525 4397 
L 1831 0 
L 1172 0 
L 2766 4134 
L 525 4134 
L 525 4666 
z
" transform="scale(0.015625)"/>
       </defs>
       <use xlink:href="#DejaVuSans-30"/>
       <use xlink:href="#DejaVuSans-2e" x="63.623047"/>
       <use xlink:href="#DejaVuSans-37" x="95.410156"/>
      </g>
     </g>
    </g>
    <g id="ytick_5">
     <g id="line2d_9">
      <g>
       <use xlink:href="#m812e9dcf57" x="66.0715" y="99.230741" style="stroke: #000000"/>
      </g>
     </g>
     <g id="text_10">
      <!-- 0.8 -->
      <g transform="translate(29.782 105.917366) scale(0.176 -0.176)">
       <defs>
        <path id="DejaVuSans-38" d="M 2034 2216 
Q 1584 2216 1326 1975 
Q 1069 1734 1069 1313 
Q 1069 891 1326 650 
Q 1584 409 2034 409 
Q 2484 409 2743 651 
Q 3003 894 3003 1313 
Q 3003 1734 2745 1975 
Q 2488 2216 2034 2216 
z
M 1403 2484 
Q 997 2584 770 2862 
Q 544 3141 544 3541 
Q 544 4100 942 4425 
Q 1341 4750 2034 4750 
Q 2731 4750 3128 4425 
Q 3525 4100 3525 3541 
Q 3525 3141 3298 2862 
Q 3072 2584 2669 2484 
Q 3125 2378 3379 2068 
Q 3634 1759 3634 1313 
Q 3634 634 3220 271 
Q 2806 -91 2034 -91 
Q 1263 -91 848 271 
Q 434 634 434 1313 
Q 434 1759 690 2068 
Q 947 2378 1403 2484 
z
M 1172 3481 
Q 1172 3119 1398 2916 
Q 1625 2713 2034 2713 
Q 2441 2713 2670 2916 
Q 2900 3119 2900 3481 
Q 2900 3844 2670 4047 
Q 2441 4250 2034 4250 
Q 1625 4250 1398 4047 
Q 1172 3844 1172 3481 
z
" transform="scale(0.015625)"/>
       </defs>
       <use xlink:href="#DejaVuSans-30"/>
       <use xlink:href="#DejaVuSans-2e" x="63.623047"/>
       <use xlink:href="#DejaVuSans-38" x="95.410156"/>
      </g>
     </g>
    </g>
    <g id="ytick_6">
     <g id="line2d_10">
      <g>
       <use xlink:href="#m812e9dcf57" x="66.0715" y="60.882716" style="stroke: #000000"/>
      </g>
     </g>
     <g id="text_11">
      <!-- 0.9 -->
      <g transform="translate(29.782 67.569341) scale(0.176 -0.176)">
       <defs>
        <path id="DejaVuSans-39" d="M 703 97 
L 703 672 
Q 941 559 1184 500 
Q 1428 441 1663 441 
Q 2288 441 2617 861 
Q 2947 1281 2994 2138 
Q 2813 1869 2534 1725 
Q 2256 1581 1919 1581 
Q 1219 1581 811 2004 
Q 403 2428 403 3163 
Q 403 3881 828 4315 
Q 1253 4750 1959 4750 
Q 2769 4750 3195 4129 
Q 3622 3509 3622 2328 
Q 3622 1225 3098 567 
Q 2575 -91 1691 -91 
Q 1453 -91 1209 -44 
Q 966 3 703 97 
z
M 1959 2075 
Q 2384 2075 2632 2365 
Q 2881 2656 2881 3163 
Q 2881 3666 2632 3958 
Q 2384 4250 1959 4250 
Q 1534 4250 1286 3958 
Q 1038 3666 1038 3163 
Q 1038 2656 1286 2365 
Q 1534 2075 1959 2075 
z
" transform="scale(0.015625)"/>
       </defs>
       <use xlink:href="#DejaVuSans-30"/>
       <use xlink:href="#DejaVuSans-2e" x="63.623047"/>
       <use xlink:href="#DejaVuSans-39" x="95.410156"/>
      </g>
     </g>
    </g>
    <g id="text_12">
     <!-- Precision -->
     <g transform="translate(21.789 196.8285) rotate(-90) scale(0.192 -0.192)">
      <defs>
       <path id="DejaVuSans-69" d="M 603 3500 
L 1178 3500 
L 1178 0 
L 603 0 
L 603 3500 
z
M 603 4863 
L 1178 4863 
L 1178 4134 
L 603 4134 
L 603 4863 
z
" transform="scale(0.015625)"/>
       <path id="DejaVuSans-73" d="M 2834 3397 
L 2834 2853 
Q 2591 2978 2328 3040 
Q 2066 3103 1784 3103 
Q 1356 3103 1142 2972 
Q 928 2841 928 2578 
Q 928 2378 1081 2264 
Q 1234 2150 1697 2047 
L 1894 2003 
Q 2506 1872 2764 1633 
Q 3022 1394 3022 966 
Q 3022 478 2636 193 
Q 2250 -91 1575 -91 
Q 1294 -91 989 -36 
Q 684 19 347 128 
L 347 722 
Q 666 556 975 473 
Q 1284 391 1588 391 
Q 1994 391 2212 530 
Q 2431 669 2431 922 
Q 2431 1156 2273 1281 
Q 2116 1406 1581 1522 
L 1381 1569 
Q 847 1681 609 1914 
Q 372 2147 372 2553 
Q 372 3047 722 3315 
Q 1072 3584 1716 3584 
Q 2034 3584 2315 3537 
Q 2597 3491 2834 3397 
z
" transform="scale(0.015625)"/>
       <path id="DejaVuSans-6f" d="M 1959 3097 
Q 1497 3097 1228 2736 
Q 959 2375 959 1747 
Q 959 1119 1226 758 
Q 1494 397 1959 397 
Q 2419 397 2687 759 
Q 2956 1122 2956 1747 
Q 2956 2369 2687 2733 
Q 2419 3097 1959 3097 
z
M 1959 3584 
Q 2709 3584 3137 3096 
Q 3566 2609 3566 1747 
Q 3566 888 3137 398 
Q 2709 -91 1959 -91 
Q 1206 -91 779 398 
Q 353 888 353 1747 
Q 353 2609 779 3096 
Q 1206 3584 1959 3584 
z
" transform="scale(0.015625)"/>
      </defs>
      <use xlink:href="#DejaVuSans-50"/>
      <use xlink:href="#DejaVuSans-72" x="58.552734"/>
      <use xlink:href="#DejaVuSans-65" x="97.416016"/>
      <use xlink:href="#DejaVuSans-63" x="158.939453"/>
      <use xlink:href="#DejaVuSans-69" x="213.919922"/>
      <use xlink:href="#DejaVuSans-73" x="241.703125"/>
      <use xlink:href="#DejaVuSans-69" x="293.802734"/>
      <use xlink:href="#DejaVuSans-6f" x="321.585938"/>
      <use xlink:href="#DejaVuSans-6e" x="382.767578"/>
     </g>
    </g>
   </g>
   <g id="line2d_11">
    <path d="M 79.380414 242.207326 
L 84.050209 245.521353 
L 88.720003 245.047921 
L 93.389798 247.533441 
L 98.059592 248.730173 
L 102.729387 249.524009 
L 107.399181 250.729109 
L 112.068976 252.825739 
L 116.73877 253.747241 
L 121.408565 254.238079 
L 126.078359 253.021519 
L 130.748154 252.859555 
L 135.417948 252.5798 
L 140.087743 252.583386 
L 144.757537 253.03946 
L 149.427332 253.639842 
L 154.097126 254.777773 
L 158.766921 255.048772 
L 163.436715 255.616891 
L 168.10651 255.401694 
L 172.776304 256.252643 
L 177.446099 257.374989 
L 182.115893 257.202586 
L 186.785688 257.479171 
L 191.455482 257.404114 
L 196.125276 258.075549 
L 200.795071 258.59251 
L 205.464865 258.563235 
L 210.13466 258.686465 
L 214.804454 258.813615 
L 219.474249 258.900504 
L 224.144043 259.649294 
L 228.813838 259.896431 
L 233.483632 260.269279 
L 238.153427 260.720699 
L 242.823221 260.747539 
L 247.493016 261.528179 
L 252.16281 261.679897 
L 256.832605 261.938665 
L 261.502399 262.144544 
L 266.172194 262.24711 
L 270.841988 262.228734 
L 275.511783 262.32006 
L 280.181577 262.402299 
L 284.851372 262.534768 
L 289.521166 262.685072 
L 294.190961 262.891986 
L 298.860755 263.182812 
L 303.53055 263.24274 
L 308.200344 263.355093 
L 312.870139 263.351894 
L 317.539933 263.410833 
L 322.209728 263.517982 
L 326.879522 263.572894 
L 331.549317 263.659964 
L 336.219111 263.748744 
L 340.888906 263.750183 
L 345.5587 263.789034 
" clip-path="url(#p85acf7efac)" style="fill: none; stroke: #1f77b4; stroke-width: 1.2; stroke-linecap: square"/>
   </g>
   <g id="line2d_12">
    <path d="M 79.380414 237.157381 
L 84.050209 240.313597 
L 88.720003 243.785434 
L 93.389798 243.982698 
L 98.059592 244.31147 
L 102.729387 246.425179 
L 107.399181 248.125231 
L 112.068976 248.970646 
L 116.73877 248.83538 
L 121.408565 249.559453 
L 126.078359 250.33043 
L 130.748154 250.350364 
L 135.417948 251.417738 
L 140.087743 252.425576 
L 144.757537 253.380331 
L 149.427332 254.306154 
L 154.097126 254.353316 
L 158.766921 254.481741 
L 163.436715 255.264878 
L 168.10651 255.692581 
L 172.776304 256.204134 
L 177.446099 256.237767 
L 182.115893 256.698404 
L 186.785688 257.389865 
L 191.455482 257.770343 
L 196.125276 258.605087 
L 200.795071 258.827468 
L 205.464865 259.009522 
L 210.13466 259.609177 
L 214.804454 260.117843 
L 219.474249 260.375168 
L 224.144043 260.633151 
L 228.813838 260.8257 
L 233.483632 261.343231 
L 238.153427 261.488501 
L 242.823221 261.582579 
L 247.493016 261.779665 
L 252.16281 261.929881 
L 256.832605 262.217512 
L 261.502399 262.650905 
L 266.172194 262.849614 
L 270.841988 263.247623 
L 275.511783 263.478702 
L 280.181577 263.652998 
L 284.851372 263.821696 
L 289.521166 264.084259 
L 294.190961 264.384766 
L 298.860755 264.70641 
L 303.53055 264.679892 
L 308.200344 264.750821 
L 312.870139 264.779481 
L 317.539933 264.867405 
L 322.209728 264.949069 
L 326.879522 264.992479 
L 331.549317 264.984137 
L 336.219111 265.034602 
L 340.888906 265.037479 
L 345.5587 265.087049 
" clip-path="url(#p85acf7efac)" style="fill: none; stroke: #ff7f0e; stroke-width: 1.2; stroke-linecap: square"/>
   </g>
   <g id="line2d_13">
    <path d="M 79.380414 183.186087 
L 84.050209 187.289168 
L 88.720003 191.865681 
L 93.389798 198.296471 
L 98.059592 200.124446 
L 102.729387 205.107442 
L 107.399181 208.278004 
L 112.068976 212.110552 
L 116.73877 215.399216 
L 121.408565 217.08756 
L 126.078359 219.980921 
L 130.748154 221.80239 
L 135.417948 223.097873 
L 140.087743 225.637192 
L 144.757537 226.527245 
L 149.427332 228.986288 
L 154.097126 230.387841 
L 158.766921 231.094181 
L 163.436715 232.39612 
L 168.10651 233.002257 
L 172.776304 234.976327 
L 177.446099 235.879321 
L 182.115893 236.278674 
L 186.785688 236.965151 
L 191.455482 237.596202 
L 196.125276 238.698423 
L 200.795071 239.661669 
L 205.464865 240.337282 
L 210.13466 241.027577 
L 214.804454 241.973153 
L 219.474249 242.713564 
L 224.144043 243.810695 
L 228.813838 244.392643 
L 233.483632 244.928995 
L 238.153427 245.610042 
L 242.823221 245.779106 
L 247.493016 246.552151 
L 252.16281 246.811024 
L 256.832605 247.258382 
L 261.502399 247.702631 
L 266.172194 247.910548 
L 270.841988 248.062157 
L 275.511783 248.341263 
L 280.181577 248.58687 
L 284.851372 248.843247 
L 289.521166 248.93435 
L 294.190961 249.21491 
L 298.860755 249.406008 
L 303.53055 249.444212 
L 308.200344 249.597329 
L 312.870139 249.737008 
L 317.539933 249.891379 
L 322.209728 249.961781 
L 326.879522 250.039078 
L 331.549317 250.151999 
L 336.219111 250.218727 
L 340.888906 250.25403 
L 345.5587 250.287207 
" clip-path="url(#p85acf7efac)" style="fill: none; stroke: #2ca02c; stroke-width: 1.2; stroke-linecap: square"/>
   </g>
   <g id="line2d_14"/>
   <g id="line2d_15"/>
   <g id="line2d_16"/>
   <g id="patch_3">
    <path d="M 66.0715 280.209 
L 66.0715 27.789 
" style="fill: none; stroke: #000000; stroke-linejoin: miter; stroke-linecap: square"/>
   </g>
   <g id="patch_4">
    <path d="M 66.0715 280.209 
L 358.867614 280.209 
" style="fill: none; stroke: #000000; stroke-linejoin: miter; stroke-linecap: square"/>
   </g>
   <g id="text_13">
    <!-- Group 1 -->
    <g transform="translate(174.089057 21.789) scale(0.192 -0.192)">
     <defs>
      <path id="DejaVuSans-47" d="M 3809 666 
L 3809 1919 
L 2778 1919 
L 2778 2438 
L 4434 2438 
L 4434 434 
Q 4069 175 3628 42 
Q 3188 -91 2688 -91 
Q 1594 -91 976 548 
Q 359 1188 359 2328 
Q 359 3472 976 4111 
Q 1594 4750 2688 4750 
Q 3144 4750 3555 4637 
Q 3966 4525 4313 4306 
L 4313 3634 
Q 3963 3931 3569 4081 
Q 3175 4231 2741 4231 
Q 1884 4231 1454 3753 
Q 1025 3275 1025 2328 
Q 1025 1384 1454 906 
Q 1884 428 2741 428 
Q 3075 428 3337 486 
Q 3600 544 3809 666 
z
" transform="scale(0.015625)"/>
      <path id="DejaVuSans-75" d="M 544 1381 
L 544 3500 
L 1119 3500 
L 1119 1403 
Q 1119 906 1312 657 
Q 1506 409 1894 409 
Q 2359 409 2629 706 
Q 2900 1003 2900 1516 
L 2900 3500 
L 3475 3500 
L 3475 0 
L 2900 0 
L 2900 538 
Q 2691 219 2414 64 
Q 2138 -91 1772 -91 
Q 1169 -91 856 284 
Q 544 659 544 1381 
z
M 1991 3584 
L 1991 3584 
z
" transform="scale(0.015625)"/>
      <path id="DejaVuSans-70" d="M 1159 525 
L 1159 -1331 
L 581 -1331 
L 581 3500 
L 1159 3500 
L 1159 2969 
Q 1341 3281 1617 3432 
Q 1894 3584 2278 3584 
Q 2916 3584 3314 3078 
Q 3713 2572 3713 1747 
Q 3713 922 3314 415 
Q 2916 -91 2278 -91 
Q 1894 -91 1617 61 
Q 1341 213 1159 525 
z
M 3116 1747 
Q 3116 2381 2855 2742 
Q 2594 3103 2138 3103 
Q 1681 3103 1420 2742 
Q 1159 2381 1159 1747 
Q 1159 1113 1420 752 
Q 1681 391 2138 391 
Q 2594 391 2855 752 
Q 3116 1113 3116 1747 
z
" transform="scale(0.015625)"/>
      <path id="DejaVuSans-20" transform="scale(0.015625)"/>
     </defs>
     <use xlink:href="#DejaVuSans-47"/>
     <use xlink:href="#DejaVuSans-72" x="77.490234"/>
     <use xlink:href="#DejaVuSans-6f" x="116.353516"/>
     <use xlink:href="#DejaVuSans-75" x="177.535156"/>
     <use xlink:href="#DejaVuSans-70" x="240.914062"/>
     <use xlink:href="#DejaVuSans-20" x="304.390625"/>
     <use xlink:href="#DejaVuSans-31" x="336.177734"/>
    </g>
   </g>
  </g>
  <g id="axes_2">
   <g id="patch_5">
    <path d="M 394.250381 280.209 
L 687.046495 280.209 
L 687.046495 27.789 
L 394.250381 27.789 
z
" style="fill: #ffffff"/>
   </g>
   <g id="PolyCollection_4">
    <defs>
     <path id="m1890e774f7" d="M 407.559295 -266.709055 
L 407.559295 -252.18257 
L 412.229089 -230.597209 
L 416.898884 -218.644394 
L 421.568678 -206.422699 
L 426.238473 -202.434867 
L 430.908267 -197.272302 
L 435.578062 -190.265503 
L 440.247856 -181.67549 
L 444.917651 -173.051251 
L 449.587445 -167.919493 
L 454.25724 -164.089837 
L 458.927034 -161.328367 
L 463.596829 -158.449969 
L 468.266623 -155.185794 
L 472.936418 -153.652608 
L 477.606212 -150.935106 
L 482.276007 -148.313126 
L 486.945801 -146.14418 
L 491.615596 -143.284714 
L 496.28539 -140.446957 
L 500.955185 -137.545909 
L 505.624979 -134.321159 
L 510.294774 -131.582136 
L 514.964568 -129.404559 
L 519.634363 -126.786084 
L 524.304157 -124.822549 
L 528.973952 -123.903492 
L 533.643746 -122.68446 
L 538.313541 -121.334913 
L 542.983335 -120.485827 
L 547.65313 -119.585993 
L 552.322924 -118.147537 
L 556.992719 -117.406747 
L 561.662513 -116.587217 
L 566.332307 -115.509714 
L 571.002102 -114.90744 
L 575.671896 -113.805642 
L 580.341691 -113.278403 
L 585.011485 -112.983067 
L 589.68128 -112.419809 
L 594.351074 -112.377139 
L 599.020869 -111.979509 
L 603.690663 -111.64416 
L 608.360458 -111.47081 
L 613.030252 -111.459595 
L 617.700047 -111.041939 
L 622.369841 -110.956507 
L 627.039636 -111.059661 
L 631.70943 -111.202863 
L 636.379225 -111.063986 
L 641.049019 -110.875649 
L 645.718814 -110.820865 
L 650.388608 -111.046872 
L 655.058403 -110.813591 
L 659.728197 -110.685421 
L 664.397992 -110.846357 
L 669.067786 -110.839027 
L 673.737581 -110.692271 
L 673.737581 -115.880923 
L 673.737581 -115.880923 
L 669.067786 -116.009015 
L 664.397992 -116.258587 
L 659.728197 -116.111555 
L 655.058403 -116.14105 
L 650.388608 -115.935947 
L 645.718814 -116.015576 
L 641.049019 -116.10459 
L 636.379225 -116.122072 
L 631.70943 -116.164474 
L 627.039636 -116.385106 
L 622.369841 -116.477767 
L 617.700047 -116.47061 
L 613.030252 -116.487528 
L 608.360458 -116.67304 
L 603.690663 -116.999049 
L 599.020869 -117.294074 
L 594.351074 -118.030955 
L 589.68128 -118.301655 
L 585.011485 -118.797755 
L 580.341691 -119.234362 
L 575.671896 -119.740487 
L 571.002102 -120.902978 
L 566.332307 -121.997173 
L 561.662513 -122.994893 
L 556.992719 -123.650449 
L 552.322924 -124.79704 
L 547.65313 -125.999104 
L 542.983335 -127.243955 
L 538.313541 -128.360749 
L 533.643746 -129.783111 
L 528.973952 -130.89014 
L 524.304157 -132.06453 
L 519.634363 -133.855871 
L 514.964568 -136.372151 
L 510.294774 -138.965101 
L 505.624979 -141.784848 
L 500.955185 -145.085378 
L 496.28539 -147.782275 
L 491.615596 -150.60944 
L 486.945801 -153.953276 
L 482.276007 -155.833043 
L 477.606212 -158.688301 
L 472.936418 -161.545515 
L 468.266623 -163.0562 
L 463.596829 -166.657884 
L 458.927034 -169.624797 
L 454.25724 -172.450036 
L 449.587445 -176.442404 
L 444.917651 -182.223381 
L 440.247856 -190.424242 
L 435.578062 -199.421685 
L 430.908267 -206.522443 
L 426.238473 -212.340365 
L 421.568678 -217.159093 
L 416.898884 -230.547837 
L 412.229089 -243.858051 
L 407.559295 -266.709055 
z
" style="stroke: #1f77b4; stroke-opacity: 0.2; stroke-width: 0.8"/>
    </defs>
    <g clip-path="url(#pa5c768163b)">
     <use xlink:href="#m1890e774f7" x="0" y="335.3245" style="fill: #1f77b4; fill-opacity: 0.2; stroke: #1f77b4; stroke-opacity: 0.2; stroke-width: 0.8"/>
    </g>
   </g>
   <g id="PolyCollection_5">
    <defs>
     <path id="mcc6aa3804f" d="M 407.559295 -265.446568 
L 407.559295 -250.612353 
L 412.229089 -232.685046 
L 416.898884 -219.320726 
L 421.568678 -206.109707 
L 426.238473 -201.229767 
L 430.908267 -196.325438 
L 435.578062 -189.567979 
L 440.247856 -181.174208 
L 444.917651 -173.648025 
L 449.587445 -168.684876 
L 454.25724 -164.831891 
L 458.927034 -162.351928 
L 463.596829 -157.887987 
L 468.266623 -154.499317 
L 472.936418 -153.905105 
L 477.606212 -151.34862 
L 482.276007 -148.48022 
L 486.945801 -146.452672 
L 491.615596 -143.128746 
L 496.28539 -140.591936 
L 500.955185 -137.594231 
L 505.624979 -134.347258 
L 510.294774 -131.866247 
L 514.964568 -129.512992 
L 519.634363 -127.449321 
L 524.304157 -126.030236 
L 528.973952 -124.053578 
L 533.643746 -122.72265 
L 538.313541 -121.330345 
L 542.983335 -120.736501 
L 547.65313 -119.666635 
L 552.322924 -118.34581 
L 556.992719 -117.583875 
L 561.662513 -116.41847 
L 566.332307 -115.789093 
L 571.002102 -115.19731 
L 575.671896 -114.749799 
L 580.341691 -113.727016 
L 585.011485 -113.386667 
L 589.68128 -113.065687 
L 594.351074 -112.804635 
L 599.020869 -112.306782 
L 603.690663 -112.094954 
L 608.360458 -111.841847 
L 613.030252 -111.417136 
L 617.700047 -111.572245 
L 622.369841 -111.34477 
L 627.039636 -111.001894 
L 631.70943 -111.048619 
L 636.379225 -111.045898 
L 641.049019 -111.033153 
L 645.718814 -110.944159 
L 650.388608 -111.002412 
L 655.058403 -111.083012 
L 659.728197 -110.935458 
L 664.397992 -110.890778 
L 669.067786 -111.048689 
L 673.737581 -110.948436 
L 673.737581 -116.260542 
L 673.737581 -116.260542 
L 669.067786 -116.140018 
L 664.397992 -116.142372 
L 659.728197 -116.192883 
L 655.058403 -116.197109 
L 650.388608 -116.365866 
L 645.718814 -116.231063 
L 641.049019 -116.43784 
L 636.379225 -116.274851 
L 631.70943 -116.252715 
L 627.039636 -116.463379 
L 622.369841 -116.76899 
L 617.700047 -116.714424 
L 613.030252 -117.029407 
L 608.360458 -117.258213 
L 603.690663 -117.547645 
L 599.020869 -117.914047 
L 594.351074 -118.547228 
L 589.68128 -119.042434 
L 585.011485 -119.159752 
L 580.341691 -119.623136 
L 575.671896 -120.501761 
L 571.002102 -121.45149 
L 566.332307 -122.180865 
L 561.662513 -123.006862 
L 556.992719 -123.682294 
L 552.322924 -124.924548 
L 547.65313 -126.072298 
L 542.983335 -127.35412 
L 538.313541 -128.682968 
L 533.643746 -129.810673 
L 528.973952 -131.348999 
L 524.304157 -133.138615 
L 519.634363 -134.611805 
L 514.964568 -136.88539 
L 510.294774 -139.51859 
L 505.624979 -141.972624 
L 500.955185 -144.995677 
L 496.28539 -148.185359 
L 491.615596 -150.75359 
L 486.945801 -154.074219 
L 482.276007 -156.278626 
L 477.606212 -159.339271 
L 472.936418 -161.449251 
L 468.266623 -162.794179 
L 463.596829 -165.955626 
L 458.927034 -170.382289 
L 454.25724 -173.271338 
L 449.587445 -177.524535 
L 444.917651 -182.37164 
L 440.247856 -190.254363 
L 435.578062 -198.410118 
L 430.908267 -205.2114 
L 426.238473 -210.874876 
L 421.568678 -216.420013 
L 416.898884 -231.498083 
L 412.229089 -245.562407 
L 407.559295 -265.446568 
z
" style="stroke: #ff7f0e; stroke-opacity: 0.2; stroke-width: 0.8"/>
    </defs>
    <g clip-path="url(#pa5c768163b)">
     <use xlink:href="#mcc6aa3804f" x="0" y="335.3245" style="fill: #ff7f0e; fill-opacity: 0.2; stroke: #ff7f0e; stroke-opacity: 0.2; stroke-width: 0.8"/>
    </g>
   </g>
   <g id="PolyCollection_6">
    <defs>
     <path id="mea1f1e0d92" d="M 407.559295 -296.061864 
L 407.559295 -285.954082 
L 412.229089 -264.120958 
L 416.898884 -256.380338 
L 421.568678 -245.878029 
L 426.238473 -238.245725 
L 430.908267 -230.41257 
L 435.578062 -223.593566 
L 440.247856 -216.43239 
L 444.917651 -208.982279 
L 449.587445 -202.905021 
L 454.25724 -197.066462 
L 458.927034 -191.286223 
L 463.596829 -187.032135 
L 468.266623 -183.134631 
L 472.936418 -181.269498 
L 477.606212 -177.564199 
L 482.276007 -174.572611 
L 486.945801 -171.099773 
L 491.615596 -168.302251 
L 496.28539 -165.53319 
L 500.955185 -162.746159 
L 505.624979 -160.149188 
L 510.294774 -157.582621 
L 514.964568 -155.182086 
L 519.634363 -152.810059 
L 524.304157 -150.344571 
L 528.973952 -148.332521 
L 533.643746 -146.436382 
L 538.313541 -143.922741 
L 542.983335 -143.300543 
L 547.65313 -141.831543 
L 552.322924 -140.254244 
L 556.992719 -138.798745 
L 561.662513 -137.427648 
L 566.332307 -136.257738 
L 571.002102 -135.628243 
L 575.671896 -135.060263 
L 580.341691 -134.237359 
L 585.011485 -133.762364 
L 589.68128 -132.955951 
L 594.351074 -132.671648 
L 599.020869 -132.174956 
L 603.690663 -131.951366 
L 608.360458 -131.666169 
L 613.030252 -131.739685 
L 617.700047 -131.433826 
L 622.369841 -131.250537 
L 627.039636 -131.162651 
L 631.70943 -131.149479 
L 636.379225 -131.058008 
L 641.049019 -131.142163 
L 645.718814 -130.980568 
L 650.388608 -131.042088 
L 655.058403 -130.947435 
L 659.728197 -131.081837 
L 664.397992 -131.120627 
L 669.067786 -131.036457 
L 673.737581 -130.832629 
L 673.737581 -136.046539 
L 673.737581 -136.046539 
L 669.067786 -135.823794 
L 664.397992 -136.149205 
L 659.728197 -135.946699 
L 655.058403 -135.866225 
L 650.388608 -136.126156 
L 645.718814 -136.068332 
L 641.049019 -136.072789 
L 636.379225 -136.247123 
L 631.70943 -136.217649 
L 627.039636 -136.409994 
L 622.369841 -136.315525 
L 617.700047 -136.487291 
L 613.030252 -136.639671 
L 608.360458 -136.776961 
L 603.690663 -137.244218 
L 599.020869 -137.52962 
L 594.351074 -138.114303 
L 589.68128 -138.470419 
L 585.011485 -139.21124 
L 580.341691 -139.882256 
L 575.671896 -140.703054 
L 571.002102 -141.538168 
L 566.332307 -142.132304 
L 561.662513 -143.534655 
L 556.992719 -144.967415 
L 552.322924 -146.68899 
L 547.65313 -148.210775 
L 542.983335 -149.697877 
L 538.313541 -150.986558 
L 533.643746 -153.279948 
L 528.973952 -155.144955 
L 524.304157 -157.04654 
L 519.634363 -159.444057 
L 514.964568 -161.80914 
L 510.294774 -164.51396 
L 505.624979 -167.323979 
L 500.955185 -170.054537 
L 496.28539 -172.950538 
L 491.615596 -175.875458 
L 486.945801 -178.510622 
L 482.276007 -182.150314 
L 477.606212 -185.55559 
L 472.936418 -189.352567 
L 468.266623 -191.364192 
L 463.596829 -194.571984 
L 458.927034 -199.394226 
L 454.25724 -205.137455 
L 449.587445 -211.52149 
L 444.917651 -218.00615 
L 440.247856 -225.512545 
L 435.578062 -232.6235 
L 430.908267 -240.028711 
L 426.238473 -248.235148 
L 421.568678 -256.401379 
L 416.898884 -266.667348 
L 412.229089 -275.104589 
L 407.559295 -296.061864 
z
" style="stroke: #2ca02c; stroke-opacity: 0.2; stroke-width: 0.8"/>
    </defs>
    <g clip-path="url(#pa5c768163b)">
     <use xlink:href="#mea1f1e0d92" x="0" y="335.3245" style="fill: #2ca02c; fill-opacity: 0.2; stroke: #2ca02c; stroke-opacity: 0.2; stroke-width: 0.8"/>
    </g>
   </g>
   <g id="matplotlib.axis_3">
    <g id="xtick_5">
     <g id="line2d_17">
      <g>
       <use xlink:href="#m8293515eaa" x="398.219706" y="280.209" style="stroke: #000000"/>
      </g>
     </g>
     <g id="text_14">
      <!-- 0.0 -->
      <g transform="translate(384.224956 301.88225) scale(0.176 -0.176)">
       <use xlink:href="#DejaVuSans-30"/>
       <use xlink:href="#DejaVuSans-2e" x="63.623047"/>
       <use xlink:href="#DejaVuSans-30" x="95.410156"/>
      </g>
     </g>
    </g>
    <g id="xtick_6">
     <g id="line2d_18">
      <g>
       <use xlink:href="#m8293515eaa" x="491.615596" y="280.209" style="stroke: #000000"/>
      </g>
     </g>
     <g id="text_15">
      <!-- 0.1 -->
      <g transform="translate(477.620846 301.88225) scale(0.176 -0.176)">
       <use xlink:href="#DejaVuSans-30"/>
       <use xlink:href="#DejaVuSans-2e" x="63.623047"/>
       <use xlink:href="#DejaVuSans-31" x="95.410156"/>
      </g>
     </g>
    </g>
    <g id="xtick_7">
     <g id="line2d_19">
      <g>
       <use xlink:href="#m8293515eaa" x="585.011485" y="280.209" style="stroke: #000000"/>
      </g>
     </g>
     <g id="text_16">
      <!-- 0.2 -->
      <g transform="translate(571.016735 301.88225) scale(0.176 -0.176)">
       <use xlink:href="#DejaVuSans-30"/>
       <use xlink:href="#DejaVuSans-2e" x="63.623047"/>
       <use xlink:href="#DejaVuSans-32" x="95.410156"/>
      </g>
     </g>
    </g>
    <g id="xtick_8">
     <g id="line2d_20">
      <g>
       <use xlink:href="#m8293515eaa" x="678.407375" y="280.209" style="stroke: #000000"/>
      </g>
     </g>
     <g id="text_17">
      <!-- 0.3 -->
      <g transform="translate(664.412625 301.88225) scale(0.176 -0.176)">
       <use xlink:href="#DejaVuSans-30"/>
       <use xlink:href="#DejaVuSans-2e" x="63.623047"/>
       <use xlink:href="#DejaVuSans-33" x="95.410156"/>
      </g>
     </g>
    </g>
    <g id="text_18">
     <!-- Percentage -->
     <g transform="translate(486.652938 324.1315) scale(0.192 -0.192)">
      <use xlink:href="#DejaVuSans-50"/>
      <use xlink:href="#DejaVuSans-65" x="56.677734"/>
      <use xlink:href="#DejaVuSans-72" x="118.201172"/>
      <use xlink:href="#DejaVuSans-63" x="157.064453"/>
      <use xlink:href="#DejaVuSans-65" x="212.044922"/>
      <use xlink:href="#DejaVuSans-6e" x="273.568359"/>
      <use xlink:href="#DejaVuSans-74" x="336.947266"/>
      <use xlink:href="#DejaVuSans-61" x="376.15625"/>
      <use xlink:href="#DejaVuSans-67" x="437.435547"/>
      <use xlink:href="#DejaVuSans-65" x="500.912109"/>
     </g>
    </g>
   </g>
   <g id="matplotlib.axis_4">
    <g id="ytick_7">
     <g id="line2d_21">
      <g>
       <use xlink:href="#m812e9dcf57" x="394.250381" y="252.622839" style="stroke: #000000"/>
      </g>
     </g>
    </g>
    <g id="ytick_8">
     <g id="line2d_22">
      <g>
       <use xlink:href="#m812e9dcf57" x="394.250381" y="214.274814" style="stroke: #000000"/>
      </g>
     </g>
    </g>
    <g id="ytick_9">
     <g id="line2d_23">
      <g>
       <use xlink:href="#m812e9dcf57" x="394.250381" y="175.92679" style="stroke: #000000"/>
      </g>
     </g>
    </g>
    <g id="ytick_10">
     <g id="line2d_24">
      <g>
       <use xlink:href="#m812e9dcf57" x="394.250381" y="137.578765" style="stroke: #000000"/>
      </g>
     </g>
    </g>
    <g id="ytick_11">
     <g id="line2d_25">
      <g>
       <use xlink:href="#m812e9dcf57" x="394.250381" y="99.230741" style="stroke: #000000"/>
      </g>
     </g>
    </g>
    <g id="ytick_12">
     <g id="line2d_26">
      <g>
       <use xlink:href="#m812e9dcf57" x="394.250381" y="60.882716" style="stroke: #000000"/>
      </g>
     </g>
    </g>
   </g>
   <g id="line2d_27">
    <path d="M 407.559295 76.190364 
L 412.229089 97.90513 
L 416.898884 110.457852 
L 421.568678 123.428397 
L 426.238473 127.808842 
L 430.908267 133.463545 
L 435.578062 140.387798 
L 440.247856 149.303179 
L 444.917651 157.637349 
L 449.587445 163.166659 
L 454.25724 167.075662 
L 458.927034 169.942604 
L 463.596829 172.700436 
L 468.266623 176.253295 
L 472.936418 177.788957 
L 477.606212 180.661114 
L 482.276007 183.223219 
L 486.945801 185.292839 
L 491.615596 188.231719 
L 496.28539 191.255457 
L 500.955185 194.099543 
L 505.624979 197.118109 
L 510.294774 200.021392 
L 514.964568 202.409503 
L 519.634363 205.17475 
L 524.304157 206.749388 
L 528.973952 207.849826 
L 533.643746 209.038577 
L 538.313541 210.578101 
L 542.983335 211.363097 
L 547.65313 212.568655 
L 552.322924 213.72802 
L 556.992719 214.725737 
L 561.662513 215.510123 
L 566.332307 216.544685 
L 571.002102 217.392186 
L 575.671896 218.4208 
L 580.341691 219.091021 
L 585.011485 219.437029 
L 589.68128 219.817359 
L 594.351074 220.173319 
L 599.020869 220.674229 
L 603.690663 220.904092 
L 608.360458 221.179853 
L 613.030252 221.385423 
L 617.700047 221.413912 
L 622.369841 221.529607 
L 627.039636 221.555404 
L 631.70943 221.589617 
L 636.379225 221.686245 
L 641.049019 221.742428 
L 645.718814 221.786391 
L 650.388608 221.830223 
L 655.058403 221.844825 
L 659.728197 221.857984 
L 664.397992 221.861172 
L 669.067786 221.861172 
L 673.737581 221.861172 
" clip-path="url(#pa5c768163b)" style="fill: none; stroke: #1f77b4; stroke-width: 1.2; stroke-linecap: square"/>
   </g>
   <g id="line2d_28">
    <path d="M 407.559295 77.137229 
L 412.229089 96.200773 
L 416.898884 109.916786 
L 421.568678 123.954433 
L 426.238473 129.100021 
L 430.908267 134.628917 
L 435.578062 141.271538 
L 440.247856 149.693065 
L 444.917651 157.338339 
L 449.587445 162.129617 
L 454.25724 166.08763 
L 458.927034 168.882116 
L 463.596829 173.366748 
L 468.266623 176.645101 
L 472.936418 177.599584 
L 477.606212 180.010144 
L 482.276007 182.861182 
L 486.945801 185.135779 
L 491.615596 188.408277 
L 496.28539 191.045794 
L 500.955185 193.993007 
L 505.624979 196.890653 
L 510.294774 199.518858 
L 514.964568 202.029616 
L 519.634363 204.147066 
L 524.304157 205.888126 
L 528.973952 207.634619 
L 533.643746 209.085431 
L 538.313541 210.397855 
L 542.983335 211.204433 
L 547.65313 212.543383 
L 552.322924 213.661359 
L 556.992719 214.692364 
L 561.662513 215.536973 
L 566.332307 216.449461 
L 571.002102 217.034133 
L 575.671896 217.78579 
L 580.341691 218.60007 
L 585.011485 218.972156 
L 589.68128 219.376006 
L 594.351074 219.671291 
L 599.020869 220.092343 
L 603.690663 220.502317 
L 608.360458 220.807397 
L 613.030252 220.955867 
L 617.700047 221.114505 
L 622.369841 221.295494 
L 627.039636 221.384025 
L 631.70943 221.498506 
L 636.379225 221.546224 
L 641.049019 221.611878 
L 645.718814 221.637088 
L 650.388608 221.672708 
L 655.058403 221.679236 
L 659.728197 221.702073 
L 664.397992 221.714507 
L 669.067786 221.714507 
L 673.737581 221.714507 
" clip-path="url(#pa5c768163b)" style="fill: none; stroke: #ff7f0e; stroke-width: 1.2; stroke-linecap: square"/>
   </g>
   <g id="line2d_29">
    <path d="M 407.559295 44.312582 
L 412.229089 65.522354 
L 416.898884 73.665391 
L 421.568678 83.975697 
L 426.238473 92.000137 
L 430.908267 100.031934 
L 435.578062 107.121281 
L 440.247856 114.32488 
L 444.917651 122.005331 
L 449.587445 127.997395 
L 454.25724 134.100066 
L 458.927034 139.794429 
L 463.596829 144.504906 
L 468.266623 147.749399 
L 472.936418 149.793321 
L 477.606212 153.645877 
L 482.276007 157.017343 
L 486.945801 160.330883 
L 491.615596 163.211623 
L 496.28539 166.064676 
L 500.955185 168.90428 
L 505.624979 171.481777 
L 510.294774 174.196996 
L 514.964568 176.824871 
L 519.634363 179.307235 
L 524.304157 181.565472 
L 528.973952 183.685382 
L 533.643746 185.55495 
L 538.313541 187.929978 
L 542.983335 188.859411 
L 547.65313 190.263958 
L 552.322924 191.810496 
L 556.992719 193.466838 
L 561.662513 194.841388 
L 566.332307 196.024345 
L 571.002102 196.810682 
L 575.671896 197.389601 
L 580.341691 198.328987 
L 585.011485 198.96958 
L 589.68128 199.50516 
L 594.351074 199.992554 
L 599.020869 200.469756 
L 603.690663 200.800114 
L 608.360458 201.074135 
L 613.030252 201.127038 
L 617.700047 201.265817 
L 622.369841 201.464557 
L 627.039636 201.578826 
L 631.70943 201.6333 
L 636.379225 201.706207 
L 641.049019 201.771382 
L 645.718814 201.77673 
L 650.388608 201.769604 
L 655.058403 201.795544 
L 659.728197 201.819539 
L 664.397992 201.841696 
L 669.067786 201.841696 
L 673.737581 201.841696 
" clip-path="url(#pa5c768163b)" style="fill: none; stroke: #2ca02c; stroke-width: 1.2; stroke-linecap: square"/>
   </g>
   <g id="patch_6">
    <path d="M 394.250381 280.209 
L 394.250381 27.789 
" style="fill: none; stroke: #000000; stroke-linejoin: miter; stroke-linecap: square"/>
   </g>
   <g id="patch_7">
    <path d="M 394.250381 280.209 
L 687.046495 280.209 
" style="fill: none; stroke: #000000; stroke-linejoin: miter; stroke-linecap: square"/>
   </g>
   <g id="text_19">
    <!-- Group 2 -->
    <g transform="translate(502.267938 21.789) scale(0.192 -0.192)">
     <use xlink:href="#DejaVuSans-47"/>
     <use xlink:href="#DejaVuSans-72" x="77.490234"/>
     <use xlink:href="#DejaVuSans-6f" x="116.353516"/>
     <use xlink:href="#DejaVuSans-75" x="177.535156"/>
     <use xlink:href="#DejaVuSans-70" x="240.914062"/>
     <use xlink:href="#DejaVuSans-20" x="304.390625"/>
     <use xlink:href="#DejaVuSans-32" x="336.177734"/>
    </g>
   </g>
  </g>
  <g id="legend_1">
   <g id="text_20">
    <!-- Model -->
    <g transform="translate(712.739845 134.21) scale(0.192 -0.192)">
     <defs>
      <path id="DejaVuSans-4d" d="M 628 4666 
L 1569 4666 
L 2759 1491 
L 3956 4666 
L 4897 4666 
L 4897 0 
L 4281 0 
L 4281 4097 
L 3078 897 
L 2444 897 
L 1241 4097 
L 1241 0 
L 628 0 
L 628 4666 
z
" transform="scale(0.015625)"/>
      <path id="DejaVuSans-64" d="M 2906 2969 
L 2906 4863 
L 3481 4863 
L 3481 0 
L 2906 0 
L 2906 525 
Q 2725 213 2448 61 
Q 2172 -91 1784 -91 
Q 1150 -91 751 415 
Q 353 922 353 1747 
Q 353 2572 751 3078 
Q 1150 3584 1784 3584 
Q 2172 3584 2448 3432 
Q 2725 3281 2906 2969 
z
M 947 1747 
Q 947 1113 1208 752 
Q 1469 391 1925 391 
Q 2381 391 2643 752 
Q 2906 1113 2906 1747 
Q 2906 2381 2643 2742 
Q 2381 3103 1925 3103 
Q 1469 3103 1208 2742 
Q 947 2381 947 1747 
z
" transform="scale(0.015625)"/>
      <path id="DejaVuSans-6c" d="M 603 4863 
L 1178 4863 
L 1178 0 
L 603 0 
L 603 4863 
z
" transform="scale(0.015625)"/>
     </defs>
     <use xlink:href="#DejaVuSans-4d"/>
     <use xlink:href="#DejaVuSans-6f" x="86.279297"/>
     <use xlink:href="#DejaVuSans-64" x="147.460938"/>
     <use xlink:href="#DejaVuSans-65" x="210.9375"/>
     <use xlink:href="#DejaVuSans-6c" x="272.460938"/>
    </g>
   </g>
   <g id="line2d_30">
    <path d="M 691.881095 154.21625 
L 709.481095 154.21625 
L 727.081095 154.21625 
" style="fill: none; stroke: #1f77b4; stroke-width: 1.2; stroke-linecap: square"/>
   </g>
   <g id="text_21">
    <!-- Naive -->
    <g transform="translate(741.161095 160.37625) scale(0.176 -0.176)">
     <defs>
      <path id="DejaVuSans-4e" d="M 628 4666 
L 1478 4666 
L 3547 763 
L 3547 4666 
L 4159 4666 
L 4159 0 
L 3309 0 
L 1241 3903 
L 1241 0 
L 628 0 
L 628 4666 
z
" transform="scale(0.015625)"/>
      <path id="DejaVuSans-76" d="M 191 3500 
L 800 3500 
L 1894 563 
L 2988 3500 
L 3597 3500 
L 2284 0 
L 1503 0 
L 191 3500 
z
" transform="scale(0.015625)"/>
     </defs>
     <use xlink:href="#DejaVuSans-4e"/>
     <use xlink:href="#DejaVuSans-61" x="74.804688"/>
     <use xlink:href="#DejaVuSans-69" x="136.083984"/>
     <use xlink:href="#DejaVuSans-76" x="163.867188"/>
     <use xlink:href="#DejaVuSans-65" x="223.046875"/>
    </g>
   </g>
   <g id="line2d_31">
    <path d="M 691.881095 180.04975 
L 709.481095 180.04975 
L 727.081095 180.04975 
" style="fill: none; stroke: #ff7f0e; stroke-width: 1.2; stroke-linecap: square"/>
   </g>
   <g id="text_22">
    <!-- KDE -->
    <g transform="translate(741.161095 186.20975) scale(0.176 -0.176)">
     <defs>
      <path id="DejaVuSans-4b" d="M 628 4666 
L 1259 4666 
L 1259 2694 
L 3353 4666 
L 4166 4666 
L 1850 2491 
L 4331 0 
L 3500 0 
L 1259 2247 
L 1259 0 
L 628 0 
L 628 4666 
z
" transform="scale(0.015625)"/>
      <path id="DejaVuSans-44" d="M 1259 4147 
L 1259 519 
L 2022 519 
Q 2988 519 3436 956 
Q 3884 1394 3884 2338 
Q 3884 3275 3436 3711 
Q 2988 4147 2022 4147 
L 1259 4147 
z
M 628 4666 
L 1925 4666 
Q 3281 4666 3915 4102 
Q 4550 3538 4550 2338 
Q 4550 1131 3912 565 
Q 3275 0 1925 0 
L 628 0 
L 628 4666 
z
" transform="scale(0.015625)"/>
      <path id="DejaVuSans-45" d="M 628 4666 
L 3578 4666 
L 3578 4134 
L 1259 4134 
L 1259 2753 
L 3481 2753 
L 3481 2222 
L 1259 2222 
L 1259 531 
L 3634 531 
L 3634 0 
L 628 0 
L 628 4666 
z
" transform="scale(0.015625)"/>
     </defs>
     <use xlink:href="#DejaVuSans-4b"/>
     <use xlink:href="#DejaVuSans-44" x="65.576172"/>
     <use xlink:href="#DejaVuSans-45" x="142.578125"/>
    </g>
   </g>
   <g id="line2d_32">
    <path d="M 691.881095 205.88325 
L 709.481095 205.88325 
L 727.081095 205.88325 
" style="fill: none; stroke: #2ca02c; stroke-width: 1.2; stroke-linecap: square"/>
   </g>
   <g id="text_23">
    <!-- SEPP -->
    <g transform="translate(741.161095 212.04325) scale(0.176 -0.176)">
     <defs>
      <path id="DejaVuSans-53" d="M 3425 4513 
L 3425 3897 
Q 3066 4069 2747 4153 
Q 2428 4238 2131 4238 
Q 1616 4238 1336 4038 
Q 1056 3838 1056 3469 
Q 1056 3159 1242 3001 
Q 1428 2844 1947 2747 
L 2328 2669 
Q 3034 2534 3370 2195 
Q 3706 1856 3706 1288 
Q 3706 609 3251 259 
Q 2797 -91 1919 -91 
Q 1588 -91 1214 -16 
Q 841 59 441 206 
L 441 856 
Q 825 641 1194 531 
Q 1563 422 1919 422 
Q 2459 422 2753 634 
Q 3047 847 3047 1241 
Q 3047 1584 2836 1778 
Q 2625 1972 2144 2069 
L 1759 2144 
Q 1053 2284 737 2584 
Q 422 2884 422 3419 
Q 422 4038 858 4394 
Q 1294 4750 2059 4750 
Q 2388 4750 2728 4690 
Q 3069 4631 3425 4513 
z
" transform="scale(0.015625)"/>
     </defs>
     <use xlink:href="#DejaVuSans-53"/>
     <use xlink:href="#DejaVuSans-45" x="63.476562"/>
     <use xlink:href="#DejaVuSans-50" x="126.660156"/>
     <use xlink:href="#DejaVuSans-50" x="186.962891"/>
    </g>
   </g>
  </g>
 </g>
 <defs>
  <clipPath id="p85acf7efac">
   <rect x="66.0715" y="27.789" width="292.796114" height="252.42"/>
  </clipPath>
  <clipPath id="pa5c768163b">
   <rect x="394.250381" y="27.789" width="292.796114" height="252.42"/>
  </clipPath>
 </defs>
</svg>
