<?xml version="1.0" encoding="utf-8" standalone="no"?>
<!DOCTYPE svg PUBLIC "-//W3C//DTD SVG 1.1//EN"
  "http://www.w3.org/Graphics/SVG/1.1/DTD/svg11.dtd">
<svg xmlns:xlink="http://www.w3.org/1999/xlink" width="411.393125pt" height="329.021799pt" viewBox="0 0 411.393125 329.021799" xmlns="http://www.w3.org/2000/svg" version="1.1">
 <metadata>
  <rdf:RDF xmlns:dc="http://purl.org/dc/elements/1.1/" xmlns:cc="http://creativecommons.org/ns#" xmlns:rdf="http://www.w3.org/1999/02/22-rdf-syntax-ns#">
   <cc:Work>
    <dc:type rdf:resource="http://purl.org/dc/dcmitype/StillImage"/>
    <dc:date>2023-11-07T15:18:06.142921</dc:date>
    <dc:format>image/svg+xml</dc:format>
    <dc:creator>
     <cc:Agent>
      <dc:title>Matplotlib v3.7.1, https://matplotlib.org/</dc:title>
     </cc:Agent>
    </dc:creator>
   </cc:Work>
  </rdf:RDF>
 </metadata>
 <defs>
  <style type="text/css">*{stroke-linejoin: round; stroke-linecap: butt}</style>
 </defs>
 <g id="figure_1">
  <g id="patch_1">
   <path d="M 0 329.021799 
L 411.393125 329.021799 
L 411.393125 0 
L 0 0 
z
" style="fill: #ffffff"/>
  </g>
  <g id="axes_1">
   <g id="patch_2">
    <path d="M 47.073125 275.980549 
L 404.193125 275.980549 
L 404.193125 9.868549 
L 47.073125 9.868549 
z
" style="fill: #ffffff"/>
   </g>
   <g id="PolyCollection_1">
    <defs>
     <path id="m839fd4f567" d="M 65.451929 -53.223977 
L 65.451929 -53.04125 
L 67.002585 -53.04125 
L 68.553241 -53.04125 
L 70.103897 -53.04125 
L 71.654553 -53.04125 
L 73.205209 -53.04125 
L 74.755865 -53.04125 
L 76.306521 -53.04125 
L 77.857178 -53.04125 
L 79.407834 -53.04125 
L 80.95849 -53.04125 
L 82.509146 -53.04125 
L 84.059802 -53.04125 
L 85.610458 -53.04125 
L 87.161114 -53.04125 
L 88.71177 -53.04125 
L 90.262426 -53.04125 
L 91.813082 -53.04125 
L 93.363738 -53.04125 
L 94.914394 -53.04125 
L 96.46505 -53.04125 
L 98.015706 -53.04125 
L 99.566362 -53.04125 
L 101.117018 -53.04125 
L 102.667674 -53.04125 
L 104.21833 -53.04125 
L 105.768986 -53.04125 
L 107.319642 -53.04125 
L 108.870298 -53.04125 
L 110.420954 -53.04125 
L 111.97161 -53.04125 
L 113.522266 -53.04125 
L 115.072923 -53.04125 
L 116.623579 -53.04125 
L 118.174235 -53.04125 
L 119.724891 -53.04125 
L 121.275547 -53.04125 
L 122.826203 -53.04125 
L 124.376859 -53.04125 
L 125.927515 -53.04125 
L 127.478171 -53.04125 
L 129.028827 -53.04125 
L 130.579483 -53.04125 
L 132.130139 -53.04125 
L 133.680795 -53.04125 
L 135.231451 -53.04125 
L 136.782107 -53.04125 
L 138.332763 -53.04125 
L 139.883419 -53.04125 
L 141.434075 -53.04125 
L 142.984731 -53.04125 
L 144.535387 -53.04125 
L 146.086043 -53.04125 
L 147.636699 -53.04125 
L 149.187355 -53.04125 
L 150.738011 -53.04125 
L 152.288668 -53.04125 
L 153.839324 -53.04125 
L 155.38998 -53.04125 
L 156.940636 -53.04125 
L 158.491292 -53.04125 
L 160.041948 -53.04125 
L 161.592604 -53.04125 
L 163.14326 -53.04125 
L 164.693916 -53.04125 
L 166.244572 -53.04125 
L 167.795228 -53.04125 
L 169.345884 -53.04125 
L 170.89654 -53.04125 
L 172.447196 -53.04125 
L 173.997852 -53.04125 
L 175.548508 -53.04125 
L 177.099164 -53.04125 
L 178.64982 -53.04125 
L 180.200476 -53.04125 
L 181.751132 -53.04125 
L 183.301788 -53.04125 
L 184.852444 -53.04125 
L 186.4031 -53.04125 
L 187.953756 -53.04125 
L 189.504413 -53.04125 
L 191.055069 -53.04125 
L 192.605725 -53.04125 
L 194.156381 -53.04125 
L 195.707037 -53.04125 
L 197.257693 -53.04125 
L 198.808349 -53.04125 
L 200.359005 -53.04125 
L 201.909661 -53.04125 
L 203.460317 -53.04125 
L 205.010973 -53.04125 
L 206.561629 -53.04125 
L 208.112285 -53.04125 
L 209.662941 -53.04125 
L 211.213597 -53.04125 
L 212.764253 -53.04125 
L 214.314909 -53.04125 
L 215.865565 -53.04125 
L 217.416221 -53.04125 
L 218.966877 -53.04125 
L 220.517533 -53.04125 
L 222.068189 -53.04125 
L 223.618845 -53.04125 
L 225.169501 -53.04125 
L 226.720158 -53.04125 
L 228.270814 -53.04125 
L 229.82147 -53.04125 
L 231.372126 -53.04125 
L 232.922782 -53.04125 
L 234.473438 -53.04125 
L 236.024094 -53.04125 
L 237.57475 -53.04125 
L 239.125406 -53.04125 
L 240.676062 -53.04125 
L 242.226718 -53.04125 
L 243.777374 -53.04125 
L 245.32803 -53.04125 
L 246.878686 -53.04125 
L 248.429342 -53.04125 
L 249.979998 -53.04125 
L 251.530654 -53.04125 
L 253.08131 -53.04125 
L 254.631966 -53.04125 
L 256.182622 -53.04125 
L 257.733278 -53.04125 
L 259.283934 -53.04125 
L 260.83459 -53.04125 
L 262.385246 -53.04125 
L 263.935903 -53.04125 
L 265.486559 -53.04125 
L 267.037215 -53.04125 
L 268.587871 -53.04125 
L 270.138527 -53.04125 
L 271.689183 -53.04125 
L 273.239839 -53.04125 
L 274.790495 -53.04125 
L 276.341151 -53.04125 
L 277.891807 -53.04125 
L 279.442463 -53.04125 
L 280.993119 -53.04125 
L 282.543775 -53.04125 
L 284.094431 -53.04125 
L 285.645087 -53.04125 
L 287.195743 -53.04125 
L 288.746399 -53.04125 
L 290.297055 -53.04125 
L 291.847711 -53.04125 
L 293.398367 -53.04125 
L 294.949023 -53.04125 
L 296.499679 -53.04125 
L 298.050335 -53.04125 
L 299.600991 -53.04125 
L 301.151648 -53.04125 
L 302.702304 -53.04125 
L 304.25296 -53.04125 
L 305.803616 -53.04125 
L 307.354272 -53.04125 
L 308.904928 -53.04125 
L 310.455584 -53.04125 
L 312.00624 -53.04125 
L 313.556896 -53.04125 
L 315.107552 -53.04125 
L 316.658208 -53.04125 
L 318.208864 -53.04125 
L 319.75952 -53.04125 
L 321.310176 -53.04125 
L 322.860832 -53.04125 
L 324.411488 -53.04125 
L 325.962144 -53.04125 
L 327.5128 -53.04125 
L 329.063456 -53.04125 
L 330.614112 -53.04125 
L 332.164768 -53.04125 
L 333.715424 -53.04125 
L 335.26608 -53.04125 
L 336.816736 -53.04125 
L 338.367393 -53.04125 
L 339.918049 -53.04125 
L 341.468705 -53.04125 
L 343.019361 -53.04125 
L 344.570017 -53.04125 
L 346.120673 -53.04125 
L 347.671329 -53.04125 
L 349.221985 -53.04125 
L 350.772641 -53.04125 
L 352.323297 -53.04125 
L 353.873953 -53.04125 
L 355.424609 -53.04125 
L 356.975265 -53.04125 
L 358.525921 -53.04125 
L 360.076577 -53.04125 
L 361.627233 -53.04125 
L 363.177889 -53.04125 
L 364.728545 -53.04125 
L 366.279201 -53.04125 
L 367.829857 -53.04125 
L 369.380513 -53.04125 
L 370.931169 -53.04125 
L 372.481825 -53.04125 
L 374.032482 -53.04125 
L 374.032482 -53.09985 
L 374.032482 -53.09985 
L 372.481825 -53.119095 
L 370.931169 -53.143869 
L 369.380513 -53.175497 
L 367.829857 -53.215545 
L 366.279201 -53.265839 
L 364.728545 -53.328489 
L 363.177889 -53.405897 
L 361.627233 -53.50077 
L 360.076577 -53.616118 
L 358.525921 -53.755243 
L 356.975265 -53.92172 
L 355.424609 -54.119364 
L 353.873953 -54.352185 
L 352.323297 -54.624331 
L 350.772641 -54.940017 
L 349.221985 -55.303447 
L 347.671329 -55.718727 
L 346.120673 -56.189769 
L 344.570017 -56.720197 
L 343.019361 -57.313254 
L 341.468705 -57.971712 
L 339.918049 -58.697795 
L 338.367393 -59.493114 
L 336.816736 -60.358619 
L 335.26608 -61.294575 
L 333.715424 -62.300552 
L 332.164768 -63.375447 
L 330.614112 -64.517524 
L 329.063456 -65.724475 
L 327.5128 -66.993508 
L 325.962144 -68.321444 
L 324.411488 -69.704834 
L 322.860832 -71.140081 
L 321.310176 -72.623577 
L 319.75952 -74.151834 
L 318.208864 -75.721615 
L 316.658208 -77.330064 
L 315.107552 -78.974825 
L 313.556896 -80.654143 
L 312.00624 -82.366959 
L 310.455584 -84.112981 
L 308.904928 -85.892726 
L 307.354272 -87.707552 
L 305.803616 -89.55964 
L 304.25296 -91.451961 
L 302.702304 -93.388192 
L 301.151648 -95.372601 
L 299.600991 -97.409894 
L 298.050335 -99.505011 
L 296.499679 -101.662896 
L 294.949023 -103.888229 
L 293.398367 -106.185131 
L 291.847711 -108.556859 
L 290.297055 -111.005495 
L 288.746399 -113.531649 
L 287.195743 -116.134191 
L 285.645087 -118.810033 
L 284.094431 -121.553981 
L 282.543775 -124.358662 
L 280.993119 -127.214568 
L 279.442463 -130.110194 
L 277.891807 -133.032314 
L 276.341151 -135.966369 
L 274.790495 -138.896986 
L 273.239839 -141.808598 
L 271.689183 -144.686157 
L 270.138527 -147.515919 
L 268.587871 -150.286253 
L 267.037215 -152.988449 
L 265.486559 -155.617472 
L 263.935903 -158.172621 
L 262.385246 -160.658048 
L 260.83459 -163.083087 
L 259.283934 -165.462358 
L 257.733278 -167.815626 
L 256.182622 -170.167381 
L 254.631966 -172.546152 
L 253.08131 -174.983564 
L 251.530654 -177.513158 
L 249.979998 -180.169036 
L 248.429342 -182.984369 
L 246.878686 -185.989862 
L 245.32803 -189.212227 
L 243.777374 -192.672771 
L 242.226718 -196.386144 
L 240.676062 -200.359351 
L 239.125406 -204.591053 
L 237.57475 -209.071215 
L 236.024094 -213.781112 
L 234.473438 -218.6937 
L 232.922782 -223.774316 
L 231.372126 -228.981676 
L 229.82147 -234.269117 
L 228.270814 -239.585995 
L 226.720158 -244.879178 
L 225.169501 -250.094551 
L 223.618845 -255.17845 
L 222.068189 -260.078981 
L 220.517533 -264.747141 
L 218.966877 -269.137728 
L 217.416221 -273.210018 
L 215.865565 -276.928198 
L 214.314909 -280.261577 
L 212.764253 -283.184607 
L 211.213597 -285.676744 
L 209.662941 -287.722206 
L 208.112285 -289.309659 
L 206.561629 -290.431893 
L 205.010973 -291.085507 
L 203.460317 -291.27064 
L 201.909661 -290.990766 
L 200.359005 -290.252548 
L 198.808349 -289.06575 
L 197.257693 -287.443196 
L 195.707037 -285.400739 
L 194.156381 -282.957218 
L 192.605725 -280.134393 
L 191.055069 -276.956797 
L 189.504413 -273.451531 
L 187.953756 -269.647952 
L 186.4031 -265.577286 
L 184.852444 -261.272149 
L 183.301788 -256.766019 
L 181.751132 -252.092665 
L 180.200476 -247.285572 
L 178.64982 -242.377396 
L 177.099164 -237.399474 
L 175.548508 -232.381421 
L 173.997852 -227.350829 
L 172.447196 -222.333081 
L 170.89654 -217.351274 
L 169.345884 -212.426258 
L 167.795228 -207.576744 
L 166.244572 -202.819486 
L 164.693916 -198.169483 
L 163.14326 -193.640172 
L 161.592604 -189.243596 
L 160.041948 -184.990489 
L 158.491292 -180.890297 
L 156.940636 -176.951083 
L 155.38998 -173.179355 
L 153.839324 -169.579797 
L 152.288668 -166.154942 
L 150.738011 -162.904815 
L 149.187355 -159.826576 
L 147.636699 -156.914209 
L 146.086043 -154.158296 
L 144.535387 -151.54591 
L 142.984731 -149.060658 
L 141.434075 -146.6829 
L 139.883419 -144.390136 
L 138.332763 -142.157582 
L 136.782107 -139.958894 
L 135.231451 -137.767028 
L 133.680795 -135.555189 
L 132.130139 -133.297829 
L 130.579483 -130.971638 
L 129.028827 -128.556473 
L 127.478171 -126.036188 
L 125.927515 -123.39931 
L 124.376859 -120.639521 
L 122.826203 -117.755941 
L 121.275547 -114.753168 
L 119.724891 -111.641111 
L 118.174235 -108.434588 
L 116.623579 -105.152748 
L 115.072923 -101.818319 
L 113.522266 -98.456747 
L 111.97161 -95.095247 
L 110.420954 -91.761833 
L 108.870298 -88.484352 
L 107.319642 -85.289586 
L 105.768986 -82.202433 
L 104.21833 -79.245224 
L 102.667674 -76.43717 
L 101.117018 -73.793976 
L 99.566362 -71.327605 
L 98.015706 -69.046206 
L 96.46505 -66.954177 
L 94.914394 -65.052364 
L 93.363738 -63.338358 
L 91.813082 -61.80688 
L 90.262426 -60.450211 
L 88.71177 -59.258668 
L 87.161114 -58.221077 
L 85.610458 -57.325236 
L 84.059802 -56.558352 
L 82.509146 -55.907431 
L 80.95849 -55.359621 
L 79.407834 -54.902492 
L 77.857178 -54.524259 
L 76.306521 -54.213952 
L 74.755865 -53.961523 
L 73.205209 -53.757913 
L 71.654553 -53.595066 
L 70.103897 -53.465922 
L 68.553241 -53.364371 
L 67.002585 -53.285192 
L 65.451929 -53.223977 
z
" style="stroke: #2ca02c"/>
    </defs>
    <g clip-path="url(#p79b0bfe39a)">
     <use xlink:href="#m839fd4f567" x="0" y="329.021799" style="fill: #2ca02c; fill-opacity: 0.25; stroke: #2ca02c"/>
    </g>
   </g>
   <g id="PolyCollection_2">
    <defs>
     <path id="mbf99736ebc" d="M 63.305852 -53.344715 
L 63.305852 -53.04125 
L 64.854685 -53.04125 
L 66.403517 -53.04125 
L 67.952349 -53.04125 
L 69.501182 -53.04125 
L 71.050014 -53.04125 
L 72.598846 -53.04125 
L 74.147679 -53.04125 
L 75.696511 -53.04125 
L 77.245343 -53.04125 
L 78.794176 -53.04125 
L 80.343008 -53.04125 
L 81.89184 -53.04125 
L 83.440673 -53.04125 
L 84.989505 -53.04125 
L 86.538337 -53.04125 
L 88.08717 -53.04125 
L 89.636002 -53.04125 
L 91.184834 -53.04125 
L 92.733667 -53.04125 
L 94.282499 -53.04125 
L 95.831331 -53.04125 
L 97.380164 -53.04125 
L 98.928996 -53.04125 
L 100.477828 -53.04125 
L 102.026661 -53.04125 
L 103.575493 -53.04125 
L 105.124325 -53.04125 
L 106.673158 -53.04125 
L 108.22199 -53.04125 
L 109.770823 -53.04125 
L 111.319655 -53.04125 
L 112.868487 -53.04125 
L 114.41732 -53.04125 
L 115.966152 -53.04125 
L 117.514984 -53.04125 
L 119.063817 -53.04125 
L 120.612649 -53.04125 
L 122.161481 -53.04125 
L 123.710314 -53.04125 
L 125.259146 -53.04125 
L 126.807978 -53.04125 
L 128.356811 -53.04125 
L 129.905643 -53.04125 
L 131.454475 -53.04125 
L 133.003308 -53.04125 
L 134.55214 -53.04125 
L 136.100972 -53.04125 
L 137.649805 -53.04125 
L 139.198637 -53.04125 
L 140.747469 -53.04125 
L 142.296302 -53.04125 
L 143.845134 -53.04125 
L 145.393966 -53.04125 
L 146.942799 -53.04125 
L 148.491631 -53.04125 
L 150.040463 -53.04125 
L 151.589296 -53.04125 
L 153.138128 -53.04125 
L 154.68696 -53.04125 
L 156.235793 -53.04125 
L 157.784625 -53.04125 
L 159.333457 -53.04125 
L 160.88229 -53.04125 
L 162.431122 -53.04125 
L 163.979954 -53.04125 
L 165.528787 -53.04125 
L 167.077619 -53.04125 
L 168.626452 -53.04125 
L 170.175284 -53.04125 
L 171.724116 -53.04125 
L 173.272949 -53.04125 
L 174.821781 -53.04125 
L 176.370613 -53.04125 
L 177.919446 -53.04125 
L 179.468278 -53.04125 
L 181.01711 -53.04125 
L 182.565943 -53.04125 
L 184.114775 -53.04125 
L 185.663607 -53.04125 
L 187.21244 -53.04125 
L 188.761272 -53.04125 
L 190.310104 -53.04125 
L 191.858937 -53.04125 
L 193.407769 -53.04125 
L 194.956601 -53.04125 
L 196.505434 -53.04125 
L 198.054266 -53.04125 
L 199.603098 -53.04125 
L 201.151931 -53.04125 
L 202.700763 -53.04125 
L 204.249595 -53.04125 
L 205.798428 -53.04125 
L 207.34726 -53.04125 
L 208.896092 -53.04125 
L 210.444925 -53.04125 
L 211.993757 -53.04125 
L 213.542589 -53.04125 
L 215.091422 -53.04125 
L 216.640254 -53.04125 
L 218.189086 -53.04125 
L 219.737919 -53.04125 
L 221.286751 -53.04125 
L 222.835583 -53.04125 
L 224.384416 -53.04125 
L 225.933248 -53.04125 
L 227.48208 -53.04125 
L 229.030913 -53.04125 
L 230.579745 -53.04125 
L 232.128578 -53.04125 
L 233.67741 -53.04125 
L 235.226242 -53.04125 
L 236.775075 -53.04125 
L 238.323907 -53.04125 
L 239.872739 -53.04125 
L 241.421572 -53.04125 
L 242.970404 -53.04125 
L 244.519236 -53.04125 
L 246.068069 -53.04125 
L 247.616901 -53.04125 
L 249.165733 -53.04125 
L 250.714566 -53.04125 
L 252.263398 -53.04125 
L 253.81223 -53.04125 
L 255.361063 -53.04125 
L 256.909895 -53.04125 
L 258.458727 -53.04125 
L 260.00756 -53.04125 
L 261.556392 -53.04125 
L 263.105224 -53.04125 
L 264.654057 -53.04125 
L 266.202889 -53.04125 
L 267.751721 -53.04125 
L 269.300554 -53.04125 
L 270.849386 -53.04125 
L 272.398218 -53.04125 
L 273.947051 -53.04125 
L 275.495883 -53.04125 
L 277.044715 -53.04125 
L 278.593548 -53.04125 
L 280.14238 -53.04125 
L 281.691212 -53.04125 
L 283.240045 -53.04125 
L 284.788877 -53.04125 
L 286.337709 -53.04125 
L 287.886542 -53.04125 
L 289.435374 -53.04125 
L 290.984206 -53.04125 
L 292.533039 -53.04125 
L 294.081871 -53.04125 
L 295.630704 -53.04125 
L 297.179536 -53.04125 
L 298.728368 -53.04125 
L 300.277201 -53.04125 
L 301.826033 -53.04125 
L 303.374865 -53.04125 
L 304.923698 -53.04125 
L 306.47253 -53.04125 
L 308.021362 -53.04125 
L 309.570195 -53.04125 
L 311.119027 -53.04125 
L 312.667859 -53.04125 
L 314.216692 -53.04125 
L 315.765524 -53.04125 
L 317.314356 -53.04125 
L 318.863189 -53.04125 
L 320.412021 -53.04125 
L 321.960853 -53.04125 
L 323.509686 -53.04125 
L 325.058518 -53.04125 
L 326.60735 -53.04125 
L 328.156183 -53.04125 
L 329.705015 -53.04125 
L 331.253847 -53.04125 
L 332.80268 -53.04125 
L 334.351512 -53.04125 
L 335.900344 -53.04125 
L 337.449177 -53.04125 
L 338.998009 -53.04125 
L 340.546841 -53.04125 
L 342.095674 -53.04125 
L 343.644506 -53.04125 
L 345.193338 -53.04125 
L 346.742171 -53.04125 
L 348.291003 -53.04125 
L 349.839835 -53.04125 
L 351.388668 -53.04125 
L 352.9375 -53.04125 
L 354.486333 -53.04125 
L 356.035165 -53.04125 
L 357.583997 -53.04125 
L 359.13283 -53.04125 
L 360.681662 -53.04125 
L 362.230494 -53.04125 
L 363.779327 -53.04125 
L 365.328159 -53.04125 
L 366.876991 -53.04125 
L 368.425824 -53.04125 
L 369.974656 -53.04125 
L 371.523488 -53.04125 
L 371.523488 -53.091191 
L 371.523488 -53.091191 
L 369.974656 -53.107671 
L 368.425824 -53.12877 
L 366.876991 -53.155503 
L 365.328159 -53.189022 
L 363.779327 -53.230608 
L 362.230494 -53.281653 
L 360.681662 -53.343641 
L 359.13283 -53.418105 
L 357.583997 -53.506582 
L 356.035165 -53.61055 
L 354.486333 -53.731359 
L 352.9375 -53.870153 
L 351.388668 -54.027784 
L 349.839835 -54.204728 
L 348.291003 -54.40101 
L 346.742171 -54.616132 
L 345.193338 -54.849024 
L 343.644506 -55.098024 
L 342.095674 -55.360881 
L 340.546841 -55.634799 
L 338.998009 -55.916521 
L 337.449177 -56.202448 
L 335.900344 -56.4888 
L 334.351512 -56.771815 
L 332.80268 -57.047961 
L 331.253847 -57.314182 
L 329.705015 -57.568131 
L 328.156183 -57.808409 
L 326.60735 -58.034768 
L 325.058518 -58.24829 
L 323.509686 -58.45151 
L 321.960853 -58.648485 
L 320.412021 -58.844803 
L 318.863189 -59.047521 
L 317.314356 -59.265044 
L 315.765524 -59.506946 
L 314.216692 -59.783732 
L 312.667859 -60.106573 
L 311.119027 -60.486999 
L 309.570195 -60.936586 
L 308.021362 -61.466637 
L 306.47253 -62.087866 
L 304.923698 -62.810111 
L 303.374865 -63.642055 
L 301.826033 -64.590997 
L 300.277201 -65.662634 
L 298.728368 -66.860898 
L 297.179536 -68.187812 
L 295.630704 -69.643393 
L 294.081871 -71.225581 
L 292.533039 -72.930213 
L 290.984206 -74.751028 
L 289.435374 -76.679721 
L 287.886542 -78.706032 
L 286.337709 -80.817893 
L 284.788877 -83.00162 
L 283.240045 -85.242163 
L 281.691212 -87.523406 
L 280.14238 -89.828524 
L 278.593548 -92.140384 
L 277.044715 -94.441978 
L 275.495883 -96.71689 
L 273.947051 -98.949764 
L 272.398218 -101.126762 
L 270.849386 -103.235995 
L 269.300554 -105.267894 
L 267.751721 -107.21552 
L 266.202889 -109.074767 
L 264.654057 -110.844482 
L 263.105224 -112.52645 
L 261.556392 -114.125279 
L 260.00756 -115.648165 
L 258.458727 -117.104554 
L 256.909895 -118.505734 
L 255.361063 -119.864349 
L 253.81223 -121.193902 
L 252.263398 -122.508243 
L 250.714566 -123.821102 
L 249.165733 -125.145679 
L 247.616901 -126.494332 
L 246.068069 -127.878363 
L 244.519236 -129.307945 
L 242.970404 -130.792159 
L 241.421572 -132.339167 
L 239.872739 -133.956479 
L 238.323907 -135.651308 
L 236.775075 -137.430971 
L 235.226242 -139.303308 
L 233.67741 -141.277073 
L 232.128578 -143.362268 
L 230.579745 -145.570382 
L 229.030913 -147.914507 
L 227.48208 -150.409316 
L 225.933248 -153.070879 
L 224.384416 -155.916336 
L 222.835583 -158.963412 
L 221.286751 -162.229812 
L 219.737919 -165.732496 
L 218.189086 -169.486892 
L 216.640254 -173.506052 
L 215.091422 -177.79981 
L 213.542589 -182.373966 
L 211.993757 -187.229535 
L 210.444925 -192.362105 
L 208.896092 -197.761324 
L 207.34726 -203.410542 
L 205.798428 -209.286649 
L 204.249595 -215.360103 
L 202.700763 -221.595169 
L 201.151931 -227.950374 
L 199.603098 -234.379152 
L 198.054266 -240.830689 
L 196.505434 -247.250917 
L 194.956601 -253.583645 
L 193.407769 -259.771768 
L 191.858937 -265.758529 
L 190.310104 -271.488764 
L 188.761272 -276.910105 
L 187.21244 -281.974083 
L 185.663607 -286.637093 
L 184.114775 -290.861201 
L 182.565943 -294.614757 
L 181.01711 -297.872817 
L 179.468278 -300.617358 
L 177.919446 -302.837315 
L 176.370613 -304.528432 
L 174.821781 -305.692967 
L 173.272949 -306.339268 
L 171.724116 -306.48125 
L 170.175284 -306.137793 
L 168.626452 -305.332094 
L 167.077619 -304.090987 
L 165.528787 -302.444251 
L 163.979954 -300.423912 
L 162.431122 -298.063567 
L 160.88229 -295.397716 
L 159.333457 -292.461124 
L 157.784625 -289.2882 
L 156.235793 -285.912423 
L 154.68696 -282.365778 
L 153.138128 -278.678246 
L 151.589296 -274.877313 
L 150.040463 -270.987525 
L 148.491631 -267.030081 
L 146.942799 -263.022467 
L 145.393966 -258.978149 
L 143.845134 -254.906311 
L 142.296302 -250.811686 
L 140.747469 -246.694455 
L 139.198637 -242.550269 
L 137.649805 -238.370392 
L 136.100972 -234.141997 
L 134.55214 -229.848625 
L 133.003308 -225.470833 
L 131.454475 -220.987022 
L 129.905643 -216.37444 
L 128.356811 -211.610347 
L 126.807978 -206.673298 
L 125.259146 -201.544492 
L 123.710314 -196.209125 
L 122.161481 -190.657674 
L 120.612649 -184.88703 
L 119.063817 -178.90141 
L 117.514984 -172.71296 
L 115.966152 -166.342025 
L 114.41732 -159.817015 
L 112.868487 -153.173883 
L 111.319655 -146.455217 
L 109.770823 -139.708981 
L 108.22199 -132.98698 
L 106.673158 -126.343125 
L 105.124325 -119.83159 
L 103.575493 -113.504968 
L 102.026661 -107.412522 
L 100.477828 -101.59862 
L 98.928996 -96.101435 
L 97.380164 -90.951957 
L 95.831331 -86.173363 
L 94.282499 -81.780739 
L 92.733667 -77.781156 
L 91.184834 -74.17406 
L 89.636002 -70.951927 
L 88.08717 -68.101132 
L 86.538337 -65.602963 
L 84.989505 -63.434706 
L 83.440673 -61.570758 
L 81.89184 -59.983698 
L 80.343008 -58.645276 
L 78.794176 -57.527287 
L 77.245343 -56.602308 
L 75.696511 -55.844287 
L 74.147679 -55.228981 
L 72.598846 -54.734252 
L 71.050014 -54.340234 
L 69.501182 -54.02939 
L 67.952349 -53.786477 
L 66.403517 -53.598437 
L 64.854685 -53.454245 
L 63.305852 -53.344715 
z
" style="stroke: #ff7f0e"/>
    </defs>
    <g clip-path="url(#p79b0bfe39a)">
     <use xlink:href="#mbf99736ebc" x="0" y="329.021799" style="fill: #ff7f0e; fill-opacity: 0.25; stroke: #ff7f0e"/>
    </g>
   </g>
   <g id="PolyCollection_3">
    <defs>
     <path id="ma86ac61612" d="M 63.708058 -53.300205 
L 63.708058 -53.04125 
L 65.337467 -53.04125 
L 66.966876 -53.04125 
L 68.596284 -53.04125 
L 70.225693 -53.04125 
L 71.855102 -53.04125 
L 73.484511 -53.04125 
L 75.113919 -53.04125 
L 76.743328 -53.04125 
L 78.372737 -53.04125 
L 80.002146 -53.04125 
L 81.631554 -53.04125 
L 83.260963 -53.04125 
L 84.890372 -53.04125 
L 86.519781 -53.04125 
L 88.149189 -53.04125 
L 89.778598 -53.04125 
L 91.408007 -53.04125 
L 93.037416 -53.04125 
L 94.666824 -53.04125 
L 96.296233 -53.04125 
L 97.925642 -53.04125 
L 99.555051 -53.04125 
L 101.184459 -53.04125 
L 102.813868 -53.04125 
L 104.443277 -53.04125 
L 106.072685 -53.04125 
L 107.702094 -53.04125 
L 109.331503 -53.04125 
L 110.960912 -53.04125 
L 112.59032 -53.04125 
L 114.219729 -53.04125 
L 115.849138 -53.04125 
L 117.478547 -53.04125 
L 119.107955 -53.04125 
L 120.737364 -53.04125 
L 122.366773 -53.04125 
L 123.996182 -53.04125 
L 125.62559 -53.04125 
L 127.254999 -53.04125 
L 128.884408 -53.04125 
L 130.513817 -53.04125 
L 132.143225 -53.04125 
L 133.772634 -53.04125 
L 135.402043 -53.04125 
L 137.031452 -53.04125 
L 138.66086 -53.04125 
L 140.290269 -53.04125 
L 141.919678 -53.04125 
L 143.549087 -53.04125 
L 145.178495 -53.04125 
L 146.807904 -53.04125 
L 148.437313 -53.04125 
L 150.066721 -53.04125 
L 151.69613 -53.04125 
L 153.325539 -53.04125 
L 154.954948 -53.04125 
L 156.584356 -53.04125 
L 158.213765 -53.04125 
L 159.843174 -53.04125 
L 161.472583 -53.04125 
L 163.101991 -53.04125 
L 164.7314 -53.04125 
L 166.360809 -53.04125 
L 167.990218 -53.04125 
L 169.619626 -53.04125 
L 171.249035 -53.04125 
L 172.878444 -53.04125 
L 174.507853 -53.04125 
L 176.137261 -53.04125 
L 177.76667 -53.04125 
L 179.396079 -53.04125 
L 181.025488 -53.04125 
L 182.654896 -53.04125 
L 184.284305 -53.04125 
L 185.913714 -53.04125 
L 187.543123 -53.04125 
L 189.172531 -53.04125 
L 190.80194 -53.04125 
L 192.431349 -53.04125 
L 194.060758 -53.04125 
L 195.690166 -53.04125 
L 197.319575 -53.04125 
L 198.948984 -53.04125 
L 200.578392 -53.04125 
L 202.207801 -53.04125 
L 203.83721 -53.04125 
L 205.466619 -53.04125 
L 207.096027 -53.04125 
L 208.725436 -53.04125 
L 210.354845 -53.04125 
L 211.984254 -53.04125 
L 213.613662 -53.04125 
L 215.243071 -53.04125 
L 216.87248 -53.04125 
L 218.501889 -53.04125 
L 220.131297 -53.04125 
L 221.760706 -53.04125 
L 223.390115 -53.04125 
L 225.019524 -53.04125 
L 226.648932 -53.04125 
L 228.278341 -53.04125 
L 229.90775 -53.04125 
L 231.537159 -53.04125 
L 233.166567 -53.04125 
L 234.795976 -53.04125 
L 236.425385 -53.04125 
L 238.054794 -53.04125 
L 239.684202 -53.04125 
L 241.313611 -53.04125 
L 242.94302 -53.04125 
L 244.572428 -53.04125 
L 246.201837 -53.04125 
L 247.831246 -53.04125 
L 249.460655 -53.04125 
L 251.090063 -53.04125 
L 252.719472 -53.04125 
L 254.348881 -53.04125 
L 255.97829 -53.04125 
L 257.607698 -53.04125 
L 259.237107 -53.04125 
L 260.866516 -53.04125 
L 262.495925 -53.04125 
L 264.125333 -53.04125 
L 265.754742 -53.04125 
L 267.384151 -53.04125 
L 269.01356 -53.04125 
L 270.642968 -53.04125 
L 272.272377 -53.04125 
L 273.901786 -53.04125 
L 275.531195 -53.04125 
L 277.160603 -53.04125 
L 278.790012 -53.04125 
L 280.419421 -53.04125 
L 282.04883 -53.04125 
L 283.678238 -53.04125 
L 285.307647 -53.04125 
L 286.937056 -53.04125 
L 288.566465 -53.04125 
L 290.195873 -53.04125 
L 291.825282 -53.04125 
L 293.454691 -53.04125 
L 295.084099 -53.04125 
L 296.713508 -53.04125 
L 298.342917 -53.04125 
L 299.972326 -53.04125 
L 301.601734 -53.04125 
L 303.231143 -53.04125 
L 304.860552 -53.04125 
L 306.489961 -53.04125 
L 308.119369 -53.04125 
L 309.748778 -53.04125 
L 311.378187 -53.04125 
L 313.007596 -53.04125 
L 314.637004 -53.04125 
L 316.266413 -53.04125 
L 317.895822 -53.04125 
L 319.525231 -53.04125 
L 321.154639 -53.04125 
L 322.784048 -53.04125 
L 324.413457 -53.04125 
L 326.042866 -53.04125 
L 327.672274 -53.04125 
L 329.301683 -53.04125 
L 330.931092 -53.04125 
L 332.560501 -53.04125 
L 334.189909 -53.04125 
L 335.819318 -53.04125 
L 337.448727 -53.04125 
L 339.078135 -53.04125 
L 340.707544 -53.04125 
L 342.336953 -53.04125 
L 343.966362 -53.04125 
L 345.59577 -53.04125 
L 347.225179 -53.04125 
L 348.854588 -53.04125 
L 350.483997 -53.04125 
L 352.113405 -53.04125 
L 353.742814 -53.04125 
L 355.372223 -53.04125 
L 357.001632 -53.04125 
L 358.63104 -53.04125 
L 360.260449 -53.04125 
L 361.889858 -53.04125 
L 363.519267 -53.04125 
L 365.148675 -53.04125 
L 366.778084 -53.04125 
L 368.407493 -53.04125 
L 370.036902 -53.04125 
L 371.66631 -53.04125 
L 373.295719 -53.04125 
L 374.925128 -53.04125 
L 376.554537 -53.04125 
L 378.183945 -53.04125 
L 379.813354 -53.04125 
L 381.442763 -53.04125 
L 383.072172 -53.04125 
L 384.70158 -53.04125 
L 386.330989 -53.04125 
L 387.960398 -53.04125 
L 387.960398 -53.091603 
L 387.960398 -53.091603 
L 386.330989 -53.10937 
L 384.70158 -53.132444 
L 383.072172 -53.162057 
L 381.442763 -53.199615 
L 379.813354 -53.246681 
L 378.183945 -53.304953 
L 376.554537 -53.37622 
L 374.925128 -53.462305 
L 373.295719 -53.564991 
L 371.66631 -53.685923 
L 370.036902 -53.826504 
L 368.407493 -53.987773 
L 366.778084 -54.170284 
L 365.148675 -54.373978 
L 363.519267 -54.598081 
L 361.889858 -54.84101 
L 360.260449 -55.100324 
L 358.63104 -55.372704 
L 357.001632 -55.653998 
L 355.372223 -55.939312 
L 353.742814 -56.223158 
L 352.113405 -56.499669 
L 350.483997 -56.76285 
L 348.854588 -57.006875 
L 347.225179 -57.226407 
L 345.59577 -57.416916 
L 343.966362 -57.57499 
L 342.336953 -57.698601 
L 340.707544 -57.787322 
L 339.078135 -57.842464 
L 337.448727 -57.86713 
L 335.819318 -57.866171 
L 334.189909 -57.846056 
L 332.560501 -57.814637 
L 330.931092 -57.780846 
L 329.301683 -57.754323 
L 327.672274 -57.744999 
L 326.042866 -57.762673 
L 324.413457 -57.816579 
L 322.784048 -57.914999 
L 321.154639 -58.06493 
L 319.525231 -58.271833 
L 317.895822 -58.539469 
L 316.266413 -58.869859 
L 314.637004 -59.263343 
L 313.007596 -59.718762 
L 311.378187 -60.233741 
L 309.748778 -60.805065 
L 308.119369 -61.429123 
L 306.489961 -62.102395 
L 304.860552 -62.821958 
L 303.231143 -63.585962 
L 301.601734 -64.394062 
L 299.972326 -65.247766 
L 298.342917 -66.15066 
L 296.713508 -67.108512 
L 295.084099 -68.12921 
L 293.454691 -69.222553 
L 291.825282 -70.399884 
L 290.195873 -71.673569 
L 288.566465 -73.056366 
L 286.937056 -74.560686 
L 285.307647 -76.197798 
L 283.678238 -77.977014 
L 282.04883 -79.90489 
L 280.419421 -81.984501 
L 278.790012 -84.21482 
L 277.160603 -86.590251 
L 275.531195 -89.100346 
L 273.901786 -91.729748 
L 272.272377 -94.458367 
L 270.642968 -97.261808 
L 269.01356 -100.112055 
L 267.384151 -102.978396 
L 265.754742 -105.828559 
L 264.125333 -108.630018 
L 262.495925 -111.351429 
L 260.866516 -113.964107 
L 259.237107 -116.4435 
L 257.607698 -118.770546 
L 255.97829 -120.932877 
L 254.348881 -122.925762 
L 252.719472 -124.75275 
L 251.090063 -126.425971 
L 249.460655 -127.966056 
L 247.831246 -129.401691 
L 246.201837 -130.76883 
L 244.572428 -132.109586 
L 242.94302 -133.470894 
L 241.313611 -134.902991 
L 239.684202 -136.457799 
L 238.054794 -138.187291 
L 236.425385 -140.141899 
L 234.795976 -142.369026 
L 233.166567 -144.911697 
L 231.537159 -147.807381 
L 229.90775 -151.086981 
L 228.278341 -154.774 
L 226.648932 -158.883868 
L 225.019524 -163.423418 
L 223.390115 -168.390499 
L 221.760706 -173.773722 
L 220.131297 -179.552352 
L 218.501889 -185.696343 
L 216.87248 -192.166557 
L 215.243071 -198.91518 
L 213.613662 -205.886368 
L 211.984254 -213.017139 
L 210.354845 -220.238532 
L 208.725436 -227.477015 
L 207.096027 -234.656134 
L 205.466619 -241.698354 
L 203.83721 -248.527039 
L 202.207801 -255.068485 
L 200.578392 -261.253943 
L 198.948984 -267.021517 
L 197.319575 -272.317859 
L 195.690166 -277.09958 
L 194.060758 -281.334297 
L 192.431349 -285.001272 
L 190.80194 -288.091605 
L 189.172531 -290.607972 
L 187.543123 -292.563934 
L 185.913714 -293.982843 
L 184.284305 -294.896416 
L 182.654896 -295.34305 
L 181.025488 -295.365982 
L 179.396079 -295.011372 
L 177.76667 -294.326431 
L 176.137261 -293.357676 
L 174.507853 -292.149397 
L 172.878444 -290.742392 
L 171.249035 -289.173028 
L 169.619626 -287.472623 
L 167.990218 -285.667143 
L 166.360809 -283.777192 
L 164.7314 -281.818222 
L 163.101991 -279.800904 
L 161.472583 -277.731585 
L 159.843174 -275.61277 
L 158.213765 -273.443544 
L 156.584356 -271.21993 
L 154.954948 -268.935121 
L 153.325539 -266.579627 
L 151.69613 -264.141328 
L 150.066721 -261.605506 
L 148.437313 -258.954884 
L 146.807904 -256.169741 
L 145.178495 -253.22816 
L 143.549087 -250.106434 
L 141.919678 -246.779668 
L 140.290269 -243.222572 
L 138.66086 -239.410419 
L 137.031452 -235.32014 
L 135.402043 -230.931493 
L 133.772634 -226.228225 
L 132.143225 -221.199192 
L 130.513817 -215.839325 
L 128.884408 -210.150415 
L 127.254999 -204.141656 
L 125.62559 -197.829918 
L 123.996182 -191.239723 
L 122.366773 -184.402952 
L 120.737364 -177.358264 
L 119.107955 -170.150278 
L 117.478547 -162.828552 
L 115.849138 -155.44638 
L 114.219729 -148.059487 
L 112.59032 -140.724638 
L 110.960912 -133.49823 
L 109.331503 -126.434909 
L 107.702094 -119.586254 
L 106.072685 -112.999575 
L 104.443277 -106.716867 
L 102.813868 -100.773946 
L 101.184459 -95.1998 
L 99.555051 -90.016173 
L 97.925642 -85.237392 
L 96.296233 -80.870426 
L 94.666824 -76.915189 
L 93.037416 -73.365036 
L 91.408007 -70.207443 
L 89.778598 -67.424825 
L 88.149189 -64.995449 
L 86.519781 -62.894396 
L 84.890372 -61.094533 
L 83.260963 -59.567446 
L 81.631554 -58.284308 
L 80.002146 -57.216646 
L 78.372737 -56.336989 
L 76.743328 -55.619389 
L 75.113919 -55.03981 
L 73.484511 -54.576385 
L 71.855102 -54.20956 
L 70.225693 -53.922131 
L 68.596284 -53.6992 
L 66.966876 -53.528054 
L 65.337467 -53.398008 
L 63.708058 -53.300205 
z
" style="stroke: #1f77b4"/>
    </defs>
    <g clip-path="url(#p79b0bfe39a)">
     <use xlink:href="#ma86ac61612" x="0" y="329.021799" style="fill: #1f77b4; fill-opacity: 0.25; stroke: #1f77b4"/>
    </g>
   </g>
   <g id="matplotlib.axis_1">
    <g id="xtick_1">
     <g id="line2d_1">
      <defs>
       <path id="m9f0d5c6a48" d="M 0 0 
L 0 3.5 
" style="stroke: #000000; stroke-width: 0.8"/>
      </defs>
      <g>
       <use xlink:href="#m9f0d5c6a48" x="107.59421" y="275.980549" style="stroke: #000000; stroke-width: 0.8"/>
      </g>
     </g>
     <g id="text_1">
      <!-- 0.00 -->
      <g transform="translate(87.555148 296.657737) scale(0.18 -0.18)">
       <defs>
        <path id="DejaVuSans-30" d="M 2034 4250 
Q 1547 4250 1301 3770 
Q 1056 3291 1056 2328 
Q 1056 1369 1301 889 
Q 1547 409 2034 409 
Q 2525 409 2770 889 
Q 3016 1369 3016 2328 
Q 3016 3291 2770 3770 
Q 2525 4250 2034 4250 
z
M 2034 4750 
Q 2819 4750 3233 4129 
Q 3647 3509 3647 2328 
Q 3647 1150 3233 529 
Q 2819 -91 2034 -91 
Q 1250 -91 836 529 
Q 422 1150 422 2328 
Q 422 3509 836 4129 
Q 1250 4750 2034 4750 
z
" transform="scale(0.015625)"/>
        <path id="DejaVuSans-2e" d="M 684 794 
L 1344 794 
L 1344 0 
L 684 0 
L 684 794 
z
" transform="scale(0.015625)"/>
       </defs>
       <use xlink:href="#DejaVuSans-30"/>
       <use xlink:href="#DejaVuSans-2e" x="63.623047"/>
       <use xlink:href="#DejaVuSans-30" x="95.410156"/>
       <use xlink:href="#DejaVuSans-30" x="159.033203"/>
      </g>
     </g>
    </g>
    <g id="xtick_2">
     <g id="line2d_2">
      <g>
       <use xlink:href="#m9f0d5c6a48" x="169.658237" y="275.980549" style="stroke: #000000; stroke-width: 0.8"/>
      </g>
     </g>
     <g id="text_2">
      <!-- 0.05 -->
      <g transform="translate(149.619175 296.657737) scale(0.18 -0.18)">
       <defs>
        <path id="DejaVuSans-35" d="M 691 4666 
L 3169 4666 
L 3169 4134 
L 1269 4134 
L 1269 2991 
Q 1406 3038 1543 3061 
Q 1681 3084 1819 3084 
Q 2600 3084 3056 2656 
Q 3513 2228 3513 1497 
Q 3513 744 3044 326 
Q 2575 -91 1722 -91 
Q 1428 -91 1123 -41 
Q 819 9 494 109 
L 494 744 
Q 775 591 1075 516 
Q 1375 441 1709 441 
Q 2250 441 2565 725 
Q 2881 1009 2881 1497 
Q 2881 1984 2565 2268 
Q 2250 2553 1709 2553 
Q 1456 2553 1204 2497 
Q 953 2441 691 2322 
L 691 4666 
z
" transform="scale(0.015625)"/>
       </defs>
       <use xlink:href="#DejaVuSans-30"/>
       <use xlink:href="#DejaVuSans-2e" x="63.623047"/>
       <use xlink:href="#DejaVuSans-30" x="95.410156"/>
       <use xlink:href="#DejaVuSans-35" x="159.033203"/>
      </g>
     </g>
    </g>
    <g id="xtick_3">
     <g id="line2d_3">
      <g>
       <use xlink:href="#m9f0d5c6a48" x="231.722264" y="275.980549" style="stroke: #000000; stroke-width: 0.8"/>
      </g>
     </g>
     <g id="text_3">
      <!-- 0.10 -->
      <g transform="translate(211.683201 296.657737) scale(0.18 -0.18)">
       <defs>
        <path id="DejaVuSans-31" d="M 794 531 
L 1825 531 
L 1825 4091 
L 703 3866 
L 703 4441 
L 1819 4666 
L 2450 4666 
L 2450 531 
L 3481 531 
L 3481 0 
L 794 0 
L 794 531 
z
" transform="scale(0.015625)"/>
       </defs>
       <use xlink:href="#DejaVuSans-30"/>
       <use xlink:href="#DejaVuSans-2e" x="63.623047"/>
       <use xlink:href="#DejaVuSans-31" x="95.410156"/>
       <use xlink:href="#DejaVuSans-30" x="159.033203"/>
      </g>
     </g>
    </g>
    <g id="xtick_4">
     <g id="line2d_4">
      <g>
       <use xlink:href="#m9f0d5c6a48" x="293.786291" y="275.980549" style="stroke: #000000; stroke-width: 0.8"/>
      </g>
     </g>
     <g id="text_4">
      <!-- 0.15 -->
      <g transform="translate(273.747228 296.657737) scale(0.18 -0.18)">
       <use xlink:href="#DejaVuSans-30"/>
       <use xlink:href="#DejaVuSans-2e" x="63.623047"/>
       <use xlink:href="#DejaVuSans-31" x="95.410156"/>
       <use xlink:href="#DejaVuSans-35" x="159.033203"/>
      </g>
     </g>
    </g>
    <g id="xtick_5">
     <g id="line2d_5">
      <g>
       <use xlink:href="#m9f0d5c6a48" x="355.850317" y="275.980549" style="stroke: #000000; stroke-width: 0.8"/>
      </g>
     </g>
     <g id="text_5">
      <!-- 0.20 -->
      <g transform="translate(335.811255 296.657737) scale(0.18 -0.18)">
       <defs>
        <path id="DejaVuSans-32" d="M 1228 531 
L 3431 531 
L 3431 0 
L 469 0 
L 469 531 
Q 828 903 1448 1529 
Q 2069 2156 2228 2338 
Q 2531 2678 2651 2914 
Q 2772 3150 2772 3378 
Q 2772 3750 2511 3984 
Q 2250 4219 1831 4219 
Q 1534 4219 1204 4116 
Q 875 4013 500 3803 
L 500 4441 
Q 881 4594 1212 4672 
Q 1544 4750 1819 4750 
Q 2544 4750 2975 4387 
Q 3406 4025 3406 3419 
Q 3406 3131 3298 2873 
Q 3191 2616 2906 2266 
Q 2828 2175 2409 1742 
Q 1991 1309 1228 531 
z
" transform="scale(0.015625)"/>
       </defs>
       <use xlink:href="#DejaVuSans-30"/>
       <use xlink:href="#DejaVuSans-2e" x="63.623047"/>
       <use xlink:href="#DejaVuSans-32" x="95.410156"/>
       <use xlink:href="#DejaVuSans-30" x="159.033203"/>
      </g>
     </g>
    </g>
    <g id="text_6">
     <!-- Valor -->
     <g transform="translate(202.951719 318.078362) scale(0.18 -0.18)">
      <defs>
       <path id="DejaVuSans-56" d="M 1831 0 
L 50 4666 
L 709 4666 
L 2188 738 
L 3669 4666 
L 4325 4666 
L 2547 0 
L 1831 0 
z
" transform="scale(0.015625)"/>
       <path id="DejaVuSans-61" d="M 2194 1759 
Q 1497 1759 1228 1600 
Q 959 1441 959 1056 
Q 959 750 1161 570 
Q 1363 391 1709 391 
Q 2188 391 2477 730 
Q 2766 1069 2766 1631 
L 2766 1759 
L 2194 1759 
z
M 3341 1997 
L 3341 0 
L 2766 0 
L 2766 531 
Q 2569 213 2275 61 
Q 1981 -91 1556 -91 
Q 1019 -91 701 211 
Q 384 513 384 1019 
Q 384 1609 779 1909 
Q 1175 2209 1959 2209 
L 2766 2209 
L 2766 2266 
Q 2766 2663 2505 2880 
Q 2244 3097 1772 3097 
Q 1472 3097 1187 3025 
Q 903 2953 641 2809 
L 641 3341 
Q 956 3463 1253 3523 
Q 1550 3584 1831 3584 
Q 2591 3584 2966 3190 
Q 3341 2797 3341 1997 
z
" transform="scale(0.015625)"/>
       <path id="DejaVuSans-6c" d="M 603 4863 
L 1178 4863 
L 1178 0 
L 603 0 
L 603 4863 
z
" transform="scale(0.015625)"/>
       <path id="DejaVuSans-6f" d="M 1959 3097 
Q 1497 3097 1228 2736 
Q 959 2375 959 1747 
Q 959 1119 1226 758 
Q 1494 397 1959 397 
Q 2419 397 2687 759 
Q 2956 1122 2956 1747 
Q 2956 2369 2687 2733 
Q 2419 3097 1959 3097 
z
M 1959 3584 
Q 2709 3584 3137 3096 
Q 3566 2609 3566 1747 
Q 3566 888 3137 398 
Q 2709 -91 1959 -91 
Q 1206 -91 779 398 
Q 353 888 353 1747 
Q 353 2609 779 3096 
Q 1206 3584 1959 3584 
z
" transform="scale(0.015625)"/>
       <path id="DejaVuSans-72" d="M 2631 2963 
Q 2534 3019 2420 3045 
Q 2306 3072 2169 3072 
Q 1681 3072 1420 2755 
Q 1159 2438 1159 1844 
L 1159 0 
L 581 0 
L 581 3500 
L 1159 3500 
L 1159 2956 
Q 1341 3275 1631 3429 
Q 1922 3584 2338 3584 
Q 2397 3584 2469 3576 
Q 2541 3569 2628 3553 
L 2631 2963 
z
" transform="scale(0.015625)"/>
      </defs>
      <use xlink:href="#DejaVuSans-56"/>
      <use xlink:href="#DejaVuSans-61" x="60.658203"/>
      <use xlink:href="#DejaVuSans-6c" x="121.9375"/>
      <use xlink:href="#DejaVuSans-6f" x="149.720703"/>
      <use xlink:href="#DejaVuSans-72" x="210.902344"/>
     </g>
    </g>
   </g>
   <g id="matplotlib.axis_2">
    <g id="ytick_1">
     <g id="line2d_6">
      <defs>
       <path id="m24a849e08b" d="M 0 0 
L -3.5 0 
" style="stroke: #000000; stroke-width: 0.8"/>
      </defs>
      <g>
       <use xlink:href="#m24a849e08b" x="47.073125" y="275.980549" style="stroke: #000000; stroke-width: 0.8"/>
      </g>
     </g>
     <g id="text_7">
      <!-- 0 -->
      <g transform="translate(28.620625 282.819143) scale(0.18 -0.18)">
       <use xlink:href="#DejaVuSans-30"/>
      </g>
     </g>
    </g>
    <g id="ytick_2">
     <g id="line2d_7">
      <g>
       <use xlink:href="#m24a849e08b" x="47.073125" y="210.495061" style="stroke: #000000; stroke-width: 0.8"/>
      </g>
     </g>
     <g id="text_8">
      <!-- 1 -->
      <g transform="translate(28.620625 217.333654) scale(0.18 -0.18)">
       <use xlink:href="#DejaVuSans-31"/>
      </g>
     </g>
    </g>
    <g id="ytick_3">
     <g id="line2d_8">
      <g>
       <use xlink:href="#m24a849e08b" x="47.073125" y="145.009572" style="stroke: #000000; stroke-width: 0.8"/>
      </g>
     </g>
     <g id="text_9">
      <!-- 2 -->
      <g transform="translate(28.620625 151.848165) scale(0.18 -0.18)">
       <use xlink:href="#DejaVuSans-32"/>
      </g>
     </g>
    </g>
    <g id="ytick_4">
     <g id="line2d_9">
      <g>
       <use xlink:href="#m24a849e08b" x="47.073125" y="79.524083" style="stroke: #000000; stroke-width: 0.8"/>
      </g>
     </g>
     <g id="text_10">
      <!-- 3 -->
      <g transform="translate(28.620625 86.362676) scale(0.18 -0.18)">
       <defs>
        <path id="DejaVuSans-33" d="M 2597 2516 
Q 3050 2419 3304 2112 
Q 3559 1806 3559 1356 
Q 3559 666 3084 287 
Q 2609 -91 1734 -91 
Q 1441 -91 1130 -33 
Q 819 25 488 141 
L 488 750 
Q 750 597 1062 519 
Q 1375 441 1716 441 
Q 2309 441 2620 675 
Q 2931 909 2931 1356 
Q 2931 1769 2642 2001 
Q 2353 2234 1838 2234 
L 1294 2234 
L 1294 2753 
L 1863 2753 
Q 2328 2753 2575 2939 
Q 2822 3125 2822 3475 
Q 2822 3834 2567 4026 
Q 2313 4219 1838 4219 
Q 1578 4219 1281 4162 
Q 984 4106 628 3988 
L 628 4550 
Q 988 4650 1302 4700 
Q 1616 4750 1894 4750 
Q 2613 4750 3031 4423 
Q 3450 4097 3450 3541 
Q 3450 3153 3228 2886 
Q 3006 2619 2597 2516 
z
" transform="scale(0.015625)"/>
       </defs>
       <use xlink:href="#DejaVuSans-33"/>
      </g>
     </g>
    </g>
    <g id="ytick_5">
     <g id="line2d_10">
      <g>
       <use xlink:href="#m24a849e08b" x="47.073125" y="14.038594" style="stroke: #000000; stroke-width: 0.8"/>
      </g>
     </g>
     <g id="text_11">
      <!-- 4 -->
      <g transform="translate(28.620625 20.877187) scale(0.18 -0.18)">
       <defs>
        <path id="DejaVuSans-34" d="M 2419 4116 
L 825 1625 
L 2419 1625 
L 2419 4116 
z
M 2253 4666 
L 3047 4666 
L 3047 1625 
L 3713 1625 
L 3713 1100 
L 3047 1100 
L 3047 0 
L 2419 0 
L 2419 1100 
L 313 1100 
L 313 1709 
L 2253 4666 
z
" transform="scale(0.015625)"/>
       </defs>
       <use xlink:href="#DejaVuSans-34"/>
      </g>
     </g>
    </g>
    <g id="text_12">
     <!-- Density -->
     <g transform="translate(20.877188 177.140018) rotate(-90) scale(0.18 -0.18)">
      <defs>
       <path id="DejaVuSans-44" d="M 1259 4147 
L 1259 519 
L 2022 519 
Q 2988 519 3436 956 
Q 3884 1394 3884 2338 
Q 3884 3275 3436 3711 
Q 2988 4147 2022 4147 
L 1259 4147 
z
M 628 4666 
L 1925 4666 
Q 3281 4666 3915 4102 
Q 4550 3538 4550 2338 
Q 4550 1131 3912 565 
Q 3275 0 1925 0 
L 628 0 
L 628 4666 
z
" transform="scale(0.015625)"/>
       <path id="DejaVuSans-65" d="M 3597 1894 
L 3597 1613 
L 953 1613 
Q 991 1019 1311 708 
Q 1631 397 2203 397 
Q 2534 397 2845 478 
Q 3156 559 3463 722 
L 3463 178 
Q 3153 47 2828 -22 
Q 2503 -91 2169 -91 
Q 1331 -91 842 396 
Q 353 884 353 1716 
Q 353 2575 817 3079 
Q 1281 3584 2069 3584 
Q 2775 3584 3186 3129 
Q 3597 2675 3597 1894 
z
M 3022 2063 
Q 3016 2534 2758 2815 
Q 2500 3097 2075 3097 
Q 1594 3097 1305 2825 
Q 1016 2553 972 2059 
L 3022 2063 
z
" transform="scale(0.015625)"/>
       <path id="DejaVuSans-6e" d="M 3513 2113 
L 3513 0 
L 2938 0 
L 2938 2094 
Q 2938 2591 2744 2837 
Q 2550 3084 2163 3084 
Q 1697 3084 1428 2787 
Q 1159 2491 1159 1978 
L 1159 0 
L 581 0 
L 581 3500 
L 1159 3500 
L 1159 2956 
Q 1366 3272 1645 3428 
Q 1925 3584 2291 3584 
Q 2894 3584 3203 3211 
Q 3513 2838 3513 2113 
z
" transform="scale(0.015625)"/>
       <path id="DejaVuSans-73" d="M 2834 3397 
L 2834 2853 
Q 2591 2978 2328 3040 
Q 2066 3103 1784 3103 
Q 1356 3103 1142 2972 
Q 928 2841 928 2578 
Q 928 2378 1081 2264 
Q 1234 2150 1697 2047 
L 1894 2003 
Q 2506 1872 2764 1633 
Q 3022 1394 3022 966 
Q 3022 478 2636 193 
Q 2250 -91 1575 -91 
Q 1294 -91 989 -36 
Q 684 19 347 128 
L 347 722 
Q 666 556 975 473 
Q 1284 391 1588 391 
Q 1994 391 2212 530 
Q 2431 669 2431 922 
Q 2431 1156 2273 1281 
Q 2116 1406 1581 1522 
L 1381 1569 
Q 847 1681 609 1914 
Q 372 2147 372 2553 
Q 372 3047 722 3315 
Q 1072 3584 1716 3584 
Q 2034 3584 2315 3537 
Q 2597 3491 2834 3397 
z
" transform="scale(0.015625)"/>
       <path id="DejaVuSans-69" d="M 603 3500 
L 1178 3500 
L 1178 0 
L 603 0 
L 603 3500 
z
M 603 4863 
L 1178 4863 
L 1178 4134 
L 603 4134 
L 603 4863 
z
" transform="scale(0.015625)"/>
       <path id="DejaVuSans-74" d="M 1172 4494 
L 1172 3500 
L 2356 3500 
L 2356 3053 
L 1172 3053 
L 1172 1153 
Q 1172 725 1289 603 
Q 1406 481 1766 481 
L 2356 481 
L 2356 0 
L 1766 0 
Q 1100 0 847 248 
Q 594 497 594 1153 
L 594 3053 
L 172 3053 
L 172 3500 
L 594 3500 
L 594 4494 
L 1172 4494 
z
" transform="scale(0.015625)"/>
       <path id="DejaVuSans-79" d="M 2059 -325 
Q 1816 -950 1584 -1140 
Q 1353 -1331 966 -1331 
L 506 -1331 
L 506 -850 
L 844 -850 
Q 1081 -850 1212 -737 
Q 1344 -625 1503 -206 
L 1606 56 
L 191 3500 
L 800 3500 
L 1894 763 
L 2988 3500 
L 3597 3500 
L 2059 -325 
z
" transform="scale(0.015625)"/>
      </defs>
      <use xlink:href="#DejaVuSans-44"/>
      <use xlink:href="#DejaVuSans-65" x="77.001953"/>
      <use xlink:href="#DejaVuSans-6e" x="138.525391"/>
      <use xlink:href="#DejaVuSans-73" x="201.904297"/>
      <use xlink:href="#DejaVuSans-69" x="254.003906"/>
      <use xlink:href="#DejaVuSans-74" x="281.787109"/>
      <use xlink:href="#DejaVuSans-79" x="320.996094"/>
     </g>
    </g>
   </g>
   <g id="patch_3">
    <path d="M 47.073125 275.980549 
L 47.073125 9.868549 
" style="fill: none; stroke: #000000; stroke-width: 0.8; stroke-linejoin: miter; stroke-linecap: square"/>
   </g>
   <g id="patch_4">
    <path d="M 404.193125 275.980549 
L 404.193125 9.868549 
" style="fill: none; stroke: #000000; stroke-width: 0.8; stroke-linejoin: miter; stroke-linecap: square"/>
   </g>
   <g id="patch_5">
    <path d="M 47.073125 275.980549 
L 404.193125 275.980549 
" style="fill: none; stroke: #000000; stroke-width: 0.8; stroke-linejoin: miter; stroke-linecap: square"/>
   </g>
   <g id="patch_6">
    <path d="M 47.073125 9.868549 
L 404.193125 9.868549 
" style="fill: none; stroke: #000000; stroke-width: 0.8; stroke-linejoin: miter; stroke-linecap: square"/>
   </g>
   <g id="legend_1">
    <g id="patch_7">
     <path d="M 282.76625 129.951049 
L 391.593125 129.951049 
Q 395.193125 129.951049 395.193125 126.351049 
L 395.193125 22.468549 
Q 395.193125 18.868549 391.593125 18.868549 
L 282.76625 18.868549 
Q 279.16625 18.868549 279.16625 22.468549 
L 279.16625 126.351049 
Q 279.16625 129.951049 282.76625 129.951049 
z
" style="fill: #ffffff; opacity: 0.8; stroke: #cccccc; stroke-linejoin: miter"/>
    </g>
    <g id="text_13">
     <!-- Model -->
     <g transform="translate(310.155781 39.745737) scale(0.18 -0.18)">
      <defs>
       <path id="DejaVuSans-4d" d="M 628 4666 
L 1569 4666 
L 2759 1491 
L 3956 4666 
L 4897 4666 
L 4897 0 
L 4281 0 
L 4281 4097 
L 3078 897 
L 2444 897 
L 1241 4097 
L 1241 0 
L 628 0 
L 628 4666 
z
" transform="scale(0.015625)"/>
       <path id="DejaVuSans-64" d="M 2906 2969 
L 2906 4863 
L 3481 4863 
L 3481 0 
L 2906 0 
L 2906 525 
Q 2725 213 2448 61 
Q 2172 -91 1784 -91 
Q 1150 -91 751 415 
Q 353 922 353 1747 
Q 353 2572 751 3078 
Q 1150 3584 1784 3584 
Q 2172 3584 2448 3432 
Q 2725 3281 2906 2969 
z
M 947 1747 
Q 947 1113 1208 752 
Q 1469 391 1925 391 
Q 2381 391 2643 752 
Q 2906 1113 2906 1747 
Q 2906 2381 2643 2742 
Q 2381 3103 1925 3103 
Q 1469 3103 1208 2742 
Q 947 2381 947 1747 
z
" transform="scale(0.015625)"/>
      </defs>
      <use xlink:href="#DejaVuSans-4d"/>
      <use xlink:href="#DejaVuSans-6f" x="86.279297"/>
      <use xlink:href="#DejaVuSans-64" x="147.460938"/>
      <use xlink:href="#DejaVuSans-65" x="210.9375"/>
      <use xlink:href="#DejaVuSans-6c" x="272.460938"/>
     </g>
    </g>
    <g id="patch_8">
     <path d="M 286.36625 66.166362 
L 322.36625 66.166362 
L 322.36625 53.566362 
L 286.36625 53.566362 
z
" style="fill: #1f77b4; fill-opacity: 0.25; stroke: #1f77b4; stroke-linejoin: miter"/>
    </g>
    <g id="text_14">
     <!-- Naive -->
     <g transform="translate(336.76625 66.166362) scale(0.18 -0.18)">
      <defs>
       <path id="DejaVuSans-4e" d="M 628 4666 
L 1478 4666 
L 3547 763 
L 3547 4666 
L 4159 4666 
L 4159 0 
L 3309 0 
L 1241 3903 
L 1241 0 
L 628 0 
L 628 4666 
z
" transform="scale(0.015625)"/>
       <path id="DejaVuSans-76" d="M 191 3500 
L 800 3500 
L 1894 563 
L 2988 3500 
L 3597 3500 
L 2284 0 
L 1503 0 
L 191 3500 
z
" transform="scale(0.015625)"/>
      </defs>
      <use xlink:href="#DejaVuSans-4e"/>
      <use xlink:href="#DejaVuSans-61" x="74.804688"/>
      <use xlink:href="#DejaVuSans-69" x="136.083984"/>
      <use xlink:href="#DejaVuSans-76" x="163.867188"/>
      <use xlink:href="#DejaVuSans-65" x="223.046875"/>
     </g>
    </g>
    <g id="patch_9">
     <path d="M 286.36625 92.586987 
L 322.36625 92.586987 
L 322.36625 79.986987 
L 286.36625 79.986987 
z
" style="fill: #ff7f0e; fill-opacity: 0.25; stroke: #ff7f0e; stroke-linejoin: miter"/>
    </g>
    <g id="text_15">
     <!-- KDE -->
     <g transform="translate(336.76625 92.586987) scale(0.18 -0.18)">
      <defs>
       <path id="DejaVuSans-4b" d="M 628 4666 
L 1259 4666 
L 1259 2694 
L 3353 4666 
L 4166 4666 
L 1850 2491 
L 4331 0 
L 3500 0 
L 1259 2247 
L 1259 0 
L 628 0 
L 628 4666 
z
" transform="scale(0.015625)"/>
       <path id="DejaVuSans-45" d="M 628 4666 
L 3578 4666 
L 3578 4134 
L 1259 4134 
L 1259 2753 
L 3481 2753 
L 3481 2222 
L 1259 2222 
L 1259 531 
L 3634 531 
L 3634 0 
L 628 0 
L 628 4666 
z
" transform="scale(0.015625)"/>
      </defs>
      <use xlink:href="#DejaVuSans-4b"/>
      <use xlink:href="#DejaVuSans-44" x="65.576172"/>
      <use xlink:href="#DejaVuSans-45" x="142.578125"/>
     </g>
    </g>
    <g id="patch_10">
     <path d="M 286.36625 119.007612 
L 322.36625 119.007612 
L 322.36625 106.407612 
L 286.36625 106.407612 
z
" style="fill: #2ca02c; fill-opacity: 0.25; stroke: #2ca02c; stroke-linejoin: miter"/>
    </g>
    <g id="text_16">
     <!-- SEPP -->
     <g transform="translate(336.76625 119.007612) scale(0.18 -0.18)">
      <defs>
       <path id="DejaVuSans-53" d="M 3425 4513 
L 3425 3897 
Q 3066 4069 2747 4153 
Q 2428 4238 2131 4238 
Q 1616 4238 1336 4038 
Q 1056 3838 1056 3469 
Q 1056 3159 1242 3001 
Q 1428 2844 1947 2747 
L 2328 2669 
Q 3034 2534 3370 2195 
Q 3706 1856 3706 1288 
Q 3706 609 3251 259 
Q 2797 -91 1919 -91 
Q 1588 -91 1214 -16 
Q 841 59 441 206 
L 441 856 
Q 825 641 1194 531 
Q 1563 422 1919 422 
Q 2459 422 2753 634 
Q 3047 847 3047 1241 
Q 3047 1584 2836 1778 
Q 2625 1972 2144 2069 
L 1759 2144 
Q 1053 2284 737 2584 
Q 422 2884 422 3419 
Q 422 4038 858 4394 
Q 1294 4750 2059 4750 
Q 2388 4750 2728 4690 
Q 3069 4631 3425 4513 
z
" transform="scale(0.015625)"/>
       <path id="DejaVuSans-50" d="M 1259 4147 
L 1259 2394 
L 2053 2394 
Q 2494 2394 2734 2622 
Q 2975 2850 2975 3272 
Q 2975 3691 2734 3919 
Q 2494 4147 2053 4147 
L 1259 4147 
z
M 628 4666 
L 2053 4666 
Q 2838 4666 3239 4311 
Q 3641 3956 3641 3272 
Q 3641 2581 3239 2228 
Q 2838 1875 2053 1875 
L 1259 1875 
L 1259 0 
L 628 0 
L 628 4666 
z
" transform="scale(0.015625)"/>
      </defs>
      <use xlink:href="#DejaVuSans-53"/>
      <use xlink:href="#DejaVuSans-45" x="63.476562"/>
      <use xlink:href="#DejaVuSans-50" x="126.660156"/>
      <use xlink:href="#DejaVuSans-50" x="186.962891"/>
     </g>
    </g>
   </g>
  </g>
 </g>
 <defs>
  <clipPath id="p79b0bfe39a">
   <rect x="47.073125" y="9.868549" width="357.12" height="266.112"/>
  </clipPath>
 </defs>
</svg>
