<?xml version="1.0" encoding="utf-8" standalone="no"?>
<!DOCTYPE svg PUBLIC "-//W3C//DTD SVG 1.1//EN"
  "http://www.w3.org/Graphics/SVG/1.1/DTD/svg11.dtd">
<svg xmlns:xlink="http://www.w3.org/1999/xlink" width="805.589637pt" height="332.7325pt" viewBox="0 0 805.589637 332.7325" xmlns="http://www.w3.org/2000/svg" version="1.1">
 <metadata>
  <rdf:RDF xmlns:dc="http://purl.org/dc/elements/1.1/" xmlns:cc="http://creativecommons.org/ns#" xmlns:rdf="http://www.w3.org/1999/02/22-rdf-syntax-ns#">
   <cc:Work>
    <dc:type rdf:resource="http://purl.org/dc/dcmitype/StillImage"/>
    <dc:date>2024-03-21T11:57:24.794466</dc:date>
    <dc:format>image/svg+xml</dc:format>
    <dc:creator>
     <cc:Agent>
      <dc:title>Matplotlib v3.8.2, https://matplotlib.org/</dc:title>
     </cc:Agent>
    </dc:creator>
   </cc:Work>
  </rdf:RDF>
 </metadata>
 <defs>
  <style type="text/css">*{stroke-linejoin: round; stroke-linecap: butt}</style>
 </defs>
 <g id="figure_1">
  <g id="patch_1">
   <path d="M 0 332.7325 
L 805.589637 332.7325 
L 805.589637 0 
L 0 0 
z
" style="fill: #ffffff"/>
  </g>
  <g id="axes_1">
   <g id="patch_2">
    <path d="M 66.0715 277.617 
L 357.388163 277.617 
L 357.388163 27.789 
L 66.0715 27.789 
z
" style="fill: #ffffff"/>
   </g>
   <g id="PolyCollection_1">
    <defs>
     <path id="m82af94e6f6" d="M 79.313166 -272.740047 
L 79.313166 -233.96978 
L 83.959365 -171.370983 
L 88.605564 -155.721283 
L 93.251763 -143.648658 
L 97.897962 -134.109794 
L 102.54416 -131.762339 
L 107.190359 -116.224423 
L 111.836558 -110.920914 
L 116.482757 -102.725937 
L 121.128955 -96.71311 
L 125.775154 -90.252528 
L 130.421353 -87.834075 
L 135.067552 -81.046971 
L 139.713751 -79.887144 
L 144.359949 -76.592492 
L 149.006148 -77.441014 
L 153.652347 -75.901079 
L 158.298546 -75.779645 
L 162.944744 -74.099123 
L 167.590943 -73.590001 
L 172.237142 -71.736423 
L 176.883341 -72.198925 
L 181.529539 -71.299246 
L 186.175738 -69.87422 
L 190.821937 -69.733331 
L 195.468136 -69.590084 
L 200.114335 -69.641591 
L 204.760533 -69.747443 
L 209.406732 -69.754415 
L 214.052931 -69.164681 
L 218.69913 -69.070108 
L 223.345328 -68.828224 
L 227.991527 -69.39077 
L 232.637726 -69.123021 
L 237.283925 -69.173791 
L 241.930123 -69.449684 
L 246.576322 -68.77317 
L 251.222521 -69.107854 
L 255.86872 -69.184744 
L 260.514919 -69.155476 
L 265.161117 -69.243535 
L 269.807316 -69.023704 
L 274.453515 -69.644124 
L 279.099714 -68.829531 
L 283.745912 -69.09423 
L 288.392111 -68.916555 
L 293.03831 -69.455149 
L 297.684509 -68.91981 
L 302.330707 -69.472718 
L 306.976906 -69.329365 
L 311.623105 -69.020208 
L 316.269304 -69.163207 
L 320.915503 -69.168685 
L 325.561701 -68.796871 
L 330.2079 -68.897137 
L 334.854099 -69.045988 
L 339.500298 -69.022897 
L 344.146496 -69.216616 
L 344.146496 -80.17558 
L 344.146496 -80.17558 
L 339.500298 -80.622074 
L 334.854099 -80.329372 
L 330.2079 -80.343832 
L 325.561701 -80.430406 
L 320.915503 -80.579616 
L 316.269304 -80.08951 
L 311.623105 -80.082867 
L 306.976906 -80.545482 
L 302.330707 -80.839417 
L 297.684509 -80.74066 
L 293.03831 -80.542984 
L 288.392111 -80.095942 
L 283.745912 -80.36496 
L 279.099714 -79.815325 
L 274.453515 -80.164035 
L 269.807316 -80.09525 
L 265.161117 -80.292503 
L 260.514919 -80.232821 
L 255.86872 -80.38967 
L 251.222521 -80.496185 
L 246.576322 -80.109544 
L 241.930123 -80.469831 
L 237.283925 -80.512882 
L 232.637726 -80.353729 
L 227.991527 -80.258738 
L 223.345328 -80.456882 
L 218.69913 -80.333387 
L 214.052931 -80.702442 
L 209.406732 -80.942844 
L 204.760533 -81.351389 
L 200.114335 -81.028316 
L 195.468136 -81.271404 
L 190.821937 -81.59106 
L 186.175738 -81.524454 
L 181.529539 -82.9867 
L 176.883341 -84.720446 
L 172.237142 -83.895735 
L 167.590943 -85.972467 
L 162.944744 -87.19892 
L 158.298546 -89.40479 
L 153.652347 -89.945199 
L 149.006148 -91.609248 
L 144.359949 -90.5602 
L 139.713751 -93.86114 
L 135.067552 -95.538965 
L 130.421353 -103.91002 
L 125.775154 -106.945917 
L 121.128955 -115.200682 
L 116.482757 -121.360257 
L 111.836558 -129.642591 
L 107.190359 -137.090689 
L 102.54416 -153.05977 
L 97.897962 -158.702178 
L 93.251763 -167.503271 
L 88.605564 -183.67649 
L 83.959365 -203.664013 
L 79.313166 -272.740047 
z
" style="stroke: #1f77b4; stroke-opacity: 0.2; stroke-width: 0.8"/>
    </defs>
    <g clip-path="url(#pc1f028ae86)">
     <use xlink:href="#m82af94e6f6" x="0" y="332.7325" style="fill: #1f77b4; fill-opacity: 0.2; stroke: #1f77b4; stroke-opacity: 0.2; stroke-width: 0.8"/>
    </g>
   </g>
   <g id="PolyCollection_2">
    <defs>
     <path id="m2c1d869d81" d="M 79.313166 -234.715004 
L 79.313166 -197.453815 
L 83.959365 -154.97606 
L 88.605564 -146.769283 
L 93.251763 -132.023167 
L 97.897962 -124.421885 
L 102.54416 -116.644942 
L 107.190359 -108.026962 
L 111.836558 -101.812623 
L 116.482757 -91.994714 
L 121.128955 -89.319587 
L 125.775154 -86.581548 
L 130.421353 -84.822955 
L 135.067552 -81.764164 
L 139.713751 -79.933074 
L 144.359949 -77.837428 
L 149.006148 -76.215918 
L 153.652347 -75.309747 
L 158.298546 -73.06205 
L 162.944744 -70.444682 
L 167.590943 -70.035983 
L 172.237142 -69.930562 
L 176.883341 -68.922121 
L 181.529539 -68.182151 
L 186.175738 -68.419795 
L 190.821937 -67.448438 
L 195.468136 -67.074214 
L 200.114335 -67.077932 
L 204.760533 -67.285817 
L 209.406732 -67.07431 
L 214.052931 -67.014026 
L 218.69913 -67.308261 
L 223.345328 -67.122258 
L 227.991527 -67.03474 
L 232.637726 -66.471318 
L 237.283925 -66.935247 
L 241.930123 -66.797605 
L 246.576322 -67.103343 
L 251.222521 -66.748147 
L 255.86872 -66.710719 
L 260.514919 -66.734802 
L 265.161117 -66.791136 
L 269.807316 -67.156663 
L 274.453515 -66.633415 
L 279.099714 -67.172203 
L 283.745912 -66.948562 
L 288.392111 -66.99686 
L 293.03831 -66.736156 
L 297.684509 -67.297714 
L 302.330707 -67.290061 
L 306.976906 -66.874905 
L 311.623105 -66.913675 
L 316.269304 -67.122247 
L 320.915503 -66.666737 
L 325.561701 -66.671765 
L 330.2079 -67.176797 
L 334.854099 -66.583892 
L 339.500298 -67.116369 
L 344.146496 -66.939384 
L 344.146496 -77.881797 
L 344.146496 -77.881797 
L 339.500298 -78.330385 
L 334.854099 -78.279196 
L 330.2079 -78.242112 
L 325.561701 -78.09795 
L 320.915503 -77.622391 
L 316.269304 -78.212424 
L 311.623105 -78.248969 
L 306.976906 -78.282608 
L 302.330707 -78.147988 
L 297.684509 -77.9099 
L 293.03831 -78.192581 
L 288.392111 -78.55618 
L 283.745912 -77.911917 
L 279.099714 -78.156825 
L 274.453515 -77.642897 
L 269.807316 -78.133216 
L 265.161117 -78.405594 
L 260.514919 -78.090397 
L 255.86872 -78.118571 
L 251.222521 -78.247423 
L 246.576322 -78.233956 
L 241.930123 -78.316202 
L 237.283925 -78.263258 
L 232.637726 -78.352737 
L 227.991527 -78.520402 
L 223.345328 -78.060142 
L 218.69913 -78.232174 
L 214.052931 -78.33143 
L 209.406732 -78.837619 
L 204.760533 -78.925648 
L 200.114335 -79.171659 
L 195.468136 -78.441465 
L 190.821937 -79.442422 
L 186.175738 -79.496287 
L 181.529539 -80.252961 
L 176.883341 -81.54732 
L 172.237142 -82.216112 
L 167.590943 -82.167511 
L 162.944744 -83.317156 
L 158.298546 -86.453968 
L 153.652347 -89.188828 
L 149.006148 -90.528675 
L 144.359949 -92.709727 
L 139.713751 -94.360099 
L 135.067552 -97.401024 
L 130.421353 -100.906767 
L 125.775154 -103.849568 
L 121.128955 -107.072849 
L 116.482757 -110.262633 
L 111.836558 -121.855003 
L 107.190359 -128.893227 
L 102.54416 -137.942373 
L 97.897962 -149.268888 
L 93.251763 -157.360776 
L 88.605564 -176.596864 
L 83.959365 -188.759537 
L 79.313166 -234.715004 
z
" style="stroke: #ff7f0e; stroke-opacity: 0.2; stroke-width: 0.8"/>
    </defs>
    <g clip-path="url(#pc1f028ae86)">
     <use xlink:href="#m2c1d869d81" x="0" y="332.7325" style="fill: #ff7f0e; fill-opacity: 0.2; stroke: #ff7f0e; stroke-opacity: 0.2; stroke-width: 0.8"/>
    </g>
   </g>
   <g id="PolyCollection_3">
    <defs>
     <path id="mac19a28496" d="M 79.313166 -273.46664 
L 79.313166 -233.224556 
L 83.959365 -195.714959 
L 88.605564 -164.291357 
L 93.251763 -157.360776 
L 97.897962 -149.511085 
L 102.54416 -147.518499 
L 107.190359 -141.562032 
L 111.836558 -137.252154 
L 116.482757 -135.351833 
L 121.128955 -132.573052 
L 125.775154 -131.386057 
L 130.421353 -124.939329 
L 135.067552 -120.758693 
L 139.713751 -116.875543 
L 144.359949 -115.097091 
L 149.006148 -110.270388 
L 153.652347 -108.807907 
L 158.298546 -107.543332 
L 162.944744 -105.97201 
L 167.590943 -105.088663 
L 172.237142 -103.188844 
L 176.883341 -102.311172 
L 181.529539 -101.961874 
L 186.175738 -100.312906 
L 190.821937 -99.875732 
L 195.468136 -99.081888 
L 200.114335 -98.715857 
L 204.760533 -99.089477 
L 209.406732 -98.86963 
L 214.052931 -98.348031 
L 218.69913 -98.719514 
L 223.345328 -98.489135 
L 227.991527 -98.938097 
L 232.637726 -98.182129 
L 237.283925 -98.403714 
L 241.930123 -98.425752 
L 246.576322 -98.115253 
L 251.222521 -98.457876 
L 255.86872 -98.511374 
L 260.514919 -98.347065 
L 265.161117 -98.107744 
L 269.807316 -97.945303 
L 274.453515 -98.606063 
L 279.099714 -98.693504 
L 283.745912 -98.675394 
L 288.392111 -98.725342 
L 293.03831 -97.814642 
L 297.684509 -98.682263 
L 302.330707 -98.439275 
L 306.976906 -98.105814 
L 311.623105 -98.549584 
L 316.269304 -98.024671 
L 320.915503 -98.734059 
L 325.561701 -98.410106 
L 330.2079 -98.091711 
L 334.854099 -98.337013 
L 339.500298 -98.296664 
L 344.146496 -98.450251 
L 344.146496 -109.762531 
L 344.146496 -109.762531 
L 339.500298 -110.323903 
L 334.854099 -110.364886 
L 330.2079 -110.60553 
L 325.561701 -110.65153 
L 320.915503 -109.855474 
L 316.269304 -110.080247 
L 311.623105 -110.654561 
L 306.976906 -110.37856 
L 302.330707 -110.159387 
L 297.684509 -110.610458 
L 293.03831 -110.243891 
L 288.392111 -110.451573 
L 283.745912 -109.929539 
L 279.099714 -110.187412 
L 274.453515 -110.405955 
L 269.807316 -110.261978 
L 265.161117 -110.504321 
L 260.514919 -110.241132 
L 255.86872 -110.285675 
L 251.222521 -110.361306 
L 246.576322 -110.401705 
L 241.930123 -109.990616 
L 237.283925 -110.418152 
L 232.637726 -110.360519 
L 227.991527 -110.750151 
L 223.345328 -110.855626 
L 218.69913 -110.747289 
L 214.052931 -110.765507 
L 209.406732 -110.577495 
L 204.760533 -111.262926 
L 200.114335 -110.956243 
L 195.468136 -110.948948 
L 190.821937 -112.091682 
L 186.175738 -113.472568 
L 181.529539 -114.821087 
L 176.883341 -115.685798 
L 172.237142 -116.801182 
L 167.590943 -118.194985 
L 162.944744 -119.834521 
L 158.298546 -121.82374 
L 153.652347 -122.855311 
L 149.006148 -124.548758 
L 144.359949 -130.586323 
L 139.713751 -132.573357 
L 135.067552 -137.249164 
L 130.421353 -141.174654 
L 125.775154 -149.234449 
L 121.128955 -151.137028 
L 116.482757 -154.284244 
L 111.836558 -156.466507 
L 107.190359 -161.315119 
L 102.54416 -168.821253 
L 97.897962 -172.613022 
L 93.251763 -183.003926 
L 88.605564 -191.492025 
L 83.959365 -229.995253 
L 79.313166 -273.46664 
z
" style="stroke: #2ca02c; stroke-opacity: 0.2; stroke-width: 0.8"/>
    </defs>
    <g clip-path="url(#pc1f028ae86)">
     <use xlink:href="#mac19a28496" x="0" y="332.7325" style="fill: #2ca02c; fill-opacity: 0.2; stroke: #2ca02c; stroke-opacity: 0.2; stroke-width: 0.8"/>
    </g>
   </g>
   <g id="matplotlib.axis_1">
    <g id="xtick_1">
     <g id="line2d_1">
      <defs>
       <path id="m3daa9a5c54" d="M 0 0 
L 0 4.8 
" style="stroke: #000000"/>
      </defs>
      <g>
       <use xlink:href="#m3daa9a5c54" x="70.020769" y="277.617" style="stroke: #000000"/>
      </g>
     </g>
     <g id="text_1">
      <!-- 0.0 -->
      <g transform="translate(56.026019 299.29025) scale(0.176 -0.176)">
       <defs>
        <path id="DejaVuSans-30" d="M 2034 4250 
Q 1547 4250 1301 3770 
Q 1056 3291 1056 2328 
Q 1056 1369 1301 889 
Q 1547 409 2034 409 
Q 2525 409 2770 889 
Q 3016 1369 3016 2328 
Q 3016 3291 2770 3770 
Q 2525 4250 2034 4250 
z
M 2034 4750 
Q 2819 4750 3233 4129 
Q 3647 3509 3647 2328 
Q 3647 1150 3233 529 
Q 2819 -91 2034 -91 
Q 1250 -91 836 529 
Q 422 1150 422 2328 
Q 422 3509 836 4129 
Q 1250 4750 2034 4750 
z
" transform="scale(0.015625)"/>
        <path id="DejaVuSans-2e" d="M 684 794 
L 1344 794 
L 1344 0 
L 684 0 
L 684 794 
z
" transform="scale(0.015625)"/>
       </defs>
       <use xlink:href="#DejaVuSans-30"/>
       <use xlink:href="#DejaVuSans-2e" x="63.623047"/>
       <use xlink:href="#DejaVuSans-30" x="95.410156"/>
      </g>
     </g>
    </g>
    <g id="xtick_2">
     <g id="line2d_2">
      <g>
       <use xlink:href="#m3daa9a5c54" x="162.944744" y="277.617" style="stroke: #000000"/>
      </g>
     </g>
     <g id="text_2">
      <!-- 0.1 -->
      <g transform="translate(148.949994 299.29025) scale(0.176 -0.176)">
       <defs>
        <path id="DejaVuSans-31" d="M 794 531 
L 1825 531 
L 1825 4091 
L 703 3866 
L 703 4441 
L 1819 4666 
L 2450 4666 
L 2450 531 
L 3481 531 
L 3481 0 
L 794 0 
L 794 531 
z
" transform="scale(0.015625)"/>
       </defs>
       <use xlink:href="#DejaVuSans-30"/>
       <use xlink:href="#DejaVuSans-2e" x="63.623047"/>
       <use xlink:href="#DejaVuSans-31" x="95.410156"/>
      </g>
     </g>
    </g>
    <g id="xtick_3">
     <g id="line2d_3">
      <g>
       <use xlink:href="#m3daa9a5c54" x="255.86872" y="277.617" style="stroke: #000000"/>
      </g>
     </g>
     <g id="text_3">
      <!-- 0.2 -->
      <g transform="translate(241.87397 299.29025) scale(0.176 -0.176)">
       <defs>
        <path id="DejaVuSans-32" d="M 1228 531 
L 3431 531 
L 3431 0 
L 469 0 
L 469 531 
Q 828 903 1448 1529 
Q 2069 2156 2228 2338 
Q 2531 2678 2651 2914 
Q 2772 3150 2772 3378 
Q 2772 3750 2511 3984 
Q 2250 4219 1831 4219 
Q 1534 4219 1204 4116 
Q 875 4013 500 3803 
L 500 4441 
Q 881 4594 1212 4672 
Q 1544 4750 1819 4750 
Q 2544 4750 2975 4387 
Q 3406 4025 3406 3419 
Q 3406 3131 3298 2873 
Q 3191 2616 2906 2266 
Q 2828 2175 2409 1742 
Q 1991 1309 1228 531 
z
" transform="scale(0.015625)"/>
       </defs>
       <use xlink:href="#DejaVuSans-30"/>
       <use xlink:href="#DejaVuSans-2e" x="63.623047"/>
       <use xlink:href="#DejaVuSans-32" x="95.410156"/>
      </g>
     </g>
    </g>
    <g id="xtick_4">
     <g id="line2d_4">
      <g>
       <use xlink:href="#m3daa9a5c54" x="348.792695" y="277.617" style="stroke: #000000"/>
      </g>
     </g>
     <g id="text_4">
      <!-- 0.3 -->
      <g transform="translate(334.797945 299.29025) scale(0.176 -0.176)">
       <defs>
        <path id="DejaVuSans-33" d="M 2597 2516 
Q 3050 2419 3304 2112 
Q 3559 1806 3559 1356 
Q 3559 666 3084 287 
Q 2609 -91 1734 -91 
Q 1441 -91 1130 -33 
Q 819 25 488 141 
L 488 750 
Q 750 597 1062 519 
Q 1375 441 1716 441 
Q 2309 441 2620 675 
Q 2931 909 2931 1356 
Q 2931 1769 2642 2001 
Q 2353 2234 1838 2234 
L 1294 2234 
L 1294 2753 
L 1863 2753 
Q 2328 2753 2575 2939 
Q 2822 3125 2822 3475 
Q 2822 3834 2567 4026 
Q 2313 4219 1838 4219 
Q 1578 4219 1281 4162 
Q 984 4106 628 3988 
L 628 4550 
Q 988 4650 1302 4700 
Q 1616 4750 1894 4750 
Q 2613 4750 3031 4423 
Q 3450 4097 3450 3541 
Q 3450 3153 3228 2886 
Q 3006 2619 2597 2516 
z
" transform="scale(0.015625)"/>
       </defs>
       <use xlink:href="#DejaVuSans-30"/>
       <use xlink:href="#DejaVuSans-2e" x="63.623047"/>
       <use xlink:href="#DejaVuSans-33" x="95.410156"/>
      </g>
     </g>
    </g>
    <g id="text_5">
     <!-- Percentage -->
     <g transform="translate(157.734331 321.5395) scale(0.192 -0.192)">
      <defs>
       <path id="DejaVuSans-50" d="M 1259 4147 
L 1259 2394 
L 2053 2394 
Q 2494 2394 2734 2622 
Q 2975 2850 2975 3272 
Q 2975 3691 2734 3919 
Q 2494 4147 2053 4147 
L 1259 4147 
z
M 628 4666 
L 2053 4666 
Q 2838 4666 3239 4311 
Q 3641 3956 3641 3272 
Q 3641 2581 3239 2228 
Q 2838 1875 2053 1875 
L 1259 1875 
L 1259 0 
L 628 0 
L 628 4666 
z
" transform="scale(0.015625)"/>
       <path id="DejaVuSans-65" d="M 3597 1894 
L 3597 1613 
L 953 1613 
Q 991 1019 1311 708 
Q 1631 397 2203 397 
Q 2534 397 2845 478 
Q 3156 559 3463 722 
L 3463 178 
Q 3153 47 2828 -22 
Q 2503 -91 2169 -91 
Q 1331 -91 842 396 
Q 353 884 353 1716 
Q 353 2575 817 3079 
Q 1281 3584 2069 3584 
Q 2775 3584 3186 3129 
Q 3597 2675 3597 1894 
z
M 3022 2063 
Q 3016 2534 2758 2815 
Q 2500 3097 2075 3097 
Q 1594 3097 1305 2825 
Q 1016 2553 972 2059 
L 3022 2063 
z
" transform="scale(0.015625)"/>
       <path id="DejaVuSans-72" d="M 2631 2963 
Q 2534 3019 2420 3045 
Q 2306 3072 2169 3072 
Q 1681 3072 1420 2755 
Q 1159 2438 1159 1844 
L 1159 0 
L 581 0 
L 581 3500 
L 1159 3500 
L 1159 2956 
Q 1341 3275 1631 3429 
Q 1922 3584 2338 3584 
Q 2397 3584 2469 3576 
Q 2541 3569 2628 3553 
L 2631 2963 
z
" transform="scale(0.015625)"/>
       <path id="DejaVuSans-63" d="M 3122 3366 
L 3122 2828 
Q 2878 2963 2633 3030 
Q 2388 3097 2138 3097 
Q 1578 3097 1268 2742 
Q 959 2388 959 1747 
Q 959 1106 1268 751 
Q 1578 397 2138 397 
Q 2388 397 2633 464 
Q 2878 531 3122 666 
L 3122 134 
Q 2881 22 2623 -34 
Q 2366 -91 2075 -91 
Q 1284 -91 818 406 
Q 353 903 353 1747 
Q 353 2603 823 3093 
Q 1294 3584 2113 3584 
Q 2378 3584 2631 3529 
Q 2884 3475 3122 3366 
z
" transform="scale(0.015625)"/>
       <path id="DejaVuSans-6e" d="M 3513 2113 
L 3513 0 
L 2938 0 
L 2938 2094 
Q 2938 2591 2744 2837 
Q 2550 3084 2163 3084 
Q 1697 3084 1428 2787 
Q 1159 2491 1159 1978 
L 1159 0 
L 581 0 
L 581 3500 
L 1159 3500 
L 1159 2956 
Q 1366 3272 1645 3428 
Q 1925 3584 2291 3584 
Q 2894 3584 3203 3211 
Q 3513 2838 3513 2113 
z
" transform="scale(0.015625)"/>
       <path id="DejaVuSans-74" d="M 1172 4494 
L 1172 3500 
L 2356 3500 
L 2356 3053 
L 1172 3053 
L 1172 1153 
Q 1172 725 1289 603 
Q 1406 481 1766 481 
L 2356 481 
L 2356 0 
L 1766 0 
Q 1100 0 847 248 
Q 594 497 594 1153 
L 594 3053 
L 172 3053 
L 172 3500 
L 594 3500 
L 594 4494 
L 1172 4494 
z
" transform="scale(0.015625)"/>
       <path id="DejaVuSans-61" d="M 2194 1759 
Q 1497 1759 1228 1600 
Q 959 1441 959 1056 
Q 959 750 1161 570 
Q 1363 391 1709 391 
Q 2188 391 2477 730 
Q 2766 1069 2766 1631 
L 2766 1759 
L 2194 1759 
z
M 3341 1997 
L 3341 0 
L 2766 0 
L 2766 531 
Q 2569 213 2275 61 
Q 1981 -91 1556 -91 
Q 1019 -91 701 211 
Q 384 513 384 1019 
Q 384 1609 779 1909 
Q 1175 2209 1959 2209 
L 2766 2209 
L 2766 2266 
Q 2766 2663 2505 2880 
Q 2244 3097 1772 3097 
Q 1472 3097 1187 3025 
Q 903 2953 641 2809 
L 641 3341 
Q 956 3463 1253 3523 
Q 1550 3584 1831 3584 
Q 2591 3584 2966 3190 
Q 3341 2797 3341 1997 
z
" transform="scale(0.015625)"/>
       <path id="DejaVuSans-67" d="M 2906 1791 
Q 2906 2416 2648 2759 
Q 2391 3103 1925 3103 
Q 1463 3103 1205 2759 
Q 947 2416 947 1791 
Q 947 1169 1205 825 
Q 1463 481 1925 481 
Q 2391 481 2648 825 
Q 2906 1169 2906 1791 
z
M 3481 434 
Q 3481 -459 3084 -895 
Q 2688 -1331 1869 -1331 
Q 1566 -1331 1297 -1286 
Q 1028 -1241 775 -1147 
L 775 -588 
Q 1028 -725 1275 -790 
Q 1522 -856 1778 -856 
Q 2344 -856 2625 -561 
Q 2906 -266 2906 331 
L 2906 616 
Q 2728 306 2450 153 
Q 2172 0 1784 0 
Q 1141 0 747 490 
Q 353 981 353 1791 
Q 353 2603 747 3093 
Q 1141 3584 1784 3584 
Q 2172 3584 2450 3431 
Q 2728 3278 2906 2969 
L 2906 3500 
L 3481 3500 
L 3481 434 
z
" transform="scale(0.015625)"/>
      </defs>
      <use xlink:href="#DejaVuSans-50"/>
      <use xlink:href="#DejaVuSans-65" x="56.677734"/>
      <use xlink:href="#DejaVuSans-72" x="118.201172"/>
      <use xlink:href="#DejaVuSans-63" x="157.064453"/>
      <use xlink:href="#DejaVuSans-65" x="212.044922"/>
      <use xlink:href="#DejaVuSans-6e" x="273.568359"/>
      <use xlink:href="#DejaVuSans-74" x="336.947266"/>
      <use xlink:href="#DejaVuSans-61" x="376.15625"/>
      <use xlink:href="#DejaVuSans-67" x="437.435547"/>
      <use xlink:href="#DejaVuSans-65" x="500.912109"/>
     </g>
    </g>
   </g>
   <g id="matplotlib.axis_2">
    <g id="ytick_1">
     <g id="line2d_5">
      <defs>
       <path id="m4fb46cde2c" d="M 0 0 
L -4.8 0 
" style="stroke: #000000"/>
      </defs>
      <g>
       <use xlink:href="#m4fb46cde2c" x="66.0715" y="268.375652" style="stroke: #000000"/>
      </g>
     </g>
     <g id="text_6">
      <!-- 0.3 -->
      <g transform="translate(29.782 275.062277) scale(0.176 -0.176)">
       <use xlink:href="#DejaVuSans-30"/>
       <use xlink:href="#DejaVuSans-2e" x="63.623047"/>
       <use xlink:href="#DejaVuSans-33" x="95.410156"/>
      </g>
     </g>
    </g>
    <g id="ytick_2">
     <g id="line2d_6">
      <g>
       <use xlink:href="#m4fb46cde2c" x="66.0715" y="214.123361" style="stroke: #000000"/>
      </g>
     </g>
     <g id="text_7">
      <!-- 0.4 -->
      <g transform="translate(29.782 220.809986) scale(0.176 -0.176)">
       <defs>
        <path id="DejaVuSans-34" d="M 2419 4116 
L 825 1625 
L 2419 1625 
L 2419 4116 
z
M 2253 4666 
L 3047 4666 
L 3047 1625 
L 3713 1625 
L 3713 1100 
L 3047 1100 
L 3047 0 
L 2419 0 
L 2419 1100 
L 313 1100 
L 313 1709 
L 2253 4666 
z
" transform="scale(0.015625)"/>
       </defs>
       <use xlink:href="#DejaVuSans-30"/>
       <use xlink:href="#DejaVuSans-2e" x="63.623047"/>
       <use xlink:href="#DejaVuSans-34" x="95.410156"/>
      </g>
     </g>
    </g>
    <g id="ytick_3">
     <g id="line2d_7">
      <g>
       <use xlink:href="#m4fb46cde2c" x="66.0715" y="159.87107" style="stroke: #000000"/>
      </g>
     </g>
     <g id="text_8">
      <!-- 0.5 -->
      <g transform="translate(29.782 166.557695) scale(0.176 -0.176)">
       <defs>
        <path id="DejaVuSans-35" d="M 691 4666 
L 3169 4666 
L 3169 4134 
L 1269 4134 
L 1269 2991 
Q 1406 3038 1543 3061 
Q 1681 3084 1819 3084 
Q 2600 3084 3056 2656 
Q 3513 2228 3513 1497 
Q 3513 744 3044 326 
Q 2575 -91 1722 -91 
Q 1428 -91 1123 -41 
Q 819 9 494 109 
L 494 744 
Q 775 591 1075 516 
Q 1375 441 1709 441 
Q 2250 441 2565 725 
Q 2881 1009 2881 1497 
Q 2881 1984 2565 2268 
Q 2250 2553 1709 2553 
Q 1456 2553 1204 2497 
Q 953 2441 691 2322 
L 691 4666 
z
" transform="scale(0.015625)"/>
       </defs>
       <use xlink:href="#DejaVuSans-30"/>
       <use xlink:href="#DejaVuSans-2e" x="63.623047"/>
       <use xlink:href="#DejaVuSans-35" x="95.410156"/>
      </g>
     </g>
    </g>
    <g id="ytick_4">
     <g id="line2d_8">
      <g>
       <use xlink:href="#m4fb46cde2c" x="66.0715" y="105.618779" style="stroke: #000000"/>
      </g>
     </g>
     <g id="text_9">
      <!-- 0.6 -->
      <g transform="translate(29.782 112.305404) scale(0.176 -0.176)">
       <defs>
        <path id="DejaVuSans-36" d="M 2113 2584 
Q 1688 2584 1439 2293 
Q 1191 2003 1191 1497 
Q 1191 994 1439 701 
Q 1688 409 2113 409 
Q 2538 409 2786 701 
Q 3034 994 3034 1497 
Q 3034 2003 2786 2293 
Q 2538 2584 2113 2584 
z
M 3366 4563 
L 3366 3988 
Q 3128 4100 2886 4159 
Q 2644 4219 2406 4219 
Q 1781 4219 1451 3797 
Q 1122 3375 1075 2522 
Q 1259 2794 1537 2939 
Q 1816 3084 2150 3084 
Q 2853 3084 3261 2657 
Q 3669 2231 3669 1497 
Q 3669 778 3244 343 
Q 2819 -91 2113 -91 
Q 1303 -91 875 529 
Q 447 1150 447 2328 
Q 447 3434 972 4092 
Q 1497 4750 2381 4750 
Q 2619 4750 2861 4703 
Q 3103 4656 3366 4563 
z
" transform="scale(0.015625)"/>
       </defs>
       <use xlink:href="#DejaVuSans-30"/>
       <use xlink:href="#DejaVuSans-2e" x="63.623047"/>
       <use xlink:href="#DejaVuSans-36" x="95.410156"/>
      </g>
     </g>
    </g>
    <g id="ytick_5">
     <g id="line2d_9">
      <g>
       <use xlink:href="#m4fb46cde2c" x="66.0715" y="51.366488" style="stroke: #000000"/>
      </g>
     </g>
     <g id="text_10">
      <!-- 0.7 -->
      <g transform="translate(29.782 58.053113) scale(0.176 -0.176)">
       <defs>
        <path id="DejaVuSans-37" d="M 525 4666 
L 3525 4666 
L 3525 4397 
L 1831 0 
L 1172 0 
L 2766 4134 
L 525 4134 
L 525 4666 
z
" transform="scale(0.015625)"/>
       </defs>
       <use xlink:href="#DejaVuSans-30"/>
       <use xlink:href="#DejaVuSans-2e" x="63.623047"/>
       <use xlink:href="#DejaVuSans-37" x="95.410156"/>
      </g>
     </g>
    </g>
    <g id="text_11">
     <!-- Precision -->
     <g transform="translate(21.789 195.5325) rotate(-90) scale(0.192 -0.192)">
      <defs>
       <path id="DejaVuSans-69" d="M 603 3500 
L 1178 3500 
L 1178 0 
L 603 0 
L 603 3500 
z
M 603 4863 
L 1178 4863 
L 1178 4134 
L 603 4134 
L 603 4863 
z
" transform="scale(0.015625)"/>
       <path id="DejaVuSans-73" d="M 2834 3397 
L 2834 2853 
Q 2591 2978 2328 3040 
Q 2066 3103 1784 3103 
Q 1356 3103 1142 2972 
Q 928 2841 928 2578 
Q 928 2378 1081 2264 
Q 1234 2150 1697 2047 
L 1894 2003 
Q 2506 1872 2764 1633 
Q 3022 1394 3022 966 
Q 3022 478 2636 193 
Q 2250 -91 1575 -91 
Q 1294 -91 989 -36 
Q 684 19 347 128 
L 347 722 
Q 666 556 975 473 
Q 1284 391 1588 391 
Q 1994 391 2212 530 
Q 2431 669 2431 922 
Q 2431 1156 2273 1281 
Q 2116 1406 1581 1522 
L 1381 1569 
Q 847 1681 609 1914 
Q 372 2147 372 2553 
Q 372 3047 722 3315 
Q 1072 3584 1716 3584 
Q 2034 3584 2315 3537 
Q 2597 3491 2834 3397 
z
" transform="scale(0.015625)"/>
       <path id="DejaVuSans-6f" d="M 1959 3097 
Q 1497 3097 1228 2736 
Q 959 2375 959 1747 
Q 959 1119 1226 758 
Q 1494 397 1959 397 
Q 2419 397 2687 759 
Q 2956 1122 2956 1747 
Q 2956 2369 2687 2733 
Q 2419 3097 1959 3097 
z
M 1959 3584 
Q 2709 3584 3137 3096 
Q 3566 2609 3566 1747 
Q 3566 888 3137 398 
Q 2709 -91 1959 -91 
Q 1206 -91 779 398 
Q 353 888 353 1747 
Q 353 2609 779 3096 
Q 1206 3584 1959 3584 
z
" transform="scale(0.015625)"/>
      </defs>
      <use xlink:href="#DejaVuSans-50"/>
      <use xlink:href="#DejaVuSans-72" x="58.552734"/>
      <use xlink:href="#DejaVuSans-65" x="97.416016"/>
      <use xlink:href="#DejaVuSans-63" x="158.939453"/>
      <use xlink:href="#DejaVuSans-69" x="213.919922"/>
      <use xlink:href="#DejaVuSans-73" x="241.703125"/>
      <use xlink:href="#DejaVuSans-69" x="293.802734"/>
      <use xlink:href="#DejaVuSans-6f" x="321.585938"/>
      <use xlink:href="#DejaVuSans-6e" x="382.767578"/>
     </g>
    </g>
   </g>
   <g id="line2d_10">
    <path d="M 79.313166 79.386902 
L 83.959365 144.469778 
L 88.605564 162.851965 
L 93.251763 176.862172 
L 97.897962 185.953902 
L 102.54416 190.318784 
L 107.190359 206.26125 
L 111.836558 212.367945 
L 116.482757 221.393433 
L 121.128955 226.880989 
L 125.775154 234.254188 
L 130.421353 237.435721 
L 135.067552 244.77713 
L 139.713751 245.683819 
L 144.359949 249.196234 
L 149.006148 248.714031 
L 153.652347 249.851477 
L 158.298546 250.1025 
L 162.944744 252.23526 
L 167.590943 252.793371 
L 172.237142 254.657903 
L 176.883341 254.047684 
L 181.529539 255.582845 
L 186.175738 257.045776 
L 190.821937 257.120086 
L 195.468136 257.40065 
L 200.114335 257.239613 
L 204.760533 257.305321 
L 209.406732 257.661406 
L 214.052931 257.637412 
L 218.69913 257.89379 
L 223.345328 258.026553 
L 227.991527 257.965042 
L 232.637726 257.991897 
L 237.283925 257.947374 
L 241.930123 257.977545 
L 246.576322 257.960348 
L 251.222521 257.978524 
L 255.86872 257.960348 
L 260.514919 257.960348 
L 265.161117 257.960348 
L 269.807316 257.960348 
L 274.453515 257.960348 
L 279.099714 257.960348 
L 283.745912 257.960348 
L 288.392111 257.960348 
L 293.03831 257.960348 
L 297.684509 257.960348 
L 302.330707 257.960348 
L 306.976906 257.960348 
L 311.623105 257.960348 
L 316.269304 257.960348 
L 320.915503 257.960348 
L 325.561701 257.960348 
L 330.2079 257.960348 
L 334.854099 257.960348 
L 339.500298 257.960348 
L 344.146496 257.960348 
" clip-path="url(#pc1f028ae86)" style="fill: none; stroke: #1f77b4; stroke-width: 1.2; stroke-linecap: square"/>
   </g>
   <g id="line2d_11">
    <path d="M 79.313166 116.648091 
L 83.959365 160.864702 
L 88.605564 171.79465 
L 93.251763 188.189573 
L 97.897962 195.641811 
L 102.54416 205.649102 
L 107.190359 214.272405 
L 111.836558 221.31063 
L 116.482757 231.379431 
L 121.128955 234.604218 
L 125.775154 238.09322 
L 130.421353 239.822521 
L 135.067552 242.967748 
L 139.713751 245.371094 
L 144.359949 246.976613 
L 149.006148 249.358407 
L 153.652347 250.875003 
L 158.298546 253.110674 
L 162.944744 255.779285 
L 167.590943 256.463213 
L 172.237142 256.536852 
L 176.883341 257.73839 
L 181.529539 258.428964 
L 186.175738 258.944888 
L 190.821937 259.237882 
L 195.468136 259.680788 
L 200.114335 259.577999 
L 204.760533 259.696593 
L 209.406732 259.73716 
L 214.052931 260.044847 
L 218.69913 260.137834 
L 223.345328 260.041393 
L 227.991527 260.009455 
L 232.637726 260.073236 
L 237.283925 260.177122 
L 241.930123 260.233441 
L 246.576322 260.247772 
L 251.222521 260.264131 
L 255.86872 260.244223 
L 260.514919 260.244223 
L 265.161117 260.244223 
L 269.807316 260.244223 
L 274.453515 260.244223 
L 279.099714 260.244223 
L 283.745912 260.244223 
L 288.392111 260.244223 
L 293.03831 260.244223 
L 297.684509 260.244223 
L 302.330707 260.244223 
L 306.976906 260.244223 
L 311.623105 260.244223 
L 316.269304 260.244223 
L 320.915503 260.244223 
L 325.561701 260.244223 
L 330.2079 260.244223 
L 334.854099 260.244223 
L 339.500298 260.244223 
L 344.146496 260.244223 
" clip-path="url(#pc1f028ae86)" style="fill: none; stroke: #ff7f0e; stroke-width: 1.2; stroke-linecap: square"/>
   </g>
   <g id="line2d_12">
    <path d="M 79.313166 79.386902 
L 83.959365 120.622618 
L 88.605564 155.027115 
L 93.251763 162.851965 
L 97.897962 172.043058 
L 102.54416 175.62723 
L 107.190359 181.109947 
L 111.836558 186.367915 
L 116.482757 187.990847 
L 121.128955 190.944643 
L 125.775154 192.096352 
L 130.421353 199.634578 
L 135.067552 203.705192 
L 139.713751 207.704559 
L 144.359949 210.142975 
L 149.006148 214.984495 
L 153.652347 216.880239 
L 158.298546 217.931397 
L 162.944744 219.67735 
L 167.590943 221.393623 
L 172.237142 222.722065 
L 176.883341 223.564492 
L 181.529539 224.406595 
L 186.175738 225.839718 
L 190.821937 226.559464 
L 195.468136 227.661323 
L 200.114335 227.769252 
L 204.760533 227.831755 
L 209.406732 228.150278 
L 214.052931 228.225083 
L 218.69913 227.984645 
L 223.345328 227.974625 
L 227.991527 228.058611 
L 232.637726 228.173863 
L 237.283925 228.362554 
L 241.930123 228.444016 
L 246.576322 228.431596 
L 251.222521 228.416146 
L 255.86872 228.401432 
L 260.514919 228.401432 
L 265.161117 228.401432 
L 269.807316 228.401432 
L 274.453515 228.401432 
L 279.099714 228.401432 
L 283.745912 228.401432 
L 288.392111 228.401432 
L 293.03831 228.401432 
L 297.684509 228.401432 
L 302.330707 228.401432 
L 306.976906 228.401432 
L 311.623105 228.401432 
L 316.269304 228.401432 
L 320.915503 228.401432 
L 325.561701 228.401432 
L 330.2079 228.401432 
L 334.854099 228.401432 
L 339.500298 228.401432 
L 344.146496 228.401432 
" clip-path="url(#pc1f028ae86)" style="fill: none; stroke: #2ca02c; stroke-width: 1.2; stroke-linecap: square"/>
   </g>
   <g id="line2d_13"/>
   <g id="line2d_14"/>
   <g id="line2d_15"/>
   <g id="patch_3">
    <path d="M 66.0715 277.617 
L 66.0715 27.789 
" style="fill: none; stroke: #000000; stroke-linejoin: miter; stroke-linecap: square"/>
   </g>
   <g id="patch_4">
    <path d="M 66.0715 277.617 
L 357.388163 277.617 
" style="fill: none; stroke: #000000; stroke-linejoin: miter; stroke-linecap: square"/>
   </g>
   <g id="text_12">
    <!-- Region 2 -->
    <g transform="translate(169.705831 21.789) scale(0.192 -0.192)">
     <defs>
      <path id="DejaVuSans-52" d="M 2841 2188 
Q 3044 2119 3236 1894 
Q 3428 1669 3622 1275 
L 4263 0 
L 3584 0 
L 2988 1197 
Q 2756 1666 2539 1819 
Q 2322 1972 1947 1972 
L 1259 1972 
L 1259 0 
L 628 0 
L 628 4666 
L 2053 4666 
Q 2853 4666 3247 4331 
Q 3641 3997 3641 3322 
Q 3641 2881 3436 2590 
Q 3231 2300 2841 2188 
z
M 1259 4147 
L 1259 2491 
L 2053 2491 
Q 2509 2491 2742 2702 
Q 2975 2913 2975 3322 
Q 2975 3731 2742 3939 
Q 2509 4147 2053 4147 
L 1259 4147 
z
" transform="scale(0.015625)"/>
      <path id="DejaVuSans-20" transform="scale(0.015625)"/>
     </defs>
     <use xlink:href="#DejaVuSans-52"/>
     <use xlink:href="#DejaVuSans-65" x="64.982422"/>
     <use xlink:href="#DejaVuSans-67" x="126.505859"/>
     <use xlink:href="#DejaVuSans-69" x="189.982422"/>
     <use xlink:href="#DejaVuSans-6f" x="217.765625"/>
     <use xlink:href="#DejaVuSans-6e" x="278.947266"/>
     <use xlink:href="#DejaVuSans-20" x="342.326172"/>
     <use xlink:href="#DejaVuSans-32" x="374.113281"/>
    </g>
   </g>
  </g>
  <g id="axes_2">
   <g id="patch_5">
    <path d="M 394.229874 277.617 
L 685.546537 277.617 
L 685.546537 27.789 
L 394.229874 27.789 
z
" style="fill: #ffffff"/>
   </g>
   <g id="PolyCollection_4">
    <defs>
     <path id="m3eaf948b13" d="M 407.471541 -292.097234 
L 407.471541 -238.441122 
L 412.117739 -192.982472 
L 416.763938 -178.82322 
L 421.410137 -171.361667 
L 426.056336 -172.250347 
L 430.702534 -168.638495 
L 435.348733 -172.009746 
L 439.994932 -161.310462 
L 444.641131 -161.26906 
L 449.28733 -156.79689 
L 453.933528 -153.135583 
L 458.579727 -153.273336 
L 463.225926 -149.492266 
L 467.872125 -142.851647 
L 472.518323 -141.111268 
L 477.164522 -139.994645 
L 481.810721 -136.582773 
L 486.45692 -131.205699 
L 491.103118 -127.597387 
L 495.749317 -125.252526 
L 500.395516 -121.935197 
L 505.041715 -120.162393 
L 509.687914 -118.70776 
L 514.334112 -119.309925 
L 518.980311 -114.627011 
L 523.62651 -113.686239 
L 528.272709 -111.815455 
L 532.918907 -108.758056 
L 537.565106 -108.374758 
L 542.211305 -108.228228 
L 546.857504 -106.904324 
L 551.503702 -107.07925 
L 556.149901 -106.91978 
L 560.7961 -104.815166 
L 565.442299 -104.88805 
L 570.088498 -103.781246 
L 574.734696 -104.251024 
L 579.380895 -103.408097 
L 584.027094 -103.070666 
L 588.673293 -102.012565 
L 593.319491 -101.898247 
L 597.96569 -101.727795 
L 602.611889 -101.194435 
L 607.258088 -101.309937 
L 611.904286 -101.330924 
L 616.550485 -101.382954 
L 621.196684 -101.089978 
L 625.842883 -101.158226 
L 630.489082 -101.197093 
L 635.13528 -101.051352 
L 639.781479 -100.754089 
L 644.427678 -100.969054 
L 649.073877 -101.07906 
L 653.720075 -100.778352 
L 658.366274 -100.934766 
L 663.012473 -101.097866 
L 667.658672 -100.857545 
L 672.304871 -100.827464 
L 672.304871 -112.064046 
L 672.304871 -112.064046 
L 667.658672 -111.731584 
L 663.012473 -111.850531 
L 658.366274 -111.876896 
L 653.720075 -111.641156 
L 649.073877 -112.238155 
L 644.427678 -111.838849 
L 639.781479 -111.746378 
L 635.13528 -111.693191 
L 630.489082 -112.167512 
L 625.842883 -111.767085 
L 621.196684 -112.11638 
L 616.550485 -112.434577 
L 611.904286 -112.57941 
L 607.258088 -112.025959 
L 602.611889 -112.763882 
L 597.96569 -112.9106 
L 593.319491 -112.987253 
L 588.673293 -113.402315 
L 584.027094 -113.694187 
L 579.380895 -115.133496 
L 574.734696 -115.765205 
L 570.088498 -115.952785 
L 565.442299 -116.554936 
L 560.7961 -116.884626 
L 556.149901 -119.029159 
L 551.503702 -119.756357 
L 546.857504 -119.320596 
L 542.211305 -120.433102 
L 537.565106 -121.520829 
L 532.918907 -121.894185 
L 528.272709 -125.07598 
L 523.62651 -126.961655 
L 518.980311 -128.762568 
L 514.334112 -133.015025 
L 509.687914 -132.787822 
L 505.041715 -135.003669 
L 500.395516 -136.951702 
L 495.749317 -140.459469 
L 491.103118 -144.026451 
L 486.45692 -147.321117 
L 481.810721 -153.127501 
L 477.164522 -156.925648 
L 472.518323 -158.70238 
L 467.872125 -160.229475 
L 463.225926 -167.272252 
L 458.579727 -172.92692 
L 453.933528 -172.518552 
L 449.28733 -177.034683 
L 444.641131 -182.466537 
L 439.994932 -183.299221 
L 435.348733 -194.366459 
L 430.702534 -194.47292 
L 426.056336 -200.285665 
L 421.410137 -204.179459 
L 416.763938 -213.103514 
L 412.117739 -230.262291 
L 407.471541 -292.097234 
z
" style="stroke: #1f77b4; stroke-opacity: 0.2; stroke-width: 0.8"/>
    </defs>
    <g clip-path="url(#p2d18934ee6)">
     <use xlink:href="#m3eaf948b13" x="0" y="332.7325" style="fill: #1f77b4; fill-opacity: 0.2; stroke: #1f77b4; stroke-opacity: 0.2; stroke-width: 0.8"/>
    </g>
   </g>
   <g id="PolyCollection_5">
    <defs>
     <path id="m403cbf0b97" d="M 407.471541 -283.154549 
L 407.471541 -232.479332 
L 412.117739 -198.944262 
L 416.763938 -170.364931 
L 421.410137 -159.07479 
L 426.056336 -147.821911 
L 430.702534 -150.001691 
L 435.348733 -137.729452 
L 439.994932 -133.737182 
L 444.641131 -129.804057 
L 449.28733 -125.163796 
L 453.933528 -118.346429 
L 458.579727 -118.963685 
L 463.225926 -112.870916 
L 467.872125 -114.418414 
L 472.518323 -115.552647 
L 477.164522 -108.688942 
L 481.810721 -102.409874 
L 486.45692 -99.890567 
L 491.103118 -99.060227 
L 495.749317 -98.881658 
L 500.395516 -96.830233 
L 505.041715 -95.90191 
L 509.687914 -93.766604 
L 514.334112 -94.084866 
L 518.980311 -92.079438 
L 523.62651 -89.415752 
L 528.272709 -88.457758 
L 532.918907 -87.556349 
L 537.565106 -85.939086 
L 542.211305 -84.722434 
L 546.857504 -84.557823 
L 551.503702 -83.61982 
L 556.149901 -84.52385 
L 560.7961 -83.640561 
L 565.442299 -83.363223 
L 570.088498 -82.858619 
L 574.734696 -82.850435 
L 579.380895 -82.919428 
L 584.027094 -82.481159 
L 588.673293 -81.621432 
L 593.319491 -81.535717 
L 597.96569 -81.34399 
L 602.611889 -81.773136 
L 607.258088 -81.416593 
L 611.904286 -81.406446 
L 616.550485 -81.436336 
L 621.196684 -81.108953 
L 625.842883 -81.354816 
L 630.489082 -81.488641 
L 635.13528 -81.048776 
L 639.781479 -81.391254 
L 644.427678 -81.485895 
L 649.073877 -80.971413 
L 653.720075 -80.860689 
L 658.366274 -81.448993 
L 663.012473 -81.306855 
L 667.658672 -81.268362 
L 672.304871 -81.250888 
L 672.304871 -92.074415 
L 672.304871 -92.074415 
L 667.658672 -91.82091 
L 663.012473 -91.972304 
L 658.366274 -91.79828 
L 653.720075 -92.343557 
L 649.073877 -91.948303 
L 644.427678 -92.101416 
L 639.781479 -92.337014 
L 635.13528 -92.284308 
L 630.489082 -92.254716 
L 625.842883 -92.420473 
L 621.196684 -92.557872 
L 616.550485 -92.389558 
L 611.904286 -92.232341 
L 607.258088 -92.374442 
L 602.611889 -92.166458 
L 597.96569 -92.192561 
L 593.319491 -92.169734 
L 588.673293 -92.267235 
L 584.027094 -93.52344 
L 579.380895 -94.371101 
L 574.734696 -94.423024 
L 570.088498 -94.463345 
L 565.442299 -95.086358 
L 560.7961 -95.367858 
L 556.149901 -96.178957 
L 551.503702 -95.235418 
L 546.857504 -96.205482 
L 542.211305 -97.146991 
L 537.565106 -98.852719 
L 532.918907 -100.330571 
L 528.272709 -102.030415 
L 523.62651 -102.84387 
L 518.980311 -105.068014 
L 514.334112 -107.588103 
L 509.687914 -107.319427 
L 505.041715 -111.094098 
L 500.395516 -111.43477 
L 495.749317 -113.516609 
L 491.103118 -114.435121 
L 486.45692 -115.636812 
L 481.810721 -118.973308 
L 477.164522 -126.19181 
L 472.518323 -133.046667 
L 467.872125 -131.898811 
L 463.225926 -130.260788 
L 458.579727 -138.042543 
L 453.933528 -136.687591 
L 449.28733 -144.413755 
L 444.641131 -150.674462 
L 439.994932 -155.721283 
L 435.348733 -161.156094 
L 430.702534 -174.10347 
L 426.056336 -175.246146 
L 421.410137 -191.119413 
L 416.763938 -206.644908 
L 412.117739 -237.695899 
L 407.471541 -283.154549 
z
" style="stroke: #ff7f0e; stroke-opacity: 0.2; stroke-width: 0.8"/>
    </defs>
    <g clip-path="url(#p2d18934ee6)">
     <use xlink:href="#m403cbf0b97" x="0" y="332.7325" style="fill: #ff7f0e; fill-opacity: 0.2; stroke: #ff7f0e; stroke-opacity: 0.2; stroke-width: 0.8"/>
    </g>
   </g>
   <g id="PolyCollection_6">
    <defs>
     <path id="m1757e11350" d="M 407.471541 -293.587682 
L 407.471541 -241.422018 
L 412.117739 -247.383808 
L 416.763938 -224.033463 
L 421.410137 -232.479332 
L 426.056336 -209.817077 
L 430.702534 -205.645066 
L 435.348733 -197.986117 
L 439.994932 -201.547888 
L 444.641131 -192.899669 
L 449.28733 -188.210556 
L 453.933528 -186.770016 
L 458.579727 -187.44975 
L 463.225926 -181.849281 
L 467.872125 -179.360685 
L 472.518323 -177.094043 
L 477.164522 -176.283507 
L 481.810721 -175.535763 
L 486.45692 -170.25835 
L 491.103118 -166.300894 
L 495.749317 -161.314027 
L 500.395516 -158.712589 
L 505.041715 -155.309895 
L 509.687914 -153.902055 
L 514.334112 -153.743099 
L 518.980311 -148.732664 
L 523.62651 -147.012717 
L 528.272709 -145.359057 
L 532.918907 -143.458419 
L 537.565106 -141.64273 
L 542.211305 -139.074969 
L 546.857504 -137.142439 
L 551.503702 -136.534963 
L 556.149901 -136.204002 
L 560.7961 -135.074367 
L 565.442299 -133.873678 
L 570.088498 -133.056623 
L 574.734696 -132.837973 
L 579.380895 -132.94139 
L 584.027094 -133.040822 
L 588.673293 -132.169375 
L 593.319491 -131.657259 
L 597.96569 -131.667682 
L 602.611889 -131.499093 
L 607.258088 -131.205407 
L 611.904286 -131.53612 
L 616.550485 -131.490845 
L 621.196684 -131.054731 
L 625.842883 -130.71655 
L 630.489082 -130.834389 
L 635.13528 -130.886686 
L 639.781479 -130.52952 
L 644.427678 -131.096201 
L 649.073877 -130.885989 
L 653.720075 -130.769799 
L 658.366274 -131.337604 
L 663.012473 -130.994699 
L 667.658672 -130.94235 
L 672.304871 -131.421643 
L 672.304871 -140.977401 
L 672.304871 -140.977401 
L 667.658672 -141.273862 
L 663.012473 -141.277881 
L 658.366274 -141.573355 
L 653.720075 -141.549236 
L 649.073877 -141.518791 
L 644.427678 -141.593454 
L 639.781479 -141.537201 
L 635.13528 -141.573254 
L 630.489082 -141.36942 
L 625.842883 -141.284263 
L 621.196684 -141.798507 
L 616.550485 -142.0204 
L 611.904286 -142.058718 
L 607.258088 -141.965555 
L 602.611889 -142.561251 
L 597.96569 -142.713578 
L 593.319491 -142.730939 
L 588.673293 -143.368499 
L 584.027094 -143.639453 
L 579.380895 -144.137662 
L 574.734696 -144.726458 
L 570.088498 -144.136123 
L 565.442299 -145.190408 
L 560.7961 -146.579513 
L 556.149901 -148.477056 
L 551.503702 -148.199148 
L 546.857504 -148.961517 
L 542.211305 -151.305927 
L 537.565106 -154.454306 
L 532.918907 -156.647634 
L 528.272709 -159.026116 
L 523.62651 -160.600232 
L 518.980311 -162.62921 
L 514.334112 -168.030093 
L 509.687914 -167.719107 
L 505.041715 -169.370481 
L 500.395516 -172.604644 
L 495.749317 -176.081413 
L 491.103118 -181.741821 
L 486.45692 -185.845167 
L 481.810721 -190.91564 
L 477.164522 -192.480591 
L 472.518323 -193.893113 
L 467.872125 -196.349876 
L 463.225926 -200.437815 
L 458.579727 -206.328752 
L 453.933528 -205.338508 
L 449.28733 -208.035992 
L 444.641131 -213.434725 
L 439.994932 -222.796081 
L 435.348733 -219.916989 
L 430.702534 -229.746845 
L 426.056336 -235.46768 
L 421.410137 -258.57148 
L 416.763938 -256.823309 
L 412.117739 -285.39022 
L 407.471541 -293.587682 
z
" style="stroke: #2ca02c; stroke-opacity: 0.2; stroke-width: 0.8"/>
    </defs>
    <g clip-path="url(#p2d18934ee6)">
     <use xlink:href="#m1757e11350" x="0" y="332.7325" style="fill: #2ca02c; fill-opacity: 0.2; stroke: #2ca02c; stroke-opacity: 0.2; stroke-width: 0.8"/>
    </g>
   </g>
   <g id="matplotlib.axis_3">
    <g id="xtick_5">
     <g id="line2d_16">
      <g>
       <use xlink:href="#m3daa9a5c54" x="398.179143" y="277.617" style="stroke: #000000"/>
      </g>
     </g>
     <g id="text_13">
      <!-- 0.0 -->
      <g transform="translate(384.184393 299.29025) scale(0.176 -0.176)">
       <use xlink:href="#DejaVuSans-30"/>
       <use xlink:href="#DejaVuSans-2e" x="63.623047"/>
       <use xlink:href="#DejaVuSans-30" x="95.410156"/>
      </g>
     </g>
    </g>
    <g id="xtick_6">
     <g id="line2d_17">
      <g>
       <use xlink:href="#m3daa9a5c54" x="491.103118" y="277.617" style="stroke: #000000"/>
      </g>
     </g>
     <g id="text_14">
      <!-- 0.1 -->
      <g transform="translate(477.108368 299.29025) scale(0.176 -0.176)">
       <use xlink:href="#DejaVuSans-30"/>
       <use xlink:href="#DejaVuSans-2e" x="63.623047"/>
       <use xlink:href="#DejaVuSans-31" x="95.410156"/>
      </g>
     </g>
    </g>
    <g id="xtick_7">
     <g id="line2d_18">
      <g>
       <use xlink:href="#m3daa9a5c54" x="584.027094" y="277.617" style="stroke: #000000"/>
      </g>
     </g>
     <g id="text_15">
      <!-- 0.2 -->
      <g transform="translate(570.032344 299.29025) scale(0.176 -0.176)">
       <use xlink:href="#DejaVuSans-30"/>
       <use xlink:href="#DejaVuSans-2e" x="63.623047"/>
       <use xlink:href="#DejaVuSans-32" x="95.410156"/>
      </g>
     </g>
    </g>
    <g id="xtick_8">
     <g id="line2d_19">
      <g>
       <use xlink:href="#m3daa9a5c54" x="676.951069" y="277.617" style="stroke: #000000"/>
      </g>
     </g>
     <g id="text_16">
      <!-- 0.3 -->
      <g transform="translate(662.956319 299.29025) scale(0.176 -0.176)">
       <use xlink:href="#DejaVuSans-30"/>
       <use xlink:href="#DejaVuSans-2e" x="63.623047"/>
       <use xlink:href="#DejaVuSans-33" x="95.410156"/>
      </g>
     </g>
    </g>
    <g id="text_17">
     <!-- Percentage -->
     <g transform="translate(485.892706 321.5395) scale(0.192 -0.192)">
      <use xlink:href="#DejaVuSans-50"/>
      <use xlink:href="#DejaVuSans-65" x="56.677734"/>
      <use xlink:href="#DejaVuSans-72" x="118.201172"/>
      <use xlink:href="#DejaVuSans-63" x="157.064453"/>
      <use xlink:href="#DejaVuSans-65" x="212.044922"/>
      <use xlink:href="#DejaVuSans-6e" x="273.568359"/>
      <use xlink:href="#DejaVuSans-74" x="336.947266"/>
      <use xlink:href="#DejaVuSans-61" x="376.15625"/>
      <use xlink:href="#DejaVuSans-67" x="437.435547"/>
      <use xlink:href="#DejaVuSans-65" x="500.912109"/>
     </g>
    </g>
   </g>
   <g id="matplotlib.axis_4">
    <g id="ytick_6">
     <g id="line2d_20">
      <g>
       <use xlink:href="#m4fb46cde2c" x="394.229874" y="268.375652" style="stroke: #000000"/>
      </g>
     </g>
    </g>
    <g id="ytick_7">
     <g id="line2d_21">
      <g>
       <use xlink:href="#m4fb46cde2c" x="394.229874" y="214.123361" style="stroke: #000000"/>
      </g>
     </g>
    </g>
    <g id="ytick_8">
     <g id="line2d_22">
      <g>
       <use xlink:href="#m4fb46cde2c" x="394.229874" y="159.87107" style="stroke: #000000"/>
      </g>
     </g>
    </g>
    <g id="ytick_9">
     <g id="line2d_23">
      <g>
       <use xlink:href="#m4fb46cde2c" x="394.229874" y="105.618779" style="stroke: #000000"/>
      </g>
     </g>
    </g>
    <g id="ytick_10">
     <g id="line2d_24">
      <g>
       <use xlink:href="#m4fb46cde2c" x="394.229874" y="51.366488" style="stroke: #000000"/>
      </g>
     </g>
    </g>
   </g>
   <g id="line2d_25">
    <path d="M 407.471541 68.953769 
L 412.117739 121.119433 
L 416.763938 137.514357 
L 421.410137 144.593982 
L 426.056336 146.755131 
L 430.702534 151.176792 
L 435.348733 149.650858 
L 439.994932 159.684764 
L 444.641131 161.030307 
L 449.28733 165.948784 
L 453.933528 169.566506 
L 458.579727 169.566506 
L 463.225926 174.30884 
L 467.872125 181.159166 
L 472.518323 182.453071 
L 477.164522 184.206121 
L 481.810721 188.056444 
L 486.45692 193.579867 
L 491.103118 196.74585 
L 495.749317 199.687523 
L 500.395516 203.190075 
L 505.041715 205.255409 
L 509.687914 206.813605 
L 514.334112 206.813605 
L 518.980311 210.849006 
L 523.62651 212.439357 
L 528.272709 213.991906 
L 532.918907 217.119553 
L 537.565106 217.958195 
L 542.211305 218.324893 
L 546.857504 219.540011 
L 551.503702 219.459493 
L 556.149901 219.619756 
L 560.7961 221.593998 
L 565.442299 222.215018 
L 570.088498 222.760984 
L 574.734696 222.760984 
L 579.380895 223.408515 
L 584.027094 224.369025 
L 588.673293 225.066134 
L 593.319491 225.471078 
L 597.96569 225.699372 
L 602.611889 225.763384 
L 607.258088 226.036027 
L 611.904286 226.0568 
L 616.550485 226.173164 
L 621.196684 226.240912 
L 625.842883 226.189724 
L 630.489082 226.189724 
L 635.13528 226.257407 
L 639.781479 226.276709 
L 644.427678 226.308421 
L 649.073877 226.278004 
L 653.720075 226.293212 
L 658.366274 226.293212 
L 663.012473 226.293212 
L 667.658672 226.293212 
L 672.304871 226.293212 
" clip-path="url(#p2d18934ee6)" style="fill: none; stroke: #1f77b4; stroke-width: 1.2; stroke-linecap: square"/>
   </g>
   <g id="line2d_26">
    <path d="M 407.471541 73.425112 
L 412.117739 114.41242 
L 416.763938 144.469778 
L 421.410137 158.380622 
L 426.056336 171.198471 
L 430.702534 170.552611 
L 435.348733 183.292388 
L 439.994932 187.630655 
L 444.641131 192.495311 
L 449.28733 197.711877 
L 453.933528 205.096367 
L 458.579727 205.096367 
L 463.225926 210.99041 
L 467.872125 209.318433 
L 472.518323 208.630535 
L 477.164522 215.344646 
L 481.810721 222.318698 
L 486.45692 225.277675 
L 491.103118 225.998545 
L 495.749317 226.752485 
L 500.395516 228.399822 
L 505.041715 229.219568 
L 509.687914 232.135941 
L 514.334112 232.135941 
L 518.980311 234.306811 
L 523.62651 236.628885 
L 528.272709 237.354236 
L 532.918907 238.874492 
L 537.565106 240.420142 
L 542.211305 241.632609 
L 546.857504 242.471445 
L 551.503702 243.074476 
L 556.149901 242.221876 
L 560.7961 242.922026 
L 565.442299 243.641844 
L 570.088498 244.149287 
L 574.734696 244.149287 
L 579.380895 244.310857 
L 584.027094 244.985107 
L 588.673293 245.843345 
L 593.319491 245.812603 
L 597.96569 245.876968 
L 602.611889 245.915185 
L 607.258088 246.011519 
L 611.904286 245.951797 
L 616.550485 245.956748 
L 621.196684 245.95281 
L 625.842883 245.99948 
L 630.489082 245.99948 
L 635.13528 246.063562 
L 639.781479 246.111819 
L 644.427678 246.078125 
L 649.073877 246.106642 
L 653.720075 246.120025 
L 658.366274 246.120025 
L 663.012473 246.120025 
L 667.658672 246.120025 
L 672.304871 246.120025 
" clip-path="url(#p2d18934ee6)" style="fill: none; stroke: #ff7f0e; stroke-width: 1.2; stroke-linecap: square"/>
   </g>
   <g id="line2d_27">
    <path d="M 407.471541 64.482427 
L 412.117739 66.718098 
L 416.763938 92.304114 
L 421.410137 86.83914 
L 426.056336 110.388211 
L 430.702534 114.909235 
L 435.348733 123.887408 
L 439.994932 120.560516 
L 444.641131 129.068487 
L 449.28733 134.781869 
L 453.933528 136.204569 
L 458.579727 136.204569 
L 463.225926 141.714709 
L 467.872125 144.638279 
L 472.518323 147.463578 
L 477.164522 148.258483 
L 481.810721 149.767561 
L 486.45692 154.759465 
L 491.103118 158.899597 
L 495.749317 164.033361 
L 500.395516 167.433934 
L 505.041715 170.123837 
L 509.687914 171.84011 
L 514.334112 171.84011 
L 518.980311 177.439598 
L 523.62651 179.089351 
L 528.272709 180.433238 
L 532.918907 182.675788 
L 537.565106 184.690652 
L 542.211305 187.210218 
L 546.857504 189.541337 
L 551.503702 190.286561 
L 556.149901 190.754529 
L 560.7961 192.166848 
L 565.442299 193.212702 
L 570.088498 193.775937 
L 574.734696 193.775937 
L 579.380895 194.056492 
L 584.027094 194.477603 
L 588.673293 194.982251 
L 593.319491 195.337372 
L 597.96569 195.516387 
L 602.611889 195.81161 
L 607.258088 195.96429 
L 611.904286 195.962559 
L 616.550485 196.11606 
L 621.196684 196.234225 
L 625.842883 196.329824 
L 630.489082 196.329824 
L 635.13528 196.403266 
L 639.781479 196.394304 
L 644.427678 196.367878 
L 649.073877 196.403365 
L 653.720075 196.420399 
L 658.366274 196.420399 
L 663.012473 196.420399 
L 667.658672 196.420399 
L 672.304871 196.420399 
" clip-path="url(#p2d18934ee6)" style="fill: none; stroke: #2ca02c; stroke-width: 1.2; stroke-linecap: square"/>
   </g>
   <g id="patch_6">
    <path d="M 394.229874 277.617 
L 394.229874 27.789 
" style="fill: none; stroke: #000000; stroke-linejoin: miter; stroke-linecap: square"/>
   </g>
   <g id="patch_7">
    <path d="M 394.229874 277.617 
L 685.546537 277.617 
" style="fill: none; stroke: #000000; stroke-linejoin: miter; stroke-linecap: square"/>
   </g>
   <g id="text_18">
    <!-- Region 1 -->
    <g transform="translate(497.864206 21.789) scale(0.192 -0.192)">
     <use xlink:href="#DejaVuSans-52"/>
     <use xlink:href="#DejaVuSans-65" x="64.982422"/>
     <use xlink:href="#DejaVuSans-67" x="126.505859"/>
     <use xlink:href="#DejaVuSans-69" x="189.982422"/>
     <use xlink:href="#DejaVuSans-6f" x="217.765625"/>
     <use xlink:href="#DejaVuSans-6e" x="278.947266"/>
     <use xlink:href="#DejaVuSans-20" x="342.326172"/>
     <use xlink:href="#DejaVuSans-31" x="374.113281"/>
    </g>
   </g>
  </g>
  <g id="legend_1">
   <g id="text_19">
    <!-- Model -->
    <g transform="translate(711.239887 132.914) scale(0.192 -0.192)">
     <defs>
      <path id="DejaVuSans-4d" d="M 628 4666 
L 1569 4666 
L 2759 1491 
L 3956 4666 
L 4897 4666 
L 4897 0 
L 4281 0 
L 4281 4097 
L 3078 897 
L 2444 897 
L 1241 4097 
L 1241 0 
L 628 0 
L 628 4666 
z
" transform="scale(0.015625)"/>
      <path id="DejaVuSans-64" d="M 2906 2969 
L 2906 4863 
L 3481 4863 
L 3481 0 
L 2906 0 
L 2906 525 
Q 2725 213 2448 61 
Q 2172 -91 1784 -91 
Q 1150 -91 751 415 
Q 353 922 353 1747 
Q 353 2572 751 3078 
Q 1150 3584 1784 3584 
Q 2172 3584 2448 3432 
Q 2725 3281 2906 2969 
z
M 947 1747 
Q 947 1113 1208 752 
Q 1469 391 1925 391 
Q 2381 391 2643 752 
Q 2906 1113 2906 1747 
Q 2906 2381 2643 2742 
Q 2381 3103 1925 3103 
Q 1469 3103 1208 2742 
Q 947 2381 947 1747 
z
" transform="scale(0.015625)"/>
      <path id="DejaVuSans-6c" d="M 603 4863 
L 1178 4863 
L 1178 0 
L 603 0 
L 603 4863 
z
" transform="scale(0.015625)"/>
     </defs>
     <use xlink:href="#DejaVuSans-4d"/>
     <use xlink:href="#DejaVuSans-6f" x="86.279297"/>
     <use xlink:href="#DejaVuSans-64" x="147.460938"/>
     <use xlink:href="#DejaVuSans-65" x="210.9375"/>
     <use xlink:href="#DejaVuSans-6c" x="272.460938"/>
    </g>
   </g>
   <g id="line2d_28">
    <path d="M 690.381137 152.92025 
L 707.981137 152.92025 
L 725.581137 152.92025 
" style="fill: none; stroke: #1f77b4; stroke-width: 1.2; stroke-linecap: square"/>
   </g>
   <g id="text_20">
    <!-- Naive -->
    <g transform="translate(739.661137 159.08025) scale(0.176 -0.176)">
     <defs>
      <path id="DejaVuSans-4e" d="M 628 4666 
L 1478 4666 
L 3547 763 
L 3547 4666 
L 4159 4666 
L 4159 0 
L 3309 0 
L 1241 3903 
L 1241 0 
L 628 0 
L 628 4666 
z
" transform="scale(0.015625)"/>
      <path id="DejaVuSans-76" d="M 191 3500 
L 800 3500 
L 1894 563 
L 2988 3500 
L 3597 3500 
L 2284 0 
L 1503 0 
L 191 3500 
z
" transform="scale(0.015625)"/>
     </defs>
     <use xlink:href="#DejaVuSans-4e"/>
     <use xlink:href="#DejaVuSans-61" x="74.804688"/>
     <use xlink:href="#DejaVuSans-69" x="136.083984"/>
     <use xlink:href="#DejaVuSans-76" x="163.867188"/>
     <use xlink:href="#DejaVuSans-65" x="223.046875"/>
    </g>
   </g>
   <g id="line2d_29">
    <path d="M 690.381137 178.75375 
L 707.981137 178.75375 
L 725.581137 178.75375 
" style="fill: none; stroke: #ff7f0e; stroke-width: 1.2; stroke-linecap: square"/>
   </g>
   <g id="text_21">
    <!-- KDE -->
    <g transform="translate(739.661137 184.91375) scale(0.176 -0.176)">
     <defs>
      <path id="DejaVuSans-4b" d="M 628 4666 
L 1259 4666 
L 1259 2694 
L 3353 4666 
L 4166 4666 
L 1850 2491 
L 4331 0 
L 3500 0 
L 1259 2247 
L 1259 0 
L 628 0 
L 628 4666 
z
" transform="scale(0.015625)"/>
      <path id="DejaVuSans-44" d="M 1259 4147 
L 1259 519 
L 2022 519 
Q 2988 519 3436 956 
Q 3884 1394 3884 2338 
Q 3884 3275 3436 3711 
Q 2988 4147 2022 4147 
L 1259 4147 
z
M 628 4666 
L 1925 4666 
Q 3281 4666 3915 4102 
Q 4550 3538 4550 2338 
Q 4550 1131 3912 565 
Q 3275 0 1925 0 
L 628 0 
L 628 4666 
z
" transform="scale(0.015625)"/>
      <path id="DejaVuSans-45" d="M 628 4666 
L 3578 4666 
L 3578 4134 
L 1259 4134 
L 1259 2753 
L 3481 2753 
L 3481 2222 
L 1259 2222 
L 1259 531 
L 3634 531 
L 3634 0 
L 628 0 
L 628 4666 
z
" transform="scale(0.015625)"/>
     </defs>
     <use xlink:href="#DejaVuSans-4b"/>
     <use xlink:href="#DejaVuSans-44" x="65.576172"/>
     <use xlink:href="#DejaVuSans-45" x="142.578125"/>
    </g>
   </g>
   <g id="line2d_30">
    <path d="M 690.381137 204.58725 
L 707.981137 204.58725 
L 725.581137 204.58725 
" style="fill: none; stroke: #2ca02c; stroke-width: 1.2; stroke-linecap: square"/>
   </g>
   <g id="text_22">
    <!-- SEPP -->
    <g transform="translate(739.661137 210.74725) scale(0.176 -0.176)">
     <defs>
      <path id="DejaVuSans-53" d="M 3425 4513 
L 3425 3897 
Q 3066 4069 2747 4153 
Q 2428 4238 2131 4238 
Q 1616 4238 1336 4038 
Q 1056 3838 1056 3469 
Q 1056 3159 1242 3001 
Q 1428 2844 1947 2747 
L 2328 2669 
Q 3034 2534 3370 2195 
Q 3706 1856 3706 1288 
Q 3706 609 3251 259 
Q 2797 -91 1919 -91 
Q 1588 -91 1214 -16 
Q 841 59 441 206 
L 441 856 
Q 825 641 1194 531 
Q 1563 422 1919 422 
Q 2459 422 2753 634 
Q 3047 847 3047 1241 
Q 3047 1584 2836 1778 
Q 2625 1972 2144 2069 
L 1759 2144 
Q 1053 2284 737 2584 
Q 422 2884 422 3419 
Q 422 4038 858 4394 
Q 1294 4750 2059 4750 
Q 2388 4750 2728 4690 
Q 3069 4631 3425 4513 
z
" transform="scale(0.015625)"/>
     </defs>
     <use xlink:href="#DejaVuSans-53"/>
     <use xlink:href="#DejaVuSans-45" x="63.476562"/>
     <use xlink:href="#DejaVuSans-50" x="126.660156"/>
     <use xlink:href="#DejaVuSans-50" x="186.962891"/>
    </g>
   </g>
  </g>
 </g>
 <defs>
  <clipPath id="pc1f028ae86">
   <rect x="66.0715" y="27.789" width="291.316663" height="249.828"/>
  </clipPath>
  <clipPath id="p2d18934ee6">
   <rect x="394.229874" y="27.789" width="291.316663" height="249.828"/>
  </clipPath>
 </defs>
</svg>
