<?xml version="1.0" encoding="utf-8" standalone="no"?>
<!DOCTYPE svg PUBLIC "-//W3C//DTD SVG 1.1//EN"
  "http://www.w3.org/Graphics/SVG/1.1/DTD/svg11.dtd">
<svg xmlns:xlink="http://www.w3.org/1999/xlink" width="435.996pt" height="349.7845pt" viewBox="0 0 435.996 349.7845" xmlns="http://www.w3.org/2000/svg" version="1.1">
 <metadata>
  <rdf:RDF xmlns:dc="http://purl.org/dc/elements/1.1/" xmlns:cc="http://creativecommons.org/ns#" xmlns:rdf="http://www.w3.org/1999/02/22-rdf-syntax-ns#">
   <cc:Work>
    <dc:type rdf:resource="http://purl.org/dc/dcmitype/StillImage"/>
    <dc:date>2024-03-29T05:49:26.173384</dc:date>
    <dc:format>image/svg+xml</dc:format>
    <dc:creator>
     <cc:Agent>
      <dc:title>Matplotlib v3.7.1, https://matplotlib.org/</dc:title>
     </cc:Agent>
    </dc:creator>
   </cc:Work>
  </rdf:RDF>
 </metadata>
 <defs>
  <style type="text/css">*{stroke-linejoin: round; stroke-linecap: butt}</style>
 </defs>
 <g id="figure_1">
  <g id="patch_1">
   <path d="M 0 349.7845 
L 435.996 349.7845 
L 435.996 0 
L 0 0 
z
" style="fill: #ffffff"/>
  </g>
  <g id="axes_1">
   <g id="patch_2">
    <path d="M 71.676 294.669 
L 428.796 294.669 
L 428.796 28.557 
L 71.676 28.557 
z
" style="fill: #ffffff"/>
   </g>
   <g id="PolyCollection_1">
    <defs>
     <path id="m107a354e5a" d="M 87.908727 -55.209119 
L 87.908727 -55.1155 
L 89.24372 -55.1155 
L 90.578713 -55.1155 
L 91.913706 -55.1155 
L 93.2487 -55.1155 
L 94.583693 -55.1155 
L 95.918686 -55.1155 
L 97.253679 -55.1155 
L 98.588672 -55.1155 
L 99.923665 -55.1155 
L 101.258658 -55.1155 
L 102.593651 -55.1155 
L 103.928644 -55.1155 
L 105.263637 -55.1155 
L 106.59863 -55.1155 
L 107.933623 -55.1155 
L 109.268616 -55.1155 
L 110.603609 -55.1155 
L 111.938603 -55.1155 
L 113.273596 -55.1155 
L 114.608589 -55.1155 
L 115.943582 -55.1155 
L 117.278575 -55.1155 
L 118.613568 -55.1155 
L 119.948561 -55.1155 
L 121.283554 -55.1155 
L 122.618547 -55.1155 
L 123.95354 -55.1155 
L 125.288533 -55.1155 
L 126.623526 -55.1155 
L 127.958519 -55.1155 
L 129.293512 -55.1155 
L 130.628506 -55.1155 
L 131.963499 -55.1155 
L 133.298492 -55.1155 
L 134.633485 -55.1155 
L 135.968478 -55.1155 
L 137.303471 -55.1155 
L 138.638464 -55.1155 
L 139.973457 -55.1155 
L 141.30845 -55.1155 
L 142.643443 -55.1155 
L 143.978436 -55.1155 
L 145.313429 -55.1155 
L 146.648422 -55.1155 
L 147.983415 -55.1155 
L 149.318409 -55.1155 
L 150.653402 -55.1155 
L 151.988395 -55.1155 
L 153.323388 -55.1155 
L 154.658381 -55.1155 
L 155.993374 -55.1155 
L 157.328367 -55.1155 
L 158.66336 -55.1155 
L 159.998353 -55.1155 
L 161.333346 -55.1155 
L 162.668339 -55.1155 
L 164.003332 -55.1155 
L 165.338325 -55.1155 
L 166.673318 -55.1155 
L 168.008312 -55.1155 
L 169.343305 -55.1155 
L 170.678298 -55.1155 
L 172.013291 -55.1155 
L 173.348284 -55.1155 
L 174.683277 -55.1155 
L 176.01827 -55.1155 
L 177.353263 -55.1155 
L 178.688256 -55.1155 
L 180.023249 -55.1155 
L 181.358242 -55.1155 
L 182.693235 -55.1155 
L 184.028228 -55.1155 
L 185.363221 -55.1155 
L 186.698215 -55.1155 
L 188.033208 -55.1155 
L 189.368201 -55.1155 
L 190.703194 -55.1155 
L 192.038187 -55.1155 
L 193.37318 -55.1155 
L 194.708173 -55.1155 
L 196.043166 -55.1155 
L 197.378159 -55.1155 
L 198.713152 -55.1155 
L 200.048145 -55.1155 
L 201.383138 -55.1155 
L 202.718131 -55.1155 
L 204.053124 -55.1155 
L 205.388118 -55.1155 
L 206.723111 -55.1155 
L 208.058104 -55.1155 
L 209.393097 -55.1155 
L 210.72809 -55.1155 
L 212.063083 -55.1155 
L 213.398076 -55.1155 
L 214.733069 -55.1155 
L 216.068062 -55.1155 
L 217.403055 -55.1155 
L 218.738048 -55.1155 
L 220.073041 -55.1155 
L 221.408034 -55.1155 
L 222.743027 -55.1155 
L 224.078021 -55.1155 
L 225.413014 -55.1155 
L 226.748007 -55.1155 
L 228.083 -55.1155 
L 229.417993 -55.1155 
L 230.752986 -55.1155 
L 232.087979 -55.1155 
L 233.422972 -55.1155 
L 234.757965 -55.1155 
L 236.092958 -55.1155 
L 237.427951 -55.1155 
L 238.762944 -55.1155 
L 240.097937 -55.1155 
L 241.43293 -55.1155 
L 242.767924 -55.1155 
L 244.102917 -55.1155 
L 245.43791 -55.1155 
L 246.772903 -55.1155 
L 248.107896 -55.1155 
L 249.442889 -55.1155 
L 250.777882 -55.1155 
L 252.112875 -55.1155 
L 253.447868 -55.1155 
L 254.782861 -55.1155 
L 256.117854 -55.1155 
L 257.452847 -55.1155 
L 258.78784 -55.1155 
L 260.122833 -55.1155 
L 261.457826 -55.1155 
L 262.79282 -55.1155 
L 264.127813 -55.1155 
L 265.462806 -55.1155 
L 266.797799 -55.1155 
L 268.132792 -55.1155 
L 269.467785 -55.1155 
L 270.802778 -55.1155 
L 272.137771 -55.1155 
L 273.472764 -55.1155 
L 274.807757 -55.1155 
L 276.14275 -55.1155 
L 277.477743 -55.1155 
L 278.812736 -55.1155 
L 280.147729 -55.1155 
L 281.482723 -55.1155 
L 282.817716 -55.1155 
L 284.152709 -55.1155 
L 285.487702 -55.1155 
L 286.822695 -55.1155 
L 288.157688 -55.1155 
L 289.492681 -55.1155 
L 290.827674 -55.1155 
L 292.162667 -55.1155 
L 293.49766 -55.1155 
L 294.832653 -55.1155 
L 296.167646 -55.1155 
L 297.502639 -55.1155 
L 298.837632 -55.1155 
L 300.172626 -55.1155 
L 301.507619 -55.1155 
L 302.842612 -55.1155 
L 304.177605 -55.1155 
L 305.512598 -55.1155 
L 306.847591 -55.1155 
L 308.182584 -55.1155 
L 309.517577 -55.1155 
L 310.85257 -55.1155 
L 312.187563 -55.1155 
L 313.522556 -55.1155 
L 314.857549 -55.1155 
L 316.192542 -55.1155 
L 317.527535 -55.1155 
L 318.862529 -55.1155 
L 320.197522 -55.1155 
L 321.532515 -55.1155 
L 322.867508 -55.1155 
L 324.202501 -55.1155 
L 325.537494 -55.1155 
L 326.872487 -55.1155 
L 328.20748 -55.1155 
L 329.542473 -55.1155 
L 330.877466 -55.1155 
L 332.212459 -55.1155 
L 333.547452 -55.1155 
L 334.882445 -55.1155 
L 336.217438 -55.1155 
L 337.552432 -55.1155 
L 338.887425 -55.1155 
L 340.222418 -55.1155 
L 341.557411 -55.1155 
L 342.892404 -55.1155 
L 344.227397 -55.1155 
L 345.56239 -55.1155 
L 346.897383 -55.1155 
L 348.232376 -55.1155 
L 349.567369 -55.1155 
L 350.902362 -55.1155 
L 352.237355 -55.1155 
L 353.572348 -55.1155 
L 353.572348 -55.209119 
L 353.572348 -55.209119 
L 352.237355 -55.546386 
L 350.902362 -56.562558 
L 349.567369 -58.661454 
L 348.232376 -61.455721 
L 346.897383 -63.387295 
L 345.56239 -62.989933 
L 344.227397 -60.585192 
L 342.892404 -57.887738 
L 341.557411 -56.140732 
L 340.222418 -55.392155 
L 338.887425 -55.169973 
L 337.552432 -55.123326 
L 336.217438 -55.11632 
L 334.882445 -55.115563 
L 333.547452 -55.115504 
L 332.212459 -55.1155 
L 330.877466 -55.1155 
L 329.542473 -55.1155 
L 328.20748 -55.1155 
L 326.872487 -55.1155 
L 325.537494 -55.1155 
L 324.202501 -55.1155 
L 322.867508 -55.115502 
L 321.532515 -55.115532 
L 320.197522 -55.115947 
L 318.862529 -55.120108 
L 317.527535 -55.150183 
L 316.192542 -55.306008 
L 314.857549 -55.879449 
L 313.522556 -57.354742 
L 312.187563 -59.931744 
L 310.85257 -62.810192 
L 309.517577 -64.582431 
L 308.182584 -64.9139 
L 306.847591 -64.866217 
L 305.512598 -64.886629 
L 304.177605 -63.965832 
L 302.842612 -61.536399 
L 301.507619 -58.627571 
L 300.172626 -56.534062 
L 298.837632 -55.552118 
L 297.502639 -55.31837 
L 296.167646 -55.634345 
L 294.832653 -56.786852 
L 293.49766 -59.28499 
L 292.162667 -63.377189 
L 290.827674 -69.322948 
L 289.492681 -78.143715 
L 288.157688 -89.889986 
L 286.822695 -100.401886 
L 285.487702 -104.058588 
L 284.152709 -100.995724 
L 282.817716 -96.509222 
L 281.482723 -94.118489 
L 280.147729 -94.238348 
L 278.812736 -95.846386 
L 277.477743 -95.580023 
L 276.14275 -90.296592 
L 274.807757 -81.836191 
L 273.472764 -75.060877 
L 272.137771 -72.62386 
L 270.802778 -73.911662 
L 269.467785 -76.547918 
L 268.132792 -78.319282 
L 266.797799 -78.823346 
L 265.462806 -78.431527 
L 264.127813 -76.794823 
L 262.79282 -74.248262 
L 261.457826 -72.787668 
L 260.122833 -74.450729 
L 258.78784 -79.753141 
L 257.452847 -87.298466 
L 256.117854 -95.13798 
L 254.782861 -102.636541 
L 253.447868 -108.943747 
L 252.112875 -111.723625 
L 250.777882 -110.663234 
L 249.442889 -108.378828 
L 248.107896 -106.702018 
L 246.772903 -106.537041 
L 245.43791 -109.527735 
L 244.102917 -116.93923 
L 242.767924 -128.209986 
L 241.43293 -139.128734 
L 240.097937 -143.144276 
L 238.762944 -138.717527 
L 237.427951 -131.092972 
L 236.092958 -125.546946 
L 234.757965 -124.713917 
L 233.422972 -130.473975 
L 232.087979 -143.828023 
L 230.752986 -162.311009 
L 229.417993 -177.878819 
L 228.083 -182.608148 
L 226.748007 -177.069939 
L 225.413014 -167.019303 
L 224.078021 -156.117047 
L 222.743027 -145.757938 
L 221.408034 -136.291479 
L 220.073041 -128.308016 
L 218.738048 -124.280333 
L 217.403055 -126.523799 
L 216.068062 -133.83253 
L 214.733069 -141.370996 
L 213.398076 -145.349203 
L 212.063083 -147.350265 
L 210.72809 -151.759861 
L 209.393097 -160.828762 
L 208.058104 -173.191039 
L 206.723111 -186.080903 
L 205.388118 -198.746854 
L 204.053124 -211.756759 
L 202.718131 -224.52003 
L 201.383138 -234.650176 
L 200.048145 -238.402876 
L 198.713152 -235.505124 
L 197.378159 -232.013278 
L 196.043166 -234.284444 
L 194.708173 -243.430502 
L 193.37318 -255.934387 
L 192.038187 -267.929544 
L 190.703194 -277.484263 
L 189.368201 -282.832227 
L 188.033208 -282.334788 
L 186.698215 -274.735567 
L 185.363221 -260.818886 
L 184.028228 -248.161049 
L 182.693235 -246.626628 
L 181.358242 -255.548112 
L 180.023249 -261.218634 
L 178.688256 -252.454405 
L 177.353263 -236.395527 
L 176.01827 -231.200508 
L 174.683277 -245.685737 
L 173.348284 -272.696548 
L 172.013291 -298.023116 
L 170.678298 -308.035932 
L 169.343305 -293.713371 
L 168.008312 -259.217888 
L 166.673318 -222.202982 
L 165.338325 -198.41336 
L 164.003332 -191.480203 
L 162.668339 -197.163247 
L 161.333346 -209.814581 
L 159.998353 -224.162979 
L 158.66336 -235.617144 
L 157.328367 -240.517948 
L 155.993374 -237.070417 
L 154.658381 -227.322542 
L 153.323388 -215.363732 
L 151.988395 -203.075237 
L 150.653402 -189.758862 
L 149.318409 -176.033617 
L 147.983415 -166.432016 
L 146.648422 -164.549215 
L 145.313429 -165.894971 
L 143.978436 -160.583927 
L 142.643443 -144.778305 
L 141.30845 -125.361627 
L 139.973457 -112.464218 
L 138.638464 -111.448604 
L 137.303471 -120.232021 
L 135.968478 -129.918734 
L 134.633485 -131.362364 
L 133.298492 -124.592407 
L 131.963499 -117.704576 
L 130.628506 -115.107973 
L 129.293512 -112.622469 
L 127.958519 -105.918042 
L 126.623526 -97.994294 
L 125.288533 -94.688435 
L 123.95354 -96.735168 
L 122.618547 -99.759956 
L 121.283554 -99.432139 
L 119.948561 -94.270537 
L 118.613568 -85.634972 
L 117.278575 -76.87096 
L 115.943582 -71.829684 
L 114.608589 -72.946632 
L 113.273596 -78.94967 
L 111.938603 -84.498559 
L 110.603609 -84.454763 
L 109.268616 -78.504154 
L 107.933623 -70.220735 
L 106.59863 -63.0693 
L 105.263637 -58.484317 
L 103.928644 -56.240398 
L 102.593651 -55.452722 
L 101.258658 -55.445745 
L 99.923665 -56.148249 
L 98.588672 -57.888513 
L 97.253679 -60.58525 
L 95.918686 -62.989936 
L 94.583693 -63.387295 
L 93.2487 -61.455721 
L 91.913706 -58.661454 
L 90.578713 -56.562558 
L 89.24372 -55.546386 
L 87.908727 -55.209119 
z
" style="stroke: #2ca02c; stroke-width: 0.8"/>
    </defs>
    <g clip-path="url(#pae15a1a1c1)">
     <use xlink:href="#m107a354e5a" x="0" y="349.7845" style="fill: #2ca02c; fill-opacity: 0.25; stroke: #2ca02c; stroke-width: 0.8"/>
    </g>
   </g>
   <g id="PolyCollection_2">
    <defs>
     <path id="m546352a29d" d="M 151.552661 -55.305278 
L 151.552661 -55.1155 
L 152.864272 -55.1155 
L 154.175883 -55.1155 
L 155.487495 -55.1155 
L 156.799106 -55.1155 
L 158.110717 -55.1155 
L 159.422328 -55.1155 
L 160.733939 -55.1155 
L 162.04555 -55.1155 
L 163.357161 -55.1155 
L 164.668772 -55.1155 
L 165.980383 -55.1155 
L 167.291995 -55.1155 
L 168.603606 -55.1155 
L 169.915217 -55.1155 
L 171.226828 -55.1155 
L 172.538439 -55.1155 
L 173.85005 -55.1155 
L 175.161661 -55.1155 
L 176.473272 -55.1155 
L 177.784883 -55.1155 
L 179.096495 -55.1155 
L 180.408106 -55.1155 
L 181.719717 -55.1155 
L 183.031328 -55.1155 
L 184.342939 -55.1155 
L 185.65455 -55.1155 
L 186.966161 -55.1155 
L 188.277772 -55.1155 
L 189.589384 -55.1155 
L 190.900995 -55.1155 
L 192.212606 -55.1155 
L 193.524217 -55.1155 
L 194.835828 -55.1155 
L 196.147439 -55.1155 
L 197.45905 -55.1155 
L 198.770661 -55.1155 
L 200.082272 -55.1155 
L 201.393884 -55.1155 
L 202.705495 -55.1155 
L 204.017106 -55.1155 
L 205.328717 -55.1155 
L 206.640328 -55.1155 
L 207.951939 -55.1155 
L 209.26355 -55.1155 
L 210.575161 -55.1155 
L 211.886772 -55.1155 
L 213.198384 -55.1155 
L 214.509995 -55.1155 
L 215.821606 -55.1155 
L 217.133217 -55.1155 
L 218.444828 -55.1155 
L 219.756439 -55.1155 
L 221.06805 -55.1155 
L 222.379661 -55.1155 
L 223.691272 -55.1155 
L 225.002884 -55.1155 
L 226.314495 -55.1155 
L 227.626106 -55.1155 
L 228.937717 -55.1155 
L 230.249328 -55.1155 
L 231.560939 -55.1155 
L 232.87255 -55.1155 
L 234.184161 -55.1155 
L 235.495772 -55.1155 
L 236.807384 -55.1155 
L 238.118995 -55.1155 
L 239.430606 -55.1155 
L 240.742217 -55.1155 
L 242.053828 -55.1155 
L 243.365439 -55.1155 
L 244.67705 -55.1155 
L 245.988661 -55.1155 
L 247.300272 -55.1155 
L 248.611884 -55.1155 
L 249.923495 -55.1155 
L 251.235106 -55.1155 
L 252.546717 -55.1155 
L 253.858328 -55.1155 
L 255.169939 -55.1155 
L 256.48155 -55.1155 
L 257.793161 -55.1155 
L 259.104772 -55.1155 
L 260.416384 -55.1155 
L 261.727995 -55.1155 
L 263.039606 -55.1155 
L 264.351217 -55.1155 
L 265.662828 -55.1155 
L 266.974439 -55.1155 
L 268.28605 -55.1155 
L 269.597661 -55.1155 
L 270.909273 -55.1155 
L 272.220884 -55.1155 
L 273.532495 -55.1155 
L 274.844106 -55.1155 
L 276.155717 -55.1155 
L 277.467328 -55.1155 
L 278.778939 -55.1155 
L 280.09055 -55.1155 
L 281.402161 -55.1155 
L 282.713773 -55.1155 
L 284.025384 -55.1155 
L 285.336995 -55.1155 
L 286.648606 -55.1155 
L 287.960217 -55.1155 
L 289.271828 -55.1155 
L 290.583439 -55.1155 
L 291.89505 -55.1155 
L 293.206661 -55.1155 
L 294.518273 -55.1155 
L 295.829884 -55.1155 
L 297.141495 -55.1155 
L 298.453106 -55.1155 
L 299.764717 -55.1155 
L 301.076328 -55.1155 
L 302.387939 -55.1155 
L 303.69955 -55.1155 
L 305.011161 -55.1155 
L 306.322773 -55.1155 
L 307.634384 -55.1155 
L 308.945995 -55.1155 
L 310.257606 -55.1155 
L 311.569217 -55.1155 
L 312.880828 -55.1155 
L 314.192439 -55.1155 
L 315.50405 -55.1155 
L 316.815661 -55.1155 
L 318.127273 -55.1155 
L 319.438884 -55.1155 
L 320.750495 -55.1155 
L 322.062106 -55.1155 
L 323.373717 -55.1155 
L 324.685328 -55.1155 
L 325.996939 -55.1155 
L 327.30855 -55.1155 
L 328.620161 -55.1155 
L 329.931773 -55.1155 
L 331.243384 -55.1155 
L 332.554995 -55.1155 
L 333.866606 -55.1155 
L 335.178217 -55.1155 
L 336.489828 -55.1155 
L 337.801439 -55.1155 
L 339.11305 -55.1155 
L 340.424662 -55.1155 
L 341.736273 -55.1155 
L 343.047884 -55.1155 
L 344.359495 -55.1155 
L 345.671106 -55.1155 
L 346.982717 -55.1155 
L 348.294328 -55.1155 
L 349.605939 -55.1155 
L 350.91755 -55.1155 
L 352.229162 -55.1155 
L 353.540773 -55.1155 
L 354.852384 -55.1155 
L 356.163995 -55.1155 
L 357.475606 -55.1155 
L 358.787217 -55.1155 
L 360.098828 -55.1155 
L 361.410439 -55.1155 
L 362.72205 -55.1155 
L 364.033662 -55.1155 
L 365.345273 -55.1155 
L 366.656884 -55.1155 
L 367.968495 -55.1155 
L 369.280106 -55.1155 
L 370.591717 -55.1155 
L 371.903328 -55.1155 
L 373.214939 -55.1155 
L 374.52655 -55.1155 
L 375.838162 -55.1155 
L 377.149773 -55.1155 
L 378.461384 -55.1155 
L 379.772995 -55.1155 
L 381.084606 -55.1155 
L 382.396217 -55.1155 
L 383.707828 -55.1155 
L 385.019439 -55.1155 
L 386.33105 -55.1155 
L 387.642662 -55.1155 
L 388.954273 -55.1155 
L 390.265884 -55.1155 
L 391.577495 -55.1155 
L 392.889106 -55.1155 
L 394.200717 -55.1155 
L 395.512328 -55.1155 
L 396.823939 -55.1155 
L 398.13555 -55.1155 
L 399.447162 -55.1155 
L 400.758773 -55.1155 
L 402.070384 -55.1155 
L 403.381995 -55.1155 
L 404.693606 -55.1155 
L 406.005217 -55.1155 
L 407.316828 -55.1155 
L 408.628439 -55.1155 
L 409.940051 -55.1155 
L 411.251662 -55.1155 
L 412.563273 -55.1155 
L 412.563273 -55.21332 
L 412.563273 -55.21332 
L 411.251662 -55.58235 
L 409.940051 -56.71388 
L 408.628439 -59.041373 
L 407.316828 -62.032939 
L 406.005217 -63.859448 
L 404.693606 -63.044581 
L 403.381995 -60.273618 
L 402.070384 -57.522704 
L 400.758773 -55.921412 
L 399.447162 -55.30906 
L 398.13555 -55.14885 
L 396.823939 -55.119622 
L 395.512328 -55.115866 
L 394.200717 -55.115523 
L 392.889106 -55.115501 
L 391.577495 -55.1155 
L 390.265884 -55.1155 
L 388.954273 -55.1155 
L 387.642662 -55.1155 
L 386.33105 -55.1155 
L 385.019439 -55.1155 
L 383.707828 -55.1155 
L 382.396217 -55.1155 
L 381.084606 -55.1155 
L 379.772995 -55.1155 
L 378.461384 -55.1155 
L 377.149773 -55.1155 
L 375.838162 -55.1155 
L 374.52655 -55.1155 
L 373.214939 -55.1155 
L 371.903328 -55.1155 
L 370.591717 -55.1155 
L 369.280106 -55.1155 
L 367.968495 -55.1155 
L 366.656884 -55.115509 
L 365.345273 -55.115655 
L 364.033662 -55.117525 
L 362.72205 -55.134621 
L 361.410439 -55.246213 
L 360.098828 -55.763547 
L 358.787217 -57.450395 
L 357.475606 -61.244118 
L 356.163995 -66.880447 
L 354.852384 -71.787999 
L 353.540773 -73.043237 
L 352.229162 -70.895126 
L 350.91755 -68.223025 
L 349.605939 -66.363091 
L 348.294328 -64.162805 
L 346.982717 -61.004923 
L 345.671106 -57.986951 
L 344.359495 -56.162667 
L 343.047884 -55.563212 
L 341.736273 -55.965334 
L 340.424662 -57.623898 
L 339.11305 -61.059874 
L 337.801439 -66.741511 
L 336.489828 -75.900696 
L 335.178217 -90.468624 
L 333.866606 -108.688893 
L 332.554995 -122.073968 
L 331.243384 -122.767511 
L 329.931773 -113.456617 
L 328.620161 -105.266246 
L 327.30855 -106.181475 
L 325.996939 -112.564572 
L 324.685328 -113.196297 
L 323.373717 -103.340611 
L 322.062106 -90.378715 
L 320.750495 -83.824914 
L 319.438884 -85.66043 
L 318.127273 -90.688595 
L 316.815661 -92.585063 
L 315.50405 -89.662356 
L 314.192439 -85.190913 
L 312.880828 -83.157934 
L 311.569217 -85.337336 
L 310.257606 -91.531822 
L 308.945995 -100.723959 
L 307.634384 -111.065099 
L 306.322773 -119.913512 
L 305.011161 -125.842178 
L 303.69955 -129.805151 
L 302.387939 -133.495047 
L 301.076328 -137.731677 
L 299.764717 -140.865691 
L 298.453106 -138.761072 
L 297.141495 -131.31126 
L 295.829884 -126.764332 
L 294.518273 -133.495227 
L 293.206661 -149.457381 
L 291.89505 -163.746061 
L 290.583439 -169.478796 
L 289.271828 -171.490777 
L 287.960217 -179.474393 
L 286.648606 -199.91089 
L 285.336995 -233.798323 
L 284.025384 -273.386208 
L 282.713773 -300.917754 
L 281.402161 -299.673574 
L 280.09055 -272.134436 
L 278.778939 -238.862776 
L 277.467328 -216.099529 
L 276.155717 -206.320928 
L 274.844106 -208.03324 
L 273.532495 -219.824767 
L 272.220884 -236.279391 
L 270.909273 -250.06051 
L 269.597661 -256.746823 
L 268.28605 -253.983746 
L 266.974439 -241.336776 
L 265.662828 -223.522988 
L 264.351217 -208.816904 
L 263.039606 -202.27561 
L 261.727995 -203.040898 
L 260.416384 -208.344646 
L 259.104772 -218.460212 
L 257.793161 -236.762377 
L 256.48155 -263.411026 
L 255.169939 -290.877962 
L 253.858328 -308.065953 
L 252.546717 -308.5555 
L 251.235106 -295.270973 
L 249.923495 -275.686775 
L 248.611884 -253.859096 
L 247.300272 -230.352632 
L 245.988661 -207.38034 
L 244.67705 -190.282487 
L 243.365439 -182.481345 
L 242.053828 -182.806327 
L 240.742217 -191.129495 
L 239.430606 -210.213379 
L 238.118995 -237.05177 
L 236.807384 -258.794863 
L 235.495772 -262.458754 
L 234.184161 -246.131368 
L 232.87255 -221.439958 
L 231.560939 -205.323678 
L 230.249328 -205.187407 
L 228.937717 -212.341136 
L 227.626106 -211.375664 
L 226.314495 -195.371095 
L 225.002884 -171.954195 
L 223.691272 -155.21015 
L 222.379661 -153.317789 
L 221.06805 -163.29265 
L 219.756439 -173.7141 
L 218.444828 -172.066506 
L 217.133217 -154.72639 
L 215.821606 -132.043304 
L 214.509995 -119.413974 
L 213.198384 -123.347513 
L 211.886772 -139.36878 
L 210.575161 -159.716174 
L 209.26355 -178.304433 
L 207.951939 -190.786962 
L 206.640328 -195.382287 
L 205.328717 -192.981506 
L 204.017106 -183.824801 
L 202.705495 -167.193684 
L 201.393884 -144.905133 
L 200.082272 -121.826638 
L 198.770661 -102.699795 
L 197.45905 -89.700609 
L 196.147439 -83.490394 
L 194.835828 -84.655382 
L 193.524217 -91.440547 
L 192.212606 -97.889149 
L 190.900995 -98.762559 
L 189.589384 -95.269806 
L 188.277772 -92.226889 
L 186.966161 -92.046946 
L 185.65455 -93.979 
L 184.342939 -95.945561 
L 183.031328 -95.348243 
L 181.719717 -90.839284 
L 180.408106 -84.518427 
L 179.096495 -80.089882 
L 177.784883 -78.292228 
L 176.473272 -76.193983 
L 175.161661 -71.805016 
L 173.85005 -67.40581 
L 172.538439 -66.809115 
L 171.226828 -71.176951 
L 169.915217 -78.436092 
L 168.603606 -84.441736 
L 167.291995 -84.667546 
L 165.980383 -77.975683 
L 164.668772 -68.595575 
L 163.357161 -62.260122 
L 162.04555 -61.686052 
L 160.733939 -65.910558 
L 159.422328 -71.105537 
L 158.110717 -72.587046 
L 156.799106 -68.851544 
L 155.487495 -62.865365 
L 154.175883 -58.252459 
L 152.864272 -56.026448 
L 151.552661 -55.305278 
z
" style="stroke: #ff7f0e; stroke-width: 0.8"/>
    </defs>
    <g clip-path="url(#pae15a1a1c1)">
     <use xlink:href="#m546352a29d" x="0" y="349.7845" style="fill: #ff7f0e; fill-opacity: 0.25; stroke: #ff7f0e; stroke-width: 0.8"/>
    </g>
   </g>
   <g id="PolyCollection_3">
    <defs>
     <path id="m5662f3c502" d="M 175.675693 -55.304827 
L 175.675693 -55.1155 
L 176.827672 -55.1155 
L 177.979651 -55.1155 
L 179.131631 -55.1155 
L 180.28361 -55.1155 
L 181.435589 -55.1155 
L 182.587568 -55.1155 
L 183.739547 -55.1155 
L 184.891527 -55.1155 
L 186.043506 -55.1155 
L 187.195485 -55.1155 
L 188.347464 -55.1155 
L 189.499443 -55.1155 
L 190.651423 -55.1155 
L 191.803402 -55.1155 
L 192.955381 -55.1155 
L 194.10736 -55.1155 
L 195.259339 -55.1155 
L 196.411318 -55.1155 
L 197.563298 -55.1155 
L 198.715277 -55.1155 
L 199.867256 -55.1155 
L 201.019235 -55.1155 
L 202.171214 -55.1155 
L 203.323194 -55.1155 
L 204.475173 -55.1155 
L 205.627152 -55.1155 
L 206.779131 -55.1155 
L 207.93111 -55.1155 
L 209.083089 -55.1155 
L 210.235069 -55.1155 
L 211.387048 -55.1155 
L 212.539027 -55.1155 
L 213.691006 -55.1155 
L 214.842985 -55.1155 
L 215.994965 -55.1155 
L 217.146944 -55.1155 
L 218.298923 -55.1155 
L 219.450902 -55.1155 
L 220.602881 -55.1155 
L 221.754861 -55.1155 
L 222.90684 -55.1155 
L 224.058819 -55.1155 
L 225.210798 -55.1155 
L 226.362777 -55.1155 
L 227.514756 -55.1155 
L 228.666736 -55.1155 
L 229.818715 -55.1155 
L 230.970694 -55.1155 
L 232.122673 -55.1155 
L 233.274652 -55.1155 
L 234.426632 -55.1155 
L 235.578611 -55.1155 
L 236.73059 -55.1155 
L 237.882569 -55.1155 
L 239.034548 -55.1155 
L 240.186527 -55.1155 
L 241.338507 -55.1155 
L 242.490486 -55.1155 
L 243.642465 -55.1155 
L 244.794444 -55.1155 
L 245.946423 -55.1155 
L 247.098403 -55.1155 
L 248.250382 -55.1155 
L 249.402361 -55.1155 
L 250.55434 -55.1155 
L 251.706319 -55.1155 
L 252.858299 -55.1155 
L 254.010278 -55.1155 
L 255.162257 -55.1155 
L 256.314236 -55.1155 
L 257.466215 -55.1155 
L 258.618194 -55.1155 
L 259.770174 -55.1155 
L 260.922153 -55.1155 
L 262.074132 -55.1155 
L 263.226111 -55.1155 
L 264.37809 -55.1155 
L 265.53007 -55.1155 
L 266.682049 -55.1155 
L 267.834028 -55.1155 
L 268.986007 -55.1155 
L 270.137986 -55.1155 
L 271.289966 -55.1155 
L 272.441945 -55.1155 
L 273.593924 -55.1155 
L 274.745903 -55.1155 
L 275.897882 -55.1155 
L 277.049861 -55.1155 
L 278.201841 -55.1155 
L 279.35382 -55.1155 
L 280.505799 -55.1155 
L 281.657778 -55.1155 
L 282.809757 -55.1155 
L 283.961737 -55.1155 
L 285.113716 -55.1155 
L 286.265695 -55.1155 
L 287.417674 -55.1155 
L 288.569653 -55.1155 
L 289.721632 -55.1155 
L 290.873612 -55.1155 
L 292.025591 -55.1155 
L 293.17757 -55.1155 
L 294.329549 -55.1155 
L 295.481528 -55.1155 
L 296.633508 -55.1155 
L 297.785487 -55.1155 
L 298.937466 -55.1155 
L 300.089445 -55.1155 
L 301.241424 -55.1155 
L 302.393404 -55.1155 
L 303.545383 -55.1155 
L 304.697362 -55.1155 
L 305.849341 -55.1155 
L 307.00132 -55.1155 
L 308.153299 -55.1155 
L 309.305279 -55.1155 
L 310.457258 -55.1155 
L 311.609237 -55.1155 
L 312.761216 -55.1155 
L 313.913195 -55.1155 
L 315.065175 -55.1155 
L 316.217154 -55.1155 
L 317.369133 -55.1155 
L 318.521112 -55.1155 
L 319.673091 -55.1155 
L 320.82507 -55.1155 
L 321.97705 -55.1155 
L 323.129029 -55.1155 
L 324.281008 -55.1155 
L 325.432987 -55.1155 
L 326.584966 -55.1155 
L 327.736946 -55.1155 
L 328.888925 -55.1155 
L 330.040904 -55.1155 
L 331.192883 -55.1155 
L 332.344862 -55.1155 
L 333.496842 -55.1155 
L 334.648821 -55.1155 
L 335.8008 -55.1155 
L 336.952779 -55.1155 
L 338.104758 -55.1155 
L 339.256737 -55.1155 
L 340.408717 -55.1155 
L 341.560696 -55.1155 
L 342.712675 -55.1155 
L 343.864654 -55.1155 
L 345.016633 -55.1155 
L 346.168613 -55.1155 
L 347.320592 -55.1155 
L 348.472571 -55.1155 
L 349.62455 -55.1155 
L 350.776529 -55.1155 
L 351.928508 -55.1155 
L 353.080488 -55.1155 
L 354.232467 -55.1155 
L 355.384446 -55.1155 
L 356.536425 -55.1155 
L 357.688404 -55.1155 
L 358.840384 -55.1155 
L 359.992363 -55.1155 
L 361.144342 -55.1155 
L 362.296321 -55.1155 
L 363.4483 -55.1155 
L 364.60028 -55.1155 
L 365.752259 -55.1155 
L 366.904238 -55.1155 
L 368.056217 -55.1155 
L 369.208196 -55.1155 
L 370.360175 -55.1155 
L 371.512155 -55.1155 
L 372.664134 -55.1155 
L 373.816113 -55.1155 
L 374.968092 -55.1155 
L 376.120071 -55.1155 
L 377.272051 -55.1155 
L 378.42403 -55.1155 
L 379.576009 -55.1155 
L 380.727988 -55.1155 
L 381.879967 -55.1155 
L 383.031946 -55.1155 
L 384.183926 -55.1155 
L 385.335905 -55.1155 
L 386.487884 -55.1155 
L 387.639863 -55.1155 
L 388.791842 -55.1155 
L 389.943822 -55.1155 
L 391.095801 -55.1155 
L 392.24778 -55.1155 
L 393.399759 -55.1155 
L 394.551738 -55.1155 
L 395.703718 -55.1155 
L 396.855697 -55.1155 
L 398.007676 -55.1155 
L 399.159655 -55.1155 
L 400.311634 -55.1155 
L 401.463613 -55.1155 
L 402.615593 -55.1155 
L 403.767572 -55.1155 
L 404.919551 -55.1155 
L 404.919551 -55.215137 
L 404.919551 -55.215137 
L 403.767572 -55.525175 
L 402.615593 -56.406753 
L 401.463613 -58.235385 
L 400.311634 -60.894074 
L 399.159655 -63.320107 
L 398.007676 -64.045469 
L 396.855697 -62.5662 
L 395.703718 -59.880899 
L 394.551738 -57.451949 
L 393.399759 -55.99365 
L 392.24778 -55.368509 
L 391.095801 -55.17138 
L 389.943822 -55.124961 
L 388.791842 -55.116728 
L 387.639863 -55.115622 
L 386.487884 -55.115509 
L 385.335905 -55.115501 
L 384.183926 -55.115515 
L 383.031946 -55.115685 
L 381.879967 -55.117275 
L 380.727988 -55.128568 
L 379.576009 -55.189251 
L 378.42403 -55.434562 
L 377.272051 -56.173628 
L 376.120071 -57.805526 
L 374.968092 -60.357896 
L 373.816113 -62.947238 
L 372.664134 -64.084447 
L 371.512155 -62.989218 
L 370.360175 -60.414273 
L 369.208196 -57.849371 
L 368.056217 -56.20009 
L 366.904238 -55.470983 
L 365.752259 -55.356404 
L 364.60028 -55.879223 
L 363.4483 -57.744623 
L 362.296321 -62.223568 
L 361.144342 -70.113784 
L 359.992363 -80.317101 
L 358.840384 -90.222751 
L 357.688404 -98.254095 
L 356.536425 -104.738267 
L 355.384446 -109.450027 
L 354.232467 -110.679215 
L 353.080488 -108.210045 
L 351.928508 -104.963328 
L 350.776529 -103.944549 
L 349.62455 -104.510298 
L 348.472571 -102.923025 
L 347.320592 -96.847255 
L 346.168613 -88.358536 
L 345.016633 -81.809439 
L 343.864654 -79.745052 
L 342.712675 -81.49116 
L 341.560696 -84.678393 
L 340.408717 -87.5312 
L 339.256737 -89.94253 
L 338.104758 -92.679026 
L 336.952779 -95.983341 
L 335.8008 -99.242579 
L 334.648821 -102.021215 
L 333.496842 -105.11006 
L 332.344862 -110.184155 
L 331.192883 -118.2542 
L 330.040904 -128.019045 
L 328.888925 -135.611652 
L 327.736946 -136.77295 
L 326.584966 -129.882563 
L 325.432987 -117.324917 
L 324.281008 -104.831905 
L 323.129029 -99.320234 
L 321.97705 -105.515014 
L 320.82507 -122.85853 
L 319.673091 -144.998731 
L 318.521112 -163.009863 
L 317.369133 -170.699116 
L 316.217154 -167.917049 
L 315.065175 -159.725501 
L 313.913195 -153.188096 
L 312.761216 -153.597702 
L 311.609237 -161.150814 
L 310.457258 -170.754356 
L 309.305279 -176.646359 
L 308.153299 -177.892272 
L 307.00132 -178.122421 
L 305.849341 -179.704481 
L 304.697362 -180.674844 
L 303.545383 -178.035295 
L 302.393404 -171.272928 
L 301.241424 -162.250754 
L 300.089445 -154.18967 
L 298.937466 -150.572706 
L 297.785487 -152.692529 
L 296.633508 -158.322723 
L 295.481528 -164.231987 
L 294.329549 -169.179156 
L 293.17757 -173.383298 
L 292.025591 -177.143384 
L 290.873612 -181.768868 
L 289.721632 -190.602739 
L 288.569653 -207.54136 
L 287.417674 -233.214721 
L 286.265695 -261.357114 
L 285.113716 -280.32645 
L 283.961737 -281.716587 
L 282.809757 -268.253352 
L 281.657778 -251.194977 
L 280.505799 -240.932847 
L 279.35382 -242.259367 
L 278.201841 -255.299577 
L 277.049861 -275.963794 
L 275.897882 -296.267053 
L 274.745903 -307.704213 
L 273.593924 -305.378632 
L 272.441945 -289.930589 
L 271.289966 -267.565542 
L 270.137986 -247.223927 
L 268.986007 -234.998897 
L 267.834028 -230.575923 
L 266.682049 -229.18142 
L 265.53007 -227.02345 
L 264.37809 -224.750032 
L 263.226111 -225.740365 
L 262.074132 -232.288266 
L 260.922153 -243.618314 
L 259.770174 -255.897384 
L 258.618194 -263.933211 
L 257.466215 -264.926867 
L 256.314236 -261.489432 
L 255.162257 -259.369701 
L 254.010278 -260.839315 
L 252.858299 -261.010074 
L 251.706319 -252.599681 
L 250.55434 -234.341921 
L 249.402361 -212.497446 
L 248.250382 -195.004489 
L 247.098403 -186.671691 
L 245.946423 -187.896641 
L 244.794444 -194.363805 
L 243.642465 -198.748787 
L 242.490486 -196.501675 
L 241.338507 -191.062627 
L 240.186527 -190.312157 
L 239.034548 -196.301171 
L 237.882569 -201.373433 
L 236.73059 -196.621703 
L 235.578611 -181.956471 
L 234.426632 -165.456578 
L 233.274652 -154.874819 
L 232.122673 -152.651263 
L 230.970694 -157.3524 
L 229.818715 -166.030215 
L 228.666736 -175.097524 
L 227.514756 -181.418489 
L 226.362777 -182.812071 
L 225.210798 -177.378709 
L 224.058819 -164.598986 
L 222.90684 -147.315585 
L 221.754861 -130.253372 
L 220.602881 -116.478514 
L 219.450902 -106.334096 
L 218.298923 -99.432454 
L 217.146944 -96.813174 
L 215.994965 -100.12503 
L 214.842985 -108.320215 
L 213.691006 -116.58442 
L 212.539027 -119.881691 
L 211.387048 -116.952335 
L 210.235069 -110.322641 
L 209.083089 -103.576767 
L 207.93111 -99.023654 
L 206.779131 -96.556494 
L 205.627152 -93.938568 
L 204.475173 -89.236559 
L 203.323194 -83.695296 
L 202.171214 -80.871584 
L 201.019235 -81.957707 
L 199.867256 -83.532572 
L 198.715277 -81.429416 
L 197.563298 -75.695834 
L 196.411318 -70.153659 
L 195.259339 -67.845556 
L 194.10736 -68.467367 
L 192.955381 -69.807524 
L 191.803402 -70.16549 
L 190.651423 -69.271627 
L 189.499443 -67.978346 
L 188.347464 -67.40883 
L 187.195485 -68.035115 
L 186.043506 -69.671166 
L 184.891527 -72.059714 
L 183.739547 -74.445303 
L 182.587568 -74.965529 
L 181.435589 -72.096682 
L 180.28361 -66.672145 
L 179.131631 -61.237936 
L 177.979651 -57.617352 
L 176.827672 -55.901164 
L 175.675693 -55.304827 
z
" style="stroke: #1f77b4; stroke-width: 0.8"/>
    </defs>
    <g clip-path="url(#pae15a1a1c1)">
     <use xlink:href="#m5662f3c502" x="0" y="349.7845" style="fill: #1f77b4; fill-opacity: 0.25; stroke: #1f77b4; stroke-width: 0.8"/>
    </g>
   </g>
   <g id="matplotlib.axis_1">
    <g id="xtick_1">
     <g id="line2d_1">
      <defs>
       <path id="m1e2af07310" d="M 0 0 
L 0 4.8 
" style="stroke: #000000"/>
      </defs>
      <g>
       <use xlink:href="#m1e2af07310" x="148.076357" y="294.669" style="stroke: #000000"/>
      </g>
     </g>
     <g id="text_1">
      <!-- 0.0015 -->
      <g transform="translate(117.284607 316.34225) scale(0.176 -0.176)">
       <defs>
        <path id="DejaVuSans-30" d="M 2034 4250 
Q 1547 4250 1301 3770 
Q 1056 3291 1056 2328 
Q 1056 1369 1301 889 
Q 1547 409 2034 409 
Q 2525 409 2770 889 
Q 3016 1369 3016 2328 
Q 3016 3291 2770 3770 
Q 2525 4250 2034 4250 
z
M 2034 4750 
Q 2819 4750 3233 4129 
Q 3647 3509 3647 2328 
Q 3647 1150 3233 529 
Q 2819 -91 2034 -91 
Q 1250 -91 836 529 
Q 422 1150 422 2328 
Q 422 3509 836 4129 
Q 1250 4750 2034 4750 
z
" transform="scale(0.015625)"/>
        <path id="DejaVuSans-2e" d="M 684 794 
L 1344 794 
L 1344 0 
L 684 0 
L 684 794 
z
" transform="scale(0.015625)"/>
        <path id="DejaVuSans-31" d="M 794 531 
L 1825 531 
L 1825 4091 
L 703 3866 
L 703 4441 
L 1819 4666 
L 2450 4666 
L 2450 531 
L 3481 531 
L 3481 0 
L 794 0 
L 794 531 
z
" transform="scale(0.015625)"/>
        <path id="DejaVuSans-35" d="M 691 4666 
L 3169 4666 
L 3169 4134 
L 1269 4134 
L 1269 2991 
Q 1406 3038 1543 3061 
Q 1681 3084 1819 3084 
Q 2600 3084 3056 2656 
Q 3513 2228 3513 1497 
Q 3513 744 3044 326 
Q 2575 -91 1722 -91 
Q 1428 -91 1123 -41 
Q 819 9 494 109 
L 494 744 
Q 775 591 1075 516 
Q 1375 441 1709 441 
Q 2250 441 2565 725 
Q 2881 1009 2881 1497 
Q 2881 1984 2565 2268 
Q 2250 2553 1709 2553 
Q 1456 2553 1204 2497 
Q 953 2441 691 2322 
L 691 4666 
z
" transform="scale(0.015625)"/>
       </defs>
       <use xlink:href="#DejaVuSans-30"/>
       <use xlink:href="#DejaVuSans-2e" x="63.623047"/>
       <use xlink:href="#DejaVuSans-30" x="95.410156"/>
       <use xlink:href="#DejaVuSans-30" x="159.033203"/>
       <use xlink:href="#DejaVuSans-31" x="222.65625"/>
       <use xlink:href="#DejaVuSans-35" x="286.279297"/>
      </g>
     </g>
    </g>
    <g id="xtick_2">
     <g id="line2d_2">
      <g>
       <use xlink:href="#m1e2af07310" x="247.338723" y="294.669" style="stroke: #000000"/>
      </g>
     </g>
     <g id="text_2">
      <!-- 0.0020 -->
      <g transform="translate(216.546973 316.34225) scale(0.176 -0.176)">
       <defs>
        <path id="DejaVuSans-32" d="M 1228 531 
L 3431 531 
L 3431 0 
L 469 0 
L 469 531 
Q 828 903 1448 1529 
Q 2069 2156 2228 2338 
Q 2531 2678 2651 2914 
Q 2772 3150 2772 3378 
Q 2772 3750 2511 3984 
Q 2250 4219 1831 4219 
Q 1534 4219 1204 4116 
Q 875 4013 500 3803 
L 500 4441 
Q 881 4594 1212 4672 
Q 1544 4750 1819 4750 
Q 2544 4750 2975 4387 
Q 3406 4025 3406 3419 
Q 3406 3131 3298 2873 
Q 3191 2616 2906 2266 
Q 2828 2175 2409 1742 
Q 1991 1309 1228 531 
z
" transform="scale(0.015625)"/>
       </defs>
       <use xlink:href="#DejaVuSans-30"/>
       <use xlink:href="#DejaVuSans-2e" x="63.623047"/>
       <use xlink:href="#DejaVuSans-30" x="95.410156"/>
       <use xlink:href="#DejaVuSans-30" x="159.033203"/>
       <use xlink:href="#DejaVuSans-32" x="222.65625"/>
       <use xlink:href="#DejaVuSans-30" x="286.279297"/>
      </g>
     </g>
    </g>
    <g id="xtick_3">
     <g id="line2d_3">
      <g>
       <use xlink:href="#m1e2af07310" x="346.60109" y="294.669" style="stroke: #000000"/>
      </g>
     </g>
     <g id="text_3">
      <!-- 0.0025 -->
      <g transform="translate(315.80934 316.34225) scale(0.176 -0.176)">
       <use xlink:href="#DejaVuSans-30"/>
       <use xlink:href="#DejaVuSans-2e" x="63.623047"/>
       <use xlink:href="#DejaVuSans-30" x="95.410156"/>
       <use xlink:href="#DejaVuSans-30" x="159.033203"/>
       <use xlink:href="#DejaVuSans-32" x="222.65625"/>
       <use xlink:href="#DejaVuSans-35" x="286.279297"/>
      </g>
     </g>
    </g>
    <g id="text_4">
     <!-- EMD -->
     <g transform="translate(228.495 338.5915) scale(0.192 -0.192)">
      <defs>
       <path id="DejaVuSans-45" d="M 628 4666 
L 3578 4666 
L 3578 4134 
L 1259 4134 
L 1259 2753 
L 3481 2753 
L 3481 2222 
L 1259 2222 
L 1259 531 
L 3634 531 
L 3634 0 
L 628 0 
L 628 4666 
z
" transform="scale(0.015625)"/>
       <path id="DejaVuSans-4d" d="M 628 4666 
L 1569 4666 
L 2759 1491 
L 3956 4666 
L 4897 4666 
L 4897 0 
L 4281 0 
L 4281 4097 
L 3078 897 
L 2444 897 
L 1241 4097 
L 1241 0 
L 628 0 
L 628 4666 
z
" transform="scale(0.015625)"/>
       <path id="DejaVuSans-44" d="M 1259 4147 
L 1259 519 
L 2022 519 
Q 2988 519 3436 956 
Q 3884 1394 3884 2338 
Q 3884 3275 3436 3711 
Q 2988 4147 2022 4147 
L 1259 4147 
z
M 628 4666 
L 1925 4666 
Q 3281 4666 3915 4102 
Q 4550 3538 4550 2338 
Q 4550 1131 3912 565 
Q 3275 0 1925 0 
L 628 0 
L 628 4666 
z
" transform="scale(0.015625)"/>
      </defs>
      <use xlink:href="#DejaVuSans-45"/>
      <use xlink:href="#DejaVuSans-4d" x="63.183594"/>
      <use xlink:href="#DejaVuSans-44" x="149.462891"/>
     </g>
    </g>
   </g>
   <g id="matplotlib.axis_2">
    <g id="ytick_1">
     <g id="line2d_4">
      <defs>
       <path id="mf409f37aa1" d="M 0 0 
L -4.8 0 
" style="stroke: #000000"/>
      </defs>
      <g>
       <use xlink:href="#mf409f37aa1" x="71.676" y="294.669" style="stroke: #000000"/>
      </g>
     </g>
     <g id="text_5">
      <!-- 0 -->
      <g transform="translate(52.178 301.355625) scale(0.176 -0.176)">
       <use xlink:href="#DejaVuSans-30"/>
      </g>
     </g>
    </g>
    <g id="ytick_2">
     <g id="line2d_5">
      <g>
       <use xlink:href="#mf409f37aa1" x="71.676" y="239.40727" style="stroke: #000000"/>
      </g>
     </g>
     <g id="text_6">
      <!-- 200 -->
      <g transform="translate(29.782 246.093895) scale(0.176 -0.176)">
       <use xlink:href="#DejaVuSans-32"/>
       <use xlink:href="#DejaVuSans-30" x="63.623047"/>
       <use xlink:href="#DejaVuSans-30" x="127.246094"/>
      </g>
     </g>
    </g>
    <g id="ytick_3">
     <g id="line2d_6">
      <g>
       <use xlink:href="#mf409f37aa1" x="71.676" y="184.145541" style="stroke: #000000"/>
      </g>
     </g>
     <g id="text_7">
      <!-- 400 -->
      <g transform="translate(29.782 190.832166) scale(0.176 -0.176)">
       <defs>
        <path id="DejaVuSans-34" d="M 2419 4116 
L 825 1625 
L 2419 1625 
L 2419 4116 
z
M 2253 4666 
L 3047 4666 
L 3047 1625 
L 3713 1625 
L 3713 1100 
L 3047 1100 
L 3047 0 
L 2419 0 
L 2419 1100 
L 313 1100 
L 313 1709 
L 2253 4666 
z
" transform="scale(0.015625)"/>
       </defs>
       <use xlink:href="#DejaVuSans-34"/>
       <use xlink:href="#DejaVuSans-30" x="63.623047"/>
       <use xlink:href="#DejaVuSans-30" x="127.246094"/>
      </g>
     </g>
    </g>
    <g id="ytick_4">
     <g id="line2d_7">
      <g>
       <use xlink:href="#mf409f37aa1" x="71.676" y="128.883811" style="stroke: #000000"/>
      </g>
     </g>
     <g id="text_8">
      <!-- 600 -->
      <g transform="translate(29.782 135.570436) scale(0.176 -0.176)">
       <defs>
        <path id="DejaVuSans-36" d="M 2113 2584 
Q 1688 2584 1439 2293 
Q 1191 2003 1191 1497 
Q 1191 994 1439 701 
Q 1688 409 2113 409 
Q 2538 409 2786 701 
Q 3034 994 3034 1497 
Q 3034 2003 2786 2293 
Q 2538 2584 2113 2584 
z
M 3366 4563 
L 3366 3988 
Q 3128 4100 2886 4159 
Q 2644 4219 2406 4219 
Q 1781 4219 1451 3797 
Q 1122 3375 1075 2522 
Q 1259 2794 1537 2939 
Q 1816 3084 2150 3084 
Q 2853 3084 3261 2657 
Q 3669 2231 3669 1497 
Q 3669 778 3244 343 
Q 2819 -91 2113 -91 
Q 1303 -91 875 529 
Q 447 1150 447 2328 
Q 447 3434 972 4092 
Q 1497 4750 2381 4750 
Q 2619 4750 2861 4703 
Q 3103 4656 3366 4563 
z
" transform="scale(0.015625)"/>
       </defs>
       <use xlink:href="#DejaVuSans-36"/>
       <use xlink:href="#DejaVuSans-30" x="63.623047"/>
       <use xlink:href="#DejaVuSans-30" x="127.246094"/>
      </g>
     </g>
    </g>
    <g id="ytick_5">
     <g id="line2d_8">
      <g>
       <use xlink:href="#mf409f37aa1" x="71.676" y="73.622081" style="stroke: #000000"/>
      </g>
     </g>
     <g id="text_9">
      <!-- 800 -->
      <g transform="translate(29.782 80.308706) scale(0.176 -0.176)">
       <defs>
        <path id="DejaVuSans-38" d="M 2034 2216 
Q 1584 2216 1326 1975 
Q 1069 1734 1069 1313 
Q 1069 891 1326 650 
Q 1584 409 2034 409 
Q 2484 409 2743 651 
Q 3003 894 3003 1313 
Q 3003 1734 2745 1975 
Q 2488 2216 2034 2216 
z
M 1403 2484 
Q 997 2584 770 2862 
Q 544 3141 544 3541 
Q 544 4100 942 4425 
Q 1341 4750 2034 4750 
Q 2731 4750 3128 4425 
Q 3525 4100 3525 3541 
Q 3525 3141 3298 2862 
Q 3072 2584 2669 2484 
Q 3125 2378 3379 2068 
Q 3634 1759 3634 1313 
Q 3634 634 3220 271 
Q 2806 -91 2034 -91 
Q 1263 -91 848 271 
Q 434 634 434 1313 
Q 434 1759 690 2068 
Q 947 2378 1403 2484 
z
M 1172 3481 
Q 1172 3119 1398 2916 
Q 1625 2713 2034 2713 
Q 2441 2713 2670 2916 
Q 2900 3119 2900 3481 
Q 2900 3844 2670 4047 
Q 2441 4250 2034 4250 
Q 1625 4250 1398 4047 
Q 1172 3844 1172 3481 
z
" transform="scale(0.015625)"/>
       </defs>
       <use xlink:href="#DejaVuSans-38"/>
       <use xlink:href="#DejaVuSans-30" x="63.623047"/>
       <use xlink:href="#DejaVuSans-30" x="127.246094"/>
      </g>
     </g>
    </g>
    <g id="text_10">
     <!-- Frequency -->
     <g transform="translate(21.789 211.206) rotate(-90) scale(0.192 -0.192)">
      <defs>
       <path id="DejaVuSans-46" d="M 628 4666 
L 3309 4666 
L 3309 4134 
L 1259 4134 
L 1259 2759 
L 3109 2759 
L 3109 2228 
L 1259 2228 
L 1259 0 
L 628 0 
L 628 4666 
z
" transform="scale(0.015625)"/>
       <path id="DejaVuSans-72" d="M 2631 2963 
Q 2534 3019 2420 3045 
Q 2306 3072 2169 3072 
Q 1681 3072 1420 2755 
Q 1159 2438 1159 1844 
L 1159 0 
L 581 0 
L 581 3500 
L 1159 3500 
L 1159 2956 
Q 1341 3275 1631 3429 
Q 1922 3584 2338 3584 
Q 2397 3584 2469 3576 
Q 2541 3569 2628 3553 
L 2631 2963 
z
" transform="scale(0.015625)"/>
       <path id="DejaVuSans-65" d="M 3597 1894 
L 3597 1613 
L 953 1613 
Q 991 1019 1311 708 
Q 1631 397 2203 397 
Q 2534 397 2845 478 
Q 3156 559 3463 722 
L 3463 178 
Q 3153 47 2828 -22 
Q 2503 -91 2169 -91 
Q 1331 -91 842 396 
Q 353 884 353 1716 
Q 353 2575 817 3079 
Q 1281 3584 2069 3584 
Q 2775 3584 3186 3129 
Q 3597 2675 3597 1894 
z
M 3022 2063 
Q 3016 2534 2758 2815 
Q 2500 3097 2075 3097 
Q 1594 3097 1305 2825 
Q 1016 2553 972 2059 
L 3022 2063 
z
" transform="scale(0.015625)"/>
       <path id="DejaVuSans-71" d="M 947 1747 
Q 947 1113 1208 752 
Q 1469 391 1925 391 
Q 2381 391 2643 752 
Q 2906 1113 2906 1747 
Q 2906 2381 2643 2742 
Q 2381 3103 1925 3103 
Q 1469 3103 1208 2742 
Q 947 2381 947 1747 
z
M 2906 525 
Q 2725 213 2448 61 
Q 2172 -91 1784 -91 
Q 1150 -91 751 415 
Q 353 922 353 1747 
Q 353 2572 751 3078 
Q 1150 3584 1784 3584 
Q 2172 3584 2448 3432 
Q 2725 3281 2906 2969 
L 2906 3500 
L 3481 3500 
L 3481 -1331 
L 2906 -1331 
L 2906 525 
z
" transform="scale(0.015625)"/>
       <path id="DejaVuSans-75" d="M 544 1381 
L 544 3500 
L 1119 3500 
L 1119 1403 
Q 1119 906 1312 657 
Q 1506 409 1894 409 
Q 2359 409 2629 706 
Q 2900 1003 2900 1516 
L 2900 3500 
L 3475 3500 
L 3475 0 
L 2900 0 
L 2900 538 
Q 2691 219 2414 64 
Q 2138 -91 1772 -91 
Q 1169 -91 856 284 
Q 544 659 544 1381 
z
M 1991 3584 
L 1991 3584 
z
" transform="scale(0.015625)"/>
       <path id="DejaVuSans-6e" d="M 3513 2113 
L 3513 0 
L 2938 0 
L 2938 2094 
Q 2938 2591 2744 2837 
Q 2550 3084 2163 3084 
Q 1697 3084 1428 2787 
Q 1159 2491 1159 1978 
L 1159 0 
L 581 0 
L 581 3500 
L 1159 3500 
L 1159 2956 
Q 1366 3272 1645 3428 
Q 1925 3584 2291 3584 
Q 2894 3584 3203 3211 
Q 3513 2838 3513 2113 
z
" transform="scale(0.015625)"/>
       <path id="DejaVuSans-63" d="M 3122 3366 
L 3122 2828 
Q 2878 2963 2633 3030 
Q 2388 3097 2138 3097 
Q 1578 3097 1268 2742 
Q 959 2388 959 1747 
Q 959 1106 1268 751 
Q 1578 397 2138 397 
Q 2388 397 2633 464 
Q 2878 531 3122 666 
L 3122 134 
Q 2881 22 2623 -34 
Q 2366 -91 2075 -91 
Q 1284 -91 818 406 
Q 353 903 353 1747 
Q 353 2603 823 3093 
Q 1294 3584 2113 3584 
Q 2378 3584 2631 3529 
Q 2884 3475 3122 3366 
z
" transform="scale(0.015625)"/>
       <path id="DejaVuSans-79" d="M 2059 -325 
Q 1816 -950 1584 -1140 
Q 1353 -1331 966 -1331 
L 506 -1331 
L 506 -850 
L 844 -850 
Q 1081 -850 1212 -737 
Q 1344 -625 1503 -206 
L 1606 56 
L 191 3500 
L 800 3500 
L 1894 763 
L 2988 3500 
L 3597 3500 
L 2059 -325 
z
" transform="scale(0.015625)"/>
      </defs>
      <use xlink:href="#DejaVuSans-46"/>
      <use xlink:href="#DejaVuSans-72" x="50.269531"/>
      <use xlink:href="#DejaVuSans-65" x="89.132812"/>
      <use xlink:href="#DejaVuSans-71" x="150.65625"/>
      <use xlink:href="#DejaVuSans-75" x="214.132812"/>
      <use xlink:href="#DejaVuSans-65" x="277.511719"/>
      <use xlink:href="#DejaVuSans-6e" x="339.035156"/>
      <use xlink:href="#DejaVuSans-63" x="402.414062"/>
      <use xlink:href="#DejaVuSans-79" x="457.394531"/>
     </g>
    </g>
   </g>
   <g id="patch_3">
    <path d="M 71.676 294.669 
L 71.676 28.557 
" style="fill: none; stroke: #000000; stroke-linejoin: miter; stroke-linecap: square"/>
   </g>
   <g id="patch_4">
    <path d="M 428.796 294.669 
L 428.796 28.557 
" style="fill: none; stroke: #000000; stroke-linejoin: miter; stroke-linecap: square"/>
   </g>
   <g id="patch_5">
    <path d="M 71.676 294.669 
L 428.796 294.669 
" style="fill: none; stroke: #000000; stroke-linejoin: miter; stroke-linecap: square"/>
   </g>
   <g id="patch_6">
    <path d="M 71.676 28.557 
L 428.796 28.557 
" style="fill: none; stroke: #000000; stroke-linejoin: miter; stroke-linecap: square"/>
   </g>
   <g id="text_11">
    <!-- Bogotá -->
    <g transform="translate(216.1605 22.557) scale(0.192 -0.192)">
     <defs>
      <path id="DejaVuSans-42" d="M 1259 2228 
L 1259 519 
L 2272 519 
Q 2781 519 3026 730 
Q 3272 941 3272 1375 
Q 3272 1813 3026 2020 
Q 2781 2228 2272 2228 
L 1259 2228 
z
M 1259 4147 
L 1259 2741 
L 2194 2741 
Q 2656 2741 2882 2914 
Q 3109 3088 3109 3444 
Q 3109 3797 2882 3972 
Q 2656 4147 2194 4147 
L 1259 4147 
z
M 628 4666 
L 2241 4666 
Q 2963 4666 3353 4366 
Q 3744 4066 3744 3513 
Q 3744 3084 3544 2831 
Q 3344 2578 2956 2516 
Q 3422 2416 3680 2098 
Q 3938 1781 3938 1306 
Q 3938 681 3513 340 
Q 3088 0 2303 0 
L 628 0 
L 628 4666 
z
" transform="scale(0.015625)"/>
      <path id="DejaVuSans-6f" d="M 1959 3097 
Q 1497 3097 1228 2736 
Q 959 2375 959 1747 
Q 959 1119 1226 758 
Q 1494 397 1959 397 
Q 2419 397 2687 759 
Q 2956 1122 2956 1747 
Q 2956 2369 2687 2733 
Q 2419 3097 1959 3097 
z
M 1959 3584 
Q 2709 3584 3137 3096 
Q 3566 2609 3566 1747 
Q 3566 888 3137 398 
Q 2709 -91 1959 -91 
Q 1206 -91 779 398 
Q 353 888 353 1747 
Q 353 2609 779 3096 
Q 1206 3584 1959 3584 
z
" transform="scale(0.015625)"/>
      <path id="DejaVuSans-67" d="M 2906 1791 
Q 2906 2416 2648 2759 
Q 2391 3103 1925 3103 
Q 1463 3103 1205 2759 
Q 947 2416 947 1791 
Q 947 1169 1205 825 
Q 1463 481 1925 481 
Q 2391 481 2648 825 
Q 2906 1169 2906 1791 
z
M 3481 434 
Q 3481 -459 3084 -895 
Q 2688 -1331 1869 -1331 
Q 1566 -1331 1297 -1286 
Q 1028 -1241 775 -1147 
L 775 -588 
Q 1028 -725 1275 -790 
Q 1522 -856 1778 -856 
Q 2344 -856 2625 -561 
Q 2906 -266 2906 331 
L 2906 616 
Q 2728 306 2450 153 
Q 2172 0 1784 0 
Q 1141 0 747 490 
Q 353 981 353 1791 
Q 353 2603 747 3093 
Q 1141 3584 1784 3584 
Q 2172 3584 2450 3431 
Q 2728 3278 2906 2969 
L 2906 3500 
L 3481 3500 
L 3481 434 
z
" transform="scale(0.015625)"/>
      <path id="DejaVuSans-74" d="M 1172 4494 
L 1172 3500 
L 2356 3500 
L 2356 3053 
L 1172 3053 
L 1172 1153 
Q 1172 725 1289 603 
Q 1406 481 1766 481 
L 2356 481 
L 2356 0 
L 1766 0 
Q 1100 0 847 248 
Q 594 497 594 1153 
L 594 3053 
L 172 3053 
L 172 3500 
L 594 3500 
L 594 4494 
L 1172 4494 
z
" transform="scale(0.015625)"/>
      <path id="DejaVuSans-e1" d="M 2194 1759 
Q 1497 1759 1228 1600 
Q 959 1441 959 1056 
Q 959 750 1161 570 
Q 1363 391 1709 391 
Q 2188 391 2477 730 
Q 2766 1069 2766 1631 
L 2766 1759 
L 2194 1759 
z
M 3341 1997 
L 3341 0 
L 2766 0 
L 2766 531 
Q 2569 213 2275 61 
Q 1981 -91 1556 -91 
Q 1019 -91 701 211 
Q 384 513 384 1019 
Q 384 1609 779 1909 
Q 1175 2209 1959 2209 
L 2766 2209 
L 2766 2266 
Q 2766 2663 2505 2880 
Q 2244 3097 1772 3097 
Q 1472 3097 1187 3025 
Q 903 2953 641 2809 
L 641 3341 
Q 956 3463 1253 3523 
Q 1550 3584 1831 3584 
Q 2591 3584 2966 3190 
Q 3341 2797 3341 1997 
z
M 2290 5119 
L 2912 5119 
L 1894 3944 
L 1415 3944 
L 2290 5119 
z
" transform="scale(0.015625)"/>
     </defs>
     <use xlink:href="#DejaVuSans-42"/>
     <use xlink:href="#DejaVuSans-6f" x="68.603516"/>
     <use xlink:href="#DejaVuSans-67" x="129.785156"/>
     <use xlink:href="#DejaVuSans-6f" x="193.261719"/>
     <use xlink:href="#DejaVuSans-74" x="254.443359"/>
     <use xlink:href="#DejaVuSans-e1" x="293.652344"/>
    </g>
   </g>
  </g>
 </g>
 <defs>
  <clipPath id="pae15a1a1c1">
   <rect x="71.676" y="28.557" width="357.12" height="266.112"/>
  </clipPath>
 </defs>
</svg>
