<?xml version="1.0" encoding="utf-8" standalone="no"?>
<!DOCTYPE svg PUBLIC "-//W3C//DTD SVG 1.1//EN"
  "http://www.w3.org/Graphics/SVG/1.1/DTD/svg11.dtd">
<svg xmlns:xlink="http://www.w3.org/1999/xlink" width="371.91255pt" height="160.84143pt" viewBox="0 0 371.91255 160.84143" xmlns="http://www.w3.org/2000/svg" version="1.1">
 <metadata>
  <rdf:RDF xmlns:dc="http://purl.org/dc/elements/1.1/" xmlns:cc="http://creativecommons.org/ns#" xmlns:rdf="http://www.w3.org/1999/02/22-rdf-syntax-ns#">
   <cc:Work>
    <dc:type rdf:resource="http://purl.org/dc/dcmitype/StillImage"/>
    <dc:date>2024-07-19T13:36:09.982594</dc:date>
    <dc:format>image/svg+xml</dc:format>
    <dc:creator>
     <cc:Agent>
      <dc:title>Matplotlib v3.8.2, https://matplotlib.org/</dc:title>
     </cc:Agent>
    </dc:creator>
   </cc:Work>
  </rdf:RDF>
 </metadata>
 <defs>
  <style type="text/css">*{stroke-linejoin: round; stroke-linecap: butt}</style>
 </defs>
 <g id="figure_1">
  <g id="patch_1">
   <path d="M 0 160.84143 
L 371.91255 160.84143 
L 371.91255 0 
L 0 0 
z
" style="fill: #ffffff"/>
  </g>
  <g id="axes_1">
   <g id="patch_2">
    <path d="M 38.03375 126.51768 
L 152.92096 126.51768 
L 152.92096 34.826445 
L 38.03375 34.826445 
z
" style="fill: #eaeaf2"/>
   </g>
   <g id="matplotlib.axis_1">
    <g id="xtick_1">
     <g id="line2d_1">
      <path d="M 39.591232 126.51768 
L 39.591232 34.826445 
" clip-path="url(#p214746922b)" style="fill: none; stroke: #ffffff; stroke-width: 0.8; stroke-linecap: round"/>
     </g>
     <g id="text_1">
      <!-- 0% -->
      <g style="fill: #262626" transform="translate(33.809982 140.54393) scale(0.08 -0.08)">
       <defs>
        <path id="ArialMT-30" d="M 266 2259 
Q 266 3072 433 3567 
Q 600 4063 929 4331 
Q 1259 4600 1759 4600 
Q 2128 4600 2406 4451 
Q 2684 4303 2865 4023 
Q 3047 3744 3150 3342 
Q 3253 2941 3253 2259 
Q 3253 1453 3087 958 
Q 2922 463 2592 192 
Q 2263 -78 1759 -78 
Q 1097 -78 719 397 
Q 266 969 266 2259 
z
M 844 2259 
Q 844 1131 1108 757 
Q 1372 384 1759 384 
Q 2147 384 2411 759 
Q 2675 1134 2675 2259 
Q 2675 3391 2411 3762 
Q 2147 4134 1753 4134 
Q 1366 4134 1134 3806 
Q 844 3388 844 2259 
z
" transform="scale(0.015625)"/>
        <path id="ArialMT-25" d="M 372 3481 
Q 372 3972 619 4315 
Q 866 4659 1334 4659 
Q 1766 4659 2048 4351 
Q 2331 4044 2331 3447 
Q 2331 2866 2045 2552 
Q 1759 2238 1341 2238 
Q 925 2238 648 2547 
Q 372 2856 372 3481 
z
M 1350 4272 
Q 1141 4272 1002 4090 
Q 863 3909 863 3425 
Q 863 2984 1003 2804 
Q 1144 2625 1350 2625 
Q 1563 2625 1702 2806 
Q 1841 2988 1841 3469 
Q 1841 3913 1700 4092 
Q 1559 4272 1350 4272 
z
M 1353 -169 
L 3859 4659 
L 4316 4659 
L 1819 -169 
L 1353 -169 
z
M 3334 1075 
Q 3334 1569 3581 1911 
Q 3828 2253 4300 2253 
Q 4731 2253 5014 1945 
Q 5297 1638 5297 1041 
Q 5297 459 5011 145 
Q 4725 -169 4303 -169 
Q 3888 -169 3611 142 
Q 3334 453 3334 1075 
z
M 4316 1866 
Q 4103 1866 3964 1684 
Q 3825 1503 3825 1019 
Q 3825 581 3965 400 
Q 4106 219 4313 219 
Q 4528 219 4667 400 
Q 4806 581 4806 1063 
Q 4806 1506 4665 1686 
Q 4525 1866 4316 1866 
z
" transform="scale(0.015625)"/>
       </defs>
       <use xlink:href="#ArialMT-30"/>
       <use xlink:href="#ArialMT-25" x="55.615234"/>
      </g>
     </g>
    </g>
    <g id="xtick_2">
     <g id="line2d_2">
      <path d="M 76.23787 126.51768 
L 76.23787 34.826445 
" clip-path="url(#p214746922b)" style="fill: none; stroke: #ffffff; stroke-width: 0.8; stroke-linecap: round"/>
     </g>
     <g id="text_2">
      <!-- 10% -->
      <g style="fill: #262626" transform="translate(68.232245 140.54393) scale(0.08 -0.08)">
       <defs>
        <path id="ArialMT-31" d="M 2384 0 
L 1822 0 
L 1822 3584 
Q 1619 3391 1289 3197 
Q 959 3003 697 2906 
L 697 3450 
Q 1169 3672 1522 3987 
Q 1875 4303 2022 4600 
L 2384 4600 
L 2384 0 
z
" transform="scale(0.015625)"/>
       </defs>
       <use xlink:href="#ArialMT-31"/>
       <use xlink:href="#ArialMT-30" x="55.615234"/>
       <use xlink:href="#ArialMT-25" x="111.230469"/>
      </g>
     </g>
    </g>
    <g id="xtick_3">
     <g id="line2d_3">
      <path d="M 112.884508 126.51768 
L 112.884508 34.826445 
" clip-path="url(#p214746922b)" style="fill: none; stroke: #ffffff; stroke-width: 0.8; stroke-linecap: round"/>
     </g>
     <g id="text_3">
      <!-- 20% -->
      <g style="fill: #262626" transform="translate(104.878883 140.54393) scale(0.08 -0.08)">
       <defs>
        <path id="ArialMT-32" d="M 3222 541 
L 3222 0 
L 194 0 
Q 188 203 259 391 
Q 375 700 629 1000 
Q 884 1300 1366 1694 
Q 2113 2306 2375 2664 
Q 2638 3022 2638 3341 
Q 2638 3675 2398 3904 
Q 2159 4134 1775 4134 
Q 1369 4134 1125 3890 
Q 881 3647 878 3216 
L 300 3275 
Q 359 3922 746 4261 
Q 1134 4600 1788 4600 
Q 2447 4600 2831 4234 
Q 3216 3869 3216 3328 
Q 3216 3053 3103 2787 
Q 2991 2522 2730 2228 
Q 2469 1934 1863 1422 
Q 1356 997 1212 845 
Q 1069 694 975 541 
L 3222 541 
z
" transform="scale(0.015625)"/>
       </defs>
       <use xlink:href="#ArialMT-32"/>
       <use xlink:href="#ArialMT-30" x="55.615234"/>
       <use xlink:href="#ArialMT-25" x="111.230469"/>
      </g>
     </g>
    </g>
    <g id="xtick_4">
     <g id="line2d_4">
      <path d="M 149.531146 126.51768 
L 149.531146 34.826445 
" clip-path="url(#p214746922b)" style="fill: none; stroke: #ffffff; stroke-width: 0.8; stroke-linecap: round"/>
     </g>
     <g id="text_4">
      <!-- 30% -->
      <g style="fill: #262626" transform="translate(141.525521 140.54393) scale(0.08 -0.08)">
       <defs>
        <path id="ArialMT-33" d="M 269 1209 
L 831 1284 
Q 928 806 1161 595 
Q 1394 384 1728 384 
Q 2125 384 2398 659 
Q 2672 934 2672 1341 
Q 2672 1728 2419 1979 
Q 2166 2231 1775 2231 
Q 1616 2231 1378 2169 
L 1441 2663 
Q 1497 2656 1531 2656 
Q 1891 2656 2178 2843 
Q 2466 3031 2466 3422 
Q 2466 3731 2256 3934 
Q 2047 4138 1716 4138 
Q 1388 4138 1169 3931 
Q 950 3725 888 3313 
L 325 3413 
Q 428 3978 793 4289 
Q 1159 4600 1703 4600 
Q 2078 4600 2393 4439 
Q 2709 4278 2876 4000 
Q 3044 3722 3044 3409 
Q 3044 3113 2884 2869 
Q 2725 2625 2413 2481 
Q 2819 2388 3044 2092 
Q 3269 1797 3269 1353 
Q 3269 753 2831 336 
Q 2394 -81 1725 -81 
Q 1122 -81 723 278 
Q 325 638 269 1209 
z
" transform="scale(0.015625)"/>
       </defs>
       <use xlink:href="#ArialMT-33"/>
       <use xlink:href="#ArialMT-30" x="55.615234"/>
       <use xlink:href="#ArialMT-25" x="111.230469"/>
      </g>
     </g>
    </g>
    <g id="text_5">
     <!-- Coverage area -->
     <g style="fill: #262626" transform="translate(69.018605 151.95768) scale(0.08 -0.08)">
      <defs>
       <path id="ArialMT-43" d="M 3763 1606 
L 4369 1453 
Q 4178 706 3683 314 
Q 3188 -78 2472 -78 
Q 1731 -78 1267 223 
Q 803 525 561 1097 
Q 319 1669 319 2325 
Q 319 3041 592 3573 
Q 866 4106 1370 4382 
Q 1875 4659 2481 4659 
Q 3169 4659 3637 4309 
Q 4106 3959 4291 3325 
L 3694 3184 
Q 3534 3684 3231 3912 
Q 2928 4141 2469 4141 
Q 1941 4141 1586 3887 
Q 1231 3634 1087 3207 
Q 944 2781 944 2328 
Q 944 1744 1114 1308 
Q 1284 872 1643 656 
Q 2003 441 2422 441 
Q 2931 441 3284 734 
Q 3638 1028 3763 1606 
z
" transform="scale(0.015625)"/>
       <path id="ArialMT-6f" d="M 213 1659 
Q 213 2581 725 3025 
Q 1153 3394 1769 3394 
Q 2453 3394 2887 2945 
Q 3322 2497 3322 1706 
Q 3322 1066 3130 698 
Q 2938 331 2570 128 
Q 2203 -75 1769 -75 
Q 1072 -75 642 372 
Q 213 819 213 1659 
z
M 791 1659 
Q 791 1022 1069 705 
Q 1347 388 1769 388 
Q 2188 388 2466 706 
Q 2744 1025 2744 1678 
Q 2744 2294 2464 2611 
Q 2184 2928 1769 2928 
Q 1347 2928 1069 2612 
Q 791 2297 791 1659 
z
" transform="scale(0.015625)"/>
       <path id="ArialMT-76" d="M 1344 0 
L 81 3319 
L 675 3319 
L 1388 1331 
Q 1503 1009 1600 663 
Q 1675 925 1809 1294 
L 2547 3319 
L 3125 3319 
L 1869 0 
L 1344 0 
z
" transform="scale(0.015625)"/>
       <path id="ArialMT-65" d="M 2694 1069 
L 3275 997 
Q 3138 488 2766 206 
Q 2394 -75 1816 -75 
Q 1088 -75 661 373 
Q 234 822 234 1631 
Q 234 2469 665 2931 
Q 1097 3394 1784 3394 
Q 2450 3394 2872 2941 
Q 3294 2488 3294 1666 
Q 3294 1616 3291 1516 
L 816 1516 
Q 847 969 1125 678 
Q 1403 388 1819 388 
Q 2128 388 2347 550 
Q 2566 713 2694 1069 
z
M 847 1978 
L 2700 1978 
Q 2663 2397 2488 2606 
Q 2219 2931 1791 2931 
Q 1403 2931 1139 2672 
Q 875 2413 847 1978 
z
" transform="scale(0.015625)"/>
       <path id="ArialMT-72" d="M 416 0 
L 416 3319 
L 922 3319 
L 922 2816 
Q 1116 3169 1280 3281 
Q 1444 3394 1641 3394 
Q 1925 3394 2219 3213 
L 2025 2691 
Q 1819 2813 1613 2813 
Q 1428 2813 1281 2702 
Q 1134 2591 1072 2394 
Q 978 2094 978 1738 
L 978 0 
L 416 0 
z
" transform="scale(0.015625)"/>
       <path id="ArialMT-61" d="M 2588 409 
Q 2275 144 1986 34 
Q 1697 -75 1366 -75 
Q 819 -75 525 192 
Q 231 459 231 875 
Q 231 1119 342 1320 
Q 453 1522 633 1644 
Q 813 1766 1038 1828 
Q 1203 1872 1538 1913 
Q 2219 1994 2541 2106 
Q 2544 2222 2544 2253 
Q 2544 2597 2384 2738 
Q 2169 2928 1744 2928 
Q 1347 2928 1158 2789 
Q 969 2650 878 2297 
L 328 2372 
Q 403 2725 575 2942 
Q 747 3159 1072 3276 
Q 1397 3394 1825 3394 
Q 2250 3394 2515 3294 
Q 2781 3194 2906 3042 
Q 3031 2891 3081 2659 
Q 3109 2516 3109 2141 
L 3109 1391 
Q 3109 606 3145 398 
Q 3181 191 3288 0 
L 2700 0 
Q 2613 175 2588 409 
z
M 2541 1666 
Q 2234 1541 1622 1453 
Q 1275 1403 1131 1340 
Q 988 1278 909 1158 
Q 831 1038 831 891 
Q 831 666 1001 516 
Q 1172 366 1500 366 
Q 1825 366 2078 508 
Q 2331 650 2450 897 
Q 2541 1088 2541 1459 
L 2541 1666 
z
" transform="scale(0.015625)"/>
       <path id="ArialMT-67" d="M 319 -275 
L 866 -356 
Q 900 -609 1056 -725 
Q 1266 -881 1628 -881 
Q 2019 -881 2231 -725 
Q 2444 -569 2519 -288 
Q 2563 -116 2559 434 
Q 2191 0 1641 0 
Q 956 0 581 494 
Q 206 988 206 1678 
Q 206 2153 378 2554 
Q 550 2956 876 3175 
Q 1203 3394 1644 3394 
Q 2231 3394 2613 2919 
L 2613 3319 
L 3131 3319 
L 3131 450 
Q 3131 -325 2973 -648 
Q 2816 -972 2473 -1159 
Q 2131 -1347 1631 -1347 
Q 1038 -1347 672 -1080 
Q 306 -813 319 -275 
z
M 784 1719 
Q 784 1066 1043 766 
Q 1303 466 1694 466 
Q 2081 466 2343 764 
Q 2606 1063 2606 1700 
Q 2606 2309 2336 2618 
Q 2066 2928 1684 2928 
Q 1309 2928 1046 2623 
Q 784 2319 784 1719 
z
" transform="scale(0.015625)"/>
       <path id="ArialMT-20" transform="scale(0.015625)"/>
      </defs>
      <use xlink:href="#ArialMT-43"/>
      <use xlink:href="#ArialMT-6f" x="72.216797"/>
      <use xlink:href="#ArialMT-76" x="127.832031"/>
      <use xlink:href="#ArialMT-65" x="177.832031"/>
      <use xlink:href="#ArialMT-72" x="233.447266"/>
      <use xlink:href="#ArialMT-61" x="266.748047"/>
      <use xlink:href="#ArialMT-67" x="322.363281"/>
      <use xlink:href="#ArialMT-65" x="377.978516"/>
      <use xlink:href="#ArialMT-20" x="433.59375"/>
      <use xlink:href="#ArialMT-61" x="461.376953"/>
      <use xlink:href="#ArialMT-72" x="516.992188"/>
      <use xlink:href="#ArialMT-65" x="550.292969"/>
      <use xlink:href="#ArialMT-61" x="605.908203"/>
     </g>
    </g>
   </g>
   <g id="matplotlib.axis_2">
    <g id="ytick_1">
     <g id="line2d_5">
      <path d="M 38.03375 126.51768 
L 152.92096 126.51768 
" clip-path="url(#p214746922b)" style="fill: none; stroke: #ffffff; stroke-width: 0.8; stroke-linecap: round"/>
     </g>
     <g id="text_6">
      <!-- 0.0 -->
      <g style="fill: #262626" transform="translate(18.61375 129.380805) scale(0.08 -0.08)">
       <defs>
        <path id="ArialMT-2e" d="M 581 0 
L 581 641 
L 1222 641 
L 1222 0 
L 581 0 
z
" transform="scale(0.015625)"/>
       </defs>
       <use xlink:href="#ArialMT-30"/>
       <use xlink:href="#ArialMT-2e" x="55.615234"/>
       <use xlink:href="#ArialMT-30" x="83.398438"/>
      </g>
     </g>
    </g>
    <g id="ytick_2">
     <g id="line2d_6">
      <path d="M 38.03375 103.594871 
L 152.92096 103.594871 
" clip-path="url(#p214746922b)" style="fill: none; stroke: #ffffff; stroke-width: 0.8; stroke-linecap: round"/>
     </g>
     <g id="text_7">
      <!-- 0.5 -->
      <g style="fill: #262626" transform="translate(18.61375 106.457996) scale(0.08 -0.08)">
       <defs>
        <path id="ArialMT-35" d="M 266 1200 
L 856 1250 
Q 922 819 1161 601 
Q 1400 384 1738 384 
Q 2144 384 2425 690 
Q 2706 997 2706 1503 
Q 2706 1984 2436 2262 
Q 2166 2541 1728 2541 
Q 1456 2541 1237 2417 
Q 1019 2294 894 2097 
L 366 2166 
L 809 4519 
L 3088 4519 
L 3088 3981 
L 1259 3981 
L 1013 2750 
Q 1425 3038 1878 3038 
Q 2478 3038 2890 2622 
Q 3303 2206 3303 1553 
Q 3303 931 2941 478 
Q 2500 -78 1738 -78 
Q 1113 -78 717 272 
Q 322 622 266 1200 
z
" transform="scale(0.015625)"/>
       </defs>
       <use xlink:href="#ArialMT-30"/>
       <use xlink:href="#ArialMT-2e" x="55.615234"/>
       <use xlink:href="#ArialMT-35" x="83.398438"/>
      </g>
     </g>
    </g>
    <g id="ytick_3">
     <g id="line2d_7">
      <path d="M 38.03375 80.672063 
L 152.92096 80.672063 
" clip-path="url(#p214746922b)" style="fill: none; stroke: #ffffff; stroke-width: 0.8; stroke-linecap: round"/>
     </g>
     <g id="text_8">
      <!-- 1.0 -->
      <g style="fill: #262626" transform="translate(18.61375 83.535188) scale(0.08 -0.08)">
       <use xlink:href="#ArialMT-31"/>
       <use xlink:href="#ArialMT-2e" x="55.615234"/>
       <use xlink:href="#ArialMT-30" x="83.398438"/>
      </g>
     </g>
    </g>
    <g id="ytick_4">
     <g id="line2d_8">
      <path d="M 38.03375 57.749254 
L 152.92096 57.749254 
" clip-path="url(#p214746922b)" style="fill: none; stroke: #ffffff; stroke-width: 0.8; stroke-linecap: round"/>
     </g>
     <g id="text_9">
      <!-- 1.5 -->
      <g style="fill: #262626" transform="translate(18.61375 60.612379) scale(0.08 -0.08)">
       <use xlink:href="#ArialMT-31"/>
       <use xlink:href="#ArialMT-2e" x="55.615234"/>
       <use xlink:href="#ArialMT-35" x="83.398438"/>
      </g>
     </g>
    </g>
    <g id="ytick_5">
     <g id="line2d_9">
      <path d="M 38.03375 34.826445 
L 152.92096 34.826445 
" clip-path="url(#p214746922b)" style="fill: none; stroke: #ffffff; stroke-width: 0.8; stroke-linecap: round"/>
     </g>
     <g id="text_10">
      <!-- 2.0 -->
      <g style="fill: #262626" transform="translate(18.61375 37.68957) scale(0.08 -0.08)">
       <use xlink:href="#ArialMT-32"/>
       <use xlink:href="#ArialMT-2e" x="55.615234"/>
       <use xlink:href="#ArialMT-30" x="83.398438"/>
      </g>
     </g>
    </g>
    <g id="text_11">
     <!-- difference per 100 events -->
     <g style="fill: #262626" transform="translate(13.02375 125.738938) rotate(-90) scale(0.08 -0.08)">
      <defs>
       <path id="ArialMT-64" d="M 2575 0 
L 2575 419 
Q 2259 -75 1647 -75 
Q 1250 -75 917 144 
Q 584 363 401 755 
Q 219 1147 219 1656 
Q 219 2153 384 2558 
Q 550 2963 881 3178 
Q 1213 3394 1622 3394 
Q 1922 3394 2156 3267 
Q 2391 3141 2538 2938 
L 2538 4581 
L 3097 4581 
L 3097 0 
L 2575 0 
z
M 797 1656 
Q 797 1019 1065 703 
Q 1334 388 1700 388 
Q 2069 388 2326 689 
Q 2584 991 2584 1609 
Q 2584 2291 2321 2609 
Q 2059 2928 1675 2928 
Q 1300 2928 1048 2622 
Q 797 2316 797 1656 
z
" transform="scale(0.015625)"/>
       <path id="ArialMT-69" d="M 425 3934 
L 425 4581 
L 988 4581 
L 988 3934 
L 425 3934 
z
M 425 0 
L 425 3319 
L 988 3319 
L 988 0 
L 425 0 
z
" transform="scale(0.015625)"/>
       <path id="ArialMT-66" d="M 556 0 
L 556 2881 
L 59 2881 
L 59 3319 
L 556 3319 
L 556 3672 
Q 556 4006 616 4169 
Q 697 4388 901 4523 
Q 1106 4659 1475 4659 
Q 1713 4659 2000 4603 
L 1916 4113 
Q 1741 4144 1584 4144 
Q 1328 4144 1222 4034 
Q 1116 3925 1116 3625 
L 1116 3319 
L 1763 3319 
L 1763 2881 
L 1116 2881 
L 1116 0 
L 556 0 
z
" transform="scale(0.015625)"/>
       <path id="ArialMT-6e" d="M 422 0 
L 422 3319 
L 928 3319 
L 928 2847 
Q 1294 3394 1984 3394 
Q 2284 3394 2536 3286 
Q 2788 3178 2913 3003 
Q 3038 2828 3088 2588 
Q 3119 2431 3119 2041 
L 3119 0 
L 2556 0 
L 2556 2019 
Q 2556 2363 2490 2533 
Q 2425 2703 2258 2804 
Q 2091 2906 1866 2906 
Q 1506 2906 1245 2678 
Q 984 2450 984 1813 
L 984 0 
L 422 0 
z
" transform="scale(0.015625)"/>
       <path id="ArialMT-63" d="M 2588 1216 
L 3141 1144 
Q 3050 572 2676 248 
Q 2303 -75 1759 -75 
Q 1078 -75 664 370 
Q 250 816 250 1647 
Q 250 2184 428 2587 
Q 606 2991 970 3192 
Q 1334 3394 1763 3394 
Q 2303 3394 2647 3120 
Q 2991 2847 3088 2344 
L 2541 2259 
Q 2463 2594 2264 2762 
Q 2066 2931 1784 2931 
Q 1359 2931 1093 2626 
Q 828 2322 828 1663 
Q 828 994 1084 691 
Q 1341 388 1753 388 
Q 2084 388 2306 591 
Q 2528 794 2588 1216 
z
" transform="scale(0.015625)"/>
       <path id="ArialMT-70" d="M 422 -1272 
L 422 3319 
L 934 3319 
L 934 2888 
Q 1116 3141 1344 3267 
Q 1572 3394 1897 3394 
Q 2322 3394 2647 3175 
Q 2972 2956 3137 2557 
Q 3303 2159 3303 1684 
Q 3303 1175 3120 767 
Q 2938 359 2589 142 
Q 2241 -75 1856 -75 
Q 1575 -75 1351 44 
Q 1128 163 984 344 
L 984 -1272 
L 422 -1272 
z
M 931 1641 
Q 931 1000 1190 694 
Q 1450 388 1819 388 
Q 2194 388 2461 705 
Q 2728 1022 2728 1688 
Q 2728 2322 2467 2637 
Q 2206 2953 1844 2953 
Q 1484 2953 1207 2617 
Q 931 2281 931 1641 
z
" transform="scale(0.015625)"/>
       <path id="ArialMT-74" d="M 1650 503 
L 1731 6 
Q 1494 -44 1306 -44 
Q 1000 -44 831 53 
Q 663 150 594 308 
Q 525 466 525 972 
L 525 2881 
L 113 2881 
L 113 3319 
L 525 3319 
L 525 4141 
L 1084 4478 
L 1084 3319 
L 1650 3319 
L 1650 2881 
L 1084 2881 
L 1084 941 
Q 1084 700 1114 631 
Q 1144 563 1211 522 
Q 1278 481 1403 481 
Q 1497 481 1650 503 
z
" transform="scale(0.015625)"/>
       <path id="ArialMT-73" d="M 197 991 
L 753 1078 
Q 800 744 1014 566 
Q 1228 388 1613 388 
Q 2000 388 2187 545 
Q 2375 703 2375 916 
Q 2375 1106 2209 1216 
Q 2094 1291 1634 1406 
Q 1016 1563 777 1677 
Q 538 1791 414 1992 
Q 291 2194 291 2438 
Q 291 2659 392 2848 
Q 494 3038 669 3163 
Q 800 3259 1026 3326 
Q 1253 3394 1513 3394 
Q 1903 3394 2198 3281 
Q 2494 3169 2634 2976 
Q 2775 2784 2828 2463 
L 2278 2388 
Q 2241 2644 2061 2787 
Q 1881 2931 1553 2931 
Q 1166 2931 1000 2803 
Q 834 2675 834 2503 
Q 834 2394 903 2306 
Q 972 2216 1119 2156 
Q 1203 2125 1616 2013 
Q 2213 1853 2448 1751 
Q 2684 1650 2818 1456 
Q 2953 1263 2953 975 
Q 2953 694 2789 445 
Q 2625 197 2315 61 
Q 2006 -75 1616 -75 
Q 969 -75 630 194 
Q 291 463 197 991 
z
" transform="scale(0.015625)"/>
      </defs>
      <use xlink:href="#ArialMT-64"/>
      <use xlink:href="#ArialMT-69" x="55.615234"/>
      <use xlink:href="#ArialMT-66" x="77.832031"/>
      <use xlink:href="#ArialMT-66" x="103.865234"/>
      <use xlink:href="#ArialMT-65" x="131.648438"/>
      <use xlink:href="#ArialMT-72" x="187.263672"/>
      <use xlink:href="#ArialMT-65" x="220.564453"/>
      <use xlink:href="#ArialMT-6e" x="276.179688"/>
      <use xlink:href="#ArialMT-63" x="331.794922"/>
      <use xlink:href="#ArialMT-65" x="381.794922"/>
      <use xlink:href="#ArialMT-20" x="437.410156"/>
      <use xlink:href="#ArialMT-70" x="465.193359"/>
      <use xlink:href="#ArialMT-65" x="520.808594"/>
      <use xlink:href="#ArialMT-72" x="576.423828"/>
      <use xlink:href="#ArialMT-20" x="609.724609"/>
      <use xlink:href="#ArialMT-31" x="637.507812"/>
      <use xlink:href="#ArialMT-30" x="693.123047"/>
      <use xlink:href="#ArialMT-30" x="748.738281"/>
      <use xlink:href="#ArialMT-20" x="804.353516"/>
      <use xlink:href="#ArialMT-65" x="832.136719"/>
      <use xlink:href="#ArialMT-76" x="887.751953"/>
      <use xlink:href="#ArialMT-65" x="937.751953"/>
      <use xlink:href="#ArialMT-6e" x="993.367188"/>
      <use xlink:href="#ArialMT-74" x="1048.982422"/>
      <use xlink:href="#ArialMT-73" x="1076.765625"/>
     </g>
    </g>
   </g>
   <g id="PolyCollection_1">
    <defs>
     <path id="m7f22c9fc4d" d="M 43.255896 -103.793437 
L 43.255896 -92.352504 
L 45.088228 -79.897163 
L 46.92056 -73.071812 
L 48.752892 -68.92188 
L 50.585223 -65.842937 
L 52.417555 -63.542175 
L 54.249887 -61.805344 
L 56.082219 -59.76795 
L 57.914551 -57.709422 
L 59.746883 -55.829997 
L 61.579215 -54.331703 
L 63.411547 -54.257086 
L 65.243879 -53.168005 
L 67.076211 -51.841262 
L 68.908542 -50.780346 
L 70.740874 -50.040351 
L 72.573206 -49.392687 
L 74.405538 -48.775802 
L 76.23787 -48.162492 
L 78.070202 -47.868401 
L 79.902534 -47.539757 
L 81.734866 -47.297534 
L 83.567198 -47.133381 
L 85.39953 -47.56505 
L 87.231861 -47.416039 
L 89.064193 -47.96212 
L 90.896525 -47.991626 
L 92.728857 -47.859896 
L 94.561189 -47.787908 
L 96.393521 -47.749564 
L 98.225853 -47.544515 
L 100.058185 -47.366296 
L 101.890517 -47.118548 
L 103.722848 -46.767656 
L 105.55518 -46.615128 
L 107.387512 -46.348247 
L 109.219844 -46.800806 
L 111.052176 -46.499424 
L 112.884508 -46.238815 
L 114.71684 -46.20252 
L 116.549172 -45.833334 
L 118.381504 -45.467771 
L 120.213836 -45.04003 
L 122.046167 -44.68314 
L 123.878499 -44.36364 
L 125.710831 -44.12594 
L 127.543163 -43.912235 
L 129.375495 -43.68102 
L 131.207827 -43.998902 
L 133.040159 -43.86563 
L 134.872491 -43.686105 
L 136.704823 -43.448334 
L 138.537155 -43.384044 
L 140.369486 -43.210435 
L 142.201818 -42.942992 
L 144.03415 -42.71173 
L 145.866482 -42.52687 
L 147.698814 -42.317565 
L 147.698814 -43.408841 
L 147.698814 -43.408841 
L 145.866482 -43.677296 
L 144.03415 -43.941957 
L 142.201818 -44.167988 
L 140.369486 -44.48966 
L 138.537155 -44.691409 
L 136.704823 -44.701934 
L 134.872491 -44.987728 
L 133.040159 -45.234197 
L 131.207827 -45.402238 
L 129.375495 -45.054404 
L 127.543163 -45.247584 
L 125.710831 -45.562876 
L 123.878499 -45.916194 
L 122.046167 -46.206429 
L 120.213836 -46.586321 
L 118.381504 -47.03421 
L 116.549172 -47.494793 
L 114.71684 -47.883566 
L 112.884508 -47.871366 
L 111.052176 -48.242845 
L 109.219844 -48.584426 
L 107.387512 -48.117729 
L 105.55518 -48.351769 
L 103.722848 -48.784498 
L 101.890517 -49.17157 
L 100.058185 -49.360688 
L 98.225853 -49.60124 
L 96.393521 -49.842784 
L 94.561189 -49.952102 
L 92.728857 -50.298332 
L 90.896525 -50.247235 
L 89.064193 -50.434581 
L 87.231861 -49.769232 
L 85.39953 -49.956035 
L 83.567198 -49.347666 
L 81.734866 -49.685697 
L 79.902534 -49.953765 
L 78.070202 -50.286024 
L 76.23787 -50.793132 
L 74.405538 -51.273981 
L 72.573206 -51.874409 
L 70.740874 -52.621279 
L 68.908542 -53.603297 
L 67.076211 -54.804991 
L 65.243879 -56.123967 
L 63.411547 -57.49096 
L 61.579215 -57.370728 
L 59.746883 -58.996492 
L 57.914551 -61.129673 
L 56.082219 -63.432315 
L 54.249887 -65.808337 
L 52.417555 -67.960701 
L 50.585223 -70.799724 
L 48.752892 -74.732418 
L 46.92056 -79.56266 
L 45.088228 -87.745877 
L 43.255896 -103.793437 
z
" style="stroke: #4c72b0; stroke-opacity: 0.2; stroke-width: 0.8"/>
    </defs>
    <g clip-path="url(#p214746922b)">
     <use xlink:href="#m7f22c9fc4d" x="0" y="160.84143" style="fill: #4c72b0; fill-opacity: 0.2; stroke: #4c72b0; stroke-opacity: 0.2; stroke-width: 0.8"/>
    </g>
   </g>
   <g id="PolyCollection_2">
    <defs>
     <path id="mc0eb915d3c" d="M 43.255896 -103.28842 
L 43.255896 -92.14431 
L 45.088228 -80.002282 
L 46.92056 -72.847936 
L 48.752892 -68.91019 
L 50.585223 -66.015805 
L 52.417555 -63.42624 
L 54.249887 -61.496851 
L 56.082219 -59.551522 
L 57.914551 -57.600104 
L 59.746883 -55.767829 
L 61.579215 -54.266319 
L 63.411547 -54.289124 
L 65.243879 -53.145048 
L 67.076211 -51.800354 
L 68.908542 -50.806693 
L 70.740874 -49.953303 
L 72.573206 -49.31245 
L 74.405538 -48.743115 
L 76.23787 -48.22878 
L 78.070202 -47.735647 
L 79.902534 -47.436473 
L 81.734866 -47.310018 
L 83.567198 -47.088313 
L 85.39953 -47.573582 
L 87.231861 -47.426951 
L 89.064193 -48.008828 
L 90.896525 -47.889514 
L 92.728857 -47.77257 
L 94.561189 -47.72993 
L 96.393521 -47.677953 
L 98.225853 -47.56916 
L 100.058185 -47.282414 
L 101.890517 -47.144402 
L 103.722848 -46.79665 
L 105.55518 -46.581637 
L 107.387512 -46.263279 
L 109.219844 -46.788895 
L 111.052176 -46.401815 
L 112.884508 -46.170987 
L 114.71684 -46.189803 
L 116.549172 -45.773636 
L 118.381504 -45.427233 
L 120.213836 -45.014635 
L 122.046167 -44.71109 
L 123.878499 -44.364649 
L 125.710831 -44.129501 
L 127.543163 -43.877169 
L 129.375495 -43.658982 
L 131.207827 -44.018474 
L 133.040159 -43.806355 
L 134.872491 -43.640726 
L 136.704823 -43.424811 
L 138.537155 -43.44948 
L 140.369486 -43.174237 
L 142.201818 -42.887036 
L 144.03415 -42.669842 
L 145.866482 -42.473747 
L 147.698814 -42.24407 
L 147.698814 -43.358221 
L 147.698814 -43.358221 
L 145.866482 -43.657824 
L 144.03415 -43.911639 
L 142.201818 -44.14378 
L 140.369486 -44.37566 
L 138.537155 -44.720785 
L 136.704823 -44.687 
L 134.872491 -44.953478 
L 133.040159 -45.209924 
L 131.207827 -45.375582 
L 129.375495 -45.038612 
L 127.543163 -45.276605 
L 125.710831 -45.559858 
L 123.878499 -45.810277 
L 122.046167 -46.204233 
L 120.213836 -46.534089 
L 118.381504 -46.974988 
L 116.549172 -47.400198 
L 114.71684 -47.83084 
L 112.884508 -47.837727 
L 111.052176 -48.242791 
L 109.219844 -48.610209 
L 107.387512 -48.125492 
L 105.55518 -48.386404 
L 103.722848 -48.761217 
L 101.890517 -49.022816 
L 100.058185 -49.306762 
L 98.225853 -49.605295 
L 96.393521 -49.768442 
L 94.561189 -49.986455 
L 92.728857 -50.070434 
L 90.896525 -50.16078 
L 89.064193 -50.424399 
L 87.231861 -49.780065 
L 85.39953 -49.995394 
L 83.567198 -49.430559 
L 81.734866 -49.657663 
L 79.902534 -49.908977 
L 78.070202 -50.375453 
L 76.23787 -50.72524 
L 74.405538 -51.249564 
L 72.573206 -51.883326 
L 70.740874 -52.646156 
L 68.908542 -53.626786 
L 67.076211 -54.763116 
L 65.243879 -56.071871 
L 63.411547 -57.420217 
L 61.579215 -57.339508 
L 59.746883 -58.933738 
L 57.914551 -61.053745 
L 56.082219 -63.48574 
L 54.249887 -65.816511 
L 52.417555 -67.974712 
L 50.585223 -70.653599 
L 48.752892 -74.667059 
L 46.92056 -79.454615 
L 45.088228 -87.744361 
L 43.255896 -103.28842 
z
" style="stroke: #dd8452; stroke-opacity: 0.2; stroke-width: 0.8"/>
    </defs>
    <g clip-path="url(#p214746922b)">
     <use xlink:href="#mc0eb915d3c" x="0" y="160.84143" style="fill: #dd8452; fill-opacity: 0.2; stroke: #dd8452; stroke-opacity: 0.2; stroke-width: 0.8"/>
    </g>
   </g>
   <g id="PolyCollection_3">
    <defs>
     <path id="m4549a4e530" d="M 43.255896 -88.866323 
L 43.255896 -78.34835 
L 45.088228 -69.933552 
L 46.92056 -64.659906 
L 48.752892 -61.667508 
L 50.585223 -59.693442 
L 52.417555 -59.010826 
L 54.249887 -57.889874 
L 56.082219 -56.456635 
L 57.914551 -54.979435 
L 59.746883 -53.489413 
L 61.579215 -52.574477 
L 63.411547 -52.506518 
L 65.243879 -51.759387 
L 67.076211 -50.771402 
L 68.908542 -50.029572 
L 70.740874 -49.357372 
L 72.573206 -48.817225 
L 74.405538 -49.009561 
L 76.23787 -48.419789 
L 78.070202 -47.838123 
L 79.902534 -47.089152 
L 81.734866 -46.653569 
L 83.567198 -46.186666 
L 85.39953 -46.58504 
L 87.231861 -46.091414 
L 89.064193 -46.5865 
L 90.896525 -46.702854 
L 92.728857 -46.60327 
L 94.561189 -46.874758 
L 96.393521 -46.836288 
L 98.225853 -46.728401 
L 100.058185 -46.562791 
L 101.890517 -46.405084 
L 103.722848 -46.066416 
L 105.55518 -46.03429 
L 107.387512 -46.019535 
L 109.219844 -46.342875 
L 111.052176 -46.353756 
L 112.884508 -46.183581 
L 114.71684 -46.0607 
L 116.549172 -45.624075 
L 118.381504 -45.199485 
L 120.213836 -44.825173 
L 122.046167 -44.464594 
L 123.878499 -44.081236 
L 125.710831 -43.994885 
L 127.543163 -43.857485 
L 129.375495 -43.784369 
L 131.207827 -44.001933 
L 133.040159 -43.886987 
L 134.872491 -43.809146 
L 136.704823 -43.669608 
L 138.537155 -43.666204 
L 140.369486 -43.423255 
L 142.201818 -43.284697 
L 144.03415 -43.191868 
L 145.866482 -43.007674 
L 147.698814 -42.971635 
L 147.698814 -44.063843 
L 147.698814 -44.063843 
L 145.866482 -44.082132 
L 144.03415 -44.305908 
L 142.201818 -44.354552 
L 140.369486 -44.536288 
L 138.537155 -44.796 
L 136.704823 -44.778953 
L 134.872491 -44.960602 
L 133.040159 -45.102399 
L 131.207827 -45.181964 
L 129.375495 -44.93202 
L 127.543163 -45.078328 
L 125.710831 -45.130737 
L 123.878499 -45.236048 
L 122.046167 -45.645946 
L 120.213836 -45.998602 
L 118.381504 -46.529214 
L 116.549172 -47.030631 
L 114.71684 -47.363206 
L 112.884508 -47.559149 
L 111.052176 -47.839337 
L 109.219844 -47.78493 
L 107.387512 -47.46959 
L 105.55518 -47.517461 
L 103.722848 -47.614595 
L 101.890517 -47.955323 
L 100.058185 -48.142184 
L 98.225853 -48.330022 
L 96.393521 -48.454091 
L 94.561189 -48.557703 
L 92.728857 -48.337506 
L 90.896525 -48.341315 
L 89.064193 -48.424061 
L 87.231861 -48.038655 
L 85.39953 -48.403226 
L 83.567198 -48.123009 
L 81.734866 -48.627362 
L 79.902534 -49.10942 
L 78.070202 -49.757849 
L 76.23787 -50.485125 
L 74.405538 -51.107316 
L 72.573206 -50.781733 
L 70.740874 -51.407516 
L 68.908542 -52.176393 
L 67.076211 -52.954153 
L 65.243879 -54.038606 
L 63.411547 -54.972583 
L 61.579215 -54.925394 
L 59.746883 -56.070851 
L 57.914551 -57.809494 
L 56.082219 -59.591988 
L 54.249887 -61.261749 
L 52.417555 -62.770055 
L 50.585223 -64.155155 
L 48.752892 -66.66756 
L 46.92056 -70.345068 
L 45.088228 -77.176126 
L 43.255896 -88.866323 
z
" style="stroke: #55a868; stroke-opacity: 0.2; stroke-width: 0.8"/>
    </defs>
    <g clip-path="url(#p214746922b)">
     <use xlink:href="#m4549a4e530" x="0" y="160.84143" style="fill: #55a868; fill-opacity: 0.2; stroke: #55a868; stroke-opacity: 0.2; stroke-width: 0.8"/>
    </g>
   </g>
   <g id="line2d_10">
    <path d="M 43.255896 63.141714 
L 45.088228 77.085287 
L 46.92056 84.615644 
L 48.752892 89.022011 
L 50.585223 92.513913 
L 52.417555 95.094673 
L 54.249887 97.11985 
L 56.082219 99.297773 
L 57.914551 101.477763 
L 59.746883 103.429627 
L 61.579215 104.982269 
L 63.411547 104.991587 
L 65.243879 106.257444 
L 67.076211 107.572381 
L 68.908542 108.647223 
L 70.740874 109.533777 
L 72.573206 110.272116 
L 74.405538 110.924146 
L 76.23787 111.388149 
L 78.070202 111.794039 
L 79.902534 112.161811 
L 81.734866 112.40464 
L 83.567198 112.626569 
L 85.39953 112.109053 
L 87.231861 112.257248 
L 89.064193 111.674031 
L 90.896525 111.77358 
L 92.728857 111.840998 
L 94.561189 111.944394 
L 96.393521 112.083091 
L 98.225853 112.269334 
L 100.058185 112.494352 
L 101.890517 112.74348 
L 103.722848 113.009874 
L 105.55518 113.321004 
L 107.387512 113.628061 
L 109.219844 113.16143 
L 111.052176 113.486701 
L 112.884508 113.82185 
L 114.71684 113.819992 
L 116.549172 114.217638 
L 118.381504 114.611911 
L 120.213836 115.017408 
L 122.046167 115.392335 
L 123.878499 115.731141 
L 125.710831 116.007133 
L 127.543163 116.248862 
L 129.375495 116.467468 
L 131.207827 116.120221 
L 133.040159 116.310053 
L 134.872491 116.516619 
L 136.704823 116.745826 
L 138.537155 116.774192 
L 140.369486 117.032817 
L 142.201818 117.288997 
L 144.03415 117.526903 
L 145.866482 117.755585 
L 147.698814 118.00059 
" clip-path="url(#p214746922b)" style="fill: none; stroke: #4c72b0; stroke-width: 1.2; stroke-linecap: round"/>
   </g>
   <g id="line2d_11">
    <path d="M 43.255896 63.111207 
L 45.088228 77.12101 
L 46.92056 84.730524 
L 48.752892 89.098301 
L 50.585223 92.621845 
L 52.417555 95.142176 
L 54.249887 97.204786 
L 56.082219 99.383548 
L 57.914551 101.538141 
L 59.746883 103.465609 
L 61.579215 105.021911 
L 63.411547 105.033507 
L 65.243879 106.278444 
L 67.076211 107.603853 
L 68.908542 108.664095 
L 70.740874 109.543266 
L 72.573206 110.28201 
L 74.405538 110.933987 
L 76.23787 111.385093 
L 78.070202 111.800054 
L 79.902534 112.181196 
L 81.734866 112.417397 
L 83.567198 112.635213 
L 85.39953 112.104077 
L 87.231861 112.264678 
L 89.064193 111.68878 
L 90.896525 111.802293 
L 92.728857 111.883483 
L 94.561189 111.99958 
L 96.393521 112.124697 
L 98.225853 112.302668 
L 100.058185 112.529899 
L 101.890517 112.780363 
L 103.722848 113.052622 
L 105.55518 113.353677 
L 107.387512 113.654761 
L 109.219844 113.197397 
L 111.052176 113.525943 
L 112.884508 113.856754 
L 114.71684 113.860375 
L 116.549172 114.256842 
L 118.381504 114.651323 
L 120.213836 115.056607 
L 122.046167 115.424582 
L 123.878499 115.760538 
L 125.710831 116.035087 
L 127.543163 116.280819 
L 129.375495 116.498125 
L 131.207827 116.159848 
L 133.040159 116.349393 
L 134.872491 116.550749 
L 136.704823 116.774359 
L 138.537155 116.802125 
L 140.369486 117.061045 
L 142.201818 117.318568 
L 144.03415 117.553882 
L 145.866482 117.780674 
L 147.698814 118.026652 
" clip-path="url(#p214746922b)" style="fill: none; stroke: #dd8452; stroke-width: 1.2; stroke-linecap: round"/>
   </g>
   <g id="line2d_12">
    <path d="M 43.255896 77.506996 
L 45.088228 87.37213 
L 46.92056 93.290609 
L 48.752892 96.55628 
L 50.585223 99.033925 
L 52.417555 99.980938 
L 54.249887 101.287495 
L 56.082219 102.956618 
L 57.914551 104.499219 
L 59.746883 106.027839 
L 61.579215 107.059447 
L 63.411547 107.152733 
L 65.243879 107.932128 
L 67.076211 108.986512 
L 68.908542 109.798218 
L 70.740874 110.473543 
L 72.573206 111.041055 
L 74.405538 110.794217 
L 76.23787 111.467756 
L 78.070202 112.124547 
L 79.902534 112.770512 
L 81.734866 113.195515 
L 83.567198 113.684748 
L 85.39953 113.472214 
L 87.231861 113.791598 
L 89.064193 113.349969 
L 90.896525 113.313541 
L 92.728857 113.328594 
L 94.561189 113.147502 
L 96.393521 113.217937 
L 98.225853 113.288501 
L 100.058185 113.520886 
L 101.890517 113.712968 
L 103.722848 114.02356 
L 105.55518 114.109638 
L 107.387512 114.067144 
L 109.219844 113.804995 
L 111.052176 113.721463 
L 112.884508 114.008096 
L 114.71684 114.171888 
L 116.549172 114.551232 
L 118.381504 114.9764 
L 120.213836 115.428744 
L 122.046167 115.818033 
L 123.878499 116.179882 
L 125.710831 116.254766 
L 127.543163 116.377682 
L 129.375495 116.502162 
L 131.207827 116.27662 
L 133.040159 116.350895 
L 134.872491 116.474992 
L 136.704823 116.595075 
L 138.537155 116.632395 
L 140.369486 116.84233 
L 142.201818 117.016979 
L 144.03415 117.125433 
L 145.866482 117.276329 
L 147.698814 117.350272 
" clip-path="url(#p214746922b)" style="fill: none; stroke: #55a868; stroke-width: 1.2; stroke-linecap: round"/>
   </g>
   <g id="line2d_13"/>
   <g id="line2d_14"/>
   <g id="line2d_15"/>
   <g id="patch_3">
    <path d="M 38.03375 126.51768 
L 38.03375 34.826445 
" style="fill: none; stroke: #ffffff; stroke-linejoin: miter; stroke-linecap: square"/>
   </g>
   <g id="patch_4">
    <path d="M 38.03375 126.51768 
L 152.92096 126.51768 
" style="fill: none; stroke: #ffffff; stroke-linejoin: miter; stroke-linecap: square"/>
   </g>
   <g id="text_12">
    <!-- Max-min -->
    <g style="fill: #262626" transform="translate(80.757555 28.826445) scale(0.0768 -0.0768)">
     <defs>
      <path id="ArialMT-4d" d="M 475 0 
L 475 4581 
L 1388 4581 
L 2472 1338 
Q 2622 884 2691 659 
Q 2769 909 2934 1394 
L 4031 4581 
L 4847 4581 
L 4847 0 
L 4263 0 
L 4263 3834 
L 2931 0 
L 2384 0 
L 1059 3900 
L 1059 0 
L 475 0 
z
" transform="scale(0.015625)"/>
      <path id="ArialMT-78" d="M 47 0 
L 1259 1725 
L 138 3319 
L 841 3319 
L 1350 2541 
Q 1494 2319 1581 2169 
Q 1719 2375 1834 2534 
L 2394 3319 
L 3066 3319 
L 1919 1756 
L 3153 0 
L 2463 0 
L 1781 1031 
L 1600 1309 
L 728 0 
L 47 0 
z
" transform="scale(0.015625)"/>
      <path id="ArialMT-2d" d="M 203 1375 
L 203 1941 
L 1931 1941 
L 1931 1375 
L 203 1375 
z
" transform="scale(0.015625)"/>
      <path id="ArialMT-6d" d="M 422 0 
L 422 3319 
L 925 3319 
L 925 2853 
Q 1081 3097 1340 3245 
Q 1600 3394 1931 3394 
Q 2300 3394 2536 3241 
Q 2772 3088 2869 2813 
Q 3263 3394 3894 3394 
Q 4388 3394 4653 3120 
Q 4919 2847 4919 2278 
L 4919 0 
L 4359 0 
L 4359 2091 
Q 4359 2428 4304 2576 
Q 4250 2725 4106 2815 
Q 3963 2906 3769 2906 
Q 3419 2906 3187 2673 
Q 2956 2441 2956 1928 
L 2956 0 
L 2394 0 
L 2394 2156 
Q 2394 2531 2256 2718 
Q 2119 2906 1806 2906 
Q 1569 2906 1367 2781 
Q 1166 2656 1075 2415 
Q 984 2175 984 1722 
L 984 0 
L 422 0 
z
" transform="scale(0.015625)"/>
     </defs>
     <use xlink:href="#ArialMT-4d"/>
     <use xlink:href="#ArialMT-61" x="83.300781"/>
     <use xlink:href="#ArialMT-78" x="138.916016"/>
     <use xlink:href="#ArialMT-2d" x="188.916016"/>
     <use xlink:href="#ArialMT-6d" x="222.216797"/>
     <use xlink:href="#ArialMT-69" x="305.517578"/>
     <use xlink:href="#ArialMT-6e" x="327.734375"/>
    </g>
   </g>
  </g>
  <g id="axes_2">
   <g id="patch_5">
    <path d="M 202.67024 126.51768 
L 317.55745 126.51768 
L 317.55745 34.826445 
L 202.67024 34.826445 
z
" style="fill: #eaeaf2"/>
   </g>
   <g id="matplotlib.axis_3">
    <g id="xtick_5">
     <g id="line2d_16">
      <path d="M 204.227723 126.51768 
L 204.227723 34.826445 
" clip-path="url(#p9e59b96ba8)" style="fill: none; stroke: #ffffff; stroke-width: 0.8; stroke-linecap: round"/>
     </g>
     <g id="text_13">
      <!-- 0% -->
      <g style="fill: #262626" transform="translate(198.446473 140.54393) scale(0.08 -0.08)">
       <use xlink:href="#ArialMT-30"/>
       <use xlink:href="#ArialMT-25" x="55.615234"/>
      </g>
     </g>
    </g>
    <g id="xtick_6">
     <g id="line2d_17">
      <path d="M 240.87436 126.51768 
L 240.87436 34.826445 
" clip-path="url(#p9e59b96ba8)" style="fill: none; stroke: #ffffff; stroke-width: 0.8; stroke-linecap: round"/>
     </g>
     <g id="text_14">
      <!-- 10% -->
      <g style="fill: #262626" transform="translate(232.868735 140.54393) scale(0.08 -0.08)">
       <use xlink:href="#ArialMT-31"/>
       <use xlink:href="#ArialMT-30" x="55.615234"/>
       <use xlink:href="#ArialMT-25" x="111.230469"/>
      </g>
     </g>
    </g>
    <g id="xtick_7">
     <g id="line2d_18">
      <path d="M 277.520998 126.51768 
L 277.520998 34.826445 
" clip-path="url(#p9e59b96ba8)" style="fill: none; stroke: #ffffff; stroke-width: 0.8; stroke-linecap: round"/>
     </g>
     <g id="text_15">
      <!-- 20% -->
      <g style="fill: #262626" transform="translate(269.515373 140.54393) scale(0.08 -0.08)">
       <use xlink:href="#ArialMT-32"/>
       <use xlink:href="#ArialMT-30" x="55.615234"/>
       <use xlink:href="#ArialMT-25" x="111.230469"/>
      </g>
     </g>
    </g>
    <g id="xtick_8">
     <g id="line2d_19">
      <path d="M 314.167636 126.51768 
L 314.167636 34.826445 
" clip-path="url(#p9e59b96ba8)" style="fill: none; stroke: #ffffff; stroke-width: 0.8; stroke-linecap: round"/>
     </g>
     <g id="text_16">
      <!-- 30% -->
      <g style="fill: #262626" transform="translate(306.162011 140.54393) scale(0.08 -0.08)">
       <use xlink:href="#ArialMT-33"/>
       <use xlink:href="#ArialMT-30" x="55.615234"/>
       <use xlink:href="#ArialMT-25" x="111.230469"/>
      </g>
     </g>
    </g>
    <g id="text_17">
     <!-- Coverage area -->
     <g style="fill: #262626" transform="translate(233.655095 151.95768) scale(0.08 -0.08)">
      <use xlink:href="#ArialMT-43"/>
      <use xlink:href="#ArialMT-6f" x="72.216797"/>
      <use xlink:href="#ArialMT-76" x="127.832031"/>
      <use xlink:href="#ArialMT-65" x="177.832031"/>
      <use xlink:href="#ArialMT-72" x="233.447266"/>
      <use xlink:href="#ArialMT-61" x="266.748047"/>
      <use xlink:href="#ArialMT-67" x="322.363281"/>
      <use xlink:href="#ArialMT-65" x="377.978516"/>
      <use xlink:href="#ArialMT-20" x="433.59375"/>
      <use xlink:href="#ArialMT-61" x="461.376953"/>
      <use xlink:href="#ArialMT-72" x="516.992188"/>
      <use xlink:href="#ArialMT-65" x="550.292969"/>
      <use xlink:href="#ArialMT-61" x="605.908203"/>
     </g>
    </g>
   </g>
   <g id="matplotlib.axis_4">
    <g id="ytick_6">
     <g id="line2d_20">
      <path d="M 202.67024 126.51768 
L 317.55745 126.51768 
" clip-path="url(#p9e59b96ba8)" style="fill: none; stroke: #ffffff; stroke-width: 0.8; stroke-linecap: round"/>
     </g>
     <g id="text_18">
      <!-- 0% -->
      <g style="fill: #262626" transform="translate(182.80774 129.380805) scale(0.08 -0.08)">
       <use xlink:href="#ArialMT-30"/>
       <use xlink:href="#ArialMT-25" x="55.615234"/>
      </g>
     </g>
    </g>
    <g id="ytick_7">
     <g id="line2d_21">
      <path d="M 202.67024 108.179433 
L 317.55745 108.179433 
" clip-path="url(#p9e59b96ba8)" style="fill: none; stroke: #ffffff; stroke-width: 0.8; stroke-linecap: round"/>
     </g>
     <g id="text_19">
      <!-- 20% -->
      <g style="fill: #262626" transform="translate(178.35899 111.042558) scale(0.08 -0.08)">
       <use xlink:href="#ArialMT-32"/>
       <use xlink:href="#ArialMT-30" x="55.615234"/>
       <use xlink:href="#ArialMT-25" x="111.230469"/>
      </g>
     </g>
    </g>
    <g id="ytick_8">
     <g id="line2d_22">
      <path d="M 202.67024 89.841186 
L 317.55745 89.841186 
" clip-path="url(#p9e59b96ba8)" style="fill: none; stroke: #ffffff; stroke-width: 0.8; stroke-linecap: round"/>
     </g>
     <g id="text_20">
      <!-- 40% -->
      <g style="fill: #262626" transform="translate(178.35899 92.704311) scale(0.08 -0.08)">
       <defs>
        <path id="ArialMT-34" d="M 2069 0 
L 2069 1097 
L 81 1097 
L 81 1613 
L 2172 4581 
L 2631 4581 
L 2631 1613 
L 3250 1613 
L 3250 1097 
L 2631 1097 
L 2631 0 
L 2069 0 
z
M 2069 1613 
L 2069 3678 
L 634 1613 
L 2069 1613 
z
" transform="scale(0.015625)"/>
       </defs>
       <use xlink:href="#ArialMT-34"/>
       <use xlink:href="#ArialMT-30" x="55.615234"/>
       <use xlink:href="#ArialMT-25" x="111.230469"/>
      </g>
     </g>
    </g>
    <g id="ytick_9">
     <g id="line2d_23">
      <path d="M 202.67024 71.502939 
L 317.55745 71.502939 
" clip-path="url(#p9e59b96ba8)" style="fill: none; stroke: #ffffff; stroke-width: 0.8; stroke-linecap: round"/>
     </g>
     <g id="text_21">
      <!-- 60% -->
      <g style="fill: #262626" transform="translate(178.35899 74.366064) scale(0.08 -0.08)">
       <defs>
        <path id="ArialMT-36" d="M 3184 3459 
L 2625 3416 
Q 2550 3747 2413 3897 
Q 2184 4138 1850 4138 
Q 1581 4138 1378 3988 
Q 1113 3794 959 3422 
Q 806 3050 800 2363 
Q 1003 2672 1297 2822 
Q 1591 2972 1913 2972 
Q 2475 2972 2870 2558 
Q 3266 2144 3266 1488 
Q 3266 1056 3080 686 
Q 2894 316 2569 119 
Q 2244 -78 1831 -78 
Q 1128 -78 684 439 
Q 241 956 241 2144 
Q 241 3472 731 4075 
Q 1159 4600 1884 4600 
Q 2425 4600 2770 4297 
Q 3116 3994 3184 3459 
z
M 888 1484 
Q 888 1194 1011 928 
Q 1134 663 1356 523 
Q 1578 384 1822 384 
Q 2178 384 2434 671 
Q 2691 959 2691 1453 
Q 2691 1928 2437 2201 
Q 2184 2475 1800 2475 
Q 1419 2475 1153 2201 
Q 888 1928 888 1484 
z
" transform="scale(0.015625)"/>
       </defs>
       <use xlink:href="#ArialMT-36"/>
       <use xlink:href="#ArialMT-30" x="55.615234"/>
       <use xlink:href="#ArialMT-25" x="111.230469"/>
      </g>
     </g>
    </g>
    <g id="ytick_10">
     <g id="line2d_24">
      <path d="M 202.67024 53.164692 
L 317.55745 53.164692 
" clip-path="url(#p9e59b96ba8)" style="fill: none; stroke: #ffffff; stroke-width: 0.8; stroke-linecap: round"/>
     </g>
     <g id="text_22">
      <!-- 80% -->
      <g style="fill: #262626" transform="translate(178.35899 56.027817) scale(0.08 -0.08)">
       <defs>
        <path id="ArialMT-38" d="M 1131 2484 
Q 781 2613 612 2850 
Q 444 3088 444 3419 
Q 444 3919 803 4259 
Q 1163 4600 1759 4600 
Q 2359 4600 2725 4251 
Q 3091 3903 3091 3403 
Q 3091 3084 2923 2848 
Q 2756 2613 2416 2484 
Q 2838 2347 3058 2040 
Q 3278 1734 3278 1309 
Q 3278 722 2862 322 
Q 2447 -78 1769 -78 
Q 1091 -78 675 323 
Q 259 725 259 1325 
Q 259 1772 486 2073 
Q 713 2375 1131 2484 
z
M 1019 3438 
Q 1019 3113 1228 2906 
Q 1438 2700 1772 2700 
Q 2097 2700 2305 2904 
Q 2513 3109 2513 3406 
Q 2513 3716 2298 3927 
Q 2084 4138 1766 4138 
Q 1444 4138 1231 3931 
Q 1019 3725 1019 3438 
z
M 838 1322 
Q 838 1081 952 856 
Q 1066 631 1291 507 
Q 1516 384 1775 384 
Q 2178 384 2440 643 
Q 2703 903 2703 1303 
Q 2703 1709 2433 1975 
Q 2163 2241 1756 2241 
Q 1359 2241 1098 1978 
Q 838 1716 838 1322 
z
" transform="scale(0.015625)"/>
       </defs>
       <use xlink:href="#ArialMT-38"/>
       <use xlink:href="#ArialMT-30" x="55.615234"/>
       <use xlink:href="#ArialMT-25" x="111.230469"/>
      </g>
     </g>
    </g>
    <g id="ytick_11">
     <g id="line2d_25">
      <path d="M 202.67024 34.826445 
L 317.55745 34.826445 
" clip-path="url(#p9e59b96ba8)" style="fill: none; stroke: #ffffff; stroke-width: 0.8; stroke-linecap: round"/>
     </g>
     <g id="text_23">
      <!-- 100% -->
      <g style="fill: #262626" transform="translate(173.91024 37.68957) scale(0.08 -0.08)">
       <use xlink:href="#ArialMT-31"/>
       <use xlink:href="#ArialMT-30" x="55.615234"/>
       <use xlink:href="#ArialMT-30" x="111.230469"/>
       <use xlink:href="#ArialMT-25" x="166.845703"/>
      </g>
     </g>
    </g>
    <g id="text_24">
     <!-- Percentage of inequity -->
     <g style="fill: #262626" transform="translate(168.29384 118.881863) rotate(-90) scale(0.0768 -0.0768)">
      <defs>
       <path id="ArialMT-50" d="M 494 0 
L 494 4581 
L 2222 4581 
Q 2678 4581 2919 4538 
Q 3256 4481 3484 4323 
Q 3713 4166 3852 3881 
Q 3991 3597 3991 3256 
Q 3991 2672 3619 2267 
Q 3247 1863 2275 1863 
L 1100 1863 
L 1100 0 
L 494 0 
z
M 1100 2403 
L 2284 2403 
Q 2872 2403 3119 2622 
Q 3366 2841 3366 3238 
Q 3366 3525 3220 3729 
Q 3075 3934 2838 4000 
Q 2684 4041 2272 4041 
L 1100 4041 
L 1100 2403 
z
" transform="scale(0.015625)"/>
       <path id="ArialMT-71" d="M 2538 -1272 
L 2538 353 
Q 2406 169 2170 47 
Q 1934 -75 1669 -75 
Q 1078 -75 651 397 
Q 225 869 225 1691 
Q 225 2191 398 2587 
Q 572 2984 901 3189 
Q 1231 3394 1625 3394 
Q 2241 3394 2594 2875 
L 2594 3319 
L 3100 3319 
L 3100 -1272 
L 2538 -1272 
z
M 803 1669 
Q 803 1028 1072 708 
Q 1341 388 1716 388 
Q 2075 388 2334 692 
Q 2594 997 2594 1619 
Q 2594 2281 2320 2615 
Q 2047 2950 1678 2950 
Q 1313 2950 1058 2639 
Q 803 2328 803 1669 
z
" transform="scale(0.015625)"/>
       <path id="ArialMT-75" d="M 2597 0 
L 2597 488 
Q 2209 -75 1544 -75 
Q 1250 -75 995 37 
Q 741 150 617 320 
Q 494 491 444 738 
Q 409 903 409 1263 
L 409 3319 
L 972 3319 
L 972 1478 
Q 972 1038 1006 884 
Q 1059 663 1231 536 
Q 1403 409 1656 409 
Q 1909 409 2131 539 
Q 2353 669 2445 892 
Q 2538 1116 2538 1541 
L 2538 3319 
L 3100 3319 
L 3100 0 
L 2597 0 
z
" transform="scale(0.015625)"/>
       <path id="ArialMT-79" d="M 397 -1278 
L 334 -750 
Q 519 -800 656 -800 
Q 844 -800 956 -737 
Q 1069 -675 1141 -563 
Q 1194 -478 1313 -144 
Q 1328 -97 1363 -6 
L 103 3319 
L 709 3319 
L 1400 1397 
Q 1534 1031 1641 628 
Q 1738 1016 1872 1384 
L 2581 3319 
L 3144 3319 
L 1881 -56 
Q 1678 -603 1566 -809 
Q 1416 -1088 1222 -1217 
Q 1028 -1347 759 -1347 
Q 597 -1347 397 -1278 
z
" transform="scale(0.015625)"/>
      </defs>
      <use xlink:href="#ArialMT-50"/>
      <use xlink:href="#ArialMT-65" x="66.699219"/>
      <use xlink:href="#ArialMT-72" x="122.314453"/>
      <use xlink:href="#ArialMT-63" x="155.615234"/>
      <use xlink:href="#ArialMT-65" x="205.615234"/>
      <use xlink:href="#ArialMT-6e" x="261.230469"/>
      <use xlink:href="#ArialMT-74" x="316.845703"/>
      <use xlink:href="#ArialMT-61" x="344.628906"/>
      <use xlink:href="#ArialMT-67" x="400.244141"/>
      <use xlink:href="#ArialMT-65" x="455.859375"/>
      <use xlink:href="#ArialMT-20" x="511.474609"/>
      <use xlink:href="#ArialMT-6f" x="539.257812"/>
      <use xlink:href="#ArialMT-66" x="594.873047"/>
      <use xlink:href="#ArialMT-20" x="622.65625"/>
      <use xlink:href="#ArialMT-69" x="650.439453"/>
      <use xlink:href="#ArialMT-6e" x="672.65625"/>
      <use xlink:href="#ArialMT-65" x="728.271484"/>
      <use xlink:href="#ArialMT-71" x="783.886719"/>
      <use xlink:href="#ArialMT-75" x="839.501953"/>
      <use xlink:href="#ArialMT-69" x="895.117188"/>
      <use xlink:href="#ArialMT-74" x="917.333984"/>
      <use xlink:href="#ArialMT-79" x="945.117188"/>
     </g>
    </g>
   </g>
   <g id="PolyCollection_4">
    <defs>
     <path id="mc7ec94c134" d="M 207.892386 -43.198066 
L 207.892386 -42.09918 
L 209.724718 -41.278402 
L 211.55705 -40.751681 
L 213.389382 -40.607807 
L 215.221714 -40.404809 
L 217.054046 -40.293884 
L 218.886378 -40.274295 
L 220.71871 -40.141697 
L 222.551042 -39.975614 
L 224.383373 -39.740846 
L 226.215705 -39.569475 
L 228.048037 -39.647981 
L 229.880369 -39.554195 
L 231.712701 -39.361924 
L 233.545033 -39.180317 
L 235.377365 -39.02228 
L 237.209697 -38.920443 
L 239.042029 -38.811354 
L 240.87436 -38.739463 
L 242.706692 -38.704298 
L 244.539024 -38.68327 
L 246.371356 -38.690053 
L 248.203688 -38.694511 
L 250.03602 -38.887995 
L 251.868352 -38.958977 
L 253.700684 -39.295344 
L 255.533016 -39.396629 
L 257.365348 -39.487286 
L 259.197679 -39.60129 
L 261.030011 -39.686035 
L 262.862343 -39.730589 
L 264.694675 -39.788074 
L 266.527007 -39.764927 
L 268.359339 -39.799989 
L 270.191671 -39.822778 
L 272.024003 -39.78421 
L 273.856335 -40.061512 
L 275.688667 -39.997567 
L 277.520998 -39.989186 
L 279.35333 -40.124765 
L 281.185662 -40.050286 
L 283.017994 -39.964544 
L 284.850326 -39.877612 
L 286.682658 -39.767705 
L 288.51499 -39.688551 
L 290.347322 -39.612843 
L 292.179654 -39.553399 
L 294.011985 -39.534736 
L 295.844317 -39.80076 
L 297.676649 -39.762293 
L 299.508981 -39.717761 
L 301.341313 -39.632693 
L 303.173645 -39.757752 
L 305.005977 -39.688392 
L 306.838309 -39.570694 
L 308.670641 -39.530803 
L 310.502973 -39.450613 
L 312.335304 -39.382144 
L 312.335304 -40.040026 
L 312.335304 -40.040026 
L 310.502973 -40.144838 
L 308.670641 -40.223551 
L 306.838309 -40.313672 
L 305.005977 -40.386612 
L 303.173645 -40.48884 
L 301.341313 -40.36693 
L 299.508981 -40.44741 
L 297.676649 -40.48417 
L 295.844317 -40.483249 
L 294.011985 -40.258136 
L 292.179654 -40.30378 
L 290.347322 -40.330773 
L 288.51499 -40.370078 
L 286.682658 -40.494388 
L 284.850326 -40.579597 
L 283.017994 -40.722717 
L 281.185662 -40.788931 
L 279.35333 -40.930184 
L 277.520998 -40.757412 
L 275.688667 -40.797172 
L 273.856335 -40.83512 
L 272.024003 -40.569337 
L 270.191671 -40.581032 
L 268.359339 -40.594068 
L 266.527007 -40.543947 
L 264.694675 -40.543069 
L 262.862343 -40.490803 
L 261.030011 -40.424912 
L 259.197679 -40.345299 
L 257.365348 -40.243989 
L 255.533016 -40.179805 
L 253.700684 -40.093975 
L 251.868352 -39.670615 
L 250.03602 -39.614956 
L 248.203688 -39.388276 
L 246.371356 -39.365975 
L 244.539024 -39.364529 
L 242.706692 -39.380857 
L 240.87436 -39.438896 
L 239.042029 -39.4841 
L 237.209697 -39.612612 
L 235.377365 -39.741175 
L 233.545033 -39.921422 
L 231.712701 -40.087726 
L 229.880369 -40.292627 
L 228.048037 -40.406354 
L 226.215705 -40.340123 
L 224.383373 -40.518464 
L 222.551042 -40.746817 
L 220.71871 -40.971984 
L 218.886378 -41.121871 
L 217.054046 -41.222795 
L 215.221714 -41.286317 
L 213.389382 -41.496171 
L 211.55705 -41.70769 
L 209.724718 -42.243878 
L 207.892386 -43.198066 
z
" style="stroke: #4c72b0; stroke-opacity: 0.2; stroke-width: 0.8"/>
    </defs>
    <g clip-path="url(#p9e59b96ba8)">
     <use xlink:href="#mc7ec94c134" x="0" y="160.84143" style="fill: #4c72b0; fill-opacity: 0.2; stroke: #4c72b0; stroke-opacity: 0.2; stroke-width: 0.8"/>
    </g>
   </g>
   <g id="PolyCollection_5">
    <defs>
     <path id="mb9ef040177" d="M 207.892386 -43.267036 
L 207.892386 -42.096932 
L 209.724718 -41.255363 
L 211.55705 -40.751762 
L 213.389382 -40.530929 
L 215.221714 -40.366739 
L 217.054046 -40.288709 
L 218.886378 -40.244825 
L 220.71871 -40.147187 
L 222.551042 -39.974715 
L 224.383373 -39.738993 
L 226.215705 -39.577991 
L 228.048037 -39.651358 
L 229.880369 -39.549452 
L 231.712701 -39.360926 
L 233.545033 -39.199353 
L 235.377365 -39.033699 
L 237.209697 -38.925644 
L 239.042029 -38.778156 
L 240.87436 -38.764605 
L 242.706692 -38.729743 
L 244.539024 -38.653473 
L 246.371356 -38.693289 
L 248.203688 -38.701303 
L 250.03602 -38.925195 
L 251.868352 -38.950953 
L 253.700684 -39.281111 
L 255.533016 -39.368248 
L 257.365348 -39.476861 
L 259.197679 -39.578871 
L 261.030011 -39.649688 
L 262.862343 -39.68813 
L 264.694675 -39.739544 
L 266.527007 -39.790714 
L 268.359339 -39.793738 
L 270.191671 -39.763336 
L 272.024003 -39.79259 
L 273.856335 -40.027274 
L 275.688667 -40.01315 
L 277.520998 -39.986769 
L 279.35333 -40.122326 
L 281.185662 -40.01855 
L 283.017994 -39.97247 
L 284.850326 -39.826879 
L 286.682658 -39.742475 
L 288.51499 -39.652797 
L 290.347322 -39.606936 
L 292.179654 -39.572107 
L 294.011985 -39.516565 
L 295.844317 -39.739268 
L 297.676649 -39.742244 
L 299.508981 -39.684455 
L 301.341313 -39.665197 
L 303.173645 -39.727383 
L 305.005977 -39.65528 
L 306.838309 -39.565643 
L 308.670641 -39.511844 
L 310.502973 -39.407254 
L 312.335304 -39.341403 
L 312.335304 -40.040219 
L 312.335304 -40.040219 
L 310.502973 -40.12347 
L 308.670641 -40.218694 
L 306.838309 -40.277309 
L 305.005977 -40.364503 
L 303.173645 -40.459736 
L 301.341313 -40.356965 
L 299.508981 -40.434122 
L 297.676649 -40.448326 
L 295.844317 -40.480577 
L 294.011985 -40.252691 
L 292.179654 -40.273553 
L 290.347322 -40.331286 
L 288.51499 -40.381106 
L 286.682658 -40.452778 
L 284.850326 -40.565055 
L 283.017994 -40.699005 
L 281.185662 -40.814013 
L 279.35333 -40.888592 
L 277.520998 -40.758457 
L 275.688667 -40.788867 
L 273.856335 -40.808543 
L 272.024003 -40.570237 
L 270.191671 -40.546377 
L 268.359339 -40.58564 
L 266.527007 -40.560855 
L 264.694675 -40.543822 
L 262.862343 -40.48335 
L 261.030011 -40.439315 
L 259.197679 -40.326876 
L 257.365348 -40.257249 
L 255.533016 -40.138485 
L 253.700684 -40.0745 
L 251.868352 -39.698726 
L 250.03602 -39.64507 
L 248.203688 -39.413575 
L 246.371356 -39.379901 
L 244.539024 -39.385205 
L 242.706692 -39.42382 
L 240.87436 -39.483917 
L 239.042029 -39.506507 
L 237.209697 -39.633558 
L 235.377365 -39.749585 
L 233.545033 -39.905099 
L 231.712701 -40.082989 
L 229.880369 -40.343316 
L 228.048037 -40.44431 
L 226.215705 -40.338463 
L 224.383373 -40.536288 
L 222.551042 -40.757807 
L 220.71871 -40.985501 
L 218.886378 -41.107771 
L 217.054046 -41.186834 
L 215.221714 -41.285688 
L 213.389382 -41.491165 
L 211.55705 -41.697224 
L 209.724718 -42.220558 
L 207.892386 -43.267036 
z
" style="stroke: #dd8452; stroke-opacity: 0.2; stroke-width: 0.8"/>
    </defs>
    <g clip-path="url(#p9e59b96ba8)">
     <use xlink:href="#mb9ef040177" x="0" y="160.84143" style="fill: #dd8452; fill-opacity: 0.2; stroke: #dd8452; stroke-opacity: 0.2; stroke-width: 0.8"/>
    </g>
   </g>
   <g id="PolyCollection_6">
    <defs>
     <path id="m52701f91b1" d="M 207.892386 -53.476295 
L 207.892386 -50.452068 
L 209.724718 -49.359685 
L 211.55705 -48.859097 
L 213.389382 -48.668509 
L 215.221714 -48.351284 
L 217.054046 -47.697991 
L 218.886378 -47.60701 
L 220.71871 -47.677385 
L 222.551042 -47.597935 
L 224.383373 -47.314851 
L 226.215705 -47.191675 
L 228.048037 -47.291861 
L 229.880369 -47.152761 
L 231.712701 -46.767955 
L 233.545033 -46.671934 
L 235.377365 -46.558663 
L 237.209697 -46.453446 
L 239.042029 -46.562807 
L 240.87436 -46.292655 
L 242.706692 -46.255856 
L 244.539024 -45.896833 
L 246.371356 -45.681298 
L 248.203688 -45.265299 
L 250.03602 -45.373683 
L 251.868352 -45.253357 
L 253.700684 -45.674003 
L 255.533016 -45.886937 
L 257.365348 -45.94333 
L 259.197679 -46.173581 
L 261.030011 -46.201747 
L 262.862343 -46.073529 
L 264.694675 -45.890008 
L 266.527007 -45.712145 
L 268.359339 -45.509393 
L 270.191671 -45.505021 
L 272.024003 -45.739996 
L 273.856335 -45.873169 
L 275.688667 -45.951632 
L 277.520998 -45.946522 
L 279.35333 -45.955693 
L 281.185662 -45.936309 
L 283.017994 -45.648607 
L 284.850326 -45.302582 
L 286.682658 -44.872677 
L 288.51499 -44.585105 
L 290.347322 -44.497403 
L 292.179654 -44.401183 
L 294.011985 -44.465257 
L 295.844317 -44.711444 
L 297.676649 -44.671357 
L 299.508981 -44.725372 
L 301.341313 -44.696933 
L 303.173645 -44.86578 
L 305.005977 -44.905218 
L 306.838309 -44.81216 
L 308.670641 -44.619969 
L 310.502973 -44.534776 
L 312.335304 -44.359637 
L 312.335304 -46.5145 
L 312.335304 -46.5145 
L 310.502973 -46.646091 
L 308.670641 -46.857205 
L 306.838309 -47.053553 
L 305.005977 -47.174691 
L 303.173645 -47.144641 
L 301.341313 -46.92398 
L 299.508981 -46.911792 
L 297.676649 -46.91935 
L 295.844317 -46.834263 
L 294.011985 -46.50987 
L 292.179654 -46.567927 
L 290.347322 -46.569609 
L 288.51499 -46.867141 
L 286.682658 -47.104936 
L 284.850326 -47.603014 
L 283.017994 -48.123306 
L 281.185662 -48.33524 
L 279.35333 -48.451122 
L 277.520998 -48.420317 
L 275.688667 -48.577684 
L 273.856335 -48.19409 
L 272.024003 -48.075657 
L 270.191671 -47.874924 
L 268.359339 -48.02809 
L 266.527007 -48.329958 
L 264.694675 -48.523775 
L 262.862343 -48.843793 
L 261.030011 -48.884079 
L 259.197679 -48.912551 
L 257.365348 -48.731518 
L 255.533016 -48.587853 
L 253.700684 -48.366267 
L 251.868352 -48.066354 
L 250.03602 -47.977823 
L 248.203688 -48.007225 
L 246.371356 -48.522027 
L 244.539024 -48.740284 
L 242.706692 -49.204909 
L 240.87436 -49.381109 
L 239.042029 -49.568256 
L 237.209697 -49.508124 
L 235.377365 -49.666958 
L 233.545033 -49.679033 
L 231.712701 -49.734321 
L 229.880369 -50.254371 
L 228.048037 -50.350124 
L 226.215705 -50.140079 
L 224.383373 -50.489464 
L 222.551042 -50.359665 
L 220.71871 -50.496307 
L 218.886378 -50.557492 
L 217.054046 -50.599132 
L 215.221714 -51.61456 
L 213.389382 -51.829065 
L 211.55705 -51.991516 
L 209.724718 -52.454114 
L 207.892386 -53.476295 
z
" style="stroke: #55a868; stroke-opacity: 0.2; stroke-width: 0.8"/>
    </defs>
    <g clip-path="url(#p9e59b96ba8)">
     <use xlink:href="#m52701f91b1" x="0" y="160.84143" style="fill: #55a868; fill-opacity: 0.2; stroke: #55a868; stroke-opacity: 0.2; stroke-width: 0.8"/>
    </g>
   </g>
   <g id="line2d_26">
    <path d="M 207.892386 118.199743 
L 209.724718 119.109474 
L 211.55705 119.614627 
L 213.389382 119.815618 
L 215.221714 120.003552 
L 217.054046 120.106067 
L 218.886378 120.147721 
L 220.71871 120.279501 
L 222.551042 120.483973 
L 224.383373 120.703218 
L 226.215705 120.88634 
L 228.048037 120.807291 
L 229.880369 120.911643 
L 231.712701 121.132311 
L 233.545033 121.307268 
L 235.377365 121.454088 
L 237.209697 121.577012 
L 239.042029 121.687495 
L 240.87436 121.750379 
L 242.706692 121.797539 
L 244.539024 121.831255 
L 246.371356 121.820386 
L 248.203688 121.797731 
L 250.03602 121.584066 
L 251.868352 121.529978 
L 253.700684 121.157661 
L 255.533016 121.066533 
L 257.365348 120.963052 
L 259.197679 120.871126 
L 261.030011 120.792024 
L 262.862343 120.735466 
L 264.694675 120.692283 
L 266.527007 120.664424 
L 268.359339 120.645334 
L 270.191671 120.653896 
L 272.024003 120.668025 
L 273.856335 120.406878 
L 275.688667 120.433586 
L 277.520998 120.472694 
L 279.35333 120.323531 
L 281.185662 120.412657 
L 283.017994 120.50758 
L 284.850326 120.615654 
L 286.682658 120.716684 
L 288.51499 120.804571 
L 290.347322 120.8634 
L 292.179654 120.907658 
L 294.011985 120.94466 
L 295.844317 120.717899 
L 297.676649 120.737162 
L 299.508981 120.769881 
L 301.341313 120.820145 
L 303.173645 120.730484 
L 305.005977 120.811114 
L 306.838309 120.89456 
L 308.670641 120.972127 
L 310.502973 121.048107 
L 312.335304 121.138553 
" clip-path="url(#p9e59b96ba8)" style="fill: none; stroke: #4c72b0; stroke-width: 1.2; stroke-linecap: round"/>
   </g>
   <g id="line2d_27">
    <path d="M 207.892386 118.177724 
L 209.724718 119.104331 
L 211.55705 119.628506 
L 213.389382 119.821292 
L 215.221714 120.016816 
L 217.054046 120.111441 
L 218.886378 120.160475 
L 220.71871 120.29219 
L 222.551042 120.492677 
L 224.383373 120.707851 
L 226.215705 120.892292 
L 228.048037 120.812344 
L 229.880369 120.913397 
L 231.712701 121.13634 
L 233.545033 121.308429 
L 235.377365 121.451719 
L 237.209697 121.574223 
L 239.042029 121.685307 
L 240.87436 121.744113 
L 242.706692 121.794909 
L 244.539024 121.83464 
L 246.371356 121.82061 
L 248.203688 121.796648 
L 250.03602 121.576339 
L 251.868352 121.52652 
L 253.700684 121.158152 
L 255.533016 121.073129 
L 257.365348 120.975315 
L 259.197679 120.888351 
L 261.030011 120.803722 
L 262.862343 120.743879 
L 264.694675 120.7021 
L 266.527007 120.675231 
L 268.359339 120.659321 
L 270.191671 120.664821 
L 272.024003 120.676452 
L 273.856335 120.418534 
L 275.688667 120.447704 
L 277.520998 120.485094 
L 279.35333 120.338124 
L 281.185662 120.427279 
L 283.017994 120.523333 
L 284.850326 120.631709 
L 286.682658 120.729376 
L 288.51499 120.816163 
L 290.347322 120.874401 
L 292.179654 120.920672 
L 294.011985 120.957151 
L 295.844317 120.734852 
L 297.676649 120.754392 
L 299.508981 120.784901 
L 301.341313 120.832725 
L 303.173645 120.742892 
L 305.005977 120.824777 
L 306.838309 120.909935 
L 308.670641 120.986567 
L 310.502973 121.062177 
L 312.335304 121.153459 
" clip-path="url(#p9e59b96ba8)" style="fill: none; stroke: #dd8452; stroke-width: 1.2; stroke-linecap: round"/>
   </g>
   <g id="line2d_28">
    <path d="M 207.892386 108.857117 
L 209.724718 109.957787 
L 211.55705 110.475556 
L 213.389382 110.664067 
L 215.221714 110.838714 
L 217.054046 111.679992 
L 218.886378 111.737725 
L 220.71871 111.777387 
L 222.551042 111.863039 
L 224.383373 112.009729 
L 226.215705 112.134651 
L 228.048037 112.056032 
L 229.880369 112.257724 
L 231.712701 112.566758 
L 233.545033 112.678487 
L 235.377365 112.771365 
L 237.209697 112.860741 
L 239.042029 112.841967 
L 240.87436 112.930416 
L 242.706692 113.134844 
L 244.539024 113.503788 
L 246.371356 113.787595 
L 248.203688 114.217897 
L 250.03602 114.208911 
L 251.868352 114.218943 
L 253.700684 113.813708 
L 255.533016 113.66453 
L 257.365348 113.537727 
L 259.197679 113.349026 
L 261.030011 113.254861 
L 262.862343 113.320988 
L 264.694675 113.675279 
L 266.527007 113.829333 
L 268.359339 114.154252 
L 270.191671 114.167484 
L 272.024003 114.014005 
L 273.856335 113.801332 
L 275.688667 113.658668 
L 277.520998 113.672885 
L 279.35333 113.567336 
L 281.185662 113.681508 
L 283.017994 113.991068 
L 284.850326 114.443317 
L 286.682658 114.799783 
L 288.51499 115.156096 
L 290.347322 115.298386 
L 292.179654 115.359749 
L 294.011985 115.333744 
L 295.844317 115.126271 
L 297.676649 115.067913 
L 299.508981 115.043999 
L 301.341313 115.020804 
L 303.173645 114.890942 
L 305.005977 114.940586 
L 306.838309 114.967716 
L 308.670641 115.096382 
L 310.502973 115.321059 
L 312.335304 115.426655 
" clip-path="url(#p9e59b96ba8)" style="fill: none; stroke: #55a868; stroke-width: 1.2; stroke-linecap: round"/>
   </g>
   <g id="patch_6">
    <path d="M 202.67024 126.51768 
L 202.67024 34.826445 
" style="fill: none; stroke: #ffffff; stroke-linejoin: miter; stroke-linecap: square"/>
   </g>
   <g id="patch_7">
    <path d="M 202.67024 126.51768 
L 317.55745 126.51768 
" style="fill: none; stroke: #ffffff; stroke-linejoin: miter; stroke-linecap: square"/>
   </g>
   <g id="text_25">
    <!-- Gini -->
    <g style="fill: #262626" transform="translate(253.285245 28.826445) scale(0.0768 -0.0768)">
     <defs>
      <path id="ArialMT-47" d="M 2638 1797 
L 2638 2334 
L 4578 2338 
L 4578 638 
Q 4131 281 3656 101 
Q 3181 -78 2681 -78 
Q 2006 -78 1454 211 
Q 903 500 622 1047 
Q 341 1594 341 2269 
Q 341 2938 620 3517 
Q 900 4097 1425 4378 
Q 1950 4659 2634 4659 
Q 3131 4659 3532 4498 
Q 3934 4338 4162 4050 
Q 4391 3763 4509 3300 
L 3963 3150 
Q 3859 3500 3706 3700 
Q 3553 3900 3268 4020 
Q 2984 4141 2638 4141 
Q 2222 4141 1919 4014 
Q 1616 3888 1430 3681 
Q 1244 3475 1141 3228 
Q 966 2803 966 2306 
Q 966 1694 1177 1281 
Q 1388 869 1791 669 
Q 2194 469 2647 469 
Q 3041 469 3416 620 
Q 3791 772 3984 944 
L 3984 1797 
L 2638 1797 
z
" transform="scale(0.015625)"/>
     </defs>
     <use xlink:href="#ArialMT-47"/>
     <use xlink:href="#ArialMT-69" x="77.783203"/>
     <use xlink:href="#ArialMT-6e" x="100"/>
     <use xlink:href="#ArialMT-69" x="155.615234"/>
    </g>
   </g>
  </g>
  <g id="text_26">
   <!-- Bogot -->
   <g style="fill: #262626" transform="translate(166.148075 12.9575) scale(0.08 -0.08)">
    <defs>
     <path id="ArialMT-42" d="M 469 0 
L 469 4581 
L 2188 4581 
Q 2713 4581 3030 4442 
Q 3347 4303 3526 4014 
Q 3706 3725 3706 3409 
Q 3706 3116 3547 2856 
Q 3388 2597 3066 2438 
Q 3481 2316 3704 2022 
Q 3928 1728 3928 1328 
Q 3928 1006 3792 729 
Q 3656 453 3456 303 
Q 3256 153 2954 76 
Q 2653 0 2216 0 
L 469 0 
z
M 1075 2656 
L 2066 2656 
Q 2469 2656 2644 2709 
Q 2875 2778 2992 2937 
Q 3109 3097 3109 3338 
Q 3109 3566 3000 3739 
Q 2891 3913 2687 3977 
Q 2484 4041 1991 4041 
L 1075 4041 
L 1075 2656 
z
M 1075 541 
L 2216 541 
Q 2509 541 2628 563 
Q 2838 600 2978 687 
Q 3119 775 3209 942 
Q 3300 1109 3300 1328 
Q 3300 1584 3169 1773 
Q 3038 1963 2805 2039 
Q 2572 2116 2134 2116 
L 1075 2116 
L 1075 541 
z
" transform="scale(0.015625)"/>
     <path id="ArialMT-e1" d="M 2588 409 
Q 2275 144 1986 34 
Q 1697 -75 1366 -75 
Q 819 -75 525 192 
Q 231 459 231 875 
Q 231 1119 342 1320 
Q 453 1522 633 1644 
Q 813 1766 1038 1828 
Q 1203 1872 1538 1913 
Q 2219 1994 2541 2106 
Q 2544 2222 2544 2253 
Q 2544 2597 2384 2738 
Q 2169 2928 1744 2928 
Q 1347 2928 1158 2789 
Q 969 2650 878 2297 
L 328 2372 
Q 403 2725 575 2942 
Q 747 3159 1072 3276 
Q 1397 3394 1825 3394 
Q 2250 3394 2515 3294 
Q 2781 3194 2906 3042 
Q 3031 2891 3081 2659 
Q 3109 2516 3109 2141 
L 3109 1391 
Q 3109 606 3145 398 
Q 3181 191 3288 0 
L 2700 0 
Q 2613 175 2588 409 
z
M 2541 1666 
Q 2234 1541 1622 1453 
Q 1275 1403 1131 1340 
Q 988 1278 909 1158 
Q 831 1038 831 891 
Q 831 666 1001 516 
Q 1172 366 1500 366 
Q 1825 366 2078 508 
Q 2331 650 2450 897 
Q 2541 1088 2541 1459 
L 2541 1666 
z
M 1446 3731 
L 1861 4606 
L 2599 4606 
L 1911 3731 
L 1446 3731 
z
" transform="scale(0.015625)"/>
    </defs>
    <use xlink:href="#ArialMT-42"/>
    <use xlink:href="#ArialMT-6f" x="66.699219"/>
    <use xlink:href="#ArialMT-67" x="122.314453"/>
    <use xlink:href="#ArialMT-6f" x="177.929688"/>
    <use xlink:href="#ArialMT-74" x="233.544922"/>
    <use xlink:href="#ArialMT-e1" x="261.328125"/>
   </g>
  </g>
  <g id="legend_1">
   <g id="text_27">
    <!-- Model -->
    <g style="fill: #262626" transform="translate(332.19075 67.6332) scale(0.0768 -0.0768)">
     <defs>
      <path id="ArialMT-6c" d="M 409 0 
L 409 4581 
L 972 4581 
L 972 0 
L 409 0 
z
" transform="scale(0.015625)"/>
     </defs>
     <use xlink:href="#ArialMT-4d"/>
     <use xlink:href="#ArialMT-6f" x="83.300781"/>
     <use xlink:href="#ArialMT-64" x="138.916016"/>
     <use xlink:href="#ArialMT-65" x="194.53125"/>
     <use xlink:href="#ArialMT-6c" x="250.146484"/>
    </g>
   </g>
   <g id="line2d_29">
    <path d="M 323.40095 75.2547 
L 330.44095 75.2547 
L 337.48095 75.2547 
" style="fill: none; stroke: #4c72b0; stroke-width: 1.2; stroke-linecap: round"/>
   </g>
   <g id="text_28">
    <!-- Naive -->
    <g style="fill: #262626" transform="translate(343.11295 77.7187) scale(0.0704 -0.0704)">
     <defs>
      <path id="ArialMT-4e" d="M 488 0 
L 488 4581 
L 1109 4581 
L 3516 984 
L 3516 4581 
L 4097 4581 
L 4097 0 
L 3475 0 
L 1069 3600 
L 1069 0 
L 488 0 
z
" transform="scale(0.015625)"/>
     </defs>
     <use xlink:href="#ArialMT-4e"/>
     <use xlink:href="#ArialMT-61" x="72.216797"/>
     <use xlink:href="#ArialMT-69" x="127.832031"/>
     <use xlink:href="#ArialMT-76" x="150.048828"/>
     <use xlink:href="#ArialMT-65" x="200.048828"/>
    </g>
   </g>
   <g id="line2d_30">
    <path d="M 323.40095 85.213 
L 330.44095 85.213 
L 337.48095 85.213 
" style="fill: none; stroke: #dd8452; stroke-width: 1.2; stroke-linecap: round"/>
   </g>
   <g id="text_29">
    <!-- KDE -->
    <g style="fill: #262626" transform="translate(343.11295 87.677) scale(0.0704 -0.0704)">
     <defs>
      <path id="ArialMT-4b" d="M 469 0 
L 469 4581 
L 1075 4581 
L 1075 2309 
L 3350 4581 
L 4172 4581 
L 2250 2725 
L 4256 0 
L 3456 0 
L 1825 2319 
L 1075 1588 
L 1075 0 
L 469 0 
z
" transform="scale(0.015625)"/>
      <path id="ArialMT-44" d="M 494 0 
L 494 4581 
L 2072 4581 
Q 2606 4581 2888 4516 
Q 3281 4425 3559 4188 
Q 3922 3881 4101 3404 
Q 4281 2928 4281 2316 
Q 4281 1794 4159 1391 
Q 4038 988 3847 723 
Q 3656 459 3429 307 
Q 3203 156 2883 78 
Q 2563 0 2147 0 
L 494 0 
z
M 1100 541 
L 2078 541 
Q 2531 541 2789 625 
Q 3047 709 3200 863 
Q 3416 1078 3536 1442 
Q 3656 1806 3656 2325 
Q 3656 3044 3420 3430 
Q 3184 3816 2847 3947 
Q 2603 4041 2063 4041 
L 1100 4041 
L 1100 541 
z
" transform="scale(0.015625)"/>
      <path id="ArialMT-45" d="M 506 0 
L 506 4581 
L 3819 4581 
L 3819 4041 
L 1113 4041 
L 1113 2638 
L 3647 2638 
L 3647 2100 
L 1113 2100 
L 1113 541 
L 3925 541 
L 3925 0 
L 506 0 
z
" transform="scale(0.015625)"/>
     </defs>
     <use xlink:href="#ArialMT-4b"/>
     <use xlink:href="#ArialMT-44" x="66.699219"/>
     <use xlink:href="#ArialMT-45" x="138.916016"/>
    </g>
   </g>
   <g id="line2d_31">
    <path d="M 323.40095 95.1713 
L 330.44095 95.1713 
L 337.48095 95.1713 
" style="fill: none; stroke: #55a868; stroke-width: 1.2; stroke-linecap: round"/>
   </g>
   <g id="text_30">
    <!-- SEPP -->
    <g style="fill: #262626" transform="translate(343.11295 97.6353) scale(0.0704 -0.0704)">
     <defs>
      <path id="ArialMT-53" d="M 288 1472 
L 859 1522 
Q 900 1178 1048 958 
Q 1197 738 1509 602 
Q 1822 466 2213 466 
Q 2559 466 2825 569 
Q 3091 672 3220 851 
Q 3350 1031 3350 1244 
Q 3350 1459 3225 1620 
Q 3100 1781 2813 1891 
Q 2628 1963 1997 2114 
Q 1366 2266 1113 2400 
Q 784 2572 623 2826 
Q 463 3081 463 3397 
Q 463 3744 659 4045 
Q 856 4347 1234 4503 
Q 1613 4659 2075 4659 
Q 2584 4659 2973 4495 
Q 3363 4331 3572 4012 
Q 3781 3694 3797 3291 
L 3216 3247 
Q 3169 3681 2898 3903 
Q 2628 4125 2100 4125 
Q 1550 4125 1298 3923 
Q 1047 3722 1047 3438 
Q 1047 3191 1225 3031 
Q 1400 2872 2139 2705 
Q 2878 2538 3153 2413 
Q 3553 2228 3743 1945 
Q 3934 1663 3934 1294 
Q 3934 928 3725 604 
Q 3516 281 3123 101 
Q 2731 -78 2241 -78 
Q 1619 -78 1198 103 
Q 778 284 539 648 
Q 300 1013 288 1472 
z
" transform="scale(0.015625)"/>
     </defs>
     <use xlink:href="#ArialMT-53"/>
     <use xlink:href="#ArialMT-45" x="66.699219"/>
     <use xlink:href="#ArialMT-50" x="133.398438"/>
     <use xlink:href="#ArialMT-50" x="200.097656"/>
    </g>
   </g>
  </g>
 </g>
 <defs>
  <clipPath id="p214746922b">
   <rect x="38.03375" y="34.826445" width="114.88721" height="91.691235"/>
  </clipPath>
  <clipPath id="p9e59b96ba8">
   <rect x="202.67024" y="34.826445" width="114.88721" height="91.691235"/>
  </clipPath>
 </defs>
</svg>
