<?xml version="1.0" encoding="utf-8" standalone="no"?>
<!DOCTYPE svg PUBLIC "-//W3C//DTD SVG 1.1//EN"
  "http://www.w3.org/Graphics/SVG/1.1/DTD/svg11.dtd">
<svg xmlns:xlink="http://www.w3.org/1999/xlink" width="371.91255pt" height="160.84143pt" viewBox="0 0 371.91255 160.84143" xmlns="http://www.w3.org/2000/svg" version="1.1">
 <metadata>
  <rdf:RDF xmlns:dc="http://purl.org/dc/elements/1.1/" xmlns:cc="http://creativecommons.org/ns#" xmlns:rdf="http://www.w3.org/1999/02/22-rdf-syntax-ns#">
   <cc:Work>
    <dc:type rdf:resource="http://purl.org/dc/dcmitype/StillImage"/>
    <dc:date>2024-07-19T13:36:29.421601</dc:date>
    <dc:format>image/svg+xml</dc:format>
    <dc:creator>
     <cc:Agent>
      <dc:title>Matplotlib v3.8.2, https://matplotlib.org/</dc:title>
     </cc:Agent>
    </dc:creator>
   </cc:Work>
  </rdf:RDF>
 </metadata>
 <defs>
  <style type="text/css">*{stroke-linejoin: round; stroke-linecap: butt}</style>
 </defs>
 <g id="figure_1">
  <g id="patch_1">
   <path d="M 0 160.84143 
L 371.91255 160.84143 
L 371.91255 0 
L 0 0 
z
" style="fill: #ffffff"/>
  </g>
  <g id="axes_1">
   <g id="patch_2">
    <path d="M 38.03375 126.51768 
L 152.92096 126.51768 
L 152.92096 34.826445 
L 38.03375 34.826445 
z
" style="fill: #eaeaf2"/>
   </g>
   <g id="matplotlib.axis_1">
    <g id="xtick_1">
     <g id="line2d_1">
      <path d="M 39.591232 126.51768 
L 39.591232 34.826445 
" clip-path="url(#pfa4b3d4535)" style="fill: none; stroke: #ffffff; stroke-width: 0.8; stroke-linecap: round"/>
     </g>
     <g id="text_1">
      <!-- 0% -->
      <g style="fill: #262626" transform="translate(33.809982 140.54393) scale(0.08 -0.08)">
       <defs>
        <path id="ArialMT-30" d="M 266 2259 
Q 266 3072 433 3567 
Q 600 4063 929 4331 
Q 1259 4600 1759 4600 
Q 2128 4600 2406 4451 
Q 2684 4303 2865 4023 
Q 3047 3744 3150 3342 
Q 3253 2941 3253 2259 
Q 3253 1453 3087 958 
Q 2922 463 2592 192 
Q 2263 -78 1759 -78 
Q 1097 -78 719 397 
Q 266 969 266 2259 
z
M 844 2259 
Q 844 1131 1108 757 
Q 1372 384 1759 384 
Q 2147 384 2411 759 
Q 2675 1134 2675 2259 
Q 2675 3391 2411 3762 
Q 2147 4134 1753 4134 
Q 1366 4134 1134 3806 
Q 844 3388 844 2259 
z
" transform="scale(0.015625)"/>
        <path id="ArialMT-25" d="M 372 3481 
Q 372 3972 619 4315 
Q 866 4659 1334 4659 
Q 1766 4659 2048 4351 
Q 2331 4044 2331 3447 
Q 2331 2866 2045 2552 
Q 1759 2238 1341 2238 
Q 925 2238 648 2547 
Q 372 2856 372 3481 
z
M 1350 4272 
Q 1141 4272 1002 4090 
Q 863 3909 863 3425 
Q 863 2984 1003 2804 
Q 1144 2625 1350 2625 
Q 1563 2625 1702 2806 
Q 1841 2988 1841 3469 
Q 1841 3913 1700 4092 
Q 1559 4272 1350 4272 
z
M 1353 -169 
L 3859 4659 
L 4316 4659 
L 1819 -169 
L 1353 -169 
z
M 3334 1075 
Q 3334 1569 3581 1911 
Q 3828 2253 4300 2253 
Q 4731 2253 5014 1945 
Q 5297 1638 5297 1041 
Q 5297 459 5011 145 
Q 4725 -169 4303 -169 
Q 3888 -169 3611 142 
Q 3334 453 3334 1075 
z
M 4316 1866 
Q 4103 1866 3964 1684 
Q 3825 1503 3825 1019 
Q 3825 581 3965 400 
Q 4106 219 4313 219 
Q 4528 219 4667 400 
Q 4806 581 4806 1063 
Q 4806 1506 4665 1686 
Q 4525 1866 4316 1866 
z
" transform="scale(0.015625)"/>
       </defs>
       <use xlink:href="#ArialMT-30"/>
       <use xlink:href="#ArialMT-25" x="55.615234"/>
      </g>
     </g>
    </g>
    <g id="xtick_2">
     <g id="line2d_2">
      <path d="M 76.23787 126.51768 
L 76.23787 34.826445 
" clip-path="url(#pfa4b3d4535)" style="fill: none; stroke: #ffffff; stroke-width: 0.8; stroke-linecap: round"/>
     </g>
     <g id="text_2">
      <!-- 10% -->
      <g style="fill: #262626" transform="translate(68.232245 140.54393) scale(0.08 -0.08)">
       <defs>
        <path id="ArialMT-31" d="M 2384 0 
L 1822 0 
L 1822 3584 
Q 1619 3391 1289 3197 
Q 959 3003 697 2906 
L 697 3450 
Q 1169 3672 1522 3987 
Q 1875 4303 2022 4600 
L 2384 4600 
L 2384 0 
z
" transform="scale(0.015625)"/>
       </defs>
       <use xlink:href="#ArialMT-31"/>
       <use xlink:href="#ArialMT-30" x="55.615234"/>
       <use xlink:href="#ArialMT-25" x="111.230469"/>
      </g>
     </g>
    </g>
    <g id="xtick_3">
     <g id="line2d_3">
      <path d="M 112.884508 126.51768 
L 112.884508 34.826445 
" clip-path="url(#pfa4b3d4535)" style="fill: none; stroke: #ffffff; stroke-width: 0.8; stroke-linecap: round"/>
     </g>
     <g id="text_3">
      <!-- 20% -->
      <g style="fill: #262626" transform="translate(104.878883 140.54393) scale(0.08 -0.08)">
       <defs>
        <path id="ArialMT-32" d="M 3222 541 
L 3222 0 
L 194 0 
Q 188 203 259 391 
Q 375 700 629 1000 
Q 884 1300 1366 1694 
Q 2113 2306 2375 2664 
Q 2638 3022 2638 3341 
Q 2638 3675 2398 3904 
Q 2159 4134 1775 4134 
Q 1369 4134 1125 3890 
Q 881 3647 878 3216 
L 300 3275 
Q 359 3922 746 4261 
Q 1134 4600 1788 4600 
Q 2447 4600 2831 4234 
Q 3216 3869 3216 3328 
Q 3216 3053 3103 2787 
Q 2991 2522 2730 2228 
Q 2469 1934 1863 1422 
Q 1356 997 1212 845 
Q 1069 694 975 541 
L 3222 541 
z
" transform="scale(0.015625)"/>
       </defs>
       <use xlink:href="#ArialMT-32"/>
       <use xlink:href="#ArialMT-30" x="55.615234"/>
       <use xlink:href="#ArialMT-25" x="111.230469"/>
      </g>
     </g>
    </g>
    <g id="xtick_4">
     <g id="line2d_4">
      <path d="M 149.531146 126.51768 
L 149.531146 34.826445 
" clip-path="url(#pfa4b3d4535)" style="fill: none; stroke: #ffffff; stroke-width: 0.8; stroke-linecap: round"/>
     </g>
     <g id="text_4">
      <!-- 30% -->
      <g style="fill: #262626" transform="translate(141.525521 140.54393) scale(0.08 -0.08)">
       <defs>
        <path id="ArialMT-33" d="M 269 1209 
L 831 1284 
Q 928 806 1161 595 
Q 1394 384 1728 384 
Q 2125 384 2398 659 
Q 2672 934 2672 1341 
Q 2672 1728 2419 1979 
Q 2166 2231 1775 2231 
Q 1616 2231 1378 2169 
L 1441 2663 
Q 1497 2656 1531 2656 
Q 1891 2656 2178 2843 
Q 2466 3031 2466 3422 
Q 2466 3731 2256 3934 
Q 2047 4138 1716 4138 
Q 1388 4138 1169 3931 
Q 950 3725 888 3313 
L 325 3413 
Q 428 3978 793 4289 
Q 1159 4600 1703 4600 
Q 2078 4600 2393 4439 
Q 2709 4278 2876 4000 
Q 3044 3722 3044 3409 
Q 3044 3113 2884 2869 
Q 2725 2625 2413 2481 
Q 2819 2388 3044 2092 
Q 3269 1797 3269 1353 
Q 3269 753 2831 336 
Q 2394 -81 1725 -81 
Q 1122 -81 723 278 
Q 325 638 269 1209 
z
" transform="scale(0.015625)"/>
       </defs>
       <use xlink:href="#ArialMT-33"/>
       <use xlink:href="#ArialMT-30" x="55.615234"/>
       <use xlink:href="#ArialMT-25" x="111.230469"/>
      </g>
     </g>
    </g>
    <g id="text_5">
     <!-- Coverage area -->
     <g style="fill: #262626" transform="translate(69.018605 151.95768) scale(0.08 -0.08)">
      <defs>
       <path id="ArialMT-43" d="M 3763 1606 
L 4369 1453 
Q 4178 706 3683 314 
Q 3188 -78 2472 -78 
Q 1731 -78 1267 223 
Q 803 525 561 1097 
Q 319 1669 319 2325 
Q 319 3041 592 3573 
Q 866 4106 1370 4382 
Q 1875 4659 2481 4659 
Q 3169 4659 3637 4309 
Q 4106 3959 4291 3325 
L 3694 3184 
Q 3534 3684 3231 3912 
Q 2928 4141 2469 4141 
Q 1941 4141 1586 3887 
Q 1231 3634 1087 3207 
Q 944 2781 944 2328 
Q 944 1744 1114 1308 
Q 1284 872 1643 656 
Q 2003 441 2422 441 
Q 2931 441 3284 734 
Q 3638 1028 3763 1606 
z
" transform="scale(0.015625)"/>
       <path id="ArialMT-6f" d="M 213 1659 
Q 213 2581 725 3025 
Q 1153 3394 1769 3394 
Q 2453 3394 2887 2945 
Q 3322 2497 3322 1706 
Q 3322 1066 3130 698 
Q 2938 331 2570 128 
Q 2203 -75 1769 -75 
Q 1072 -75 642 372 
Q 213 819 213 1659 
z
M 791 1659 
Q 791 1022 1069 705 
Q 1347 388 1769 388 
Q 2188 388 2466 706 
Q 2744 1025 2744 1678 
Q 2744 2294 2464 2611 
Q 2184 2928 1769 2928 
Q 1347 2928 1069 2612 
Q 791 2297 791 1659 
z
" transform="scale(0.015625)"/>
       <path id="ArialMT-76" d="M 1344 0 
L 81 3319 
L 675 3319 
L 1388 1331 
Q 1503 1009 1600 663 
Q 1675 925 1809 1294 
L 2547 3319 
L 3125 3319 
L 1869 0 
L 1344 0 
z
" transform="scale(0.015625)"/>
       <path id="ArialMT-65" d="M 2694 1069 
L 3275 997 
Q 3138 488 2766 206 
Q 2394 -75 1816 -75 
Q 1088 -75 661 373 
Q 234 822 234 1631 
Q 234 2469 665 2931 
Q 1097 3394 1784 3394 
Q 2450 3394 2872 2941 
Q 3294 2488 3294 1666 
Q 3294 1616 3291 1516 
L 816 1516 
Q 847 969 1125 678 
Q 1403 388 1819 388 
Q 2128 388 2347 550 
Q 2566 713 2694 1069 
z
M 847 1978 
L 2700 1978 
Q 2663 2397 2488 2606 
Q 2219 2931 1791 2931 
Q 1403 2931 1139 2672 
Q 875 2413 847 1978 
z
" transform="scale(0.015625)"/>
       <path id="ArialMT-72" d="M 416 0 
L 416 3319 
L 922 3319 
L 922 2816 
Q 1116 3169 1280 3281 
Q 1444 3394 1641 3394 
Q 1925 3394 2219 3213 
L 2025 2691 
Q 1819 2813 1613 2813 
Q 1428 2813 1281 2702 
Q 1134 2591 1072 2394 
Q 978 2094 978 1738 
L 978 0 
L 416 0 
z
" transform="scale(0.015625)"/>
       <path id="ArialMT-61" d="M 2588 409 
Q 2275 144 1986 34 
Q 1697 -75 1366 -75 
Q 819 -75 525 192 
Q 231 459 231 875 
Q 231 1119 342 1320 
Q 453 1522 633 1644 
Q 813 1766 1038 1828 
Q 1203 1872 1538 1913 
Q 2219 1994 2541 2106 
Q 2544 2222 2544 2253 
Q 2544 2597 2384 2738 
Q 2169 2928 1744 2928 
Q 1347 2928 1158 2789 
Q 969 2650 878 2297 
L 328 2372 
Q 403 2725 575 2942 
Q 747 3159 1072 3276 
Q 1397 3394 1825 3394 
Q 2250 3394 2515 3294 
Q 2781 3194 2906 3042 
Q 3031 2891 3081 2659 
Q 3109 2516 3109 2141 
L 3109 1391 
Q 3109 606 3145 398 
Q 3181 191 3288 0 
L 2700 0 
Q 2613 175 2588 409 
z
M 2541 1666 
Q 2234 1541 1622 1453 
Q 1275 1403 1131 1340 
Q 988 1278 909 1158 
Q 831 1038 831 891 
Q 831 666 1001 516 
Q 1172 366 1500 366 
Q 1825 366 2078 508 
Q 2331 650 2450 897 
Q 2541 1088 2541 1459 
L 2541 1666 
z
" transform="scale(0.015625)"/>
       <path id="ArialMT-67" d="M 319 -275 
L 866 -356 
Q 900 -609 1056 -725 
Q 1266 -881 1628 -881 
Q 2019 -881 2231 -725 
Q 2444 -569 2519 -288 
Q 2563 -116 2559 434 
Q 2191 0 1641 0 
Q 956 0 581 494 
Q 206 988 206 1678 
Q 206 2153 378 2554 
Q 550 2956 876 3175 
Q 1203 3394 1644 3394 
Q 2231 3394 2613 2919 
L 2613 3319 
L 3131 3319 
L 3131 450 
Q 3131 -325 2973 -648 
Q 2816 -972 2473 -1159 
Q 2131 -1347 1631 -1347 
Q 1038 -1347 672 -1080 
Q 306 -813 319 -275 
z
M 784 1719 
Q 784 1066 1043 766 
Q 1303 466 1694 466 
Q 2081 466 2343 764 
Q 2606 1063 2606 1700 
Q 2606 2309 2336 2618 
Q 2066 2928 1684 2928 
Q 1309 2928 1046 2623 
Q 784 2319 784 1719 
z
" transform="scale(0.015625)"/>
       <path id="ArialMT-20" transform="scale(0.015625)"/>
      </defs>
      <use xlink:href="#ArialMT-43"/>
      <use xlink:href="#ArialMT-6f" x="72.216797"/>
      <use xlink:href="#ArialMT-76" x="127.832031"/>
      <use xlink:href="#ArialMT-65" x="177.832031"/>
      <use xlink:href="#ArialMT-72" x="233.447266"/>
      <use xlink:href="#ArialMT-61" x="266.748047"/>
      <use xlink:href="#ArialMT-67" x="322.363281"/>
      <use xlink:href="#ArialMT-65" x="377.978516"/>
      <use xlink:href="#ArialMT-20" x="433.59375"/>
      <use xlink:href="#ArialMT-61" x="461.376953"/>
      <use xlink:href="#ArialMT-72" x="516.992188"/>
      <use xlink:href="#ArialMT-65" x="550.292969"/>
      <use xlink:href="#ArialMT-61" x="605.908203"/>
     </g>
    </g>
   </g>
   <g id="matplotlib.axis_2">
    <g id="ytick_1">
     <g id="line2d_5">
      <path d="M 38.03375 126.51768 
L 152.92096 126.51768 
" clip-path="url(#pfa4b3d4535)" style="fill: none; stroke: #ffffff; stroke-width: 0.8; stroke-linecap: round"/>
     </g>
     <g id="text_6">
      <!-- 0.0 -->
      <g style="fill: #262626" transform="translate(18.61375 129.380805) scale(0.08 -0.08)">
       <defs>
        <path id="ArialMT-2e" d="M 581 0 
L 581 641 
L 1222 641 
L 1222 0 
L 581 0 
z
" transform="scale(0.015625)"/>
       </defs>
       <use xlink:href="#ArialMT-30"/>
       <use xlink:href="#ArialMT-2e" x="55.615234"/>
       <use xlink:href="#ArialMT-30" x="83.398438"/>
      </g>
     </g>
    </g>
    <g id="ytick_2">
     <g id="line2d_6">
      <path d="M 38.03375 108.179433 
L 152.92096 108.179433 
" clip-path="url(#pfa4b3d4535)" style="fill: none; stroke: #ffffff; stroke-width: 0.8; stroke-linecap: round"/>
     </g>
     <g id="text_7">
      <!-- 0.2 -->
      <g style="fill: #262626" transform="translate(18.61375 111.042558) scale(0.08 -0.08)">
       <use xlink:href="#ArialMT-30"/>
       <use xlink:href="#ArialMT-2e" x="55.615234"/>
       <use xlink:href="#ArialMT-32" x="83.398438"/>
      </g>
     </g>
    </g>
    <g id="ytick_3">
     <g id="line2d_7">
      <path d="M 38.03375 89.841186 
L 152.92096 89.841186 
" clip-path="url(#pfa4b3d4535)" style="fill: none; stroke: #ffffff; stroke-width: 0.8; stroke-linecap: round"/>
     </g>
     <g id="text_8">
      <!-- 0.4 -->
      <g style="fill: #262626" transform="translate(18.61375 92.704311) scale(0.08 -0.08)">
       <defs>
        <path id="ArialMT-34" d="M 2069 0 
L 2069 1097 
L 81 1097 
L 81 1613 
L 2172 4581 
L 2631 4581 
L 2631 1613 
L 3250 1613 
L 3250 1097 
L 2631 1097 
L 2631 0 
L 2069 0 
z
M 2069 1613 
L 2069 3678 
L 634 1613 
L 2069 1613 
z
" transform="scale(0.015625)"/>
       </defs>
       <use xlink:href="#ArialMT-30"/>
       <use xlink:href="#ArialMT-2e" x="55.615234"/>
       <use xlink:href="#ArialMT-34" x="83.398438"/>
      </g>
     </g>
    </g>
    <g id="ytick_4">
     <g id="line2d_8">
      <path d="M 38.03375 71.502939 
L 152.92096 71.502939 
" clip-path="url(#pfa4b3d4535)" style="fill: none; stroke: #ffffff; stroke-width: 0.8; stroke-linecap: round"/>
     </g>
     <g id="text_9">
      <!-- 0.6 -->
      <g style="fill: #262626" transform="translate(18.61375 74.366064) scale(0.08 -0.08)">
       <defs>
        <path id="ArialMT-36" d="M 3184 3459 
L 2625 3416 
Q 2550 3747 2413 3897 
Q 2184 4138 1850 4138 
Q 1581 4138 1378 3988 
Q 1113 3794 959 3422 
Q 806 3050 800 2363 
Q 1003 2672 1297 2822 
Q 1591 2972 1913 2972 
Q 2475 2972 2870 2558 
Q 3266 2144 3266 1488 
Q 3266 1056 3080 686 
Q 2894 316 2569 119 
Q 2244 -78 1831 -78 
Q 1128 -78 684 439 
Q 241 956 241 2144 
Q 241 3472 731 4075 
Q 1159 4600 1884 4600 
Q 2425 4600 2770 4297 
Q 3116 3994 3184 3459 
z
M 888 1484 
Q 888 1194 1011 928 
Q 1134 663 1356 523 
Q 1578 384 1822 384 
Q 2178 384 2434 671 
Q 2691 959 2691 1453 
Q 2691 1928 2437 2201 
Q 2184 2475 1800 2475 
Q 1419 2475 1153 2201 
Q 888 1928 888 1484 
z
" transform="scale(0.015625)"/>
       </defs>
       <use xlink:href="#ArialMT-30"/>
       <use xlink:href="#ArialMT-2e" x="55.615234"/>
       <use xlink:href="#ArialMT-36" x="83.398438"/>
      </g>
     </g>
    </g>
    <g id="ytick_5">
     <g id="line2d_9">
      <path d="M 38.03375 53.164692 
L 152.92096 53.164692 
" clip-path="url(#pfa4b3d4535)" style="fill: none; stroke: #ffffff; stroke-width: 0.8; stroke-linecap: round"/>
     </g>
     <g id="text_10">
      <!-- 0.8 -->
      <g style="fill: #262626" transform="translate(18.61375 56.027817) scale(0.08 -0.08)">
       <defs>
        <path id="ArialMT-38" d="M 1131 2484 
Q 781 2613 612 2850 
Q 444 3088 444 3419 
Q 444 3919 803 4259 
Q 1163 4600 1759 4600 
Q 2359 4600 2725 4251 
Q 3091 3903 3091 3403 
Q 3091 3084 2923 2848 
Q 2756 2613 2416 2484 
Q 2838 2347 3058 2040 
Q 3278 1734 3278 1309 
Q 3278 722 2862 322 
Q 2447 -78 1769 -78 
Q 1091 -78 675 323 
Q 259 725 259 1325 
Q 259 1772 486 2073 
Q 713 2375 1131 2484 
z
M 1019 3438 
Q 1019 3113 1228 2906 
Q 1438 2700 1772 2700 
Q 2097 2700 2305 2904 
Q 2513 3109 2513 3406 
Q 2513 3716 2298 3927 
Q 2084 4138 1766 4138 
Q 1444 4138 1231 3931 
Q 1019 3725 1019 3438 
z
M 838 1322 
Q 838 1081 952 856 
Q 1066 631 1291 507 
Q 1516 384 1775 384 
Q 2178 384 2440 643 
Q 2703 903 2703 1303 
Q 2703 1709 2433 1975 
Q 2163 2241 1756 2241 
Q 1359 2241 1098 1978 
Q 838 1716 838 1322 
z
" transform="scale(0.015625)"/>
       </defs>
       <use xlink:href="#ArialMT-30"/>
       <use xlink:href="#ArialMT-2e" x="55.615234"/>
       <use xlink:href="#ArialMT-38" x="83.398438"/>
      </g>
     </g>
    </g>
    <g id="ytick_6">
     <g id="line2d_10">
      <path d="M 38.03375 34.826445 
L 152.92096 34.826445 
" clip-path="url(#pfa4b3d4535)" style="fill: none; stroke: #ffffff; stroke-width: 0.8; stroke-linecap: round"/>
     </g>
     <g id="text_11">
      <!-- 1.0 -->
      <g style="fill: #262626" transform="translate(18.61375 37.68957) scale(0.08 -0.08)">
       <use xlink:href="#ArialMT-31"/>
       <use xlink:href="#ArialMT-2e" x="55.615234"/>
       <use xlink:href="#ArialMT-30" x="83.398438"/>
      </g>
     </g>
    </g>
    <g id="text_12">
     <!-- difference per 100 events -->
     <g style="fill: #262626" transform="translate(13.02375 125.738938) rotate(-90) scale(0.08 -0.08)">
      <defs>
       <path id="ArialMT-64" d="M 2575 0 
L 2575 419 
Q 2259 -75 1647 -75 
Q 1250 -75 917 144 
Q 584 363 401 755 
Q 219 1147 219 1656 
Q 219 2153 384 2558 
Q 550 2963 881 3178 
Q 1213 3394 1622 3394 
Q 1922 3394 2156 3267 
Q 2391 3141 2538 2938 
L 2538 4581 
L 3097 4581 
L 3097 0 
L 2575 0 
z
M 797 1656 
Q 797 1019 1065 703 
Q 1334 388 1700 388 
Q 2069 388 2326 689 
Q 2584 991 2584 1609 
Q 2584 2291 2321 2609 
Q 2059 2928 1675 2928 
Q 1300 2928 1048 2622 
Q 797 2316 797 1656 
z
" transform="scale(0.015625)"/>
       <path id="ArialMT-69" d="M 425 3934 
L 425 4581 
L 988 4581 
L 988 3934 
L 425 3934 
z
M 425 0 
L 425 3319 
L 988 3319 
L 988 0 
L 425 0 
z
" transform="scale(0.015625)"/>
       <path id="ArialMT-66" d="M 556 0 
L 556 2881 
L 59 2881 
L 59 3319 
L 556 3319 
L 556 3672 
Q 556 4006 616 4169 
Q 697 4388 901 4523 
Q 1106 4659 1475 4659 
Q 1713 4659 2000 4603 
L 1916 4113 
Q 1741 4144 1584 4144 
Q 1328 4144 1222 4034 
Q 1116 3925 1116 3625 
L 1116 3319 
L 1763 3319 
L 1763 2881 
L 1116 2881 
L 1116 0 
L 556 0 
z
" transform="scale(0.015625)"/>
       <path id="ArialMT-6e" d="M 422 0 
L 422 3319 
L 928 3319 
L 928 2847 
Q 1294 3394 1984 3394 
Q 2284 3394 2536 3286 
Q 2788 3178 2913 3003 
Q 3038 2828 3088 2588 
Q 3119 2431 3119 2041 
L 3119 0 
L 2556 0 
L 2556 2019 
Q 2556 2363 2490 2533 
Q 2425 2703 2258 2804 
Q 2091 2906 1866 2906 
Q 1506 2906 1245 2678 
Q 984 2450 984 1813 
L 984 0 
L 422 0 
z
" transform="scale(0.015625)"/>
       <path id="ArialMT-63" d="M 2588 1216 
L 3141 1144 
Q 3050 572 2676 248 
Q 2303 -75 1759 -75 
Q 1078 -75 664 370 
Q 250 816 250 1647 
Q 250 2184 428 2587 
Q 606 2991 970 3192 
Q 1334 3394 1763 3394 
Q 2303 3394 2647 3120 
Q 2991 2847 3088 2344 
L 2541 2259 
Q 2463 2594 2264 2762 
Q 2066 2931 1784 2931 
Q 1359 2931 1093 2626 
Q 828 2322 828 1663 
Q 828 994 1084 691 
Q 1341 388 1753 388 
Q 2084 388 2306 591 
Q 2528 794 2588 1216 
z
" transform="scale(0.015625)"/>
       <path id="ArialMT-70" d="M 422 -1272 
L 422 3319 
L 934 3319 
L 934 2888 
Q 1116 3141 1344 3267 
Q 1572 3394 1897 3394 
Q 2322 3394 2647 3175 
Q 2972 2956 3137 2557 
Q 3303 2159 3303 1684 
Q 3303 1175 3120 767 
Q 2938 359 2589 142 
Q 2241 -75 1856 -75 
Q 1575 -75 1351 44 
Q 1128 163 984 344 
L 984 -1272 
L 422 -1272 
z
M 931 1641 
Q 931 1000 1190 694 
Q 1450 388 1819 388 
Q 2194 388 2461 705 
Q 2728 1022 2728 1688 
Q 2728 2322 2467 2637 
Q 2206 2953 1844 2953 
Q 1484 2953 1207 2617 
Q 931 2281 931 1641 
z
" transform="scale(0.015625)"/>
       <path id="ArialMT-74" d="M 1650 503 
L 1731 6 
Q 1494 -44 1306 -44 
Q 1000 -44 831 53 
Q 663 150 594 308 
Q 525 466 525 972 
L 525 2881 
L 113 2881 
L 113 3319 
L 525 3319 
L 525 4141 
L 1084 4478 
L 1084 3319 
L 1650 3319 
L 1650 2881 
L 1084 2881 
L 1084 941 
Q 1084 700 1114 631 
Q 1144 563 1211 522 
Q 1278 481 1403 481 
Q 1497 481 1650 503 
z
" transform="scale(0.015625)"/>
       <path id="ArialMT-73" d="M 197 991 
L 753 1078 
Q 800 744 1014 566 
Q 1228 388 1613 388 
Q 2000 388 2187 545 
Q 2375 703 2375 916 
Q 2375 1106 2209 1216 
Q 2094 1291 1634 1406 
Q 1016 1563 777 1677 
Q 538 1791 414 1992 
Q 291 2194 291 2438 
Q 291 2659 392 2848 
Q 494 3038 669 3163 
Q 800 3259 1026 3326 
Q 1253 3394 1513 3394 
Q 1903 3394 2198 3281 
Q 2494 3169 2634 2976 
Q 2775 2784 2828 2463 
L 2278 2388 
Q 2241 2644 2061 2787 
Q 1881 2931 1553 2931 
Q 1166 2931 1000 2803 
Q 834 2675 834 2503 
Q 834 2394 903 2306 
Q 972 2216 1119 2156 
Q 1203 2125 1616 2013 
Q 2213 1853 2448 1751 
Q 2684 1650 2818 1456 
Q 2953 1263 2953 975 
Q 2953 694 2789 445 
Q 2625 197 2315 61 
Q 2006 -75 1616 -75 
Q 969 -75 630 194 
Q 291 463 197 991 
z
" transform="scale(0.015625)"/>
      </defs>
      <use xlink:href="#ArialMT-64"/>
      <use xlink:href="#ArialMT-69" x="55.615234"/>
      <use xlink:href="#ArialMT-66" x="77.832031"/>
      <use xlink:href="#ArialMT-66" x="103.865234"/>
      <use xlink:href="#ArialMT-65" x="131.648438"/>
      <use xlink:href="#ArialMT-72" x="187.263672"/>
      <use xlink:href="#ArialMT-65" x="220.564453"/>
      <use xlink:href="#ArialMT-6e" x="276.179688"/>
      <use xlink:href="#ArialMT-63" x="331.794922"/>
      <use xlink:href="#ArialMT-65" x="381.794922"/>
      <use xlink:href="#ArialMT-20" x="437.410156"/>
      <use xlink:href="#ArialMT-70" x="465.193359"/>
      <use xlink:href="#ArialMT-65" x="520.808594"/>
      <use xlink:href="#ArialMT-72" x="576.423828"/>
      <use xlink:href="#ArialMT-20" x="609.724609"/>
      <use xlink:href="#ArialMT-31" x="637.507812"/>
      <use xlink:href="#ArialMT-30" x="693.123047"/>
      <use xlink:href="#ArialMT-30" x="748.738281"/>
      <use xlink:href="#ArialMT-20" x="804.353516"/>
      <use xlink:href="#ArialMT-65" x="832.136719"/>
      <use xlink:href="#ArialMT-76" x="887.751953"/>
      <use xlink:href="#ArialMT-65" x="937.751953"/>
      <use xlink:href="#ArialMT-6e" x="993.367188"/>
      <use xlink:href="#ArialMT-74" x="1048.982422"/>
      <use xlink:href="#ArialMT-73" x="1076.765625"/>
     </g>
    </g>
   </g>
   <g id="PolyCollection_1">
    <defs>
     <path id="ma61f139fdd" d="M 43.255896 -111.366296 
L 43.255896 -98.377193 
L 45.088228 -80.055341 
L 46.92056 -71.87104 
L 48.752892 -66.73164 
L 50.585223 -61.595026 
L 52.417555 -58.740277 
L 54.249887 -55.521267 
L 56.082219 -53.802759 
L 57.914551 -52.519217 
L 59.746883 -50.803547 
L 61.579215 -50.018986 
L 63.411547 -48.86211 
L 65.243879 -48.476347 
L 67.076211 -47.975915 
L 68.908542 -47.626979 
L 70.740874 -47.038424 
L 72.573206 -46.372783 
L 74.405538 -45.637825 
L 76.23787 -45.054838 
L 78.070202 -44.441454 
L 79.902534 -43.964362 
L 81.734866 -43.507555 
L 83.567198 -43.012026 
L 85.39953 -42.596566 
L 87.231861 -42.238493 
L 89.064193 -41.97393 
L 90.896525 -41.698637 
L 92.728857 -41.425705 
L 94.561189 -41.1582 
L 96.393521 -41.078052 
L 98.225853 -40.874118 
L 100.058185 -40.724781 
L 101.890517 -40.539159 
L 103.722848 -40.393789 
L 105.55518 -40.269981 
L 107.387512 -40.147581 
L 109.219844 -40.011048 
L 111.052176 -39.966322 
L 112.884508 -39.846355 
L 114.71684 -39.804869 
L 116.549172 -39.753061 
L 118.381504 -39.687945 
L 120.213836 -39.610977 
L 122.046167 -39.568998 
L 123.878499 -39.465739 
L 125.710831 -39.462202 
L 127.543163 -39.379549 
L 129.375495 -39.305194 
L 131.207827 -39.288651 
L 133.040159 -39.237098 
L 134.872491 -39.216226 
L 136.704823 -39.10925 
L 138.537155 -39.0462 
L 140.369486 -39.056573 
L 142.201818 -38.944621 
L 144.03415 -38.873804 
L 145.866482 -38.888896 
L 147.698814 -38.789977 
L 147.698814 -39.33459 
L 147.698814 -39.33459 
L 145.866482 -39.458617 
L 144.03415 -39.454401 
L 142.201818 -39.574176 
L 140.369486 -39.666825 
L 138.537155 -39.697403 
L 136.704823 -39.777939 
L 134.872491 -39.870828 
L 133.040159 -39.915241 
L 131.207827 -39.957464 
L 129.375495 -39.971182 
L 127.543163 -40.103958 
L 125.710831 -40.147105 
L 123.878499 -40.197168 
L 122.046167 -40.280524 
L 120.213836 -40.338072 
L 118.381504 -40.427561 
L 116.549172 -40.514897 
L 114.71684 -40.541602 
L 112.884508 -40.666892 
L 111.052176 -40.77097 
L 109.219844 -40.846913 
L 107.387512 -40.996761 
L 105.55518 -41.153452 
L 103.722848 -41.332435 
L 101.890517 -41.469471 
L 100.058185 -41.617735 
L 98.225853 -41.835959 
L 96.393521 -42.03704 
L 94.561189 -42.194953 
L 92.728857 -42.421878 
L 90.896525 -42.694183 
L 89.064193 -43.020227 
L 87.231861 -43.357766 
L 85.39953 -43.770992 
L 83.567198 -44.153098 
L 81.734866 -44.693935 
L 79.902534 -45.310645 
L 78.070202 -45.858983 
L 76.23787 -46.585075 
L 74.405538 -47.149254 
L 72.573206 -48.015786 
L 70.740874 -48.743968 
L 68.908542 -49.327901 
L 67.076211 -49.857339 
L 65.243879 -50.50617 
L 63.411547 -51.061794 
L 61.579215 -52.439527 
L 59.746883 -53.391653 
L 57.914551 -55.214714 
L 56.082219 -56.866476 
L 54.249887 -58.914679 
L 52.417555 -62.689616 
L 50.585223 -65.949048 
L 48.752892 -72.060893 
L 46.92056 -78.231806 
L 45.088228 -88.730753 
L 43.255896 -111.366296 
z
" style="stroke: #4c72b0; stroke-opacity: 0.2; stroke-width: 0.8"/>
    </defs>
    <g clip-path="url(#pfa4b3d4535)">
     <use xlink:href="#ma61f139fdd" x="0" y="160.84143" style="fill: #4c72b0; fill-opacity: 0.2; stroke: #4c72b0; stroke-opacity: 0.2; stroke-width: 0.8"/>
    </g>
   </g>
   <g id="PolyCollection_2">
    <defs>
     <path id="mb322f3baae" d="M 43.255896 -111.796891 
L 43.255896 -98.595158 
L 45.088228 -80.014859 
L 46.92056 -71.802196 
L 48.752892 -66.861874 
L 50.585223 -61.497436 
L 52.417555 -58.618364 
L 54.249887 -55.40245 
L 56.082219 -53.750528 
L 57.914551 -52.369008 
L 59.746883 -50.676202 
L 61.579215 -49.999113 
L 63.411547 -48.882773 
L 65.243879 -48.508482 
L 67.076211 -47.872426 
L 68.908542 -47.625446 
L 70.740874 -46.996345 
L 72.573206 -46.369637 
L 74.405538 -45.599185 
L 76.23787 -45.129294 
L 78.070202 -44.405894 
L 79.902534 -43.923874 
L 81.734866 -43.46189 
L 83.567198 -42.986696 
L 85.39953 -42.640782 
L 87.231861 -42.259204 
L 89.064193 -41.928208 
L 90.896525 -41.666969 
L 92.728857 -41.403802 
L 94.561189 -41.152112 
L 96.393521 -41.109172 
L 98.225853 -40.847427 
L 100.058185 -40.670236 
L 101.890517 -40.535825 
L 103.722848 -40.366135 
L 105.55518 -40.239261 
L 107.387512 -40.117245 
L 109.219844 -39.992951 
L 111.052176 -39.883575 
L 112.884508 -39.844785 
L 114.71684 -39.76635 
L 116.549172 -39.698921 
L 118.381504 -39.635248 
L 120.213836 -39.594247 
L 122.046167 -39.540933 
L 123.878499 -39.467488 
L 125.710831 -39.43267 
L 127.543163 -39.353115 
L 129.375495 -39.286579 
L 131.207827 -39.275834 
L 133.040159 -39.221366 
L 134.872491 -39.150043 
L 136.704823 -39.119793 
L 138.537155 -39.006387 
L 140.369486 -39.005529 
L 142.201818 -38.952178 
L 144.03415 -38.827013 
L 145.866482 -38.82424 
L 147.698814 -38.73833 
L 147.698814 -39.316692 
L 147.698814 -39.316692 
L 145.866482 -39.411839 
L 144.03415 -39.442676 
L 142.201818 -39.518041 
L 140.369486 -39.641864 
L 138.537155 -39.632912 
L 136.704823 -39.737818 
L 134.872491 -39.84926 
L 133.040159 -39.850276 
L 131.207827 -39.913269 
L 129.375495 -39.966367 
L 127.543163 -40.030822 
L 125.710831 -40.115083 
L 123.878499 -40.150533 
L 122.046167 -40.245326 
L 120.213836 -40.316459 
L 118.381504 -40.398551 
L 116.549172 -40.452094 
L 114.71684 -40.518642 
L 112.884508 -40.62033 
L 111.052176 -40.708079 
L 109.219844 -40.791991 
L 107.387512 -40.929655 
L 105.55518 -41.058077 
L 103.722848 -41.245518 
L 101.890517 -41.387649 
L 100.058185 -41.563798 
L 98.225853 -41.802747 
L 96.393521 -42.020494 
L 94.561189 -42.13302 
L 92.728857 -42.403318 
L 90.896525 -42.698246 
L 89.064193 -42.963354 
L 87.231861 -43.329676 
L 85.39953 -43.766273 
L 83.567198 -44.199736 
L 81.734866 -44.70591 
L 79.902534 -45.235881 
L 78.070202 -45.787262 
L 76.23787 -46.521815 
L 74.405538 -47.128655 
L 72.573206 -47.939391 
L 70.740874 -48.710163 
L 68.908542 -49.471021 
L 67.076211 -49.649408 
L 65.243879 -50.469819 
L 63.411547 -51.002658 
L 61.579215 -52.347401 
L 59.746883 -53.305257 
L 57.914551 -55.128255 
L 56.082219 -56.878245 
L 54.249887 -58.918197 
L 52.417555 -62.505166 
L 50.585223 -65.962979 
L 48.752892 -71.944428 
L 46.92056 -78.037386 
L 45.088228 -88.259383 
L 43.255896 -111.796891 
z
" style="stroke: #dd8452; stroke-opacity: 0.2; stroke-width: 0.8"/>
    </defs>
    <g clip-path="url(#pfa4b3d4535)">
     <use xlink:href="#mb322f3baae" x="0" y="160.84143" style="fill: #dd8452; fill-opacity: 0.2; stroke: #dd8452; stroke-opacity: 0.2; stroke-width: 0.8"/>
    </g>
   </g>
   <g id="PolyCollection_3">
    <defs>
     <path id="m2b197f1f22" d="M 43.255896 -86.059844 
L 43.255896 -75.952881 
L 45.088228 -64.321481 
L 46.92056 -58.315298 
L 48.752892 -55.140221 
L 50.585223 -53.025097 
L 52.417555 -51.185487 
L 54.249887 -49.852998 
L 56.082219 -48.556093 
L 57.914551 -47.64312 
L 59.746883 -46.796573 
L 61.579215 -46.353263 
L 63.411547 -45.803179 
L 65.243879 -45.425278 
L 67.076211 -44.974884 
L 68.908542 -44.657758 
L 70.740874 -44.280458 
L 72.573206 -43.776868 
L 74.405538 -43.371751 
L 76.23787 -43.040493 
L 78.070202 -42.667132 
L 79.902534 -42.29823 
L 81.734866 -41.980133 
L 83.567198 -41.681979 
L 85.39953 -41.351727 
L 87.231861 -41.13881 
L 89.064193 -40.899188 
L 90.896525 -40.692597 
L 92.728857 -40.558301 
L 94.561189 -40.431044 
L 96.393521 -40.298104 
L 98.225853 -40.192242 
L 100.058185 -40.081289 
L 101.890517 -39.98379 
L 103.722848 -39.875725 
L 105.55518 -39.783698 
L 107.387512 -39.727115 
L 109.219844 -39.656521 
L 111.052176 -39.596159 
L 112.884508 -39.571821 
L 114.71684 -39.478011 
L 116.549172 -39.460321 
L 118.381504 -39.384042 
L 120.213836 -39.343787 
L 122.046167 -39.30966 
L 123.878499 -39.254043 
L 125.710831 -39.195687 
L 127.543163 -39.142172 
L 129.375495 -39.078729 
L 131.207827 -39.075725 
L 133.040159 -38.976158 
L 134.872491 -38.971117 
L 136.704823 -38.901736 
L 138.537155 -38.833649 
L 140.369486 -38.818758 
L 142.201818 -38.6915 
L 144.03415 -38.63032 
L 145.866482 -38.624232 
L 147.698814 -38.524489 
L 147.698814 -39.073955 
L 147.698814 -39.073955 
L 145.866482 -39.144122 
L 144.03415 -39.190499 
L 142.201818 -39.258163 
L 140.369486 -39.388596 
L 138.537155 -39.405166 
L 136.704823 -39.498717 
L 134.872491 -39.584054 
L 133.040159 -39.573686 
L 131.207827 -39.68638 
L 129.375495 -39.714276 
L 127.543163 -39.790112 
L 125.710831 -39.859846 
L 123.878499 -39.884869 
L 122.046167 -40.005018 
L 120.213836 -40.007755 
L 118.381504 -40.082144 
L 116.549172 -40.159501 
L 114.71684 -40.20718 
L 112.884508 -40.245897 
L 111.052176 -40.376436 
L 109.219844 -40.379895 
L 107.387512 -40.502722 
L 105.55518 -40.562772 
L 103.722848 -40.677221 
L 101.890517 -40.744846 
L 100.058185 -40.88951 
L 98.225853 -41.051678 
L 96.393521 -41.142744 
L 94.561189 -41.254657 
L 92.728857 -41.434739 
L 90.896525 -41.597307 
L 89.064193 -41.822 
L 87.231861 -42.059869 
L 85.39953 -42.32476 
L 83.567198 -42.65429 
L 81.734866 -43.011707 
L 79.902534 -43.384704 
L 78.070202 -43.747946 
L 76.23787 -44.17743 
L 74.405538 -44.618185 
L 72.573206 -45.103228 
L 70.740874 -45.545933 
L 68.908542 -46.174393 
L 67.076211 -46.451565 
L 65.243879 -47.051115 
L 63.411547 -47.433973 
L 61.579215 -48.150249 
L 59.746883 -48.786606 
L 57.914551 -49.722583 
L 56.082219 -50.886136 
L 54.249887 -52.461021 
L 52.417555 -54.144858 
L 50.585223 -56.290071 
L 48.752892 -58.952534 
L 46.92056 -63.134349 
L 45.088228 -70.627193 
L 43.255896 -86.059844 
z
" style="stroke: #55a868; stroke-opacity: 0.2; stroke-width: 0.8"/>
    </defs>
    <g clip-path="url(#pfa4b3d4535)">
     <use xlink:href="#m2b197f1f22" x="0" y="160.84143" style="fill: #55a868; fill-opacity: 0.2; stroke: #55a868; stroke-opacity: 0.2; stroke-width: 0.8"/>
    </g>
   </g>
   <g id="line2d_11">
    <path d="M 43.255896 56.488379 
L 45.088228 76.759536 
L 46.92056 85.929312 
L 48.752892 91.455842 
L 50.585223 97.053405 
L 52.417555 100.236976 
L 54.249887 103.678615 
L 56.082219 105.551067 
L 57.914551 106.968059 
L 59.746883 108.780258 
L 61.579215 109.585532 
L 63.411547 110.872741 
L 65.243879 111.365949 
L 67.076211 111.976867 
L 68.908542 112.312667 
L 70.740874 112.934196 
L 72.573206 113.61489 
L 74.405538 114.476874 
L 76.23787 115.028621 
L 78.070202 115.727131 
L 79.902534 116.243174 
L 81.734866 116.750084 
L 83.567198 117.261174 
L 85.39953 117.657213 
L 87.231861 118.046474 
L 89.064193 118.363156 
L 90.896525 118.654195 
L 92.728857 118.939899 
L 94.561189 119.188179 
L 96.393521 119.271148 
L 98.225853 119.513436 
L 100.058185 119.684687 
L 101.890517 119.86412 
L 103.722848 120.004455 
L 105.55518 120.143929 
L 107.387512 120.287558 
L 109.219844 120.409222 
L 111.052176 120.488323 
L 112.884508 120.575226 
L 114.71684 120.662392 
L 116.549172 120.706015 
L 118.381504 120.785432 
L 120.213836 120.864745 
L 122.046167 120.91566 
L 123.878499 121.006011 
L 125.710831 121.048751 
L 127.543163 121.117532 
L 129.375495 121.196985 
L 131.207827 121.216788 
L 133.040159 121.299746 
L 134.872491 121.317942 
L 136.704823 121.393145 
L 138.537155 121.478073 
L 140.369486 121.487945 
L 142.201818 121.583785 
L 144.03415 121.675491 
L 145.866482 121.681337 
L 147.698814 121.770059 
" clip-path="url(#pfa4b3d4535)" style="fill: none; stroke: #4c72b0; stroke-width: 1.2; stroke-linecap: round"/>
   </g>
   <g id="line2d_12">
    <path d="M 43.255896 56.478607 
L 45.088228 76.896334 
L 46.92056 86.058273 
L 48.752892 91.559196 
L 50.585223 97.154126 
L 52.417555 100.304547 
L 54.249887 103.773363 
L 56.082219 105.623078 
L 57.914551 107.03483 
L 59.746883 108.839528 
L 61.579215 109.646909 
L 63.411547 110.938519 
L 65.243879 111.41376 
L 67.076211 112.014109 
L 68.908542 112.348894 
L 70.740874 112.974832 
L 72.573206 113.656245 
L 74.405538 114.509691 
L 76.23787 115.061565 
L 78.070202 115.771044 
L 79.902534 116.27187 
L 81.734866 116.776829 
L 83.567198 117.283688 
L 85.39953 117.678286 
L 87.231861 118.073864 
L 89.064193 118.392 
L 90.896525 118.680842 
L 92.728857 118.970288 
L 94.561189 119.213581 
L 96.393521 119.289772 
L 98.225853 119.542676 
L 100.058185 119.717166 
L 101.890517 119.903387 
L 103.722848 120.046464 
L 105.55518 120.181971 
L 107.387512 120.31865 
L 109.219844 120.442174 
L 111.052176 120.524822 
L 112.884508 120.612946 
L 114.71684 120.700356 
L 116.549172 120.742625 
L 118.381504 120.822005 
L 120.213836 120.897467 
L 122.046167 120.955416 
L 123.878499 121.044237 
L 125.710831 121.086921 
L 127.543163 121.155273 
L 129.375495 121.230425 
L 131.207827 121.253167 
L 133.040159 121.332565 
L 134.872491 121.348816 
L 136.704823 121.425577 
L 138.537155 121.510443 
L 140.369486 121.518749 
L 142.201818 121.616397 
L 144.03415 121.712579 
L 145.866482 121.715592 
L 147.698814 121.80269 
" clip-path="url(#pfa4b3d4535)" style="fill: none; stroke: #dd8452; stroke-width: 1.2; stroke-linecap: round"/>
   </g>
   <g id="line2d_13">
    <path d="M 43.255896 80.186088 
L 45.088228 93.548257 
L 46.92056 100.226318 
L 48.752892 103.880788 
L 50.585223 106.252761 
L 52.417555 108.189759 
L 54.249887 109.745583 
L 56.082219 111.130592 
L 57.914551 112.165106 
L 59.746883 113.046687 
L 61.579215 113.592187 
L 63.411547 114.188156 
L 65.243879 114.622785 
L 67.076211 115.12371 
L 68.908542 115.424767 
L 70.740874 115.949578 
L 72.573206 116.418554 
L 74.405538 116.840981 
L 76.23787 117.236734 
L 78.070202 117.620256 
L 79.902534 118.022104 
L 81.734866 118.37311 
L 83.567198 118.685097 
L 85.39953 119.00826 
L 87.231861 119.259091 
L 89.064193 119.488931 
L 90.896525 119.693236 
L 92.728857 119.828105 
L 94.561189 120.009548 
L 96.393521 120.105453 
L 98.225853 120.258683 
L 100.058185 120.388355 
L 101.890517 120.480063 
L 103.722848 120.57422 
L 105.55518 120.659294 
L 107.387512 120.73552 
L 109.219844 120.827589 
L 111.052176 120.867181 
L 112.884508 120.930732 
L 114.71684 121.013504 
L 116.549172 121.042134 
L 118.381504 121.114633 
L 120.213836 121.177452 
L 122.046167 121.194595 
L 123.878499 121.269527 
L 125.710831 121.310223 
L 127.543163 121.371775 
L 129.375495 121.447481 
L 131.207827 121.46817 
L 133.040159 121.551406 
L 134.872491 121.574126 
L 136.704823 121.655421 
L 138.537155 121.733697 
L 140.369486 121.752308 
L 142.201818 121.848534 
L 144.03415 121.944508 
L 145.866482 121.957297 
L 147.698814 122.046351 
" clip-path="url(#pfa4b3d4535)" style="fill: none; stroke: #55a868; stroke-width: 1.2; stroke-linecap: round"/>
   </g>
   <g id="line2d_14"/>
   <g id="line2d_15"/>
   <g id="line2d_16"/>
   <g id="patch_3">
    <path d="M 38.03375 126.51768 
L 38.03375 34.826445 
" style="fill: none; stroke: #ffffff; stroke-linejoin: miter; stroke-linecap: square"/>
   </g>
   <g id="patch_4">
    <path d="M 38.03375 126.51768 
L 152.92096 126.51768 
" style="fill: none; stroke: #ffffff; stroke-linejoin: miter; stroke-linecap: square"/>
   </g>
  </g>
  <g id="axes_2">
   <g id="patch_5">
    <path d="M 202.67024 126.51768 
L 317.55745 126.51768 
L 317.55745 34.826445 
L 202.67024 34.826445 
z
" style="fill: #eaeaf2"/>
   </g>
   <g id="matplotlib.axis_3">
    <g id="xtick_5">
     <g id="line2d_17">
      <path d="M 204.227723 126.51768 
L 204.227723 34.826445 
" clip-path="url(#pcd35d1a615)" style="fill: none; stroke: #ffffff; stroke-width: 0.8; stroke-linecap: round"/>
     </g>
     <g id="text_13">
      <!-- 0% -->
      <g style="fill: #262626" transform="translate(198.446473 140.54393) scale(0.08 -0.08)">
       <use xlink:href="#ArialMT-30"/>
       <use xlink:href="#ArialMT-25" x="55.615234"/>
      </g>
     </g>
    </g>
    <g id="xtick_6">
     <g id="line2d_18">
      <path d="M 240.87436 126.51768 
L 240.87436 34.826445 
" clip-path="url(#pcd35d1a615)" style="fill: none; stroke: #ffffff; stroke-width: 0.8; stroke-linecap: round"/>
     </g>
     <g id="text_14">
      <!-- 10% -->
      <g style="fill: #262626" transform="translate(232.868735 140.54393) scale(0.08 -0.08)">
       <use xlink:href="#ArialMT-31"/>
       <use xlink:href="#ArialMT-30" x="55.615234"/>
       <use xlink:href="#ArialMT-25" x="111.230469"/>
      </g>
     </g>
    </g>
    <g id="xtick_7">
     <g id="line2d_19">
      <path d="M 277.520998 126.51768 
L 277.520998 34.826445 
" clip-path="url(#pcd35d1a615)" style="fill: none; stroke: #ffffff; stroke-width: 0.8; stroke-linecap: round"/>
     </g>
     <g id="text_15">
      <!-- 20% -->
      <g style="fill: #262626" transform="translate(269.515373 140.54393) scale(0.08 -0.08)">
       <use xlink:href="#ArialMT-32"/>
       <use xlink:href="#ArialMT-30" x="55.615234"/>
       <use xlink:href="#ArialMT-25" x="111.230469"/>
      </g>
     </g>
    </g>
    <g id="xtick_8">
     <g id="line2d_20">
      <path d="M 314.167636 126.51768 
L 314.167636 34.826445 
" clip-path="url(#pcd35d1a615)" style="fill: none; stroke: #ffffff; stroke-width: 0.8; stroke-linecap: round"/>
     </g>
     <g id="text_16">
      <!-- 30% -->
      <g style="fill: #262626" transform="translate(306.162011 140.54393) scale(0.08 -0.08)">
       <use xlink:href="#ArialMT-33"/>
       <use xlink:href="#ArialMT-30" x="55.615234"/>
       <use xlink:href="#ArialMT-25" x="111.230469"/>
      </g>
     </g>
    </g>
    <g id="text_17">
     <!-- Coverage area -->
     <g style="fill: #262626" transform="translate(233.655095 151.95768) scale(0.08 -0.08)">
      <use xlink:href="#ArialMT-43"/>
      <use xlink:href="#ArialMT-6f" x="72.216797"/>
      <use xlink:href="#ArialMT-76" x="127.832031"/>
      <use xlink:href="#ArialMT-65" x="177.832031"/>
      <use xlink:href="#ArialMT-72" x="233.447266"/>
      <use xlink:href="#ArialMT-61" x="266.748047"/>
      <use xlink:href="#ArialMT-67" x="322.363281"/>
      <use xlink:href="#ArialMT-65" x="377.978516"/>
      <use xlink:href="#ArialMT-20" x="433.59375"/>
      <use xlink:href="#ArialMT-61" x="461.376953"/>
      <use xlink:href="#ArialMT-72" x="516.992188"/>
      <use xlink:href="#ArialMT-65" x="550.292969"/>
      <use xlink:href="#ArialMT-61" x="605.908203"/>
     </g>
    </g>
   </g>
   <g id="matplotlib.axis_4">
    <g id="ytick_7">
     <g id="line2d_21">
      <path d="M 202.67024 126.51768 
L 317.55745 126.51768 
" clip-path="url(#pcd35d1a615)" style="fill: none; stroke: #ffffff; stroke-width: 0.8; stroke-linecap: round"/>
     </g>
     <g id="text_18">
      <!-- 0% -->
      <g style="fill: #262626" transform="translate(182.80774 129.380805) scale(0.08 -0.08)">
       <use xlink:href="#ArialMT-30"/>
       <use xlink:href="#ArialMT-25" x="55.615234"/>
      </g>
     </g>
    </g>
    <g id="ytick_8">
     <g id="line2d_22">
      <path d="M 202.67024 108.179433 
L 317.55745 108.179433 
" clip-path="url(#pcd35d1a615)" style="fill: none; stroke: #ffffff; stroke-width: 0.8; stroke-linecap: round"/>
     </g>
     <g id="text_19">
      <!-- 20% -->
      <g style="fill: #262626" transform="translate(178.35899 111.042558) scale(0.08 -0.08)">
       <use xlink:href="#ArialMT-32"/>
       <use xlink:href="#ArialMT-30" x="55.615234"/>
       <use xlink:href="#ArialMT-25" x="111.230469"/>
      </g>
     </g>
    </g>
    <g id="ytick_9">
     <g id="line2d_23">
      <path d="M 202.67024 89.841186 
L 317.55745 89.841186 
" clip-path="url(#pcd35d1a615)" style="fill: none; stroke: #ffffff; stroke-width: 0.8; stroke-linecap: round"/>
     </g>
     <g id="text_20">
      <!-- 40% -->
      <g style="fill: #262626" transform="translate(178.35899 92.704311) scale(0.08 -0.08)">
       <use xlink:href="#ArialMT-34"/>
       <use xlink:href="#ArialMT-30" x="55.615234"/>
       <use xlink:href="#ArialMT-25" x="111.230469"/>
      </g>
     </g>
    </g>
    <g id="ytick_10">
     <g id="line2d_24">
      <path d="M 202.67024 71.502939 
L 317.55745 71.502939 
" clip-path="url(#pcd35d1a615)" style="fill: none; stroke: #ffffff; stroke-width: 0.8; stroke-linecap: round"/>
     </g>
     <g id="text_21">
      <!-- 60% -->
      <g style="fill: #262626" transform="translate(178.35899 74.366064) scale(0.08 -0.08)">
       <use xlink:href="#ArialMT-36"/>
       <use xlink:href="#ArialMT-30" x="55.615234"/>
       <use xlink:href="#ArialMT-25" x="111.230469"/>
      </g>
     </g>
    </g>
    <g id="ytick_11">
     <g id="line2d_25">
      <path d="M 202.67024 53.164692 
L 317.55745 53.164692 
" clip-path="url(#pcd35d1a615)" style="fill: none; stroke: #ffffff; stroke-width: 0.8; stroke-linecap: round"/>
     </g>
     <g id="text_22">
      <!-- 80% -->
      <g style="fill: #262626" transform="translate(178.35899 56.027817) scale(0.08 -0.08)">
       <use xlink:href="#ArialMT-38"/>
       <use xlink:href="#ArialMT-30" x="55.615234"/>
       <use xlink:href="#ArialMT-25" x="111.230469"/>
      </g>
     </g>
    </g>
    <g id="ytick_12">
     <g id="line2d_26">
      <path d="M 202.67024 34.826445 
L 317.55745 34.826445 
" clip-path="url(#pcd35d1a615)" style="fill: none; stroke: #ffffff; stroke-width: 0.8; stroke-linecap: round"/>
     </g>
     <g id="text_23">
      <!-- 100% -->
      <g style="fill: #262626" transform="translate(173.91024 37.68957) scale(0.08 -0.08)">
       <use xlink:href="#ArialMT-31"/>
       <use xlink:href="#ArialMT-30" x="55.615234"/>
       <use xlink:href="#ArialMT-30" x="111.230469"/>
       <use xlink:href="#ArialMT-25" x="166.845703"/>
      </g>
     </g>
    </g>
    <g id="text_24">
     <!-- Percentage of inequity -->
     <g style="fill: #262626" transform="translate(168.29384 118.881863) rotate(-90) scale(0.0768 -0.0768)">
      <defs>
       <path id="ArialMT-50" d="M 494 0 
L 494 4581 
L 2222 4581 
Q 2678 4581 2919 4538 
Q 3256 4481 3484 4323 
Q 3713 4166 3852 3881 
Q 3991 3597 3991 3256 
Q 3991 2672 3619 2267 
Q 3247 1863 2275 1863 
L 1100 1863 
L 1100 0 
L 494 0 
z
M 1100 2403 
L 2284 2403 
Q 2872 2403 3119 2622 
Q 3366 2841 3366 3238 
Q 3366 3525 3220 3729 
Q 3075 3934 2838 4000 
Q 2684 4041 2272 4041 
L 1100 4041 
L 1100 2403 
z
" transform="scale(0.015625)"/>
       <path id="ArialMT-71" d="M 2538 -1272 
L 2538 353 
Q 2406 169 2170 47 
Q 1934 -75 1669 -75 
Q 1078 -75 651 397 
Q 225 869 225 1691 
Q 225 2191 398 2587 
Q 572 2984 901 3189 
Q 1231 3394 1625 3394 
Q 2241 3394 2594 2875 
L 2594 3319 
L 3100 3319 
L 3100 -1272 
L 2538 -1272 
z
M 803 1669 
Q 803 1028 1072 708 
Q 1341 388 1716 388 
Q 2075 388 2334 692 
Q 2594 997 2594 1619 
Q 2594 2281 2320 2615 
Q 2047 2950 1678 2950 
Q 1313 2950 1058 2639 
Q 803 2328 803 1669 
z
" transform="scale(0.015625)"/>
       <path id="ArialMT-75" d="M 2597 0 
L 2597 488 
Q 2209 -75 1544 -75 
Q 1250 -75 995 37 
Q 741 150 617 320 
Q 494 491 444 738 
Q 409 903 409 1263 
L 409 3319 
L 972 3319 
L 972 1478 
Q 972 1038 1006 884 
Q 1059 663 1231 536 
Q 1403 409 1656 409 
Q 1909 409 2131 539 
Q 2353 669 2445 892 
Q 2538 1116 2538 1541 
L 2538 3319 
L 3100 3319 
L 3100 0 
L 2597 0 
z
" transform="scale(0.015625)"/>
       <path id="ArialMT-79" d="M 397 -1278 
L 334 -750 
Q 519 -800 656 -800 
Q 844 -800 956 -737 
Q 1069 -675 1141 -563 
Q 1194 -478 1313 -144 
Q 1328 -97 1363 -6 
L 103 3319 
L 709 3319 
L 1400 1397 
Q 1534 1031 1641 628 
Q 1738 1016 1872 1384 
L 2581 3319 
L 3144 3319 
L 1881 -56 
Q 1678 -603 1566 -809 
Q 1416 -1088 1222 -1217 
Q 1028 -1347 759 -1347 
Q 597 -1347 397 -1278 
z
" transform="scale(0.015625)"/>
      </defs>
      <use xlink:href="#ArialMT-50"/>
      <use xlink:href="#ArialMT-65" x="66.699219"/>
      <use xlink:href="#ArialMT-72" x="122.314453"/>
      <use xlink:href="#ArialMT-63" x="155.615234"/>
      <use xlink:href="#ArialMT-65" x="205.615234"/>
      <use xlink:href="#ArialMT-6e" x="261.230469"/>
      <use xlink:href="#ArialMT-74" x="316.845703"/>
      <use xlink:href="#ArialMT-61" x="344.628906"/>
      <use xlink:href="#ArialMT-67" x="400.244141"/>
      <use xlink:href="#ArialMT-65" x="455.859375"/>
      <use xlink:href="#ArialMT-20" x="511.474609"/>
      <use xlink:href="#ArialMT-6f" x="539.257812"/>
      <use xlink:href="#ArialMT-66" x="594.873047"/>
      <use xlink:href="#ArialMT-20" x="622.65625"/>
      <use xlink:href="#ArialMT-69" x="650.439453"/>
      <use xlink:href="#ArialMT-6e" x="672.65625"/>
      <use xlink:href="#ArialMT-65" x="728.271484"/>
      <use xlink:href="#ArialMT-71" x="783.886719"/>
      <use xlink:href="#ArialMT-75" x="839.501953"/>
      <use xlink:href="#ArialMT-69" x="895.117188"/>
      <use xlink:href="#ArialMT-74" x="917.333984"/>
      <use xlink:href="#ArialMT-79" x="945.117188"/>
     </g>
    </g>
   </g>
   <g id="PolyCollection_4">
    <defs>
     <path id="m695023edc5" d="M 207.892386 -44.48264 
L 207.892386 -43.428006 
L 209.724718 -41.824345 
L 211.55705 -41.21744 
L 213.389382 -40.908238 
L 215.221714 -40.205414 
L 217.054046 -39.930837 
L 218.886378 -39.447302 
L 220.71871 -39.261812 
L 222.551042 -39.165052 
L 224.383373 -38.876194 
L 226.215705 -38.910334 
L 228.048037 -38.703066 
L 229.880369 -38.770567 
L 231.712701 -38.781745 
L 233.545033 -38.779656 
L 235.377365 -38.763203 
L 237.209697 -38.714296 
L 239.042029 -38.535062 
L 240.87436 -38.469385 
L 242.706692 -38.31388 
L 244.539024 -38.217083 
L 246.371356 -38.144513 
L 248.203688 -38.024146 
L 250.03602 -37.941927 
L 251.868352 -37.843036 
L 253.700684 -37.771264 
L 255.533016 -37.710113 
L 257.365348 -37.638249 
L 259.197679 -37.584439 
L 261.030011 -37.586675 
L 262.862343 -37.54297 
L 264.694675 -37.498947 
L 266.527007 -37.454391 
L 268.359339 -37.428569 
L 270.191671 -37.422097 
L 272.024003 -37.377486 
L 273.856335 -37.363943 
L 275.688667 -37.361636 
L 277.520998 -37.376839 
L 279.35333 -37.369149 
L 281.185662 -37.385983 
L 283.017994 -37.396144 
L 284.850326 -37.402562 
L 286.682658 -37.408068 
L 288.51499 -37.422913 
L 290.347322 -37.403304 
L 292.179654 -37.441681 
L 294.011985 -37.43359 
L 295.844317 -37.461641 
L 297.676649 -37.453429 
L 299.508981 -37.498454 
L 301.341313 -37.500505 
L 303.173645 -37.489404 
L 305.005977 -37.516945 
L 306.838309 -37.494228 
L 308.670641 -37.482193 
L 310.502973 -37.509743 
L 312.335304 -37.498357 
L 312.335304 -37.90319 
L 312.335304 -37.90319 
L 310.502973 -37.91153 
L 308.670641 -37.883018 
L 306.838309 -37.933584 
L 305.005977 -37.932583 
L 303.173645 -37.89424 
L 301.341313 -37.912549 
L 299.508981 -37.920895 
L 297.676649 -37.880013 
L 295.844317 -37.885195 
L 294.011985 -37.850705 
L 292.179654 -37.845203 
L 290.347322 -37.825159 
L 288.51499 -37.82846 
L 286.682658 -37.849817 
L 284.850326 -37.819626 
L 283.017994 -37.799814 
L 281.185662 -37.805391 
L 279.35333 -37.790876 
L 277.520998 -37.797606 
L 275.688667 -37.805182 
L 273.856335 -37.794487 
L 272.024003 -37.797412 
L 270.191671 -37.870489 
L 268.359339 -37.86401 
L 266.527007 -37.900164 
L 264.694675 -37.925883 
L 262.862343 -37.987793 
L 261.030011 -38.019588 
L 259.197679 -38.049737 
L 257.365348 -38.09274 
L 255.533016 -38.183126 
L 253.700684 -38.24823 
L 251.868352 -38.313623 
L 250.03602 -38.39984 
L 248.203688 -38.492467 
L 246.371356 -38.644116 
L 244.539024 -38.73344 
L 242.706692 -38.818754 
L 240.87436 -39.005313 
L 239.042029 -39.073044 
L 237.209697 -39.276657 
L 235.377365 -39.332974 
L 233.545033 -39.360337 
L 231.712701 -39.389078 
L 229.880369 -39.382523 
L 228.048037 -39.297156 
L 226.215705 -39.4934 
L 224.383373 -39.512241 
L 222.551042 -39.822235 
L 220.71871 -39.948519 
L 218.886378 -40.139005 
L 217.054046 -40.643503 
L 215.221714 -40.964972 
L 213.389382 -41.695148 
L 211.55705 -42.082532 
L 209.724718 -42.696129 
L 207.892386 -44.48264 
z
" style="stroke: #4c72b0; stroke-opacity: 0.2; stroke-width: 0.8"/>
    </defs>
    <g clip-path="url(#pcd35d1a615)">
     <use xlink:href="#m695023edc5" x="0" y="160.84143" style="fill: #4c72b0; fill-opacity: 0.2; stroke: #4c72b0; stroke-opacity: 0.2; stroke-width: 0.8"/>
    </g>
   </g>
   <g id="PolyCollection_5">
    <defs>
     <path id="m51b58baea7" d="M 207.892386 -44.523895 
L 207.892386 -43.457626 
L 209.724718 -41.858076 
L 211.55705 -41.291368 
L 213.389382 -40.882766 
L 215.221714 -40.210916 
L 217.054046 -39.939368 
L 218.886378 -39.465994 
L 220.71871 -39.27558 
L 222.551042 -39.143907 
L 224.383373 -38.861438 
L 226.215705 -38.881879 
L 228.048037 -38.69795 
L 229.880369 -38.764596 
L 231.712701 -38.807858 
L 233.545033 -38.779996 
L 235.377365 -38.763896 
L 237.209697 -38.712354 
L 239.042029 -38.53404 
L 240.87436 -38.474539 
L 242.706692 -38.294019 
L 244.539024 -38.219459 
L 246.371356 -38.133384 
L 248.203688 -37.988439 
L 250.03602 -37.944609 
L 251.868352 -37.81728 
L 253.700684 -37.774803 
L 255.533016 -37.713493 
L 257.365348 -37.641011 
L 259.197679 -37.569702 
L 261.030011 -37.605358 
L 262.862343 -37.517521 
L 264.694675 -37.462783 
L 266.527007 -37.426027 
L 268.359339 -37.415615 
L 270.191671 -37.399625 
L 272.024003 -37.364209 
L 273.856335 -37.356692 
L 275.688667 -37.35942 
L 277.520998 -37.345352 
L 279.35333 -37.36294 
L 281.185662 -37.369569 
L 283.017994 -37.37141 
L 284.850326 -37.397237 
L 286.682658 -37.387809 
L 288.51499 -37.396119 
L 290.347322 -37.401436 
L 292.179654 -37.412977 
L 294.011985 -37.417791 
L 295.844317 -37.424816 
L 297.676649 -37.452714 
L 299.508981 -37.493902 
L 301.341313 -37.481564 
L 303.173645 -37.456811 
L 305.005977 -37.506228 
L 306.838309 -37.489701 
L 308.670641 -37.455054 
L 310.502973 -37.481582 
L 312.335304 -37.494042 
L 312.335304 -37.880325 
L 312.335304 -37.880325 
L 310.502973 -37.896967 
L 308.670641 -37.871267 
L 306.838309 -37.903535 
L 305.005977 -37.913917 
L 303.173645 -37.874146 
L 301.341313 -37.895166 
L 299.508981 -37.892963 
L 297.676649 -37.857859 
L 295.844317 -37.849723 
L 294.011985 -37.823592 
L 292.179654 -37.828226 
L 290.347322 -37.812894 
L 288.51499 -37.819896 
L 286.682658 -37.809133 
L 284.850326 -37.802336 
L 283.017994 -37.801404 
L 281.185662 -37.808004 
L 279.35333 -37.766134 
L 277.520998 -37.754776 
L 275.688667 -37.780969 
L 273.856335 -37.784765 
L 272.024003 -37.803283 
L 270.191671 -37.811039 
L 268.359339 -37.823378 
L 266.527007 -37.852344 
L 264.694675 -37.904931 
L 262.862343 -37.938587 
L 261.030011 -38.035616 
L 259.197679 -38.030826 
L 257.365348 -38.067769 
L 255.533016 -38.153843 
L 253.700684 -38.22024 
L 251.868352 -38.28357 
L 250.03602 -38.410543 
L 248.203688 -38.481112 
L 246.371356 -38.609174 
L 244.539024 -38.70636 
L 242.706692 -38.816006 
L 240.87436 -38.971236 
L 239.042029 -39.058105 
L 237.209697 -39.252462 
L 235.377365 -39.31594 
L 233.545033 -39.370664 
L 231.712701 -39.377327 
L 229.880369 -39.360958 
L 228.048037 -39.305193 
L 226.215705 -39.496729 
L 224.383373 -39.528286 
L 222.551042 -39.785171 
L 220.71871 -39.912341 
L 218.886378 -40.09324 
L 217.054046 -40.648128 
L 215.221714 -40.927531 
L 213.389382 -41.671944 
L 211.55705 -42.083056 
L 209.724718 -42.713415 
L 207.892386 -44.523895 
z
" style="stroke: #dd8452; stroke-opacity: 0.2; stroke-width: 0.8"/>
    </defs>
    <g clip-path="url(#pcd35d1a615)">
     <use xlink:href="#m51b58baea7" x="0" y="160.84143" style="fill: #dd8452; fill-opacity: 0.2; stroke: #dd8452; stroke-opacity: 0.2; stroke-width: 0.8"/>
    </g>
   </g>
   <g id="PolyCollection_6">
    <defs>
     <path id="mdc251cc5c6" d="M 207.892386 -43.338427 
L 207.892386 -42.28894 
L 209.724718 -40.614285 
L 211.55705 -39.894408 
L 213.389382 -39.458298 
L 215.221714 -39.207368 
L 217.054046 -39.000304 
L 218.886378 -38.763374 
L 220.71871 -38.634308 
L 222.551042 -38.517316 
L 224.383373 -38.396121 
L 226.215705 -38.400208 
L 228.048037 -38.357438 
L 229.880369 -38.372361 
L 231.712701 -38.349 
L 233.545033 -38.329214 
L 235.377365 -38.29703 
L 237.209697 -38.238714 
L 239.042029 -38.181382 
L 240.87436 -38.135 
L 242.706692 -38.04609 
L 244.539024 -37.980745 
L 246.371356 -37.915997 
L 248.203688 -37.829896 
L 250.03602 -37.764551 
L 251.868352 -37.692664 
L 253.700684 -37.63885 
L 255.533016 -37.589234 
L 257.365348 -37.568817 
L 259.197679 -37.534073 
L 261.030011 -37.535773 
L 262.862343 -37.479461 
L 264.694675 -37.467306 
L 266.527007 -37.447405 
L 268.359339 -37.44201 
L 270.191671 -37.454673 
L 272.024003 -37.440532 
L 273.856335 -37.440321 
L 275.688667 -37.44391 
L 277.520998 -37.461265 
L 279.35333 -37.448986 
L 281.185662 -37.47188 
L 283.017994 -37.491446 
L 284.850326 -37.50357 
L 286.682658 -37.534195 
L 288.51499 -37.541263 
L 290.347322 -37.558808 
L 292.179654 -37.56372 
L 294.011985 -37.590101 
L 295.844317 -37.588278 
L 297.676649 -37.597272 
L 299.508981 -37.614637 
L 301.341313 -37.622037 
L 303.173645 -37.599516 
L 305.005977 -37.650774 
L 306.838309 -37.612931 
L 308.670641 -37.609309 
L 310.502973 -37.618688 
L 312.335304 -37.596987 
L 312.335304 -38.00077 
L 312.335304 -38.00077 
L 310.502973 -38.030343 
L 308.670641 -37.987472 
L 306.838309 -38.044481 
L 305.005977 -38.043985 
L 303.173645 -38.022683 
L 301.341313 -38.023362 
L 299.508981 -38.044555 
L 297.676649 -38.012636 
L 295.844317 -38.013072 
L 294.011985 -37.974126 
L 292.179654 -37.977574 
L 290.347322 -37.962769 
L 288.51499 -37.952822 
L 286.682658 -37.942463 
L 284.850326 -37.91785 
L 283.017994 -37.893818 
L 281.185662 -37.880383 
L 279.35333 -37.865151 
L 277.520998 -37.893826 
L 275.688667 -37.844851 
L 273.856335 -37.846409 
L 272.024003 -37.858025 
L 270.191671 -37.869993 
L 268.359339 -37.857635 
L 266.527007 -37.868977 
L 264.694675 -37.874151 
L 262.862343 -37.914154 
L 261.030011 -37.988943 
L 259.197679 -37.959917 
L 257.365348 -38.018227 
L 255.533016 -38.056853 
L 253.700684 -38.078282 
L 251.868352 -38.152453 
L 250.03602 -38.227705 
L 248.203688 -38.296482 
L 246.371356 -38.383462 
L 244.539024 -38.464523 
L 242.706692 -38.562332 
L 240.87436 -38.620544 
L 239.042029 -38.685823 
L 237.209697 -38.783062 
L 235.377365 -38.801657 
L 233.545033 -38.856017 
L 231.712701 -38.910883 
L 229.880369 -38.909202 
L 228.048037 -38.847056 
L 226.215705 -38.96565 
L 224.383373 -38.924608 
L 222.551042 -39.093822 
L 220.71871 -39.201949 
L 218.886378 -39.384763 
L 217.054046 -39.646787 
L 215.221714 -39.865716 
L 213.389382 -40.176496 
L 211.55705 -40.656274 
L 209.724718 -41.51122 
L 207.892386 -43.338427 
z
" style="stroke: #55a868; stroke-opacity: 0.2; stroke-width: 0.8"/>
    </defs>
    <g clip-path="url(#pcd35d1a615)">
     <use xlink:href="#mdc251cc5c6" x="0" y="160.84143" style="fill: #55a868; fill-opacity: 0.2; stroke: #55a868; stroke-opacity: 0.2; stroke-width: 0.8"/>
    </g>
   </g>
   <g id="line2d_27">
    <path d="M 207.892386 116.895108 
L 209.724718 118.573561 
L 211.55705 119.180725 
L 213.389382 119.552511 
L 215.221714 120.269241 
L 217.054046 120.555351 
L 218.886378 121.07912 
L 220.71871 121.248043 
L 222.551042 121.354967 
L 224.383373 121.649133 
L 226.215705 121.641301 
L 228.048037 121.839975 
L 229.880369 121.775122 
L 231.712701 121.758528 
L 233.545033 121.771008 
L 235.377365 121.792641 
L 237.209697 121.858115 
L 239.042029 122.049048 
L 240.87436 122.110703 
L 242.706692 122.280188 
L 244.539024 122.360583 
L 246.371356 122.457536 
L 248.203688 122.597966 
L 250.03602 122.67456 
L 251.868352 122.781013 
L 253.700684 122.844901 
L 255.533016 122.903463 
L 257.365348 122.981723 
L 259.197679 123.033251 
L 261.030011 123.028025 
L 262.862343 123.100506 
L 264.694675 123.128802 
L 266.527007 123.179517 
L 268.359339 123.197197 
L 270.191671 123.216357 
L 272.024003 123.252068 
L 273.856335 123.265018 
L 275.688667 123.26927 
L 277.520998 123.265225 
L 279.35333 123.261209 
L 281.185662 123.247605 
L 283.017994 123.239056 
L 284.850326 123.230795 
L 286.682658 123.222417 
L 288.51499 123.220997 
L 290.347322 123.219522 
L 292.179654 123.206663 
L 294.011985 123.200765 
L 295.844317 123.174553 
L 297.676649 123.172166 
L 299.508981 123.145478 
L 301.341313 123.142213 
L 303.173645 123.146624 
L 305.005977 123.117579 
L 306.838309 123.134176 
L 308.670641 123.150636 
L 310.502973 123.121792 
L 312.335304 123.138812 
" clip-path="url(#pcd35d1a615)" style="fill: none; stroke: #4c72b0; stroke-width: 1.2; stroke-linecap: round"/>
   </g>
   <g id="line2d_28">
    <path d="M 207.892386 116.841594 
L 209.724718 118.56166 
L 211.55705 119.175261 
L 213.389382 119.550748 
L 215.221714 120.272212 
L 217.054046 120.554877 
L 218.886378 121.089185 
L 220.71871 121.254744 
L 222.551042 121.364054 
L 224.383373 121.65694 
L 226.215705 121.650624 
L 228.048037 121.851402 
L 229.880369 121.781541 
L 231.712701 121.762504 
L 233.545033 121.774867 
L 235.377365 121.798545 
L 237.209697 121.86503 
L 239.042029 122.054214 
L 240.87436 122.116939 
L 242.706692 122.291559 
L 244.539024 122.367331 
L 246.371356 122.464504 
L 248.203688 122.603244 
L 250.03602 122.679729 
L 251.868352 122.78954 
L 253.700684 122.854337 
L 255.533016 122.912828 
L 257.365348 122.993649 
L 259.197679 123.043264 
L 261.030011 123.034224 
L 262.862343 123.112479 
L 264.694675 123.142709 
L 266.527007 123.196833 
L 268.359339 123.216158 
L 270.191671 123.234029 
L 272.024003 123.266818 
L 273.856335 123.280959 
L 275.688667 123.287937 
L 277.520998 123.285346 
L 279.35333 123.281925 
L 281.185662 123.267383 
L 283.017994 123.259321 
L 284.850326 123.248832 
L 286.682658 123.244328 
L 288.51499 123.24211 
L 290.347322 123.240802 
L 292.179654 123.228009 
L 294.011985 123.219848 
L 295.844317 123.1954 
L 297.676649 123.191025 
L 299.508981 123.16315 
L 301.341313 123.161279 
L 303.173645 123.16591 
L 305.005977 123.136235 
L 306.838309 123.154639 
L 308.670641 123.174793 
L 310.502973 123.14432 
L 312.335304 123.160516 
" clip-path="url(#pcd35d1a615)" style="fill: none; stroke: #dd8452; stroke-width: 1.2; stroke-linecap: round"/>
   </g>
   <g id="line2d_29">
    <path d="M 207.892386 118.014892 
L 209.724718 119.783388 
L 211.55705 120.584442 
L 213.389382 121.020753 
L 215.221714 121.326593 
L 217.054046 121.537496 
L 218.886378 121.765507 
L 220.71871 121.941782 
L 222.551042 122.055101 
L 224.383373 122.182446 
L 226.215705 122.172547 
L 228.048037 122.236685 
L 229.880369 122.213672 
L 231.712701 122.222745 
L 233.545033 122.254193 
L 235.377365 122.296139 
L 237.209697 122.339857 
L 239.042029 122.413518 
L 240.87436 122.461311 
L 242.706692 122.547658 
L 244.539024 122.625556 
L 246.371356 122.698737 
L 248.203688 122.783664 
L 250.03602 122.856276 
L 251.868352 122.927177 
L 253.700684 122.978391 
L 255.533016 123.023263 
L 257.365348 123.050221 
L 259.197679 123.091839 
L 261.030011 123.102443 
L 262.862343 123.147373 
L 264.694675 123.169536 
L 266.527007 123.188873 
L 268.359339 123.192547 
L 270.191671 123.192026 
L 272.024003 123.203603 
L 273.856335 123.206832 
L 275.688667 123.195592 
L 277.520998 123.181044 
L 279.35333 123.179149 
L 281.185662 123.160293 
L 283.017994 123.15035 
L 284.850326 123.134132 
L 286.682658 123.10447 
L 288.51499 123.093526 
L 290.347322 123.091661 
L 292.179654 123.075289 
L 294.011985 123.067512 
L 295.844317 123.041591 
L 297.676649 123.040946 
L 299.508981 123.01742 
L 301.341313 123.020704 
L 303.173645 123.023188 
L 305.005977 123.000467 
L 306.838309 123.020505 
L 308.670641 123.043316 
L 310.502973 123.019139 
L 312.335304 123.040308 
" clip-path="url(#pcd35d1a615)" style="fill: none; stroke: #55a868; stroke-width: 1.2; stroke-linecap: round"/>
   </g>
   <g id="patch_6">
    <path d="M 202.67024 126.51768 
L 202.67024 34.826445 
" style="fill: none; stroke: #ffffff; stroke-linejoin: miter; stroke-linecap: square"/>
   </g>
   <g id="patch_7">
    <path d="M 202.67024 126.51768 
L 317.55745 126.51768 
" style="fill: none; stroke: #ffffff; stroke-linejoin: miter; stroke-linecap: square"/>
   </g>
  </g>
  <g id="text_25">
   <!-- Chicago -->
   <g style="fill: #262626" transform="translate(164.14995 13.02375) scale(0.08 -0.08)">
    <defs>
     <path id="ArialMT-68" d="M 422 0 
L 422 4581 
L 984 4581 
L 984 2938 
Q 1378 3394 1978 3394 
Q 2347 3394 2619 3248 
Q 2891 3103 3008 2847 
Q 3125 2591 3125 2103 
L 3125 0 
L 2563 0 
L 2563 2103 
Q 2563 2525 2380 2717 
Q 2197 2909 1863 2909 
Q 1613 2909 1392 2779 
Q 1172 2650 1078 2428 
Q 984 2206 984 1816 
L 984 0 
L 422 0 
z
" transform="scale(0.015625)"/>
    </defs>
    <use xlink:href="#ArialMT-43"/>
    <use xlink:href="#ArialMT-68" x="72.216797"/>
    <use xlink:href="#ArialMT-69" x="127.832031"/>
    <use xlink:href="#ArialMT-63" x="150.048828"/>
    <use xlink:href="#ArialMT-61" x="200.048828"/>
    <use xlink:href="#ArialMT-67" x="255.664062"/>
    <use xlink:href="#ArialMT-6f" x="311.279297"/>
   </g>
  </g>
  <g id="legend_1">
   <g id="text_26">
    <!-- Model -->
    <g style="fill: #262626" transform="translate(332.19075 67.6332) scale(0.0768 -0.0768)">
     <defs>
      <path id="ArialMT-4d" d="M 475 0 
L 475 4581 
L 1388 4581 
L 2472 1338 
Q 2622 884 2691 659 
Q 2769 909 2934 1394 
L 4031 4581 
L 4847 4581 
L 4847 0 
L 4263 0 
L 4263 3834 
L 2931 0 
L 2384 0 
L 1059 3900 
L 1059 0 
L 475 0 
z
" transform="scale(0.015625)"/>
      <path id="ArialMT-6c" d="M 409 0 
L 409 4581 
L 972 4581 
L 972 0 
L 409 0 
z
" transform="scale(0.015625)"/>
     </defs>
     <use xlink:href="#ArialMT-4d"/>
     <use xlink:href="#ArialMT-6f" x="83.300781"/>
     <use xlink:href="#ArialMT-64" x="138.916016"/>
     <use xlink:href="#ArialMT-65" x="194.53125"/>
     <use xlink:href="#ArialMT-6c" x="250.146484"/>
    </g>
   </g>
   <g id="line2d_30">
    <path d="M 323.40095 75.2547 
L 330.44095 75.2547 
L 337.48095 75.2547 
" style="fill: none; stroke: #4c72b0; stroke-width: 1.2; stroke-linecap: round"/>
   </g>
   <g id="text_27">
    <!-- Naive -->
    <g style="fill: #262626" transform="translate(343.11295 77.7187) scale(0.0704 -0.0704)">
     <defs>
      <path id="ArialMT-4e" d="M 488 0 
L 488 4581 
L 1109 4581 
L 3516 984 
L 3516 4581 
L 4097 4581 
L 4097 0 
L 3475 0 
L 1069 3600 
L 1069 0 
L 488 0 
z
" transform="scale(0.015625)"/>
     </defs>
     <use xlink:href="#ArialMT-4e"/>
     <use xlink:href="#ArialMT-61" x="72.216797"/>
     <use xlink:href="#ArialMT-69" x="127.832031"/>
     <use xlink:href="#ArialMT-76" x="150.048828"/>
     <use xlink:href="#ArialMT-65" x="200.048828"/>
    </g>
   </g>
   <g id="line2d_31">
    <path d="M 323.40095 85.213 
L 330.44095 85.213 
L 337.48095 85.213 
" style="fill: none; stroke: #dd8452; stroke-width: 1.2; stroke-linecap: round"/>
   </g>
   <g id="text_28">
    <!-- KDE -->
    <g style="fill: #262626" transform="translate(343.11295 87.677) scale(0.0704 -0.0704)">
     <defs>
      <path id="ArialMT-4b" d="M 469 0 
L 469 4581 
L 1075 4581 
L 1075 2309 
L 3350 4581 
L 4172 4581 
L 2250 2725 
L 4256 0 
L 3456 0 
L 1825 2319 
L 1075 1588 
L 1075 0 
L 469 0 
z
" transform="scale(0.015625)"/>
      <path id="ArialMT-44" d="M 494 0 
L 494 4581 
L 2072 4581 
Q 2606 4581 2888 4516 
Q 3281 4425 3559 4188 
Q 3922 3881 4101 3404 
Q 4281 2928 4281 2316 
Q 4281 1794 4159 1391 
Q 4038 988 3847 723 
Q 3656 459 3429 307 
Q 3203 156 2883 78 
Q 2563 0 2147 0 
L 494 0 
z
M 1100 541 
L 2078 541 
Q 2531 541 2789 625 
Q 3047 709 3200 863 
Q 3416 1078 3536 1442 
Q 3656 1806 3656 2325 
Q 3656 3044 3420 3430 
Q 3184 3816 2847 3947 
Q 2603 4041 2063 4041 
L 1100 4041 
L 1100 541 
z
" transform="scale(0.015625)"/>
      <path id="ArialMT-45" d="M 506 0 
L 506 4581 
L 3819 4581 
L 3819 4041 
L 1113 4041 
L 1113 2638 
L 3647 2638 
L 3647 2100 
L 1113 2100 
L 1113 541 
L 3925 541 
L 3925 0 
L 506 0 
z
" transform="scale(0.015625)"/>
     </defs>
     <use xlink:href="#ArialMT-4b"/>
     <use xlink:href="#ArialMT-44" x="66.699219"/>
     <use xlink:href="#ArialMT-45" x="138.916016"/>
    </g>
   </g>
   <g id="line2d_32">
    <path d="M 323.40095 95.1713 
L 330.44095 95.1713 
L 337.48095 95.1713 
" style="fill: none; stroke: #55a868; stroke-width: 1.2; stroke-linecap: round"/>
   </g>
   <g id="text_29">
    <!-- SEPP -->
    <g style="fill: #262626" transform="translate(343.11295 97.6353) scale(0.0704 -0.0704)">
     <defs>
      <path id="ArialMT-53" d="M 288 1472 
L 859 1522 
Q 900 1178 1048 958 
Q 1197 738 1509 602 
Q 1822 466 2213 466 
Q 2559 466 2825 569 
Q 3091 672 3220 851 
Q 3350 1031 3350 1244 
Q 3350 1459 3225 1620 
Q 3100 1781 2813 1891 
Q 2628 1963 1997 2114 
Q 1366 2266 1113 2400 
Q 784 2572 623 2826 
Q 463 3081 463 3397 
Q 463 3744 659 4045 
Q 856 4347 1234 4503 
Q 1613 4659 2075 4659 
Q 2584 4659 2973 4495 
Q 3363 4331 3572 4012 
Q 3781 3694 3797 3291 
L 3216 3247 
Q 3169 3681 2898 3903 
Q 2628 4125 2100 4125 
Q 1550 4125 1298 3923 
Q 1047 3722 1047 3438 
Q 1047 3191 1225 3031 
Q 1400 2872 2139 2705 
Q 2878 2538 3153 2413 
Q 3553 2228 3743 1945 
Q 3934 1663 3934 1294 
Q 3934 928 3725 604 
Q 3516 281 3123 101 
Q 2731 -78 2241 -78 
Q 1619 -78 1198 103 
Q 778 284 539 648 
Q 300 1013 288 1472 
z
" transform="scale(0.015625)"/>
     </defs>
     <use xlink:href="#ArialMT-53"/>
     <use xlink:href="#ArialMT-45" x="66.699219"/>
     <use xlink:href="#ArialMT-50" x="133.398438"/>
     <use xlink:href="#ArialMT-50" x="200.097656"/>
    </g>
   </g>
  </g>
 </g>
 <defs>
  <clipPath id="pfa4b3d4535">
   <rect x="38.03375" y="34.826445" width="114.88721" height="91.691235"/>
  </clipPath>
  <clipPath id="pcd35d1a615">
   <rect x="202.67024" y="34.826445" width="114.88721" height="91.691235"/>
  </clipPath>
 </defs>
</svg>
