<?xml version="1.0" encoding="utf-8" standalone="no"?>
<!DOCTYPE svg PUBLIC "-//W3C//DTD SVG 1.1//EN"
  "http://www.w3.org/Graphics/SVG/1.1/DTD/svg11.dtd">
<svg xmlns:xlink="http://www.w3.org/1999/xlink" width="427.07175pt" height="149.33393pt" viewBox="0 0 427.07175 149.33393" xmlns="http://www.w3.org/2000/svg" version="1.1">
 <metadata>
  <rdf:RDF xmlns:dc="http://purl.org/dc/elements/1.1/" xmlns:cc="http://creativecommons.org/ns#" xmlns:rdf="http://www.w3.org/1999/02/22-rdf-syntax-ns#">
   <cc:Work>
    <dc:type rdf:resource="http://purl.org/dc/dcmitype/StillImage"/>
    <dc:date>2024-07-19T13:24:44.909151</dc:date>
    <dc:format>image/svg+xml</dc:format>
    <dc:creator>
     <cc:Agent>
      <dc:title>Matplotlib v3.8.2, https://matplotlib.org/</dc:title>
     </cc:Agent>
    </dc:creator>
   </cc:Work>
  </rdf:RDF>
 </metadata>
 <defs>
  <style type="text/css">*{stroke-linejoin: round; stroke-linecap: butt}</style>
 </defs>
 <g id="figure_1">
  <g id="patch_1">
   <path d="M 0 149.33393 
L 427.07175 149.33393 
L 427.07175 -0 
L 0 -0 
z
" style="fill: #ffffff"/>
  </g>
  <g id="axes_1">
   <g id="patch_2">
    <path d="M 47.27625 126.51768 
L 149.507564 126.51768 
L 149.507564 34.81632 
L 47.27625 34.81632 
z
" style="fill: #eaeaf2"/>
   </g>
   <g id="matplotlib.axis_1">
    <g id="xtick_1">
     <g id="line2d_1">
      <path d="M 48.662161 126.51768 
L 48.662161 34.81632 
" clip-path="url(#pcc8842458e)" style="fill: none; stroke: #ffffff; stroke-width: 0.8; stroke-linecap: round"/>
     </g>
     <g id="text_1">
      <!-- 0% -->
      <g style="fill: #262626" transform="translate(42.880911 140.54393) scale(0.08 -0.08)">
       <defs>
        <path id="ArialMT-30" d="M 266 2259 
Q 266 3072 433 3567 
Q 600 4063 929 4331 
Q 1259 4600 1759 4600 
Q 2128 4600 2406 4451 
Q 2684 4303 2865 4023 
Q 3047 3744 3150 3342 
Q 3253 2941 3253 2259 
Q 3253 1453 3087 958 
Q 2922 463 2592 192 
Q 2263 -78 1759 -78 
Q 1097 -78 719 397 
Q 266 969 266 2259 
z
M 844 2259 
Q 844 1131 1108 757 
Q 1372 384 1759 384 
Q 2147 384 2411 759 
Q 2675 1134 2675 2259 
Q 2675 3391 2411 3762 
Q 2147 4134 1753 4134 
Q 1366 4134 1134 3806 
Q 844 3388 844 2259 
z
" transform="scale(0.015625)"/>
        <path id="ArialMT-25" d="M 372 3481 
Q 372 3972 619 4315 
Q 866 4659 1334 4659 
Q 1766 4659 2048 4351 
Q 2331 4044 2331 3447 
Q 2331 2866 2045 2552 
Q 1759 2238 1341 2238 
Q 925 2238 648 2547 
Q 372 2856 372 3481 
z
M 1350 4272 
Q 1141 4272 1002 4090 
Q 863 3909 863 3425 
Q 863 2984 1003 2804 
Q 1144 2625 1350 2625 
Q 1563 2625 1702 2806 
Q 1841 2988 1841 3469 
Q 1841 3913 1700 4092 
Q 1559 4272 1350 4272 
z
M 1353 -169 
L 3859 4659 
L 4316 4659 
L 1819 -169 
L 1353 -169 
z
M 3334 1075 
Q 3334 1569 3581 1911 
Q 3828 2253 4300 2253 
Q 4731 2253 5014 1945 
Q 5297 1638 5297 1041 
Q 5297 459 5011 145 
Q 4725 -169 4303 -169 
Q 3888 -169 3611 142 
Q 3334 453 3334 1075 
z
M 4316 1866 
Q 4103 1866 3964 1684 
Q 3825 1503 3825 1019 
Q 3825 581 3965 400 
Q 4106 219 4313 219 
Q 4528 219 4667 400 
Q 4806 581 4806 1063 
Q 4806 1506 4665 1686 
Q 4525 1866 4316 1866 
z
" transform="scale(0.015625)"/>
       </defs>
       <use xlink:href="#ArialMT-30"/>
       <use xlink:href="#ArialMT-25" x="55.615234"/>
      </g>
     </g>
    </g>
    <g id="xtick_2">
     <g id="line2d_2">
      <path d="M 81.27183 126.51768 
L 81.27183 34.81632 
" clip-path="url(#pcc8842458e)" style="fill: none; stroke: #ffffff; stroke-width: 0.8; stroke-linecap: round"/>
     </g>
     <g id="text_2">
      <!-- 10% -->
      <g style="fill: #262626" transform="translate(73.266205 140.54393) scale(0.08 -0.08)">
       <defs>
        <path id="ArialMT-31" d="M 2384 0 
L 1822 0 
L 1822 3584 
Q 1619 3391 1289 3197 
Q 959 3003 697 2906 
L 697 3450 
Q 1169 3672 1522 3987 
Q 1875 4303 2022 4600 
L 2384 4600 
L 2384 0 
z
" transform="scale(0.015625)"/>
       </defs>
       <use xlink:href="#ArialMT-31"/>
       <use xlink:href="#ArialMT-30" x="55.615234"/>
       <use xlink:href="#ArialMT-25" x="111.230469"/>
      </g>
     </g>
    </g>
    <g id="xtick_3">
     <g id="line2d_3">
      <path d="M 113.8815 126.51768 
L 113.8815 34.81632 
" clip-path="url(#pcc8842458e)" style="fill: none; stroke: #ffffff; stroke-width: 0.8; stroke-linecap: round"/>
     </g>
     <g id="text_3">
      <!-- 20% -->
      <g style="fill: #262626" transform="translate(105.875875 140.54393) scale(0.08 -0.08)">
       <defs>
        <path id="ArialMT-32" d="M 3222 541 
L 3222 0 
L 194 0 
Q 188 203 259 391 
Q 375 700 629 1000 
Q 884 1300 1366 1694 
Q 2113 2306 2375 2664 
Q 2638 3022 2638 3341 
Q 2638 3675 2398 3904 
Q 2159 4134 1775 4134 
Q 1369 4134 1125 3890 
Q 881 3647 878 3216 
L 300 3275 
Q 359 3922 746 4261 
Q 1134 4600 1788 4600 
Q 2447 4600 2831 4234 
Q 3216 3869 3216 3328 
Q 3216 3053 3103 2787 
Q 2991 2522 2730 2228 
Q 2469 1934 1863 1422 
Q 1356 997 1212 845 
Q 1069 694 975 541 
L 3222 541 
z
" transform="scale(0.015625)"/>
       </defs>
       <use xlink:href="#ArialMT-32"/>
       <use xlink:href="#ArialMT-30" x="55.615234"/>
       <use xlink:href="#ArialMT-25" x="111.230469"/>
      </g>
     </g>
    </g>
    <g id="xtick_4">
     <g id="line2d_4">
      <path d="M 146.491169 126.51768 
L 146.491169 34.81632 
" clip-path="url(#pcc8842458e)" style="fill: none; stroke: #ffffff; stroke-width: 0.8; stroke-linecap: round"/>
     </g>
     <g id="text_4">
      <!-- 30% -->
      <g style="fill: #262626" transform="translate(138.485544 140.54393) scale(0.08 -0.08)">
       <defs>
        <path id="ArialMT-33" d="M 269 1209 
L 831 1284 
Q 928 806 1161 595 
Q 1394 384 1728 384 
Q 2125 384 2398 659 
Q 2672 934 2672 1341 
Q 2672 1728 2419 1979 
Q 2166 2231 1775 2231 
Q 1616 2231 1378 2169 
L 1441 2663 
Q 1497 2656 1531 2656 
Q 1891 2656 2178 2843 
Q 2466 3031 2466 3422 
Q 2466 3731 2256 3934 
Q 2047 4138 1716 4138 
Q 1388 4138 1169 3931 
Q 950 3725 888 3313 
L 325 3413 
Q 428 3978 793 4289 
Q 1159 4600 1703 4600 
Q 2078 4600 2393 4439 
Q 2709 4278 2876 4000 
Q 3044 3722 3044 3409 
Q 3044 3113 2884 2869 
Q 2725 2625 2413 2481 
Q 2819 2388 3044 2092 
Q 3269 1797 3269 1353 
Q 3269 753 2831 336 
Q 2394 -81 1725 -81 
Q 1122 -81 723 278 
Q 325 638 269 1209 
z
" transform="scale(0.015625)"/>
       </defs>
       <use xlink:href="#ArialMT-33"/>
       <use xlink:href="#ArialMT-30" x="55.615234"/>
       <use xlink:href="#ArialMT-25" x="111.230469"/>
      </g>
     </g>
    </g>
   </g>
   <g id="matplotlib.axis_2">
    <g id="ytick_1">
     <g id="line2d_5">
      <path d="M 47.27625 126.51768 
L 149.507564 126.51768 
" clip-path="url(#pcc8842458e)" style="fill: none; stroke: #ffffff; stroke-width: 0.8; stroke-linecap: round"/>
     </g>
     <g id="text_5">
      <!-- 0% -->
      <g style="fill: #262626" transform="translate(27.41375 129.380805) scale(0.08 -0.08)">
       <use xlink:href="#ArialMT-30"/>
       <use xlink:href="#ArialMT-25" x="55.615234"/>
      </g>
     </g>
    </g>
    <g id="ytick_2">
     <g id="line2d_6">
      <path d="M 47.27625 108.177408 
L 149.507564 108.177408 
" clip-path="url(#pcc8842458e)" style="fill: none; stroke: #ffffff; stroke-width: 0.8; stroke-linecap: round"/>
     </g>
     <g id="text_6">
      <!-- 20% -->
      <g style="fill: #262626" transform="translate(22.965 111.040533) scale(0.08 -0.08)">
       <use xlink:href="#ArialMT-32"/>
       <use xlink:href="#ArialMT-30" x="55.615234"/>
       <use xlink:href="#ArialMT-25" x="111.230469"/>
      </g>
     </g>
    </g>
    <g id="ytick_3">
     <g id="line2d_7">
      <path d="M 47.27625 89.837136 
L 149.507564 89.837136 
" clip-path="url(#pcc8842458e)" style="fill: none; stroke: #ffffff; stroke-width: 0.8; stroke-linecap: round"/>
     </g>
     <g id="text_7">
      <!-- 40% -->
      <g style="fill: #262626" transform="translate(22.965 92.700261) scale(0.08 -0.08)">
       <defs>
        <path id="ArialMT-34" d="M 2069 0 
L 2069 1097 
L 81 1097 
L 81 1613 
L 2172 4581 
L 2631 4581 
L 2631 1613 
L 3250 1613 
L 3250 1097 
L 2631 1097 
L 2631 0 
L 2069 0 
z
M 2069 1613 
L 2069 3678 
L 634 1613 
L 2069 1613 
z
" transform="scale(0.015625)"/>
       </defs>
       <use xlink:href="#ArialMT-34"/>
       <use xlink:href="#ArialMT-30" x="55.615234"/>
       <use xlink:href="#ArialMT-25" x="111.230469"/>
      </g>
     </g>
    </g>
    <g id="ytick_4">
     <g id="line2d_8">
      <path d="M 47.27625 71.496864 
L 149.507564 71.496864 
" clip-path="url(#pcc8842458e)" style="fill: none; stroke: #ffffff; stroke-width: 0.8; stroke-linecap: round"/>
     </g>
     <g id="text_8">
      <!-- 60% -->
      <g style="fill: #262626" transform="translate(22.965 74.359989) scale(0.08 -0.08)">
       <defs>
        <path id="ArialMT-36" d="M 3184 3459 
L 2625 3416 
Q 2550 3747 2413 3897 
Q 2184 4138 1850 4138 
Q 1581 4138 1378 3988 
Q 1113 3794 959 3422 
Q 806 3050 800 2363 
Q 1003 2672 1297 2822 
Q 1591 2972 1913 2972 
Q 2475 2972 2870 2558 
Q 3266 2144 3266 1488 
Q 3266 1056 3080 686 
Q 2894 316 2569 119 
Q 2244 -78 1831 -78 
Q 1128 -78 684 439 
Q 241 956 241 2144 
Q 241 3472 731 4075 
Q 1159 4600 1884 4600 
Q 2425 4600 2770 4297 
Q 3116 3994 3184 3459 
z
M 888 1484 
Q 888 1194 1011 928 
Q 1134 663 1356 523 
Q 1578 384 1822 384 
Q 2178 384 2434 671 
Q 2691 959 2691 1453 
Q 2691 1928 2437 2201 
Q 2184 2475 1800 2475 
Q 1419 2475 1153 2201 
Q 888 1928 888 1484 
z
" transform="scale(0.015625)"/>
       </defs>
       <use xlink:href="#ArialMT-36"/>
       <use xlink:href="#ArialMT-30" x="55.615234"/>
       <use xlink:href="#ArialMT-25" x="111.230469"/>
      </g>
     </g>
    </g>
    <g id="ytick_5">
     <g id="line2d_9">
      <path d="M 47.27625 53.156592 
L 149.507564 53.156592 
" clip-path="url(#pcc8842458e)" style="fill: none; stroke: #ffffff; stroke-width: 0.8; stroke-linecap: round"/>
     </g>
     <g id="text_9">
      <!-- 80% -->
      <g style="fill: #262626" transform="translate(22.965 56.019717) scale(0.08 -0.08)">
       <defs>
        <path id="ArialMT-38" d="M 1131 2484 
Q 781 2613 612 2850 
Q 444 3088 444 3419 
Q 444 3919 803 4259 
Q 1163 4600 1759 4600 
Q 2359 4600 2725 4251 
Q 3091 3903 3091 3403 
Q 3091 3084 2923 2848 
Q 2756 2613 2416 2484 
Q 2838 2347 3058 2040 
Q 3278 1734 3278 1309 
Q 3278 722 2862 322 
Q 2447 -78 1769 -78 
Q 1091 -78 675 323 
Q 259 725 259 1325 
Q 259 1772 486 2073 
Q 713 2375 1131 2484 
z
M 1019 3438 
Q 1019 3113 1228 2906 
Q 1438 2700 1772 2700 
Q 2097 2700 2305 2904 
Q 2513 3109 2513 3406 
Q 2513 3716 2298 3927 
Q 2084 4138 1766 4138 
Q 1444 4138 1231 3931 
Q 1019 3725 1019 3438 
z
M 838 1322 
Q 838 1081 952 856 
Q 1066 631 1291 507 
Q 1516 384 1775 384 
Q 2178 384 2440 643 
Q 2703 903 2703 1303 
Q 2703 1709 2433 1975 
Q 2163 2241 1756 2241 
Q 1359 2241 1098 1978 
Q 838 1716 838 1322 
z
" transform="scale(0.015625)"/>
       </defs>
       <use xlink:href="#ArialMT-38"/>
       <use xlink:href="#ArialMT-30" x="55.615234"/>
       <use xlink:href="#ArialMT-25" x="111.230469"/>
      </g>
     </g>
    </g>
    <g id="ytick_6">
     <g id="line2d_10">
      <path d="M 47.27625 34.81632 
L 149.507564 34.81632 
" clip-path="url(#pcc8842458e)" style="fill: none; stroke: #ffffff; stroke-width: 0.8; stroke-linecap: round"/>
     </g>
     <g id="text_10">
      <!-- 100% -->
      <g style="fill: #262626" transform="translate(18.51625 37.679445) scale(0.08 -0.08)">
       <use xlink:href="#ArialMT-31"/>
       <use xlink:href="#ArialMT-30" x="55.615234"/>
       <use xlink:href="#ArialMT-30" x="111.230469"/>
       <use xlink:href="#ArialMT-25" x="166.845703"/>
      </g>
     </g>
    </g>
    <g id="text_11">
     <!-- Precision -->
     <g style="fill: #262626" transform="translate(12.92625 97.117625) rotate(-90) scale(0.08 -0.08)">
      <defs>
       <path id="ArialMT-50" d="M 494 0 
L 494 4581 
L 2222 4581 
Q 2678 4581 2919 4538 
Q 3256 4481 3484 4323 
Q 3713 4166 3852 3881 
Q 3991 3597 3991 3256 
Q 3991 2672 3619 2267 
Q 3247 1863 2275 1863 
L 1100 1863 
L 1100 0 
L 494 0 
z
M 1100 2403 
L 2284 2403 
Q 2872 2403 3119 2622 
Q 3366 2841 3366 3238 
Q 3366 3525 3220 3729 
Q 3075 3934 2838 4000 
Q 2684 4041 2272 4041 
L 1100 4041 
L 1100 2403 
z
" transform="scale(0.015625)"/>
       <path id="ArialMT-72" d="M 416 0 
L 416 3319 
L 922 3319 
L 922 2816 
Q 1116 3169 1280 3281 
Q 1444 3394 1641 3394 
Q 1925 3394 2219 3213 
L 2025 2691 
Q 1819 2813 1613 2813 
Q 1428 2813 1281 2702 
Q 1134 2591 1072 2394 
Q 978 2094 978 1738 
L 978 0 
L 416 0 
z
" transform="scale(0.015625)"/>
       <path id="ArialMT-65" d="M 2694 1069 
L 3275 997 
Q 3138 488 2766 206 
Q 2394 -75 1816 -75 
Q 1088 -75 661 373 
Q 234 822 234 1631 
Q 234 2469 665 2931 
Q 1097 3394 1784 3394 
Q 2450 3394 2872 2941 
Q 3294 2488 3294 1666 
Q 3294 1616 3291 1516 
L 816 1516 
Q 847 969 1125 678 
Q 1403 388 1819 388 
Q 2128 388 2347 550 
Q 2566 713 2694 1069 
z
M 847 1978 
L 2700 1978 
Q 2663 2397 2488 2606 
Q 2219 2931 1791 2931 
Q 1403 2931 1139 2672 
Q 875 2413 847 1978 
z
" transform="scale(0.015625)"/>
       <path id="ArialMT-63" d="M 2588 1216 
L 3141 1144 
Q 3050 572 2676 248 
Q 2303 -75 1759 -75 
Q 1078 -75 664 370 
Q 250 816 250 1647 
Q 250 2184 428 2587 
Q 606 2991 970 3192 
Q 1334 3394 1763 3394 
Q 2303 3394 2647 3120 
Q 2991 2847 3088 2344 
L 2541 2259 
Q 2463 2594 2264 2762 
Q 2066 2931 1784 2931 
Q 1359 2931 1093 2626 
Q 828 2322 828 1663 
Q 828 994 1084 691 
Q 1341 388 1753 388 
Q 2084 388 2306 591 
Q 2528 794 2588 1216 
z
" transform="scale(0.015625)"/>
       <path id="ArialMT-69" d="M 425 3934 
L 425 4581 
L 988 4581 
L 988 3934 
L 425 3934 
z
M 425 0 
L 425 3319 
L 988 3319 
L 988 0 
L 425 0 
z
" transform="scale(0.015625)"/>
       <path id="ArialMT-73" d="M 197 991 
L 753 1078 
Q 800 744 1014 566 
Q 1228 388 1613 388 
Q 2000 388 2187 545 
Q 2375 703 2375 916 
Q 2375 1106 2209 1216 
Q 2094 1291 1634 1406 
Q 1016 1563 777 1677 
Q 538 1791 414 1992 
Q 291 2194 291 2438 
Q 291 2659 392 2848 
Q 494 3038 669 3163 
Q 800 3259 1026 3326 
Q 1253 3394 1513 3394 
Q 1903 3394 2198 3281 
Q 2494 3169 2634 2976 
Q 2775 2784 2828 2463 
L 2278 2388 
Q 2241 2644 2061 2787 
Q 1881 2931 1553 2931 
Q 1166 2931 1000 2803 
Q 834 2675 834 2503 
Q 834 2394 903 2306 
Q 972 2216 1119 2156 
Q 1203 2125 1616 2013 
Q 2213 1853 2448 1751 
Q 2684 1650 2818 1456 
Q 2953 1263 2953 975 
Q 2953 694 2789 445 
Q 2625 197 2315 61 
Q 2006 -75 1616 -75 
Q 969 -75 630 194 
Q 291 463 197 991 
z
" transform="scale(0.015625)"/>
       <path id="ArialMT-6f" d="M 213 1659 
Q 213 2581 725 3025 
Q 1153 3394 1769 3394 
Q 2453 3394 2887 2945 
Q 3322 2497 3322 1706 
Q 3322 1066 3130 698 
Q 2938 331 2570 128 
Q 2203 -75 1769 -75 
Q 1072 -75 642 372 
Q 213 819 213 1659 
z
M 791 1659 
Q 791 1022 1069 705 
Q 1347 388 1769 388 
Q 2188 388 2466 706 
Q 2744 1025 2744 1678 
Q 2744 2294 2464 2611 
Q 2184 2928 1769 2928 
Q 1347 2928 1069 2612 
Q 791 2297 791 1659 
z
" transform="scale(0.015625)"/>
       <path id="ArialMT-6e" d="M 422 0 
L 422 3319 
L 928 3319 
L 928 2847 
Q 1294 3394 1984 3394 
Q 2284 3394 2536 3286 
Q 2788 3178 2913 3003 
Q 3038 2828 3088 2588 
Q 3119 2431 3119 2041 
L 3119 0 
L 2556 0 
L 2556 2019 
Q 2556 2363 2490 2533 
Q 2425 2703 2258 2804 
Q 2091 2906 1866 2906 
Q 1506 2906 1245 2678 
Q 984 2450 984 1813 
L 984 0 
L 422 0 
z
" transform="scale(0.015625)"/>
      </defs>
      <use xlink:href="#ArialMT-50"/>
      <use xlink:href="#ArialMT-72" x="66.699219"/>
      <use xlink:href="#ArialMT-65" x="100"/>
      <use xlink:href="#ArialMT-63" x="155.615234"/>
      <use xlink:href="#ArialMT-69" x="205.615234"/>
      <use xlink:href="#ArialMT-73" x="227.832031"/>
      <use xlink:href="#ArialMT-69" x="277.832031"/>
      <use xlink:href="#ArialMT-6f" x="300.048828"/>
      <use xlink:href="#ArialMT-6e" x="355.664062"/>
     </g>
    </g>
   </g>
   <g id="PolyCollection_1">
    <defs>
     <path id="m5ec89184d0" d="M 51.923128 -87.546622 
L 51.923128 -79.662794 
L 53.553611 -70.637887 
L 55.184095 -68.042794 
L 56.814578 -68.303859 
L 58.445062 -68.708424 
L 60.075545 -69.116446 
L 61.706029 -68.84402 
L 63.336512 -68.822532 
L 64.966996 -68.689406 
L 66.597479 -68.215108 
L 68.227963 -67.101219 
L 69.858446 -67.101376 
L 71.48893 -66.234642 
L 73.119413 -65.561077 
L 74.749896 -64.827696 
L 76.38038 -64.295921 
L 78.010863 -63.638489 
L 79.641347 -63.088902 
L 81.27183 -62.748818 
L 82.902314 -62.272649 
L 84.532797 -61.604992 
L 86.163281 -61.14575 
L 87.793764 -60.749293 
L 89.424248 -60.843936 
L 91.054731 -60.489727 
L 92.685215 -60.120824 
L 94.315698 -59.665241 
L 95.946182 -59.517433 
L 97.576665 -59.24564 
L 99.207148 -58.891066 
L 100.837632 -58.659325 
L 102.468115 -58.312747 
L 104.098599 -58.133958 
L 105.729082 -58.115786 
L 107.359566 -57.963355 
L 108.990049 -57.874262 
L 110.620533 -57.870856 
L 112.251016 -57.812376 
L 113.8815 -57.710592 
L 115.511983 -57.633972 
L 117.142467 -57.609331 
L 118.77295 -57.518352 
L 120.403434 -57.536509 
L 122.033917 -57.499414 
L 123.664401 -57.425164 
L 125.294884 -57.50288 
L 126.925367 -57.469972 
L 128.555851 -57.476078 
L 130.186334 -57.491183 
L 131.816818 -57.482001 
L 133.447301 -57.447453 
L 135.077785 -57.419957 
L 136.708268 -57.550045 
L 138.338752 -57.418994 
L 139.969235 -57.456836 
L 141.599719 -57.445683 
L 143.230202 -57.473803 
L 144.860686 -57.477002 
L 144.860686 -58.993554 
L 144.860686 -58.993554 
L 143.230202 -59.054395 
L 141.599719 -59.037707 
L 139.969235 -59.058639 
L 138.338752 -58.97962 
L 136.708268 -59.049601 
L 135.077785 -59.033873 
L 133.447301 -58.992123 
L 131.816818 -59.032753 
L 130.186334 -59.020825 
L 128.555851 -59.032082 
L 126.925367 -59.094689 
L 125.294884 -59.023189 
L 123.664401 -59.036909 
L 122.033917 -59.075502 
L 120.403434 -59.089539 
L 118.77295 -59.215112 
L 117.142467 -59.170906 
L 115.511983 -59.239783 
L 113.8815 -59.354649 
L 112.251016 -59.430835 
L 110.620533 -59.601886 
L 108.990049 -59.494236 
L 107.359566 -59.656485 
L 105.729082 -59.793954 
L 104.098599 -59.942485 
L 102.468115 -60.108551 
L 100.837632 -60.42026 
L 99.207148 -60.861134 
L 97.576665 -61.088317 
L 95.946182 -61.369538 
L 94.315698 -61.713978 
L 92.685215 -62.0253 
L 91.054731 -62.370852 
L 89.424248 -62.814535 
L 87.793764 -62.865505 
L 86.163281 -63.321711 
L 84.532797 -63.84801 
L 82.902314 -64.415412 
L 81.27183 -65.083434 
L 79.641347 -65.458159 
L 78.010863 -66.071442 
L 76.38038 -66.743543 
L 74.749896 -67.25525 
L 73.119413 -68.363407 
L 71.48893 -69.064723 
L 69.858446 -70.04398 
L 68.227963 -70.062631 
L 66.597479 -71.223526 
L 64.966996 -71.871176 
L 63.336512 -72.194554 
L 61.706029 -72.549567 
L 60.075545 -72.712578 
L 58.445062 -72.940794 
L 56.814578 -72.712578 
L 55.184095 -73.231251 
L 53.553611 -76.654492 
L 51.923128 -87.546622 
z
" style="stroke: #4c72b0; stroke-opacity: 0.2; stroke-width: 0.8"/>
    </defs>
    <g clip-path="url(#pcc8842458e)">
     <use xlink:href="#m5ec89184d0" x="0" y="149.33393" style="fill: #4c72b0; fill-opacity: 0.2; stroke: #4c72b0; stroke-opacity: 0.2; stroke-width: 0.8"/>
    </g>
   </g>
   <g id="PolyCollection_2">
    <defs>
     <path id="mba685b2597" d="M 51.923128 -85.47193 
L 51.923128 -79.556467 
L 53.553611 -70.394111 
L 55.184095 -67.318381 
L 56.814578 -65.264436 
L 58.445062 -63.790541 
L 60.075545 -63.005245 
L 61.706029 -60.420032 
L 63.336512 -59.477632 
L 64.966996 -58.147467 
L 66.597479 -57.153397 
L 68.227963 -56.469119 
L 69.858446 -55.819459 
L 71.48893 -54.904546 
L 73.119413 -54.458965 
L 74.749896 -53.944629 
L 76.38038 -53.496725 
L 78.010863 -53.416364 
L 79.641347 -53.139765 
L 81.27183 -53.017982 
L 82.902314 -52.750415 
L 84.532797 -52.68482 
L 86.163281 -52.578954 
L 87.793764 -52.474875 
L 89.424248 -52.436688 
L 91.054731 -52.361912 
L 92.685215 -52.303348 
L 94.315698 -52.195748 
L 95.946182 -52.285523 
L 97.576665 -52.226068 
L 99.207148 -52.211717 
L 100.837632 -52.246932 
L 102.468115 -52.26497 
L 104.098599 -52.104252 
L 105.729082 -52.209957 
L 107.359566 -52.228599 
L 108.990049 -52.22222 
L 110.620533 -52.200969 
L 112.251016 -52.19838 
L 113.8815 -52.114546 
L 115.511983 -52.270144 
L 117.142467 -52.152184 
L 118.77295 -52.183716 
L 120.403434 -52.199354 
L 122.033917 -52.243246 
L 123.664401 -52.251217 
L 125.294884 -52.168263 
L 126.925367 -52.220439 
L 128.555851 -52.271089 
L 130.186334 -52.184122 
L 131.816818 -52.225311 
L 133.447301 -52.126077 
L 135.077785 -52.227131 
L 136.708268 -52.189691 
L 138.338752 -52.20239 
L 139.969235 -52.184346 
L 141.599719 -52.284165 
L 143.230202 -52.225313 
L 144.860686 -52.17268 
L 144.860686 -53.885971 
L 144.860686 -53.885971 
L 143.230202 -53.933245 
L 141.599719 -53.910863 
L 139.969235 -53.828175 
L 138.338752 -53.909639 
L 136.708268 -53.895867 
L 135.077785 -53.90503 
L 133.447301 -53.933186 
L 131.816818 -53.895482 
L 130.186334 -53.942845 
L 128.555851 -53.873033 
L 126.925367 -53.883948 
L 125.294884 -53.897853 
L 123.664401 -53.874901 
L 122.033917 -53.92158 
L 120.403434 -53.925341 
L 118.77295 -53.850863 
L 117.142467 -53.871936 
L 115.511983 -53.868789 
L 113.8815 -53.933662 
L 112.251016 -53.856603 
L 110.620533 -53.899474 
L 108.990049 -53.94117 
L 107.359566 -53.889546 
L 105.729082 -53.907942 
L 104.098599 -53.89501 
L 102.468115 -53.911485 
L 100.837632 -53.952003 
L 99.207148 -53.895276 
L 97.576665 -53.998625 
L 95.946182 -53.947882 
L 94.315698 -54.020688 
L 92.685215 -54.042068 
L 91.054731 -54.087404 
L 89.424248 -54.222588 
L 87.793764 -54.288319 
L 86.163281 -54.483988 
L 84.532797 -54.553819 
L 82.902314 -54.653814 
L 81.27183 -54.828021 
L 79.641347 -55.058539 
L 78.010863 -55.313862 
L 76.38038 -55.673002 
L 74.749896 -56.097046 
L 73.119413 -56.589463 
L 71.48893 -57.021644 
L 69.858446 -58.164811 
L 68.227963 -59.016694 
L 66.597479 -59.68381 
L 64.966996 -60.853008 
L 63.336512 -62.235459 
L 61.706029 -63.584584 
L 60.075545 -66.178041 
L 58.445062 -67.180932 
L 56.814578 -68.875436 
L 55.184095 -71.365326 
L 53.553611 -74.960161 
L 51.923128 -85.47193 
z
" style="stroke: #dd8452; stroke-opacity: 0.2; stroke-width: 0.8"/>
    </defs>
    <g clip-path="url(#pcc8842458e)">
     <use xlink:href="#mba685b2597" x="0" y="149.33393" style="fill: #dd8452; fill-opacity: 0.2; stroke: #dd8452; stroke-opacity: 0.2; stroke-width: 0.8"/>
    </g>
   </g>
   <g id="line2d_11">
    <path d="M 51.923128 65.729222 
L 53.553611 75.791475 
L 55.184095 78.661465 
L 56.814578 78.903512 
L 58.445062 78.426333 
L 60.075545 78.419418 
L 61.706029 78.533032 
L 63.336512 78.825711 
L 64.966996 79.053351 
L 66.597479 79.625044 
L 68.227963 80.771782 
L 69.858446 80.771782 
L 71.48893 81.69282 
L 73.119413 82.399013 
L 74.749896 83.253968 
L 76.38038 83.801291 
L 78.010863 84.481617 
L 79.641347 85.104025 
L 81.27183 85.453197 
L 82.902314 85.997348 
L 84.532797 86.560245 
L 86.163281 87.085339 
L 87.793764 87.511055 
L 89.424248 87.511055 
L 91.054731 87.935424 
L 92.685215 88.243245 
L 94.315698 88.616343 
L 95.946182 88.897863 
L 97.576665 89.190152 
L 99.207148 89.466778 
L 100.837632 89.797144 
L 102.468115 90.096663 
L 104.098599 90.292309 
L 105.729082 90.385795 
L 107.359566 90.524304 
L 108.990049 90.609733 
L 110.620533 90.609733 
L 112.251016 90.718175 
L 113.8815 90.819769 
L 115.511983 90.902787 
L 117.142467 90.945285 
L 118.77295 90.988402 
L 120.403434 91.017927 
L 122.033917 91.062583 
L 123.664401 91.064391 
L 125.294884 91.074615 
L 126.925367 91.074176 
L 128.555851 91.081092 
L 130.186334 91.081092 
L 131.816818 91.085802 
L 133.447301 91.092712 
L 135.077785 91.090596 
L 136.708268 91.088568 
L 138.338752 91.090769 
L 139.969235 91.090769 
L 141.599719 91.090769 
L 143.230202 91.090769 
L 144.860686 91.090769 
" clip-path="url(#pcc8842458e)" style="fill: none; stroke: #4c72b0; stroke-width: 1.2; stroke-linecap: round"/>
   </g>
   <g id="line2d_12">
    <path d="M 51.923128 66.974037 
L 53.553611 76.65593 
L 55.184095 79.940858 
L 56.814578 82.202272 
L 58.445062 83.813615 
L 60.075545 84.697829 
L 61.706029 87.280079 
L 63.336512 88.455737 
L 64.966996 89.78354 
L 66.597479 90.956683 
L 68.227963 91.517793 
L 69.858446 92.370279 
L 71.48893 93.421532 
L 73.119413 93.874506 
L 74.749896 94.325294 
L 76.38038 94.73074 
L 78.010863 95.005545 
L 79.641347 95.225572 
L 81.27183 95.405872 
L 82.902314 95.620976 
L 84.532797 95.70667 
L 86.163281 95.828069 
L 87.793764 95.920393 
L 89.424248 96.022851 
L 91.054731 96.106488 
L 92.685215 96.167544 
L 94.315698 96.207369 
L 95.946182 96.223877 
L 97.576665 96.241445 
L 99.207148 96.248322 
L 100.837632 96.253314 
L 102.468115 96.269877 
L 104.098599 96.281732 
L 105.729082 96.279707 
L 107.359566 96.275133 
L 108.990049 96.279753 
L 110.620533 96.277226 
L 112.251016 96.279883 
L 113.8815 96.282413 
L 115.511983 96.282413 
L 117.142467 96.282413 
L 118.77295 96.282413 
L 120.403434 96.282413 
L 122.033917 96.282413 
L 123.664401 96.282413 
L 125.294884 96.282413 
L 126.925367 96.282413 
L 128.555851 96.282413 
L 130.186334 96.282413 
L 131.816818 96.282413 
L 133.447301 96.282413 
L 135.077785 96.282413 
L 136.708268 96.282413 
L 138.338752 96.282413 
L 139.969235 96.282413 
L 141.599719 96.282413 
L 143.230202 96.282413 
L 144.860686 96.282413 
" clip-path="url(#pcc8842458e)" style="fill: none; stroke: #dd8452; stroke-width: 1.2; stroke-linecap: round"/>
   </g>
   <g id="line2d_13"/>
   <g id="line2d_14"/>
   <g id="patch_3">
    <path d="M 47.27625 126.51768 
L 47.27625 34.81632 
" style="fill: none; stroke: #ffffff; stroke-linejoin: miter; stroke-linecap: square"/>
   </g>
   <g id="patch_4">
    <path d="M 47.27625 126.51768 
L 149.507564 126.51768 
" style="fill: none; stroke: #ffffff; stroke-linejoin: miter; stroke-linecap: square"/>
   </g>
   <g id="text_12">
    <!-- Naive -->
    <g style="fill: #262626" transform="translate(88.574707 28.81632) scale(0.0768 -0.0768)">
     <defs>
      <path id="ArialMT-4e" d="M 488 0 
L 488 4581 
L 1109 4581 
L 3516 984 
L 3516 4581 
L 4097 4581 
L 4097 0 
L 3475 0 
L 1069 3600 
L 1069 0 
L 488 0 
z
" transform="scale(0.015625)"/>
      <path id="ArialMT-61" d="M 2588 409 
Q 2275 144 1986 34 
Q 1697 -75 1366 -75 
Q 819 -75 525 192 
Q 231 459 231 875 
Q 231 1119 342 1320 
Q 453 1522 633 1644 
Q 813 1766 1038 1828 
Q 1203 1872 1538 1913 
Q 2219 1994 2541 2106 
Q 2544 2222 2544 2253 
Q 2544 2597 2384 2738 
Q 2169 2928 1744 2928 
Q 1347 2928 1158 2789 
Q 969 2650 878 2297 
L 328 2372 
Q 403 2725 575 2942 
Q 747 3159 1072 3276 
Q 1397 3394 1825 3394 
Q 2250 3394 2515 3294 
Q 2781 3194 2906 3042 
Q 3031 2891 3081 2659 
Q 3109 2516 3109 2141 
L 3109 1391 
Q 3109 606 3145 398 
Q 3181 191 3288 0 
L 2700 0 
Q 2613 175 2588 409 
z
M 2541 1666 
Q 2234 1541 1622 1453 
Q 1275 1403 1131 1340 
Q 988 1278 909 1158 
Q 831 1038 831 891 
Q 831 666 1001 516 
Q 1172 366 1500 366 
Q 1825 366 2078 508 
Q 2331 650 2450 897 
Q 2541 1088 2541 1459 
L 2541 1666 
z
" transform="scale(0.015625)"/>
      <path id="ArialMT-76" d="M 1344 0 
L 81 3319 
L 675 3319 
L 1388 1331 
Q 1503 1009 1600 663 
Q 1675 925 1809 1294 
L 2547 3319 
L 3125 3319 
L 1869 0 
L 1344 0 
z
" transform="scale(0.015625)"/>
     </defs>
     <use xlink:href="#ArialMT-4e"/>
     <use xlink:href="#ArialMT-61" x="72.216797"/>
     <use xlink:href="#ArialMT-69" x="127.832031"/>
     <use xlink:href="#ArialMT-76" x="150.048828"/>
     <use xlink:href="#ArialMT-65" x="200.048828"/>
    </g>
   </g>
  </g>
  <g id="axes_2">
   <g id="patch_5">
    <path d="M 164.033362 126.51768 
L 266.264675 126.51768 
L 266.264675 34.81632 
L 164.033362 34.81632 
z
" style="fill: #eaeaf2"/>
   </g>
   <g id="matplotlib.axis_3">
    <g id="xtick_5">
     <g id="line2d_15">
      <path d="M 165.419273 126.51768 
L 165.419273 34.81632 
" clip-path="url(#p1a2bf26f95)" style="fill: none; stroke: #ffffff; stroke-width: 0.8; stroke-linecap: round"/>
     </g>
     <g id="text_13">
      <!-- 0% -->
      <g style="fill: #262626" transform="translate(159.638023 140.54393) scale(0.08 -0.08)">
       <use xlink:href="#ArialMT-30"/>
       <use xlink:href="#ArialMT-25" x="55.615234"/>
      </g>
     </g>
    </g>
    <g id="xtick_6">
     <g id="line2d_16">
      <path d="M 198.028942 126.51768 
L 198.028942 34.81632 
" clip-path="url(#p1a2bf26f95)" style="fill: none; stroke: #ffffff; stroke-width: 0.8; stroke-linecap: round"/>
     </g>
     <g id="text_14">
      <!-- 10% -->
      <g style="fill: #262626" transform="translate(190.023317 140.54393) scale(0.08 -0.08)">
       <use xlink:href="#ArialMT-31"/>
       <use xlink:href="#ArialMT-30" x="55.615234"/>
       <use xlink:href="#ArialMT-25" x="111.230469"/>
      </g>
     </g>
    </g>
    <g id="xtick_7">
     <g id="line2d_17">
      <path d="M 230.638611 126.51768 
L 230.638611 34.81632 
" clip-path="url(#p1a2bf26f95)" style="fill: none; stroke: #ffffff; stroke-width: 0.8; stroke-linecap: round"/>
     </g>
     <g id="text_15">
      <!-- 20% -->
      <g style="fill: #262626" transform="translate(222.632986 140.54393) scale(0.08 -0.08)">
       <use xlink:href="#ArialMT-32"/>
       <use xlink:href="#ArialMT-30" x="55.615234"/>
       <use xlink:href="#ArialMT-25" x="111.230469"/>
      </g>
     </g>
    </g>
    <g id="xtick_8">
     <g id="line2d_18">
      <path d="M 263.248281 126.51768 
L 263.248281 34.81632 
" clip-path="url(#p1a2bf26f95)" style="fill: none; stroke: #ffffff; stroke-width: 0.8; stroke-linecap: round"/>
     </g>
     <g id="text_16">
      <!-- 30% -->
      <g style="fill: #262626" transform="translate(255.242656 140.54393) scale(0.08 -0.08)">
       <use xlink:href="#ArialMT-33"/>
       <use xlink:href="#ArialMT-30" x="55.615234"/>
       <use xlink:href="#ArialMT-25" x="111.230469"/>
      </g>
     </g>
    </g>
   </g>
   <g id="matplotlib.axis_4">
    <g id="ytick_7">
     <g id="line2d_19">
      <path d="M 164.033362 126.51768 
L 266.264675 126.51768 
" clip-path="url(#p1a2bf26f95)" style="fill: none; stroke: #ffffff; stroke-width: 0.8; stroke-linecap: round"/>
     </g>
    </g>
    <g id="ytick_8">
     <g id="line2d_20">
      <path d="M 164.033362 108.177408 
L 266.264675 108.177408 
" clip-path="url(#p1a2bf26f95)" style="fill: none; stroke: #ffffff; stroke-width: 0.8; stroke-linecap: round"/>
     </g>
    </g>
    <g id="ytick_9">
     <g id="line2d_21">
      <path d="M 164.033362 89.837136 
L 266.264675 89.837136 
" clip-path="url(#p1a2bf26f95)" style="fill: none; stroke: #ffffff; stroke-width: 0.8; stroke-linecap: round"/>
     </g>
    </g>
    <g id="ytick_10">
     <g id="line2d_22">
      <path d="M 164.033362 71.496864 
L 266.264675 71.496864 
" clip-path="url(#p1a2bf26f95)" style="fill: none; stroke: #ffffff; stroke-width: 0.8; stroke-linecap: round"/>
     </g>
    </g>
    <g id="ytick_11">
     <g id="line2d_23">
      <path d="M 164.033362 53.156592 
L 266.264675 53.156592 
" clip-path="url(#p1a2bf26f95)" style="fill: none; stroke: #ffffff; stroke-width: 0.8; stroke-linecap: round"/>
     </g>
    </g>
    <g id="ytick_12">
     <g id="line2d_24">
      <path d="M 164.033362 34.81632 
L 266.264675 34.81632 
" clip-path="url(#p1a2bf26f95)" style="fill: none; stroke: #ffffff; stroke-width: 0.8; stroke-linecap: round"/>
     </g>
    </g>
   </g>
   <g id="PolyCollection_3">
    <defs>
     <path id="ma6591a94dc" d="M 168.68024 -86.929401 
L 168.68024 -79.0352 
L 170.310723 -71.571498 
L 171.941207 -67.837053 
L 173.57169 -67.940788 
L 175.202174 -68.251992 
L 176.832657 -68.977269 
L 178.46314 -68.726207 
L 180.093624 -68.640348 
L 181.724107 -67.814001 
L 183.354591 -67.306221 
L 184.985074 -66.66763 
L 186.615558 -66.618749 
L 188.246041 -65.572038 
L 189.876525 -64.915396 
L 191.507008 -64.189783 
L 193.137492 -63.407122 
L 194.767975 -62.779041 
L 196.398459 -62.632453 
L 198.028942 -62.071051 
L 199.659426 -61.61208 
L 201.289909 -61.173928 
L 202.920393 -60.682365 
L 204.550876 -60.210978 
L 206.181359 -60.158179 
L 207.811843 -59.837198 
L 209.442326 -59.472992 
L 211.07281 -59.129964 
L 212.703293 -58.728304 
L 214.333777 -58.637524 
L 215.96426 -58.43196 
L 217.594744 -58.153364 
L 219.225227 -58.056711 
L 220.855711 -57.838054 
L 222.486194 -57.641328 
L 224.116678 -57.537506 
L 225.747161 -57.438738 
L 227.377645 -57.435263 
L 229.008128 -57.470784 
L 230.638611 -57.301194 
L 232.269095 -57.301079 
L 233.899578 -57.271671 
L 235.530062 -57.204616 
L 237.160545 -57.220747 
L 238.791029 -57.279165 
L 240.421512 -57.191361 
L 242.051996 -57.219094 
L 243.682479 -57.201656 
L 245.312963 -57.231366 
L 246.943446 -57.212814 
L 248.57393 -57.237936 
L 250.204413 -57.205157 
L 251.834897 -57.191389 
L 253.46538 -57.205361 
L 255.095864 -57.236951 
L 256.726347 -57.233622 
L 258.35683 -57.217786 
L 259.987314 -57.21814 
L 261.617797 -57.250491 
L 261.617797 -58.85869 
L 261.617797 -58.85869 
L 259.987314 -58.879354 
L 258.35683 -58.863121 
L 256.726347 -58.8394 
L 255.095864 -58.831988 
L 253.46538 -58.834987 
L 251.834897 -58.826076 
L 250.204413 -58.876487 
L 248.57393 -58.863442 
L 246.943446 -58.936869 
L 245.312963 -58.846672 
L 243.682479 -58.946297 
L 242.051996 -58.935861 
L 240.421512 -58.940659 
L 238.791029 -58.863164 
L 237.160545 -58.841526 
L 235.530062 -58.935012 
L 233.899578 -58.923383 
L 232.269095 -59.020118 
L 230.638611 -59.055578 
L 229.008128 -59.11057 
L 227.377645 -59.21494 
L 225.747161 -59.23396 
L 224.116678 -59.351343 
L 222.486194 -59.35107 
L 220.855711 -59.59384 
L 219.225227 -59.800808 
L 217.594744 -60.027323 
L 215.96426 -60.279735 
L 214.333777 -60.519958 
L 212.703293 -60.80793 
L 211.07281 -61.229163 
L 209.442326 -61.574138 
L 207.811843 -61.889759 
L 206.181359 -62.250143 
L 204.550876 -62.281294 
L 202.920393 -62.883919 
L 201.289909 -63.380558 
L 199.659426 -63.853103 
L 198.028942 -64.44502 
L 196.398459 -64.854088 
L 194.767975 -65.335609 
L 193.137492 -65.99425 
L 191.507008 -66.841148 
L 189.876525 -67.650863 
L 188.246041 -68.407594 
L 186.615558 -69.665454 
L 184.985074 -69.685886 
L 183.354591 -70.31095 
L 181.724107 -71.157136 
L 180.093624 -71.961151 
L 178.46314 -72.194646 
L 176.832657 -72.678 
L 175.202174 -72.153449 
L 173.57169 -72.401375 
L 171.941207 -72.954626 
L 170.310723 -77.588103 
L 168.68024 -86.929401 
z
" style="stroke: #4c72b0; stroke-opacity: 0.2; stroke-width: 0.8"/>
    </defs>
    <g clip-path="url(#p1a2bf26f95)">
     <use xlink:href="#ma6591a94dc" x="0" y="149.33393" style="fill: #4c72b0; fill-opacity: 0.2; stroke: #4c72b0; stroke-opacity: 0.2; stroke-width: 0.8"/>
    </g>
   </g>
   <g id="PolyCollection_4">
    <defs>
     <path id="m4a637c89cf" d="M 168.68024 -84.849523 
L 168.68024 -78.521714 
L 170.310723 -70.464996 
L 171.941207 -67.888921 
L 173.57169 -65.635806 
L 175.202174 -63.686806 
L 176.832657 -62.679963 
L 178.46314 -60.600919 
L 180.093624 -59.35668 
L 181.724107 -58.100959 
L 183.354591 -57.193153 
L 184.985074 -56.508859 
L 186.615558 -56.316922 
L 188.246041 -55.230647 
L 189.876525 -54.655025 
L 191.507008 -54.328815 
L 193.137492 -53.988517 
L 194.767975 -53.636354 
L 196.398459 -53.035171 
L 198.028942 -52.745438 
L 199.659426 -52.778472 
L 201.289909 -52.609301 
L 202.920393 -52.522275 
L 204.550876 -52.506342 
L 206.181359 -52.538504 
L 207.811843 -52.548223 
L 209.442326 -52.504957 
L 211.07281 -52.467748 
L 212.703293 -52.446893 
L 214.333777 -52.458705 
L 215.96426 -52.448308 
L 217.594744 -52.461361 
L 219.225227 -52.433778 
L 220.855711 -52.430868 
L 222.486194 -52.505241 
L 224.116678 -52.449969 
L 225.747161 -52.462154 
L 227.377645 -52.397298 
L 229.008128 -52.389807 
L 230.638611 -52.416128 
L 232.269095 -52.361586 
L 233.899578 -52.363984 
L 235.530062 -52.457324 
L 237.160545 -52.384387 
L 238.791029 -52.430755 
L 240.421512 -52.369181 
L 242.051996 -52.431777 
L 243.682479 -52.417529 
L 245.312963 -52.426273 
L 246.943446 -52.42471 
L 248.57393 -52.447992 
L 250.204413 -52.440437 
L 251.834897 -52.443735 
L 253.46538 -52.41917 
L 255.095864 -52.414833 
L 256.726347 -52.363922 
L 258.35683 -52.39622 
L 259.987314 -52.43538 
L 261.617797 -52.452305 
L 261.617797 -54.202866 
L 261.617797 -54.202866 
L 259.987314 -54.056607 
L 258.35683 -54.158129 
L 256.726347 -54.054893 
L 255.095864 -54.131196 
L 253.46538 -54.088357 
L 251.834897 -54.067442 
L 250.204413 -54.197201 
L 248.57393 -54.168451 
L 246.943446 -54.145798 
L 245.312963 -54.145485 
L 243.682479 -54.100172 
L 242.051996 -54.124607 
L 240.421512 -54.160063 
L 238.791029 -54.09367 
L 237.160545 -54.115164 
L 235.530062 -54.104319 
L 233.899578 -54.083798 
L 232.269095 -54.082534 
L 230.638611 -54.106731 
L 229.008128 -54.097491 
L 227.377645 -54.15369 
L 225.747161 -54.089773 
L 224.116678 -54.170363 
L 222.486194 -54.101118 
L 220.855711 -54.156691 
L 219.225227 -54.156971 
L 217.594744 -54.209148 
L 215.96426 -54.1958 
L 214.333777 -54.171375 
L 212.703293 -54.235087 
L 211.07281 -54.140846 
L 209.442326 -54.304809 
L 207.811843 -54.230048 
L 206.181359 -54.318276 
L 204.550876 -54.30165 
L 202.920393 -54.356142 
L 201.289909 -54.534562 
L 199.659426 -54.451947 
L 198.028942 -54.679914 
L 196.398459 -54.964343 
L 194.767975 -55.647463 
L 193.137492 -56.167184 
L 191.507008 -56.387913 
L 189.876525 -56.873551 
L 188.246041 -57.366372 
L 186.615558 -58.549147 
L 184.985074 -58.988399 
L 183.354591 -59.802912 
L 181.724107 -60.786344 
L 180.093624 -62.030871 
L 178.46314 -63.506783 
L 176.832657 -65.821639 
L 175.202174 -66.93802 
L 173.57169 -69.331869 
L 171.941207 -72.090171 
L 170.310723 -75.513412 
L 168.68024 -84.849523 
z
" style="stroke: #dd8452; stroke-opacity: 0.2; stroke-width: 0.8"/>
    </defs>
    <g clip-path="url(#p1a2bf26f95)">
     <use xlink:href="#m4a637c89cf" x="0" y="149.33393" style="fill: #dd8452; fill-opacity: 0.2; stroke: #dd8452; stroke-opacity: 0.2; stroke-width: 0.8"/>
    </g>
   </g>
   <g id="line2d_25">
    <path d="M 168.68024 66.351629 
L 170.310723 74.75413 
L 171.941207 78.868934 
L 173.57169 79.214716 
L 175.202174 79.173222 
L 176.832657 78.419418 
L 178.46314 78.94797 
L 180.093624 79.110981 
L 181.724107 79.814071 
L 183.354591 80.45492 
L 184.985074 81.148999 
L 186.615558 81.148999 
L 188.246041 82.280649 
L 189.876525 83.041369 
L 191.507008 83.840467 
L 193.137492 84.616995 
L 194.767975 85.251504 
L 196.398459 85.626779 
L 198.028942 86.045786 
L 199.659426 86.619662 
L 201.289909 87.07664 
L 202.920393 87.565181 
L 204.550876 88.127862 
L 206.181359 88.127862 
L 207.811843 88.432096 
L 209.442326 88.818469 
L 211.07281 89.138663 
L 212.703293 89.50732 
L 214.333777 89.782764 
L 215.96426 90.022067 
L 217.594744 90.269394 
L 219.225227 90.412 
L 220.855711 90.616569 
L 222.486194 90.817345 
L 224.116678 90.894557 
L 225.747161 90.977027 
L 227.377645 90.977027 
L 229.008128 91.042231 
L 230.638611 91.114516 
L 232.269095 91.174638 
L 233.899578 91.22776 
L 235.530062 91.248199 
L 237.160545 91.256046 
L 238.791029 91.264774 
L 240.421512 91.276943 
L 242.051996 91.277403 
L 243.682479 91.272468 
L 245.312963 91.283889 
L 246.943446 91.283889 
L 248.57393 91.28399 
L 250.204413 91.282166 
L 251.834897 91.284557 
L 253.46538 91.286851 
L 255.095864 91.284903 
L 256.726347 91.284903 
L 258.35683 91.284903 
L 259.987314 91.284903 
L 261.617797 91.284903 
" clip-path="url(#p1a2bf26f95)" style="fill: none; stroke: #4c72b0; stroke-width: 1.2; stroke-linecap: round"/>
   </g>
   <g id="line2d_26">
    <path d="M 168.68024 67.700179 
L 170.310723 76.310148 
L 171.941207 79.422185 
L 173.57169 81.870321 
L 175.202174 84.021084 
L 176.832657 85.05349 
L 178.46314 87.228212 
L 180.093624 88.570998 
L 181.724107 89.928768 
L 183.354591 90.824658 
L 184.985074 91.60581 
L 186.615558 91.958242 
L 188.246041 92.994828 
L 189.876525 93.549808 
L 191.507008 93.96856 
L 193.137492 94.233659 
L 194.767975 94.689242 
L 196.398459 95.30619 
L 198.028942 95.593189 
L 199.659426 95.696923 
L 201.289909 95.770316 
L 202.920393 95.889085 
L 204.550876 95.890468 
L 206.181359 95.916322 
L 207.811843 95.951196 
L 209.442326 95.951376 
L 211.07281 96.009324 
L 212.703293 96.04011 
L 214.333777 96.045129 
L 215.96426 96.015266 
L 217.594744 96.020628 
L 219.225227 96.026033 
L 220.855711 96.027844 
L 222.486194 96.055102 
L 224.116678 96.050675 
L 225.747161 96.060755 
L 227.377645 96.063148 
L 229.008128 96.065552 
L 230.638611 96.067841 
L 232.269095 96.067841 
L 233.899578 96.067841 
L 235.530062 96.067841 
L 237.160545 96.067841 
L 238.791029 96.067841 
L 240.421512 96.067841 
L 242.051996 96.067841 
L 243.682479 96.067841 
L 245.312963 96.067841 
L 246.943446 96.067841 
L 248.57393 96.067841 
L 250.204413 96.067841 
L 251.834897 96.067841 
L 253.46538 96.067841 
L 255.095864 96.067841 
L 256.726347 96.067841 
L 258.35683 96.067841 
L 259.987314 96.067841 
L 261.617797 96.067841 
" clip-path="url(#p1a2bf26f95)" style="fill: none; stroke: #dd8452; stroke-width: 1.2; stroke-linecap: round"/>
   </g>
   <g id="patch_6">
    <path d="M 164.033362 126.51768 
L 164.033362 34.81632 
" style="fill: none; stroke: #ffffff; stroke-linejoin: miter; stroke-linecap: square"/>
   </g>
   <g id="patch_7">
    <path d="M 164.033362 126.51768 
L 266.264675 126.51768 
" style="fill: none; stroke: #ffffff; stroke-linejoin: miter; stroke-linecap: square"/>
   </g>
   <g id="text_17">
    <!-- KDE -->
    <g style="fill: #262626" transform="translate(207.253019 28.81632) scale(0.0768 -0.0768)">
     <defs>
      <path id="ArialMT-4b" d="M 469 0 
L 469 4581 
L 1075 4581 
L 1075 2309 
L 3350 4581 
L 4172 4581 
L 2250 2725 
L 4256 0 
L 3456 0 
L 1825 2319 
L 1075 1588 
L 1075 0 
L 469 0 
z
" transform="scale(0.015625)"/>
      <path id="ArialMT-44" d="M 494 0 
L 494 4581 
L 2072 4581 
Q 2606 4581 2888 4516 
Q 3281 4425 3559 4188 
Q 3922 3881 4101 3404 
Q 4281 2928 4281 2316 
Q 4281 1794 4159 1391 
Q 4038 988 3847 723 
Q 3656 459 3429 307 
Q 3203 156 2883 78 
Q 2563 0 2147 0 
L 494 0 
z
M 1100 541 
L 2078 541 
Q 2531 541 2789 625 
Q 3047 709 3200 863 
Q 3416 1078 3536 1442 
Q 3656 1806 3656 2325 
Q 3656 3044 3420 3430 
Q 3184 3816 2847 3947 
Q 2603 4041 2063 4041 
L 1100 4041 
L 1100 541 
z
" transform="scale(0.015625)"/>
      <path id="ArialMT-45" d="M 506 0 
L 506 4581 
L 3819 4581 
L 3819 4041 
L 1113 4041 
L 1113 2638 
L 3647 2638 
L 3647 2100 
L 1113 2100 
L 1113 541 
L 3925 541 
L 3925 0 
L 506 0 
z
" transform="scale(0.015625)"/>
     </defs>
     <use xlink:href="#ArialMT-4b"/>
     <use xlink:href="#ArialMT-44" x="66.699219"/>
     <use xlink:href="#ArialMT-45" x="138.916016"/>
    </g>
   </g>
  </g>
  <g id="axes_3">
   <g id="patch_8">
    <path d="M 280.790474 126.51768 
L 383.021787 126.51768 
L 383.021787 34.81632 
L 280.790474 34.81632 
z
" style="fill: #eaeaf2"/>
   </g>
   <g id="matplotlib.axis_5">
    <g id="xtick_9">
     <g id="line2d_27">
      <path d="M 282.176384 126.51768 
L 282.176384 34.81632 
" clip-path="url(#p4bbfe77401)" style="fill: none; stroke: #ffffff; stroke-width: 0.8; stroke-linecap: round"/>
     </g>
     <g id="text_18">
      <!-- 0% -->
      <g style="fill: #262626" transform="translate(276.395134 140.54393) scale(0.08 -0.08)">
       <use xlink:href="#ArialMT-30"/>
       <use xlink:href="#ArialMT-25" x="55.615234"/>
      </g>
     </g>
    </g>
    <g id="xtick_10">
     <g id="line2d_28">
      <path d="M 314.786054 126.51768 
L 314.786054 34.81632 
" clip-path="url(#p4bbfe77401)" style="fill: none; stroke: #ffffff; stroke-width: 0.8; stroke-linecap: round"/>
     </g>
     <g id="text_19">
      <!-- 10% -->
      <g style="fill: #262626" transform="translate(306.780429 140.54393) scale(0.08 -0.08)">
       <use xlink:href="#ArialMT-31"/>
       <use xlink:href="#ArialMT-30" x="55.615234"/>
       <use xlink:href="#ArialMT-25" x="111.230469"/>
      </g>
     </g>
    </g>
    <g id="xtick_11">
     <g id="line2d_29">
      <path d="M 347.395723 126.51768 
L 347.395723 34.81632 
" clip-path="url(#p4bbfe77401)" style="fill: none; stroke: #ffffff; stroke-width: 0.8; stroke-linecap: round"/>
     </g>
     <g id="text_20">
      <!-- 20% -->
      <g style="fill: #262626" transform="translate(339.390098 140.54393) scale(0.08 -0.08)">
       <use xlink:href="#ArialMT-32"/>
       <use xlink:href="#ArialMT-30" x="55.615234"/>
       <use xlink:href="#ArialMT-25" x="111.230469"/>
      </g>
     </g>
    </g>
    <g id="xtick_12">
     <g id="line2d_30">
      <path d="M 380.005393 126.51768 
L 380.005393 34.81632 
" clip-path="url(#p4bbfe77401)" style="fill: none; stroke: #ffffff; stroke-width: 0.8; stroke-linecap: round"/>
     </g>
     <g id="text_21">
      <!-- 30% -->
      <g style="fill: #262626" transform="translate(371.999768 140.54393) scale(0.08 -0.08)">
       <use xlink:href="#ArialMT-33"/>
       <use xlink:href="#ArialMT-30" x="55.615234"/>
       <use xlink:href="#ArialMT-25" x="111.230469"/>
      </g>
     </g>
    </g>
   </g>
   <g id="matplotlib.axis_6">
    <g id="ytick_13">
     <g id="line2d_31">
      <path d="M 280.790474 126.51768 
L 383.021787 126.51768 
" clip-path="url(#p4bbfe77401)" style="fill: none; stroke: #ffffff; stroke-width: 0.8; stroke-linecap: round"/>
     </g>
    </g>
    <g id="ytick_14">
     <g id="line2d_32">
      <path d="M 280.790474 108.177408 
L 383.021787 108.177408 
" clip-path="url(#p4bbfe77401)" style="fill: none; stroke: #ffffff; stroke-width: 0.8; stroke-linecap: round"/>
     </g>
    </g>
    <g id="ytick_15">
     <g id="line2d_33">
      <path d="M 280.790474 89.837136 
L 383.021787 89.837136 
" clip-path="url(#p4bbfe77401)" style="fill: none; stroke: #ffffff; stroke-width: 0.8; stroke-linecap: round"/>
     </g>
    </g>
    <g id="ytick_16">
     <g id="line2d_34">
      <path d="M 280.790474 71.496864 
L 383.021787 71.496864 
" clip-path="url(#p4bbfe77401)" style="fill: none; stroke: #ffffff; stroke-width: 0.8; stroke-linecap: round"/>
     </g>
    </g>
    <g id="ytick_17">
     <g id="line2d_35">
      <path d="M 280.790474 53.156592 
L 383.021787 53.156592 
" clip-path="url(#p4bbfe77401)" style="fill: none; stroke: #ffffff; stroke-width: 0.8; stroke-linecap: round"/>
     </g>
    </g>
    <g id="ytick_18">
     <g id="line2d_36">
      <path d="M 280.790474 34.81632 
L 383.021787 34.81632 
" clip-path="url(#p4bbfe77401)" style="fill: none; stroke: #ffffff; stroke-width: 0.8; stroke-linecap: round"/>
     </g>
    </g>
   </g>
   <g id="PolyCollection_5">
    <defs>
     <path id="mf3ae7cbdb9" d="M 285.437351 -74.268597 
L 285.437351 -65.554893 
L 287.067835 -67.110911 
L 288.698318 -65.070798 
L 290.328802 -63.631913 
L 291.959285 -63.064226 
L 293.589769 -62.372835 
L 295.220252 -61.760431 
L 296.850736 -61.013264 
L 298.481219 -59.861018 
L 300.111703 -59.254401 
L 301.742186 -58.312019 
L 303.37267 -58.651829 
L 305.003153 -57.826667 
L 306.633637 -57.506088 
L 308.26412 -56.934303 
L 309.894603 -56.793158 
L 311.525087 -56.223355 
L 313.15557 -55.781379 
L 314.786054 -55.361411 
L 316.416537 -54.889512 
L 318.047021 -54.499574 
L 319.677504 -54.220105 
L 321.307988 -54.107703 
L 322.938471 -53.952464 
L 324.568955 -53.712424 
L 326.199438 -53.395219 
L 327.829922 -53.191457 
L 329.460405 -52.906349 
L 331.090889 -52.725093 
L 332.721372 -52.518388 
L 334.351856 -52.406742 
L 335.982339 -52.239747 
L 337.612822 -52.00129 
L 339.243306 -51.910634 
L 340.873789 -51.752373 
L 342.504273 -51.717437 
L 344.134756 -51.627526 
L 345.76524 -51.633144 
L 347.395723 -51.43153 
L 349.026207 -51.479486 
L 350.65669 -51.466282 
L 352.287174 -51.352884 
L 353.917657 -51.355447 
L 355.548141 -51.419932 
L 357.178624 -51.267173 
L 358.809108 -51.335439 
L 360.439591 -51.427675 
L 362.070074 -51.331224 
L 363.700558 -51.265081 
L 365.331041 -51.295389 
L 366.961525 -51.276431 
L 368.592008 -51.299603 
L 370.222492 -51.381289 
L 371.852975 -51.286142 
L 373.483459 -51.327496 
L 375.113942 -51.15749 
L 376.744426 -51.361129 
L 378.374909 -51.259244 
L 378.374909 -54.657421 
L 378.374909 -54.657421 
L 376.744426 -54.696274 
L 375.113942 -54.643909 
L 373.483459 -54.755477 
L 371.852975 -54.70774 
L 370.222492 -54.637659 
L 368.592008 -54.64699 
L 366.961525 -54.752461 
L 365.331041 -54.737168 
L 363.700558 -54.649486 
L 362.070074 -54.536746 
L 360.439591 -54.788675 
L 358.809108 -54.742326 
L 357.178624 -54.899515 
L 355.548141 -54.671356 
L 353.917657 -54.876879 
L 352.287174 -54.756425 
L 350.65669 -54.95452 
L 349.026207 -54.857012 
L 347.395723 -54.870849 
L 345.76524 -55.107226 
L 344.134756 -55.073206 
L 342.504273 -55.148061 
L 340.873789 -55.259267 
L 339.243306 -55.542919 
L 337.612822 -55.665722 
L 335.982339 -55.84561 
L 334.351856 -55.896754 
L 332.721372 -56.195021 
L 331.090889 -56.380646 
L 329.460405 -56.53247 
L 327.829922 -57.080416 
L 326.199438 -57.237656 
L 324.568955 -57.509114 
L 322.938471 -57.951139 
L 321.307988 -57.945425 
L 319.677504 -58.250163 
L 318.047021 -58.460999 
L 316.416537 -58.793213 
L 314.786054 -59.384826 
L 313.15557 -59.95624 
L 311.525087 -60.455823 
L 309.894603 -60.755761 
L 308.26412 -61.322028 
L 306.633637 -62.188307 
L 305.003153 -62.737635 
L 303.37267 -63.216621 
L 301.742186 -63.027699 
L 300.111703 -64.040541 
L 298.481219 -64.541176 
L 296.850736 -65.917964 
L 295.220252 -66.918262 
L 293.589769 -67.630449 
L 291.959285 -68.750955 
L 290.328802 -69.601838 
L 288.698318 -71.50407 
L 287.067835 -73.646189 
L 285.437351 -74.268597 
z
" style="stroke: #4c72b0; stroke-opacity: 0.2; stroke-width: 0.8"/>
    </defs>
    <g clip-path="url(#p4bbfe77401)">
     <use xlink:href="#mf3ae7cbdb9" x="0" y="149.33393" style="fill: #4c72b0; fill-opacity: 0.2; stroke: #4c72b0; stroke-opacity: 0.2; stroke-width: 0.8"/>
    </g>
   </g>
   <g id="PolyCollection_6">
    <defs>
     <path id="mdaf4258e00" d="M 285.437351 -67.214646 
L 285.437351 -60.886837 
L 287.067835 -58.362629 
L 288.698318 -56.528689 
L 290.328802 -55.264424 
L 291.959285 -54.143226 
L 293.589769 -52.98745 
L 295.220252 -52.872693 
L 296.850736 -52.069399 
L 298.481219 -51.186445 
L 300.111703 -51.170922 
L 301.742186 -50.588568 
L 303.37267 -50.382721 
L 305.003153 -49.602973 
L 306.633637 -49.183081 
L 308.26412 -48.900151 
L 309.894603 -48.586152 
L 311.525087 -48.422028 
L 313.15557 -48.367727 
L 314.786054 -48.132559 
L 316.416537 -47.755204 
L 318.047021 -47.742639 
L 319.677504 -47.545249 
L 321.307988 -47.390719 
L 322.938471 -47.251321 
L 324.568955 -47.297513 
L 326.199438 -47.313028 
L 327.829922 -47.229281 
L 329.460405 -47.251358 
L 331.090889 -47.132088 
L 332.721372 -47.108743 
L 334.351856 -47.015833 
L 335.982339 -47.087829 
L 337.612822 -47.073886 
L 339.243306 -47.058679 
L 340.873789 -47.040313 
L 342.504273 -47.057245 
L 344.134756 -46.962835 
L 345.76524 -46.99467 
L 347.395723 -46.990791 
L 349.026207 -47.137188 
L 350.65669 -47.169677 
L 352.287174 -47.057308 
L 353.917657 -47.119377 
L 355.548141 -47.08656 
L 357.178624 -47.031227 
L 358.809108 -47.028031 
L 360.439591 -46.953711 
L 362.070074 -47.152682 
L 363.700558 -46.992309 
L 365.331041 -47.061149 
L 366.961525 -47.076017 
L 368.592008 -47.16237 
L 370.222492 -46.96865 
L 371.852975 -46.936652 
L 373.483459 -47.008912 
L 375.113942 -47.027271 
L 376.744426 -47.052114 
L 378.374909 -47.02096 
L 378.374909 -50.047122 
L 378.374909 -50.047122 
L 376.744426 -50.131502 
L 375.113942 -50.013798 
L 373.483459 -50.183346 
L 371.852975 -50.103627 
L 370.222492 -50.097228 
L 368.592008 -50.000134 
L 366.961525 -50.073865 
L 365.331041 -50.127067 
L 363.700558 -50.127841 
L 362.070074 -49.997394 
L 360.439591 -50.06254 
L 358.809108 -49.994178 
L 357.178624 -50.029655 
L 355.548141 -50.108074 
L 353.917657 -50.092795 
L 352.287174 -50.024724 
L 350.65669 -50.111327 
L 349.026207 -50.123915 
L 347.395723 -50.030128 
L 345.76524 -50.090106 
L 344.134756 -50.121045 
L 342.504273 -50.072318 
L 340.873789 -50.035113 
L 339.243306 -50.133999 
L 337.612822 -50.066115 
L 335.982339 -50.15125 
L 334.351856 -50.042858 
L 332.721372 -50.139476 
L 331.090889 -50.25614 
L 329.460405 -50.245106 
L 327.829922 -50.367496 
L 326.199438 -50.307892 
L 324.568955 -50.410538 
L 322.938471 -50.367954 
L 321.307988 -50.496456 
L 319.677504 -50.661029 
L 318.047021 -50.690683 
L 316.416537 -50.971082 
L 314.786054 -51.284592 
L 313.15557 -51.739369 
L 311.525087 -51.867365 
L 309.894603 -51.835026 
L 308.26412 -52.489304 
L 306.633637 -52.654675 
L 305.003153 -53.19118 
L 303.37267 -53.987886 
L 301.742186 -54.286639 
L 300.111703 -54.823591 
L 298.481219 -55.080136 
L 296.850736 -56.081045 
L 295.220252 -56.867123 
L 293.589769 -57.671066 
L 291.959285 -58.742989 
L 290.328802 -60.202189 
L 288.698318 -61.71801 
L 287.067835 -64.033453 
L 285.437351 -67.214646 
z
" style="stroke: #dd8452; stroke-opacity: 0.2; stroke-width: 0.8"/>
    </defs>
    <g clip-path="url(#p4bbfe77401)">
     <use xlink:href="#mdaf4258e00" x="0" y="149.33393" style="fill: #dd8452; fill-opacity: 0.2; stroke: #dd8452; stroke-opacity: 0.2; stroke-width: 0.8"/>
    </g>
   </g>
   <g id="line2d_37">
    <path d="M 285.437351 79.422185 
L 287.067835 79.110981 
L 288.698318 81.012782 
L 290.328802 82.689824 
L 291.959285 83.571568 
L 293.589769 84.228554 
L 295.220252 85.05349 
L 296.850736 85.931529 
L 298.481219 87.098543 
L 300.111703 87.797023 
L 301.742186 88.500532 
L 303.37267 88.500532 
L 305.003153 89.034922 
L 306.633637 89.548275 
L 308.26412 90.074928 
L 309.894603 90.559022 
L 311.525087 90.962723 
L 313.15557 91.463852 
L 314.786054 92.011679 
L 316.416537 92.450883 
L 318.047021 92.737518 
L 319.677504 93.069962 
L 321.307988 93.356018 
L 322.938471 93.356018 
L 324.568955 93.683623 
L 326.199438 93.978665 
L 327.829922 94.252524 
L 329.460405 94.568196 
L 331.090889 94.773006 
L 332.721372 94.964558 
L 334.351856 95.120926 
L 335.982339 95.276647 
L 337.612822 95.453554 
L 339.243306 95.592424 
L 340.873789 95.746651 
L 342.504273 95.863884 
L 344.134756 95.863884 
L 345.76524 95.999 
L 347.395723 96.094008 
L 349.026207 96.144474 
L 350.65669 96.19125 
L 352.287174 96.246967 
L 353.917657 96.254149 
L 355.548141 96.266293 
L 357.178624 96.280028 
L 358.809108 96.293009 
L 360.439591 96.295202 
L 362.070074 96.304633 
L 363.700558 96.304633 
L 365.331041 96.311348 
L 366.961525 96.310388 
L 368.592008 96.308733 
L 370.222492 96.307145 
L 371.852975 96.30977 
L 373.483459 96.30977 
L 375.113942 96.30977 
L 376.744426 96.30977 
L 378.374909 96.30977 
" clip-path="url(#p4bbfe77401)" style="fill: none; stroke: #4c72b0; stroke-width: 1.2; stroke-linecap: round"/>
   </g>
   <g id="line2d_38">
    <path d="M 285.437351 85.231321 
L 287.067835 88.135889 
L 288.698318 90.21058 
L 290.328802 91.662864 
L 291.959285 92.803945 
L 293.589769 93.915387 
L 295.220252 94.489631 
L 296.850736 95.21001 
L 298.481219 96.111349 
L 300.111703 96.313159 
L 301.742186 96.836548 
L 303.37267 97.192969 
L 305.003153 98.009546 
L 306.633637 98.354464 
L 308.26412 98.646598 
L 309.894603 99.031027 
L 311.525087 99.145681 
L 313.15557 99.297461 
L 314.786054 99.603231 
L 316.416537 99.906351 
L 318.047021 100.11464 
L 319.677504 100.203717 
L 321.307988 100.283592 
L 322.938471 100.371049 
L 324.568955 100.49754 
L 326.199438 100.514488 
L 327.829922 100.589606 
L 329.460405 100.628423 
L 331.090889 100.630933 
L 332.721372 100.691248 
L 334.351856 100.723792 
L 335.982339 100.714726 
L 337.612822 100.736461 
L 339.243306 100.752972 
L 340.873789 100.755037 
L 342.504273 100.755037 
L 344.134756 100.757963 
L 345.76524 100.755813 
L 347.395723 100.753765 
L 349.026207 100.753765 
L 350.65669 100.753765 
L 352.287174 100.753765 
L 353.917657 100.753765 
L 355.548141 100.753765 
L 357.178624 100.753765 
L 358.809108 100.753765 
L 360.439591 100.753765 
L 362.070074 100.753765 
L 363.700558 100.753765 
L 365.331041 100.753765 
L 366.961525 100.753765 
L 368.592008 100.753765 
L 370.222492 100.753765 
L 371.852975 100.753765 
L 373.483459 100.753765 
L 375.113942 100.753765 
L 376.744426 100.753765 
L 378.374909 100.753765 
" clip-path="url(#p4bbfe77401)" style="fill: none; stroke: #dd8452; stroke-width: 1.2; stroke-linecap: round"/>
   </g>
   <g id="patch_9">
    <path d="M 280.790474 126.51768 
L 280.790474 34.81632 
" style="fill: none; stroke: #ffffff; stroke-linejoin: miter; stroke-linecap: square"/>
   </g>
   <g id="patch_10">
    <path d="M 280.790474 126.51768 
L 383.021787 126.51768 
" style="fill: none; stroke: #ffffff; stroke-linejoin: miter; stroke-linecap: square"/>
   </g>
   <g id="text_22">
    <!-- SEPP -->
    <g style="fill: #262626" transform="translate(321.66053 28.81632) scale(0.0768 -0.0768)">
     <defs>
      <path id="ArialMT-53" d="M 288 1472 
L 859 1522 
Q 900 1178 1048 958 
Q 1197 738 1509 602 
Q 1822 466 2213 466 
Q 2559 466 2825 569 
Q 3091 672 3220 851 
Q 3350 1031 3350 1244 
Q 3350 1459 3225 1620 
Q 3100 1781 2813 1891 
Q 2628 1963 1997 2114 
Q 1366 2266 1113 2400 
Q 784 2572 623 2826 
Q 463 3081 463 3397 
Q 463 3744 659 4045 
Q 856 4347 1234 4503 
Q 1613 4659 2075 4659 
Q 2584 4659 2973 4495 
Q 3363 4331 3572 4012 
Q 3781 3694 3797 3291 
L 3216 3247 
Q 3169 3681 2898 3903 
Q 2628 4125 2100 4125 
Q 1550 4125 1298 3923 
Q 1047 3722 1047 3438 
Q 1047 3191 1225 3031 
Q 1400 2872 2139 2705 
Q 2878 2538 3153 2413 
Q 3553 2228 3743 1945 
Q 3934 1663 3934 1294 
Q 3934 928 3725 604 
Q 3516 281 3123 101 
Q 2731 -78 2241 -78 
Q 1619 -78 1198 103 
Q 778 284 539 648 
Q 300 1013 288 1472 
z
" transform="scale(0.015625)"/>
     </defs>
     <use xlink:href="#ArialMT-53"/>
     <use xlink:href="#ArialMT-45" x="66.699219"/>
     <use xlink:href="#ArialMT-50" x="133.398438"/>
     <use xlink:href="#ArialMT-50" x="200.097656"/>
    </g>
   </g>
  </g>
  <g id="text_23">
   <!-- Bogot -->
   <g style="fill: #262626" transform="translate(198.53329 13.83264) scale(0.09216 -0.09216)">
    <defs>
     <path id="ArialMT-42" d="M 469 0 
L 469 4581 
L 2188 4581 
Q 2713 4581 3030 4442 
Q 3347 4303 3526 4014 
Q 3706 3725 3706 3409 
Q 3706 3116 3547 2856 
Q 3388 2597 3066 2438 
Q 3481 2316 3704 2022 
Q 3928 1728 3928 1328 
Q 3928 1006 3792 729 
Q 3656 453 3456 303 
Q 3256 153 2954 76 
Q 2653 0 2216 0 
L 469 0 
z
M 1075 2656 
L 2066 2656 
Q 2469 2656 2644 2709 
Q 2875 2778 2992 2937 
Q 3109 3097 3109 3338 
Q 3109 3566 3000 3739 
Q 2891 3913 2687 3977 
Q 2484 4041 1991 4041 
L 1075 4041 
L 1075 2656 
z
M 1075 541 
L 2216 541 
Q 2509 541 2628 563 
Q 2838 600 2978 687 
Q 3119 775 3209 942 
Q 3300 1109 3300 1328 
Q 3300 1584 3169 1773 
Q 3038 1963 2805 2039 
Q 2572 2116 2134 2116 
L 1075 2116 
L 1075 541 
z
" transform="scale(0.015625)"/>
     <path id="ArialMT-67" d="M 319 -275 
L 866 -356 
Q 900 -609 1056 -725 
Q 1266 -881 1628 -881 
Q 2019 -881 2231 -725 
Q 2444 -569 2519 -288 
Q 2563 -116 2559 434 
Q 2191 0 1641 0 
Q 956 0 581 494 
Q 206 988 206 1678 
Q 206 2153 378 2554 
Q 550 2956 876 3175 
Q 1203 3394 1644 3394 
Q 2231 3394 2613 2919 
L 2613 3319 
L 3131 3319 
L 3131 450 
Q 3131 -325 2973 -648 
Q 2816 -972 2473 -1159 
Q 2131 -1347 1631 -1347 
Q 1038 -1347 672 -1080 
Q 306 -813 319 -275 
z
M 784 1719 
Q 784 1066 1043 766 
Q 1303 466 1694 466 
Q 2081 466 2343 764 
Q 2606 1063 2606 1700 
Q 2606 2309 2336 2618 
Q 2066 2928 1684 2928 
Q 1309 2928 1046 2623 
Q 784 2319 784 1719 
z
" transform="scale(0.015625)"/>
     <path id="ArialMT-74" d="M 1650 503 
L 1731 6 
Q 1494 -44 1306 -44 
Q 1000 -44 831 53 
Q 663 150 594 308 
Q 525 466 525 972 
L 525 2881 
L 113 2881 
L 113 3319 
L 525 3319 
L 525 4141 
L 1084 4478 
L 1084 3319 
L 1650 3319 
L 1650 2881 
L 1084 2881 
L 1084 941 
Q 1084 700 1114 631 
Q 1144 563 1211 522 
Q 1278 481 1403 481 
Q 1497 481 1650 503 
z
" transform="scale(0.015625)"/>
     <path id="ArialMT-e1" d="M 2588 409 
Q 2275 144 1986 34 
Q 1697 -75 1366 -75 
Q 819 -75 525 192 
Q 231 459 231 875 
Q 231 1119 342 1320 
Q 453 1522 633 1644 
Q 813 1766 1038 1828 
Q 1203 1872 1538 1913 
Q 2219 1994 2541 2106 
Q 2544 2222 2544 2253 
Q 2544 2597 2384 2738 
Q 2169 2928 1744 2928 
Q 1347 2928 1158 2789 
Q 969 2650 878 2297 
L 328 2372 
Q 403 2725 575 2942 
Q 747 3159 1072 3276 
Q 1397 3394 1825 3394 
Q 2250 3394 2515 3294 
Q 2781 3194 2906 3042 
Q 3031 2891 3081 2659 
Q 3109 2516 3109 2141 
L 3109 1391 
Q 3109 606 3145 398 
Q 3181 191 3288 0 
L 2700 0 
Q 2613 175 2588 409 
z
M 2541 1666 
Q 2234 1541 1622 1453 
Q 1275 1403 1131 1340 
Q 988 1278 909 1158 
Q 831 1038 831 891 
Q 831 666 1001 516 
Q 1172 366 1500 366 
Q 1825 366 2078 508 
Q 2331 650 2450 897 
Q 2541 1088 2541 1459 
L 2541 1666 
z
M 1446 3731 
L 1861 4606 
L 2599 4606 
L 1911 3731 
L 1446 3731 
z
" transform="scale(0.015625)"/>
    </defs>
    <use xlink:href="#ArialMT-42"/>
    <use xlink:href="#ArialMT-6f" x="66.699219"/>
    <use xlink:href="#ArialMT-67" x="122.314453"/>
    <use xlink:href="#ArialMT-6f" x="177.929688"/>
    <use xlink:href="#ArialMT-74" x="233.544922"/>
    <use xlink:href="#ArialMT-e1" x="261.328125"/>
   </g>
  </g>
  <g id="legend_1">
   <g id="text_24">
    <!-- Model -->
    <g style="fill: #262626" transform="translate(392.0464 67.6332) scale(0.0768 -0.0768)">
     <defs>
      <path id="ArialMT-4d" d="M 475 0 
L 475 4581 
L 1388 4581 
L 2472 1338 
Q 2622 884 2691 659 
Q 2769 909 2934 1394 
L 4031 4581 
L 4847 4581 
L 4847 0 
L 4263 0 
L 4263 3834 
L 2931 0 
L 2384 0 
L 1059 3900 
L 1059 0 
L 475 0 
z
" transform="scale(0.015625)"/>
      <path id="ArialMT-64" d="M 2575 0 
L 2575 419 
Q 2259 -75 1647 -75 
Q 1250 -75 917 144 
Q 584 363 401 755 
Q 219 1147 219 1656 
Q 219 2153 384 2558 
Q 550 2963 881 3178 
Q 1213 3394 1622 3394 
Q 1922 3394 2156 3267 
Q 2391 3141 2538 2938 
L 2538 4581 
L 3097 4581 
L 3097 0 
L 2575 0 
z
M 797 1656 
Q 797 1019 1065 703 
Q 1334 388 1700 388 
Q 2069 388 2326 689 
Q 2584 991 2584 1609 
Q 2584 2291 2321 2609 
Q 2059 2928 1675 2928 
Q 1300 2928 1048 2622 
Q 797 2316 797 1656 
z
" transform="scale(0.015625)"/>
      <path id="ArialMT-6c" d="M 409 0 
L 409 4581 
L 972 4581 
L 972 0 
L 409 0 
z
" transform="scale(0.015625)"/>
     </defs>
     <use xlink:href="#ArialMT-4d"/>
     <use xlink:href="#ArialMT-6f" x="83.300781"/>
     <use xlink:href="#ArialMT-64" x="138.916016"/>
     <use xlink:href="#ArialMT-65" x="194.53125"/>
     <use xlink:href="#ArialMT-6c" x="250.146484"/>
    </g>
   </g>
   <g id="line2d_39">
    <path d="M 387.95305 75.2547 
L 394.99305 75.2547 
L 402.03305 75.2547 
" style="fill: none; stroke: #4c72b0; stroke-width: 1.2; stroke-linecap: round"/>
   </g>
   <g id="text_25">
    <!-- G1 -->
    <g style="fill: #262626" transform="translate(407.66505 77.7187) scale(0.0704 -0.0704)">
     <defs>
      <path id="ArialMT-47" d="M 2638 1797 
L 2638 2334 
L 4578 2338 
L 4578 638 
Q 4131 281 3656 101 
Q 3181 -78 2681 -78 
Q 2006 -78 1454 211 
Q 903 500 622 1047 
Q 341 1594 341 2269 
Q 341 2938 620 3517 
Q 900 4097 1425 4378 
Q 1950 4659 2634 4659 
Q 3131 4659 3532 4498 
Q 3934 4338 4162 4050 
Q 4391 3763 4509 3300 
L 3963 3150 
Q 3859 3500 3706 3700 
Q 3553 3900 3268 4020 
Q 2984 4141 2638 4141 
Q 2222 4141 1919 4014 
Q 1616 3888 1430 3681 
Q 1244 3475 1141 3228 
Q 966 2803 966 2306 
Q 966 1694 1177 1281 
Q 1388 869 1791 669 
Q 2194 469 2647 469 
Q 3041 469 3416 620 
Q 3791 772 3984 944 
L 3984 1797 
L 2638 1797 
z
" transform="scale(0.015625)"/>
     </defs>
     <use xlink:href="#ArialMT-47"/>
     <use xlink:href="#ArialMT-31" x="77.783203"/>
    </g>
   </g>
   <g id="line2d_40">
    <path d="M 387.95305 85.213 
L 394.99305 85.213 
L 402.03305 85.213 
" style="fill: none; stroke: #dd8452; stroke-width: 1.2; stroke-linecap: round"/>
   </g>
   <g id="text_26">
    <!-- G2 -->
    <g style="fill: #262626" transform="translate(407.66505 87.677) scale(0.0704 -0.0704)">
     <use xlink:href="#ArialMT-47"/>
     <use xlink:href="#ArialMT-32" x="77.783203"/>
    </g>
   </g>
  </g>
 </g>
 <defs>
  <clipPath id="pcc8842458e">
   <rect x="47.27625" y="34.81632" width="102.231314" height="91.70136"/>
  </clipPath>
  <clipPath id="p1a2bf26f95">
   <rect x="164.033362" y="34.81632" width="102.231314" height="91.70136"/>
  </clipPath>
  <clipPath id="p4bbfe77401">
   <rect x="280.790474" y="34.81632" width="102.231314" height="91.70136"/>
  </clipPath>
 </defs>
</svg>
