<?xml version="1.0" encoding="utf-8" standalone="no"?>
<!DOCTYPE svg PUBLIC "-//W3C//DTD SVG 1.1//EN"
  "http://www.w3.org/Graphics/SVG/1.1/DTD/svg11.dtd">
<svg xmlns:xlink="http://www.w3.org/1999/xlink" width="384.7725pt" height="378.061875pt" viewBox="0 0 384.7725 378.061875" xmlns="http://www.w3.org/2000/svg" version="1.1">
 <metadata>
  <rdf:RDF xmlns:dc="http://purl.org/dc/elements/1.1/" xmlns:cc="http://creativecommons.org/ns#" xmlns:rdf="http://www.w3.org/1999/02/22-rdf-syntax-ns#">
   <cc:Work>
    <dc:type rdf:resource="http://purl.org/dc/dcmitype/StillImage"/>
    <dc:date>2023-10-11T16:00:55.519412</dc:date>
    <dc:format>image/svg+xml</dc:format>
    <dc:creator>
     <cc:Agent>
      <dc:title>Matplotlib v3.7.1, https://matplotlib.org/</dc:title>
     </cc:Agent>
    </dc:creator>
   </cc:Work>
  </rdf:RDF>
 </metadata>
 <defs>
  <style type="text/css">*{stroke-linejoin: round; stroke-linecap: butt}</style>
 </defs>
 <g id="figure_1">
  <g id="patch_1">
   <path d="M -0 378.061875 
L 384.7725 378.061875 
L 384.7725 0 
L -0 0 
z
" style="fill: #ffffff"/>
  </g>
  <g id="axes_1">
   <g id="patch_2">
    <path d="M 84.08225 325.020625 
L 317.039188 325.020625 
L 317.039188 56.073762 
L 84.08225 56.073762 
z
" style="fill: #ffffff"/>
   </g>
   <g id="PolyCollection_1">
    <defs>
     <path id="m83a52beca8" d="M 94.671202 -53.403041 
L 94.671202 -53.04125 
L 95.617811 -53.04125 
L 96.56442 -53.04125 
L 97.511029 -53.04125 
L 98.457639 -53.04125 
L 99.404248 -53.04125 
L 100.350857 -53.04125 
L 101.297466 -53.04125 
L 102.244075 -53.04125 
L 103.190685 -53.04125 
L 104.137294 -53.04125 
L 105.083903 -53.04125 
L 106.030512 -53.04125 
L 106.977121 -53.04125 
L 107.923731 -53.04125 
L 108.87034 -53.04125 
L 109.816949 -53.04125 
L 110.763558 -53.04125 
L 111.710167 -53.04125 
L 112.656777 -53.04125 
L 113.603386 -53.04125 
L 114.549995 -53.04125 
L 115.496604 -53.04125 
L 116.443213 -53.04125 
L 117.389823 -53.04125 
L 118.336432 -53.04125 
L 119.283041 -53.04125 
L 120.22965 -53.04125 
L 121.176259 -53.04125 
L 122.122869 -53.04125 
L 123.069478 -53.04125 
L 124.016087 -53.04125 
L 124.962696 -53.04125 
L 125.909306 -53.04125 
L 126.855915 -53.04125 
L 127.802524 -53.04125 
L 128.749133 -53.04125 
L 129.695742 -53.04125 
L 130.642352 -53.04125 
L 131.588961 -53.04125 
L 132.53557 -53.04125 
L 133.482179 -53.04125 
L 134.428788 -53.04125 
L 135.375398 -53.04125 
L 136.322007 -53.04125 
L 137.268616 -53.04125 
L 138.215225 -53.04125 
L 139.161834 -53.04125 
L 140.108444 -53.04125 
L 141.055053 -53.04125 
L 142.001662 -53.04125 
L 142.948271 -53.04125 
L 143.89488 -53.04125 
L 144.84149 -53.04125 
L 145.788099 -53.04125 
L 146.734708 -53.04125 
L 147.681317 -53.04125 
L 148.627926 -53.04125 
L 149.574536 -53.04125 
L 150.521145 -53.04125 
L 151.467754 -53.04125 
L 152.414363 -53.04125 
L 153.360972 -53.04125 
L 154.307582 -53.04125 
L 155.254191 -53.04125 
L 156.2008 -53.04125 
L 157.147409 -53.04125 
L 158.094019 -53.04125 
L 159.040628 -53.04125 
L 159.987237 -53.04125 
L 160.933846 -53.04125 
L 161.880455 -53.04125 
L 162.827065 -53.04125 
L 163.773674 -53.04125 
L 164.720283 -53.04125 
L 165.666892 -53.04125 
L 166.613501 -53.04125 
L 167.560111 -53.04125 
L 168.50672 -53.04125 
L 169.453329 -53.04125 
L 170.399938 -53.04125 
L 171.346547 -53.04125 
L 172.293157 -53.04125 
L 173.239766 -53.04125 
L 174.186375 -53.04125 
L 175.132984 -53.04125 
L 176.079593 -53.04125 
L 177.026203 -53.04125 
L 177.972812 -53.04125 
L 178.919421 -53.04125 
L 179.86603 -53.04125 
L 180.812639 -53.04125 
L 181.759249 -53.04125 
L 182.705858 -53.04125 
L 183.652467 -53.04125 
L 184.599076 -53.04125 
L 185.545685 -53.04125 
L 186.492295 -53.04125 
L 187.438904 -53.04125 
L 188.385513 -53.04125 
L 189.332122 -53.04125 
L 190.278732 -53.04125 
L 191.225341 -53.04125 
L 192.17195 -53.04125 
L 193.118559 -53.04125 
L 194.065168 -53.04125 
L 195.011778 -53.04125 
L 195.958387 -53.04125 
L 196.904996 -53.04125 
L 197.851605 -53.04125 
L 198.798214 -53.04125 
L 199.744824 -53.04125 
L 200.691433 -53.04125 
L 201.638042 -53.04125 
L 202.584651 -53.04125 
L 203.53126 -53.04125 
L 204.47787 -53.04125 
L 205.424479 -53.04125 
L 206.371088 -53.04125 
L 207.317697 -53.04125 
L 208.264306 -53.04125 
L 209.210916 -53.04125 
L 210.157525 -53.04125 
L 211.104134 -53.04125 
L 212.050743 -53.04125 
L 212.997352 -53.04125 
L 213.943962 -53.04125 
L 214.890571 -53.04125 
L 215.83718 -53.04125 
L 216.783789 -53.04125 
L 217.730398 -53.04125 
L 218.677008 -53.04125 
L 219.623617 -53.04125 
L 220.570226 -53.04125 
L 221.516835 -53.04125 
L 222.463444 -53.04125 
L 223.410054 -53.04125 
L 224.356663 -53.04125 
L 225.303272 -53.04125 
L 226.249881 -53.04125 
L 227.196491 -53.04125 
L 228.1431 -53.04125 
L 229.089709 -53.04125 
L 230.036318 -53.04125 
L 230.982927 -53.04125 
L 231.929537 -53.04125 
L 232.876146 -53.04125 
L 233.822755 -53.04125 
L 234.769364 -53.04125 
L 235.715973 -53.04125 
L 236.662583 -53.04125 
L 237.609192 -53.04125 
L 238.555801 -53.04125 
L 239.50241 -53.04125 
L 240.449019 -53.04125 
L 241.395629 -53.04125 
L 242.342238 -53.04125 
L 243.288847 -53.04125 
L 244.235456 -53.04125 
L 245.182065 -53.04125 
L 246.128675 -53.04125 
L 247.075284 -53.04125 
L 248.021893 -53.04125 
L 248.968502 -53.04125 
L 249.915111 -53.04125 
L 250.861721 -53.04125 
L 251.80833 -53.04125 
L 252.754939 -53.04125 
L 253.701548 -53.04125 
L 254.648157 -53.04125 
L 255.594767 -53.04125 
L 256.541376 -53.04125 
L 257.487985 -53.04125 
L 258.434594 -53.04125 
L 259.381204 -53.04125 
L 260.327813 -53.04125 
L 261.274422 -53.04125 
L 262.221031 -53.04125 
L 263.16764 -53.04125 
L 264.11425 -53.04125 
L 265.060859 -53.04125 
L 266.007468 -53.04125 
L 266.954077 -53.04125 
L 267.900686 -53.04125 
L 268.847296 -53.04125 
L 269.793905 -53.04125 
L 270.740514 -53.04125 
L 271.687123 -53.04125 
L 272.633732 -53.04125 
L 273.580342 -53.04125 
L 274.526951 -53.04125 
L 275.47356 -53.04125 
L 276.420169 -53.04125 
L 277.366778 -53.04125 
L 278.313388 -53.04125 
L 279.259997 -53.04125 
L 280.206606 -53.04125 
L 281.153215 -53.04125 
L 282.099824 -53.04125 
L 283.046434 -53.04125 
L 283.046434 -53.211612 
L 283.046434 -53.211612 
L 282.099824 -53.257894 
L 281.153215 -53.314938 
L 280.206606 -53.38473 
L 279.259997 -53.469486 
L 278.313388 -53.571646 
L 277.366778 -53.69386 
L 276.420169 -53.838956 
L 275.47356 -54.009903 
L 274.526951 -54.209753 
L 273.580342 -54.441571 
L 272.633732 -54.708348 
L 271.687123 -55.012907 
L 270.740514 -55.357779 
L 269.793905 -55.745088 
L 268.847296 -56.176414 
L 267.900686 -56.65266 
L 266.954077 -57.17392 
L 266.007468 -57.739351 
L 265.060859 -58.347066 
L 264.11425 -58.994046 
L 263.16764 -59.676078 
L 262.221031 -60.387731 
L 261.274422 -61.122372 
L 260.327813 -61.872221 
L 259.381204 -62.628465 
L 258.434594 -63.381403 
L 257.487985 -64.120651 
L 256.541376 -64.835384 
L 255.594767 -65.514615 
L 254.648157 -66.1475 
L 253.701548 -66.723666 
L 252.754939 -67.233545 
L 251.80833 -67.668701 
L 250.861721 -68.022138 
L 249.915111 -68.28859 
L 248.968502 -68.464751 
L 248.021893 -68.549477 
L 247.075284 -68.543912 
L 246.128675 -68.451557 
L 245.182065 -68.27828 
L 244.235456 -68.032246 
L 243.288847 -67.723795 
L 242.342238 -67.365253 
L 241.395629 -66.970696 
L 240.449019 -66.555668 
L 239.50241 -66.136862 
L 238.555801 -65.731776 
L 237.609192 -65.35836 
L 236.662583 -65.034649 
L 235.715973 -64.778407 
L 234.769364 -64.606776 
L 233.822755 -64.535953 
L 232.876146 -64.580881 
L 231.929537 -64.754985 
L 230.982927 -65.069931 
L 230.036318 -65.53543 
L 229.089709 -66.15909 
L 228.1431 -66.946301 
L 227.196491 -67.900186 
L 226.249881 -69.021582 
L 225.303272 -70.309088 
L 224.356663 -71.759152 
L 223.410054 -73.366213 
L 222.463444 -75.122886 
L 221.516835 -77.020183 
L 220.570226 -79.047773 
L 219.623617 -81.194262 
L 218.677008 -83.447489 
L 217.730398 -85.79482 
L 216.783789 -88.223436 
L 215.83718 -90.720597 
L 214.890571 -93.273868 
L 213.943962 -95.871308 
L 212.997352 -98.501601 
L 212.050743 -101.154137 
L 211.104134 -103.819038 
L 210.157525 -106.487133 
L 209.210916 -109.149887 
L 208.264306 -111.799306 
L 207.317697 -114.427822 
L 206.371088 -117.028177 
L 205.424479 -119.593329 
L 204.47787 -122.116388 
L 203.53126 -124.590603 
L 202.584651 -127.00941 
L 201.638042 -129.366537 
L 200.691433 -131.65619 
L 199.744824 -133.873285 
L 198.798214 -136.01375 
L 197.851605 -138.074846 
L 196.904996 -140.055522 
L 195.958387 -141.956753 
L 195.011778 -143.781862 
L 194.065168 -145.536777 
L 193.118559 -147.230232 
L 192.17195 -148.873866 
L 191.225341 -150.482223 
L 190.278732 -152.072644 
L 189.332122 -153.665042 
L 188.385513 -155.281576 
L 187.438904 -156.946219 
L 186.492295 -158.684251 
L 185.545685 -160.521678 
L 184.599076 -162.48461 
L 183.652467 -164.598616 
L 182.705858 -166.888067 
L 181.759249 -169.375496 
L 180.812639 -172.080989 
L 179.86603 -175.021616 
L 178.919421 -178.210907 
L 177.972812 -181.658393 
L 177.026203 -185.369201 
L 176.079593 -189.343717 
L 175.132984 -193.577301 
L 174.186375 -198.060079 
L 173.239766 -202.77679 
L 172.293157 -207.706701 
L 171.346547 -212.823604 
L 170.399938 -218.095877 
L 169.453329 -223.486649 
L 168.50672 -228.954049 
L 167.560111 -234.451566 
L 166.613501 -239.928526 
L 165.666892 -245.330677 
L 164.720283 -250.600906 
L 163.773674 -255.680066 
L 162.827065 -260.507915 
L 161.880455 -265.024146 
L 160.933846 -269.169491 
L 159.987237 -272.886865 
L 159.040628 -276.122536 
L 158.094019 -278.827255 
L 157.147409 -280.957338 
L 156.2008 -282.475647 
L 155.254191 -283.352435 
L 154.307582 -283.566025 
L 153.360972 -283.103298 
L 152.414363 -281.959962 
L 151.467754 -280.140604 
L 150.521145 -277.658511 
L 149.574536 -274.535272 
L 148.627926 -270.800173 
L 147.681317 -266.489419 
L 146.734708 -261.645199 
L 145.788099 -256.314639 
L 144.84149 -250.548678 
L 143.89488 -244.40092 
L 142.948271 -237.926473 
L 142.001662 -231.180855 
L 141.055053 -224.218962 
L 140.108444 -217.094147 
L 139.161834 -209.857435 
L 138.215225 -202.556878 
L 137.268616 -195.237062 
L 136.322007 -187.938773 
L 135.375398 -180.698808 
L 134.428788 -173.549928 
L 133.482179 -166.520923 
L 132.53557 -159.636789 
L 131.588961 -152.918971 
L 130.642352 -146.38567 
L 129.695742 -140.052172 
L 128.749133 -133.931193 
L 127.802524 -128.033212 
L 126.855915 -122.366768 
L 125.909306 -116.938737 
L 124.962696 -111.754541 
L 124.016087 -106.818324 
L 123.069478 -102.133066 
L 122.122869 -97.700658 
L 121.176259 -93.521931 
L 120.22965 -89.596659 
L 119.283041 -85.923538 
L 118.336432 -82.500157 
L 117.389823 -79.322968 
L 116.443213 -76.387264 
L 115.496604 -73.687177 
L 114.549995 -71.215698 
L 113.603386 -68.964723 
L 112.656777 -66.925132 
L 111.710167 -65.086882 
L 110.763558 -63.439146 
L 109.816949 -61.97045 
L 108.87034 -60.668842 
L 107.923731 -59.522058 
L 106.977121 -58.517701 
L 106.030512 -57.643409 
L 105.083903 -56.887013 
L 104.137294 -56.236688 
L 103.190685 -55.68108 
L 102.244075 -55.209413 
L 101.297466 -54.811574 
L 100.350857 -54.478178 
L 99.404248 -54.200605 
L 98.457639 -53.971024 
L 97.511029 -53.782387 
L 96.56442 -53.628419 
L 95.617811 -53.503583 
L 94.671202 -53.403041 
z
" style="stroke: #2ca02c"/>
    </defs>
    <g clip-path="url(#p612ee01c86)">
     <use xlink:href="#m83a52beca8" x="0" y="378.061875" style="fill: #2ca02c; fill-opacity: 0.25; stroke: #2ca02c"/>
    </g>
   </g>
   <g id="PolyCollection_2">
    <defs>
     <path id="m693dc40f1a" d="M 138.884841 -53.325963 
L 138.884841 -53.04125 
L 139.726879 -53.04125 
L 140.568916 -53.04125 
L 141.410953 -53.04125 
L 142.25299 -53.04125 
L 143.095027 -53.04125 
L 143.937064 -53.04125 
L 144.779102 -53.04125 
L 145.621139 -53.04125 
L 146.463176 -53.04125 
L 147.305213 -53.04125 
L 148.14725 -53.04125 
L 148.989287 -53.04125 
L 149.831325 -53.04125 
L 150.673362 -53.04125 
L 151.515399 -53.04125 
L 152.357436 -53.04125 
L 153.199473 -53.04125 
L 154.04151 -53.04125 
L 154.883548 -53.04125 
L 155.725585 -53.04125 
L 156.567622 -53.04125 
L 157.409659 -53.04125 
L 158.251696 -53.04125 
L 159.093733 -53.04125 
L 159.93577 -53.04125 
L 160.777808 -53.04125 
L 161.619845 -53.04125 
L 162.461882 -53.04125 
L 163.303919 -53.04125 
L 164.145956 -53.04125 
L 164.987993 -53.04125 
L 165.830031 -53.04125 
L 166.672068 -53.04125 
L 167.514105 -53.04125 
L 168.356142 -53.04125 
L 169.198179 -53.04125 
L 170.040216 -53.04125 
L 170.882254 -53.04125 
L 171.724291 -53.04125 
L 172.566328 -53.04125 
L 173.408365 -53.04125 
L 174.250402 -53.04125 
L 175.092439 -53.04125 
L 175.934477 -53.04125 
L 176.776514 -53.04125 
L 177.618551 -53.04125 
L 178.460588 -53.04125 
L 179.302625 -53.04125 
L 180.144662 -53.04125 
L 180.986699 -53.04125 
L 181.828737 -53.04125 
L 182.670774 -53.04125 
L 183.512811 -53.04125 
L 184.354848 -53.04125 
L 185.196885 -53.04125 
L 186.038922 -53.04125 
L 186.88096 -53.04125 
L 187.722997 -53.04125 
L 188.565034 -53.04125 
L 189.407071 -53.04125 
L 190.249108 -53.04125 
L 191.091145 -53.04125 
L 191.933183 -53.04125 
L 192.77522 -53.04125 
L 193.617257 -53.04125 
L 194.459294 -53.04125 
L 195.301331 -53.04125 
L 196.143368 -53.04125 
L 196.985406 -53.04125 
L 197.827443 -53.04125 
L 198.66948 -53.04125 
L 199.511517 -53.04125 
L 200.353554 -53.04125 
L 201.195591 -53.04125 
L 202.037628 -53.04125 
L 202.879666 -53.04125 
L 203.721703 -53.04125 
L 204.56374 -53.04125 
L 205.405777 -53.04125 
L 206.247814 -53.04125 
L 207.089851 -53.04125 
L 207.931889 -53.04125 
L 208.773926 -53.04125 
L 209.615963 -53.04125 
L 210.458 -53.04125 
L 211.300037 -53.04125 
L 212.142074 -53.04125 
L 212.984112 -53.04125 
L 213.826149 -53.04125 
L 214.668186 -53.04125 
L 215.510223 -53.04125 
L 216.35226 -53.04125 
L 217.194297 -53.04125 
L 218.036335 -53.04125 
L 218.878372 -53.04125 
L 219.720409 -53.04125 
L 220.562446 -53.04125 
L 221.404483 -53.04125 
L 222.24652 -53.04125 
L 223.088557 -53.04125 
L 223.930595 -53.04125 
L 224.772632 -53.04125 
L 225.614669 -53.04125 
L 226.456706 -53.04125 
L 227.298743 -53.04125 
L 228.14078 -53.04125 
L 228.982818 -53.04125 
L 229.824855 -53.04125 
L 230.666892 -53.04125 
L 231.508929 -53.04125 
L 232.350966 -53.04125 
L 233.193003 -53.04125 
L 234.035041 -53.04125 
L 234.877078 -53.04125 
L 235.719115 -53.04125 
L 236.561152 -53.04125 
L 237.403189 -53.04125 
L 238.245226 -53.04125 
L 239.087264 -53.04125 
L 239.929301 -53.04125 
L 240.771338 -53.04125 
L 241.613375 -53.04125 
L 242.455412 -53.04125 
L 243.297449 -53.04125 
L 244.139486 -53.04125 
L 244.981524 -53.04125 
L 245.823561 -53.04125 
L 246.665598 -53.04125 
L 247.507635 -53.04125 
L 248.349672 -53.04125 
L 249.191709 -53.04125 
L 250.033747 -53.04125 
L 250.875784 -53.04125 
L 251.717821 -53.04125 
L 252.559858 -53.04125 
L 253.401895 -53.04125 
L 254.243932 -53.04125 
L 255.08597 -53.04125 
L 255.928007 -53.04125 
L 256.770044 -53.04125 
L 257.612081 -53.04125 
L 258.454118 -53.04125 
L 259.296155 -53.04125 
L 260.138193 -53.04125 
L 260.98023 -53.04125 
L 261.822267 -53.04125 
L 262.664304 -53.04125 
L 263.506341 -53.04125 
L 264.348378 -53.04125 
L 265.190415 -53.04125 
L 266.032453 -53.04125 
L 266.87449 -53.04125 
L 267.716527 -53.04125 
L 268.558564 -53.04125 
L 269.400601 -53.04125 
L 270.242638 -53.04125 
L 271.084676 -53.04125 
L 271.926713 -53.04125 
L 272.76875 -53.04125 
L 273.610787 -53.04125 
L 274.452824 -53.04125 
L 275.294861 -53.04125 
L 276.136899 -53.04125 
L 276.978936 -53.04125 
L 277.820973 -53.04125 
L 278.66301 -53.04125 
L 279.505047 -53.04125 
L 280.347084 -53.04125 
L 281.189122 -53.04125 
L 282.031159 -53.04125 
L 282.873196 -53.04125 
L 283.715233 -53.04125 
L 284.55727 -53.04125 
L 285.399307 -53.04125 
L 286.241344 -53.04125 
L 287.083382 -53.04125 
L 287.925419 -53.04125 
L 288.767456 -53.04125 
L 289.609493 -53.04125 
L 290.45153 -53.04125 
L 291.293567 -53.04125 
L 292.135605 -53.04125 
L 292.977642 -53.04125 
L 293.819679 -53.04125 
L 294.661716 -53.04125 
L 295.503753 -53.04125 
L 296.34579 -53.04125 
L 297.187828 -53.04125 
L 298.029865 -53.04125 
L 298.871902 -53.04125 
L 299.713939 -53.04125 
L 300.555976 -53.04125 
L 301.398013 -53.04125 
L 302.240051 -53.04125 
L 303.082088 -53.04125 
L 303.924125 -53.04125 
L 304.766162 -53.04125 
L 305.608199 -53.04125 
L 306.450236 -53.04125 
L 306.450236 -53.240229 
L 306.450236 -53.240229 
L 305.608199 -53.296632 
L 304.766162 -53.366697 
L 303.924125 -53.453042 
L 303.082088 -53.558601 
L 302.240051 -53.686607 
L 301.398013 -53.840576 
L 300.555976 -54.024255 
L 299.713939 -54.241567 
L 298.871902 -54.496524 
L 298.029865 -54.793121 
L 297.187828 -55.135206 
L 296.34579 -55.526337 
L 295.503753 -55.969607 
L 294.661716 -56.467468 
L 293.819679 -57.021537 
L 292.977642 -57.632408 
L 292.135605 -58.299469 
L 291.293567 -59.020735 
L 290.45153 -59.792709 
L 289.609493 -60.610281 
L 288.767456 -61.466679 
L 287.925419 -62.353465 
L 287.083382 -63.260607 
L 286.241344 -64.17661 
L 285.399307 -65.088713 
L 284.55727 -65.983165 
L 283.715233 -66.845545 
L 282.873196 -67.661148 
L 282.031159 -68.4154 
L 281.189122 -69.094304 
L 280.347084 -69.684889 
L 279.505047 -70.175648 
L 278.66301 -70.556949 
L 277.820973 -70.821397 
L 276.978936 -70.964128 
L 276.136899 -70.983042 
L 275.294861 -70.878936 
L 274.452824 -70.655562 
L 273.610787 -70.319586 
L 272.76875 -69.880473 
L 271.926713 -69.350288 
L 271.084676 -68.743436 
L 270.242638 -68.076359 
L 269.400601 -67.367186 
L 268.558564 -66.635374 
L 267.716527 -65.901342 
L 266.87449 -65.186114 
L 266.032453 -64.510984 
L 265.190415 -63.8972 
L 264.348378 -63.36568 
L 263.506341 -62.936761 
L 262.664304 -62.629959 
L 261.822267 -62.463756 
L 260.98023 -62.45539 
L 260.138193 -62.620645 
L 259.296155 -62.973631 
L 258.454118 -63.526548 
L 257.612081 -64.289434 
L 256.770044 -65.269887 
L 255.928007 -66.472788 
L 255.08597 -67.900013 
L 254.243932 -69.550158 
L 253.401895 -71.41831 
L 252.559858 -73.495865 
L 251.717821 -75.770435 
L 250.875784 -78.225856 
L 250.033747 -80.842336 
L 249.191709 -83.596744 
L 248.349672 -86.463055 
L 247.507635 -89.412968 
L 246.665598 -92.416669 
L 245.823561 -95.443741 
L 244.981524 -98.46418 
L 244.139486 -101.449487 
L 243.297449 -104.373785 
L 242.455412 -107.214915 
L 241.613375 -109.955452 
L 240.771338 -112.583579 
L 239.929301 -115.093782 
L 239.087264 -117.487309 
L 238.245226 -119.772364 
L 237.403189 -121.964016 
L 236.561152 -124.083812 
L 235.719115 -126.159118 
L 234.877078 -128.222193 
L 234.035041 -130.309062 
L 233.193003 -132.458217 
L 232.350966 -134.709237 
L 231.508929 -137.10136 
L 230.666892 -139.672107 
L 229.824855 -142.456004 
L 228.982818 -145.483459 
L 228.14078 -148.77985 
L 227.298743 -152.364836 
L 226.456706 -156.251926 
L 225.614669 -160.448286 
L 224.772632 -164.954784 
L 223.930595 -169.766223 
L 223.088557 -174.871753 
L 222.24652 -180.255383 
L 221.404483 -185.896568 
L 220.562446 -191.770822 
L 219.720409 -197.850306 
L 218.878372 -204.104371 
L 218.036335 -210.500031 
L 217.194297 -217.002351 
L 216.35226 -223.574752 
L 215.510223 -230.179256 
L 214.668186 -236.77667 
L 213.826149 -243.326748 
L 212.984112 -249.788353 
L 212.142074 -256.119637 
L 211.300037 -262.278283 
L 210.458 -268.221793 
L 209.615963 -273.907866 
L 208.773926 -279.294832 
L 207.931889 -284.342173 
L 207.089851 -289.011077 
L 206.247814 -293.265035 
L 205.405777 -297.070449 
L 204.56374 -300.397213 
L 203.721703 -303.219255 
L 202.879666 -305.51502 
L 202.037628 -307.267855 
L 201.195591 -308.466302 
L 200.353554 -309.104274 
L 199.511517 -309.18112 
L 198.66948 -308.701571 
L 197.827443 -307.675578 
L 196.985406 -306.11804 
L 196.143368 -304.04845 
L 195.301331 -301.490447 
L 194.459294 -298.471306 
L 193.617257 -295.021375 
L 192.77522 -291.173461 
L 191.933183 -286.962196 
L 191.091145 -282.423383 
L 190.249108 -277.593344 
L 189.407071 -272.508278 
L 188.565034 -267.203649 
L 187.722997 -261.713618 
L 186.88096 -256.070527 
L 186.038922 -250.304463 
L 185.196885 -244.442896 
L 184.354848 -238.510418 
L 183.512811 -232.528582 
L 182.670774 -226.515851 
L 181.828737 -220.487651 
L 180.986699 -214.456536 
L 180.144662 -208.432439 
L 179.302625 -202.423021 
L 178.460588 -196.434083 
L 177.618551 -190.470024 
L 176.776514 -184.534345 
L 175.934477 -178.630139 
L 175.092439 -172.760584 
L 174.250402 -166.929387 
L 173.408365 -161.141174 
L 172.566328 -155.401811 
L 171.724291 -149.718625 
L 170.882254 -144.100538 
L 170.040216 -138.558097 
L 169.198179 -133.103398 
L 168.356142 -127.749919 
L 167.514105 -122.512264 
L 166.672068 -117.405834 
L 165.830031 -112.446442 
L 164.987993 -107.64989 
L 164.145956 -103.031524 
L 163.303919 -98.605804 
L 162.461882 -94.385879 
L 161.619845 -90.383219 
L 160.777808 -86.607293 
L 159.93577 -83.065314 
L 159.093733 -79.762066 
L 158.251696 -76.699807 
L 157.409659 -73.878257 
L 156.567622 -71.294657 
L 155.725585 -68.943908 
L 154.883548 -66.818765 
L 154.04151 -64.910085 
L 153.199473 -63.207118 
L 152.357436 -61.697806 
L 151.515399 -60.369118 
L 150.673362 -59.207361 
L 149.831325 -58.198493 
L 148.989287 -57.328408 
L 148.14725 -56.583196 
L 147.305213 -55.949362 
L 146.463176 -55.414018 
L 145.621139 -54.965022 
L 144.779102 -54.591089 
L 143.937064 -54.281863 
L 143.095027 -54.027952 
L 142.25299 -53.820935 
L 141.410953 -53.653349 
L 140.568916 -53.518646 
L 139.726879 -53.411145 
L 138.884841 -53.325963 
z
" style="stroke: #ff7f0e"/>
    </defs>
    <g clip-path="url(#p612ee01c86)">
     <use xlink:href="#m693dc40f1a" x="0" y="378.061875" style="fill: #ff7f0e; fill-opacity: 0.25; stroke: #ff7f0e"/>
    </g>
   </g>
   <g id="PolyCollection_3">
    <defs>
     <path id="m158325223f" d="M 152.089561 -53.395909 
L 152.089561 -53.04125 
L 152.842192 -53.04125 
L 153.594822 -53.04125 
L 154.347453 -53.04125 
L 155.100083 -53.04125 
L 155.852714 -53.04125 
L 156.605345 -53.04125 
L 157.357975 -53.04125 
L 158.110606 -53.04125 
L 158.863236 -53.04125 
L 159.615867 -53.04125 
L 160.368497 -53.04125 
L 161.121128 -53.04125 
L 161.873758 -53.04125 
L 162.626389 -53.04125 
L 163.379019 -53.04125 
L 164.13165 -53.04125 
L 164.884281 -53.04125 
L 165.636911 -53.04125 
L 166.389542 -53.04125 
L 167.142172 -53.04125 
L 167.894803 -53.04125 
L 168.647433 -53.04125 
L 169.400064 -53.04125 
L 170.152694 -53.04125 
L 170.905325 -53.04125 
L 171.657955 -53.04125 
L 172.410586 -53.04125 
L 173.163217 -53.04125 
L 173.915847 -53.04125 
L 174.668478 -53.04125 
L 175.421108 -53.04125 
L 176.173739 -53.04125 
L 176.926369 -53.04125 
L 177.679 -53.04125 
L 178.43163 -53.04125 
L 179.184261 -53.04125 
L 179.936891 -53.04125 
L 180.689522 -53.04125 
L 181.442152 -53.04125 
L 182.194783 -53.04125 
L 182.947414 -53.04125 
L 183.700044 -53.04125 
L 184.452675 -53.04125 
L 185.205305 -53.04125 
L 185.957936 -53.04125 
L 186.710566 -53.04125 
L 187.463197 -53.04125 
L 188.215827 -53.04125 
L 188.968458 -53.04125 
L 189.721088 -53.04125 
L 190.473719 -53.04125 
L 191.22635 -53.04125 
L 191.97898 -53.04125 
L 192.731611 -53.04125 
L 193.484241 -53.04125 
L 194.236872 -53.04125 
L 194.989502 -53.04125 
L 195.742133 -53.04125 
L 196.494763 -53.04125 
L 197.247394 -53.04125 
L 198.000024 -53.04125 
L 198.752655 -53.04125 
L 199.505286 -53.04125 
L 200.257916 -53.04125 
L 201.010547 -53.04125 
L 201.763177 -53.04125 
L 202.515808 -53.04125 
L 203.268438 -53.04125 
L 204.021069 -53.04125 
L 204.773699 -53.04125 
L 205.52633 -53.04125 
L 206.27896 -53.04125 
L 207.031591 -53.04125 
L 207.784222 -53.04125 
L 208.536852 -53.04125 
L 209.289483 -53.04125 
L 210.042113 -53.04125 
L 210.794744 -53.04125 
L 211.547374 -53.04125 
L 212.300005 -53.04125 
L 213.052635 -53.04125 
L 213.805266 -53.04125 
L 214.557896 -53.04125 
L 215.310527 -53.04125 
L 216.063158 -53.04125 
L 216.815788 -53.04125 
L 217.568419 -53.04125 
L 218.321049 -53.04125 
L 219.07368 -53.04125 
L 219.82631 -53.04125 
L 220.578941 -53.04125 
L 221.331571 -53.04125 
L 222.084202 -53.04125 
L 222.836832 -53.04125 
L 223.589463 -53.04125 
L 224.342093 -53.04125 
L 225.094724 -53.04125 
L 225.847355 -53.04125 
L 226.599985 -53.04125 
L 227.352616 -53.04125 
L 228.105246 -53.04125 
L 228.857877 -53.04125 
L 229.610507 -53.04125 
L 230.363138 -53.04125 
L 231.115768 -53.04125 
L 231.868399 -53.04125 
L 232.621029 -53.04125 
L 233.37366 -53.04125 
L 234.126291 -53.04125 
L 234.878921 -53.04125 
L 235.631552 -53.04125 
L 236.384182 -53.04125 
L 237.136813 -53.04125 
L 237.889443 -53.04125 
L 238.642074 -53.04125 
L 239.394704 -53.04125 
L 240.147335 -53.04125 
L 240.899965 -53.04125 
L 241.652596 -53.04125 
L 242.405227 -53.04125 
L 243.157857 -53.04125 
L 243.910488 -53.04125 
L 244.663118 -53.04125 
L 245.415749 -53.04125 
L 246.168379 -53.04125 
L 246.92101 -53.04125 
L 247.67364 -53.04125 
L 248.426271 -53.04125 
L 249.178901 -53.04125 
L 249.931532 -53.04125 
L 250.684163 -53.04125 
L 251.436793 -53.04125 
L 252.189424 -53.04125 
L 252.942054 -53.04125 
L 253.694685 -53.04125 
L 254.447315 -53.04125 
L 255.199946 -53.04125 
L 255.952576 -53.04125 
L 256.705207 -53.04125 
L 257.457837 -53.04125 
L 258.210468 -53.04125 
L 258.963099 -53.04125 
L 259.715729 -53.04125 
L 260.46836 -53.04125 
L 261.22099 -53.04125 
L 261.973621 -53.04125 
L 262.726251 -53.04125 
L 263.478882 -53.04125 
L 264.231512 -53.04125 
L 264.984143 -53.04125 
L 265.736773 -53.04125 
L 266.489404 -53.04125 
L 267.242034 -53.04125 
L 267.994665 -53.04125 
L 268.747296 -53.04125 
L 269.499926 -53.04125 
L 270.252557 -53.04125 
L 271.005187 -53.04125 
L 271.757818 -53.04125 
L 272.510448 -53.04125 
L 273.263079 -53.04125 
L 274.015709 -53.04125 
L 274.76834 -53.04125 
L 275.52097 -53.04125 
L 276.273601 -53.04125 
L 277.026232 -53.04125 
L 277.778862 -53.04125 
L 278.531493 -53.04125 
L 279.284123 -53.04125 
L 280.036754 -53.04125 
L 280.789384 -53.04125 
L 281.542015 -53.04125 
L 282.294645 -53.04125 
L 283.047276 -53.04125 
L 283.799906 -53.04125 
L 284.552537 -53.04125 
L 285.305168 -53.04125 
L 286.057798 -53.04125 
L 286.810429 -53.04125 
L 287.563059 -53.04125 
L 288.31569 -53.04125 
L 289.06832 -53.04125 
L 289.820951 -53.04125 
L 290.573581 -53.04125 
L 291.326212 -53.04125 
L 292.078842 -53.04125 
L 292.831473 -53.04125 
L 293.584104 -53.04125 
L 294.336734 -53.04125 
L 295.089365 -53.04125 
L 295.841995 -53.04125 
L 296.594626 -53.04125 
L 297.347256 -53.04125 
L 298.099887 -53.04125 
L 298.852517 -53.04125 
L 299.605148 -53.04125 
L 300.357778 -53.04125 
L 301.110409 -53.04125 
L 301.86304 -53.04125 
L 301.86304 -53.244503 
L 301.86304 -53.244503 
L 301.110409 -53.296574 
L 300.357778 -53.360097 
L 299.605148 -53.437083 
L 298.852517 -53.529769 
L 298.099887 -53.640617 
L 297.347256 -53.772303 
L 296.594626 -53.927697 
L 295.841995 -54.10983 
L 295.089365 -54.321857 
L 294.336734 -54.567001 
L 293.584104 -54.84849 
L 292.831473 -55.169476 
L 292.078842 -55.532957 
L 291.326212 -55.941673 
L 290.573581 -56.398008 
L 289.820951 -56.903888 
L 289.06832 -57.460676 
L 288.31569 -58.069073 
L 287.563059 -58.729035 
L 286.810429 -59.439703 
L 286.057798 -60.199349 
L 285.305168 -61.005358 
L 284.552537 -61.854238 
L 283.799906 -62.741656 
L 283.047276 -63.662525 
L 282.294645 -64.611116 
L 281.542015 -65.581215 
L 280.789384 -66.566304 
L 280.036754 -67.559783 
L 279.284123 -68.555202 
L 278.531493 -69.54651 
L 277.778862 -70.528309 
L 277.026232 -71.496097 
L 276.273601 -72.446488 
L 275.52097 -73.377406 
L 274.76834 -74.28823 
L 274.015709 -75.179891 
L 273.263079 -76.054904 
L 272.510448 -76.917337 
L 271.757818 -77.772719 
L 271.005187 -78.627867 
L 270.252557 -79.490673 
L 269.499926 -80.369818 
L 268.747296 -81.274462 
L 267.994665 -82.213898 
L 267.242034 -83.197199 
L 266.489404 -84.232866 
L 265.736773 -85.328514 
L 264.984143 -86.490575 
L 264.231512 -87.724079 
L 263.478882 -89.032484 
L 262.726251 -90.417585 
L 261.973621 -91.879503 
L 261.22099 -93.416748 
L 260.46836 -95.026352 
L 259.715729 -96.704069 
L 258.963099 -98.444619 
L 258.210468 -100.241967 
L 257.457837 -102.089622 
L 256.705207 -103.98092 
L 255.952576 -105.909306 
L 255.199946 -107.868556 
L 254.447315 -109.852971 
L 253.694685 -111.857494 
L 252.942054 -113.877777 
L 252.189424 -115.910181 
L 251.436793 -117.951716 
L 250.684163 -119.999944 
L 249.931532 -122.05284 
L 249.178901 -124.108649 
L 248.426271 -126.165744 
L 247.67364 -128.222508 
L 246.92101 -130.277261 
L 246.168379 -132.328243 
L 245.415749 -134.373669 
L 244.663118 -136.411852 
L 243.910488 -138.441407 
L 243.157857 -140.461518 
L 242.405227 -142.472256 
L 241.652596 -144.474937 
L 240.899965 -146.472488 
L 240.147335 -148.469799 
L 239.394704 -150.474025 
L 238.642074 -152.494822 
L 237.889443 -154.544479 
L 237.136813 -156.637927 
L 236.384182 -158.792613 
L 235.631552 -161.028216 
L 234.878921 -163.366223 
L 234.126291 -165.829347 
L 233.37366 -168.440822 
L 232.621029 -171.223587 
L 231.868399 -174.199389 
L 231.115768 -177.387846 
L 230.363138 -180.805498 
L 229.610507 -184.464904 
L 228.857877 -188.373807 
L 228.105246 -192.534421 
L 227.352616 -196.942873 
L 226.599985 -201.588816 
L 225.847355 -206.455259 
L 225.094724 -211.518608 
L 224.342093 -216.748935 
L 223.589463 -222.110463 
L 222.836832 -227.562269 
L 222.084202 -233.059163 
L 221.331571 -238.552736 
L 220.578941 -243.992524 
L 219.82631 -249.327262 
L 219.07368 -254.506172 
L 218.321049 -259.48025 
L 217.568419 -264.2035 
L 216.815788 -268.634067 
L 216.063158 -272.735245 
L 215.310527 -276.476303 
L 214.557896 -279.833112 
L 213.805266 -282.788549 
L 213.052635 -285.332662 
L 212.300005 -287.462591 
L 211.547374 -289.182254 
L 210.794744 -290.501805 
L 210.042113 -291.436893 
L 209.289483 -292.007747 
L 208.536852 -292.238128 
L 207.784222 -292.154192 
L 207.031591 -291.783306 
L 206.27896 -291.15287 
L 205.52633 -290.289184 
L 204.773699 -289.216419 
L 204.021069 -287.955718 
L 203.268438 -286.524473 
L 202.515808 -284.935785 
L 201.763177 -283.198157 
L 201.010547 -281.315387 
L 200.257916 -279.286694 
L 199.505286 -277.107036 
L 198.752655 -274.767623 
L 198.000024 -272.256582 
L 197.247394 -269.559739 
L 196.494763 -266.661492 
L 195.742133 -263.545726 
L 194.989502 -260.196727 
L 194.236872 -256.600069 
L 193.484241 -252.74343 
L 192.731611 -248.617308 
L 191.97898 -244.215626 
L 191.22635 -239.536191 
L 190.473719 -234.581016 
L 189.721088 -229.356489 
L 188.968458 -223.873402 
L 188.215827 -218.146843 
L 187.463197 -212.195968 
L 186.710566 -206.043666 
L 185.957936 -199.716136 
L 185.205305 -193.2424 
L 184.452675 -186.653767 
L 183.700044 -179.983262 
L 182.947414 -173.26505 
L 182.194783 -166.533854 
L 181.442152 -159.824396 
L 180.689522 -153.170855 
L 179.936891 -146.60637 
L 179.184261 -140.162578 
L 178.43163 -133.869201 
L 177.679 -127.753686 
L 176.926369 -121.8409 
L 176.173739 -116.152881 
L 175.421108 -110.708646 
L 174.668478 -105.524062 
L 173.915847 -100.611767 
L 173.163217 -95.981161 
L 172.410586 -91.638438 
L 171.657955 -87.586678 
L 170.905325 -83.825992 
L 170.152694 -80.353699 
L 169.400064 -77.16455 
L 168.647433 -74.250986 
L 167.894803 -71.603408 
L 167.142172 -69.210483 
L 166.389542 -67.059442 
L 165.636911 -65.136394 
L 164.884281 -63.426628 
L 164.13165 -61.914904 
L 163.379019 -60.585729 
L 162.626389 -59.423609 
L 161.873758 -58.413276 
L 161.121128 -57.539881 
L 160.368497 -56.789163 
L 159.615867 -56.147584 
L 158.863236 -55.602427 
L 158.110606 -55.141873 
L 157.357975 -54.755045 
L 156.605345 -54.432028 
L 155.852714 -54.163867 
L 155.100083 -53.942546 
L 154.347453 -53.760955 
L 153.594822 -53.612835 
L 152.842192 -53.492727 
L 152.089561 -53.395909 
z
" style="stroke: #1f77b4"/>
    </defs>
    <g clip-path="url(#p612ee01c86)">
     <use xlink:href="#m158325223f" x="0" y="378.061875" style="fill: #1f77b4; fill-opacity: 0.25; stroke: #1f77b4"/>
    </g>
   </g>
   <g id="matplotlib.axis_1">
    <g id="xtick_1">
     <g id="line2d_1">
      <defs>
       <path id="meab2090817" d="M 0 0 
L 0 3.5 
" style="stroke: #000000; stroke-width: 0.8"/>
      </defs>
      <g>
       <use xlink:href="#meab2090817" x="84.08225" y="325.020625" style="stroke: #000000; stroke-width: 0.8"/>
      </g>
     </g>
     <g id="text_1">
      <!-- 0.001 -->
      <g transform="translate(58.316938 345.697812) scale(0.18 -0.18)">
       <defs>
        <path id="DejaVuSans-30" d="M 2034 4250 
Q 1547 4250 1301 3770 
Q 1056 3291 1056 2328 
Q 1056 1369 1301 889 
Q 1547 409 2034 409 
Q 2525 409 2770 889 
Q 3016 1369 3016 2328 
Q 3016 3291 2770 3770 
Q 2525 4250 2034 4250 
z
M 2034 4750 
Q 2819 4750 3233 4129 
Q 3647 3509 3647 2328 
Q 3647 1150 3233 529 
Q 2819 -91 2034 -91 
Q 1250 -91 836 529 
Q 422 1150 422 2328 
Q 422 3509 836 4129 
Q 1250 4750 2034 4750 
z
" transform="scale(0.015625)"/>
        <path id="DejaVuSans-2e" d="M 684 794 
L 1344 794 
L 1344 0 
L 684 0 
L 684 794 
z
" transform="scale(0.015625)"/>
        <path id="DejaVuSans-31" d="M 794 531 
L 1825 531 
L 1825 4091 
L 703 3866 
L 703 4441 
L 1819 4666 
L 2450 4666 
L 2450 531 
L 3481 531 
L 3481 0 
L 794 0 
L 794 531 
z
" transform="scale(0.015625)"/>
       </defs>
       <use xlink:href="#DejaVuSans-30"/>
       <use xlink:href="#DejaVuSans-2e" x="63.623047"/>
       <use xlink:href="#DejaVuSans-30" x="95.410156"/>
       <use xlink:href="#DejaVuSans-30" x="159.033203"/>
       <use xlink:href="#DejaVuSans-31" x="222.65625"/>
      </g>
     </g>
    </g>
    <g id="xtick_2">
     <g id="line2d_2">
      <g>
       <use xlink:href="#meab2090817" x="200.560719" y="325.020625" style="stroke: #000000; stroke-width: 0.8"/>
      </g>
     </g>
     <g id="text_2">
      <!-- 0.002 -->
      <g transform="translate(174.795407 345.697812) scale(0.18 -0.18)">
       <defs>
        <path id="DejaVuSans-32" d="M 1228 531 
L 3431 531 
L 3431 0 
L 469 0 
L 469 531 
Q 828 903 1448 1529 
Q 2069 2156 2228 2338 
Q 2531 2678 2651 2914 
Q 2772 3150 2772 3378 
Q 2772 3750 2511 3984 
Q 2250 4219 1831 4219 
Q 1534 4219 1204 4116 
Q 875 4013 500 3803 
L 500 4441 
Q 881 4594 1212 4672 
Q 1544 4750 1819 4750 
Q 2544 4750 2975 4387 
Q 3406 4025 3406 3419 
Q 3406 3131 3298 2873 
Q 3191 2616 2906 2266 
Q 2828 2175 2409 1742 
Q 1991 1309 1228 531 
z
" transform="scale(0.015625)"/>
       </defs>
       <use xlink:href="#DejaVuSans-30"/>
       <use xlink:href="#DejaVuSans-2e" x="63.623047"/>
       <use xlink:href="#DejaVuSans-30" x="95.410156"/>
       <use xlink:href="#DejaVuSans-30" x="159.033203"/>
       <use xlink:href="#DejaVuSans-32" x="222.65625"/>
      </g>
     </g>
    </g>
    <g id="xtick_3">
     <g id="line2d_3">
      <g>
       <use xlink:href="#meab2090817" x="317.039188" y="325.020625" style="stroke: #000000; stroke-width: 0.8"/>
      </g>
     </g>
     <g id="text_3">
      <!-- 0.003 -->
      <g transform="translate(291.273876 345.697812) scale(0.18 -0.18)">
       <defs>
        <path id="DejaVuSans-33" d="M 2597 2516 
Q 3050 2419 3304 2112 
Q 3559 1806 3559 1356 
Q 3559 666 3084 287 
Q 2609 -91 1734 -91 
Q 1441 -91 1130 -33 
Q 819 25 488 141 
L 488 750 
Q 750 597 1062 519 
Q 1375 441 1716 441 
Q 2309 441 2620 675 
Q 2931 909 2931 1356 
Q 2931 1769 2642 2001 
Q 2353 2234 1838 2234 
L 1294 2234 
L 1294 2753 
L 1863 2753 
Q 2328 2753 2575 2939 
Q 2822 3125 2822 3475 
Q 2822 3834 2567 4026 
Q 2313 4219 1838 4219 
Q 1578 4219 1281 4162 
Q 984 4106 628 3988 
L 628 4550 
Q 988 4650 1302 4700 
Q 1616 4750 1894 4750 
Q 2613 4750 3031 4423 
Q 3450 4097 3450 3541 
Q 3450 3153 3228 2886 
Q 3006 2619 2597 2516 
z
" transform="scale(0.015625)"/>
       </defs>
       <use xlink:href="#DejaVuSans-30"/>
       <use xlink:href="#DejaVuSans-2e" x="63.623047"/>
       <use xlink:href="#DejaVuSans-30" x="95.410156"/>
       <use xlink:href="#DejaVuSans-30" x="159.033203"/>
       <use xlink:href="#DejaVuSans-33" x="222.65625"/>
      </g>
     </g>
    </g>
    <g id="text_4">
     <!-- EMD -->
     <g transform="translate(180.178532 367.118437) scale(0.18 -0.18)">
      <defs>
       <path id="DejaVuSans-45" d="M 628 4666 
L 3578 4666 
L 3578 4134 
L 1259 4134 
L 1259 2753 
L 3481 2753 
L 3481 2222 
L 1259 2222 
L 1259 531 
L 3634 531 
L 3634 0 
L 628 0 
L 628 4666 
z
" transform="scale(0.015625)"/>
       <path id="DejaVuSans-4d" d="M 628 4666 
L 1569 4666 
L 2759 1491 
L 3956 4666 
L 4897 4666 
L 4897 0 
L 4281 0 
L 4281 4097 
L 3078 897 
L 2444 897 
L 1241 4097 
L 1241 0 
L 628 0 
L 628 4666 
z
" transform="scale(0.015625)"/>
       <path id="DejaVuSans-44" d="M 1259 4147 
L 1259 519 
L 2022 519 
Q 2988 519 3436 956 
Q 3884 1394 3884 2338 
Q 3884 3275 3436 3711 
Q 2988 4147 2022 4147 
L 1259 4147 
z
M 628 4666 
L 1925 4666 
Q 3281 4666 3915 4102 
Q 4550 3538 4550 2338 
Q 4550 1131 3912 565 
Q 3275 0 1925 0 
L 628 0 
L 628 4666 
z
" transform="scale(0.015625)"/>
      </defs>
      <use xlink:href="#DejaVuSans-45"/>
      <use xlink:href="#DejaVuSans-4d" x="63.183594"/>
      <use xlink:href="#DejaVuSans-44" x="149.462891"/>
     </g>
    </g>
   </g>
   <g id="matplotlib.axis_2">
    <g id="ytick_1">
     <g id="line2d_4">
      <defs>
       <path id="mf3be048de7" d="M 0 0 
L -3.5 0 
" style="stroke: #000000; stroke-width: 0.8"/>
      </defs>
      <g>
       <use xlink:href="#mf3be048de7" x="84.08225" y="325.020625" style="stroke: #000000; stroke-width: 0.8"/>
      </g>
     </g>
     <g id="text_5">
      <!-- 0 -->
      <g transform="translate(65.62975 331.859219) scale(0.18 -0.18)">
       <use xlink:href="#DejaVuSans-30"/>
      </g>
     </g>
    </g>
    <g id="ytick_2">
     <g id="line2d_5">
      <g>
       <use xlink:href="#mf3be048de7" x="84.08225" y="257.836508" style="stroke: #000000; stroke-width: 0.8"/>
      </g>
     </g>
     <g id="text_6">
      <!-- 200 -->
      <g transform="translate(42.72475 264.675101) scale(0.18 -0.18)">
       <use xlink:href="#DejaVuSans-32"/>
       <use xlink:href="#DejaVuSans-30" x="63.623047"/>
       <use xlink:href="#DejaVuSans-30" x="127.246094"/>
      </g>
     </g>
    </g>
    <g id="ytick_3">
     <g id="line2d_6">
      <g>
       <use xlink:href="#mf3be048de7" x="84.08225" y="190.65239" style="stroke: #000000; stroke-width: 0.8"/>
      </g>
     </g>
     <g id="text_7">
      <!-- 400 -->
      <g transform="translate(42.72475 197.490984) scale(0.18 -0.18)">
       <defs>
        <path id="DejaVuSans-34" d="M 2419 4116 
L 825 1625 
L 2419 1625 
L 2419 4116 
z
M 2253 4666 
L 3047 4666 
L 3047 1625 
L 3713 1625 
L 3713 1100 
L 3047 1100 
L 3047 0 
L 2419 0 
L 2419 1100 
L 313 1100 
L 313 1709 
L 2253 4666 
z
" transform="scale(0.015625)"/>
       </defs>
       <use xlink:href="#DejaVuSans-34"/>
       <use xlink:href="#DejaVuSans-30" x="63.623047"/>
       <use xlink:href="#DejaVuSans-30" x="127.246094"/>
      </g>
     </g>
    </g>
    <g id="ytick_4">
     <g id="line2d_7">
      <g>
       <use xlink:href="#mf3be048de7" x="84.08225" y="123.468273" style="stroke: #000000; stroke-width: 0.8"/>
      </g>
     </g>
     <g id="text_8">
      <!-- 600 -->
      <g transform="translate(42.72475 130.306867) scale(0.18 -0.18)">
       <defs>
        <path id="DejaVuSans-36" d="M 2113 2584 
Q 1688 2584 1439 2293 
Q 1191 2003 1191 1497 
Q 1191 994 1439 701 
Q 1688 409 2113 409 
Q 2538 409 2786 701 
Q 3034 994 3034 1497 
Q 3034 2003 2786 2293 
Q 2538 2584 2113 2584 
z
M 3366 4563 
L 3366 3988 
Q 3128 4100 2886 4159 
Q 2644 4219 2406 4219 
Q 1781 4219 1451 3797 
Q 1122 3375 1075 2522 
Q 1259 2794 1537 2939 
Q 1816 3084 2150 3084 
Q 2853 3084 3261 2657 
Q 3669 2231 3669 1497 
Q 3669 778 3244 343 
Q 2819 -91 2113 -91 
Q 1303 -91 875 529 
Q 447 1150 447 2328 
Q 447 3434 972 4092 
Q 1497 4750 2381 4750 
Q 2619 4750 2861 4703 
Q 3103 4656 3366 4563 
z
" transform="scale(0.015625)"/>
       </defs>
       <use xlink:href="#DejaVuSans-36"/>
       <use xlink:href="#DejaVuSans-30" x="63.623047"/>
       <use xlink:href="#DejaVuSans-30" x="127.246094"/>
      </g>
     </g>
    </g>
    <g id="ytick_5">
     <g id="line2d_8">
      <g>
       <use xlink:href="#mf3be048de7" x="84.08225" y="56.284155" style="stroke: #000000; stroke-width: 0.8"/>
      </g>
     </g>
     <g id="text_9">
      <!-- 800 -->
      <g transform="translate(42.72475 63.122749) scale(0.18 -0.18)">
       <defs>
        <path id="DejaVuSans-38" d="M 2034 2216 
Q 1584 2216 1326 1975 
Q 1069 1734 1069 1313 
Q 1069 891 1326 650 
Q 1584 409 2034 409 
Q 2484 409 2743 651 
Q 3003 894 3003 1313 
Q 3003 1734 2745 1975 
Q 2488 2216 2034 2216 
z
M 1403 2484 
Q 997 2584 770 2862 
Q 544 3141 544 3541 
Q 544 4100 942 4425 
Q 1341 4750 2034 4750 
Q 2731 4750 3128 4425 
Q 3525 4100 3525 3541 
Q 3525 3141 3298 2862 
Q 3072 2584 2669 2484 
Q 3125 2378 3379 2068 
Q 3634 1759 3634 1313 
Q 3634 634 3220 271 
Q 2806 -91 2034 -91 
Q 1263 -91 848 271 
Q 434 634 434 1313 
Q 434 1759 690 2068 
Q 947 2378 1403 2484 
z
M 1172 3481 
Q 1172 3119 1398 2916 
Q 1625 2713 2034 2713 
Q 2441 2713 2670 2916 
Q 2900 3119 2900 3481 
Q 2900 3844 2670 4047 
Q 2441 4250 2034 4250 
Q 1625 4250 1398 4047 
Q 1172 3844 1172 3481 
z
" transform="scale(0.015625)"/>
       </defs>
       <use xlink:href="#DejaVuSans-38"/>
       <use xlink:href="#DejaVuSans-30" x="63.623047"/>
       <use xlink:href="#DejaVuSans-30" x="127.246094"/>
      </g>
     </g>
    </g>
    <g id="text_10">
     <!-- Frecuency -->
     <g transform="translate(34.981313 236.275631) rotate(-90) scale(0.18 -0.18)">
      <defs>
       <path id="DejaVuSans-46" d="M 628 4666 
L 3309 4666 
L 3309 4134 
L 1259 4134 
L 1259 2759 
L 3109 2759 
L 3109 2228 
L 1259 2228 
L 1259 0 
L 628 0 
L 628 4666 
z
" transform="scale(0.015625)"/>
       <path id="DejaVuSans-72" d="M 2631 2963 
Q 2534 3019 2420 3045 
Q 2306 3072 2169 3072 
Q 1681 3072 1420 2755 
Q 1159 2438 1159 1844 
L 1159 0 
L 581 0 
L 581 3500 
L 1159 3500 
L 1159 2956 
Q 1341 3275 1631 3429 
Q 1922 3584 2338 3584 
Q 2397 3584 2469 3576 
Q 2541 3569 2628 3553 
L 2631 2963 
z
" transform="scale(0.015625)"/>
       <path id="DejaVuSans-65" d="M 3597 1894 
L 3597 1613 
L 953 1613 
Q 991 1019 1311 708 
Q 1631 397 2203 397 
Q 2534 397 2845 478 
Q 3156 559 3463 722 
L 3463 178 
Q 3153 47 2828 -22 
Q 2503 -91 2169 -91 
Q 1331 -91 842 396 
Q 353 884 353 1716 
Q 353 2575 817 3079 
Q 1281 3584 2069 3584 
Q 2775 3584 3186 3129 
Q 3597 2675 3597 1894 
z
M 3022 2063 
Q 3016 2534 2758 2815 
Q 2500 3097 2075 3097 
Q 1594 3097 1305 2825 
Q 1016 2553 972 2059 
L 3022 2063 
z
" transform="scale(0.015625)"/>
       <path id="DejaVuSans-63" d="M 3122 3366 
L 3122 2828 
Q 2878 2963 2633 3030 
Q 2388 3097 2138 3097 
Q 1578 3097 1268 2742 
Q 959 2388 959 1747 
Q 959 1106 1268 751 
Q 1578 397 2138 397 
Q 2388 397 2633 464 
Q 2878 531 3122 666 
L 3122 134 
Q 2881 22 2623 -34 
Q 2366 -91 2075 -91 
Q 1284 -91 818 406 
Q 353 903 353 1747 
Q 353 2603 823 3093 
Q 1294 3584 2113 3584 
Q 2378 3584 2631 3529 
Q 2884 3475 3122 3366 
z
" transform="scale(0.015625)"/>
       <path id="DejaVuSans-75" d="M 544 1381 
L 544 3500 
L 1119 3500 
L 1119 1403 
Q 1119 906 1312 657 
Q 1506 409 1894 409 
Q 2359 409 2629 706 
Q 2900 1003 2900 1516 
L 2900 3500 
L 3475 3500 
L 3475 0 
L 2900 0 
L 2900 538 
Q 2691 219 2414 64 
Q 2138 -91 1772 -91 
Q 1169 -91 856 284 
Q 544 659 544 1381 
z
M 1991 3584 
L 1991 3584 
z
" transform="scale(0.015625)"/>
       <path id="DejaVuSans-6e" d="M 3513 2113 
L 3513 0 
L 2938 0 
L 2938 2094 
Q 2938 2591 2744 2837 
Q 2550 3084 2163 3084 
Q 1697 3084 1428 2787 
Q 1159 2491 1159 1978 
L 1159 0 
L 581 0 
L 581 3500 
L 1159 3500 
L 1159 2956 
Q 1366 3272 1645 3428 
Q 1925 3584 2291 3584 
Q 2894 3584 3203 3211 
Q 3513 2838 3513 2113 
z
" transform="scale(0.015625)"/>
       <path id="DejaVuSans-79" d="M 2059 -325 
Q 1816 -950 1584 -1140 
Q 1353 -1331 966 -1331 
L 506 -1331 
L 506 -850 
L 844 -850 
Q 1081 -850 1212 -737 
Q 1344 -625 1503 -206 
L 1606 56 
L 191 3500 
L 800 3500 
L 1894 763 
L 2988 3500 
L 3597 3500 
L 2059 -325 
z
" transform="scale(0.015625)"/>
      </defs>
      <use xlink:href="#DejaVuSans-46"/>
      <use xlink:href="#DejaVuSans-72" x="50.269531"/>
      <use xlink:href="#DejaVuSans-65" x="89.132812"/>
      <use xlink:href="#DejaVuSans-63" x="150.65625"/>
      <use xlink:href="#DejaVuSans-75" x="205.636719"/>
      <use xlink:href="#DejaVuSans-65" x="269.015625"/>
      <use xlink:href="#DejaVuSans-6e" x="330.539062"/>
      <use xlink:href="#DejaVuSans-63" x="393.917969"/>
      <use xlink:href="#DejaVuSans-79" x="448.898438"/>
     </g>
    </g>
   </g>
   <g id="patch_3">
    <path d="M 84.08225 325.020625 
L 84.08225 56.073762 
" style="fill: none; stroke: #000000; stroke-width: 0.8; stroke-linejoin: miter; stroke-linecap: square"/>
   </g>
   <g id="patch_4">
    <path d="M 84.08225 325.020625 
L 317.039188 325.020625 
" style="fill: none; stroke: #000000; stroke-width: 0.8; stroke-linejoin: miter; stroke-linecap: square"/>
   </g>
  </g>
  <g id="legend_1">
   <g id="patch_5">
    <path d="M 14.4 28.077187 
L 50.4 28.077187 
L 50.4 15.477187 
L 14.4 15.477187 
z
" style="fill: #1f77b4; fill-opacity: 0.25; stroke: #1f77b4; stroke-linejoin: miter"/>
   </g>
   <g id="text_11">
    <!-- Naive -->
    <g transform="translate(64.8 28.077187) scale(0.18 -0.18)">
     <defs>
      <path id="DejaVuSans-4e" d="M 628 4666 
L 1478 4666 
L 3547 763 
L 3547 4666 
L 4159 4666 
L 4159 0 
L 3309 0 
L 1241 3903 
L 1241 0 
L 628 0 
L 628 4666 
z
" transform="scale(0.015625)"/>
      <path id="DejaVuSans-61" d="M 2194 1759 
Q 1497 1759 1228 1600 
Q 959 1441 959 1056 
Q 959 750 1161 570 
Q 1363 391 1709 391 
Q 2188 391 2477 730 
Q 2766 1069 2766 1631 
L 2766 1759 
L 2194 1759 
z
M 3341 1997 
L 3341 0 
L 2766 0 
L 2766 531 
Q 2569 213 2275 61 
Q 1981 -91 1556 -91 
Q 1019 -91 701 211 
Q 384 513 384 1019 
Q 384 1609 779 1909 
Q 1175 2209 1959 2209 
L 2766 2209 
L 2766 2266 
Q 2766 2663 2505 2880 
Q 2244 3097 1772 3097 
Q 1472 3097 1187 3025 
Q 903 2953 641 2809 
L 641 3341 
Q 956 3463 1253 3523 
Q 1550 3584 1831 3584 
Q 2591 3584 2966 3190 
Q 3341 2797 3341 1997 
z
" transform="scale(0.015625)"/>
      <path id="DejaVuSans-69" d="M 603 3500 
L 1178 3500 
L 1178 0 
L 603 0 
L 603 3500 
z
M 603 4863 
L 1178 4863 
L 1178 4134 
L 603 4134 
L 603 4863 
z
" transform="scale(0.015625)"/>
      <path id="DejaVuSans-76" d="M 191 3500 
L 800 3500 
L 1894 563 
L 2988 3500 
L 3597 3500 
L 2284 0 
L 1503 0 
L 191 3500 
z
" transform="scale(0.015625)"/>
     </defs>
     <use xlink:href="#DejaVuSans-4e"/>
     <use xlink:href="#DejaVuSans-61" x="74.804688"/>
     <use xlink:href="#DejaVuSans-69" x="136.083984"/>
     <use xlink:href="#DejaVuSans-76" x="163.867188"/>
     <use xlink:href="#DejaVuSans-65" x="223.046875"/>
    </g>
   </g>
   <g id="patch_6">
    <path d="M 152.026875 28.077187 
L 188.026875 28.077187 
L 188.026875 15.477187 
L 152.026875 15.477187 
z
" style="fill: #ff7f0e; fill-opacity: 0.25; stroke: #ff7f0e; stroke-linejoin: miter"/>
   </g>
   <g id="text_12">
    <!-- KDE -->
    <g transform="translate(202.426875 28.077187) scale(0.18 -0.18)">
     <defs>
      <path id="DejaVuSans-4b" d="M 628 4666 
L 1259 4666 
L 1259 2694 
L 3353 4666 
L 4166 4666 
L 1850 2491 
L 4331 0 
L 3500 0 
L 1259 2247 
L 1259 0 
L 628 0 
L 628 4666 
z
" transform="scale(0.015625)"/>
     </defs>
     <use xlink:href="#DejaVuSans-4b"/>
     <use xlink:href="#DejaVuSans-44" x="65.576172"/>
     <use xlink:href="#DejaVuSans-45" x="142.578125"/>
    </g>
   </g>
   <g id="patch_7">
    <path d="M 275.464687 28.077187 
L 311.464687 28.077187 
L 311.464687 15.477187 
L 275.464687 15.477187 
z
" style="fill: #2ca02c; fill-opacity: 0.25; stroke: #2ca02c; stroke-linejoin: miter"/>
   </g>
   <g id="text_13">
    <!-- SEPP -->
    <g transform="translate(325.864687 28.077187) scale(0.18 -0.18)">
     <defs>
      <path id="DejaVuSans-53" d="M 3425 4513 
L 3425 3897 
Q 3066 4069 2747 4153 
Q 2428 4238 2131 4238 
Q 1616 4238 1336 4038 
Q 1056 3838 1056 3469 
Q 1056 3159 1242 3001 
Q 1428 2844 1947 2747 
L 2328 2669 
Q 3034 2534 3370 2195 
Q 3706 1856 3706 1288 
Q 3706 609 3251 259 
Q 2797 -91 1919 -91 
Q 1588 -91 1214 -16 
Q 841 59 441 206 
L 441 856 
Q 825 641 1194 531 
Q 1563 422 1919 422 
Q 2459 422 2753 634 
Q 3047 847 3047 1241 
Q 3047 1584 2836 1778 
Q 2625 1972 2144 2069 
L 1759 2144 
Q 1053 2284 737 2584 
Q 422 2884 422 3419 
Q 422 4038 858 4394 
Q 1294 4750 2059 4750 
Q 2388 4750 2728 4690 
Q 3069 4631 3425 4513 
z
" transform="scale(0.015625)"/>
      <path id="DejaVuSans-50" d="M 1259 4147 
L 1259 2394 
L 2053 2394 
Q 2494 2394 2734 2622 
Q 2975 2850 2975 3272 
Q 2975 3691 2734 3919 
Q 2494 4147 2053 4147 
L 1259 4147 
z
M 628 4666 
L 2053 4666 
Q 2838 4666 3239 4311 
Q 3641 3956 3641 3272 
Q 3641 2581 3239 2228 
Q 2838 1875 2053 1875 
L 1259 1875 
L 1259 0 
L 628 0 
L 628 4666 
z
" transform="scale(0.015625)"/>
     </defs>
     <use xlink:href="#DejaVuSans-53"/>
     <use xlink:href="#DejaVuSans-45" x="63.476562"/>
     <use xlink:href="#DejaVuSans-50" x="126.660156"/>
     <use xlink:href="#DejaVuSans-50" x="186.962891"/>
    </g>
   </g>
  </g>
 </g>
 <defs>
  <clipPath id="p612ee01c86">
   <rect x="84.08225" y="56.073762" width="232.956938" height="268.946863"/>
  </clipPath>
 </defs>
</svg>
